<svg width="151" height="130" viewBox="0 0 151 130" fill="none" xmlns="http://www.w3.org/2000/svg">
<path d="M120.775 12.7004C116.223 4.85797 107.841 0.03125 98.7737 0.03125H52.9138C43.8463 0.03125 35.4644 4.85798 30.913 12.7004L8.0977 52.0129C3.51546 59.9085 3.51547 69.654 8.09771 77.5496L30.913 116.862C35.4644 124.705 43.8463 129.531 52.9138 129.531H98.7737C107.841 129.531 116.223 124.705 120.775 116.862L143.59 77.5496C148.172 69.654 148.172 59.9085 143.59 52.0129L120.775 12.7004Z" fill="url(#paint0_radial_767_4396)"/>
<path d="M75.3472 84.4606C71.6703 84.4606 68.6987 87.4438 68.6987 91.1091C68.6987 94.7859 71.6819 97.7575 75.3472 97.7575C79.0125 97.7575 81.9956 94.7744 81.9956 91.1091C81.9956 87.4438 79.0125 84.4606 75.3472 84.4606Z" fill="white"/>
<path d="M75.3472 31.25C70.8725 31.25 67.3575 35.1003 67.7853 39.5634L71.4044 77.6387C71.6009 79.6737 73.3122 81.2231 75.3472 81.2231C77.3937 81.2231 79.105 79.6737 79.29 77.6387L82.9091 39.5634C83.3253 35.1003 79.8219 31.25 75.3472 31.25Z" fill="white"/>
<defs>
<radialGradient id="paint0_radial_767_4396" cx="0" cy="0" r="1" gradientUnits="userSpaceOnUse" gradientTransform="translate(16.9673 175.781) rotate(-31.2062) scale(214.236 171.547)">
<stop stop-color="#FAA628"/>
<stop offset="0.59375" stop-color="#E62C28"/>
<stop offset="1" stop-color="#A01A19"/>
</radialGradient>
</defs>
</svg>
