<svg width="1920" height="8133" viewBox="0 0 1920 8133" fill="none" xmlns="http://www.w3.org/2000/svg">
<g opacity="0.4">
<path d="M0 0H783.898L349.44 111.782L0 0Z" fill="#ECECEC"/>
<path d="M783.898 0H1399.99L1181.61 346.291L783.898 0Z" fill="#ECECEC"/>
<path d="M0 609.293L271.258 140.275L0 0V609.293Z" fill="#D6D6D6"/>
<path d="M271.258 140.275L340.224 488.755L0 609.293L271.258 140.275Z" fill="#DCDCDC"/>
<path d="M271.258 140.275L570.125 394.522L340.224 488.755L271.258 140.275Z" fill="#E5E5E5"/>
<path d="M0 609.293L326.438 751.757L149.414 924.941L0 609.293Z" fill="#DDDDDD"/>
<path d="M0 609.293V1221.43L149.414 924.941L0 609.293Z" fill="#F4F4F4"/>
<path d="M340.224 488.755L326.438 751.757L0 609.293L340.224 488.755Z" fill="#EBEBEB"/>
<path d="M149.414 924.941L326.438 1021.36L0 1221.43L149.414 924.941Z" fill="#EDEDED"/>
<path d="M326.438 751.757V1021.36L149.414 924.941L326.438 751.757Z" fill="#F1F1F1"/>
<path d="M326.438 1021.36L443.674 1221.43H0L326.438 1021.36Z" fill="#D5D5D5"/>
<path d="M326.438 1021.36L632.179 1152.88L758.63 1179.19L443.674 1221.43L326.438 1021.36Z" fill="#CCCCCC"/>
<path d="M326.438 1021.36L508.032 915.379L635.674 1153.61L326.438 1021.36Z" fill="#E8E8E8"/>
<path d="M349.44 111.782L570.125 179.712L783.898 0L349.44 111.782Z" fill="#DDDDDD"/>
<path d="M570.125 179.712L645.35 258.624L783.898 0L570.125 179.712Z" fill="#D5D5D5"/>
<path d="M645.35 258.624L1181.61 346.291L783.898 0L645.35 258.624Z" fill="#CFCFCF"/>
<path d="M1399.99 0L1459.78 216.998L1181.61 346.291L1399.99 0Z" fill="#E5E5E5"/>
<path d="M1181.61 346.291L1091.94 508.493L645.35 258.624L1181.61 346.291Z" fill="#D4D4D4"/>
<path d="M1091.94 508.493L1354.02 335.347L1181.61 346.291L1091.94 508.493Z" fill="#DBDBDB"/>
<path d="M1354.02 335.347L1459.78 216.998L1181.61 346.291L1354.02 335.347Z" fill="#ECECEC"/>
<path d="M1354.02 335.347L1650.59 523.814L1091.94 508.493L1354.02 335.347Z" fill="#E2E2E2"/>
<path d="M783.898 830.669L829.901 580.8L1091.94 508.493L783.898 830.669Z" fill="#D1D1D1"/>
<path d="M340.224 488.755L542.515 841.651L326.438 751.757L340.224 488.755Z" fill="#D3D3D3"/>
<path d="M570.125 394.522L542.515 841.651L340.224 488.755L570.125 394.522Z" fill="#DBDBDB"/>
<path d="M570.125 394.522L829.901 580.8L542.515 841.651L570.125 394.522Z" fill="#E4E4E4"/>
<path d="M542.515 841.651L783.898 830.669L829.901 580.8L542.515 841.651Z" fill="#E7E7E7"/>
<path d="M570.125 394.522V179.712L829.901 580.8L570.125 394.522Z" fill="#DFDFDF"/>
<path d="M570.125 394.522V179.712L0 0L271.258 140.275L570.125 394.522Z" fill="#F7F7F7"/>
<path d="M1399.99 0L1650.59 89.856L1920 0H1399.99Z" fill="#F6F6F6"/>
<path d="M1920 1221.43L1793.09 1035.49L1920 523.814V1221.43Z" fill="#DBDBDB"/>
<path d="M1091.94 508.493L1234.48 1035.49L783.898 830.669L1091.94 508.493Z" fill="#EDEDED"/>
<path d="M508.032 915.379L783.898 830.669L635.674 1153.61L508.032 915.379Z" fill="#EBEBEB"/>
<path d="M508.032 915.379L542.515 841.651L783.898 830.669L508.032 915.379Z" fill="#F3F3F3"/>
<path d="M326.438 751.757V1021.36L508.032 915.379L542.515 841.651L326.438 751.757Z" fill="#F0F0F0"/>
<path d="M783.898 830.669L758.63 1179.19L635.674 1153.61L783.898 830.669Z" fill="#DFDFDF"/>
<path d="M783.898 830.669L1160.91 1144.09L758.63 1179.19L783.898 830.669Z" fill="#F7F7F7"/>
<path d="M1091.94 508.493L1418.38 854.784L1234.48 1035.49L1091.94 508.493Z" fill="#F5F5F5"/>
<path d="M1650.59 523.814L1418.38 854.784L1091.94 508.493L1650.59 523.814Z" fill="#EDEDED"/>
<path d="M1418.38 854.784L1570.1 993.139L1383.9 1141.9L1234.48 1035.49L1418.38 854.784Z" fill="#EEEEEE"/>
<path d="M1234.48 1035.49L1160.91 1144.09L783.898 830.669L1234.48 1035.49Z" fill="#E2E2E2"/>
<path d="M443.674 1221.43L783.898 1382.71L1140.21 1221.43L758.63 1179.19L443.674 1221.43Z" fill="#E5E5E5"/>
<path d="M1160.91 1144.09L1140.21 1221.43L758.63 1179.19L1160.91 1144.09Z" fill="#D5D5D5"/>
<path d="M1140.21 1221.43L1383.9 1141.9L1234.48 1035.49L1160.91 1144.09L1140.21 1221.43Z" fill="#D8D8D8"/>
<path d="M1140.21 1221.43L1383.9 1141.9L1920 1221.43L1399.99 1382.71L1140.21 1221.43Z" fill="#E2E2E2"/>
<path d="M1383.9 1141.9L1793.09 1035.49L1920 1221.43L1383.9 1141.9Z" fill="#D3D3D3"/>
<path d="M1570.1 993.139L1383.9 1141.9L1793.09 1035.49L1570.1 993.139Z" fill="#E2E2E2"/>
<path d="M1570.1 993.139L1747.12 924.941L1793.09 1035.49L1570.1 993.139Z" fill="#F3F3F3"/>
<path d="M1650.59 523.814H1920L1793.09 1035.49L1747.12 924.941L1650.59 523.814Z" fill="#EDEDED"/>
<path d="M1354.02 335.347L1602.32 346.291L1650.59 523.814L1354.02 335.347Z" fill="#EBEBEB"/>
<path d="M1602.32 346.291L1920 523.814H1650.59L1602.32 346.291Z" fill="#E2E2E2"/>
<path d="M271.258 140.275L570.125 179.712V394.522L271.258 140.275Z" fill="#EEEEEE"/>
<path d="M1602.32 346.291L1622.98 179.712L1920 523.814L1602.32 346.291Z" fill="#F7F7F7"/>
<path d="M1622.98 179.712L1920 0V523.814L1622.98 179.712Z" fill="#EFEFEF"/>
<path d="M1459.78 216.998L1650.59 89.856L1399.99 0L1459.78 216.998Z" fill="#FAFAFA"/>
<path d="M1622.98 179.712L1459.78 216.998L1354.02 335.347L1602.32 346.291L1622.98 179.712Z" fill="#F3F3F3"/>
<path d="M1418.38 854.784L1747.12 924.941L1570.1 993.139L1418.38 854.784Z" fill="#EEEEEE"/>
<path d="M1418.38 854.784L1650.59 523.814L1747.12 924.941L1418.38 854.784Z" fill="#F9F9F9"/>
<path d="M1459.78 216.998L1650.59 89.856L1920 0L1622.98 179.712L1459.78 216.998Z" fill="#F9F9F9"/>
<path d="M570.125 179.712L645.35 258.624L1091.94 508.493L829.901 580.8L570.125 179.712Z" fill="#EEEEEE"/>
<path d="M0 1382.71L443.674 1221.43L783.898 1382.71L349.44 1494.49L0 1382.71Z" fill="#ECECEC"/>
<path d="M783.898 1382.71L1140.21 1221.43L1399.99 1382.71L1181.61 1729L783.898 1382.71Z" fill="#ECECEC"/>
<path d="M0 1992L271.258 1522.98L0 1382.71V1992Z" fill="#D6D6D6"/>
<path d="M271.258 1522.98L340.224 1871.46L0 1992L271.258 1522.98Z" fill="#DCDCDC"/>
<path d="M271.258 1522.98L570.125 1777.23L340.224 1871.46L271.258 1522.98Z" fill="#E5E5E5"/>
<path d="M0 1992L326.438 2134.46L149.414 2307.61L0 1992Z" fill="#DDDDDD"/>
<path d="M340.224 1871.46L326.438 2134.46L0 1992L340.224 1871.46Z" fill="#EBEBEB"/>
<path d="M326.438 2134.46V2404.07L149.414 2307.61L326.438 2134.46Z" fill="#F1F1F1"/>
<path d="M349.44 1494.49L570.125 1562.42L783.898 1382.71L349.44 1494.49Z" fill="#DDDDDD"/>
<path d="M570.125 1562.42L645.35 1641.33L783.898 1382.71L570.125 1562.42Z" fill="#D5D5D5"/>
<path d="M645.35 1641.33L1181.61 1729L783.898 1382.71L645.35 1641.33Z" fill="#CFCFCF"/>
<path d="M1399.99 1382.71L1459.78 1599.67L1181.61 1729L1399.99 1382.71Z" fill="#E5E5E5"/>
<path d="M1181.61 1729L1091.94 1891.2L645.35 1641.33L1181.61 1729Z" fill="#D4D4D4"/>
<path d="M1091.94 1891.2L1354.02 1718.05L1181.61 1729L1091.94 1891.2Z" fill="#DBDBDB"/>
<path d="M1354.02 1718.05L1459.78 1599.67L1181.61 1729L1354.02 1718.05Z" fill="#ECECEC"/>
<path d="M1354.02 1718.05L1650.59 1906.52L1091.94 1891.2L1354.02 1718.05Z" fill="#E2E2E2"/>
<path d="M783.898 2213.38L829.901 1963.51L1091.94 1891.2L783.898 2213.38Z" fill="#D1D1D1"/>
<path d="M340.224 1871.46L542.515 2224.32L326.438 2134.46L340.224 1871.46Z" fill="#D3D3D3"/>
<path d="M570.125 1777.23L542.515 2224.32L340.224 1871.46L570.125 1777.23Z" fill="#DBDBDB"/>
<path d="M570.125 1777.23L829.901 1963.51L542.515 2224.32L570.125 1777.23Z" fill="#E4E4E4"/>
<path d="M542.515 2224.32L783.898 2213.38L829.901 1963.51L542.515 2224.32Z" fill="#E7E7E7"/>
<path d="M570.125 1777.23V1562.42L829.901 1963.51L570.125 1777.23Z" fill="#DFDFDF"/>
<path d="M570.125 1777.23V1562.42L0 1382.71L271.258 1522.98L570.125 1777.23Z" fill="#F7F7F7"/>
<path d="M1399.99 1382.71L1650.59 1472.56L1920 1382.71H1399.99Z" fill="#F6F6F6"/>
<path d="M1091.94 1891.2L1234.48 2418.2L783.898 2213.38L1091.94 1891.2Z" fill="#EDEDED"/>
<path d="M508.032 2298.09L542.515 2224.32L783.898 2213.38L508.032 2298.09Z" fill="#F3F3F3"/>
<path d="M326.438 2134.46V2404.07L508.032 2298.09L542.515 2224.32L326.438 2134.46Z" fill="#F0F0F0"/>
<path d="M1091.94 1891.2L1418.38 2237.49L1234.48 2418.2L1091.94 1891.2Z" fill="#F5F5F5"/>
<path d="M1650.59 1906.52L1418.38 2237.49L1091.94 1891.2L1650.59 1906.52Z" fill="#EDEDED"/>
<path d="M1570.1 2375.85L1747.12 2307.61L1793.09 2418.2L1570.1 2375.85Z" fill="#F3F3F3"/>
<path d="M1650.59 1906.52L1920 1906.52L1793.09 2418.2L1747.12 2307.61L1650.59 1906.52Z" fill="#EDEDED"/>
<path d="M1354.02 1718.05L1602.32 1729L1650.59 1906.52L1354.02 1718.05Z" fill="#EBEBEB"/>
<path d="M1602.32 1729L1920 1906.52L1650.59 1906.52L1602.32 1729Z" fill="#E2E2E2"/>
<path d="M271.258 1522.98L570.125 1562.42V1777.23L271.258 1522.98Z" fill="#EEEEEE"/>
<path d="M1602.32 1729L1622.98 1562.42L1920 1906.52L1602.32 1729Z" fill="#F7F7F7"/>
<path d="M1622.98 1562.42L1920 1382.71V1906.52L1622.98 1562.42Z" fill="#EFEFEF"/>
<path d="M1459.78 1599.67L1650.59 1472.56L1399.99 1382.71L1459.78 1599.67Z" fill="#FAFAFA"/>
<path d="M1622.98 1562.42L1459.78 1599.67L1354.02 1718.05L1602.32 1729L1622.98 1562.42Z" fill="#F3F3F3"/>
<path d="M1418.38 2237.49L1747.12 2307.61L1570.1 2375.85L1418.38 2237.49Z" fill="#EEEEEE"/>
<path d="M1418.38 2237.49L1650.59 1906.52L1747.12 2307.61L1418.38 2237.49Z" fill="#F9F9F9"/>
<path d="M1459.78 1599.67L1650.59 1472.56L1920 1382.71L1622.98 1562.42L1459.78 1599.67Z" fill="#F9F9F9"/>
<path d="M570.125 1562.42L645.35 1641.33L1091.94 1891.2L829.901 1963.51L570.125 1562.42Z" fill="#EEEEEE"/>
<path d="M0 1382.71V1221.43H443.674L0 1382.71Z" fill="#E5E5E5"/>
<path d="M0 1991.54V2603.67L149.414 2307.19L0 1991.54Z" fill="#F4F4F4"/>
<path d="M149.414 2307.19L326.438 2403.61L0 2603.67L149.414 2307.19Z" fill="#EDEDED"/>
<path d="M326.438 2403.61L443.674 2603.67H0L326.438 2403.61Z" fill="#D5D5D5"/>
<path d="M326.438 2403.61L632.179 2535.13L758.63 2561.43L443.674 2603.67L326.438 2403.61Z" fill="#CCCCCC"/>
<path d="M326.438 2403.61L508.032 2297.63L635.674 2535.86L326.438 2403.61Z" fill="#E8E8E8"/>
<path d="M1920 2603.67L1793.09 2417.74L1920 1906.06V2603.67Z" fill="#DBDBDB"/>
<path d="M508.032 2297.63L783.898 2212.92L635.674 2535.86L508.032 2297.63Z" fill="#EBEBEB"/>
<path d="M783.898 2212.92L758.63 2561.43L635.674 2535.86L783.898 2212.92Z" fill="#DFDFDF"/>
<path d="M783.898 2212.92L1160.91 2526.34L758.63 2561.43L783.898 2212.92Z" fill="#F7F7F7"/>
<path d="M1418.38 2237.03L1570.1 2375.39L1383.9 2524.15L1234.48 2417.74L1418.38 2237.03Z" fill="#EEEEEE"/>
<path d="M1234.48 2417.74L1160.91 2526.34L783.898 2212.92L1234.48 2417.74Z" fill="#E2E2E2"/>
<path d="M443.674 2603.67L783.898 2764.95L1140.21 2603.67L758.63 2561.43L443.674 2603.67Z" fill="#E5E5E5"/>
<path d="M1160.91 2526.34L1140.21 2603.67L758.63 2561.43L1160.91 2526.34Z" fill="#D5D5D5"/>
<path d="M1140.21 2603.67L1383.9 2524.15L1234.48 2417.74L1160.91 2526.34L1140.21 2603.67Z" fill="#D8D8D8"/>
<path d="M1140.21 2603.67L1383.9 2524.15L1920 2603.67L1399.99 2764.95L1140.21 2603.67Z" fill="#E2E2E2"/>
<path d="M1383.9 2524.15L1793.09 2417.74L1920 2603.67L1383.9 2524.15Z" fill="#D3D3D3"/>
<path d="M1570.1 2375.39L1383.9 2524.15L1793.09 2417.74L1570.1 2375.39Z" fill="#E2E2E2"/>
<path d="M443.674 3985.92L783.898 4147.2L1140.21 3985.92L758.63 3943.68L443.674 3985.92Z" fill="#E5E5E5"/>
<path d="M1140.21 3985.92L1383.9 3906.39L1920 3985.92L1399.99 4147.2L1140.21 3985.92Z" fill="#E2E2E2"/>
<path d="M0 4147.2L443.674 3985.92L783.898 4147.2L349.44 4258.98L0 4147.2Z" fill="#ECECEC"/>
<path d="M783.898 4147.2L1140.21 3985.92L1399.99 4147.2L1181.61 4493.49L783.898 4147.2Z" fill="#ECECEC"/>
<path d="M0 4756.49L271.258 4287.48L0 4147.2V4756.49Z" fill="#D6D6D6"/>
<path d="M271.258 4287.48L340.224 4635.96L0 4756.49L271.258 4287.48Z" fill="#DCDCDC"/>
<path d="M271.258 4287.48L570.125 4541.72L340.224 4635.96L271.258 4287.48Z" fill="#E5E5E5"/>
<path d="M0 4756.49L326.438 4898.96L149.414 5072.1L0 4756.49Z" fill="#DDDDDD"/>
<path d="M340.224 4635.96L326.438 4898.96L0 4756.49L340.224 4635.96Z" fill="#EBEBEB"/>
<path d="M326.438 4898.96V5168.56L149.414 5072.1L326.438 4898.96Z" fill="#F1F1F1"/>
<path d="M349.44 4258.98L570.125 4326.91L783.898 4147.2L349.44 4258.98Z" fill="#DDDDDD"/>
<path d="M570.125 4326.91L645.35 4405.82L783.898 4147.2L570.125 4326.91Z" fill="#D5D5D5"/>
<path d="M645.35 4405.82L1181.61 4493.49L783.898 4147.2L645.35 4405.82Z" fill="#CFCFCF"/>
<path d="M1399.99 4147.2L1459.78 4364.2L1181.61 4493.49L1399.99 4147.2Z" fill="#E5E5E5"/>
<path d="M1181.61 4493.49L1091.94 4655.69L645.35 4405.82L1181.61 4493.49Z" fill="#D4D4D4"/>
<path d="M1091.94 4655.69L1354.02 4482.55L1181.61 4493.49L1091.94 4655.69Z" fill="#DBDBDB"/>
<path d="M1354.02 4482.55L1459.78 4364.2L1181.61 4493.49L1354.02 4482.55Z" fill="#ECECEC"/>
<path d="M1354.02 4482.55L1650.59 4671.01L1091.94 4655.69L1354.02 4482.55Z" fill="#E2E2E2"/>
<path d="M783.898 4977.87L829.901 4728L1091.94 4655.69L783.898 4977.87Z" fill="#D1D1D1"/>
<path d="M340.224 4635.96L542.515 4988.81L326.438 4898.96L340.224 4635.96Z" fill="#D3D3D3"/>
<path d="M570.125 4541.72L542.515 4988.81L340.224 4635.96L570.125 4541.72Z" fill="#DBDBDB"/>
<path d="M570.125 4541.72L829.901 4728L542.515 4988.81L570.125 4541.72Z" fill="#E4E4E4"/>
<path d="M542.515 4988.81L783.898 4977.87L829.901 4728L542.515 4988.81Z" fill="#E7E7E7"/>
<path d="M570.125 4541.72V4326.91L829.901 4728L570.125 4541.72Z" fill="#DFDFDF"/>
<path d="M570.125 4541.72V4326.91L0 4147.2L271.258 4287.48L570.125 4541.72Z" fill="#F7F7F7"/>
<path d="M1399.99 4147.2L1650.59 4237.06L1920 4147.2H1399.99Z" fill="#F6F6F6"/>
<path d="M1091.94 4655.69L1234.48 5182.69L783.898 4977.87L1091.94 4655.69Z" fill="#EDEDED"/>
<path d="M508.032 5062.58L542.515 4988.81L783.898 4977.87L508.032 5062.58Z" fill="#F3F3F3"/>
<path d="M326.438 4898.96V5168.56L508.032 5062.58L542.515 4988.81L326.438 4898.96Z" fill="#F0F0F0"/>
<path d="M1091.94 4655.69L1418.38 5001.98L1234.48 5182.69L1091.94 4655.69Z" fill="#F5F5F5"/>
<path d="M1650.59 4671.01L1418.38 5001.98L1091.94 4655.69L1650.59 4671.01Z" fill="#EDEDED"/>
<path d="M1570.1 5140.34L1747.12 5072.1L1793.09 5182.69L1570.1 5140.34Z" fill="#F3F3F3"/>
<path d="M1650.59 4671.01H1920L1793.09 5182.69L1747.12 5072.1L1650.59 4671.01Z" fill="#EDEDED"/>
<path d="M1354.02 4482.55L1602.32 4493.49L1650.59 4671.01L1354.02 4482.55Z" fill="#EBEBEB"/>
<path d="M1602.32 4493.49L1920 4671.01H1650.59L1602.32 4493.49Z" fill="#E2E2E2"/>
<path d="M271.258 4287.48L570.125 4326.91V4541.72L271.258 4287.48Z" fill="#EEEEEE"/>
<path d="M1602.32 4493.49L1622.98 4326.91L1920 4671.01L1602.32 4493.49Z" fill="#F7F7F7"/>
<path d="M1622.98 4326.91L1920 4147.2V4671.01L1622.98 4326.91Z" fill="#EFEFEF"/>
<path d="M1459.78 4364.2L1650.59 4237.06L1399.99 4147.2L1459.78 4364.2Z" fill="#FAFAFA"/>
<path d="M1622.98 4326.91L1459.78 4364.2L1354.02 4482.55L1602.32 4493.49L1622.98 4326.91Z" fill="#F3F3F3"/>
<path d="M1418.38 5001.98L1747.12 5072.1L1570.1 5140.34L1418.38 5001.98Z" fill="#EEEEEE"/>
<path d="M1418.38 5001.98L1650.59 4671.01L1747.12 5072.1L1418.38 5001.98Z" fill="#F9F9F9"/>
<path d="M1459.78 4364.2L1650.59 4237.06L1920 4147.2L1622.98 4326.91L1459.78 4364.2Z" fill="#F9F9F9"/>
<path d="M570.125 4326.91L645.35 4405.82L1091.94 4655.69L829.901 4728L570.125 4326.91Z" fill="#EEEEEE"/>
<path d="M0 4147.2V3985.92H443.674L0 4147.2Z" fill="#E5E5E5"/>
<path d="M0 4756.07V5368.17L149.414 5071.68L0 4756.07Z" fill="#F4F4F4"/>
<path d="M149.414 5071.68L326.438 5168.1L0 5368.17L149.414 5071.68Z" fill="#EDEDED"/>
<path d="M326.438 5168.1L443.674 5368.17H0L326.438 5168.1Z" fill="#D5D5D5"/>
<path d="M326.438 5168.1L632.179 5299.62L758.63 5325.93L443.674 5368.17L326.438 5168.1Z" fill="#CCCCCC"/>
<path d="M326.438 5168.1L508.032 5062.12L635.674 5300.35L326.438 5168.1Z" fill="#E8E8E8"/>
<path d="M1920 5368.17L1793.09 5182.23L1920 4670.59V5368.17Z" fill="#DBDBDB"/>
<path d="M508.032 5062.12L783.898 4977.41L635.674 5300.35L508.032 5062.12Z" fill="#EBEBEB"/>
<path d="M783.898 4977.41L758.63 5325.93L635.674 5300.35L783.898 4977.41Z" fill="#DFDFDF"/>
<path d="M783.898 4977.41L1160.91 5290.83L758.63 5325.93L783.898 4977.41Z" fill="#F7F7F7"/>
<path d="M1418.38 5001.52L1570.1 5139.88L1383.9 5288.64L1234.48 5182.23L1418.38 5001.52Z" fill="#EEEEEE"/>
<path d="M1234.48 5182.23L1160.91 5290.83L783.898 4977.41L1234.48 5182.23Z" fill="#E2E2E2"/>
<path d="M1160.91 5290.83L1140.21 5368.17L758.63 5325.93L1160.91 5290.83Z" fill="#D5D5D5"/>
<path d="M1140.21 5368.17L1383.9 5288.64L1234.48 5182.23L1160.91 5290.83L1140.21 5368.17Z" fill="#D8D8D8"/>
<path d="M1383.9 5288.64L1793.09 5182.23L1920 5368.17L1383.9 5288.64Z" fill="#D3D3D3"/>
<path d="M1570.1 5139.88L1383.9 5288.64L1793.09 5182.23L1570.1 5139.88Z" fill="#E2E2E2"/>
<path d="M443.674 5368.17L783.898 5529.45L1140.21 5368.17L758.63 5325.93L443.674 5368.17Z" fill="#E5E5E5"/>
<path d="M1140.21 5368.17L1383.9 5288.64L1920 5368.17L1399.99 5529.45L1140.21 5368.17Z" fill="#E2E2E2"/>
<path d="M0 5529.45L443.674 5368.17L783.898 5529.45L349.44 5641.23L0 5529.45Z" fill="#ECECEC"/>
<path d="M783.898 5529.45L1140.21 5368.17L1399.99 5529.45L1181.61 5875.74L783.898 5529.45Z" fill="#ECECEC"/>
<path d="M0 6138.74L271.258 5669.72L0 5529.45V6138.74Z" fill="#D6D6D6"/>
<path d="M271.258 5669.72L340.224 6018.2L0 6138.74L271.258 5669.72Z" fill="#DCDCDC"/>
<path d="M271.258 5669.72L570.125 5923.97L340.224 6018.2L271.258 5669.72Z" fill="#E5E5E5"/>
<path d="M0 6138.74L326.438 6281.2L149.414 6454.35L0 6138.74Z" fill="#DDDDDD"/>
<path d="M340.224 6018.2L326.438 6281.2L0 6138.74L340.224 6018.2Z" fill="#EBEBEB"/>
<path d="M326.438 6281.2V6550.81L149.414 6454.35L326.438 6281.2Z" fill="#F1F1F1"/>
<path d="M349.44 5641.23L570.125 5709.16L783.898 5529.45L349.44 5641.23Z" fill="#DDDDDD"/>
<path d="M570.125 5709.16L645.35 5788.07L783.898 5529.45L570.125 5709.16Z" fill="#D5D5D5"/>
<path d="M645.35 5788.07L1181.61 5875.74L783.898 5529.45L645.35 5788.07Z" fill="#CFCFCF"/>
<path d="M1399.99 5529.45L1459.78 5746.44L1181.61 5875.74L1399.99 5529.45Z" fill="#E5E5E5"/>
<path d="M1181.61 5875.74L1091.94 6037.94L645.35 5788.07L1181.61 5875.74Z" fill="#D4D4D4"/>
<path d="M1091.94 6037.94L1354.02 5864.79L1181.61 5875.74L1091.94 6037.94Z" fill="#DBDBDB"/>
<path d="M1354.02 5864.79L1459.78 5746.44L1181.61 5875.74L1354.02 5864.79Z" fill="#ECECEC"/>
<path d="M1354.02 5864.79L1650.59 6053.26L1091.94 6037.94L1354.02 5864.79Z" fill="#E2E2E2"/>
<path d="M783.898 6360.12L829.901 6110.25L1091.94 6037.94L783.898 6360.12Z" fill="#D1D1D1"/>
<path d="M340.224 6018.2L542.515 6371.1L326.438 6281.2L340.224 6018.2Z" fill="#D3D3D3"/>
<path d="M570.125 5923.97L542.515 6371.1L340.224 6018.2L570.125 5923.97Z" fill="#DBDBDB"/>
<path d="M570.125 5923.97L829.901 6110.25L542.515 6371.1L570.125 5923.97Z" fill="#E4E4E4"/>
<path d="M542.515 6371.1L783.898 6360.12L829.901 6110.25L542.515 6371.1Z" fill="#E7E7E7"/>
<path d="M570.125 5923.97V5709.16L829.901 6110.25L570.125 5923.97Z" fill="#DFDFDF"/>
<path d="M570.125 5923.97V5709.16L0 5529.45L271.258 5669.72L570.125 5923.97Z" fill="#F7F7F7"/>
<path d="M1399.99 5529.45L1650.59 5619.3L1920 5529.45H1399.99Z" fill="#F6F6F6"/>
<path d="M1091.94 6037.94L1234.48 6564.94L783.898 6360.12L1091.94 6037.94Z" fill="#EDEDED"/>
<path d="M508.032 6444.83L542.515 6371.1L783.898 6360.12L508.032 6444.83Z" fill="#F3F3F3"/>
<path d="M326.438 6281.2V6550.81L508.032 6444.83L542.515 6371.1L326.438 6281.2Z" fill="#F0F0F0"/>
<path d="M1091.94 6037.94L1418.38 6384.23L1234.48 6564.94L1091.94 6037.94Z" fill="#F5F5F5"/>
<path d="M1650.59 6053.26L1418.38 6384.23L1091.94 6037.94L1650.59 6053.26Z" fill="#EDEDED"/>
<path d="M1570.1 6522.59L1747.12 6454.35L1793.09 6564.94L1570.1 6522.59Z" fill="#F3F3F3"/>
<path d="M1650.59 6053.26H1920L1793.09 6564.94L1747.12 6454.35L1650.59 6053.26Z" fill="#EDEDED"/>
<path d="M1354.02 5864.79L1602.32 5875.74L1650.59 6053.26L1354.02 5864.79Z" fill="#EBEBEB"/>
<path d="M1602.32 5875.74L1920 6053.26H1650.59L1602.32 5875.74Z" fill="#E2E2E2"/>
<path d="M271.258 5669.72L570.125 5709.16V5923.97L271.258 5669.72Z" fill="#EEEEEE"/>
<path d="M1602.32 5875.74L1622.98 5709.16L1920 6053.26L1602.32 5875.74Z" fill="#F7F7F7"/>
<path d="M1622.98 5709.16L1920 5529.45V6053.26L1622.98 5709.16Z" fill="#EFEFEF"/>
<path d="M1459.78 5746.44L1650.59 5619.3L1399.99 5529.45L1459.78 5746.44Z" fill="#FAFAFA"/>
<path d="M1622.98 5709.16L1459.78 5746.44L1354.02 5864.79L1602.32 5875.74L1622.98 5709.16Z" fill="#F3F3F3"/>
<path d="M1418.38 6384.23L1747.12 6454.35L1570.1 6522.59L1418.38 6384.23Z" fill="#EEEEEE"/>
<path d="M1418.38 6384.23L1650.59 6053.26L1747.12 6454.35L1418.38 6384.23Z" fill="#F9F9F9"/>
<path d="M1459.78 5746.44L1650.59 5619.3L1920 5529.45L1622.98 5709.16L1459.78 5746.44Z" fill="#F9F9F9"/>
<path d="M570.125 5709.16L645.35 5788.07L1091.94 6037.94L829.901 6110.25L570.125 5709.16Z" fill="#EEEEEE"/>
<path d="M0 5529.45V5368.17H443.674L0 5529.45Z" fill="#E5E5E5"/>
<path d="M0 6138.32V6750.41L149.414 6453.93L0 6138.32Z" fill="#F4F4F4"/>
<path d="M149.414 6453.93L326.438 6550.35L0 6750.41L149.414 6453.93Z" fill="#EDEDED"/>
<path d="M326.438 6550.35L443.674 6750.41H0L326.438 6550.35Z" fill="#D5D5D5"/>
<path d="M326.438 6550.35L632.179 6681.87L758.63 6708.17L443.674 6750.41L326.438 6550.35Z" fill="#CCCCCC"/>
<path d="M326.438 6550.35L508.032 6444.36L635.674 6682.6L326.438 6550.35Z" fill="#E8E8E8"/>
<path d="M1920 6750.41L1793.09 6564.48L1920 6052.84V6750.41Z" fill="#DBDBDB"/>
<path d="M508.032 6444.36L783.898 6359.65L635.674 6682.6L508.032 6444.36Z" fill="#EBEBEB"/>
<path d="M783.898 6359.65L758.63 6708.17L635.674 6682.6L783.898 6359.65Z" fill="#DFDFDF"/>
<path d="M783.898 6359.65L1160.91 6673.08L758.63 6708.17L783.898 6359.65Z" fill="#F7F7F7"/>
<path d="M1418.38 6383.77L1570.1 6522.12L1383.9 6670.89L1234.48 6564.48L1418.38 6383.77Z" fill="#EEEEEE"/>
<path d="M1234.48 6564.48L1160.91 6673.08L783.898 6359.65L1234.48 6564.48Z" fill="#E2E2E2"/>
<path d="M1160.91 6673.08L1140.21 6750.41L758.63 6708.17L1160.91 6673.08Z" fill="#D5D5D5"/>
<path d="M1140.21 6750.41L1383.9 6670.89L1234.48 6564.48L1160.91 6673.08L1140.21 6750.41Z" fill="#D8D8D8"/>
<path d="M1383.9 6670.89L1793.09 6564.48L1920 6750.41L1383.9 6670.89Z" fill="#D3D3D3"/>
<path d="M1570.1 6522.12L1383.9 6670.89L1793.09 6564.48L1570.1 6522.12Z" fill="#E2E2E2"/>
<path d="M443.674 6750.41L783.898 6911.69L1140.21 6750.41L758.63 6708.17L443.674 6750.41Z" fill="#E5E5E5"/>
<path d="M1140.21 6750.41L1383.9 6670.89L1920 6750.41L1399.99 6911.69L1140.21 6750.41Z" fill="#E2E2E2"/>
<path d="M0 6911.69L443.674 6750.41L783.898 6911.69L349.44 7023.48L0 6911.69Z" fill="#ECECEC"/>
<path d="M783.898 6911.69L1140.21 6750.41L1399.99 6911.69L1181.61 7257.98L783.898 6911.69Z" fill="#ECECEC"/>
<path d="M0 7520.99L271.258 7051.97L0 6911.69V7520.99Z" fill="#D6D6D6"/>
<path d="M271.258 7051.97L340.224 7400.45L0 7520.99L271.258 7051.97Z" fill="#DCDCDC"/>
<path d="M271.258 7051.97L570.125 7306.21L340.224 7400.45L271.258 7051.97Z" fill="#E5E5E5"/>
<path d="M0 7520.99L326.438 7663.45L149.414 7836.6L0 7520.99Z" fill="#DDDDDD"/>
<path d="M340.224 7400.45L326.438 7663.45L0 7520.99L340.224 7400.45Z" fill="#EBEBEB"/>
<path d="M326.438 7663.45V7933.06L149.414 7836.6L326.438 7663.45Z" fill="#F1F1F1"/>
<path d="M349.44 7023.48L570.125 7091.4L783.898 6911.69L349.44 7023.48Z" fill="#DDDDDD"/>
<path d="M570.125 7091.4L645.35 7170.32L783.898 6911.69L570.125 7091.4Z" fill="#D5D5D5"/>
<path d="M645.35 7170.32L1181.61 7257.98L783.898 6911.69L645.35 7170.32Z" fill="#CFCFCF"/>
<path d="M1399.99 6911.69L1459.78 7128.69L1181.61 7257.98L1399.99 6911.69Z" fill="#E5E5E5"/>
<path d="M1181.61 7257.98L1091.94 7420.19L645.35 7170.32L1181.61 7257.98Z" fill="#D4D4D4"/>
<path d="M1091.94 7420.19L1354.02 7247.04L1181.61 7257.98L1091.94 7420.19Z" fill="#DBDBDB"/>
<path d="M1354.02 7247.04L1459.78 7128.69L1181.61 7257.98L1354.02 7247.04Z" fill="#ECECEC"/>
<path d="M1354.02 7247.04L1650.59 7435.51L1091.94 7420.19L1354.02 7247.04Z" fill="#E2E2E2"/>
<path d="M783.898 7742.36L829.901 7492.49L1091.94 7420.19L783.898 7742.36Z" fill="#D1D1D1"/>
<path d="M340.224 7400.45L542.515 7753.34L326.438 7663.45L340.224 7400.45Z" fill="#D3D3D3"/>
<path d="M570.125 7306.21L542.515 7753.34L340.224 7400.45L570.125 7306.21Z" fill="#DBDBDB"/>
<path d="M570.125 7306.21L829.901 7492.49L542.515 7753.34L570.125 7306.21Z" fill="#E4E4E4"/>
<path d="M542.515 7753.34L783.898 7742.36L829.901 7492.49L542.515 7753.34Z" fill="#E7E7E7"/>
<path d="M570.125 7306.21V7091.4L829.901 7492.49L570.125 7306.21Z" fill="#DFDFDF"/>
<path d="M570.125 7306.21V7091.4L0 6911.69L271.258 7051.97L570.125 7306.21Z" fill="#F7F7F7"/>
<path d="M1399.99 6911.69L1650.59 7001.55L1920 6911.69H1399.99Z" fill="#F6F6F6"/>
<path d="M1091.94 7420.19L1234.48 7947.19L783.898 7742.36L1091.94 7420.19Z" fill="#EDEDED"/>
<path d="M508.032 7827.07L542.515 7753.34L783.898 7742.36L508.032 7827.07Z" fill="#F3F3F3"/>
<path d="M326.438 7663.45V7933.06L508.032 7827.07L542.515 7753.34L326.438 7663.45Z" fill="#F0F0F0"/>
<path d="M1091.94 7420.19L1418.38 7766.48L1234.48 7947.19L1091.94 7420.19Z" fill="#F5F5F5"/>
<path d="M1650.59 7435.51L1418.38 7766.48L1091.94 7420.19L1650.59 7435.51Z" fill="#EDEDED"/>
<path d="M1570.1 7904.83L1747.12 7836.6L1793.09 7947.19L1570.1 7904.83Z" fill="#F3F3F3"/>
<path d="M1650.59 7435.51H1920L1793.09 7947.19L1747.12 7836.6L1650.59 7435.51Z" fill="#EDEDED"/>
<path d="M1354.02 7247.04L1602.32 7257.98L1650.59 7435.51L1354.02 7247.04Z" fill="#EBEBEB"/>
<path d="M1602.32 7257.98L1920 7435.51H1650.59L1602.32 7257.98Z" fill="#E2E2E2"/>
<path d="M271.258 7051.97L570.125 7091.4V7306.21L271.258 7051.97Z" fill="#EEEEEE"/>
<path d="M1602.32 7257.98L1622.98 7091.4L1920 7435.51L1602.32 7257.98Z" fill="#F7F7F7"/>
<path d="M1622.98 7091.4L1920 6911.69V7435.51L1622.98 7091.4Z" fill="#EFEFEF"/>
<path d="M1459.78 7128.69L1650.59 7001.55L1399.99 6911.69L1459.78 7128.69Z" fill="#FAFAFA"/>
<path d="M1622.98 7091.4L1459.78 7128.69L1354.02 7247.04L1602.32 7257.98L1622.98 7091.4Z" fill="#F3F3F3"/>
<path d="M1418.38 7766.48L1747.12 7836.6L1570.1 7904.83L1418.38 7766.48Z" fill="#EEEEEE"/>
<path d="M1418.38 7766.48L1650.59 7435.51L1747.12 7836.6L1418.38 7766.48Z" fill="#F9F9F9"/>
<path d="M1459.78 7128.69L1650.59 7001.55L1920 6911.69L1622.98 7091.4L1459.78 7128.69Z" fill="#F9F9F9"/>
<path d="M570.125 7091.4L645.35 7170.32L1091.94 7420.19L829.901 7492.49L570.125 7091.4Z" fill="#EEEEEE"/>
<path d="M0 6911.69V6750.41H443.674L0 6911.69Z" fill="#E5E5E5"/>
<path d="M0 7520.56V8132.66L149.414 7836.17L0 7520.56Z" fill="#F4F4F4"/>
<path d="M149.414 7836.17L326.438 7932.6L0 8132.66L149.414 7836.17Z" fill="#EDEDED"/>
<path d="M326.438 7932.6L443.674 8132.66H0L326.438 7932.6Z" fill="#D5D5D5"/>
<path d="M326.438 7932.6L632.179 8064.12L758.63 8090.42L443.674 8132.66L326.438 7932.6Z" fill="#CCCCCC"/>
<path d="M326.438 7932.6L508.032 7826.61L635.674 8064.84L326.438 7932.6Z" fill="#E8E8E8"/>
<path d="M1920 8132.66L1793.09 7946.73L1920 7435.08V8132.66Z" fill="#DBDBDB"/>
<path d="M508.032 7826.61L783.898 7741.9L635.674 8064.84L508.032 7826.61Z" fill="#EBEBEB"/>
<path d="M783.898 7741.9L758.63 8090.42L635.674 8064.84L783.898 7741.9Z" fill="#DFDFDF"/>
<path d="M783.898 7741.9L1160.91 8055.32L758.63 8090.42L783.898 7741.9Z" fill="#F7F7F7"/>
<path d="M1418.38 7766.02L1570.1 7904.37L1383.9 8053.13L1234.48 7946.73L1418.38 7766.02Z" fill="#EEEEEE"/>
<path d="M1234.48 7946.73L1160.91 8055.32L783.898 7741.9L1234.48 7946.73Z" fill="#E2E2E2"/>
<path d="M443.674 8132.66H1163.21L758.63 8090.42L443.674 8132.66Z" fill="#E5E5E5"/>
<path d="M1160.91 8055.32L1140.21 8132.66L758.63 8090.42L1160.91 8055.32Z" fill="#D5D5D5"/>
<path d="M1140.21 8132.66L1383.9 8053.13L1234.48 7946.73L1160.91 8055.32L1140.21 8132.66Z" fill="#D8D8D8"/>
<path d="M1140.21 8132.66L1383.9 8053.13L1920 8132.66H1140.21Z" fill="#E2E2E2"/>
<path d="M1383.9 8053.13L1793.09 7946.73L1920 8132.66L1383.9 8053.13Z" fill="#D3D3D3"/>
<path d="M1570.1 7904.37L1383.9 8053.13L1793.09 7946.73L1570.1 7904.37Z" fill="#E2E2E2"/>
<path d="M0 2764.95L443.674 2603.67L783.898 2764.95L349.44 2876.74L0 2764.95Z" fill="#ECECEC"/>
<path d="M783.898 2764.95L1140.21 2603.67L1399.99 2764.95L1181.61 3111.24L783.898 2764.95Z" fill="#ECECEC"/>
<path d="M0 3374.25L271.258 2905.23L0 2764.95V3374.25Z" fill="#D6D6D6"/>
<path d="M271.258 2905.23L340.224 3253.71L0 3374.25L271.258 2905.23Z" fill="#DCDCDC"/>
<path d="M271.258 2905.23L570.125 3159.48L340.224 3253.71L271.258 2905.23Z" fill="#E5E5E5"/>
<path d="M0 3374.25L326.438 3516.71L149.414 3689.86L0 3374.25Z" fill="#DDDDDD"/>
<path d="M340.224 3253.71L326.438 3516.71L0 3374.25L340.224 3253.71Z" fill="#EBEBEB"/>
<path d="M326.438 3516.71V3786.32L149.414 3689.86L326.438 3516.71Z" fill="#F1F1F1"/>
<path d="M349.44 2876.74L570.125 2944.67L783.898 2764.95L349.44 2876.74Z" fill="#DDDDDD"/>
<path d="M570.125 2944.67L645.35 3023.58L783.898 2764.95L570.125 2944.67Z" fill="#D5D5D5"/>
<path d="M645.35 3023.58L1181.61 3111.24L783.898 2764.95L645.35 3023.58Z" fill="#CFCFCF"/>
<path d="M1399.99 2764.95L1459.78 2981.91L1181.61 3111.24L1399.99 2764.95Z" fill="#E5E5E5"/>
<path d="M1181.61 3111.24L1091.94 3273.45L645.35 3023.58L1181.61 3111.24Z" fill="#D4D4D4"/>
<path d="M1091.94 3273.45L1354.02 3100.3L1181.61 3111.24L1091.94 3273.45Z" fill="#DBDBDB"/>
<path d="M1354.02 3100.3L1459.78 2981.91L1181.61 3111.24L1354.02 3100.3Z" fill="#ECECEC"/>
<path d="M1354.02 3100.3L1650.59 3288.77L1091.94 3273.45L1354.02 3100.3Z" fill="#E2E2E2"/>
<path d="M783.898 3595.62L829.901 3345.75L1091.94 3273.45L783.898 3595.62Z" fill="#D1D1D1"/>
<path d="M340.224 3253.71L542.515 3606.57L326.438 3516.71L340.224 3253.71Z" fill="#D3D3D3"/>
<path d="M570.125 3159.48L542.515 3606.57L340.224 3253.71L570.125 3159.48Z" fill="#DBDBDB"/>
<path d="M570.125 3159.48L829.901 3345.75L542.515 3606.57L570.125 3159.48Z" fill="#E4E4E4"/>
<path d="M542.515 3606.57L783.898 3595.62L829.901 3345.75L542.515 3606.57Z" fill="#E7E7E7"/>
<path d="M570.125 3159.48V2944.67L829.901 3345.75L570.125 3159.48Z" fill="#DFDFDF"/>
<path d="M570.125 3159.48V2944.67L0 2764.95L271.258 2905.23L570.125 3159.48Z" fill="#F7F7F7"/>
<path d="M1399.99 2764.95L1650.59 2854.81L1920 2764.95H1399.99Z" fill="#F6F6F6"/>
<path d="M1091.94 3273.45L1234.48 3800.45L783.898 3595.62L1091.94 3273.45Z" fill="#EDEDED"/>
<path d="M508.032 3680.33L542.515 3606.57L783.898 3595.62L508.032 3680.33Z" fill="#F3F3F3"/>
<path d="M326.438 3516.71V3786.32L508.032 3680.33L542.515 3606.57L326.438 3516.71Z" fill="#F0F0F0"/>
<path d="M1091.94 3273.45L1418.38 3619.74L1234.48 3800.45L1091.94 3273.45Z" fill="#F5F5F5"/>
<path d="M1650.59 3288.77L1418.38 3619.74L1091.94 3273.45L1650.59 3288.77Z" fill="#EDEDED"/>
<path d="M1570.1 3758.09L1747.12 3689.86L1793.09 3800.45L1570.1 3758.09Z" fill="#F3F3F3"/>
<path d="M1650.59 3288.77H1920L1793.09 3800.45L1747.12 3689.86L1650.59 3288.77Z" fill="#EDEDED"/>
<path d="M1354.02 3100.3L1602.32 3111.24L1650.59 3288.77L1354.02 3100.3Z" fill="#EBEBEB"/>
<path d="M1602.32 3111.24L1920 3288.77H1650.59L1602.32 3111.24Z" fill="#E2E2E2"/>
<path d="M271.258 2905.23L570.125 2944.67V3159.48L271.258 2905.23Z" fill="#EEEEEE"/>
<path d="M1602.32 3111.24L1622.98 2944.67L1920 3288.77L1602.32 3111.24Z" fill="#F7F7F7"/>
<path d="M1622.98 2944.67L1920 2764.95V3288.77L1622.98 2944.67Z" fill="#EFEFEF"/>
<path d="M1459.78 2981.91L1650.59 2854.81L1399.99 2764.95L1459.78 2981.91Z" fill="#FAFAFA"/>
<path d="M1622.98 2944.67L1459.78 2981.91L1354.02 3100.3L1602.32 3111.24L1622.98 2944.67Z" fill="#F3F3F3"/>
<path d="M1418.38 3619.74L1747.12 3689.86L1570.1 3758.09L1418.38 3619.74Z" fill="#EEEEEE"/>
<path d="M1418.38 3619.74L1650.59 3288.77L1747.12 3689.86L1418.38 3619.74Z" fill="#F9F9F9"/>
<path d="M1459.78 2981.91L1650.59 2854.81L1920 2764.95L1622.98 2944.67L1459.78 2981.91Z" fill="#F9F9F9"/>
<path d="M570.125 2944.67L645.35 3023.58L1091.94 3273.45L829.901 3345.75L570.125 2944.67Z" fill="#EEEEEE"/>
<path d="M0 2764.95V2603.67H443.674L0 2764.95Z" fill="#E5E5E5"/>
<path d="M0 3373.79V3985.92L149.414 3689.43L0 3373.79Z" fill="#F4F4F4"/>
<path d="M149.414 3689.43L326.438 3785.86L0 3985.92L149.414 3689.43Z" fill="#EDEDED"/>
<path d="M326.438 3785.86L443.674 3985.92H0L326.438 3785.86Z" fill="#D5D5D5"/>
<path d="M326.438 3785.86L632.179 3917.38L758.63 3943.68L443.674 3985.92L326.438 3785.86Z" fill="#CCCCCC"/>
<path d="M326.438 3785.86L508.032 3679.87L635.674 3918.11L326.438 3785.86Z" fill="#E8E8E8"/>
<path d="M1920 3985.92L1793.09 3799.99L1920 3288.31V3985.92Z" fill="#DBDBDB"/>
<path d="M508.032 3679.87L783.898 3595.16L635.674 3918.11L508.032 3679.87Z" fill="#EBEBEB"/>
<path d="M783.898 3595.16L758.63 3943.68L635.674 3918.11L783.898 3595.16Z" fill="#DFDFDF"/>
<path d="M783.898 3595.16L1160.91 3908.58L758.63 3943.68L783.898 3595.16Z" fill="#F7F7F7"/>
<path d="M1418.38 3619.28L1570.1 3757.63L1383.9 3906.39L1234.48 3799.99L1418.38 3619.28Z" fill="#EEEEEE"/>
<path d="M1234.48 3799.99L1160.91 3908.58L783.898 3595.16L1234.48 3799.99Z" fill="#E2E2E2"/>
<path d="M1160.91 3908.58L1140.21 3985.92L758.63 3943.68L1160.91 3908.58Z" fill="#D5D5D5"/>
<path d="M1140.21 3985.92L1383.9 3906.39L1234.48 3799.99L1160.91 3908.58L1140.21 3985.92Z" fill="#D8D8D8"/>
<path d="M1383.9 3906.39L1793.09 3799.99L1920 3985.92L1383.9 3906.39Z" fill="#D3D3D3"/>
<path d="M1570.1 3757.63L1383.9 3906.39L1793.09 3799.99L1570.1 3757.63Z" fill="#E2E2E2"/>
</g>
</svg>
