<svg width="34" height="28" viewBox="0 0 34 28" fill="none" xmlns="http://www.w3.org/2000/svg">
<path d="M24.0055 8.325C24.5203 8.325 24.9377 7.91086 24.9377 7.4C24.9377 6.88914 24.5203 6.475 24.0055 6.475C23.4906 6.475 23.0733 6.88914 23.0733 7.4C23.0733 7.91086 23.4906 8.325 24.0055 8.325Z" fill="white"/>
<path d="M24.0055 17.575C24.5229 17.575 24.9377 17.1634 24.9377 16.65V11.1C24.9377 10.5866 24.5229 10.175 24.0055 10.175C23.4881 10.175 23.0733 10.5866 23.0733 11.1V16.65C23.0733 17.1634 23.4881 17.575 24.0055 17.575Z" fill="white"/>
<path d="M5.82758 7.4H12.353C12.8704 7.4 13.2852 6.98837 13.2852 6.475C13.2852 5.96162 12.8704 5.55 12.353 5.55H5.82758C5.31021 5.55 4.89538 5.96162 4.89538 6.475C4.89538 6.98837 5.31021 7.4 5.82758 7.4Z" fill="white"/>
<path d="M5.82758 11.1H12.353C12.8704 11.1 13.2852 10.6884 13.2852 10.175C13.2852 9.66162 12.8704 9.25 12.353 9.25H5.82758C5.31021 9.25 4.89538 9.66162 4.89538 10.175C4.89538 10.6884 5.31021 11.1 5.82758 11.1Z" fill="white"/>
<path d="M5.82758 14.8H12.353C12.8704 14.8 13.2852 14.3884 13.2852 13.875C13.2852 13.3616 12.8704 12.95 12.353 12.95H5.82758C5.31021 12.95 4.89538 13.3616 4.89538 13.875C4.89538 14.3884 5.31021 14.8 5.82758 14.8Z" fill="white"/>
<path d="M5.82758 18.5H12.353C12.8704 18.5 13.2852 18.0884 13.2852 17.575C13.2852 17.0616 12.8704 16.65 12.353 16.65H5.82758C5.31021 16.65 4.89538 17.0616 4.89538 17.575C4.89538 18.0884 5.31021 18.5 5.82758 18.5Z" fill="white"/>
<path d="M32.8614 0H20.7428C19.214 0 17.8623 0.744625 17.014 1.87775C16.1657 0.744625 14.814 0 13.2852 0H1.16658C0.649204 0 0.234375 0.411625 0.234375 0.925V23.125C0.234375 23.6384 0.649204 24.05 1.16658 24.05H12.353C13.7932 24.05 15.4013 25.6919 16.1797 27.2366C16.3381 27.5557 16.6691 27.75 17.014 27.75C17.0839 27.75 17.1585 27.7407 17.2284 27.7269C17.508 27.6621 17.7225 27.4679 17.8436 27.2274C17.8436 27.232 17.8483 27.2412 17.8483 27.2412C18.6267 25.6965 20.039 24.05 21.675 24.05H32.8614C33.3042 24.05 33.6677 23.7447 33.7656 23.3377V0.71225C33.6677 0.30525 33.3042 0 32.8614 0ZM16.0818 23.976C15.0284 22.94 13.7326 22.2 12.353 22.2H2.09878V1.85H13.2852C14.828 1.85 16.0818 3.09412 16.0818 4.625V23.976ZM31.9292 22.2H21.675C20.3559 22.2 19.0555 22.8151 17.9462 23.9205V4.625C17.9462 3.09412 19.2 1.85 20.7428 1.85H31.9292V22.2Z" fill="white"/>
</svg>
