<svg width="71" height="76" viewBox="0 0 71 76" fill="none" xmlns="http://www.w3.org/2000/svg">
<path d="M46.2954 67.0864V59.0698H48.1853V64.3542L52.6453 59.0698H54.3689V67.0864H52.479V61.8021L48.0341 67.0864H46.2954ZM50.2112 58.124C49.4049 58.124 48.785 57.9389 48.3516 57.5686C47.9182 57.1883 47.6964 56.6378 47.6863 55.9172H48.9412C48.9513 56.2775 49.0622 56.5628 49.2738 56.7729C49.4956 56.9831 49.803 57.0882 50.1961 57.0882C50.5791 57.0882 50.8815 56.9831 51.1032 56.7729C51.335 56.5628 51.456 56.2775 51.4661 55.9172H52.7512C52.7411 56.6378 52.5143 57.1883 52.0708 57.5686C51.6374 57.9389 51.0175 58.124 50.2112 58.124Z" fill="#DC0000"/>
<path d="M40.4335 67.1915C39.5364 67.1915 38.7503 67.0164 38.075 66.6661C37.4097 66.3058 36.8906 65.8154 36.5177 65.1949C36.1549 64.5743 35.9734 63.8688 35.9734 63.0781C35.9734 62.2775 36.1498 61.5719 36.5026 60.9614C36.8654 60.3409 37.3593 59.8555 37.9842 59.5052C38.6192 59.1549 39.3399 58.9797 40.1462 58.9797C40.9324 58.9797 41.6329 59.1499 42.2478 59.4902C42.8626 59.8304 43.3464 60.3108 43.6992 60.9314C44.052 61.5519 44.2284 62.2825 44.2284 63.1232C44.2284 63.2032 44.2233 63.2933 44.2132 63.3934C44.2132 63.4935 44.2082 63.5885 44.1981 63.6786H37.4702V62.4326H43.2003L42.4594 62.8229C42.4695 62.3625 42.3738 61.9572 42.1722 61.6069C41.9706 61.2566 41.6934 60.9814 41.3406 60.7812C40.9979 60.5811 40.5998 60.481 40.1462 60.481C39.6826 60.481 39.2744 60.5811 38.9216 60.7812C38.5789 60.9814 38.3068 61.2616 38.1052 61.6219C37.9137 61.9722 37.8179 62.3875 37.8179 62.8679V63.1682C37.8179 63.6486 37.9288 64.0739 38.1506 64.4442C38.3723 64.8145 38.6847 65.0998 39.0879 65.2999C39.4911 65.5001 39.9547 65.6002 40.4789 65.6002C40.9324 65.6002 41.3406 65.5301 41.7035 65.39C42.0664 65.2499 42.3889 65.0297 42.6711 64.7295L43.6841 65.8854C43.3212 66.3058 42.8626 66.631 42.3083 66.8612C41.764 67.0814 41.1391 67.1915 40.4335 67.1915Z" fill="#DC0000"/>
<path d="M26.2894 67.0864V59.0698H28.1793V62.3275H32.2463V59.0698H34.1361V67.0864H32.2463V63.9188H28.1793V67.0864H26.2894Z" fill="#DC0000"/>
<path d="M21.5172 66.2157V60.6611H18.4179L18.3725 61.9522C18.3524 62.4126 18.3221 62.8579 18.2818 63.2883C18.2415 63.7086 18.176 64.099 18.0852 64.4593C17.9945 64.8095 17.8635 65.0998 17.6922 65.33C17.5208 65.5602 17.294 65.7103 17.0118 65.7803L15.1371 65.4951C15.4394 65.4951 15.6813 65.4 15.8628 65.2099C16.0543 65.0097 16.2004 64.7395 16.3012 64.3992C16.4121 64.0489 16.4927 63.6536 16.5431 63.2132C16.5935 62.7629 16.6288 62.2975 16.649 61.8171L16.7548 59.0698H23.4071V66.2157H21.5172ZM14.8498 68.8729V65.4951H24.6015V68.8729H22.8326V67.0864H16.6036V68.8729H14.8498Z" fill="#DC0000"/>
<path d="M32.1499 54.8889L41.981 33.0009L43.1376 34.96H29.6326L31.7417 32.832V38.9795H27.6255V31.2444H46.1311V34.1831L36.8783 54.8889H32.1499Z" fill="#DC0000"/>
<path fill-rule="evenodd" clip-rule="evenodd" d="M8.95806 9.29475C5.96982 9.29475 3.52218 11.7259 3.52218 14.6917V67.7883C3.52218 70.7537 5.97201 73.1852 8.95806 73.1852H62.4167C65.4027 73.1852 67.8526 70.7537 67.8526 67.7883V14.6917C67.8526 11.7263 65.4027 9.29475 62.4167 9.29475H8.95806ZM0.687378 14.6917C0.687378 10.1714 4.40414 6.47994 8.95806 6.47994H62.4167C66.9677 6.47994 70.6874 10.1711 70.6874 14.6917V67.7883C70.6874 72.3089 66.9677 76 62.4167 76H8.95806C4.40702 76 0.687378 72.3089 0.687378 67.7883V14.6917Z" fill="#DC0000"/>
<path fill-rule="evenodd" clip-rule="evenodd" d="M22.8933 0C23.6761 0 24.3107 0.630118 24.3107 1.40741V17.358C24.3107 18.1353 23.6761 18.7654 22.8933 18.7654C22.1105 18.7654 21.4759 18.1353 21.4759 17.358V1.40741C21.4759 0.630118 22.1105 0 22.8933 0Z" fill="#DC0000"/>
<path fill-rule="evenodd" clip-rule="evenodd" d="M48.4065 0C49.1893 0 49.8239 0.630118 49.8239 1.40741V17.358C49.8239 18.1353 49.1893 18.7654 48.4065 18.7654C47.6237 18.7654 46.9891 18.1353 46.9891 17.358V1.40741C46.9891 0.630118 47.6237 0 48.4065 0Z" fill="#DC0000"/>
<path fill-rule="evenodd" clip-rule="evenodd" d="M1.63231 24.8642C1.63231 24.0869 2.2669 23.4568 3.04971 23.4568H68.2501C69.0329 23.4568 69.6675 24.0869 69.6675 24.8642C69.6675 25.6415 69.0329 26.2716 68.2501 26.2716H3.04971C2.2669 26.2716 1.63231 25.6415 1.63231 24.8642Z" fill="#DC0000"/>
</svg>
