<svg width="20" height="27" viewBox="0 0 20 27" fill="none" xmlns="http://www.w3.org/2000/svg">
<path d="M20 9.49612C20.0025 8.6719 19.7132 7.98946 19.1371 7.42395C17.2183 5.54249 15.2884 3.67182 13.3534 1.80612C12.7824 1.25553 12.0872 0.983548 11.2712 0.986036C8.63502 0.994328 5.998 1.04657 3.36439 0.970281C1.34429 0.913066 -0.0350604 2.46782 0.000678521 4.24065C0.0653489 7.46873 0.0193989 10.6993 0.0193989 13.929C0.0193989 17.2491 0.0142933 20.5693 0.0219517 23.8894C0.0253554 25.4433 1.09412 26.6888 2.67173 26.901C3.37375 26.9956 12.7322 26.9624 16.6924 26.9657C18.6904 26.9674 19.9906 25.697 19.9923 23.7517C19.9949 18.9996 19.9847 14.2474 20 9.49612ZM12.5995 3.94214C14.0358 5.34846 15.4441 6.72659 16.8992 8.15116C16.2491 8.15116 14.0903 8.15779 13.6606 8.14287C13.1134 8.12462 12.6369 7.78797 12.6148 7.27552C12.5663 6.16937 12.5995 5.0599 12.5995 3.94214ZM17.9756 10.7126C17.9756 15.0269 17.9765 19.3412 17.9748 23.6564C17.9748 24.6357 17.6199 24.9881 16.6201 24.9881C12.1953 24.9906 7.76963 24.9906 3.34482 24.9881C2.4139 24.9872 2.03269 24.6207 2.03269 23.7202C2.03014 17.2044 2.03014 10.6885 2.03269 4.17182C2.03269 3.34677 2.39944 2.97695 3.22824 2.97529C5.64657 2.97031 8.06575 2.97363 10.5692 2.97363C10.5692 4.22738 10.6168 5.41397 10.559 6.59641C10.4483 8.85598 12.0209 10.2457 14.1516 10.1255C15.399 10.055 16.6541 10.113 17.9748 10.113C17.9756 10.3411 17.9756 10.5268 17.9756 10.7126Z" fill="white"/>
<path d="M4.8935 15.5062C4.6195 15.5078 4.2987 15.648 4.08427 15.8221C3.76007 16.0874 3.69795 16.4747 3.86899 16.871C4.05279 17.2964 4.40252 17.454 4.85521 17.4531C6.57408 17.4515 8.29295 17.4523 10.011 17.4523C10.011 17.4515 10.011 17.4506 10.011 17.4498C11.6932 17.4498 13.3755 17.4515 15.0578 17.449C15.7947 17.4482 16.21 17.1098 16.227 16.5045C16.2431 15.9324 15.7896 15.497 15.1046 15.4946C11.7009 15.4863 8.2972 15.4846 4.8935 15.5062Z" fill="white"/>
<path d="M15.5335 19.5402C15.3488 19.4872 15.1455 19.4797 14.9506 19.4797C13.3032 19.4756 11.6558 19.4772 10.0084 19.4772C8.30827 19.4772 6.60812 19.4706 4.90797 19.4805C4.05194 19.4855 3.54734 20.1878 3.88686 20.8893C4.1081 21.3462 4.52845 21.4449 5.00667 21.4441C7.79856 21.4391 10.5904 21.4424 13.3823 21.4416C14.0095 21.4416 14.6375 21.459 15.2637 21.4325C15.8075 21.4092 16.1759 21.0411 16.2219 20.5444C16.2627 20.0908 15.9887 19.6704 15.5335 19.5402Z" fill="white"/>
</svg>
