<svg width="116" height="116" viewBox="0 0 116 116" fill="none" xmlns="http://www.w3.org/2000/svg">
<path d="M80.0408 24.0593C77.373 25.8039 66.6716 33.0956 54.4055 45.3925C46.2523 53.5649 39.1295 62.2455 33.2337 71.1929C26.0511 82.0923 20.6811 93.4237 17.2565 104.891C18.3682 105.246 19.5225 105.623 20.6854 106C24.0074 94.8507 29.2277 83.82 36.2222 73.1958C41.9769 64.4559 48.9373 55.9701 56.9024 47.9712C67.3771 37.4613 77.6637 29.8563 82.1059 26.9896C81.4175 26.0156 80.6779 24.9697 80.0408 24.0593Z" fill="white"/>
<path d="M96.4498 54.217L93.6409 53.6199C101.516 43.6563 99.6307 37.0675 99.5367 36.7711C99.3272 36.0851 98.7201 35.5897 97.9975 35.5134L95.2698 35.234C98.7201 24.6775 97.2878 12.1393 97.2194 11.5761C97.1082 10.653 96.313 9.97129 95.3681 10.0009C86.1247 10.3058 79.3739 12.2367 75.3379 13.8035C73.5422 14.5021 72.1014 15.1924 71.0155 15.7725L70.7205 13.7103C70.6478 13.1895 70.3442 12.7237 69.891 12.4442C69.4378 12.1647 68.8863 12.097 68.3818 12.2621C61.259 14.5487 55.3119 19.088 51.8873 22.1326V19.7698C51.8873 19.0838 51.4897 18.4571 50.8655 18.1607C50.2413 17.8643 49.5016 17.949 48.9587 18.3767C43.7598 22.4925 40.271 26.9048 38.2317 29.9367L37.6117 27.6882C37.4279 27.0149 36.8593 26.5068 36.1624 26.3967C35.4655 26.2866 34.7643 26.5872 34.3753 27.1674C32.3487 30.1823 29.4243 36.7753 27.7056 40.8192L26.3503 38.4987C26.0211 37.9313 25.4012 37.5883 24.7428 37.6095C24.0844 37.6264 23.4858 37.9991 23.1865 38.5834C15.9012 52.7307 16.3587 64.9851 18.0261 72.7765C19.8432 81.2623 23.3875 86.3564 23.5371 86.5723C24.1057 87.3811 25.2302 87.5801 26.0468 87.0127C26.8634 86.4495 27.0643 85.3359 26.4914 84.5271C26.4572 84.4805 23.2165 79.8184 21.5533 72.0355C20.1253 65.3662 19.6636 55.1528 24.948 43.2244L26.4187 45.7438C26.765 46.3367 27.4192 46.6797 28.1075 46.6288C28.7959 46.578 29.3944 46.1461 29.6509 45.5109C29.6894 45.4178 32.6694 38.0414 35.2945 32.8415L35.8716 34.946C36.0683 35.6659 36.6968 36.1867 37.445 36.2545C38.1932 36.3222 38.9072 35.9199 39.2321 35.2509C39.262 35.1874 42.0795 29.4794 48.2746 23.6824V26.3713C48.2746 27.1123 48.7363 27.7729 49.4332 28.0354C50.1301 28.2979 50.9211 28.1116 51.417 27.5612C51.4897 27.4807 58.3303 20.0281 67.454 16.3822L67.8217 18.9568C67.9115 19.5835 68.3305 20.1128 68.9205 20.3541C69.5105 20.5955 70.186 20.5108 70.6948 20.1297C70.7162 20.1128 72.7598 18.6095 76.8129 17.0555C80.3102 15.7174 86.0093 14.0872 93.7734 13.6425C94.0556 17.6356 94.3934 28.0735 91.1056 36.102C90.8918 36.6229 90.9388 37.2114 91.2296 37.6942C91.5203 38.1769 92.0248 38.4902 92.5891 38.5495L96.189 38.9179C96.2061 39.6293 96.1377 40.654 95.8213 41.9583C95.21 44.465 93.5297 48.5089 88.9807 53.5564C88.5532 54.0306 88.4121 54.6955 88.613 55.301C88.814 55.9065 89.3227 56.3596 89.9512 56.4909L93.4228 57.2276C91.4476 60.8481 86.4368 68.5167 78.1383 71.5189C77.3602 71.8026 76.8728 72.5733 76.9668 73.3905C77.0566 74.2078 77.7022 74.8556 78.5231 74.9657L84.607 75.7533C82.9695 77.9976 79.8399 81.5757 74.7906 84.743C70.0321 87.7326 64.5425 89.7397 58.4842 90.7094C51.1135 91.8908 42.8619 91.5266 33.952 89.6423L33.3962 93.1738C39.0568 94.3595 44.4823 94.9607 49.6128 94.9607C52.8835 94.9607 56.0387 94.7194 59.0614 94.2367C65.6071 93.1908 71.5499 91.01 76.7231 87.7622C85.5989 82.1939 89.1132 75.44 89.2586 75.1563C89.5237 74.6397 89.5151 74.0299 89.2415 73.5175C88.9679 73.0052 88.4634 72.6579 87.8819 72.5817L84.7737 72.1795C93.5041 66.5222 97.5272 57.1218 97.7239 56.6518C97.9291 56.1606 97.9035 55.6059 97.6555 55.1401C97.4203 54.6616 96.9714 54.3271 96.4498 54.217Z" fill="white"/>
<path d="M79.066 38.2405L64.5767 38.177C64.5767 38.177 64.5639 31.7703 64.2133 29.4921H60.6647C60.9811 31.7745 60.9683 39.9173 60.9683 39.9173C60.9683 40.887 61.7464 41.6788 62.7254 41.7L78.6813 41.8016L79.066 38.2405Z" fill="white"/>
<path d="M32.7378 76.9009C32.7378 76.9009 31.3525 66.463 31.1046 64.8751L27.5859 65.2774C27.804 66.8822 29.3517 78.798 29.3517 78.798C29.4628 79.6321 30.1469 80.28 30.9977 80.3478L42.2249 80.7924L42.6054 77.2397L32.7378 76.9009Z" fill="white"/>
<path d="M40.9466 64.1002L39.8136 46.8449L36.2308 47.2514L37.4792 65.9041C37.5519 66.7764 38.253 67.4708 39.1381 67.5386L58.1422 68.7666L58.5227 65.2139L40.9466 64.1002Z" fill="white"/>
<path d="M52.4816 50.8295C52.4816 50.8295 52.4773 38.846 52.1011 36.9193H48.5055C48.8817 38.846 48.8774 52.4809 48.8774 52.4809C48.8774 53.4125 49.6 54.1874 50.5406 54.2594L75.5046 56.0463L75.8851 52.4936L52.4816 50.8295Z" fill="white"/>
</svg>
