<svg width="116" height="116" viewBox="0 0 116 116" fill="none" xmlns="http://www.w3.org/2000/svg">
<g clip-path="url(#clip0_2811_529)">
<path d="M34.177 89.8951C31.4586 85.896 20.165 69.2483 20.165 69.2483L27.9129 54.2593L24.4285 52.4399L20.432 60.1689L15.5643 69.5262L18.0594 73.1996L18.0638 73.1953L31.3142 92.7132C31.9314 93.6207 32.2246 94.6541 32.2246 95.6745C32.2246 97.3853 31.3973 99.0657 29.8609 100.09C27.4095 101.727 24.074 101.085 22.4237 98.6489L5.91658 74.3329C5.76337 74.1115 4.7522 72.4745 4.63839 72.2313C3.85046 70.742 3.7848 68.9096 4.62088 67.303C4.62088 67.303 16.2691 44.9671 16.3041 44.8803C16.7681 43.7817 17.4291 42.7873 18.2389 41.9319C18.4359 41.7539 18.646 41.5933 18.8649 41.4456C20.8347 39.8347 23.3561 38.8664 26.1051 38.8664L54.4136 38.8403C59.0405 38.8403 62.932 41.9884 64.0263 46.2393C65.1032 45.6097 66.3332 45.0887 67.7296 44.7717C67.7252 44.7543 67.7208 44.737 67.7165 44.7239C66.0005 39.0488 60.6908 34.9064 54.4136 34.9064H25.4528C21.5351 34.9064 17.9938 36.5217 15.468 39.1139C14.8421 39.7001 14.2861 40.3775 13.8309 41.146C13.3362 41.8972 1.0358 65.7181 1.0358 65.7181C-0.684509 69.0225 -0.189865 72.887 1.98569 75.6399C2.15203 75.8483 19.1888 100.816 19.1888 100.816C21.198 103.777 24.6474 105.21 27.9917 104.823V115.661C27.9917 115.779 28.0049 115.887 28.0267 116H31.8963C31.9139 115.891 31.9314 115.779 31.9314 115.661V103.417C31.9839 103.382 32.0408 103.347 32.0933 103.312C35.4158 101.093 36.834 97.1117 35.9279 93.4643C35.9454 93.447 34.9211 90.9893 34.177 89.8951Z" fill="white"/>
<path d="M44.3763 32.9524C53.5425 32.9524 60.984 25.5708 60.984 16.4784C60.9884 7.38162 53.5469 0 44.3763 0C35.2056 0 27.7685 7.38162 27.7685 16.474C27.7685 25.5665 35.21 32.9524 44.3763 32.9524ZM44.3763 3.92963C51.3538 3.92963 57.0225 9.54834 57.0225 16.474C57.0225 23.3954 51.3582 29.0185 44.3763 29.0185C37.3987 29.0185 31.73 23.3997 31.73 16.474C31.73 9.55269 37.3987 3.92963 44.3763 3.92963Z" fill="white"/>
<path d="M81.5709 44.5676C89.6647 44.5676 96.2351 38.0501 96.2351 30.0215C96.2351 21.9929 89.6647 15.4754 81.5709 15.4754C73.4771 15.4754 66.9067 21.9929 66.9067 30.0215C66.9067 38.0501 73.4771 44.5676 81.5709 44.5676ZM81.5709 19.4093C87.476 19.4093 92.2692 24.164 92.2692 30.0215C92.2692 35.879 87.476 40.6337 81.5709 40.6337C75.6658 40.6337 70.8726 35.879 70.8726 30.0215C70.8682 24.164 75.6658 19.4093 81.5709 19.4093Z" fill="white"/>
<path d="M69.8439 90.8243H52.3431C44.8446 90.8243 38.7601 96.8642 38.7601 104.298C38.7601 104.298 38.7601 109.778 38.7601 113.325C38.7601 113.382 38.7601 113.438 38.7645 113.495V115.835C38.7645 115.891 38.7776 115.948 38.782 116H42.3276C42.332 115.944 42.3452 115.891 42.3452 115.835V107.958C42.3452 107.919 42.3452 107.88 42.3408 107.841V104.302C42.3408 98.8225 46.8232 94.3762 52.3475 94.3762H69.8483C75.3725 94.3762 79.8549 98.8225 79.8549 104.302V104.684C79.8549 104.719 79.8506 104.75 79.8506 104.784V115.835C79.8506 115.891 79.8637 115.948 79.8681 116H83.4138C83.4181 115.944 83.4313 115.891 83.4313 115.835V112.47C83.4313 112.418 83.4356 112.366 83.4356 112.309C83.4356 109.074 83.4356 104.298 83.4356 104.298C83.4313 96.8642 77.3423 90.8243 69.8439 90.8243Z" fill="white"/>
<path d="M61.0935 88.7835C68.6226 88.7835 74.7378 82.7176 74.7378 75.2491C74.7378 67.7806 68.6226 61.7147 61.0935 61.7147C53.5644 61.7147 47.4492 67.7806 47.4492 75.2491C47.4492 82.7176 53.5644 88.7835 61.0935 88.7835ZM61.0935 65.2622C66.6484 65.2622 71.1615 69.7389 71.1615 75.2491C71.1615 80.7593 66.6484 85.236 61.0935 85.236C55.5386 85.236 51.0255 80.7593 51.0255 75.2491C51.0255 69.7389 55.5386 65.2622 61.0935 65.2622Z" fill="white"/>
<path d="M115.093 72.5136C115.093 72.5136 105.261 53.5471 105.231 53.4907C104.968 52.8958 104.653 52.3313 104.298 51.7929C103.9 51.1242 103.418 50.5294 102.871 50.0213C100.687 47.7808 97.6271 46.3913 94.2434 46.3913C94.2434 46.3913 93.2191 46.3913 70.82 46.3913C62.4505 46.3913 59.4914 54.3852 59.4914 54.3852L58.397 56.8428C57.9549 57.8328 58.4058 58.9922 59.4038 59.4307C60.4019 59.8693 61.5706 59.4221 62.0127 58.432C62.5949 57.0339 63.1727 55.614 63.8294 54.3591C65.217 51.9492 67.8303 50.3253 70.8244 50.3253L94.5848 50.334C97.15 50.4382 99.4087 51.7408 100.805 53.6904C100.831 53.7252 100.858 53.7556 100.884 53.7903C101.041 54.0465 101.794 55.4099 101.895 55.6097L111.525 74.1245C112.186 75.3967 112.129 76.847 111.499 78.0194C111.412 78.2061 111.302 78.3928 111.184 78.5708L97.2638 99.0744C96.7298 99.8646 95.9637 100.412 95.1189 100.69C95.027 100.72 94.935 100.746 94.8431 100.772C94.4754 100.868 92.5537 101.389 90.6977 99.5433C90.4964 99.3436 90.3344 99.1004 90.1943 98.8573C89.8047 98.2016 89.6078 97.4504 89.6209 96.6949L89.6296 96.7123C89.6428 95.9394 89.8704 95.1621 90.3388 94.4717L102.937 75.9091L95.3027 61.2588L91.8621 63.1563L98.3625 75.5704C98.3625 75.5704 88.3646 90.2468 88.1107 90.6246C87.4716 91.5799 86.3948 93.2863 86.4298 93.308C84.7401 96.8555 85.8695 101.193 89.2488 103.451C89.6734 103.733 90.1155 103.972 90.5708 104.168L90.5839 115.661C90.5839 115.779 90.597 115.887 90.6189 116H94.4885C94.506 115.891 94.5236 115.779 94.5236 115.661V104.793C96.883 104.585 99.1286 103.36 100.556 101.258C100.556 101.258 114.16 81.3368 114.314 81.1414C116.174 78.7402 116.586 75.3837 115.093 72.5136Z" fill="white"/>
<path d="M71.2709 103.008C70.2816 103.008 69.4805 103.803 69.4805 104.784V115.835C69.4805 115.891 69.4937 115.948 69.4981 116H73.0437C73.0481 115.944 73.0612 115.891 73.0612 115.835V104.784C73.0569 103.803 72.2558 103.008 71.2709 103.008Z" fill="white"/>
<path d="M50.9205 103.008C49.9312 103.008 49.1301 103.803 49.1301 104.784V115.835C49.1301 115.891 49.1432 115.948 49.1476 116H52.6933C52.6977 115.944 52.7108 115.891 52.7108 115.835V104.784C52.7108 103.803 51.9097 103.008 50.9205 103.008Z" fill="white"/>
</g>
<defs>
<clipPath id="clip0_2811_529">
<rect width="116" height="116" fill="white"/>
</clipPath>
</defs>
</svg>
