<svg width="116" height="116" viewBox="0 0 116 116" fill="none" xmlns="http://www.w3.org/2000/svg">
<path d="M86.6566 68.271L70.7842 60.8349C70.2662 59.6853 69.6144 58.6468 68.8935 57.7579C75.6318 54.3603 80.2593 47.4285 80.2593 39.4412V26.8169C84.1011 24.3126 86.4839 19.9962 86.4839 14.791C86.4839 8.78225 82.0421 3.42741 81.8521 3.20518L80.0046 1L78.4894 3.44451C76.2405 7.07708 70.5597 8.6284 59.5048 8.6284C48.0613 8.6284 38.7502 17.8466 38.7502 29.1759V39.4497C38.7502 47.3858 43.3216 54.2834 49.9951 57.7023C49.5203 58.4673 49.0411 59.3177 48.6095 60.2237L27.4319 72.3266C21.4361 75.8139 18 81.0533 18 86.703C18 91.8784 21.5915 97.058 24.9455 100.173L34.4853 109.122C34.5242 109.157 34.563 109.187 34.6019 109.221V115.469H38.7545V111.174C39.4107 111.293 40.1013 111.358 40.8308 111.358C44.6856 111.358 48.2037 109.259 50.0038 105.887L61.9652 83.5107C63.3379 80.9294 64.633 78.4892 66.1222 77.2712C68.2892 75.5019 71.954 71.1685 71.954 66.1555C71.954 66.0786 71.9454 66.0059 71.9454 65.9333L84.8695 71.9847C90.9862 74.8908 94.7849 80.6559 94.7849 87.0321V115.469H98.9375V87.0278C98.9375 79.0576 94.2366 71.8736 86.6566 68.271ZM42.9028 39.4454V29.1717C42.9028 20.1073 50.3491 12.7353 59.5048 12.7353C67.5942 12.7353 75.5584 12.0943 80.1039 7.91471C81.183 9.73099 82.3356 12.308 82.3356 14.791C82.3356 19.7398 79.0895 25.0647 71.9583 25.0647V29.1759C73.4174 29.1759 74.8073 28.9879 76.111 28.646V39.4497C76.111 48.514 68.6647 55.886 59.5091 55.886C50.3534 55.886 42.9028 48.5098 42.9028 39.4454ZM63.4847 74.1002C61.3523 75.8438 59.8673 78.6387 58.2961 81.5961L46.3346 103.964C45.2511 105.99 43.1403 107.251 40.8265 107.251C39.2855 107.251 38.12 106.883 37.3473 106.152L27.7902 97.1905C24.9844 94.5793 22.1483 90.3228 22.1483 86.7073C22.1483 82.5534 24.8376 78.6046 29.5212 75.8823L47.0684 65.8521C47.0641 65.9547 47.0555 66.0572 47.0555 66.1598C47.0555 68.7624 47.7764 70.5531 48.3591 71.9933C48.7908 73.0659 49.1318 73.9079 49.1318 74.9207C49.1318 75.019 49.1188 75.1558 49.0498 75.2754L40.9733 88.8356L34.1271 84.3184L31.8263 87.7373L42.3201 94.6648L52.624 77.3652C53.0556 76.643 53.2844 75.7968 53.2844 74.925C53.2844 73.1258 52.7189 71.7155 52.2182 70.4761C51.7002 69.1941 51.2124 67.9804 51.2124 66.1683C51.2124 63.8179 52.8182 60.9588 53.9406 59.2451C55.7147 59.7365 57.5838 60.0058 59.5134 60.0058C61.3134 60.0058 63.0574 59.7793 64.7236 59.3477C66.1567 60.6169 67.8143 63.0913 67.8143 66.1683C67.8057 69.6471 64.9783 72.8779 63.4847 74.1002Z" fill="white"/>
<path d="M84.4119 94.9212H80.2593V115.469H84.4119V94.9212Z" fill="white"/>
<path d="M84.6923 53.26L81.7591 56.1641L88.2452 62.5855L91.1785 59.6815L84.6923 53.26Z" fill="white"/>
<path d="M96.8612 43.5567H86.4839V47.6679H96.8612V43.5567Z" fill="white"/>
<path d="M34.3212 53.2579L27.8351 59.6794L30.7684 62.5834L37.2545 56.1619L34.3212 53.2579Z" fill="white"/>
<path d="M32.5299 43.5567H22.1526V47.6679H32.5299V43.5567Z" fill="white"/>
<path d="M61.935 44.4114V30.4922H48.0138V34.3385H58.05V44.4114H61.935Z" fill="white"/>
<path d="M52.8517 39.8865C54.0943 39.6868 54.9381 38.5278 54.7364 37.2976C54.5348 36.0675 53.364 35.2321 52.1215 35.4318C50.879 35.6314 50.0352 36.7905 50.2368 38.0206C50.4385 39.2507 51.6092 40.0861 52.8517 39.8865Z" fill="white"/>
<path d="M69.7044 38.5241C70.1861 37.3727 69.6339 36.0527 68.4709 35.5758C67.3079 35.0989 65.9746 35.6456 65.4929 36.797C65.0112 37.9484 65.5634 39.2684 66.7264 39.7453C67.8894 40.2222 69.2227 39.6755 69.7044 38.5241Z" fill="white"/>
<path d="M63.5408 50.9885C61.3048 50.544 58.9954 50.5098 56.673 50.9158L56.0687 47.5482C58.8141 47.0653 61.5681 47.1037 64.2229 47.6337L63.5408 50.9885Z" fill="white"/>
</svg>
