<svg width="126" height="124" viewBox="0 0 126 124" fill="none" xmlns="http://www.w3.org/2000/svg">
<path d="M53.0088 31.9491H75.8571V37.7365H58.4545V47.4806H64.0186C72.8383 47.4806 79.2902 52.9728 79.2902 60.4728C79.2902 68.209 72.7199 73.7602 63.4267 73.7602C58.5137 73.7602 53.6008 72.1657 49.99 69.272L52.1801 64.3114C54.9622 66.6736 58.9873 68.1499 62.894 68.1499C68.9316 68.1499 73.2526 64.7838 73.2526 60.2956C73.2526 56.1027 69.4643 52.9728 64.1962 52.9728H53.0088V31.9491Z" fill="#DC0000"/>
<path d="M47.9546 86.2074V92.4746H44.4031V81.4018H48.3985L51.3729 85.9417L54.3252 81.4018H58.3428V92.4746H54.7913V86.1631L52.0389 90.703H50.707L47.9546 86.2074Z" fill="#DC0000"/>
<path d="M60.3404 81.4019H63.892V87.2262L68.2204 81.4019H71.772V92.4747H68.2204V86.6061L63.892 92.4747H60.3404V81.4019Z" fill="#DC0000"/>
<path d="M73.77 81.4019H77.3215V85.3881H81.317V81.4019H84.8686V92.4747H81.317V88.4885H77.3215V92.4747H73.77V81.4019Z" fill="#DC0000"/>
<path d="M62.636 114.852C62.6286 114.852 62.547 114.852 62.5395 114.852C61.7231 114.837 61.0625 114.163 61.0774 113.331C61.0922 112.514 61.7528 111.854 62.5618 111.854C62.5692 111.854 62.5766 111.854 62.5841 111.854L62.5618 113.353L62.636 111.854C63.4525 111.854 64.1205 112.529 64.1205 113.353C64.1205 114.178 63.4599 114.852 62.636 114.852ZM66.3397 114.748C65.5604 114.748 64.9072 114.133 64.8627 113.338C64.8108 112.514 65.4416 111.802 66.2581 111.757L66.3472 113.256L66.3101 111.757C67.1265 111.697 67.839 112.319 67.8984 113.144C67.9578 113.968 67.3417 114.688 66.5253 114.748C66.5179 114.748 66.4362 114.755 66.4288 114.755C66.3991 114.74 66.3694 114.748 66.3397 114.748ZM58.8581 114.68C58.821 114.68 58.7839 114.68 58.7468 114.673C58.7393 114.673 58.6577 114.665 58.6503 114.665C57.8338 114.59 57.2326 113.863 57.2994 113.039C57.3736 112.214 58.0936 111.599 58.91 111.674L58.7764 113.166L58.962 111.674C59.7785 111.734 60.3945 112.454 60.3351 113.278C60.2832 114.08 59.63 114.68 58.8581 114.68ZM70.1771 114.343C69.4422 114.343 68.7817 113.803 68.6778 113.061C68.5664 112.244 69.086 111.495 69.895 111.375C69.9024 111.375 69.9767 111.36 69.9841 111.36C70.7857 111.247 71.5428 111.824 71.6541 112.641C71.7654 113.458 71.1939 114.215 70.3849 114.328C70.3107 114.335 70.2439 114.343 70.1771 114.343ZM55.1024 114.23C55.0282 114.23 54.954 114.223 54.8797 114.215C54.8723 114.215 54.7981 114.2 54.7907 114.2C53.9817 114.065 53.4324 113.301 53.5586 112.484C53.6922 111.667 54.4418 111.112 55.2583 111.247L55.0208 112.724L55.3177 111.255C56.1267 111.382 56.6834 112.147 56.5646 112.964C56.4607 113.698 55.8224 114.23 55.1024 114.23ZM73.8956 113.661C73.2053 113.661 72.567 113.188 72.4112 112.484C72.2404 111.682 72.7006 110.895 73.4948 110.715C73.5022 110.715 73.5839 110.692 73.5987 110.692C74.4003 110.528 75.1871 111.045 75.3504 111.862C75.5137 112.679 75.0015 113.466 74.1925 113.631C74.1034 113.653 73.9995 113.661 73.8956 113.661ZM51.3913 113.488C51.2874 113.488 51.176 113.473 51.0721 113.451L50.9682 113.428C50.174 113.233 49.6842 112.424 49.8771 111.614C50.0701 110.812 50.8717 110.318 51.6733 110.513L51.7179 110.52C52.5195 110.7 53.0242 111.502 52.8461 112.304C52.6902 113.016 52.0741 113.488 51.3913 113.488ZM77.5399 112.701C76.8942 112.701 76.293 112.289 76.1 111.644C75.8625 110.85 76.2782 110.025 77.0649 109.786L77.154 109.756C77.9408 109.531 78.7646 109.988 78.9947 110.782C79.2248 111.577 78.7646 112.409 77.9779 112.641C77.8294 112.679 77.681 112.701 77.5399 112.701ZM47.7469 112.469C47.5985 112.469 47.4501 112.446 47.3016 112.401L47.22 112.379C46.4406 112.132 46.0101 111.285 46.2551 110.498C46.5074 109.711 47.3387 109.268 48.1181 109.523L48.1849 109.546C48.9642 109.793 49.4021 110.633 49.1572 111.427C48.9642 112.064 48.3778 112.469 47.7469 112.469ZM81.1175 111.465C80.5163 111.465 79.9448 111.112 79.7221 110.52C79.4252 109.748 79.774 108.886 80.5385 108.586L80.6276 108.549C81.3995 108.256 82.2531 108.654 82.5426 109.426C82.832 110.198 82.4386 111.067 81.6742 111.352C81.4886 111.427 81.303 111.465 81.1175 111.465ZM44.1843 111.18C43.9987 111.18 43.8132 111.142 43.6276 111.067L43.5534 111.037C42.7963 110.722 42.4252 109.853 42.7369 109.081C43.0486 108.316 43.9096 107.942 44.6741 108.256L44.7409 108.286C45.498 108.594 45.8691 109.471 45.5648 110.235C45.3273 110.827 44.7706 111.18 44.1843 111.18ZM84.5614 109.973C84.0047 109.973 83.4703 109.651 83.218 109.111C82.8691 108.361 83.1883 107.469 83.9305 107.117L83.9825 107.095C84.7173 106.735 85.608 107.042 85.9642 107.792C86.3205 108.534 86.0088 109.433 85.274 109.793L85.1923 109.831C84.9845 109.928 84.7692 109.973 84.5614 109.973ZM40.7329 109.621C40.5102 109.621 40.2801 109.568 40.0723 109.463C39.3375 109.096 39.0109 108.174 39.3746 107.432C39.7383 106.69 40.5993 106.375 41.3341 106.742L41.4009 106.772C42.1357 107.14 42.4326 108.047 42.0615 108.781C41.8017 109.313 41.2747 109.621 40.7329 109.621ZM87.9163 108.204C87.3967 108.204 86.8994 107.934 86.6248 107.447C86.224 106.727 86.4689 105.813 87.1815 105.401L87.226 105.371C87.9311 104.951 88.8441 105.191 89.2597 105.903C89.6754 106.615 89.4378 107.537 88.7327 107.957L88.6511 108.002C88.4136 108.144 88.1686 108.204 87.9163 108.204ZM37.4077 107.799C37.1628 107.799 36.9104 107.739 36.6803 107.604C36.6655 107.597 36.5913 107.552 36.5839 107.544C35.8787 107.117 35.6561 106.195 36.0791 105.483C36.5022 104.771 37.4151 104.546 38.1203 104.973L37.3558 106.255L38.15 104.988C38.8625 105.401 39.1074 106.315 38.7066 107.035C38.4246 107.529 37.9199 107.799 37.4077 107.799ZM91.1598 106.158C90.6848 106.158 90.2098 105.933 89.9277 105.513C89.4675 104.831 89.616 103.917 90.2914 103.452L90.3582 103.407C91.0411 102.942 91.9614 103.13 92.4216 103.812C92.8818 104.501 92.6962 105.431 92.0208 105.895C91.761 106.068 91.4567 106.158 91.1598 106.158ZM34.231 105.731C33.9415 105.731 33.6446 105.641 33.3849 105.461C32.7094 104.988 32.5165 104.029 32.9841 103.354C33.4517 102.672 34.3498 102.485 35.0178 102.957L35.0771 103.002C35.7526 103.474 35.9159 104.411 35.4482 105.086C35.1588 105.513 34.6986 105.731 34.231 105.731ZM94.1881 103.939C93.7428 103.939 93.3048 103.737 93.0154 103.362C92.5107 102.71 92.6294 101.765 93.2752 101.256L94.1881 102.44L93.2974 101.241C93.9357 100.724 94.8709 100.814 95.3831 101.451C95.8952 102.088 95.8136 103.025 95.1827 103.549C95.1678 103.557 95.101 103.617 95.0936 103.624C94.8264 103.834 94.5073 103.939 94.1881 103.939ZM31.2101 103.429C30.8836 103.429 30.557 103.325 30.2823 103.1C30.2749 103.092 30.2081 103.04 30.2007 103.032C29.5698 102.507 29.4807 101.563 30.0003 100.918C30.5199 100.281 31.4551 100.191 32.0934 100.716L31.1508 101.87L32.1305 100.746C32.7688 101.263 32.8801 102.208 32.368 102.852C32.0785 103.235 31.648 103.429 31.2101 103.429ZM97.0828 101.421C96.682 101.421 96.2886 101.263 95.9991 100.948C95.4425 100.341 95.4573 99.4194 96.0585 98.8572L96.1105 98.8048C96.7117 98.2426 97.6543 98.2876 98.211 98.8947C98.7676 99.5018 98.7305 100.454 98.1219 101.016C97.8399 101.286 97.4613 101.421 97.0828 101.421ZM28.3674 100.911C27.9963 100.911 27.6178 100.769 27.3283 100.484C26.7493 99.9066 26.7048 98.9397 27.2689 98.3475C27.833 97.7554 28.7385 97.7029 29.3323 98.2651C29.3397 98.2726 29.3991 98.3326 29.4065 98.34C29.9929 98.9172 30.0003 99.8691 29.4288 100.461C29.1393 100.761 28.7534 100.911 28.3674 100.911ZM99.7697 98.7298C99.406 98.7298 99.0423 98.6024 98.7602 98.3326C98.1739 97.7704 98.1145 96.8634 98.6637 96.2563C98.6712 96.2413 98.738 96.1814 98.7454 96.1664C99.3169 95.5742 100.26 95.5667 100.846 96.1439C101.432 96.721 101.44 97.673 100.868 98.2651C100.571 98.5724 100.17 98.7298 99.7697 98.7298ZM25.7251 98.1751C25.3243 98.1751 24.9235 98.0103 24.634 97.688L24.5746 97.6205C24.0254 97.0059 24.0773 96.0614 24.686 95.5068C25.2946 94.9521 26.2298 95.0046 26.7865 95.6192L26.8236 95.6642C27.3802 96.2713 27.3431 97.2232 26.7345 97.7854C26.445 98.0477 26.0813 98.1751 25.7251 98.1751ZM102.241 95.8516C101.915 95.8516 101.596 95.7466 101.328 95.5293C100.697 95.0121 100.571 94.1051 101.076 93.4605C101.083 93.453 101.135 93.3856 101.143 93.3781C101.67 92.741 102.605 92.651 103.236 93.1832C103.867 93.7154 103.956 94.6598 103.429 95.2969C103.132 95.6567 102.687 95.8516 102.241 95.8516ZM23.2906 95.2519C22.8452 95.2519 22.4073 95.0496 22.1179 94.6748L22.0733 94.6148C21.5686 93.9627 21.6874 93.0183 22.3331 92.5086C22.9788 91.9989 23.914 92.1188 24.4188 92.771L24.4633 92.8309C24.968 93.483 24.8492 94.4274 24.2035 94.9371C23.9289 95.1545 23.6097 95.2519 23.2906 95.2519ZM104.505 92.7859C104.216 92.7859 103.926 92.7035 103.681 92.5236C103.013 92.0514 102.82 91.1594 103.28 90.4848C103.288 90.4773 103.34 90.4024 103.34 90.3949C103.815 89.7203 104.743 89.5629 105.411 90.0501C106.079 90.5298 106.234 91.4667 105.759 92.1413C105.455 92.5536 104.98 92.7859 104.505 92.7859ZM21.0787 92.1563C20.5963 92.1563 20.1287 91.924 19.8392 91.4892L19.7947 91.4293C19.3419 90.7397 19.5275 89.8103 20.2029 89.353C20.8858 88.8958 21.8061 89.0832 22.2589 89.7653L22.3034 89.8252C22.7562 90.5148 22.5706 91.4443 21.8952 91.9015C21.6428 92.0739 21.3608 92.1563 21.0787 92.1563ZM106.524 89.5629C106.279 89.5629 106.027 89.5029 105.804 89.368C105.099 88.9558 104.839 88.0713 105.247 87.3593C105.247 87.3593 105.284 87.2918 105.292 87.2843C105.707 86.5722 106.613 86.3324 107.326 86.7521C108.031 87.1719 108.268 88.0863 107.853 88.8059C107.57 89.2856 107.051 89.5629 106.524 89.5629ZM19.097 88.8958C18.57 88.8958 18.0579 88.611 17.7907 88.1088C17.3899 87.3892 17.6274 86.4523 18.3399 86.0476C19.0525 85.6428 19.9505 85.8677 20.3513 86.5947L20.4033 86.6847C20.7967 87.4117 20.5295 88.3262 19.8095 88.7159C19.5794 88.8359 19.3345 88.8958 19.097 88.8958ZM108.305 86.1975C108.09 86.1975 107.875 86.1525 107.674 86.0476C106.94 85.6803 106.62 84.8183 106.984 84.0763L107.014 84.0088C107.377 83.2668 108.261 82.9594 109.003 83.3267C109.738 83.694 110.042 84.5935 109.678 85.3355C109.411 85.8677 108.869 86.1975 108.305 86.1975ZM17.3602 85.4929C16.8109 85.4929 16.2839 85.1856 16.0242 84.6459L15.9796 84.541C15.6382 83.7839 15.9722 82.8995 16.7219 82.5547C17.4715 82.2174 18.3473 82.5472 18.6888 83.3042L17.3379 83.9189L18.7036 83.3342C19.0599 84.0763 18.7481 84.9757 18.0133 85.3355C17.7981 85.4479 17.5828 85.4929 17.3602 85.4929ZM109.834 82.7421C109.649 82.7421 109.456 82.7046 109.27 82.6296C108.513 82.3148 108.149 81.4379 108.461 80.6733L109.834 81.243L108.476 80.6434C108.773 79.8788 109.626 79.4816 110.391 79.7814C111.155 80.0737 111.541 80.9282 111.252 81.7002C111.244 81.7152 111.215 81.7977 111.207 81.8126C110.977 82.3973 110.421 82.7421 109.834 82.7421ZM15.8906 81.97C15.2894 81.97 14.7253 81.5953 14.5026 80.9957L14.4729 80.9282C14.1834 80.1562 14.5768 79.2867 15.3413 79.0019C16.1058 78.7095 16.9668 79.1068 17.2563 79.8788L17.2859 79.9463C17.5754 80.7183 17.182 81.5878 16.4175 81.8726C16.2394 81.9401 16.0613 81.97 15.8906 81.97ZM111.096 79.1443C110.948 79.1443 110.807 79.1218 110.658 79.0768C109.871 78.837 109.433 77.9975 109.678 77.203L109.701 77.1355C109.938 76.341 110.769 75.8988 111.549 76.1386C112.336 76.3785 112.773 77.2179 112.536 78.005L112.514 78.0799C112.321 78.732 111.734 79.1443 111.096 79.1443ZM14.6882 78.3423C14.035 78.3423 13.4412 77.9075 13.2557 77.2404C13.0181 76.4459 13.4561 75.5915 14.2428 75.3516C15.0296 75.1117 15.8535 75.539 16.091 76.3335L16.1207 76.4384C16.3359 77.2329 15.8757 78.0649 15.089 78.2823C14.9479 78.3273 14.8143 78.3423 14.6882 78.3423ZM112.083 75.4565C111.972 75.4565 111.853 75.4415 111.734 75.4116C110.94 75.2167 110.443 74.4072 110.636 73.6052L112.083 73.95L110.651 73.5677C110.821 72.7582 111.616 72.2485 112.41 72.4134C113.211 72.5858 113.724 73.3803 113.553 74.1898L113.531 74.3022C113.367 74.9918 112.759 75.4565 112.083 75.4565ZM13.7529 74.6395C13.0701 74.6395 12.4541 74.1523 12.3056 73.4478L12.2908 73.3728C12.12 72.5633 12.6396 71.7688 13.4412 71.5964C14.2428 71.4315 15.0296 71.9487 15.2003 72.7582L13.7455 73.0655L15.2151 72.8256C15.3858 73.6351 14.8737 74.4297 14.0721 74.6021C13.9608 74.632 13.8569 74.6395 13.7529 74.6395ZM112.796 71.7013C112.722 71.7013 112.647 71.6938 112.573 71.6863C111.764 71.5664 111.2 70.8019 111.326 69.9849L112.796 70.2097L111.341 69.9174C111.46 69.1004 112.217 68.5308 113.026 68.6507C113.835 68.7706 114.399 69.5351 114.28 70.3521L114.273 70.4271C114.154 71.1692 113.516 71.7013 112.796 71.7013ZM13.1072 70.8768C12.365 70.8768 11.7267 70.3147 11.6376 69.5576C11.5188 68.7406 12.0755 67.9611 12.8845 67.8412C13.701 67.7213 14.4506 68.2684 14.5694 69.0929L14.5842 69.2053C14.6807 70.0298 14.1018 70.7719 13.2853 70.8693C13.226 70.8768 13.1666 70.8768 13.1072 70.8768ZM113.219 67.9086C113.174 67.9086 113.13 67.9086 113.085 67.9011C112.269 67.8262 111.668 67.0991 111.734 66.2746L113.211 66.4096L111.734 66.2447C111.764 65.7949 111.987 65.4052 112.321 65.1503C112.024 64.8655 111.838 64.4607 111.853 64.011V63.9361C111.875 63.1116 112.58 62.452 113.382 62.482C114.199 62.5044 114.844 63.194 114.822 64.026V64.101C114.807 64.5732 114.585 64.9854 114.236 65.2478C114.547 65.5401 114.726 65.9598 114.696 66.4246C114.696 66.4395 114.688 66.5295 114.688 66.5445C114.629 67.3165 113.983 67.9086 113.219 67.9086ZM12.7435 67.0767C11.9642 67.0767 11.311 66.462 11.2591 65.6675C11.2145 64.843 11.8306 64.0935 12.6545 64.0485C13.4561 64.0035 14.176 64.5957 14.2205 65.4202L14.228 65.4951C14.2725 66.3196 13.649 67.0317 12.8326 67.0767C12.8029 67.0767 12.7732 67.0767 12.7435 67.0767ZM12.6619 63.254C11.838 63.254 11.1774 62.5869 11.1774 61.7624V61.6425C11.1997 60.818 11.89 60.1734 12.7064 60.1884C13.5229 60.2108 14.1686 60.9004 14.1463 61.7324L12.6619 61.6874L14.1463 61.7624C14.1389 62.5794 13.4783 63.254 12.6619 63.254ZM113.315 61.6874C112.521 61.6874 111.861 61.0803 111.838 60.2708L113.323 60.2183L111.838 60.2558L113.323 60.1509L114.807 60.1059C114.829 60.9304 114.191 61.6575 113.375 61.6799C113.352 61.6874 113.33 61.6874 113.315 61.6874ZM12.8549 59.4388C12.8103 59.4388 12.7658 59.4388 12.7213 59.4313C11.9048 59.3564 11.3036 58.6293 11.3704 57.8048C11.4446 56.9803 12.1868 56.3357 12.981 56.4032C13.7975 56.4781 14.4061 57.1677 14.3319 57.9922L14.3245 58.0672C14.2651 58.8542 13.6193 59.4388 12.8549 59.4388ZM113.011 57.9247C112.269 57.9247 111.63 57.3626 111.541 56.5981L113.018 56.4257L111.534 56.5306C111.437 55.7061 112.016 54.9641 112.833 54.8666C113.657 54.7692 114.384 55.3538 114.481 56.1783L114.488 56.2533C114.585 57.0778 113.998 57.8198 113.189 57.9172C113.13 57.9172 113.07 57.9247 113.011 57.9247ZM13.3299 55.6386C13.2557 55.6386 13.1814 55.6311 13.1072 55.6237C12.2982 55.4962 11.7415 54.7467 11.8603 53.9297L11.8825 53.8098C12.0236 52.9928 12.7955 52.4531 13.6045 52.5955C14.4135 52.7379 14.9479 53.5174 14.8069 54.3344L13.3447 54.0721L14.7995 54.3644C14.6882 55.1065 14.0498 55.6386 13.3299 55.6386ZM112.417 54.1321C111.734 54.1321 111.118 53.6599 110.977 52.9553L110.955 52.8428C110.814 52.0258 111.348 51.2463 112.157 51.1039C112.966 50.954 113.738 51.5012 113.879 52.3182C114.05 53.1277 113.538 53.9372 112.736 54.1096C112.625 54.1246 112.521 54.1321 112.417 54.1321ZM14.0944 51.9059C13.983 51.9059 13.8643 51.8909 13.7455 51.861C12.9513 51.6661 12.4541 50.8566 12.647 50.0546C12.647 50.0546 12.6619 49.9796 12.6693 49.9796C12.8623 49.1776 13.6639 48.6829 14.4655 48.8778C15.2597 49.0727 15.7495 49.8822 15.5566 50.6917L14.1166 50.3394L15.5417 50.7591C15.371 51.4412 14.7624 51.9059 14.0944 51.9059ZM111.556 50.4293C110.903 50.4293 110.302 49.9946 110.124 49.3275L110.101 49.2525C109.886 48.4505 110.354 47.626 111.141 47.4087C111.927 47.1913 112.751 47.6635 112.966 48.458L112.989 48.533C113.204 49.335 112.736 50.1595 111.95 50.3769C111.816 50.4143 111.682 50.4293 111.556 50.4293ZM15.1186 48.2257C14.9702 48.2257 14.8292 48.2032 14.6807 48.1582C13.9014 47.9109 13.4635 47.0789 13.701 46.2919L13.7381 46.1794C13.9979 45.3924 14.844 44.9802 15.6234 45.2425C16.4027 45.5048 16.8183 46.3593 16.5511 47.1463L15.1483 46.6666L16.5437 47.1763C16.3433 47.8134 15.757 48.2257 15.1186 48.2257ZM110.398 46.7716C109.805 46.7716 109.24 46.4118 109.018 45.8121L108.973 45.6922C108.713 44.9052 109.129 44.0582 109.901 43.7884C110.68 43.526 111.519 43.9458 111.786 44.7253C112.076 45.4973 111.69 46.3743 110.925 46.6666C110.755 46.7416 110.576 46.7716 110.398 46.7716ZM16.4324 44.6429C16.2468 44.6429 16.0539 44.6054 15.8683 44.5304C15.1112 44.2156 14.7475 43.3387 15.0593 42.5741C15.371 41.8096 16.2543 41.4123 17.0113 41.7271C17.7684 42.042 18.1469 42.8814 17.8278 43.6535L17.7981 43.7209C17.568 44.2981 17.0113 44.6429 16.4324 44.6429ZM108.958 43.2112C108.402 43.2112 107.882 42.9039 107.637 42.3568L107.6 42.2818C107.266 41.5248 107.608 40.6403 108.35 40.303C109.099 39.9657 109.975 40.3105 110.309 41.0676C110.651 41.8246 110.332 42.739 109.582 43.0838C109.389 43.1663 109.174 43.2112 108.958 43.2112ZM17.9985 41.1725C17.761 41.1725 17.5235 41.1125 17.3008 40.9926C16.5808 40.6028 16.3062 39.6959 16.6922 38.9613C17.0707 38.2418 17.9762 37.927 18.6962 38.3017C19.4161 38.6765 19.7279 39.531 19.3716 40.2655C19.3642 40.2805 19.3271 40.363 19.3122 40.378C19.045 40.8877 18.5255 41.1725 17.9985 41.1725ZM107.318 39.8083C106.791 39.8083 106.272 39.5235 106.004 39.0138L105.99 38.9838C105.589 38.2643 105.834 37.3498 106.546 36.9376C107.259 36.5328 108.164 36.7802 108.572 37.4997L108.624 37.5972C109.01 38.3242 108.736 39.2387 108.016 39.6284C107.793 39.7558 107.556 39.8083 107.318 39.8083ZM19.8244 37.822C19.572 37.822 19.3122 37.7546 19.0821 37.6197C18.377 37.1999 18.1321 36.3005 18.5403 35.5884C18.5477 35.5734 18.5923 35.4985 18.5997 35.4835C19.0302 34.7789 19.9505 34.5615 20.6408 35.0038C21.3385 35.4385 21.5538 36.3679 21.1158 37.065L19.8541 36.278L21.101 37.095C20.8338 37.5522 20.3291 37.822 19.8244 37.822ZM105.351 36.4953C104.876 36.4953 104.416 36.263 104.134 35.8208L105.388 35.0187L104.127 35.8058L105.351 34.9588L106.613 34.1718C107.043 34.8763 106.851 35.8282 106.16 36.263C105.908 36.4204 105.626 36.4953 105.351 36.4953ZM21.8878 34.6365C21.5983 34.6365 21.3014 34.554 21.049 34.3741C20.3736 33.9019 20.2029 32.9725 20.6705 32.2904C20.6779 32.2829 20.7225 32.2155 20.7299 32.208C21.2049 31.5334 22.1327 31.376 22.8007 31.8632C23.4687 32.3429 23.6246 33.2798 23.1495 33.9544L21.9397 33.0849L23.1199 33.9994C22.823 34.4041 22.3628 34.6365 21.8878 34.6365ZM103.184 33.3698C102.753 33.3698 102.33 33.1749 102.048 32.8001L103.228 31.8932L102.041 32.7926C102.033 32.7851 101.989 32.7251 101.981 32.7176C101.499 32.0506 101.647 31.1136 102.308 30.6264C102.969 30.1392 103.896 30.2891 104.379 30.9562C104.854 31.6233 104.743 32.5827 104.089 33.0699C103.815 33.2648 103.496 33.3698 103.184 33.3698ZM24.1961 31.5933C23.8695 31.5933 23.5429 31.4884 23.2683 31.2635C22.63 30.7464 22.5261 29.8169 23.0308 29.1723C23.0382 29.1573 23.0976 29.0899 23.105 29.0749C23.632 28.4453 24.5672 28.3628 25.1981 28.9025C25.8216 29.4347 25.9032 30.3866 25.3688 31.0162L24.2332 30.0493L25.3465 31.0387C25.0645 31.3985 24.6266 31.5933 24.1961 31.5933ZM100.816 30.4166C100.415 30.4166 100.022 30.2517 99.7251 29.9294L99.6435 29.8394C99.1165 29.2098 99.1907 28.2579 99.8142 27.7257C100.438 27.1935 101.38 27.2685 101.907 27.8981C102.457 28.5127 102.419 29.4721 101.811 30.0268C101.529 30.2891 101.172 30.4166 100.816 30.4166ZM26.7122 28.7526C26.3485 28.7526 25.9849 28.6177 25.6954 28.3478C25.1016 27.7782 25.0719 26.8337 25.6286 26.2266C25.636 26.2191 25.6954 26.1592 25.7028 26.1517C26.2743 25.5595 27.2169 25.552 27.8033 26.1292C28.3897 26.7063 28.3971 27.6582 27.8256 28.2504L26.7642 27.201L27.7959 28.2804C27.5064 28.5952 27.1056 28.7526 26.7122 28.7526ZM98.2332 27.6507C97.8547 27.6507 97.4762 27.5008 97.1867 27.2085L98.2332 26.1517L97.1644 27.1935C96.5781 26.6239 96.5484 25.672 97.1125 25.0723C97.6766 24.4727 98.6044 24.4427 99.1981 25.0049C99.2056 25.0124 99.2724 25.0798 99.2872 25.0873C99.8661 25.672 99.8661 26.6239 99.2872 27.2085C98.9903 27.5008 98.6118 27.6507 98.2332 27.6507ZM29.4362 26.0992C29.028 26.0992 28.6198 25.9268 28.3229 25.597C27.781 24.9749 27.8404 24.0305 28.449 23.4833C29.0651 22.9361 30.0226 22.9661 30.5644 23.5807C31.1062 24.1954 31.084 25.1173 30.4753 25.672C30.4753 25.672 30.4159 25.7244 30.4085 25.7319C30.1413 25.9718 29.7851 26.0992 29.4362 26.0992ZM95.3905 25.0723C95.0639 25.0723 94.7374 24.9599 94.4702 24.7275L94.4108 24.6826C93.7873 24.1504 93.7057 23.1985 94.2401 22.5689C94.767 21.9392 95.7022 21.8568 96.3331 22.3965C96.9566 22.9286 97.0679 23.903 96.5335 24.5327C96.2367 24.8849 95.8136 25.0723 95.3905 25.0723ZM32.3532 23.6557C31.9078 23.6557 31.4625 23.4533 31.173 23.0636C30.6757 22.404 30.8019 21.467 31.4551 20.9648C32.1008 20.4626 33.0657 20.5676 33.5556 21.2197C34.0529 21.8718 33.9638 22.7862 33.3181 23.2959C33.3106 23.2959 33.2513 23.3484 33.2438 23.3559C32.9766 23.5583 32.6649 23.6557 32.3532 23.6557ZM92.429 22.7263C92.1396 22.7263 91.8427 22.6363 91.5903 22.4489L91.5087 22.389C90.8481 21.8943 90.7145 20.9573 91.1969 20.2902C91.6868 19.6232 92.6146 19.4807 93.2752 19.9754C93.9432 20.4551 94.1139 21.4071 93.6388 22.0817C93.342 22.5014 92.8892 22.7263 92.429 22.7263ZM35.4408 21.4445C34.9658 21.4445 34.4908 21.2122 34.2087 20.7849C33.7485 20.1029 33.9267 19.1734 34.6021 18.7087L34.6986 18.6413C35.3889 18.199 36.3092 18.4014 36.7471 19.0985C37.1851 19.7955 36.9847 20.725 36.2944 21.1672L35.4928 19.9005L36.2647 21.1822C36.0123 21.3621 35.7229 21.4445 35.4408 21.4445ZM89.2968 20.6125C89.0296 20.6125 88.7624 20.5376 88.5175 20.3877L89.2968 19.1135L88.4655 20.3577C87.7604 19.9305 87.5377 19.0085 87.9608 18.2965C88.3839 17.5844 89.2968 17.3595 90.0019 17.7868C90.0094 17.7868 90.0762 17.8317 90.0836 17.8392C90.7813 18.274 90.9965 19.2034 90.5586 19.9005C90.2766 20.3652 89.7941 20.6125 89.2968 20.6125ZM38.6769 19.4732C38.15 19.4732 37.6452 19.1959 37.378 18.6937C36.9847 17.9667 37.2444 17.0597 37.9644 16.655L38.0312 16.6175C38.7512 16.2202 39.6567 16.4826 40.0501 17.2096C40.4434 17.9367 40.1837 18.8436 39.4637 19.2484L39.3895 19.2859C39.1668 19.4133 38.9219 19.4732 38.6769 19.4732ZM86.0013 18.7462C85.7712 18.7462 85.5412 18.6937 85.3185 18.5813L86.0013 17.2471L85.274 18.5513C84.5392 18.184 84.2422 17.2771 84.6134 16.5425C84.9771 15.8005 85.8677 15.5007 86.6025 15.8754C86.61 15.8754 86.6768 15.9129 86.6842 15.9204C87.4116 16.3027 87.701 17.2021 87.3225 17.9367C87.0627 18.4464 86.5432 18.7462 86.0013 18.7462ZM42.0541 17.7493C41.4974 17.7493 40.963 17.427 40.7106 16.8873C40.3618 16.1378 40.681 15.2458 41.4232 14.8935C41.4306 14.8935 41.5048 14.8561 41.5122 14.8561C42.2619 14.5188 43.1377 14.8486 43.4791 15.6056C43.8206 16.3626 43.4866 17.2471 42.7369 17.5919L42.1283 16.2277L42.6924 17.6144C42.4846 17.7043 42.2693 17.7493 42.0541 17.7493ZM82.5797 17.1272C82.3793 17.1272 82.1789 17.0897 81.9859 16.9998L82.5797 15.6281L81.9414 16.9848L83.0844 14.219C83.0918 14.219 83.166 14.2489 83.166 14.2564C83.9157 14.5862 84.2645 15.4707 83.9379 16.2277C83.7004 16.7899 83.1512 17.1272 82.5797 17.1272ZM45.5574 16.2877C44.9488 16.2877 44.3772 15.9054 44.162 15.2983C43.8874 14.5188 44.2882 13.6568 45.0601 13.3795C45.832 13.1021 46.7078 13.4844 46.9899 14.2639C47.2719 15.036 46.9157 15.8829 46.1512 16.1678C46.1437 16.1678 46.0695 16.1977 46.0621 16.1977C45.8914 16.2577 45.7207 16.2877 45.5574 16.2877ZM79.0392 15.778C78.876 15.778 78.7201 15.748 78.5568 15.6956L79.0392 14.2789L78.5197 15.6806C77.7403 15.4332 77.3099 14.5862 77.5548 13.7992C77.8071 13.0122 78.6384 12.57 79.4178 12.8248C79.4252 12.8248 79.5069 12.8548 79.5217 12.8623C80.2936 13.1321 80.7093 13.9866 80.4421 14.7661C80.2342 15.3882 79.6553 15.778 79.0392 15.778ZM49.1572 15.0959C48.504 15.0959 47.9028 14.6612 47.7247 13.9941C47.5094 13.1921 47.977 12.3676 48.7638 12.1502C49.5506 11.9179 50.4041 12.3751 50.6268 13.1696C50.8569 13.9641 50.4264 14.7886 49.6396 15.021L49.5506 15.0509C49.417 15.0809 49.2834 15.0959 49.1572 15.0959ZM75.4098 14.6987C75.2836 14.6987 75.1648 14.6837 75.0386 14.6537L75.4098 13.1996L74.9867 14.6387C74.1925 14.4438 73.7026 13.6343 73.8956 12.8248C74.0886 12.0153 74.8902 11.5281 75.6918 11.723C75.6992 11.723 75.7734 11.7455 75.7809 11.7455C76.5751 11.9553 77.0501 12.7723 76.8497 13.5743C76.679 14.2489 76.0703 14.6987 75.4098 14.6987ZM52.8312 14.189C52.1335 14.189 51.51 13.6868 51.3764 12.9747C51.2206 12.1652 51.7476 11.3782 52.5566 11.2208C53.3582 11.0634 54.1672 11.5806 54.3305 12.3901C54.4938 13.1996 54.0188 13.9716 53.2172 14.144C53.2097 14.144 53.1281 14.1665 53.1133 14.1665C53.0168 14.174 52.9203 14.189 52.8312 14.189ZM71.7135 13.9041C71.6244 13.9041 71.5427 13.8967 71.4537 13.8817L71.3943 13.8742C70.5853 13.7392 70.036 12.9672 70.1771 12.1502C70.3107 11.3332 71.0677 10.7786 71.8842 10.921L71.9732 10.936C72.7823 11.0784 73.3167 11.8579 73.1757 12.6749C73.0495 13.3945 72.4186 13.9041 71.7135 13.9041ZM56.5572 13.5594C55.815 13.5594 55.1766 12.9972 55.0876 12.2327C54.9911 11.4082 55.5774 10.6661 56.3865 10.5687C57.2029 10.4638 57.9748 11.0334 58.0787 11.8579C58.1827 12.6749 57.6408 13.4319 56.8318 13.5369L56.7353 13.5519C56.6759 13.5519 56.6166 13.5594 56.5572 13.5594ZM67.9652 13.387C67.9133 13.387 67.8613 13.387 67.8093 13.3795L67.7574 13.372C66.9409 13.297 66.3397 12.57 66.4065 11.7455C66.4808 10.921 67.2007 10.3063 68.0172 10.3813L68.1137 10.3888C68.9301 10.4712 69.5239 11.2133 69.4348 12.0303C69.3606 12.8173 68.7149 13.387 67.9652 13.387ZM60.439 13.2146L60.3277 11.7155L60.2609 10.2164C61.0477 10.1789 61.8121 10.816 61.8493 11.648C61.8864 12.4725 61.2852 13.1771 60.4687 13.2071L60.4019 11.708L60.439 13.2146ZM64.1873 13.1621C64.1724 13.1621 64.1576 13.1621 64.1428 13.1621L64.1873 11.663L64.0908 13.1621C63.2743 13.1471 62.6138 12.4725 62.6286 11.6405C62.6434 10.8235 63.304 10.1639 64.1131 10.1639C64.1205 10.1639 64.1279 10.1639 64.1353 10.1639C64.1427 10.1639 64.2244 10.1639 64.2318 10.1639C65.0483 10.1864 65.694 10.876 65.6717 11.708C65.6421 12.5175 64.9889 13.1621 64.1873 13.1621Z" fill="#DC0000"/>
<path d="M58.7347 124C58.1253 123.922 57.5091 123.797 56.9032 123.625L57.3221 115.869C57.8553 116.017 58.3989 116.127 58.9355 116.197L58.7347 124Z" fill="#DC0000"/>
<path d="M65.2569 124L65.0323 116.098C66.1553 116.059 67.2927 115.979 68.4157 115.869L69.0968 123.739C67.8216 123.866 66.532 123.953 65.2569 124Z" fill="#DC0000"/>
<path d="M51.0811 121.967C49.6263 121.726 48.1715 121.445 46.7419 121.138L49.0125 114.852C50.2739 115.127 51.5605 115.375 52.8387 115.584L51.0811 121.967Z" fill="#DC0000"/>
<path d="M74.7484 124L73.1613 115.697C74.4882 115.461 75.8151 115.173 77.1246 114.852L79.2581 123.037C77.7664 123.4 76.2487 123.73 74.7484 124Z" fill="#DC0000"/>
<path d="M42.1555 120.951C40.965 120.434 39.7745 119.876 38.6129 119.277L41.5855 111.803C42.6029 112.328 43.6563 112.821 44.7097 113.28L42.1555 120.951Z" fill="#DC0000"/>
<path d="M83.5376 120.951L80.2742 114.055C81.7191 113.675 83.1641 113.266 84.5599 112.82L88.4032 119.547C86.8108 120.044 85.1693 120.519 83.5376 120.951Z" fill="#DC0000"/>
<path d="M32.8889 115.869C31.7309 115.313 30.5805 114.719 29.4677 114.106L33.5731 108.754C34.5505 109.297 35.5656 109.821 36.5806 110.306L32.8889 115.869Z" fill="#DC0000"/>
<path d="M92.8077 117.902L89.4194 111.321C89.8582 111.075 90.297 110.828 90.7286 110.575C91.707 110 92.671 109.381 93.6062 108.754L97.5484 114.992C96.4909 115.708 95.3974 116.402 94.2896 117.059C93.8004 117.342 93.304 117.626 92.8077 117.902Z" fill="#DC0000"/>
<path d="M25.1764 111.803C24.2128 110.885 23.263 109.916 22.3548 108.923L26.9859 102.656C27.79 103.532 28.622 104.382 29.4677 105.191L25.1764 111.803Z" fill="#DC0000"/>
<path d="M101.847 109.77L97.5484 104.632C98.4011 103.998 99.233 103.336 100.023 102.656L104.661 107.519C103.767 108.298 102.817 109.051 101.847 109.77Z" fill="#DC0000"/>
<path d="M18.5589 104.689C17.7701 103.674 16.9943 102.612 16.2581 101.535L21.3462 96.5574C21.9905 97.501 22.6741 98.4368 23.371 99.3254L18.5589 104.689Z" fill="#DC0000"/>
<path d="M108.464 104.689L103.645 99.336C104.342 98.4386 105.019 97.5019 105.663 96.5574L110.758 101.532C110.028 102.603 109.253 103.665 108.464 104.689Z" fill="#DC0000"/>
<path d="M12.2447 96.5574C11.521 95.6343 10.8192 94.6731 10.1613 93.6992L16.4554 90.459C17.033 91.312 17.6543 92.1587 18.2903 92.9735L12.2447 96.5574Z" fill="#DC0000"/>
<path d="M114.519 96.5574L107.71 92.9851C108.425 92.1622 109.116 91.3138 109.766 90.459L116.855 93.6868C116.115 94.6564 115.325 95.626 114.519 96.5574Z" fill="#DC0000"/>
<path d="M7.65557 89.4426C7.10198 88.3151 6.57752 87.1522 6.09677 85.9963L12.8491 83.3443C13.2716 84.3654 13.7305 85.3865 14.2258 86.3793L7.65557 89.4426Z" fill="#DC0000"/>
<path d="M119.375 89.4426L112.79 86.397C113.278 85.3937 113.73 84.369 114.152 83.3443L120.919 85.9772C120.446 87.1442 119.929 88.3112 119.375 89.4426Z" fill="#DC0000"/>
<path d="M4.96094 80.2951C4.62965 79.1376 4.33084 77.9527 4.06452 76.7747L10.3914 75.2131C10.6188 76.2473 10.8851 77.2884 11.1774 78.3089L4.96094 80.2951Z" fill="#DC0000"/>
<path d="M123.721 80.2951L114.823 77.935C115.231 76.7054 115.612 75.451 115.937 74.1967L124.984 76.0617C124.612 77.4811 124.185 78.9087 123.721 80.2951Z" fill="#DC0000"/>
<path d="M2.47439 71.1475C2.28047 69.9696 2.1331 68.7715 2.03226 67.5935L9.7657 67.082C9.85878 68.1186 9.99064 69.1753 10.1613 70.2119L2.47439 71.1475Z" fill="#DC0000"/>
<path d="M124.541 71.1475L116.855 70.2171C117.018 69.1788 117.15 68.127 117.243 67.082L124.984 67.5876C124.875 68.7743 124.728 69.9676 124.541 71.1475Z" fill="#DC0000"/>
<path d="M0 61.8879C0.00796183 61.4301 0.0159227 60.9724 0.0238845 60.5146C0.0557319 59.3189 0.111464 58.1138 0.191082 56.918L8.12903 57.6374C8.05738 58.6836 8.0096 59.7486 7.98572 60.7949C7.97776 61.1966 7.9698 61.5983 7.96183 62L0 61.8879Z" fill="#DC0000"/>
<path d="M119.033 62C119.019 60.548 118.971 59.0867 118.887 57.644L125.833 56.918C125.93 58.5562 125.986 60.2129 126 61.8604L119.033 62Z" fill="#DC0000"/>
<path d="M9.47444 52.8525L2.03226 51.8791C2.25115 50.8464 2.51532 49.8018 2.81724 48.7869L10.1613 50.1282C9.89712 51.0244 9.66313 51.9444 9.47444 52.8525Z" fill="#DC0000"/>
<path d="M117.556 52.8525C117.36 51.9424 117.126 51.0324 116.855 50.146L124.192 48.7869C124.494 49.7974 124.765 50.8374 124.984 51.8715L117.556 52.8525Z" fill="#DC0000"/>
<path d="M11.0155 44.7213L4.06452 42.3781C4.46694 41.1164 4.91327 39.8546 5.39618 38.623L12.1935 41.4093C11.7619 42.5058 11.3667 43.6173 11.0155 44.7213Z" fill="#DC0000"/>
<path d="M115.14 44.7213C114.737 43.62 114.292 42.5112 113.806 41.4324L121.437 38.623C121.98 39.8516 122.491 41.1102 122.952 42.3614L115.14 44.7213Z" fill="#DC0000"/>
<path d="M14.6206 38.623L8.12903 35.6203C8.71124 34.5773 9.33711 33.5343 9.98481 32.5246L16.2581 35.8993C15.6831 36.7828 15.13 37.6996 14.6206 38.623Z" fill="#DC0000"/>
<path d="M112.41 38.623C112.039 37.7489 111.653 36.8837 111.253 36.0362C111.093 35.6919 110.925 35.3475 110.758 35.0032L117.017 30.4918C117.206 30.8803 117.395 31.2687 117.577 31.666C118.028 32.6283 118.465 33.6171 118.887 34.5971L112.41 38.623Z" fill="#DC0000"/>
<path d="M19.7242 30.4918L12.1935 25.7749C13.1476 24.6099 14.1573 23.461 15.1854 22.3607L22.3548 27.4821C21.4471 28.461 20.5579 29.4724 19.7242 30.4918Z" fill="#DC0000"/>
<path d="M107.039 30.4918C106.28 29.4653 105.479 28.455 104.661 27.4931L111.103 22.3607C112.037 23.4599 112.947 24.6076 113.806 25.7715L107.039 30.4918Z" fill="#DC0000"/>
<path d="M23.8076 24.3934L18.2903 19.064C19.2485 18.1047 20.2453 17.1607 21.2576 16.2623L26.4194 21.9267C25.523 22.7185 24.6421 23.5484 23.8076 24.3934Z" fill="#DC0000"/>
<path d="M102.889 24.3934C102.152 23.5484 101.381 22.7185 100.597 21.9343L105.107 16.2623C105.992 17.1531 106.871 18.0971 107.71 19.0564L102.889 24.3934Z" fill="#DC0000"/>
<path d="M31.3779 20.3279L26.4194 12.9668C27.5866 11.9927 28.8034 11.0553 30.0203 10.1639L34.5484 17.8558C33.4722 18.6369 32.4044 19.4732 31.3779 20.3279Z" fill="#DC0000"/>
<path d="M95.6497 18.2951C94.6139 17.6107 93.545 16.9485 92.4677 16.3304L96.9839 10.1639C98.2103 10.8704 99.4284 11.6209 100.597 12.4009L95.6497 18.2951Z" fill="#DC0000"/>
<path d="M38.3164 15.2459L34.5484 8.02933C35.7937 7.35022 37.071 6.69565 38.3483 6.09836L41.6613 13.544C40.5357 14.0759 39.4101 14.6486 38.3164 15.2459Z" fill="#DC0000"/>
<path d="M88.719 15.2459C87.6217 14.6486 86.4923 14.084 85.3548 13.5604L88.647 6.09836C89.9366 6.69565 91.2262 7.33385 92.4677 8.01296L88.719 15.2459Z" fill="#DC0000"/>
<path d="M45.2836 10.1639L42.6774 4.08675C43.9844 3.70652 45.3149 3.35852 46.6454 3.04918L48.7742 9.24881C47.6002 9.52593 46.4263 9.82882 45.2836 10.1639Z" fill="#DC0000"/>
<path d="M80.7377 10.1639C79.5828 9.83497 78.4043 9.5318 77.2258 9.26088L79.3393 3.04918C80.6749 3.35235 82.0105 3.70067 83.3226 4.07479L80.7377 10.1639Z" fill="#DC0000"/>
<path d="M53.9964 9.14754L52.8387 2.57442C53.9335 2.35375 55.0471 2.17321 56.1419 2.03279L56.9032 8.67278C55.9343 8.79314 54.959 8.95362 53.9964 9.14754Z" fill="#DC0000"/>
<path d="M73.7543 9.14754C72.551 8.96031 71.3241 8.79983 70.1129 8.67278L71.0567 2.03279C72.433 2.17321 73.8251 2.35375 75.1936 2.56773L73.7543 9.14754Z" fill="#DC0000"/>
<path d="M61.2155 8.12305L60.9677 0.0364262C62.3148 -0.0121421 63.6774 -0.0121421 65.0323 0.0364262L64.8465 8.13115H64.7923C63.6077 8.08258 62.4 8.08258 61.2155 8.12305Z" fill="#DC0000"/>
</svg>
