<svg width="129" height="129" viewBox="0 0 129 129" fill="none" xmlns="http://www.w3.org/2000/svg">
<path d="M55.0088 34.9491H77.8571V40.7365H60.4545V50.4806H66.0186C74.8383 50.4806 81.2902 55.9728 81.2902 63.4728C81.2902 71.209 74.7199 76.7602 65.4267 76.7602C60.5137 76.7602 55.6008 75.1657 51.99 72.272L54.1801 67.3114C56.9622 69.6736 60.9873 71.1499 64.894 71.1499C70.9316 71.1499 75.2526 67.7838 75.2526 63.2956C75.2526 59.1027 71.4643 55.9728 66.1962 55.9728H55.0088V34.9491Z" fill="#DC0000"/>
<path d="M49.9546 89.2074V95.4746H46.4031V84.4018H50.3985L53.3729 88.9417L56.3252 84.4018H60.3428V95.4746H56.7913V89.1631L54.0389 93.703H52.707L49.9546 89.2074Z" fill="#DC0000"/>
<path d="M62.3404 84.4019H65.892V90.2262L70.2204 84.4019H73.772V95.4747H70.2204V89.6061L65.892 95.4747H62.3404V84.4019Z" fill="#DC0000"/>
<path d="M75.77 84.4019H79.3215V88.3881H83.317V84.4019H86.8686V95.4747H83.317V91.4885H79.3215V95.4747H75.77V84.4019Z" fill="#DC0000"/>
<path d="M64.636 117.852C64.6286 117.852 64.547 117.852 64.5395 117.852C63.7231 117.837 63.0625 117.163 63.0774 116.331C63.0922 115.514 63.7528 114.854 64.5618 114.854C64.5692 114.854 64.5766 114.854 64.5841 114.854L64.5618 116.353L64.636 114.854C65.4525 114.854 66.1205 115.529 66.1205 116.353C66.1205 117.178 65.4599 117.852 64.636 117.852ZM68.3397 117.748C67.5604 117.748 66.9072 117.133 66.8627 116.338C66.8108 115.514 67.4416 114.802 68.2581 114.757L68.3472 116.256L68.3101 114.757C69.1265 114.697 69.839 115.319 69.8984 116.144C69.9578 116.968 69.3417 117.688 68.5253 117.748C68.5179 117.748 68.4362 117.755 68.4288 117.755C68.3991 117.74 68.3694 117.748 68.3397 117.748ZM60.8581 117.68C60.821 117.68 60.7839 117.68 60.7468 117.673C60.7393 117.673 60.6577 117.665 60.6503 117.665C59.8338 117.59 59.2326 116.863 59.2994 116.039C59.3736 115.214 60.0936 114.599 60.91 114.674L60.7764 116.166L60.962 114.674C61.7785 114.734 62.3945 115.454 62.3351 116.278C62.2832 117.08 61.63 117.68 60.8581 117.68ZM72.1771 117.343C71.4422 117.343 70.7817 116.803 70.6778 116.061C70.5664 115.244 71.086 114.495 71.895 114.375C71.9024 114.375 71.9767 114.36 71.9841 114.36C72.7857 114.247 73.5428 114.824 73.6541 115.641C73.7654 116.458 73.1939 117.215 72.3849 117.328C72.3107 117.335 72.2439 117.343 72.1771 117.343ZM57.1024 117.23C57.0282 117.23 56.954 117.223 56.8797 117.215C56.8723 117.215 56.7981 117.2 56.7907 117.2C55.9817 117.065 55.4324 116.301 55.5586 115.484C55.6922 114.667 56.4418 114.112 57.2583 114.247L57.0208 115.724L57.3177 114.255C58.1267 114.382 58.6834 115.147 58.5646 115.964C58.4607 116.698 57.8224 117.23 57.1024 117.23ZM75.8956 116.661C75.2053 116.661 74.567 116.188 74.4112 115.484C74.2404 114.682 74.7006 113.895 75.4948 113.715C75.5022 113.715 75.5839 113.692 75.5987 113.692C76.4003 113.528 77.1871 114.045 77.3504 114.862C77.5137 115.679 77.0015 116.466 76.1925 116.631C76.1034 116.653 75.9995 116.661 75.8956 116.661ZM53.3913 116.488C53.2874 116.488 53.176 116.473 53.0721 116.451L52.9682 116.428C52.174 116.233 51.6842 115.424 51.8771 114.614C52.0701 113.812 52.8717 113.318 53.6733 113.513L53.7179 113.52C54.5195 113.7 55.0242 114.502 54.8461 115.304C54.6902 116.016 54.0741 116.488 53.3913 116.488ZM79.5399 115.701C78.8942 115.701 78.293 115.289 78.1 114.644C77.8625 113.85 78.2782 113.025 79.0649 112.786L79.154 112.756C79.9408 112.531 80.7646 112.988 80.9947 113.782C81.2248 114.577 80.7646 115.409 79.9779 115.641C79.8294 115.679 79.681 115.701 79.5399 115.701ZM49.7469 115.469C49.5985 115.469 49.4501 115.446 49.3016 115.401L49.22 115.379C48.4406 115.132 48.0101 114.285 48.2551 113.498C48.5074 112.711 49.3387 112.268 50.1181 112.523L50.1849 112.546C50.9642 112.793 51.4021 113.633 51.1572 114.427C50.9642 115.064 50.3778 115.469 49.7469 115.469ZM83.1175 114.465C82.5163 114.465 81.9448 114.112 81.7221 113.52C81.4252 112.748 81.774 111.886 82.5385 111.586L82.6276 111.549C83.3995 111.256 84.2531 111.654 84.5426 112.426C84.832 113.198 84.4386 114.067 83.6742 114.352C83.4886 114.427 83.303 114.465 83.1175 114.465ZM46.1843 114.18C45.9987 114.18 45.8132 114.142 45.6276 114.067L45.5534 114.037C44.7963 113.722 44.4252 112.853 44.7369 112.081C45.0486 111.316 45.9096 110.942 46.6741 111.256L46.7409 111.286C47.498 111.594 47.8691 112.471 47.5648 113.235C47.3273 113.827 46.7706 114.18 46.1843 114.18ZM86.5614 112.973C86.0047 112.973 85.4703 112.651 85.218 112.111C84.8691 111.361 85.1883 110.469 85.9305 110.117L85.9825 110.095C86.7173 109.735 87.608 110.042 87.9642 110.792C88.3205 111.534 88.0088 112.433 87.274 112.793L87.1923 112.831C86.9845 112.928 86.7692 112.973 86.5614 112.973ZM42.7329 112.621C42.5102 112.621 42.2801 112.568 42.0723 112.463C41.3375 112.096 41.0109 111.174 41.3746 110.432C41.7383 109.69 42.5993 109.375 43.3341 109.742L43.4009 109.772C44.1357 110.14 44.4326 111.047 44.0615 111.781C43.8017 112.313 43.2747 112.621 42.7329 112.621ZM89.9163 111.204C89.3967 111.204 88.8994 110.934 88.6248 110.447C88.224 109.727 88.4689 108.813 89.1815 108.401L89.226 108.371C89.9311 107.951 90.8441 108.191 91.2597 108.903C91.6754 109.615 91.4378 110.537 90.7327 110.957L90.6511 111.002C90.4136 111.144 90.1686 111.204 89.9163 111.204ZM39.4077 110.799C39.1628 110.799 38.9104 110.739 38.6803 110.604C38.6655 110.597 38.5913 110.552 38.5839 110.544C37.8787 110.117 37.6561 109.195 38.0791 108.483C38.5022 107.771 39.4151 107.546 40.1203 107.973L39.3558 109.255L40.15 107.988C40.8625 108.401 41.1074 109.315 40.7066 110.035C40.4246 110.529 39.9199 110.799 39.4077 110.799ZM93.1598 109.158C92.6848 109.158 92.2098 108.933 91.9277 108.513C91.4675 107.831 91.616 106.917 92.2914 106.452L92.3582 106.407C93.0411 105.942 93.9614 106.13 94.4216 106.812C94.8818 107.501 94.6962 108.431 94.0208 108.895C93.761 109.068 93.4567 109.158 93.1598 109.158ZM36.231 108.731C35.9415 108.731 35.6446 108.641 35.3849 108.461C34.7094 107.988 34.5165 107.029 34.9841 106.354C35.4517 105.672 36.3498 105.485 37.0178 105.957L37.0771 106.002C37.7526 106.474 37.9159 107.411 37.4482 108.086C37.1588 108.513 36.6986 108.731 36.231 108.731ZM96.1881 106.939C95.7428 106.939 95.3048 106.737 95.0154 106.362C94.5107 105.71 94.6294 104.765 95.2752 104.256L96.1881 105.44L95.2974 104.241C95.9357 103.724 96.8709 103.814 97.3831 104.451C97.8952 105.088 97.8136 106.025 97.1827 106.549C97.1678 106.557 97.101 106.617 97.0936 106.624C96.8264 106.834 96.5073 106.939 96.1881 106.939ZM33.2101 106.429C32.8836 106.429 32.557 106.325 32.2823 106.1C32.2749 106.092 32.2081 106.04 32.2007 106.032C31.5698 105.507 31.4807 104.563 32.0003 103.918C32.5199 103.281 33.4551 103.191 34.0934 103.716L33.1508 104.87L34.1305 103.746C34.7688 104.263 34.8801 105.208 34.368 105.852C34.0785 106.235 33.648 106.429 33.2101 106.429ZM99.0828 104.421C98.682 104.421 98.2886 104.263 97.9991 103.948C97.4425 103.341 97.4573 102.419 98.0585 101.857L98.1105 101.805C98.7117 101.243 99.6543 101.288 100.211 101.895C100.768 102.502 100.731 103.454 100.122 104.016C99.8399 104.286 99.4613 104.421 99.0828 104.421ZM30.3674 103.911C29.9963 103.911 29.6178 103.769 29.3283 103.484C28.7493 102.907 28.7048 101.94 29.2689 101.348C29.833 100.755 30.7385 100.703 31.3323 101.265C31.3397 101.273 31.3991 101.333 31.4065 101.34C31.9929 101.917 32.0003 102.869 31.4288 103.461C31.1393 103.761 30.7534 103.911 30.3674 103.911ZM101.77 101.73C101.406 101.73 101.042 101.602 100.76 101.333C100.174 100.77 100.114 99.8634 100.664 99.2563C100.671 99.2413 100.738 99.1814 100.745 99.1664C101.317 98.5742 102.26 98.5667 102.846 99.1439C103.432 99.721 103.44 100.673 102.868 101.265C102.571 101.572 102.17 101.73 101.77 101.73ZM27.7251 101.175C27.3243 101.175 26.9235 101.01 26.634 100.688L26.5746 100.62C26.0254 100.006 26.0773 99.0614 26.686 98.5068C27.2946 97.9521 28.2298 98.0046 28.7865 98.6192L28.8236 98.6642C29.3802 99.2713 29.3431 100.223 28.7345 100.785C28.445 101.048 28.0813 101.175 27.7251 101.175ZM104.241 98.8516C103.915 98.8516 103.596 98.7466 103.328 98.5293C102.697 98.0121 102.571 97.1051 103.076 96.4605C103.083 96.453 103.135 96.3856 103.143 96.3781C103.67 95.741 104.605 95.651 105.236 96.1832C105.867 96.7154 105.956 97.6598 105.429 98.2969C105.132 98.6567 104.687 98.8516 104.241 98.8516ZM25.2906 98.2519C24.8452 98.2519 24.4073 98.0496 24.1179 97.6748L24.0733 97.6148C23.5686 96.9627 23.6874 96.0183 24.3331 95.5086C24.9788 94.9989 25.914 95.1188 26.4188 95.771L26.4633 95.8309C26.968 96.483 26.8492 97.4274 26.2035 97.9371C25.9289 98.1545 25.6097 98.2519 25.2906 98.2519ZM106.505 95.7859C106.216 95.7859 105.926 95.7035 105.681 95.5236C105.013 95.0514 104.82 94.1594 105.28 93.4848C105.288 93.4773 105.34 93.4024 105.34 93.3949C105.815 92.7203 106.743 92.5629 107.411 93.0501C108.079 93.5298 108.234 94.4667 107.759 95.1413C107.455 95.5536 106.98 95.7859 106.505 95.7859ZM23.0787 95.1563C22.5963 95.1563 22.1287 94.924 21.8392 94.4892L21.7947 94.4293C21.3419 93.7397 21.5275 92.8103 22.2029 92.353C22.8858 91.8958 23.8061 92.0832 24.2589 92.7653L24.3034 92.8252C24.7562 93.5148 24.5706 94.4443 23.8952 94.9015C23.6428 95.0739 23.3608 95.1563 23.0787 95.1563ZM108.524 92.5629C108.279 92.5629 108.027 92.5029 107.804 92.368C107.099 91.9558 106.839 91.0713 107.247 90.3593C107.247 90.3593 107.284 90.2918 107.292 90.2843C107.707 89.5722 108.613 89.3324 109.326 89.7521C110.031 90.1719 110.268 91.0863 109.853 91.8059C109.57 92.2856 109.051 92.5629 108.524 92.5629ZM21.097 91.8958C20.57 91.8958 20.0579 91.611 19.7907 91.1088C19.3899 90.3892 19.6274 89.4523 20.3399 89.0476C21.0525 88.6428 21.9505 88.8677 22.3513 89.5947L22.4033 89.6847C22.7967 90.4117 22.5295 91.3262 21.8095 91.7159C21.5794 91.8359 21.3345 91.8958 21.097 91.8958ZM110.305 89.1975C110.09 89.1975 109.875 89.1525 109.674 89.0476C108.94 88.6803 108.62 87.8183 108.984 87.0763L109.014 87.0088C109.377 86.2668 110.261 85.9594 111.003 86.3267C111.738 86.694 112.042 87.5935 111.678 88.3355C111.411 88.8677 110.869 89.1975 110.305 89.1975ZM19.3602 88.4929C18.8109 88.4929 18.2839 88.1856 18.0242 87.6459L17.9796 87.541C17.6382 86.7839 17.9722 85.8995 18.7219 85.5547C19.4715 85.2174 20.3473 85.5472 20.6888 86.3042L19.3379 86.9189L20.7036 86.3342C21.0599 87.0763 20.7481 87.9757 20.0133 88.3355C19.7981 88.4479 19.5828 88.4929 19.3602 88.4929ZM111.834 85.7421C111.649 85.7421 111.456 85.7046 111.27 85.6296C110.513 85.3148 110.149 84.4379 110.461 83.6733L111.834 84.243L110.476 83.6434C110.773 82.8788 111.626 82.4816 112.391 82.7814C113.155 83.0737 113.541 83.9282 113.252 84.7002C113.244 84.7152 113.215 84.7977 113.207 84.8126C112.977 85.3973 112.421 85.7421 111.834 85.7421ZM17.8906 84.97C17.2894 84.97 16.7253 84.5953 16.5026 83.9957L16.4729 83.9282C16.1834 83.1562 16.5768 82.2867 17.3413 82.0019C18.1058 81.7095 18.9668 82.1068 19.2563 82.8788L19.2859 82.9463C19.5754 83.7183 19.182 84.5878 18.4175 84.8726C18.2394 84.9401 18.0613 84.97 17.8906 84.97ZM113.096 82.1443C112.948 82.1443 112.807 82.1218 112.658 82.0768C111.871 81.837 111.433 80.9975 111.678 80.203L111.701 80.1355C111.938 79.341 112.769 78.8988 113.549 79.1386C114.336 79.3785 114.773 80.2179 114.536 81.005L114.514 81.0799C114.321 81.732 113.734 82.1443 113.096 82.1443ZM16.6882 81.3423C16.035 81.3423 15.4412 80.9075 15.2557 80.2404C15.0181 79.4459 15.4561 78.5915 16.2428 78.3516C17.0296 78.1117 17.8535 78.539 18.091 79.3335L18.1207 79.4384C18.3359 80.2329 17.8757 81.0649 17.089 81.2823C16.9479 81.3273 16.8143 81.3423 16.6882 81.3423ZM114.083 78.4565C113.972 78.4565 113.853 78.4415 113.734 78.4116C112.94 78.2167 112.443 77.4072 112.636 76.6052L114.083 76.95L112.651 76.5677C112.821 75.7582 113.616 75.2485 114.41 75.4134C115.211 75.5858 115.724 76.3803 115.553 77.1898L115.531 77.3022C115.367 77.9918 114.759 78.4565 114.083 78.4565ZM15.7529 77.6395C15.0701 77.6395 14.4541 77.1523 14.3056 76.4478L14.2908 76.3728C14.12 75.5633 14.6396 74.7688 15.4412 74.5964C16.2428 74.4315 17.0296 74.9487 17.2003 75.7582L15.7455 76.0655L17.2151 75.8256C17.3858 76.6351 16.8737 77.4297 16.0721 77.6021C15.9608 77.632 15.8569 77.6395 15.7529 77.6395ZM114.796 74.7013C114.722 74.7013 114.647 74.6938 114.573 74.6863C113.764 74.5664 113.2 73.8019 113.326 72.9849L114.796 73.2097L113.341 72.9174C113.46 72.1004 114.217 71.5308 115.026 71.6507C115.835 71.7706 116.399 72.5351 116.28 73.3521L116.273 73.4271C116.154 74.1692 115.516 74.7013 114.796 74.7013ZM15.1072 73.8768C14.365 73.8768 13.7267 73.3147 13.6376 72.5576C13.5188 71.7406 14.0755 70.9611 14.8845 70.8412C15.701 70.7213 16.4506 71.2684 16.5694 72.0929L16.5842 72.2053C16.6807 73.0298 16.1018 73.7719 15.2853 73.8693C15.226 73.8768 15.1666 73.8768 15.1072 73.8768ZM115.219 70.9086C115.174 70.9086 115.13 70.9086 115.085 70.9011C114.269 70.8262 113.668 70.0991 113.734 69.2746L115.211 69.4096L113.734 69.2447C113.764 68.7949 113.987 68.4052 114.321 68.1503C114.024 67.8655 113.838 67.4607 113.853 67.011V66.9361C113.875 66.1116 114.58 65.452 115.382 65.482C116.199 65.5044 116.844 66.194 116.822 67.026V67.101C116.807 67.5732 116.585 67.9854 116.236 68.2478C116.547 68.5401 116.726 68.9598 116.696 69.4246C116.696 69.4395 116.688 69.5295 116.688 69.5445C116.629 70.3165 115.983 70.9086 115.219 70.9086ZM14.7435 70.0767C13.9642 70.0767 13.311 69.462 13.2591 68.6675C13.2145 67.843 13.8306 67.0935 14.6545 67.0485C15.4561 67.0035 16.176 67.5957 16.2205 68.4202L16.228 68.4951C16.2725 69.3196 15.649 70.0317 14.8326 70.0767C14.8029 70.0767 14.7732 70.0767 14.7435 70.0767ZM14.6619 66.254C13.838 66.254 13.1774 65.5869 13.1774 64.7624V64.6425C13.1997 63.818 13.89 63.1734 14.7064 63.1884C15.5229 63.2108 16.1686 63.9004 16.1463 64.7324L14.6619 64.6874L16.1463 64.7624C16.1389 65.5794 15.4783 66.254 14.6619 66.254ZM115.315 64.6874C114.521 64.6874 113.861 64.0803 113.838 63.2708L115.323 63.2183L113.838 63.2558L115.323 63.1509L116.807 63.1059C116.829 63.9304 116.191 64.6575 115.375 64.6799C115.352 64.6874 115.33 64.6874 115.315 64.6874ZM14.8549 62.4388C14.8103 62.4388 14.7658 62.4388 14.7213 62.4313C13.9048 62.3564 13.3036 61.6293 13.3704 60.8048C13.4446 59.9803 14.1868 59.3357 14.981 59.4032C15.7975 59.4781 16.4061 60.1677 16.3319 60.9922L16.3245 61.0672C16.2651 61.8542 15.6193 62.4388 14.8549 62.4388ZM115.011 60.9247C114.269 60.9247 113.63 60.3626 113.541 59.5981L115.018 59.4257L113.534 59.5306C113.437 58.7061 114.016 57.9641 114.833 57.8666C115.657 57.7692 116.384 58.3538 116.481 59.1783L116.488 59.2533C116.585 60.0778 115.998 60.8198 115.189 60.9172C115.13 60.9172 115.07 60.9247 115.011 60.9247ZM15.3299 58.6386C15.2557 58.6386 15.1814 58.6311 15.1072 58.6237C14.2982 58.4962 13.7415 57.7467 13.8603 56.9297L13.8825 56.8098C14.0236 55.9928 14.7955 55.4531 15.6045 55.5955C16.4135 55.7379 16.9479 56.5174 16.8069 57.3344L15.3447 57.0721L16.7995 57.3644C16.6882 58.1065 16.0498 58.6386 15.3299 58.6386ZM114.417 57.1321C113.734 57.1321 113.118 56.6599 112.977 55.9553L112.955 55.8428C112.814 55.0258 113.348 54.2463 114.157 54.1039C114.966 53.954 115.738 54.5012 115.879 55.3182C116.05 56.1277 115.538 56.9372 114.736 57.1096C114.625 57.1246 114.521 57.1321 114.417 57.1321ZM16.0944 54.9059C15.983 54.9059 15.8643 54.8909 15.7455 54.861C14.9513 54.6661 14.4541 53.8566 14.647 53.0546C14.647 53.0546 14.6619 52.9796 14.6693 52.9796C14.8623 52.1776 15.6639 51.6829 16.4655 51.8778C17.2597 52.0727 17.7495 52.8822 17.5566 53.6917L16.1166 53.3394L17.5417 53.7591C17.371 54.4412 16.7624 54.9059 16.0944 54.9059ZM113.556 53.4293C112.903 53.4293 112.302 52.9946 112.124 52.3275L112.101 52.2525C111.886 51.4505 112.354 50.626 113.141 50.4087C113.927 50.1913 114.751 50.6635 114.966 51.458L114.989 51.533C115.204 52.335 114.736 53.1595 113.95 53.3769C113.816 53.4143 113.682 53.4293 113.556 53.4293ZM17.1186 51.2257C16.9702 51.2257 16.8292 51.2032 16.6807 51.1582C15.9014 50.9109 15.4635 50.0789 15.701 49.2919L15.7381 49.1794C15.9979 48.3924 16.844 47.9802 17.6234 48.2425C18.4027 48.5048 18.8183 49.3593 18.5511 50.1463L17.1483 49.6666L18.5437 50.1763C18.3433 50.8134 17.757 51.2257 17.1186 51.2257ZM112.398 49.7716C111.805 49.7716 111.24 49.4118 111.018 48.8121L110.973 48.6922C110.713 47.9052 111.129 47.0582 111.901 46.7884C112.68 46.526 113.519 46.9458 113.786 47.7253C114.076 48.4973 113.69 49.3743 112.925 49.6666C112.755 49.7416 112.576 49.7716 112.398 49.7716ZM18.4324 47.6429C18.2468 47.6429 18.0539 47.6054 17.8683 47.5304C17.1112 47.2156 16.7475 46.3387 17.0593 45.5741C17.371 44.8096 18.2543 44.4123 19.0113 44.7271C19.7684 45.042 20.1469 45.8814 19.8278 46.6535L19.7981 46.7209C19.568 47.2981 19.0113 47.6429 18.4324 47.6429ZM110.958 46.2112C110.402 46.2112 109.882 45.9039 109.637 45.3568L109.6 45.2818C109.266 44.5248 109.608 43.6403 110.35 43.303C111.099 42.9657 111.975 43.3105 112.309 44.0676C112.651 44.8246 112.332 45.739 111.582 46.0838C111.389 46.1663 111.174 46.2112 110.958 46.2112ZM19.9985 44.1725C19.761 44.1725 19.5235 44.1125 19.3008 43.9926C18.5808 43.6028 18.3062 42.6959 18.6922 41.9613C19.0707 41.2418 19.9762 40.927 20.6962 41.3017C21.4161 41.6765 21.7279 42.531 21.3716 43.2655C21.3642 43.2805 21.3271 43.363 21.3122 43.378C21.045 43.8877 20.5255 44.1725 19.9985 44.1725ZM109.318 42.8083C108.791 42.8083 108.272 42.5235 108.004 42.0138L107.99 41.9838C107.589 41.2643 107.834 40.3498 108.546 39.9376C109.259 39.5328 110.164 39.7802 110.572 40.4997L110.624 40.5972C111.01 41.3242 110.736 42.2387 110.016 42.6284C109.793 42.7558 109.556 42.8083 109.318 42.8083ZM21.8244 40.822C21.572 40.822 21.3122 40.7546 21.0821 40.6197C20.377 40.1999 20.1321 39.3005 20.5403 38.5884C20.5477 38.5734 20.5923 38.4985 20.5997 38.4835C21.0302 37.7789 21.9505 37.5615 22.6408 38.0038C23.3385 38.4385 23.5538 39.3679 23.1158 40.065L21.8541 39.278L23.101 40.095C22.8338 40.5522 22.3291 40.822 21.8244 40.822ZM107.351 39.4953C106.876 39.4953 106.416 39.263 106.134 38.8208L107.388 38.0187L106.127 38.8058L107.351 37.9588L108.613 37.1718C109.043 37.8763 108.851 38.8282 108.16 39.263C107.908 39.4204 107.626 39.4953 107.351 39.4953ZM23.8878 37.6365C23.5983 37.6365 23.3014 37.554 23.049 37.3741C22.3736 36.9019 22.2029 35.9725 22.6705 35.2904C22.6779 35.2829 22.7225 35.2155 22.7299 35.208C23.2049 34.5334 24.1327 34.376 24.8007 34.8632C25.4687 35.3429 25.6246 36.2798 25.1495 36.9544L23.9397 36.0849L25.1199 36.9994C24.823 37.4041 24.3628 37.6365 23.8878 37.6365ZM105.184 36.3698C104.753 36.3698 104.33 36.1749 104.048 35.8001L105.228 34.8932L104.041 35.7926C104.033 35.7851 103.989 35.7251 103.981 35.7176C103.499 35.0506 103.647 34.1136 104.308 33.6264C104.969 33.1392 105.896 33.2891 106.379 33.9562C106.854 34.6233 106.743 35.5827 106.089 36.0699C105.815 36.2648 105.496 36.3698 105.184 36.3698ZM26.1961 34.5933C25.8695 34.5933 25.5429 34.4884 25.2683 34.2635C24.63 33.7464 24.5261 32.8169 25.0308 32.1723C25.0382 32.1573 25.0976 32.0899 25.105 32.0749C25.632 31.4453 26.5672 31.3628 27.1981 31.9025C27.8216 32.4347 27.9032 33.3866 27.3688 34.0162L26.2332 33.0493L27.3465 34.0387C27.0645 34.3985 26.6266 34.5933 26.1961 34.5933ZM102.816 33.4166C102.415 33.4166 102.022 33.2517 101.725 32.9294L101.643 32.8394C101.116 32.2098 101.191 31.2579 101.814 30.7257C102.438 30.1935 103.38 30.2685 103.907 30.8981C104.457 31.5127 104.419 32.4721 103.811 33.0268C103.529 33.2891 103.172 33.4166 102.816 33.4166ZM28.7122 31.7526C28.3485 31.7526 27.9849 31.6177 27.6954 31.3478C27.1016 30.7782 27.0719 29.8337 27.6286 29.2266C27.636 29.2191 27.6954 29.1592 27.7028 29.1517C28.2743 28.5595 29.2169 28.552 29.8033 29.1292C30.3897 29.7063 30.3971 30.6582 29.8256 31.2504L28.7642 30.201L29.7959 31.2804C29.5064 31.5952 29.1056 31.7526 28.7122 31.7526ZM100.233 30.6507C99.8547 30.6507 99.4762 30.5008 99.1867 30.2085L100.233 29.1517L99.1644 30.1935C98.5781 29.6239 98.5484 28.672 99.1125 28.0723C99.6766 27.4727 100.604 27.4427 101.198 28.0049C101.206 28.0124 101.272 28.0798 101.287 28.0873C101.866 28.672 101.866 29.6239 101.287 30.2085C100.99 30.5008 100.612 30.6507 100.233 30.6507ZM31.4362 29.0992C31.028 29.0992 30.6198 28.9268 30.3229 28.597C29.781 27.9749 29.8404 27.0305 30.449 26.4833C31.0651 25.9361 32.0226 25.9661 32.5644 26.5807C33.1062 27.1954 33.084 28.1173 32.4753 28.672C32.4753 28.672 32.4159 28.7244 32.4085 28.7319C32.1413 28.9718 31.7851 29.0992 31.4362 29.0992ZM97.3905 28.0723C97.0639 28.0723 96.7374 27.9599 96.4702 27.7275L96.4108 27.6826C95.7873 27.1504 95.7057 26.1985 96.2401 25.5689C96.767 24.9392 97.7022 24.8568 98.3331 25.3965C98.9566 25.9286 99.0679 26.903 98.5335 27.5327C98.2367 27.8849 97.8136 28.0723 97.3905 28.0723ZM34.3532 26.6557C33.9078 26.6557 33.4625 26.4533 33.173 26.0636C32.6757 25.404 32.8019 24.467 33.4551 23.9648C34.1008 23.4626 35.0657 23.5676 35.5556 24.2197C36.0529 24.8718 35.9638 25.7862 35.3181 26.2959C35.3106 26.2959 35.2513 26.3484 35.2438 26.3559C34.9766 26.5583 34.6649 26.6557 34.3532 26.6557ZM94.429 25.7263C94.1396 25.7263 93.8427 25.6363 93.5903 25.4489L93.5087 25.389C92.8481 24.8943 92.7145 23.9573 93.1969 23.2902C93.6868 22.6232 94.6146 22.4807 95.2752 22.9754C95.9432 23.4551 96.1139 24.4071 95.6388 25.0817C95.342 25.5014 94.8892 25.7263 94.429 25.7263ZM37.4408 24.4445C36.9658 24.4445 36.4908 24.2122 36.2087 23.7849C35.7485 23.1029 35.9267 22.1734 36.6021 21.7087L36.6986 21.6413C37.3889 21.199 38.3092 21.4014 38.7471 22.0985C39.1851 22.7955 38.9847 23.725 38.2944 24.1672L37.4928 22.9005L38.2647 24.1822C38.0123 24.3621 37.7229 24.4445 37.4408 24.4445ZM91.2968 23.6125C91.0296 23.6125 90.7624 23.5376 90.5175 23.3877L91.2968 22.1135L90.4655 23.3577C89.7604 22.9305 89.5377 22.0085 89.9608 21.2965C90.3839 20.5844 91.2968 20.3595 92.0019 20.7868C92.0094 20.7868 92.0762 20.8317 92.0836 20.8392C92.7813 21.274 92.9965 22.2034 92.5586 22.9005C92.2766 23.3652 91.7941 23.6125 91.2968 23.6125ZM40.6769 22.4732C40.15 22.4732 39.6452 22.1959 39.378 21.6937C38.9847 20.9667 39.2444 20.0597 39.9644 19.655L40.0312 19.6175C40.7512 19.2202 41.6567 19.4826 42.0501 20.2096C42.4434 20.9367 42.1837 21.8436 41.4637 22.2484L41.3895 22.2859C41.1668 22.4133 40.9219 22.4732 40.6769 22.4732ZM88.0013 21.7462C87.7712 21.7462 87.5412 21.6937 87.3185 21.5813L88.0013 20.2471L87.274 21.5513C86.5392 21.184 86.2422 20.2771 86.6134 19.5425C86.9771 18.8005 87.8677 18.5007 88.6025 18.8754C88.61 18.8754 88.6768 18.9129 88.6842 18.9204C89.4116 19.3027 89.701 20.2021 89.3225 20.9367C89.0627 21.4464 88.5432 21.7462 88.0013 21.7462ZM44.0541 20.7493C43.4974 20.7493 42.963 20.427 42.7106 19.8873C42.3618 19.1378 42.681 18.2458 43.4232 17.8935C43.4306 17.8935 43.5048 17.8561 43.5122 17.8561C44.2619 17.5188 45.1377 17.8486 45.4791 18.6056C45.8206 19.3626 45.4866 20.2471 44.7369 20.5919L44.1283 19.2277L44.6924 20.6144C44.4846 20.7043 44.2693 20.7493 44.0541 20.7493ZM84.5797 20.1272C84.3793 20.1272 84.1789 20.0897 83.9859 19.9998L84.5797 18.6281L83.9414 19.9848L85.0844 17.219C85.0918 17.219 85.166 17.2489 85.166 17.2564C85.9157 17.5862 86.2645 18.4707 85.9379 19.2277C85.7004 19.7899 85.1512 20.1272 84.5797 20.1272ZM47.5574 19.2877C46.9488 19.2877 46.3772 18.9054 46.162 18.2983C45.8874 17.5188 46.2882 16.6568 47.0601 16.3795C47.832 16.1021 48.7078 16.4844 48.9899 17.2639C49.2719 18.036 48.9157 18.8829 48.1512 19.1678C48.1437 19.1678 48.0695 19.1977 48.0621 19.1977C47.8914 19.2577 47.7207 19.2877 47.5574 19.2877ZM81.0392 18.778C80.876 18.778 80.7201 18.748 80.5568 18.6956L81.0392 17.2789L80.5197 18.6806C79.7403 18.4332 79.3099 17.5862 79.5548 16.7992C79.8071 16.0122 80.6384 15.57 81.4178 15.8248C81.4252 15.8248 81.5069 15.8548 81.5217 15.8623C82.2936 16.1321 82.7093 16.9866 82.4421 17.7661C82.2342 18.3882 81.6553 18.778 81.0392 18.778ZM51.1572 18.0959C50.504 18.0959 49.9028 17.6612 49.7247 16.9941C49.5094 16.1921 49.977 15.3676 50.7638 15.1502C51.5506 14.9179 52.4041 15.3751 52.6268 16.1696C52.8569 16.9641 52.4264 17.7886 51.6396 18.021L51.5506 18.0509C51.417 18.0809 51.2834 18.0959 51.1572 18.0959ZM77.4098 17.6987C77.2836 17.6987 77.1648 17.6837 77.0386 17.6537L77.4098 16.1996L76.9867 17.6387C76.1925 17.4438 75.7026 16.6343 75.8956 15.8248C76.0886 15.0153 76.8902 14.5281 77.6918 14.723C77.6992 14.723 77.7734 14.7455 77.7809 14.7455C78.5751 14.9553 79.0501 15.7723 78.8497 16.5743C78.679 17.2489 78.0703 17.6987 77.4098 17.6987ZM54.8312 17.189C54.1335 17.189 53.51 16.6868 53.3764 15.9747C53.2206 15.1652 53.7476 14.3782 54.5566 14.2208C55.3582 14.0634 56.1672 14.5806 56.3305 15.3901C56.4938 16.1996 56.0188 16.9716 55.2172 17.144C55.2097 17.144 55.1281 17.1665 55.1133 17.1665C55.0168 17.174 54.9203 17.189 54.8312 17.189ZM73.7135 16.9041C73.6244 16.9041 73.5427 16.8967 73.4537 16.8817L73.3943 16.8742C72.5853 16.7392 72.036 15.9672 72.1771 15.1502C72.3107 14.3332 73.0677 13.7786 73.8842 13.921L73.9732 13.936C74.7823 14.0784 75.3167 14.8579 75.1757 15.6749C75.0495 16.3945 74.4186 16.9041 73.7135 16.9041ZM58.5572 16.5594C57.815 16.5594 57.1766 15.9972 57.0876 15.2327C56.9911 14.4082 57.5774 13.6661 58.3865 13.5687C59.2029 13.4638 59.9748 14.0334 60.0787 14.8579C60.1827 15.6749 59.6408 16.4319 58.8318 16.5369L58.7353 16.5519C58.6759 16.5519 58.6166 16.5594 58.5572 16.5594ZM69.9652 16.387C69.9133 16.387 69.8613 16.387 69.8093 16.3795L69.7574 16.372C68.9409 16.297 68.3397 15.57 68.4065 14.7455C68.4808 13.921 69.2007 13.3063 70.0172 13.3813L70.1137 13.3888C70.9301 13.4712 71.5239 14.2133 71.4348 15.0303C71.3606 15.8173 70.7149 16.387 69.9652 16.387ZM62.439 16.2146L62.3277 14.7155L62.2609 13.2164C63.0477 13.1789 63.8121 13.816 63.8493 14.648C63.8864 15.4725 63.2852 16.1771 62.4687 16.2071L62.4019 14.708L62.439 16.2146ZM66.1873 16.1621C66.1724 16.1621 66.1576 16.1621 66.1428 16.1621L66.1873 14.663L66.0908 16.1621C65.2743 16.1471 64.6138 15.4725 64.6286 14.6405C64.6434 13.8235 65.304 13.1639 66.1131 13.1639C66.1205 13.1639 66.1279 13.1639 66.1353 13.1639C66.1427 13.1639 66.2244 13.1639 66.2318 13.1639C67.0483 13.1864 67.694 13.876 67.6717 14.708C67.6421 15.5175 66.9889 16.1621 66.1873 16.1621Z" fill="#DC0000"/>
<path d="M60.7347 127C60.1253 126.922 59.5091 126.797 58.9032 126.625L59.3221 118.869C59.8553 119.017 60.3989 119.127 60.9355 119.197L60.7347 127Z" fill="#DC0000"/>
<path d="M67.2569 127L67.0323 119.098C68.1553 119.059 69.2927 118.979 70.4157 118.869L71.0968 126.739C69.8216 126.866 68.532 126.953 67.2569 127Z" fill="#DC0000"/>
<path d="M53.0811 124.967C51.6263 124.726 50.1715 124.445 48.7419 124.138L51.0125 117.852C52.2739 118.127 53.5605 118.375 54.8387 118.584L53.0811 124.967Z" fill="#DC0000"/>
<path d="M76.7484 127L75.1613 118.697C76.4882 118.461 77.8151 118.173 79.1246 117.852L81.2581 126.037C79.7664 126.4 78.2487 126.73 76.7484 127Z" fill="#DC0000"/>
<path d="M44.1555 123.951C42.965 123.434 41.7745 122.876 40.6129 122.277L43.5855 114.803C44.6029 115.328 45.6563 115.821 46.7097 116.28L44.1555 123.951Z" fill="#DC0000"/>
<path d="M85.5376 123.951L82.2742 117.055C83.7191 116.675 85.1641 116.266 86.5599 115.82L90.4032 122.547C88.8108 123.044 87.1693 123.519 85.5376 123.951Z" fill="#DC0000"/>
<path d="M34.8889 118.869C33.7309 118.313 32.5805 117.719 31.4677 117.106L35.5731 111.754C36.5505 112.297 37.5656 112.821 38.5806 113.306L34.8889 118.869Z" fill="#DC0000"/>
<path d="M94.8077 120.902L91.4194 114.321C91.8582 114.075 92.297 113.828 92.7286 113.575C93.707 113 94.671 112.381 95.6062 111.754L99.5484 117.992C98.4909 118.708 97.3974 119.402 96.2896 120.059C95.8004 120.342 95.304 120.626 94.8077 120.902Z" fill="#DC0000"/>
<path d="M27.1764 114.803C26.2128 113.885 25.263 112.916 24.3548 111.923L28.9859 105.656C29.79 106.532 30.622 107.382 31.4677 108.191L27.1764 114.803Z" fill="#DC0000"/>
<path d="M103.847 112.77L99.5484 107.632C100.401 106.998 101.233 106.336 102.023 105.656L106.661 110.519C105.767 111.298 104.817 112.051 103.847 112.77Z" fill="#DC0000"/>
<path d="M20.5589 107.689C19.7701 106.674 18.9943 105.612 18.2581 104.535L23.3462 99.5574C23.9905 100.501 24.6741 101.437 25.371 102.325L20.5589 107.689Z" fill="#DC0000"/>
<path d="M110.464 107.689L105.645 102.336C106.342 101.439 107.019 100.502 107.663 99.5574L112.758 104.532C112.028 105.603 111.253 106.665 110.464 107.689Z" fill="#DC0000"/>
<path d="M14.2447 99.5574C13.521 98.6343 12.8192 97.6731 12.1613 96.6992L18.4554 93.459C19.033 94.312 19.6543 95.1587 20.2903 95.9735L14.2447 99.5574Z" fill="#DC0000"/>
<path d="M116.519 99.5574L109.71 95.9851C110.425 95.1622 111.116 94.3138 111.766 93.459L118.855 96.6868C118.115 97.6564 117.325 98.626 116.519 99.5574Z" fill="#DC0000"/>
<path d="M9.65557 92.4426C9.10198 91.3151 8.57752 90.1522 8.09677 88.9963L14.8491 86.3443C15.2716 87.3654 15.7305 88.3865 16.2258 89.3793L9.65557 92.4426Z" fill="#DC0000"/>
<path d="M121.375 92.4426L114.79 89.397C115.278 88.3937 115.73 87.369 116.152 86.3443L122.919 88.9772C122.446 90.1442 121.929 91.3112 121.375 92.4426Z" fill="#DC0000"/>
<path d="M6.96094 83.2951C6.62965 82.1376 6.33084 80.9527 6.06452 79.7747L12.3914 78.2131C12.6188 79.2473 12.8851 80.2884 13.1774 81.3089L6.96094 83.2951Z" fill="#DC0000"/>
<path d="M125.721 83.2951L116.823 80.935C117.231 79.7054 117.612 78.451 117.937 77.1967L126.984 79.0617C126.612 80.4811 126.185 81.9087 125.721 83.2951Z" fill="#DC0000"/>
<path d="M4.47439 74.1475C4.28047 72.9696 4.1331 71.7715 4.03226 70.5935L11.7657 70.082C11.8588 71.1186 11.9906 72.1753 12.1613 73.2119L4.47439 74.1475Z" fill="#DC0000"/>
<path d="M126.541 74.1475L118.855 73.2171C119.018 72.1788 119.15 71.127 119.243 70.082L126.984 70.5876C126.875 71.7743 126.728 72.9676 126.541 74.1475Z" fill="#DC0000"/>
<path d="M2 64.8879C2.00796 64.4301 2.01592 63.9724 2.02388 63.5146C2.05573 62.3189 2.11146 61.1138 2.19108 59.918L10.129 60.6374C10.0574 61.6836 10.0096 62.7486 9.98572 63.7949C9.97776 64.1966 9.9698 64.5983 9.96183 65L2 64.8879Z" fill="#DC0000"/>
<path d="M121.033 65C121.019 63.548 120.971 62.0867 120.887 60.644L127.833 59.918C127.93 61.5562 127.986 63.2129 128 64.8604L121.033 65Z" fill="#DC0000"/>
<path d="M11.4744 55.8525L4.03226 54.8791C4.25115 53.8464 4.51532 52.8018 4.81724 51.7869L12.1613 53.1282C11.8971 54.0244 11.6631 54.9444 11.4744 55.8525Z" fill="#DC0000"/>
<path d="M119.556 55.8525C119.36 54.9424 119.126 54.0324 118.855 53.146L126.192 51.7869C126.494 52.7974 126.765 53.8374 126.984 54.8715L119.556 55.8525Z" fill="#DC0000"/>
<path d="M13.0155 47.7213L6.06452 45.3781C6.46694 44.1164 6.91327 42.8546 7.39618 41.623L14.1935 44.4093C13.7619 45.5058 13.3667 46.6173 13.0155 47.7213Z" fill="#DC0000"/>
<path d="M117.14 47.7213C116.737 46.62 116.292 45.5112 115.806 44.4324L123.437 41.623C123.98 42.8516 124.491 44.1102 124.952 45.3614L117.14 47.7213Z" fill="#DC0000"/>
<path d="M16.6206 41.623L10.129 38.6203C10.7112 37.5773 11.3371 36.5343 11.9848 35.5246L18.2581 38.8993C17.6831 39.7828 17.13 40.6996 16.6206 41.623Z" fill="#DC0000"/>
<path d="M114.41 41.623C114.039 40.7489 113.653 39.8837 113.253 39.0362C113.093 38.6919 112.925 38.3475 112.758 38.0032L119.017 33.4918C119.206 33.8803 119.395 34.2687 119.577 34.666C120.028 35.6283 120.465 36.6171 120.887 37.5971L114.41 41.623Z" fill="#DC0000"/>
<path d="M21.7242 33.4918L14.1935 28.7749C15.1476 27.6099 16.1573 26.461 17.1854 25.3607L24.3548 30.4821C23.4471 31.461 22.5579 32.4724 21.7242 33.4918Z" fill="#DC0000"/>
<path d="M109.039 33.4918C108.28 32.4653 107.479 31.455 106.661 30.4931L113.103 25.3607C114.037 26.4599 114.947 27.6076 115.806 28.7715L109.039 33.4918Z" fill="#DC0000"/>
<path d="M25.8076 27.3934L20.2903 22.064C21.2485 21.1047 22.2453 20.1607 23.2576 19.2623L28.4194 24.9267C27.523 25.7185 26.6421 26.5484 25.8076 27.3934Z" fill="#DC0000"/>
<path d="M104.889 27.3934C104.152 26.5484 103.381 25.7185 102.597 24.9343L107.107 19.2623C107.992 20.1531 108.871 21.0971 109.71 22.0564L104.889 27.3934Z" fill="#DC0000"/>
<path d="M33.3779 23.3279L28.4194 15.9668C29.5866 14.9927 30.8034 14.0553 32.0203 13.1639L36.5484 20.8558C35.4722 21.6369 34.4044 22.4732 33.3779 23.3279Z" fill="#DC0000"/>
<path d="M97.6497 21.2951C96.6139 20.6107 95.545 19.9485 94.4677 19.3304L98.9839 13.1639C100.21 13.8704 101.428 14.6209 102.597 15.4009L97.6497 21.2951Z" fill="#DC0000"/>
<path d="M40.3164 18.2459L36.5484 11.0293C37.7937 10.3502 39.071 9.69565 40.3483 9.09836L43.6613 16.544C42.5357 17.0759 41.4101 17.6486 40.3164 18.2459Z" fill="#DC0000"/>
<path d="M90.719 18.2459C89.6217 17.6486 88.4923 17.084 87.3548 16.5604L90.647 9.09836C91.9366 9.69565 93.2262 10.3339 94.4677 11.013L90.719 18.2459Z" fill="#DC0000"/>
<path d="M47.2836 13.1639L44.6774 7.08675C45.9844 6.70652 47.3149 6.35852 48.6454 6.04918L50.7742 12.2488C49.6002 12.5259 48.4263 12.8288 47.2836 13.1639Z" fill="#DC0000"/>
<path d="M82.7377 13.1639C81.5828 12.835 80.4043 12.5318 79.2258 12.2609L81.3393 6.04918C82.6749 6.35235 84.0105 6.70067 85.3226 7.07479L82.7377 13.1639Z" fill="#DC0000"/>
<path d="M55.9964 12.1475L54.8387 5.57442C55.9335 5.35375 57.0471 5.17321 58.1419 5.03279L58.9032 11.6728C57.9343 11.7931 56.959 11.9536 55.9964 12.1475Z" fill="#DC0000"/>
<path d="M75.7543 12.1475C74.551 11.9603 73.3241 11.7998 72.1129 11.6728L73.0567 5.03279C74.433 5.17321 75.8251 5.35375 77.1936 5.56773L75.7543 12.1475Z" fill="#DC0000"/>
<path d="M63.2155 11.1231L62.9677 3.03643C64.3148 2.98786 65.6774 2.98786 67.0323 3.03643L66.8465 11.1311H66.7923C65.6077 11.0826 64.4 11.0826 63.2155 11.1231Z" fill="#DC0000"/>
</svg>
