<svg width="129" height="129" viewBox="0 0 129 129" fill="none" xmlns="http://www.w3.org/2000/svg">
<path d="M41.2353 13H36.4874V23.4H41.2353V13Z" fill="#DC0000"/>
<path d="M90.6134 13H85.8655V23.4H90.6134V13Z" fill="#DC0000"/>
<path d="M81.1176 19.6182H45.0336V23.4H81.1176V19.6182Z" fill="#DC0000"/>
<path d="M104.77 117H24.2296C15.2806 117 8 109.824 8 101.004V35.6214C8 26.8011 15.2806 19.6251 24.2296 19.6251H33.1018V23.7532H24.2296C17.5912 23.7532 12.1883 29.0715 12.1883 35.6146V100.997C12.1883 107.54 17.5912 112.865 24.2296 112.865H104.77C111.409 112.865 116.812 107.54 116.812 100.997V35.6146C116.812 29.0715 111.409 23.7463 104.77 23.7463H94.8651V19.6182H104.77C113.719 19.6182 121 26.7942 121 35.6146V100.997C121 109.824 113.719 117 104.77 117Z" fill="#DC0000"/>
<path d="M118.151 38.5273H9.89916V40.4182H118.151V38.5273Z" fill="#DC0000"/>
<path d="M53.095 65.6188C53.095 68.9697 51.3802 71.8262 48.5038 73.8038C51.7674 75.8364 53.7588 78.9126 53.7588 82.4284C53.7588 89.0204 47.1762 93.9644 38.2151 93.9644C33.292 93.9644 28.5349 92.5361 25.1606 89.6796L28.4242 82.4833C30.3603 84.5158 33.5686 85.7244 37.1088 85.7244C41.534 85.7244 44.9083 83.7468 44.9083 81.3297C44.9083 79.2972 42.751 77.7041 39.6533 77.7041H35.5599V70.0134H40.2618C42.585 70.0134 44.2445 68.5302 44.2445 66.6076C44.2445 64.3553 41.6447 62.6524 37.7173 62.6524C34.2324 62.6524 31.0241 63.8609 29.088 65.8934L25.8244 58.6971C29.1986 55.8406 33.9558 54.4123 38.6576 54.4123C47.2869 54.4123 53.095 59.1366 53.095 65.6188Z" fill="#DC0000"/>
<path d="M63.5221 81.2484H72.6285V88.6644H74.0805V94.2264L70.7616 94.6384V91.5484H64.6215V94.6384L61.3026 94.2264V88.6644H62.3398C63.0658 87.964 63.5221 86.3984 63.5221 84.4002V81.2484ZM69.3095 88.6644V84.1324H66.7374V84.1942C66.6751 86.2542 66.4677 87.6138 65.9284 88.6644H69.3095Z" fill="#DC0000"/>
<path d="M75.3251 81.2483H78.644V84.9563H82.3778V81.2483H85.6968V91.5483H82.3778V87.8403H78.644V91.5483H75.3251V81.2483Z" fill="#DC0000"/>
<path d="M90.9243 81.2483H97.3755V91.5483H94.0566V88.5613H92.6875L90.7999 91.5483H86.7342L89.3064 88.2317C88.041 87.6755 87.2113 86.4601 87.2113 84.9151C87.2113 82.7796 88.767 81.2483 90.9243 81.2483ZM94.0566 84.0293H91.5466C90.9658 84.0293 90.5302 84.4001 90.5302 84.9151C90.5302 85.4301 90.9658 85.7803 91.5466 85.7803H94.0566V84.0293Z" fill="#DC0000"/>
<path d="M70.6814 61.6307C69.6973 61.0108 67.7766 61.0048 66.874 62.2025C65.9713 61.0048 64.0506 61.0108 63.0665 61.6307C62.1842 62.1845 62.0416 63.0873 62.1638 63.7374C62.4081 65.0255 63.6841 65.9404 66.874 67.8364C70.0706 65.9404 71.3466 65.0255 71.5841 63.7374C71.7063 63.0813 71.5637 62.1845 70.6814 61.6307Z" fill="#DC0000"/>
<path d="M83.8789 61.6307C82.7967 61.0108 80.6845 61.0048 79.6919 62.2025C78.6992 61.0048 76.587 61.0108 75.5048 61.6307C74.5345 62.1845 74.3778 63.0873 74.5121 63.7374C74.7808 65.0255 76.184 65.9404 79.6919 67.8364C83.2072 65.9404 84.6104 65.0255 84.8716 63.7374C85.0134 63.0813 84.8492 62.1845 83.8789 61.6307Z" fill="#DC0000"/>
<path d="M96.2261 61.6307C95.1435 61.0108 93.0307 61.0048 92.0378 62.2025C91.0449 61.0048 88.9321 61.0108 87.8496 61.6307C86.8791 62.1845 86.7223 63.0873 86.8567 63.7374C87.1254 65.0255 88.529 65.9404 92.0378 67.8364C95.5541 65.9404 96.9577 65.0255 97.219 63.7374C97.3534 63.0813 97.1966 62.1845 96.2261 61.6307Z" fill="#DC0000"/>
<path d="M96.5624 76.3455C96.1785 76.3455 95.8294 75.92 95.8294 75.4C95.8294 74.88 96.1087 74.4545 96.4926 74.4545H96.5624C96.9464 74.4545 97.2605 74.88 97.2605 75.4C97.2605 75.92 96.9533 76.3455 96.5624 76.3455ZM93.0022 76.3455C92.6182 76.3455 92.2692 75.92 92.2692 75.4C92.2692 74.88 92.5484 74.4545 92.9324 74.4545H93.0022C93.3861 74.4545 93.7003 74.88 93.7003 75.4C93.7003 75.92 93.3931 76.3455 93.0022 76.3455ZM89.4419 76.3455H89.3721C88.9882 76.3455 88.674 75.92 88.674 75.4C88.674 74.88 88.9882 74.4545 89.3721 74.4545H89.4419C89.8259 74.4545 90.14 74.88 90.14 75.4C90.14 75.92 89.8328 76.3455 89.4419 76.3455ZM85.8817 76.3455C85.4977 76.3455 85.1487 75.92 85.1487 75.4C85.1487 74.88 85.4279 74.4545 85.8119 74.4545H85.8817C86.2656 74.4545 86.5797 74.88 86.5797 75.4C86.5797 75.92 86.2726 76.3455 85.8817 76.3455ZM82.3214 76.3455H82.2516C81.8676 76.3455 81.5535 75.92 81.5535 75.4C81.5535 74.88 81.8676 74.4545 82.2516 74.4545H82.3214C82.7054 74.4545 83.0195 74.88 83.0195 75.4C83.0195 75.92 82.7123 76.3455 82.3214 76.3455ZM78.7611 76.3455C78.3772 76.3455 78.0282 75.92 78.0282 75.4C78.0282 74.88 78.3074 74.4545 78.6913 74.4545H78.7611C79.1451 74.4545 79.4592 74.88 79.4592 75.4C79.4592 75.92 79.1521 76.3455 78.7611 76.3455ZM75.2009 76.3455C74.8169 76.3455 74.4679 75.92 74.4679 75.4C74.4679 74.88 74.7471 74.4545 75.1311 74.4545H75.2009C75.5848 74.4545 75.899 74.88 75.899 75.4C75.899 75.92 75.5918 76.3455 75.2009 76.3455ZM71.6406 76.3455H71.5708C71.1869 76.3455 70.8727 75.92 70.8727 75.4C70.8727 74.88 71.1869 74.4545 71.5708 74.4545H71.6406C72.0246 74.4545 72.3387 74.88 72.3387 75.4C72.3387 75.92 72.0316 76.3455 71.6406 76.3455ZM68.0804 76.3455C67.6964 76.3455 67.3474 75.92 67.3474 75.4C67.3474 74.88 67.6266 74.4545 68.0106 74.4545H68.0804C68.4643 74.4545 68.7785 74.88 68.7785 75.4C68.7785 75.92 68.4713 76.3455 68.0804 76.3455ZM64.5201 76.3455H64.4503C64.0664 76.3455 63.7522 75.92 63.7522 75.4C63.7522 74.88 64.0664 74.4545 64.4503 74.4545H64.5201C64.9041 74.4545 65.2182 74.88 65.2182 75.4C65.2182 75.92 64.9111 76.3455 64.5201 76.3455ZM60.9599 76.3455C60.5759 76.3455 60.2269 75.92 60.2269 75.4C60.2269 74.88 60.5061 74.4545 60.8901 74.4545H60.9599C61.3438 74.4545 61.658 74.88 61.658 75.4C61.658 75.92 61.3508 76.3455 60.9599 76.3455Z" fill="#DC0000"/>
</svg>
