<svg width="113" height="104" viewBox="0 0 113 104" fill="none" xmlns="http://www.w3.org/2000/svg">
<path d="M33.2353 0H28.4874V10.4H33.2353V0Z" fill="#DC0000"/>
<path d="M82.6134 0H77.8655V10.4H82.6134V0Z" fill="#DC0000"/>
<path d="M73.1176 6.61818H37.0336V10.4H73.1176V6.61818Z" fill="#DC0000"/>
<path d="M96.7704 104H16.2296C7.28064 104 0 96.824 0 88.0036V22.6214C0 13.8011 7.28064 6.62507 16.2296 6.62507H25.1018V10.7532H16.2296C9.59118 10.7532 4.18829 16.0715 4.18829 22.6146V87.9968C4.18829 94.5398 9.59118 99.865 16.2296 99.865H96.7704C103.409 99.865 108.812 94.5398 108.812 87.9968V22.6146C108.812 16.0715 103.409 10.7463 96.7704 10.7463H86.8651V6.61818H96.7704C105.719 6.61818 113 13.7942 113 22.6146V87.9968C113 96.824 105.719 104 96.7704 104Z" fill="#DC0000"/>
<path d="M110.151 25.5273H1.89916V27.4182H110.151V25.5273Z" fill="#DC0000"/>
<path d="M45.095 52.6188C45.095 55.9697 43.3802 58.8262 40.5038 60.8038C43.7674 62.8364 45.7588 65.9126 45.7588 69.4284C45.7588 76.0204 39.1762 80.9644 30.2151 80.9644C25.292 80.9644 20.5349 79.5361 17.1606 76.6796L20.4242 69.4833C22.3603 71.5158 25.5686 72.7244 29.1088 72.7244C33.534 72.7244 36.9083 70.7468 36.9083 68.3297C36.9083 66.2972 34.751 64.7041 31.6533 64.7041H27.5599V57.0134H32.2618C34.585 57.0134 36.2445 55.5302 36.2445 53.6076C36.2445 51.3553 33.6447 49.6524 29.7173 49.6524C26.2324 49.6524 23.0241 50.8609 21.088 52.8934L17.8244 45.6971C21.1986 42.8406 25.9558 41.4123 30.6576 41.4123C39.2869 41.4123 45.095 46.1366 45.095 52.6188Z" fill="#DC0000"/>
<path d="M55.5221 68.2484H64.6285V75.6644H66.0805V81.2264L62.7616 81.6384V78.5484H56.6215V81.6384L53.3026 81.2264V75.6644H54.3398C55.0658 74.964 55.5221 73.3984 55.5221 71.4002V68.2484ZM61.3095 75.6644V71.1324H58.7374V71.1942C58.6751 73.2542 58.4677 74.6138 57.9284 75.6644H61.3095Z" fill="#DC0000"/>
<path d="M67.3251 68.2483H70.644V71.9563H74.3778V68.2483H77.6968V78.5483H74.3778V74.8403H70.644V78.5483H67.3251V68.2483Z" fill="#DC0000"/>
<path d="M82.9243 68.2483H89.3755V78.5483H86.0566V75.5613H84.6875L82.7999 78.5483H78.7342L81.3064 75.2317C80.041 74.6755 79.2113 73.4601 79.2113 71.9151C79.2113 69.7796 80.767 68.2483 82.9243 68.2483ZM86.0566 71.0293H83.5466C82.9658 71.0293 82.5302 71.4001 82.5302 71.9151C82.5302 72.4301 82.9658 72.7803 83.5466 72.7803H86.0566V71.0293Z" fill="#DC0000"/>
<path d="M62.6814 48.6307C61.6973 48.0108 59.7766 48.0048 58.874 49.2025C57.9713 48.0048 56.0506 48.0108 55.0665 48.6307C54.1842 49.1845 54.0416 50.0873 54.1638 50.7374C54.4081 52.0255 55.6841 52.9404 58.874 54.8364C62.0706 52.9404 63.3466 52.0255 63.5841 50.7374C63.7063 50.0813 63.5637 49.1845 62.6814 48.6307Z" fill="#DC0000"/>
<path d="M75.8789 48.6307C74.7967 48.0108 72.6845 48.0048 71.6919 49.2025C70.6992 48.0048 68.587 48.0108 67.5048 48.6307C66.5345 49.1845 66.3778 50.0873 66.5121 50.7374C66.7808 52.0255 68.184 52.9404 71.6919 54.8364C75.2072 52.9404 76.6104 52.0255 76.8716 50.7374C77.0134 50.0813 76.8492 49.1845 75.8789 48.6307Z" fill="#DC0000"/>
<path d="M88.2261 48.6307C87.1435 48.0108 85.0307 48.0048 84.0378 49.2025C83.0449 48.0048 80.9321 48.0108 79.8496 48.6307C78.8791 49.1845 78.7223 50.0873 78.8567 50.7374C79.1254 52.0255 80.529 52.9404 84.0378 54.8364C87.5541 52.9404 88.9577 52.0255 89.219 50.7374C89.3534 50.0813 89.1966 49.1845 88.2261 48.6307Z" fill="#DC0000"/>
<path d="M88.5624 63.3455C88.1785 63.3455 87.8294 62.92 87.8294 62.4C87.8294 61.88 88.1087 61.4545 88.4926 61.4545H88.5624C88.9464 61.4545 89.2605 61.88 89.2605 62.4C89.2605 62.92 88.9533 63.3455 88.5624 63.3455ZM85.0022 63.3455C84.6182 63.3455 84.2692 62.92 84.2692 62.4C84.2692 61.88 84.5484 61.4545 84.9324 61.4545H85.0022C85.3861 61.4545 85.7003 61.88 85.7003 62.4C85.7003 62.92 85.3931 63.3455 85.0022 63.3455ZM81.4419 63.3455H81.3721C80.9882 63.3455 80.674 62.92 80.674 62.4C80.674 61.88 80.9882 61.4545 81.3721 61.4545H81.4419C81.8259 61.4545 82.14 61.88 82.14 62.4C82.14 62.92 81.8328 63.3455 81.4419 63.3455ZM77.8817 63.3455C77.4977 63.3455 77.1487 62.92 77.1487 62.4C77.1487 61.88 77.4279 61.4545 77.8119 61.4545H77.8817C78.2656 61.4545 78.5797 61.88 78.5797 62.4C78.5797 62.92 78.2726 63.3455 77.8817 63.3455ZM74.3214 63.3455H74.2516C73.8676 63.3455 73.5535 62.92 73.5535 62.4C73.5535 61.88 73.8676 61.4545 74.2516 61.4545H74.3214C74.7054 61.4545 75.0195 61.88 75.0195 62.4C75.0195 62.92 74.7123 63.3455 74.3214 63.3455ZM70.7611 63.3455C70.3772 63.3455 70.0282 62.92 70.0282 62.4C70.0282 61.88 70.3074 61.4545 70.6913 61.4545H70.7611C71.1451 61.4545 71.4592 61.88 71.4592 62.4C71.4592 62.92 71.1521 63.3455 70.7611 63.3455ZM67.2009 63.3455C66.8169 63.3455 66.4679 62.92 66.4679 62.4C66.4679 61.88 66.7471 61.4545 67.1311 61.4545H67.2009C67.5848 61.4545 67.899 61.88 67.899 62.4C67.899 62.92 67.5918 63.3455 67.2009 63.3455ZM63.6406 63.3455H63.5708C63.1869 63.3455 62.8727 62.92 62.8727 62.4C62.8727 61.88 63.1869 61.4545 63.5708 61.4545H63.6406C64.0246 61.4545 64.3387 61.88 64.3387 62.4C64.3387 62.92 64.0316 63.3455 63.6406 63.3455ZM60.0804 63.3455C59.6964 63.3455 59.3474 62.92 59.3474 62.4C59.3474 61.88 59.6266 61.4545 60.0106 61.4545H60.0804C60.4643 61.4545 60.7785 61.88 60.7785 62.4C60.7785 62.92 60.4713 63.3455 60.0804 63.3455ZM56.5201 63.3455H56.4503C56.0664 63.3455 55.7522 62.92 55.7522 62.4C55.7522 61.88 56.0664 61.4545 56.4503 61.4545H56.5201C56.9041 61.4545 57.2182 61.88 57.2182 62.4C57.2182 62.92 56.9111 63.3455 56.5201 63.3455ZM52.9599 63.3455C52.5759 63.3455 52.2269 62.92 52.2269 62.4C52.2269 61.88 52.5061 61.4545 52.8901 61.4545H52.9599C53.3438 61.4545 53.658 61.88 53.658 62.4C53.658 62.92 53.3508 63.3455 52.9599 63.3455Z" fill="#DC0000"/>
</svg>
