<svg width="104" height="129" viewBox="0 0 104 129" fill="none" xmlns="http://www.w3.org/2000/svg">
<path d="M52 129L50.5479 127.496C47.0349 123.852 40.3366 120.552 33.2503 117.067C18.4352 109.773 0 100.696 0 82.5878V17.8692H2.00746C9.45515 17.8692 20.2152 15.7887 30.7811 12.2971C40.7515 9.00416 48.4267 5.10832 50.3472 2.3587L52 0L53.6528 2.3587C55.5733 5.10169 63.2485 9.00416 73.2189 12.2971C83.7848 15.7887 94.5382 17.8692 101.993 17.8692H104V82.5878C104 100.696 85.5648 109.773 70.7497 117.067C63.6634 120.559 56.9718 123.852 53.4521 127.496L52 129ZM4.01493 21.8048V82.5878C4.01493 98.2308 20.4962 106.347 35.0369 113.509C41.6147 116.749 47.878 119.83 51.9933 123.388C56.1153 119.83 62.3719 116.749 68.9564 113.509C83.4971 106.347 99.9784 98.2308 99.9784 82.5878V21.8048C84.1529 21.1555 59.7354 13.218 51.9933 6.40693C44.2579 13.2114 19.8471 21.1555 4.01493 21.8048Z" fill="#DC0000"/>
<path d="M52.0001 119.638C51.7525 119.638 51.4982 119.545 51.3042 119.36C51.2841 119.34 51.264 119.32 51.244 119.3L51.1837 119.241C50.8023 118.843 50.8157 118.214 51.2105 117.836C51.5049 117.558 51.9198 117.491 52.2745 117.631C52.4418 117.67 52.6024 117.75 52.7362 117.882C53.1377 118.26 53.151 118.889 52.7629 119.287L52.7161 119.333C52.522 119.532 52.2611 119.638 52.0001 119.638ZM54.5697 117.419C54.2618 117.419 53.9607 117.279 53.76 117.014C53.4321 116.57 53.5258 115.954 53.9674 115.623L54.563 116.425L54.0143 115.59C54.4626 115.259 55.0849 115.351 55.4195 115.789C55.7541 116.226 55.6604 116.849 55.2187 117.18C55.2187 117.18 55.1652 117.22 55.1585 117.22C54.9845 117.359 54.7771 117.419 54.5697 117.419ZM49.3837 117.385C49.1763 117.385 48.9621 117.319 48.7815 117.187C48.3398 116.855 48.2194 116.219 48.554 115.775C48.8819 115.338 49.4841 115.225 49.9324 115.55C49.9324 115.55 49.986 115.59 49.9926 115.59C50.4343 115.921 50.528 116.544 50.1934 116.981C49.9859 117.246 49.6848 117.385 49.3837 117.385ZM46.5465 115.497C46.3658 115.497 46.1852 115.451 46.0179 115.345C45.5495 115.053 45.3755 114.424 45.6632 113.96C45.9576 113.496 46.5465 113.331 47.0149 113.622L47.0684 113.655C47.5368 113.947 47.6841 114.556 47.3896 115.027C47.209 115.331 46.8811 115.497 46.5465 115.497ZM57.4336 115.497C57.0924 115.497 56.7645 115.338 56.5771 115.04C56.2827 114.576 56.4031 113.98 56.8716 113.688L56.9251 113.655C57.3935 113.364 58.0158 113.509 58.3102 113.973C58.6047 114.437 58.4574 115.053 57.989 115.345C57.8151 115.451 57.621 115.497 57.4336 115.497ZM60.3578 113.841C59.9965 113.841 59.6552 113.649 59.4746 113.317C59.2136 112.834 59.4009 112.231 59.8894 111.972L59.9229 111.952C60.4047 111.681 61.0203 111.846 61.288 112.33C61.5623 112.807 61.395 113.417 60.9066 113.682L60.8263 113.728C60.679 113.801 60.5184 113.841 60.3578 113.841ZM43.5888 113.808C43.4215 113.808 43.2543 113.768 43.0937 113.675C42.6052 113.417 42.3977 112.807 42.6587 112.323C42.9197 111.84 43.5085 111.648 43.997 111.906L44.0773 111.952C44.5591 112.224 44.7264 112.827 44.4587 113.304C44.278 113.629 43.9368 113.808 43.5888 113.808ZM63.3958 112.244C63.0345 112.244 62.6865 112.058 62.5058 111.721C62.2449 111.237 62.4188 110.641 62.9073 110.382L63.001 110.336C63.5029 110.097 64.0984 110.303 64.3393 110.8C64.5802 111.297 64.3728 111.886 63.8709 112.125C63.7237 112.211 63.5564 112.244 63.3958 112.244ZM40.5643 112.231C40.417 112.231 40.2698 112.198 40.1293 112.131L40.0356 112.085C39.5471 111.827 39.3598 111.224 39.6208 110.74C39.8817 110.256 40.4906 110.071 40.9791 110.329L40.504 111.204L40.9992 110.342C41.4944 110.588 41.7018 111.184 41.4609 111.674C41.2869 112.025 40.9323 112.231 40.5643 112.231ZM66.4271 110.733C66.0524 110.733 65.6977 110.528 65.5237 110.17C65.2828 109.673 65.4903 109.084 65.9921 108.845L66.4271 109.74L66.0189 108.832C66.5141 108.58 67.1163 108.766 67.3706 109.249C67.6249 109.733 67.4442 110.329 66.9624 110.588L66.8687 110.634C66.7215 110.7 66.5743 110.733 66.4271 110.733ZM37.5129 110.707C37.3523 110.707 37.1917 110.667 37.0378 110.588C36.5359 110.349 36.3151 109.746 36.556 109.256C36.7969 108.759 37.3858 108.547 37.8876 108.785L37.9813 108.832C38.4698 109.09 38.6572 109.693 38.3962 110.177C38.2222 110.515 37.8743 110.707 37.5129 110.707ZM69.4918 109.223C69.1171 109.223 68.7624 109.017 68.5884 108.66C68.3475 108.163 68.555 107.573 69.0569 107.334L69.4918 108.229L69.0836 107.321C69.5721 107.069 70.181 107.255 70.4353 107.739C70.6896 108.222 70.5089 108.819 70.0271 109.077L69.9334 109.123C69.7862 109.196 69.639 109.223 69.4918 109.223ZM34.4549 109.203C34.2943 109.203 34.1337 109.163 33.9798 109.084C33.4779 108.845 33.2571 108.242 33.498 107.752C33.7389 107.255 34.3277 107.043 34.8296 107.281L34.9233 107.328C35.4118 107.586 35.5991 108.189 35.3382 108.673C35.1642 109.011 34.8162 109.203 34.4549 109.203ZM72.5565 107.686C72.1952 107.686 71.8472 107.5 71.6665 107.162C71.4056 106.678 71.5796 106.082 72.0681 105.824L72.1617 105.777C72.6636 105.539 73.2592 105.744 73.5001 106.241C73.741 106.738 73.5335 107.328 73.0316 107.566C72.8844 107.652 72.7171 107.686 72.5565 107.686ZM31.4035 107.672C31.2563 107.672 31.1091 107.639 30.9686 107.573L30.8749 107.527C30.3864 107.268 30.199 106.665 30.46 106.182C30.721 105.698 31.3299 105.512 31.8184 105.771L31.3433 106.645L31.8385 105.784C32.3336 106.029 32.5411 106.625 32.3002 107.116C32.1329 107.467 31.7716 107.672 31.4035 107.672ZM75.561 106.122C75.1997 106.122 74.8584 105.93 74.6777 105.599C74.4168 105.115 74.6041 104.512 75.0926 104.254L75.1261 104.234C75.6079 103.962 76.2235 104.128 76.4912 104.611C76.7655 105.088 76.5982 105.698 76.1097 105.963L76.0295 106.009C75.8822 106.082 75.7216 106.122 75.561 106.122ZM28.3789 106.089C28.2116 106.089 28.0444 106.049 27.8838 105.956C27.3953 105.698 27.1879 105.088 27.4488 104.605C27.7098 104.121 28.2986 103.929 28.7871 104.187L28.8674 104.234C29.3492 104.505 29.5165 105.108 29.2489 105.585C29.0682 105.91 28.7336 106.089 28.3789 106.089ZM78.5388 104.466C78.1975 104.466 77.8562 104.293 77.6756 103.975C77.3945 103.505 77.5551 102.895 78.0369 102.617L78.5455 103.472L78.0837 102.584C78.5588 102.299 79.1745 102.451 79.4622 102.922C79.7499 103.392 79.596 104.002 79.1209 104.287C79.1209 104.287 79.0607 104.326 79.054 104.326C78.8867 104.419 78.7128 104.466 78.5388 104.466ZM25.4079 104.432C25.2339 104.432 25.0532 104.386 24.8926 104.293C24.4175 104.015 24.2369 103.386 24.5179 102.915C24.799 102.445 25.3811 102.272 25.8629 102.551C25.8629 102.551 25.9231 102.591 25.9298 102.591C26.4049 102.875 26.5588 103.485 26.2711 103.955C26.077 104.26 25.7492 104.432 25.4079 104.432ZM81.4764 102.67C81.1485 102.67 80.8206 102.518 80.6332 102.233C80.3321 101.776 80.4325 101.173 80.9009 100.874L80.9611 100.835C81.4295 100.537 82.0518 100.669 82.3463 101.133C82.6474 101.597 82.5136 102.206 82.0452 102.504C81.8779 102.61 81.6771 102.67 81.4764 102.67ZM22.4971 102.663C22.3097 102.663 22.1224 102.61 21.9551 102.504L21.8948 102.465C21.4331 102.166 21.2993 101.55 21.6071 101.086C21.9149 100.629 22.5305 100.503 22.9989 100.802L23.0458 100.835C23.5142 101.133 23.648 101.749 23.3469 102.206C23.1528 102.504 22.825 102.663 22.4971 102.663ZM84.2667 100.782C83.9522 100.782 83.6444 100.636 83.4504 100.364C83.1292 99.9204 83.2296 99.2976 83.6846 98.9796L84.2667 99.7879L83.7047 98.9597C84.1463 98.6284 84.7753 98.7079 85.1099 99.1452C85.4444 99.5759 85.3708 100.192 84.9359 100.53L84.8489 100.596C84.6749 100.722 84.4675 100.782 84.2667 100.782ZM19.6799 100.749C19.4725 100.749 19.2584 100.682 19.0777 100.55C18.6361 100.219 18.5156 99.5825 18.8502 99.1386C19.1781 98.7013 19.7803 98.5887 20.2286 98.9133C20.2286 98.9133 20.2822 98.9531 20.2889 98.9531C20.7305 99.2843 20.8242 99.9071 20.4896 100.344C20.2889 100.609 19.9877 100.749 19.6799 100.749ZM86.9434 98.6814C86.6556 98.6814 86.3746 98.5621 86.1738 98.3303C85.8125 97.9128 85.866 97.2834 86.2943 96.9323L86.3277 96.9058C86.7426 96.5414 87.3783 96.5811 87.7463 96.9919C88.1144 97.4027 88.0742 98.0321 87.6593 98.3965L87.5924 98.4561C87.3984 98.6085 87.1709 98.6814 86.9434 98.6814ZM17.01 98.6483C16.7691 98.6483 16.5215 98.5622 16.3275 98.3833C15.926 98.0189 15.8657 97.3762 16.2271 96.972C16.5884 96.5679 17.184 96.5016 17.6056 96.8461C17.6189 96.8528 17.6792 96.9058 17.6859 96.919C18.094 97.29 18.1208 97.9195 17.7461 98.3236C17.552 98.5357 17.2777 98.6483 17.01 98.6483ZM89.4259 96.3691C89.1783 96.3691 88.924 96.2763 88.73 96.0908C88.3285 95.7132 88.3151 95.0837 88.7032 94.6862L88.7501 94.6398C89.1315 94.2423 89.7672 94.229 90.1687 94.6133C90.5702 94.991 90.5836 95.6204 90.1954 96.0179L90.1486 96.0643C89.9479 96.2631 89.6869 96.3691 89.4259 96.3691ZM14.5341 96.3227C14.2732 96.3227 14.0055 96.2233 13.8114 96.0179C13.43 95.6204 13.4167 94.9711 13.8181 94.5868C14.2196 94.2091 14.8286 94.1959 15.2167 94.5934L15.2635 94.6398C15.6449 95.0374 15.6316 95.6668 15.2368 96.0444C15.0293 96.23 14.7817 96.3227 14.5341 96.3227ZM91.6341 93.7984C91.42 93.7984 91.1992 93.7321 91.0185 93.5863C90.5836 93.2484 90.5033 92.6256 90.8445 92.195C90.8512 92.1884 90.8847 92.142 90.8847 92.142C91.2259 91.7113 91.8549 91.6318 92.2899 91.9697C92.7249 92.3076 92.8052 92.9304 92.4639 93.3611L92.4237 93.4141C92.2297 93.6659 91.9286 93.7984 91.6341 93.7984ZM12.3326 93.752C12.0248 93.752 11.7237 93.6129 11.5296 93.3545C11.5296 93.3545 11.4895 93.3015 11.4895 93.2948C11.1616 92.8509 11.2553 92.2347 11.6969 91.9035C12.1386 91.5722 12.7676 91.6716 13.1021 92.1088L12.2925 92.6985L13.1356 92.1552C13.4702 92.5925 13.3765 93.2153 12.9349 93.5466C12.7475 93.6857 12.5401 93.752 12.3326 93.752ZM93.4676 90.9361C93.3137 90.9361 93.1531 90.903 93.0059 90.8235C92.5174 90.5651 92.3234 89.982 92.5843 89.4984L92.6312 89.4189C92.9055 88.9418 93.5211 88.7762 93.9962 89.0412C94.478 89.3129 94.6453 89.9158 94.3777 90.3928C94.1903 90.7374 93.829 90.9361 93.4676 90.9361ZM10.4991 90.9096C10.1378 90.9096 9.79652 90.7175 9.61585 90.3862C9.35488 89.9025 9.52216 89.2731 10.0106 89.0147C10.4991 88.7563 11.0947 88.9087 11.3557 89.3924L11.3891 89.452C11.6501 89.9357 11.4627 90.5386 10.9742 90.797C10.8203 90.8699 10.6597 90.9096 10.4991 90.9096ZM94.826 87.8751C94.7189 87.8751 94.6052 87.8552 94.4981 87.8221C93.9762 87.6432 93.6951 87.08 93.8758 86.5566L93.8959 86.5036C94.0699 85.9802 94.6386 85.7019 95.1673 85.8742C95.6959 86.0464 95.977 86.6096 95.803 87.133L95.7762 87.2059C95.6357 87.6167 95.2476 87.8751 94.826 87.8751ZM9.14744 87.8221C8.71918 87.8221 8.31769 87.5438 8.19055 87.1132C8.02996 86.5964 8.311 86.0133 8.83294 85.8477C9.35488 85.682 9.90358 85.9272 10.0776 86.4374C10.0843 86.4506 10.1043 86.5235 10.111 86.5367C10.2716 87.0602 9.9705 87.6167 9.44187 87.7757C9.3415 87.8088 9.24112 87.8221 9.14744 87.8221ZM95.6357 84.5756C95.5821 84.5756 95.5353 84.5689 95.4818 84.5623C94.9398 84.4762 94.565 84.0058 94.6453 83.4691C94.6453 83.4558 94.6587 83.383 94.6587 83.3697C94.7591 82.833 95.2743 82.4686 95.823 82.568C96.3651 82.6674 96.7331 83.1842 96.6327 83.7209C96.5524 84.2112 96.1175 84.5756 95.6357 84.5756ZM8.34446 84.5557C7.85597 84.5557 7.42772 84.2045 7.35411 83.7076C7.35411 83.7076 7.34742 83.6414 7.34072 83.6347C7.26043 83.0914 7.64185 82.5879 8.19055 82.5084C8.73926 82.4289 9.24782 82.8065 9.32811 83.3498L8.33776 83.4956L9.34149 83.4095C9.42179 83.9528 9.04707 84.4563 8.49836 84.5424C8.44483 84.5491 8.39799 84.5557 8.34446 84.5557ZM95.89 81.2495C95.3346 81.2495 94.8862 80.8056 94.8862 80.2557V80.1894C94.8862 79.6395 95.3346 79.1956 95.89 79.1956C96.4454 79.1956 96.8937 79.6395 96.8937 80.1894V80.2557C96.8937 80.8056 96.4387 81.2495 95.89 81.2495ZM8.11025 81.1965C7.55485 81.1965 7.10652 80.7526 7.10652 80.2027C7.10652 79.6528 7.55485 79.1757 8.11025 79.1757C8.66565 79.1757 9.11398 79.5865 9.11398 80.1364V80.2027C9.11398 80.7526 8.66565 81.1965 8.11025 81.1965ZM95.89 77.8705C95.3346 77.8705 94.8862 77.4266 94.8862 76.8766V76.8104C94.8862 76.2605 95.3346 75.8166 95.89 75.8166C96.4454 75.8166 96.8937 76.2605 96.8937 76.8104V76.8766C96.8937 77.4266 96.4387 77.8705 95.89 77.8705ZM8.11025 77.8175C7.55485 77.8175 7.10652 77.3736 7.10652 76.8236V76.7574C7.10652 76.2075 7.55485 75.7635 8.11025 75.7635C8.66565 75.7635 9.11398 76.2075 9.11398 76.7574V76.8236C9.11398 77.3736 8.66565 77.8175 8.11025 77.8175ZM95.89 74.4914C95.3346 74.4914 94.8862 74.0475 94.8862 73.4976V73.4313C94.8862 72.8814 95.3346 72.4375 95.89 72.4375C96.4454 72.4375 96.8937 72.8814 96.8937 73.4313V73.4976C96.8937 74.0475 96.4387 74.4914 95.89 74.4914ZM8.11025 74.4384C7.55485 74.4384 7.10652 73.9945 7.10652 73.4446V73.3783C7.10652 72.8284 7.55485 72.3845 8.11025 72.3845C8.66565 72.3845 9.11398 72.8284 9.11398 73.3783V73.4446C9.11398 73.9945 8.66565 74.4384 8.11025 74.4384ZM95.89 71.1124C95.3346 71.1124 94.8862 70.6685 94.8862 70.1186V70.0523C94.8862 69.5024 95.3346 69.0585 95.89 69.0585C96.4454 69.0585 96.8937 69.5024 96.8937 70.0523V70.1186C96.8937 70.6685 96.4387 71.1124 95.89 71.1124ZM8.11025 71.0594C7.55485 71.0594 7.10652 70.6155 7.10652 70.0655V69.9993C7.10652 69.4494 7.55485 69.0055 8.11025 69.0055C8.66565 69.0055 9.11398 69.4494 9.11398 69.9993V70.0655C9.11398 70.6155 8.66565 71.0594 8.11025 71.0594ZM95.89 67.7002C95.3346 67.7002 94.8862 67.2894 94.8862 66.7395V66.6732C94.8862 66.1233 95.3346 65.6794 95.89 65.6794C96.4454 65.6794 96.8937 66.1233 96.8937 66.6732C96.8937 67.2232 96.4387 67.7002 95.89 67.7002ZM8.11025 67.6804C7.55485 67.6804 7.10652 67.2364 7.10652 66.6865V66.6202C7.10652 66.0703 7.55485 65.6264 8.11025 65.6264C8.66565 65.6264 9.11398 66.0703 9.11398 66.6202V66.6865C9.11398 67.2364 8.66565 67.6804 8.11025 67.6804ZM95.89 64.3543C95.3346 64.3543 94.8862 63.9104 94.8862 63.3605V63.2942C94.8862 62.7443 95.3346 62.3004 95.89 62.3004C96.4454 62.3004 96.8937 62.7443 96.8937 63.2942V63.3605C96.8937 63.9104 96.4387 64.3543 95.89 64.3543ZM8.11025 64.3013C7.55485 64.3013 7.10652 63.8574 7.10652 63.3075C7.10652 62.7575 7.55485 62.2805 8.11025 62.2805C8.66565 62.2805 9.11398 62.6913 9.11398 63.2412V63.3075C9.11398 63.8574 8.66565 64.3013 8.11025 64.3013ZM95.89 60.9752C95.3346 60.9752 94.8862 60.5313 94.8862 59.9814V59.9152C94.8862 59.3652 95.3346 58.9213 95.89 58.9213C96.4454 58.9213 96.8937 59.3652 96.8937 59.9152V59.9814C96.8937 60.5313 96.4387 60.9752 95.89 60.9752ZM8.11025 60.9222C7.55485 60.9222 7.10652 60.4783 7.10652 59.9284V59.8622C7.10652 59.3122 7.55485 58.8683 8.11025 58.8683C8.66565 58.8683 9.11398 59.3122 9.11398 59.8622V59.9284C9.11398 60.4783 8.66565 60.9222 8.11025 60.9222ZM95.89 57.5962C95.3346 57.5962 94.8862 57.1523 94.8862 56.6024V56.5361C94.8862 55.9862 95.3346 55.5423 95.89 55.5423C96.4454 55.5423 96.8937 55.9862 96.8937 56.5361V56.6024C96.8937 57.1523 96.4387 57.5962 95.89 57.5962ZM8.11025 57.5432C7.55485 57.5432 7.10652 57.0993 7.10652 56.5494V56.4831C7.10652 55.9332 7.55485 55.4893 8.11025 55.4893C8.66565 55.4893 9.11398 55.9332 9.11398 56.4831V56.5494C9.11398 57.0993 8.66565 57.5432 8.11025 57.5432ZM95.89 54.2172C95.3346 54.2172 94.8862 53.7733 94.8862 53.2233V53.1571C94.8862 52.6071 95.3346 52.1632 95.89 52.1632C96.4454 52.1632 96.8937 52.6071 96.8937 53.1571V53.2233C96.8937 53.7733 96.4387 54.2172 95.89 54.2172ZM8.11025 54.1642C7.55485 54.1642 7.10652 53.7202 7.10652 53.1703V53.1041C7.10652 52.5541 7.55485 52.1102 8.11025 52.1102C8.66565 52.1102 9.11398 52.5541 9.11398 53.1041V53.1703C9.11398 53.7202 8.66565 54.1642 8.11025 54.1642ZM95.89 50.8381C95.3346 50.8381 94.8862 50.3942 94.8862 49.8443V49.778C94.8862 49.2281 95.3346 48.7842 95.89 48.7842C96.4454 48.7842 96.8937 49.2281 96.8937 49.778V49.8443C96.8937 50.3942 96.4387 50.8381 95.89 50.8381ZM8.11025 50.7851C7.55485 50.7851 7.10652 50.3412 7.10652 49.7913V49.725C7.10652 49.1751 7.55485 48.7312 8.11025 48.7312C8.66565 48.7312 9.11398 49.1751 9.11398 49.725V49.7913C9.11398 50.3412 8.66565 50.7851 8.11025 50.7851ZM95.89 47.4259C95.3346 47.4259 94.8862 47.0152 94.8862 46.4652V46.399C94.8862 45.849 95.3346 45.4051 95.89 45.4051C96.4454 45.4051 96.8937 45.849 96.8937 46.399C96.8937 46.9489 96.4387 47.4259 95.89 47.4259ZM8.11025 47.4061C7.55485 47.4061 7.10652 46.9622 7.10652 46.4122C7.10652 45.8623 7.55485 45.3853 8.11025 45.3853C8.66565 45.3853 9.11398 45.7961 9.11398 46.346V46.4122C9.11398 46.9622 8.66565 47.4061 8.11025 47.4061ZM95.89 44.08C95.3346 44.08 94.8862 43.6361 94.8862 43.0862V43.0199C94.8862 42.47 95.3346 42.0261 95.89 42.0261C96.4454 42.0261 96.8937 42.47 96.8937 43.0199V43.0862C96.8937 43.6361 96.4387 44.08 95.89 44.08ZM8.11025 44.027C7.55485 44.027 7.10652 43.5831 7.10652 43.0332V42.9669C7.10652 42.417 7.55485 41.9731 8.11025 41.9731C8.66565 41.9731 9.11398 42.417 9.11398 42.9669V43.0332C9.11398 43.5831 8.66565 44.027 8.11025 44.027ZM95.89 40.701C95.3346 40.701 94.8862 40.2571 94.8862 39.7071V39.6409C94.8862 39.091 95.3346 38.6471 95.89 38.6471C96.4454 38.6471 96.8937 39.091 96.8937 39.6409V39.7071C96.8937 40.2571 96.4387 40.701 95.89 40.701ZM8.11025 40.648C7.55485 40.648 7.10652 40.2041 7.10652 39.6541V39.5879C7.10652 39.038 7.55485 38.5941 8.11025 38.5941C8.66565 38.5941 9.11398 39.038 9.11398 39.5879V39.6541C9.11398 40.2041 8.66565 40.648 8.11025 40.648ZM95.89 37.3219C95.3346 37.3219 94.8862 36.878 94.8862 36.3281V36.2618C94.8862 35.7119 95.3346 35.268 95.89 35.268C96.4454 35.268 96.8937 35.7119 96.8937 36.2618V36.3281C96.8937 36.878 96.4387 37.3219 95.89 37.3219ZM8.11025 37.2689C7.55485 37.2689 7.10652 36.825 7.10652 36.2751V36.2088C7.10652 35.6589 7.55485 35.215 8.11025 35.215C8.66565 35.215 9.11398 35.6589 9.11398 36.2088V36.2751C9.11398 36.825 8.66565 37.2689 8.11025 37.2689ZM95.89 33.9098C95.3346 33.9098 94.8862 33.499 94.8862 32.9491V32.8828C94.8862 32.3329 95.3346 31.889 95.89 31.889C96.4454 31.889 96.8937 32.3329 96.8937 32.8828C96.8937 33.4327 96.4387 33.9098 95.89 33.9098ZM8.11025 33.8899C7.55485 33.8899 7.10652 33.446 7.10652 32.8961V32.8298C7.10652 32.2799 7.55485 31.836 8.11025 31.836C8.66565 31.836 9.11398 32.2799 9.11398 32.8298V32.8961C9.11398 33.446 8.66565 33.8899 8.11025 33.8899ZM95.89 30.5639C95.3346 30.5639 94.8862 30.1199 94.8862 29.57V29.5038C94.8862 28.9538 95.3346 28.5099 95.89 28.5099C96.4454 28.5099 96.8937 28.9538 96.8937 29.5038V29.57C96.8937 30.1199 96.4387 30.5639 95.89 30.5639ZM8.11025 30.5109C7.55485 30.5109 7.10652 30.0669 7.10652 29.517C7.10652 28.9671 7.55485 28.49 8.11025 28.49C8.66565 28.49 9.11398 28.9008 9.11398 29.4508V29.517C9.11398 30.0669 8.66565 30.5109 8.11025 30.5109ZM95.89 27.1848C95.3346 27.1848 94.8862 26.7409 94.8862 26.191V26.1247C94.8862 25.5748 95.3346 25.1309 95.89 25.1309C96.4454 25.1309 96.8937 25.5748 96.8937 26.1247V26.191C96.8937 26.7409 96.4387 27.1848 95.89 27.1848ZM8.11025 27.1318C7.55485 27.1318 7.10652 26.6879 7.10652 26.138V26.0717C7.10652 25.5218 7.55485 25.0779 8.11025 25.0779C8.66565 25.0779 9.11398 25.5218 9.11398 26.0717V26.138C9.11398 26.6879 8.66565 27.1318 8.11025 27.1318ZM93.3338 26.2572C93.3137 26.2572 93.2936 26.2572 93.2736 26.2572L93.2066 26.2506C92.6512 26.2175 92.2297 25.7471 92.2631 25.1971C92.2966 24.6472 92.7516 24.2298 93.3204 24.2629C93.8758 24.2961 94.3308 24.7665 94.2974 25.3164C94.2706 25.8464 93.8557 26.2572 93.3338 26.2572ZM10.72 26.2572C10.198 26.2572 9.75637 25.8597 9.72291 25.3363C9.68277 24.7864 10.0976 24.3159 10.653 24.2696C10.6597 24.2696 10.7266 24.2629 10.7333 24.2629C11.2687 24.2298 11.7638 24.6472 11.7906 25.1971C11.8241 25.7471 11.4025 26.2175 10.8471 26.2506L10.7869 25.2568L10.7936 26.2506C10.7668 26.2506 10.74 26.2572 10.72 26.2572ZM89.9345 25.9524C89.8943 25.9524 89.8542 25.9525 89.814 25.9458L89.7471 25.9392C89.1984 25.8729 88.8036 25.3826 88.8705 24.8327C88.9374 24.2894 89.4326 23.8985 89.9813 23.9648L90.0482 23.9714C90.5969 24.0377 90.9917 24.5279 90.9248 25.0779C90.8713 25.5748 90.4364 25.9524 89.9345 25.9524ZM14.1193 25.9458C13.6241 25.9458 13.1958 25.5814 13.1222 25.0845C13.0486 24.5412 13.4367 24.0377 13.9854 23.9714L14.0657 23.9582C14.6077 23.8919 15.1163 24.2828 15.1765 24.8261C15.2434 25.3694 14.8486 25.8663 14.2999 25.9326L14.2464 25.9392C14.2062 25.9392 14.1594 25.9458 14.1193 25.9458ZM86.5486 25.4688C86.495 25.4688 86.4415 25.4622 86.388 25.4555C86.388 25.4555 86.321 25.4423 86.3144 25.4423C85.7656 25.3495 85.3976 24.8394 85.4913 24.2961C85.585 23.7528 86.0935 23.3884 86.6489 23.4811C87.1976 23.5739 87.5991 24.084 87.5055 24.6273C87.4252 25.1176 87.0237 25.4688 86.5486 25.4688ZM17.4985 25.4622C17.0234 25.4622 16.6018 25.1243 16.5148 24.6472C16.4145 24.1039 16.7758 23.5871 17.3245 23.4944L17.4115 23.4811C17.9535 23.395 18.4755 23.7594 18.5625 24.3027C18.6494 24.846 18.2814 25.3561 17.7327 25.4423L17.6859 25.4489C17.6189 25.4555 17.5587 25.4622 17.4985 25.4622ZM83.1894 24.8526C83.1225 24.8526 83.0489 24.846 82.982 24.8327L83.1894 23.8588L82.9351 24.8195C82.3931 24.7135 82.0318 24.1967 82.1388 23.66C82.2459 23.1233 82.7745 22.7656 83.3098 22.8716C83.3165 22.8716 83.3901 22.8848 83.3968 22.8914C83.9388 23.0041 84.2868 23.5341 84.1731 24.0708C84.0727 24.5346 83.6578 24.8526 83.1894 24.8526ZM20.8576 24.8394C20.3825 24.8394 19.9677 24.5081 19.874 24.031C19.7669 23.4944 20.1283 22.9709 20.6703 22.8716C21.1989 22.7656 21.7677 23.1101 21.8748 23.6467C21.9818 24.1834 21.6673 24.6936 21.132 24.8062C21.1253 24.8062 21.0517 24.8195 21.045 24.8261C20.9848 24.8394 20.9179 24.8394 20.8576 24.8394ZM79.857 24.1238C79.7767 24.1238 79.6964 24.1172 79.6228 24.0973L79.857 23.13L79.5693 24.084C79.0273 23.9648 78.6927 23.4281 78.8131 22.8914C78.9336 22.3548 79.4756 22.0169 80.0109 22.1427C80.0176 22.1427 80.0845 22.1626 80.0912 22.1626C80.6265 22.2951 80.9611 22.8318 80.8273 23.3618C80.7202 23.819 80.3054 24.1238 79.857 24.1238ZM24.19 24.1105C23.735 24.1105 23.3201 23.7991 23.2131 23.342C23.0859 22.8053 23.4205 22.2753 23.9625 22.1494C24.5045 22.0169 25.0733 22.3415 25.2072 22.8716C25.341 23.4016 25.0332 23.9383 24.4978 24.0642L24.4242 24.084C24.3439 24.0973 24.2703 24.1105 24.19 24.1105ZM76.5447 23.289C76.4577 23.289 76.3707 23.2757 76.277 23.2558L76.2101 23.236C75.6748 23.0902 75.3603 22.5469 75.5075 22.0169C75.6547 21.4868 76.2101 21.1754 76.7388 21.3212L76.8057 21.341C77.341 21.4868 77.6555 22.0301 77.5083 22.5602C77.3878 22.9974 76.9863 23.289 76.5447 23.289ZM27.5023 23.2757C27.0607 23.2757 26.6592 22.9842 26.5321 22.5403C26.3849 22.0102 26.6994 21.4669 27.2347 21.3212L27.3016 21.3013C27.8369 21.1555 28.3856 21.4669 28.5329 21.997C28.6801 22.527 28.3656 23.0703 27.8302 23.2161L27.7633 23.236C27.683 23.2625 27.5893 23.2757 27.5023 23.2757ZM73.2591 22.3548C73.1655 22.3548 73.0651 22.3415 72.9647 22.315L73.2524 21.3609L72.9045 22.2951C72.3759 22.1361 72.068 21.5862 72.2286 21.0628C72.3892 20.5393 72.9446 20.2346 73.4733 20.3936L73.5402 20.4135C74.0688 20.5725 74.3699 21.129 74.2094 21.6524C74.0889 22.0831 73.6874 22.3548 73.2591 22.3548ZM30.7879 22.3415C30.3529 22.3415 29.9581 22.0632 29.8243 21.6326C29.6637 21.1091 29.9715 20.5526 30.5002 20.4002C31.0288 20.2412 31.6177 20.5327 31.7783 21.0561C31.9389 21.5796 31.6712 22.1229 31.1425 22.2819L31.0756 22.3018C30.9819 22.3283 30.8816 22.3415 30.7879 22.3415ZM70.0004 21.3344C69.8933 21.3344 69.7795 21.3145 69.6725 21.2814L70.0004 20.3406L69.6323 21.2682C69.1037 21.1025 68.8093 20.546 68.9833 20.0226C69.1505 19.4991 69.7126 19.2076 70.2413 19.3799C70.2479 19.3799 70.3215 19.4064 70.3282 19.4064C70.8502 19.5853 71.1312 20.1484 70.9506 20.6719C70.81 21.076 70.4219 21.3344 70.0004 21.3344ZM34.0467 21.3145C33.6184 21.3145 33.2236 21.0429 33.0898 20.6189C32.9225 20.0954 33.2169 19.5389 33.7389 19.3733C34.2675 19.2076 34.8564 19.4793 35.0303 19.9961C35.2043 20.5128 34.9567 21.0628 34.4348 21.235C34.4281 21.235 34.3545 21.2615 34.3478 21.2615C34.2474 21.3013 34.1471 21.3145 34.0467 21.3145ZM66.7817 20.2147C66.668 20.2147 66.5475 20.1948 66.4271 20.1484L66.7817 19.2209L66.3802 20.1352C65.8583 19.9497 65.5906 19.3799 65.778 18.8631C65.9654 18.3463 66.5408 18.0813 67.0628 18.2668C67.0695 18.2668 67.1364 18.2933 67.1364 18.2933C67.6583 18.4854 67.9193 19.0618 67.7252 19.572C67.5713 19.9629 67.1832 20.2147 66.7817 20.2147ZM37.2653 20.1948C36.8504 20.1948 36.469 19.9431 36.3218 19.5389C36.1344 19.0221 36.4021 18.4523 36.9241 18.2668C37.4393 18.0813 38.0482 18.333 38.2356 18.8498C38.423 19.36 38.1955 19.9165 37.6802 20.1087C37.6735 20.1087 37.6066 20.1352 37.6066 20.1352C37.4928 20.1749 37.3791 20.1948 37.2653 20.1948ZM63.5832 18.9823C63.4627 18.9823 63.3356 18.9625 63.2151 18.9095L63.1415 18.883C62.633 18.6709 62.3921 18.0879 62.6062 17.5843C62.8203 17.0808 63.4092 16.8423 63.9178 17.0543C64.433 17.2597 64.7073 17.8494 64.4932 18.3595C64.3393 18.7372 63.978 18.9823 63.5832 18.9823ZM40.4505 18.9625C40.0557 18.9625 39.6877 18.7306 39.5271 18.3529C39.3129 17.8494 39.5538 17.2663 40.0624 17.0543L40.136 17.0278C40.6512 16.8224 41.2334 17.0676 41.4408 17.5777C41.6483 18.0879 41.4007 18.6643 40.8854 18.8697L40.8319 18.8896C40.7115 18.936 40.5776 18.9625 40.4505 18.9625ZM60.4716 17.6241C60.3311 17.6241 60.1839 17.591 60.05 17.5313L59.9898 17.5048C59.488 17.2729 59.2738 16.6833 59.508 16.1863C59.7422 15.6894 60.3378 15.4708 60.8396 15.7093L60.8999 15.7358C61.4017 15.9677 61.6159 16.5574 61.3817 17.0543C61.2077 17.4055 60.8463 17.6241 60.4716 17.6241ZM43.5755 17.5976C43.2007 17.5976 42.8394 17.3856 42.6654 17.0278C42.4312 16.5309 42.6453 15.9412 43.1472 15.7093L43.2074 15.6828C43.7093 15.4509 44.3048 15.6629 44.539 16.1598C44.7732 16.6568 44.5591 17.2464 44.0572 17.4783L43.997 17.5048C43.8632 17.5711 43.716 17.5976 43.5755 17.5976ZM57.4203 16.0936C57.253 16.0936 57.0924 16.0538 56.9385 15.9677L56.8782 15.9346C56.3897 15.6696 56.2158 15.0666 56.4834 14.583C56.7511 14.0993 57.36 13.927 57.8485 14.192L57.9087 14.2252C58.3972 14.4902 58.5712 15.0931 58.3035 15.5768C58.1162 15.9081 57.7749 16.0936 57.4203 16.0936ZM46.6201 16.0671C46.2721 16.0671 45.9309 15.8882 45.7502 15.5635C45.4759 15.0865 45.6431 14.477 46.1249 14.2053C46.1316 14.2053 46.1918 14.1656 46.1985 14.1656C46.687 13.9005 47.2959 14.0794 47.5636 14.5565C47.8313 15.0401 47.6506 15.643 47.1688 15.9081L46.687 15.0401L47.1287 15.9346C46.9614 16.0273 46.7874 16.0671 46.6201 16.0671ZM54.5228 14.3113C54.3221 14.3113 54.1146 14.2517 53.9407 14.1258L53.8938 14.0927C53.4388 13.7813 53.325 13.1585 53.6462 12.7079C53.9607 12.2574 54.5897 12.1447 55.0448 12.4628L55.1117 12.5092C55.56 12.8272 55.6671 13.45 55.3459 13.8939C55.1384 14.1655 54.8306 14.3113 54.5228 14.3113ZM49.5175 14.2782C49.2097 14.2782 48.9086 14.139 48.7079 13.874C48.38 13.4301 48.4737 12.8073 48.9153 12.4826L48.9822 12.4363C49.4372 12.1182 50.0596 12.2176 50.3807 12.6682C50.7019 13.1121 50.6016 13.7349 50.1465 14.0529L50.1064 14.0794C49.9391 14.2119 49.725 14.2782 49.5175 14.2782ZM52.0001 12.0056C51.7258 12.0056 51.4514 11.893 51.264 11.6611C50.9428 11.3232 50.9027 10.7998 51.1703 10.4155L52.0001 9.18974L52.8366 10.4287C53.1377 10.8793 53.0373 11.5153 52.589 11.8201C52.4083 11.9394 52.2009 12.0056 52.0001 12.0056Z" fill="#DC0000"/>
<path d="M54.0811 92.8044C50.5412 92.8044 47.791 90.4126 47.3962 86.848C47.2825 85.8012 47.5434 85.079 47.7576 84.4893C47.8111 84.3303 47.8713 84.1779 47.9182 84.0123C46.2185 83.734 44.5724 83.2503 42.9932 82.5679C42.5716 82.9721 42.5248 83.3431 42.4378 84.0719C42.3307 84.9597 42.1835 86.1722 41.327 87.5636C40.4705 88.9549 38.8243 89.9753 36.9306 90.3066C34.7893 90.6776 32.6079 90.1211 30.935 88.7959C29.2487 87.4576 28.2651 85.7349 28.0844 83.8135C27.9171 82.0113 28.4993 80.1893 29.7305 78.6787C30.3729 77.8836 31.3097 77.2939 32.3938 76.6049C32.9425 76.2604 33.5246 75.8893 34.0867 75.4785C32.9692 73.9414 32.0726 72.2651 31.4101 70.4762C31.0153 71.0262 30.2926 71.7616 28.7736 72.1591C27.2747 72.55 25.4881 72.1856 23.9892 71.1918C22.3096 70.0721 21.1988 68.303 20.9378 66.3286C20.6836 64.3741 21.1587 62.5321 22.2761 61.1408C23.3401 59.8157 24.926 58.961 26.7461 58.7291C27.616 58.6164 28.3253 58.7291 29.0748 58.855C29.4696 58.9212 29.9112 58.9941 30.4733 59.0471C30.7878 57.4371 31.2897 55.8801 31.9789 54.3959C31.4904 53.8195 31.0956 53.7798 30.2792 53.7003C29.3826 53.6141 28.158 53.4882 26.7394 52.6667C25.3208 51.8451 24.2501 50.2417 23.8821 48.3733C23.4672 46.2663 23.9758 44.0932 25.2873 42.4103C26.6056 40.7141 28.3253 39.707 30.2658 39.4884C32.0726 39.283 33.9328 39.8263 35.4852 41.0123C36.228 41.5754 36.944 42.5096 37.8474 43.689C38.3292 44.3118 38.8444 44.9942 39.3998 45.6568C40.5508 44.875 41.7753 44.2124 43.0601 43.6691C42.6117 43.2318 41.9025 42.4964 41.5277 40.946C41.1664 39.4553 41.5679 37.6929 42.6051 36.2352C43.7694 34.5921 45.5828 33.532 47.5769 33.3133C49.5509 33.1013 51.4044 33.6115 52.7896 34.7445C54.1011 35.8244 54.9376 37.4146 55.1383 39.2167C55.2521 40.257 54.9844 41.0056 54.7703 41.6086C54.7034 41.8007 54.6365 41.9862 54.5762 42.1983C56.2625 42.4368 57.8952 42.8741 59.4744 43.5101C59.702 43.0795 59.809 42.5825 59.9562 41.9133C60.1704 40.9593 60.4313 39.7667 61.2009 38.5144C62.0574 37.1231 63.7035 36.1027 65.5972 35.7714C67.7385 35.4004 69.92 35.957 71.5928 37.2821C74.9118 39.9191 75.4137 44.1727 72.7973 47.406C72.1482 48.201 71.2114 48.7973 70.1274 49.4798C69.6389 49.7912 69.117 50.1224 68.6084 50.4802C69.746 51.971 70.6627 53.5876 71.3519 55.3169C71.8204 54.7604 72.523 54.2369 73.7408 53.9255C75.2397 53.5346 77.0264 53.899 78.5186 54.8929C80.1982 56.0126 81.309 57.7816 81.5699 59.756C81.8242 61.7106 81.3491 63.5525 80.2316 64.9439C79.1677 66.269 77.5818 67.1237 75.7617 67.3556C74.7379 67.4881 73.9817 67.2694 73.3795 67.0905C73.1252 67.0177 72.8575 66.9382 72.543 66.8852C72.2218 68.6674 71.6731 70.3967 70.8969 72.0465C71.2382 72.2983 71.5928 72.3314 72.2285 72.391C73.1252 72.4771 74.3564 72.5964 75.7817 73.418C77.2003 74.2396 78.271 75.8429 78.639 77.718C79.0539 79.8249 78.5454 81.9981 77.2338 83.681C75.9156 85.3771 74.1958 86.3842 72.2553 86.6029C70.4352 86.8017 68.5883 86.265 67.0359 85.079C66.2195 84.4562 65.6039 83.5419 64.8879 82.4818C64.4864 81.8855 64.0582 81.2428 63.5697 80.6332C62.3384 81.4747 61.0202 82.177 59.6417 82.7402C60.1837 83.2172 60.6923 83.9261 60.9867 85.1452C61.3481 86.636 60.9466 88.3984 59.9094 89.856C58.7451 91.4992 56.9317 92.5593 54.9376 92.7779C54.6632 92.7912 54.3688 92.8044 54.0811 92.8044ZM42.6988 78.0095L43.6891 78.5064C45.7568 79.5334 47.9784 80.1363 50.2936 80.2953L52.174 80.4212L52.1673 82.283C52.1606 84.1315 51.7859 85.1585 51.545 85.8343C51.3844 86.2716 51.3844 86.3047 51.3978 86.4174C51.5383 87.716 52.4416 89.0344 54.5294 88.8026C55.687 88.6767 56.3562 87.9611 56.6506 87.5503C57.0722 86.9607 57.1793 86.3644 57.1056 86.0596C57.032 85.7548 56.9651 85.6554 56.9651 85.6554C56.9517 85.6554 56.9116 85.6355 56.8781 85.609C55.2052 84.5423 55.1517 83.0847 55.6201 80.938L55.8677 79.8315L56.9584 79.4738C58.9994 78.8112 60.8797 77.7776 62.5526 76.4127L63.8909 75.3195L65.1757 76.4724C66.5274 77.6782 67.4842 79.1093 68.2538 80.2556C68.7021 80.9247 69.2107 81.6867 69.5051 81.9053C70.2278 82.4553 71.0508 82.7137 71.827 82.6275C72.6568 82.5348 73.433 82.0511 74.0687 81.2295C74.8985 80.1628 74.8315 79.0365 74.7178 78.4534C74.5505 77.612 74.1222 77.0289 73.7743 76.8302C73.1118 76.4459 72.5832 76.3929 71.8538 76.3266C70.4887 76.1941 68.6218 76.0152 66.8619 73.3981L66.1928 72.3976L66.7749 71.3442C67.9259 69.2439 68.6151 66.9845 68.8225 64.6258L68.9697 62.8966L70.7229 62.8104C72.6769 62.711 73.8011 63.0357 74.5371 63.2543C74.9988 63.3868 75.0992 63.4134 75.2732 63.3935C76.0494 63.2941 76.7052 62.9562 77.12 62.446C77.5617 61.8961 77.7357 61.1342 77.6219 60.2463C77.4747 59.1001 76.7386 58.4574 76.3104 58.1725C75.7014 57.7684 75.0925 57.669 74.7914 57.7485C74.5104 57.8214 74.4167 57.8876 74.4167 57.8876C74.4301 57.8876 74.4033 57.934 74.3765 57.9804C73.346 59.7627 71.7936 59.8422 69.6188 59.4049L68.4545 59.173L68.1065 58.0466C67.3571 55.6349 66.0857 53.4485 64.3392 51.5536L63.041 50.1489L64.4061 48.8039C65.5838 47.6445 66.9221 46.7964 67.9995 46.114C68.6887 45.6767 69.4649 45.1864 69.6991 44.9015C70.6694 43.7089 71.0241 41.8868 69.1103 40.3696C68.053 39.5281 66.9088 39.5745 66.3199 39.6739C65.4634 39.8197 64.8678 40.2305 64.6604 40.575C64.2388 41.2574 64.0849 41.9531 63.9109 42.7548C63.6031 44.1462 63.2217 45.8754 61.3481 47.4391L60.3444 48.2805L59.1666 47.7041C57.0253 46.6573 54.7168 46.0742 52.3212 45.9682L50.4342 45.8821L50.4074 44.0137C50.3806 42.0922 50.762 41.0056 51.023 40.2835C51.1836 39.8263 51.197 39.7667 51.1836 39.6474C51.0966 38.8722 50.7687 38.2163 50.2602 37.7989C49.7115 37.3483 48.9487 37.1628 48.052 37.2622C46.8944 37.3881 46.2252 38.1036 45.9308 38.5144C45.5092 39.1041 45.4021 39.707 45.4757 40.0052C45.5962 40.5087 45.7033 40.6147 45.9776 40.8864C46.9813 41.8802 47.5167 42.9006 47.2557 45.1996L47.1152 46.4519L45.9107 46.856C43.9166 47.5252 42.0831 48.5389 40.4638 49.864L39.0385 51.0302L37.747 49.7183C36.5559 48.5124 35.5254 47.1674 34.6956 46.0808C34.0867 45.2858 33.3975 44.3913 33.083 44.1462C32.3603 43.5962 31.5439 43.3378 30.761 43.424C29.9313 43.5167 29.1551 44.0004 28.5194 44.822C27.6896 45.8887 27.7565 47.0151 27.8703 47.5981C28.0376 48.4396 28.4658 49.0226 28.8138 49.2214C29.4829 49.6056 30.0049 49.6587 30.7343 49.7315C32.5544 49.9104 34.3343 50.3146 36.0674 53.21L36.6362 54.164L36.1143 55.1446C35.0971 57.066 34.4614 59.1465 34.2339 61.3197L34.0466 63.1218L32.2131 63.102C30.4064 63.0821 29.2889 62.8966 28.4792 62.764C27.8703 62.6647 27.5892 62.6249 27.3216 62.658C26.5454 62.7574 25.8896 63.0953 25.4747 63.6055C25.0331 64.1554 24.8591 64.9174 24.9728 65.8052C25.12 66.9514 25.8561 67.5941 26.2844 67.879C26.8933 68.2831 27.4956 68.3825 27.8034 68.303C28.0978 68.2235 28.1915 68.1573 28.1915 68.1573C28.2182 68.1241 28.245 68.0711 28.2718 68.0181C29.3892 66.1696 31.0153 66.1497 33.451 66.746L34.5618 67.0177L34.8897 68.1043C35.599 70.4497 36.7834 72.5765 38.4095 74.4184L39.6206 75.7966L38.3359 77.1084C37.1247 78.3474 35.7195 79.2286 34.5953 79.9442C33.9061 80.3748 33.1298 80.8718 32.9023 81.1567C32.3335 81.859 32.0525 82.6739 32.1261 83.4425C32.1997 84.264 32.6748 85.0459 33.4912 85.6885C34.5484 86.53 35.6927 86.4902 36.2815 86.3842C37.1381 86.2385 37.7336 85.8277 37.9411 85.4898C38.3425 84.8405 38.4095 84.3171 38.4964 83.6015C38.6637 82.2168 38.8913 80.3152 41.7887 78.5793L42.6988 78.0095Z" fill="#DC0000"/>
<path d="M53.2778 60.6772C49.8183 60.6772 46.8338 58.0932 46.4457 54.6082C46.3721 53.9125 46.3989 53.2234 46.5327 52.541L50.4674 53.3162C50.4138 53.5944 50.4005 53.886 50.4339 54.1775C50.6079 55.7279 52.0198 56.8542 53.5856 56.682C54.6964 56.5627 55.6399 55.8074 55.9879 54.7606L59.7954 56.0128C58.9522 58.5305 56.6838 60.3459 54.0139 60.6374C53.773 60.6639 53.5254 60.6772 53.2778 60.6772Z" fill="#DC0000"/>
<path d="M50.3003 72.1594L46.5129 70.8475C46.6534 70.45 46.7002 70.0326 46.6534 69.6019C46.4861 68.0515 45.0809 66.9252 43.5017 67.0974C42.6451 67.1902 41.889 67.654 41.4206 68.3629L38.0614 66.1897C39.1923 64.4803 41.0191 63.3673 43.0667 63.1486C46.8474 62.7444 50.2333 65.4477 50.6482 69.1779C50.762 70.1916 50.6415 71.1987 50.3003 72.1594Z" fill="#DC0000"/>
<path d="M54.7032 72.0267C54.295 68.2965 57.0252 64.9307 60.7925 64.5199L61.2275 68.4688C59.6617 68.6411 58.5241 70.039 58.6981 71.5894L54.7032 72.0267Z" fill="#DC0000"/>
</svg>
