<svg width="129" height="129" viewBox="0 0 129 129" fill="none" xmlns="http://www.w3.org/2000/svg">
<path d="M65 129L63.5479 127.496C60.0349 123.852 53.3366 120.552 46.2503 117.067C31.4352 109.773 13 100.696 13 82.5878V17.8692H15.0075C22.4552 17.8692 33.2152 15.7887 43.7811 12.2971C53.7515 9.00416 61.4267 5.10832 63.3472 2.3587L65 0L66.6528 2.3587C68.5733 5.10169 76.2485 9.00416 86.2189 12.2971C96.7848 15.7887 107.538 17.8692 114.993 17.8692H117V82.5878C117 100.696 98.5648 109.773 83.7497 117.067C76.6634 120.559 69.9718 123.852 66.4521 127.496L65 129ZM17.0149 21.8048V82.5878C17.0149 98.2308 33.4962 106.347 48.0369 113.509C54.6147 116.749 60.878 119.83 64.9933 123.388C69.1153 119.83 75.3719 116.749 81.9564 113.509C96.4971 106.347 112.978 98.2308 112.978 82.5878V21.8048C97.1529 21.1555 72.7354 13.218 64.9933 6.40693C57.2579 13.2114 32.8471 21.1555 17.0149 21.8048Z" fill="#DC0000"/>
<path d="M65.0001 119.638C64.7525 119.638 64.4982 119.545 64.3042 119.36C64.2841 119.34 64.264 119.32 64.244 119.3L64.1837 119.241C63.8023 118.843 63.8157 118.214 64.2105 117.836C64.5049 117.558 64.9198 117.491 65.2745 117.631C65.4418 117.67 65.6024 117.75 65.7362 117.882C66.1377 118.26 66.151 118.889 65.7629 119.287L65.7161 119.333C65.522 119.532 65.2611 119.638 65.0001 119.638ZM67.5697 117.419C67.2618 117.419 66.9607 117.279 66.76 117.014C66.4321 116.57 66.5258 115.954 66.9674 115.623L67.563 116.425L67.0143 115.59C67.4626 115.259 68.0849 115.351 68.4195 115.789C68.7541 116.226 68.6604 116.849 68.2187 117.18C68.2187 117.18 68.1652 117.22 68.1585 117.22C67.9845 117.359 67.7771 117.419 67.5697 117.419ZM62.3837 117.385C62.1763 117.385 61.9621 117.319 61.7815 117.187C61.3398 116.855 61.2194 116.219 61.554 115.775C61.8819 115.338 62.4841 115.225 62.9324 115.55C62.9324 115.55 62.986 115.59 62.9926 115.59C63.4343 115.921 63.528 116.544 63.1934 116.981C62.9859 117.246 62.6848 117.385 62.3837 117.385ZM59.5465 115.497C59.3658 115.497 59.1852 115.451 59.0179 115.345C58.5495 115.053 58.3755 114.424 58.6632 113.96C58.9576 113.496 59.5465 113.331 60.0149 113.622L60.0684 113.655C60.5368 113.947 60.6841 114.556 60.3896 115.027C60.209 115.331 59.8811 115.497 59.5465 115.497ZM70.4336 115.497C70.0924 115.497 69.7645 115.338 69.5771 115.04C69.2827 114.576 69.4031 113.98 69.8716 113.688L69.9251 113.655C70.3935 113.364 71.0158 113.509 71.3102 113.973C71.6047 114.437 71.4574 115.053 70.989 115.345C70.8151 115.451 70.621 115.497 70.4336 115.497ZM73.3578 113.841C72.9965 113.841 72.6552 113.649 72.4746 113.317C72.2136 112.834 72.4009 112.231 72.8894 111.972L72.9229 111.952C73.4047 111.681 74.0203 111.846 74.288 112.33C74.5623 112.807 74.395 113.417 73.9066 113.682L73.8263 113.728C73.679 113.801 73.5184 113.841 73.3578 113.841ZM56.5888 113.808C56.4215 113.808 56.2543 113.768 56.0937 113.675C55.6052 113.417 55.3977 112.807 55.6587 112.323C55.9197 111.84 56.5085 111.648 56.997 111.906L57.0773 111.952C57.5591 112.224 57.7264 112.827 57.4587 113.304C57.278 113.629 56.9368 113.808 56.5888 113.808ZM76.3958 112.244C76.0345 112.244 75.6865 112.058 75.5058 111.721C75.2449 111.237 75.4188 110.641 75.9073 110.382L76.001 110.336C76.5029 110.097 77.0984 110.303 77.3393 110.8C77.5802 111.297 77.3728 111.886 76.8709 112.125C76.7237 112.211 76.5564 112.244 76.3958 112.244ZM53.5643 112.231C53.417 112.231 53.2698 112.198 53.1293 112.131L53.0356 112.085C52.5471 111.827 52.3598 111.224 52.6208 110.74C52.8817 110.256 53.4906 110.071 53.9791 110.329L53.504 111.204L53.9992 110.342C54.4944 110.588 54.7018 111.184 54.4609 111.674C54.2869 112.025 53.9323 112.231 53.5643 112.231ZM79.4271 110.733C79.0524 110.733 78.6977 110.528 78.5237 110.17C78.2828 109.673 78.4903 109.084 78.9921 108.845L79.4271 109.74L79.0189 108.832C79.5141 108.58 80.1163 108.766 80.3706 109.249C80.6249 109.733 80.4442 110.329 79.9624 110.588L79.8687 110.634C79.7215 110.7 79.5743 110.733 79.4271 110.733ZM50.5129 110.707C50.3523 110.707 50.1917 110.667 50.0378 110.588C49.5359 110.349 49.3151 109.746 49.556 109.256C49.7969 108.759 50.3858 108.547 50.8876 108.785L50.9813 108.832C51.4698 109.09 51.6572 109.693 51.3962 110.177C51.2222 110.515 50.8743 110.707 50.5129 110.707ZM82.4918 109.223C82.1171 109.223 81.7624 109.017 81.5884 108.66C81.3475 108.163 81.555 107.573 82.0569 107.334L82.4918 108.229L82.0836 107.321C82.5721 107.069 83.181 107.255 83.4353 107.739C83.6896 108.222 83.5089 108.819 83.0271 109.077L82.9334 109.123C82.7862 109.196 82.639 109.223 82.4918 109.223ZM47.4549 109.203C47.2943 109.203 47.1337 109.163 46.9798 109.084C46.4779 108.845 46.2571 108.242 46.498 107.752C46.7389 107.255 47.3277 107.043 47.8296 107.281L47.9233 107.328C48.4118 107.586 48.5991 108.189 48.3382 108.673C48.1642 109.011 47.8162 109.203 47.4549 109.203ZM85.5565 107.686C85.1952 107.686 84.8472 107.5 84.6665 107.162C84.4056 106.678 84.5796 106.082 85.0681 105.824L85.1617 105.777C85.6636 105.539 86.2592 105.744 86.5001 106.241C86.741 106.738 86.5335 107.328 86.0316 107.566C85.8844 107.652 85.7171 107.686 85.5565 107.686ZM44.4035 107.672C44.2563 107.672 44.1091 107.639 43.9686 107.573L43.8749 107.527C43.3864 107.268 43.199 106.665 43.46 106.182C43.721 105.698 44.3299 105.512 44.8184 105.771L44.3433 106.645L44.8385 105.784C45.3336 106.029 45.5411 106.625 45.3002 107.116C45.1329 107.467 44.7716 107.672 44.4035 107.672ZM88.561 106.122C88.1997 106.122 87.8584 105.93 87.6777 105.599C87.4168 105.115 87.6041 104.512 88.0926 104.254L88.1261 104.234C88.6079 103.962 89.2235 104.128 89.4912 104.611C89.7655 105.088 89.5982 105.698 89.1097 105.963L89.0295 106.009C88.8822 106.082 88.7216 106.122 88.561 106.122ZM41.3789 106.089C41.2116 106.089 41.0444 106.049 40.8838 105.956C40.3953 105.698 40.1879 105.088 40.4488 104.605C40.7098 104.121 41.2986 103.929 41.7871 104.187L41.8674 104.234C42.3492 104.505 42.5165 105.108 42.2489 105.585C42.0682 105.91 41.7336 106.089 41.3789 106.089ZM91.5388 104.466C91.1975 104.466 90.8562 104.293 90.6756 103.975C90.3945 103.505 90.5551 102.895 91.0369 102.617L91.5455 103.472L91.0837 102.584C91.5588 102.299 92.1745 102.451 92.4622 102.922C92.7499 103.392 92.596 104.002 92.1209 104.287C92.1209 104.287 92.0607 104.326 92.054 104.326C91.8867 104.419 91.7128 104.466 91.5388 104.466ZM38.4079 104.432C38.2339 104.432 38.0532 104.386 37.8926 104.293C37.4175 104.015 37.2369 103.386 37.5179 102.915C37.799 102.445 38.3811 102.272 38.8629 102.551C38.8629 102.551 38.9231 102.591 38.9298 102.591C39.4049 102.875 39.5588 103.485 39.2711 103.955C39.077 104.26 38.7492 104.432 38.4079 104.432ZM94.4764 102.67C94.1485 102.67 93.8206 102.518 93.6332 102.233C93.3321 101.776 93.4325 101.173 93.9009 100.874L93.9611 100.835C94.4295 100.537 95.0518 100.669 95.3463 101.133C95.6474 101.597 95.5136 102.206 95.0452 102.504C94.8779 102.61 94.6771 102.67 94.4764 102.67ZM35.4971 102.663C35.3097 102.663 35.1224 102.61 34.9551 102.504L34.8948 102.465C34.4331 102.166 34.2993 101.55 34.6071 101.086C34.9149 100.629 35.5305 100.503 35.9989 100.802L36.0458 100.835C36.5142 101.133 36.648 101.749 36.3469 102.206C36.1528 102.504 35.825 102.663 35.4971 102.663ZM97.2667 100.782C96.9522 100.782 96.6444 100.636 96.4504 100.364C96.1292 99.9204 96.2296 99.2976 96.6846 98.9796L97.2667 99.7879L96.7047 98.9597C97.1463 98.6284 97.7753 98.7079 98.1099 99.1452C98.4444 99.5759 98.3708 100.192 97.9359 100.53L97.8489 100.596C97.6749 100.722 97.4675 100.782 97.2667 100.782ZM32.6799 100.749C32.4725 100.749 32.2584 100.682 32.0777 100.55C31.6361 100.219 31.5156 99.5825 31.8502 99.1386C32.1781 98.7013 32.7803 98.5887 33.2286 98.9133C33.2286 98.9133 33.2822 98.9531 33.2889 98.9531C33.7305 99.2843 33.8242 99.9071 33.4896 100.344C33.2889 100.609 32.9877 100.749 32.6799 100.749ZM99.9434 98.6814C99.6556 98.6814 99.3746 98.5621 99.1738 98.3303C98.8125 97.9128 98.866 97.2834 99.2943 96.9323L99.3277 96.9058C99.7426 96.5414 100.378 96.5811 100.746 96.9919C101.114 97.4027 101.074 98.0321 100.659 98.3965L100.592 98.4561C100.398 98.6085 100.171 98.6814 99.9434 98.6814ZM30.01 98.6483C29.7691 98.6483 29.5215 98.5622 29.3275 98.3833C28.926 98.0189 28.8657 97.3762 29.2271 96.972C29.5884 96.5679 30.184 96.5016 30.6056 96.8461C30.6189 96.8528 30.6792 96.9058 30.6859 96.919C31.094 97.29 31.1208 97.9195 30.7461 98.3236C30.552 98.5357 30.2777 98.6483 30.01 98.6483ZM102.426 96.3691C102.178 96.3691 101.924 96.2763 101.73 96.0908C101.328 95.7132 101.315 95.0837 101.703 94.6862L101.75 94.6398C102.131 94.2423 102.767 94.229 103.169 94.6133C103.57 94.991 103.584 95.6204 103.195 96.0179L103.149 96.0643C102.948 96.2631 102.687 96.3691 102.426 96.3691ZM27.5341 96.3227C27.2732 96.3227 27.0055 96.2233 26.8114 96.0179C26.43 95.6204 26.4167 94.9711 26.8181 94.5868C27.2196 94.2091 27.8286 94.1959 28.2167 94.5934L28.2635 94.6398C28.6449 95.0374 28.6316 95.6668 28.2368 96.0444C28.0293 96.23 27.7817 96.3227 27.5341 96.3227ZM104.634 93.7984C104.42 93.7984 104.199 93.7321 104.019 93.5863C103.584 93.2484 103.503 92.6256 103.845 92.195C103.851 92.1884 103.885 92.142 103.885 92.142C104.226 91.7113 104.855 91.6318 105.29 91.9697C105.725 92.3076 105.805 92.9304 105.464 93.3611L105.424 93.4141C105.23 93.6659 104.929 93.7984 104.634 93.7984ZM25.3326 93.752C25.0248 93.752 24.7237 93.6129 24.5296 93.3545C24.5296 93.3545 24.4895 93.3015 24.4895 93.2948C24.1616 92.8509 24.2553 92.2347 24.6969 91.9035C25.1386 91.5722 25.7676 91.6716 26.1021 92.1088L25.2925 92.6985L26.1356 92.1552C26.4702 92.5925 26.3765 93.2153 25.9349 93.5466C25.7475 93.6857 25.5401 93.752 25.3326 93.752ZM106.468 90.9361C106.314 90.9361 106.153 90.903 106.006 90.8235C105.517 90.5651 105.323 89.982 105.584 89.4984L105.631 89.4189C105.906 88.9418 106.521 88.7762 106.996 89.0412C107.478 89.3129 107.645 89.9158 107.378 90.3928C107.19 90.7374 106.829 90.9361 106.468 90.9361ZM23.4991 90.9096C23.1378 90.9096 22.7965 90.7175 22.6158 90.3862C22.3549 89.9025 22.5222 89.2731 23.0106 89.0147C23.4991 88.7563 24.0947 88.9087 24.3557 89.3924L24.3891 89.452C24.6501 89.9357 24.4627 90.5386 23.9742 90.797C23.8203 90.8699 23.6597 90.9096 23.4991 90.9096ZM107.826 87.8751C107.719 87.8751 107.605 87.8552 107.498 87.8221C106.976 87.6432 106.695 87.08 106.876 86.5566L106.896 86.5036C107.07 85.9802 107.639 85.7019 108.167 85.8742C108.696 86.0464 108.977 86.6096 108.803 87.133L108.776 87.2059C108.636 87.6167 108.248 87.8751 107.826 87.8751ZM22.1474 87.8221C21.7192 87.8221 21.3177 87.5438 21.1906 87.1132C21.03 86.5964 21.311 86.0133 21.8329 85.8477C22.3549 85.682 22.9036 85.9272 23.0776 86.4374C23.0843 86.4506 23.1043 86.5235 23.111 86.5367C23.2716 87.0602 22.9705 87.6167 22.4419 87.7757C22.3415 87.8088 22.2411 87.8221 22.1474 87.8221ZM108.636 84.5756C108.582 84.5756 108.535 84.5689 108.482 84.5623C107.94 84.4762 107.565 84.0058 107.645 83.4691C107.645 83.4558 107.659 83.383 107.659 83.3697C107.759 82.833 108.274 82.4686 108.823 82.568C109.365 82.6674 109.733 83.1842 109.633 83.7209C109.552 84.2112 109.117 84.5756 108.636 84.5756ZM21.3445 84.5557C20.856 84.5557 20.4277 84.2045 20.3541 83.7076C20.3541 83.7076 20.3474 83.6414 20.3407 83.6347C20.2604 83.0914 20.6418 82.5879 21.1906 82.5084C21.7393 82.4289 22.2478 82.8065 22.3281 83.3498L21.3378 83.4956L22.3415 83.4095C22.4218 83.9528 22.0471 84.4563 21.4984 84.5424C21.4448 84.5491 21.398 84.5557 21.3445 84.5557ZM108.89 81.2495C108.335 81.2495 107.886 80.8056 107.886 80.2557V80.1894C107.886 79.6395 108.335 79.1956 108.89 79.1956C109.445 79.1956 109.894 79.6395 109.894 80.1894V80.2557C109.894 80.8056 109.439 81.2495 108.89 81.2495ZM21.1102 81.1965C20.5549 81.1965 20.1065 80.7526 20.1065 80.2027C20.1065 79.6528 20.5549 79.1757 21.1102 79.1757C21.6656 79.1757 22.114 79.5865 22.114 80.1364V80.2027C22.114 80.7526 21.6656 81.1965 21.1102 81.1965ZM108.89 77.8705C108.335 77.8705 107.886 77.4266 107.886 76.8766V76.8104C107.886 76.2605 108.335 75.8166 108.89 75.8166C109.445 75.8166 109.894 76.2605 109.894 76.8104V76.8766C109.894 77.4266 109.439 77.8705 108.89 77.8705ZM21.1102 77.8175C20.5549 77.8175 20.1065 77.3736 20.1065 76.8236V76.7574C20.1065 76.2075 20.5549 75.7635 21.1102 75.7635C21.6656 75.7635 22.114 76.2075 22.114 76.7574V76.8236C22.114 77.3736 21.6656 77.8175 21.1102 77.8175ZM108.89 74.4914C108.335 74.4914 107.886 74.0475 107.886 73.4976V73.4313C107.886 72.8814 108.335 72.4375 108.89 72.4375C109.445 72.4375 109.894 72.8814 109.894 73.4313V73.4976C109.894 74.0475 109.439 74.4914 108.89 74.4914ZM21.1102 74.4384C20.5549 74.4384 20.1065 73.9945 20.1065 73.4446V73.3783C20.1065 72.8284 20.5549 72.3845 21.1102 72.3845C21.6656 72.3845 22.114 72.8284 22.114 73.3783V73.4446C22.114 73.9945 21.6656 74.4384 21.1102 74.4384ZM108.89 71.1124C108.335 71.1124 107.886 70.6685 107.886 70.1186V70.0523C107.886 69.5024 108.335 69.0585 108.89 69.0585C109.445 69.0585 109.894 69.5024 109.894 70.0523V70.1186C109.894 70.6685 109.439 71.1124 108.89 71.1124ZM21.1102 71.0594C20.5549 71.0594 20.1065 70.6155 20.1065 70.0655V69.9993C20.1065 69.4494 20.5549 69.0055 21.1102 69.0055C21.6656 69.0055 22.114 69.4494 22.114 69.9993V70.0655C22.114 70.6155 21.6656 71.0594 21.1102 71.0594ZM108.89 67.7002C108.335 67.7002 107.886 67.2894 107.886 66.7395V66.6732C107.886 66.1233 108.335 65.6794 108.89 65.6794C109.445 65.6794 109.894 66.1233 109.894 66.6732C109.894 67.2232 109.439 67.7002 108.89 67.7002ZM21.1102 67.6804C20.5549 67.6804 20.1065 67.2364 20.1065 66.6865V66.6202C20.1065 66.0703 20.5549 65.6264 21.1102 65.6264C21.6656 65.6264 22.114 66.0703 22.114 66.6202V66.6865C22.114 67.2364 21.6656 67.6804 21.1102 67.6804ZM108.89 64.3543C108.335 64.3543 107.886 63.9104 107.886 63.3605V63.2942C107.886 62.7443 108.335 62.3004 108.89 62.3004C109.445 62.3004 109.894 62.7443 109.894 63.2942V63.3605C109.894 63.9104 109.439 64.3543 108.89 64.3543ZM21.1102 64.3013C20.5549 64.3013 20.1065 63.8574 20.1065 63.3075C20.1065 62.7575 20.5549 62.2805 21.1102 62.2805C21.6656 62.2805 22.114 62.6913 22.114 63.2412V63.3075C22.114 63.8574 21.6656 64.3013 21.1102 64.3013ZM108.89 60.9752C108.335 60.9752 107.886 60.5313 107.886 59.9814V59.9152C107.886 59.3652 108.335 58.9213 108.89 58.9213C109.445 58.9213 109.894 59.3652 109.894 59.9152V59.9814C109.894 60.5313 109.439 60.9752 108.89 60.9752ZM21.1102 60.9222C20.5549 60.9222 20.1065 60.4783 20.1065 59.9284V59.8622C20.1065 59.3122 20.5549 58.8683 21.1102 58.8683C21.6656 58.8683 22.114 59.3122 22.114 59.8622V59.9284C22.114 60.4783 21.6656 60.9222 21.1102 60.9222ZM108.89 57.5962C108.335 57.5962 107.886 57.1523 107.886 56.6024V56.5361C107.886 55.9862 108.335 55.5423 108.89 55.5423C109.445 55.5423 109.894 55.9862 109.894 56.5361V56.6024C109.894 57.1523 109.439 57.5962 108.89 57.5962ZM21.1102 57.5432C20.5549 57.5432 20.1065 57.0993 20.1065 56.5494V56.4831C20.1065 55.9332 20.5549 55.4893 21.1102 55.4893C21.6656 55.4893 22.114 55.9332 22.114 56.4831V56.5494C22.114 57.0993 21.6656 57.5432 21.1102 57.5432ZM108.89 54.2172C108.335 54.2172 107.886 53.7733 107.886 53.2233V53.1571C107.886 52.6071 108.335 52.1632 108.89 52.1632C109.445 52.1632 109.894 52.6071 109.894 53.1571V53.2233C109.894 53.7733 109.439 54.2172 108.89 54.2172ZM21.1102 54.1642C20.5549 54.1642 20.1065 53.7202 20.1065 53.1703V53.1041C20.1065 52.5541 20.5549 52.1102 21.1102 52.1102C21.6656 52.1102 22.114 52.5541 22.114 53.1041V53.1703C22.114 53.7202 21.6656 54.1642 21.1102 54.1642ZM108.89 50.8381C108.335 50.8381 107.886 50.3942 107.886 49.8443V49.778C107.886 49.2281 108.335 48.7842 108.89 48.7842C109.445 48.7842 109.894 49.2281 109.894 49.778V49.8443C109.894 50.3942 109.439 50.8381 108.89 50.8381ZM21.1102 50.7851C20.5549 50.7851 20.1065 50.3412 20.1065 49.7913V49.725C20.1065 49.1751 20.5549 48.7312 21.1102 48.7312C21.6656 48.7312 22.114 49.1751 22.114 49.725V49.7913C22.114 50.3412 21.6656 50.7851 21.1102 50.7851ZM108.89 47.4259C108.335 47.4259 107.886 47.0152 107.886 46.4652V46.399C107.886 45.849 108.335 45.4051 108.89 45.4051C109.445 45.4051 109.894 45.849 109.894 46.399C109.894 46.9489 109.439 47.4259 108.89 47.4259ZM21.1102 47.4061C20.5549 47.4061 20.1065 46.9622 20.1065 46.4122C20.1065 45.8623 20.5549 45.3853 21.1102 45.3853C21.6656 45.3853 22.114 45.7961 22.114 46.346V46.4122C22.114 46.9622 21.6656 47.4061 21.1102 47.4061ZM108.89 44.08C108.335 44.08 107.886 43.6361 107.886 43.0862V43.0199C107.886 42.47 108.335 42.0261 108.89 42.0261C109.445 42.0261 109.894 42.47 109.894 43.0199V43.0862C109.894 43.6361 109.439 44.08 108.89 44.08ZM21.1102 44.027C20.5549 44.027 20.1065 43.5831 20.1065 43.0332V42.9669C20.1065 42.417 20.5549 41.9731 21.1102 41.9731C21.6656 41.9731 22.114 42.417 22.114 42.9669V43.0332C22.114 43.5831 21.6656 44.027 21.1102 44.027ZM108.89 40.701C108.335 40.701 107.886 40.2571 107.886 39.7071V39.6409C107.886 39.091 108.335 38.6471 108.89 38.6471C109.445 38.6471 109.894 39.091 109.894 39.6409V39.7071C109.894 40.2571 109.439 40.701 108.89 40.701ZM21.1102 40.648C20.5549 40.648 20.1065 40.2041 20.1065 39.6541V39.5879C20.1065 39.038 20.5549 38.5941 21.1102 38.5941C21.6656 38.5941 22.114 39.038 22.114 39.5879V39.6541C22.114 40.2041 21.6656 40.648 21.1102 40.648ZM108.89 37.3219C108.335 37.3219 107.886 36.878 107.886 36.3281V36.2618C107.886 35.7119 108.335 35.268 108.89 35.268C109.445 35.268 109.894 35.7119 109.894 36.2618V36.3281C109.894 36.878 109.439 37.3219 108.89 37.3219ZM21.1102 37.2689C20.5549 37.2689 20.1065 36.825 20.1065 36.2751V36.2088C20.1065 35.6589 20.5549 35.215 21.1102 35.215C21.6656 35.215 22.114 35.6589 22.114 36.2088V36.2751C22.114 36.825 21.6656 37.2689 21.1102 37.2689ZM108.89 33.9098C108.335 33.9098 107.886 33.499 107.886 32.9491V32.8828C107.886 32.3329 108.335 31.889 108.89 31.889C109.445 31.889 109.894 32.3329 109.894 32.8828C109.894 33.4327 109.439 33.9098 108.89 33.9098ZM21.1102 33.8899C20.5549 33.8899 20.1065 33.446 20.1065 32.8961V32.8298C20.1065 32.2799 20.5549 31.836 21.1102 31.836C21.6656 31.836 22.114 32.2799 22.114 32.8298V32.8961C22.114 33.446 21.6656 33.8899 21.1102 33.8899ZM108.89 30.5639C108.335 30.5639 107.886 30.1199 107.886 29.57V29.5038C107.886 28.9538 108.335 28.5099 108.89 28.5099C109.445 28.5099 109.894 28.9538 109.894 29.5038V29.57C109.894 30.1199 109.439 30.5639 108.89 30.5639ZM21.1102 30.5109C20.5549 30.5109 20.1065 30.0669 20.1065 29.517C20.1065 28.9671 20.5549 28.49 21.1102 28.49C21.6656 28.49 22.114 28.9008 22.114 29.4508V29.517C22.114 30.0669 21.6656 30.5109 21.1102 30.5109ZM108.89 27.1848C108.335 27.1848 107.886 26.7409 107.886 26.191V26.1247C107.886 25.5748 108.335 25.1309 108.89 25.1309C109.445 25.1309 109.894 25.5748 109.894 26.1247V26.191C109.894 26.7409 109.439 27.1848 108.89 27.1848ZM21.1102 27.1318C20.5549 27.1318 20.1065 26.6879 20.1065 26.138V26.0717C20.1065 25.5218 20.5549 25.0779 21.1102 25.0779C21.6656 25.0779 22.114 25.5218 22.114 26.0717V26.138C22.114 26.6879 21.6656 27.1318 21.1102 27.1318ZM106.334 26.2572C106.314 26.2572 106.294 26.2572 106.274 26.2572L106.207 26.2506C105.651 26.2175 105.23 25.7471 105.263 25.1971C105.297 24.6472 105.752 24.2298 106.32 24.2629C106.876 24.2961 107.331 24.7665 107.297 25.3164C107.271 25.8464 106.856 26.2572 106.334 26.2572ZM23.72 26.2572C23.198 26.2572 22.7564 25.8597 22.7229 25.3363C22.6828 24.7864 23.0976 24.3159 23.653 24.2696C23.6597 24.2696 23.7266 24.2629 23.7333 24.2629C24.2687 24.2298 24.7638 24.6472 24.7906 25.1971C24.8241 25.7471 24.4025 26.2175 23.8471 26.2506L23.7869 25.2568L23.7936 26.2506C23.7668 26.2506 23.74 26.2572 23.72 26.2572ZM102.934 25.9524C102.894 25.9524 102.854 25.9525 102.814 25.9458L102.747 25.9392C102.198 25.8729 101.804 25.3826 101.871 24.8327C101.937 24.2894 102.433 23.8985 102.981 23.9648L103.048 23.9714C103.597 24.0377 103.992 24.5279 103.925 25.0779C103.871 25.5748 103.436 25.9524 102.934 25.9524ZM27.1193 25.9458C26.6241 25.9458 26.1958 25.5814 26.1222 25.0845C26.0486 24.5412 26.4367 24.0377 26.9854 23.9714L27.0657 23.9582C27.6077 23.8919 28.1163 24.2828 28.1765 24.8261C28.2434 25.3694 27.8486 25.8663 27.2999 25.9326L27.2464 25.9392C27.2062 25.9392 27.1594 25.9458 27.1193 25.9458ZM99.5486 25.4688C99.495 25.4688 99.4415 25.4622 99.388 25.4555C99.388 25.4555 99.321 25.4423 99.3144 25.4423C98.7656 25.3495 98.3976 24.8394 98.4913 24.2961C98.585 23.7528 99.0935 23.3884 99.6489 23.4811C100.198 23.5739 100.599 24.084 100.505 24.6273C100.425 25.1176 100.024 25.4688 99.5486 25.4688ZM30.4985 25.4622C30.0234 25.4622 29.6018 25.1243 29.5148 24.6472C29.4145 24.1039 29.7758 23.5871 30.3245 23.4944L30.4115 23.4811C30.9535 23.395 31.4755 23.7594 31.5625 24.3027C31.6494 24.846 31.2814 25.3561 30.7327 25.4423L30.6859 25.4489C30.6189 25.4555 30.5587 25.4622 30.4985 25.4622ZM96.1894 24.8526C96.1225 24.8526 96.0489 24.846 95.982 24.8327L96.1894 23.8588L95.9351 24.8195C95.3931 24.7135 95.0318 24.1967 95.1388 23.66C95.2459 23.1233 95.7745 22.7656 96.3098 22.8716C96.3165 22.8716 96.3901 22.8848 96.3968 22.8914C96.9388 23.0041 97.2868 23.5341 97.1731 24.0708C97.0727 24.5346 96.6578 24.8526 96.1894 24.8526ZM33.8576 24.8394C33.3825 24.8394 32.9677 24.5081 32.874 24.031C32.7669 23.4944 33.1283 22.9709 33.6703 22.8716C34.1989 22.7656 34.7677 23.1101 34.8748 23.6467C34.9818 24.1834 34.6673 24.6936 34.132 24.8062C34.1253 24.8062 34.0517 24.8195 34.045 24.8261C33.9848 24.8394 33.9179 24.8394 33.8576 24.8394ZM92.857 24.1238C92.7767 24.1238 92.6964 24.1172 92.6228 24.0973L92.857 23.13L92.5693 24.084C92.0273 23.9648 91.6927 23.4281 91.8131 22.8914C91.9336 22.3548 92.4756 22.0169 93.0109 22.1427C93.0176 22.1427 93.0845 22.1626 93.0912 22.1626C93.6265 22.2951 93.9611 22.8318 93.8273 23.3618C93.7202 23.819 93.3054 24.1238 92.857 24.1238ZM37.19 24.1105C36.735 24.1105 36.3201 23.7991 36.2131 23.342C36.0859 22.8053 36.4205 22.2753 36.9625 22.1494C37.5045 22.0169 38.0733 22.3415 38.2072 22.8716C38.341 23.4016 38.0332 23.9383 37.4978 24.0642L37.4242 24.084C37.3439 24.0973 37.2703 24.1105 37.19 24.1105ZM89.5447 23.289C89.4577 23.289 89.3707 23.2757 89.277 23.2558L89.2101 23.236C88.6748 23.0902 88.3603 22.5469 88.5075 22.0169C88.6547 21.4868 89.2101 21.1754 89.7388 21.3212L89.8057 21.341C90.341 21.4868 90.6555 22.0301 90.5083 22.5602C90.3878 22.9974 89.9863 23.289 89.5447 23.289ZM40.5023 23.2757C40.0607 23.2757 39.6592 22.9842 39.5321 22.5403C39.3849 22.0102 39.6994 21.4669 40.2347 21.3212L40.3016 21.3013C40.8369 21.1555 41.3856 21.4669 41.5329 21.997C41.6801 22.527 41.3656 23.0703 40.8302 23.2161L40.7633 23.236C40.683 23.2625 40.5893 23.2757 40.5023 23.2757ZM86.2591 22.3548C86.1655 22.3548 86.0651 22.3415 85.9647 22.315L86.2524 21.3609L85.9045 22.2951C85.3759 22.1361 85.068 21.5862 85.2286 21.0628C85.3892 20.5393 85.9446 20.2346 86.4733 20.3936L86.5402 20.4135C87.0688 20.5725 87.3699 21.129 87.2094 21.6524C87.0889 22.0831 86.6874 22.3548 86.2591 22.3548ZM43.7879 22.3415C43.3529 22.3415 42.9581 22.0632 42.8243 21.6326C42.6637 21.1091 42.9715 20.5526 43.5002 20.4002C44.0288 20.2412 44.6177 20.5327 44.7783 21.0561C44.9389 21.5796 44.6712 22.1229 44.1425 22.2819L44.0756 22.3018C43.9819 22.3283 43.8816 22.3415 43.7879 22.3415ZM83.0004 21.3344C82.8933 21.3344 82.7795 21.3145 82.6725 21.2814L83.0004 20.3406L82.6323 21.2682C82.1037 21.1025 81.8093 20.546 81.9833 20.0226C82.1505 19.4991 82.7126 19.2076 83.2413 19.3799C83.2479 19.3799 83.3215 19.4064 83.3282 19.4064C83.8502 19.5853 84.1312 20.1484 83.9506 20.6719C83.81 21.076 83.4219 21.3344 83.0004 21.3344ZM47.0467 21.3145C46.6184 21.3145 46.2236 21.0429 46.0898 20.6189C45.9225 20.0954 46.2169 19.5389 46.7389 19.3733C47.2675 19.2076 47.8564 19.4793 48.0303 19.9961C48.2043 20.5128 47.9567 21.0628 47.4348 21.235C47.4281 21.235 47.3545 21.2615 47.3478 21.2615C47.2474 21.3013 47.1471 21.3145 47.0467 21.3145ZM79.7817 20.2147C79.668 20.2147 79.5475 20.1948 79.4271 20.1484L79.7817 19.2209L79.3802 20.1352C78.8583 19.9497 78.5906 19.3799 78.778 18.8631C78.9654 18.3463 79.5408 18.0813 80.0628 18.2668C80.0695 18.2668 80.1364 18.2933 80.1364 18.2933C80.6583 18.4854 80.9193 19.0618 80.7252 19.572C80.5713 19.9629 80.1832 20.2147 79.7817 20.2147ZM50.2653 20.1948C49.8504 20.1948 49.469 19.9431 49.3218 19.5389C49.1344 19.0221 49.4021 18.4523 49.9241 18.2668C50.4393 18.0813 51.0482 18.333 51.2356 18.8498C51.423 19.36 51.1955 19.9165 50.6802 20.1087C50.6735 20.1087 50.6066 20.1352 50.6066 20.1352C50.4928 20.1749 50.3791 20.1948 50.2653 20.1948ZM76.5832 18.9823C76.4627 18.9823 76.3356 18.9625 76.2151 18.9095L76.1415 18.883C75.633 18.6709 75.3921 18.0879 75.6062 17.5843C75.8203 17.0808 76.4092 16.8423 76.9178 17.0543C77.433 17.2597 77.7073 17.8494 77.4932 18.3595C77.3393 18.7372 76.978 18.9823 76.5832 18.9823ZM53.4505 18.9625C53.0557 18.9625 52.6877 18.7306 52.5271 18.3529C52.3129 17.8494 52.5538 17.2663 53.0624 17.0543L53.136 17.0278C53.6512 16.8224 54.2334 17.0676 54.4408 17.5777C54.6483 18.0879 54.4007 18.6643 53.8854 18.8697L53.8319 18.8896C53.7115 18.936 53.5776 18.9625 53.4505 18.9625ZM73.4716 17.6241C73.3311 17.6241 73.1839 17.591 73.05 17.5313L72.9898 17.5048C72.488 17.2729 72.2738 16.6833 72.508 16.1863C72.7422 15.6894 73.3378 15.4708 73.8396 15.7093L73.8999 15.7358C74.4017 15.9677 74.6159 16.5574 74.3817 17.0543C74.2077 17.4055 73.8463 17.6241 73.4716 17.6241ZM56.5755 17.5976C56.2007 17.5976 55.8394 17.3856 55.6654 17.0278C55.4312 16.5309 55.6453 15.9412 56.1472 15.7093L56.2074 15.6828C56.7093 15.4509 57.3048 15.6629 57.539 16.1598C57.7732 16.6568 57.5591 17.2464 57.0572 17.4783L56.997 17.5048C56.8632 17.5711 56.716 17.5976 56.5755 17.5976ZM70.4203 16.0936C70.253 16.0936 70.0924 16.0538 69.9385 15.9677L69.8782 15.9346C69.3897 15.6696 69.2158 15.0666 69.4834 14.583C69.7511 14.0993 70.36 13.927 70.8485 14.192L70.9087 14.2252C71.3972 14.4902 71.5712 15.0931 71.3035 15.5768C71.1162 15.9081 70.7749 16.0936 70.4203 16.0936ZM59.6201 16.0671C59.2721 16.0671 58.9309 15.8882 58.7502 15.5635C58.4759 15.0865 58.6431 14.477 59.1249 14.2053C59.1316 14.2053 59.1918 14.1656 59.1985 14.1656C59.687 13.9005 60.2959 14.0794 60.5636 14.5565C60.8313 15.0401 60.6506 15.643 60.1688 15.9081L59.687 15.0401L60.1287 15.9346C59.9614 16.0273 59.7874 16.0671 59.6201 16.0671ZM67.5228 14.3113C67.3221 14.3113 67.1146 14.2517 66.9407 14.1258L66.8938 14.0927C66.4388 13.7813 66.325 13.1585 66.6462 12.7079C66.9607 12.2574 67.5897 12.1447 68.0448 12.4628L68.1117 12.5092C68.56 12.8272 68.6671 13.45 68.3459 13.8939C68.1384 14.1655 67.8306 14.3113 67.5228 14.3113ZM62.5175 14.2782C62.2097 14.2782 61.9086 14.139 61.7079 13.874C61.38 13.4301 61.4737 12.8073 61.9153 12.4826L61.9822 12.4363C62.4372 12.1182 63.0596 12.2176 63.3807 12.6682C63.7019 13.1121 63.6016 13.7349 63.1465 14.0529L63.1064 14.0794C62.9391 14.2119 62.725 14.2782 62.5175 14.2782ZM65.0001 12.0056C64.7258 12.0056 64.4514 11.893 64.264 11.6611C63.9428 11.3232 63.9027 10.7998 64.1703 10.4155L65.0001 9.18974L65.8366 10.4287C66.1377 10.8793 66.0373 11.5153 65.589 11.8201C65.4083 11.9394 65.2009 12.0056 65.0001 12.0056Z" fill="#DC0000"/>
<path d="M67.0811 92.8044C63.5412 92.8044 60.791 90.4126 60.3962 86.848C60.2825 85.8012 60.5434 85.079 60.7576 84.4893C60.8111 84.3303 60.8713 84.1779 60.9182 84.0123C59.2185 83.734 57.5724 83.2503 55.9932 82.5679C55.5716 82.9721 55.5248 83.3431 55.4378 84.0719C55.3307 84.9597 55.1835 86.1722 54.327 87.5636C53.4705 88.9549 51.8243 89.9753 49.9306 90.3066C47.7893 90.6776 45.6079 90.1211 43.935 88.7959C42.2487 87.4576 41.2651 85.7349 41.0844 83.8135C40.9171 82.0113 41.4993 80.1893 42.7305 78.6787C43.3729 77.8836 44.3097 77.2939 45.3938 76.6049C45.9425 76.2604 46.5246 75.8893 47.0867 75.4785C45.9692 73.9414 45.0726 72.2651 44.4101 70.4762C44.0153 71.0262 43.2926 71.7616 41.7736 72.1591C40.2747 72.55 38.4881 72.1856 36.9892 71.1918C35.3096 70.0721 34.1988 68.303 33.9378 66.3286C33.6836 64.3741 34.1587 62.5321 35.2761 61.1408C36.3401 59.8157 37.926 58.961 39.7461 58.7291C40.616 58.6164 41.3253 58.7291 42.0748 58.855C42.4696 58.9212 42.9112 58.9941 43.4733 59.0471C43.7878 57.4371 44.2897 55.8801 44.9789 54.3959C44.4904 53.8195 44.0956 53.7798 43.2792 53.7003C42.3826 53.6141 41.158 53.4882 39.7394 52.6667C38.3208 51.8451 37.2501 50.2417 36.8821 48.3733C36.4672 46.2663 36.9758 44.0932 38.2873 42.4103C39.6056 40.7141 41.3253 39.707 43.2658 39.4884C45.0726 39.283 46.9328 39.8263 48.4852 41.0123C49.228 41.5754 49.944 42.5096 50.8474 43.689C51.3292 44.3118 51.8444 44.9942 52.3998 45.6568C53.5508 44.875 54.7753 44.2124 56.0601 43.6691C55.6117 43.2318 54.9025 42.4964 54.5277 40.946C54.1664 39.4553 54.5679 37.6929 55.6051 36.2352C56.7694 34.5921 58.5828 33.532 60.5769 33.3133C62.5509 33.1013 64.4044 33.6115 65.7896 34.7445C67.1011 35.8244 67.9376 37.4146 68.1383 39.2167C68.2521 40.257 67.9844 41.0056 67.7703 41.6086C67.7034 41.8007 67.6365 41.9862 67.5762 42.1983C69.2625 42.4368 70.8952 42.8741 72.4744 43.5101C72.702 43.0795 72.809 42.5825 72.9562 41.9133C73.1704 40.9593 73.4313 39.7667 74.2009 38.5144C75.0574 37.1231 76.7035 36.1027 78.5972 35.7714C80.7385 35.4004 82.92 35.957 84.5928 37.2821C87.9118 39.9191 88.4137 44.1727 85.7973 47.406C85.1482 48.201 84.2114 48.7973 83.1274 49.4798C82.6389 49.7912 82.117 50.1224 81.6084 50.4802C82.746 51.971 83.6627 53.5876 84.3519 55.3169C84.8204 54.7604 85.523 54.2369 86.7408 53.9255C88.2397 53.5346 90.0264 53.899 91.5186 54.8929C93.1982 56.0126 94.309 57.7816 94.5699 59.756C94.8242 61.7106 94.3491 63.5525 93.2316 64.9439C92.1677 66.269 90.5818 67.1237 88.7617 67.3556C87.7379 67.4881 86.9817 67.2694 86.3795 67.0905C86.1252 67.0177 85.8575 66.9382 85.543 66.8852C85.2218 68.6674 84.6731 70.3967 83.8969 72.0465C84.2382 72.2983 84.5928 72.3314 85.2285 72.391C86.1252 72.4771 87.3564 72.5964 88.7817 73.418C90.2003 74.2396 91.271 75.8429 91.639 77.718C92.0539 79.8249 91.5454 81.9981 90.2338 83.681C88.9156 85.3771 87.1958 86.3842 85.2553 86.6029C83.4352 86.8017 81.5883 86.265 80.0359 85.079C79.2195 84.4562 78.6039 83.5419 77.8879 82.4818C77.4864 81.8855 77.0582 81.2428 76.5697 80.6332C75.3384 81.4747 74.0202 82.177 72.6417 82.7402C73.1837 83.2172 73.6923 83.9261 73.9867 85.1452C74.3481 86.636 73.9466 88.3984 72.9094 89.856C71.7451 91.4992 69.9317 92.5593 67.9376 92.7779C67.6632 92.7912 67.3688 92.8044 67.0811 92.8044ZM55.6988 78.0095L56.6891 78.5064C58.7568 79.5334 60.9784 80.1363 63.2936 80.2953L65.174 80.4212L65.1673 82.283C65.1606 84.1315 64.7859 85.1585 64.545 85.8343C64.3844 86.2716 64.3844 86.3047 64.3978 86.4174C64.5383 87.716 65.4416 89.0344 67.5294 88.8026C68.687 88.6767 69.3562 87.9611 69.6506 87.5503C70.0722 86.9607 70.1793 86.3644 70.1056 86.0596C70.032 85.7548 69.9651 85.6554 69.9651 85.6554C69.9517 85.6554 69.9116 85.6355 69.8781 85.609C68.2052 84.5423 68.1517 83.0847 68.6201 80.938L68.8677 79.8315L69.9584 79.4738C71.9994 78.8112 73.8797 77.7776 75.5526 76.4127L76.8909 75.3195L78.1757 76.4724C79.5274 77.6782 80.4842 79.1093 81.2538 80.2556C81.7021 80.9247 82.2107 81.6867 82.5051 81.9053C83.2278 82.4553 84.0508 82.7137 84.827 82.6275C85.6568 82.5348 86.433 82.0511 87.0687 81.2295C87.8985 80.1628 87.8315 79.0365 87.7178 78.4534C87.5505 77.612 87.1222 77.0289 86.7743 76.8302C86.1118 76.4459 85.5832 76.3929 84.8538 76.3266C83.4887 76.1941 81.6218 76.0152 79.8619 73.3981L79.1928 72.3976L79.7749 71.3442C80.9259 69.2439 81.6151 66.9845 81.8225 64.6258L81.9697 62.8966L83.7229 62.8104C85.6769 62.711 86.8011 63.0357 87.5371 63.2543C87.9988 63.3868 88.0992 63.4134 88.2732 63.3935C89.0494 63.2941 89.7052 62.9562 90.12 62.446C90.5617 61.8961 90.7357 61.1342 90.6219 60.2463C90.4747 59.1001 89.7386 58.4574 89.3104 58.1725C88.7014 57.7684 88.0925 57.669 87.7914 57.7485C87.5104 57.8214 87.4167 57.8876 87.4167 57.8876C87.4301 57.8876 87.4033 57.934 87.3765 57.9804C86.346 59.7627 84.7936 59.8422 82.6188 59.4049L81.4545 59.173L81.1065 58.0466C80.3571 55.6349 79.0857 53.4485 77.3392 51.5536L76.041 50.1489L77.4061 48.8039C78.5838 47.6445 79.9221 46.7964 80.9995 46.114C81.6887 45.6767 82.4649 45.1864 82.6991 44.9015C83.6694 43.7089 84.0241 41.8868 82.1103 40.3696C81.053 39.5281 79.9088 39.5745 79.3199 39.6739C78.4634 39.8197 77.8678 40.2305 77.6604 40.575C77.2388 41.2574 77.0849 41.9531 76.9109 42.7548C76.6031 44.1462 76.2217 45.8754 74.3481 47.4391L73.3444 48.2805L72.1666 47.7041C70.0253 46.6573 67.7168 46.0742 65.3212 45.9682L63.4342 45.8821L63.4074 44.0137C63.3806 42.0922 63.762 41.0056 64.023 40.2835C64.1836 39.8263 64.197 39.7667 64.1836 39.6474C64.0966 38.8722 63.7687 38.2163 63.2602 37.7989C62.7115 37.3483 61.9487 37.1628 61.052 37.2622C59.8944 37.3881 59.2252 38.1036 58.9308 38.5144C58.5092 39.1041 58.4021 39.707 58.4757 40.0052C58.5962 40.5087 58.7033 40.6147 58.9776 40.8864C59.9813 41.8802 60.5167 42.9006 60.2557 45.1996L60.1152 46.4519L58.9107 46.856C56.9166 47.5252 55.0831 48.5389 53.4638 49.864L52.0385 51.0302L50.747 49.7183C49.5559 48.5124 48.5254 47.1674 47.6956 46.0808C47.0867 45.2858 46.3975 44.3913 46.083 44.1462C45.3603 43.5962 44.5439 43.3378 43.761 43.424C42.9313 43.5167 42.1551 44.0004 41.5194 44.822C40.6896 45.8887 40.7565 47.0151 40.8703 47.5981C41.0376 48.4396 41.4658 49.0226 41.8138 49.2214C42.4829 49.6056 43.0049 49.6587 43.7343 49.7315C45.5544 49.9104 47.3343 50.3146 49.0674 53.21L49.6362 54.164L49.1143 55.1446C48.0971 57.066 47.4614 59.1465 47.2339 61.3197L47.0466 63.1218L45.2131 63.102C43.4064 63.0821 42.2889 62.8966 41.4792 62.764C40.8703 62.6647 40.5892 62.6249 40.3216 62.658C39.5454 62.7574 38.8896 63.0953 38.4747 63.6055C38.0331 64.1554 37.8591 64.9174 37.9728 65.8052C38.12 66.9514 38.8561 67.5941 39.2844 67.879C39.8933 68.2831 40.4956 68.3825 40.8034 68.303C41.0978 68.2235 41.1915 68.1573 41.1915 68.1573C41.2182 68.1241 41.245 68.0711 41.2718 68.0181C42.3892 66.1696 44.0153 66.1497 46.451 66.746L47.5618 67.0177L47.8897 68.1043C48.599 70.4497 49.7834 72.5765 51.4095 74.4184L52.6206 75.7966L51.3359 77.1084C50.1247 78.3474 48.7195 79.2286 47.5953 79.9442C46.9061 80.3748 46.1298 80.8718 45.9023 81.1567C45.3335 81.859 45.0525 82.6739 45.1261 83.4425C45.1997 84.264 45.6748 85.0459 46.4912 85.6885C47.5484 86.53 48.6927 86.4902 49.2815 86.3842C50.1381 86.2385 50.7336 85.8277 50.9411 85.4898C51.3425 84.8405 51.4095 84.3171 51.4964 83.6015C51.6637 82.2168 51.8913 80.3152 54.7887 78.5793L55.6988 78.0095Z" fill="#DC0000"/>
<path d="M66.2778 60.6772C62.8183 60.6772 59.8338 58.0932 59.4457 54.6082C59.3721 53.9125 59.3989 53.2234 59.5327 52.541L63.4674 53.3162C63.4138 53.5944 63.4005 53.886 63.4339 54.1775C63.6079 55.7279 65.0198 56.8542 66.5856 56.682C67.6964 56.5627 68.6399 55.8074 68.9879 54.7606L72.7954 56.0128C71.9522 58.5305 69.6838 60.3459 67.0139 60.6374C66.773 60.6639 66.5254 60.6772 66.2778 60.6772Z" fill="#DC0000"/>
<path d="M63.3003 72.1594L59.5129 70.8475C59.6534 70.45 59.7002 70.0326 59.6534 69.6019C59.4861 68.0515 58.0809 66.9252 56.5017 67.0974C55.6451 67.1902 54.889 67.654 54.4206 68.3629L51.0614 66.1897C52.1923 64.4803 54.0191 63.3673 56.0667 63.1486C59.8474 62.7444 63.2333 65.4477 63.6482 69.1779C63.762 70.1916 63.6415 71.1987 63.3003 72.1594Z" fill="#DC0000"/>
<path d="M67.7032 72.0267C67.295 68.2965 70.0252 64.9307 73.7925 64.5199L74.2275 68.4688C72.6617 68.6411 71.5241 70.039 71.6981 71.5894L67.7032 72.0267Z" fill="#DC0000"/>
</svg>
