<svg width="276" height="43" viewBox="0 0 276 43" fill="none" xmlns="http://www.w3.org/2000/svg">
<g clip-path="url(#clip0_767_7766)">
<path d="M21.6611 5.78203H13.7983L13.7267 6.28377C11.332 19.8036 8.0436 25.7768 3.39414 25.7768C2.42877 25.7768 0.890323 25.5993 0 25.3467L1.037 19.4111C1.46682 19.5886 2.28891 19.6978 2.64368 19.6978C4.50278 19.6978 5.89796 17.23 7.93445 5.57041L8.82818 0.419828H28.6677L24.2707 25.4559H18.1953L21.6611 5.78203Z" fill="white"/>
<path d="M45.0005 0.0614376C52.222 0.0614376 56.8681 5.7479 55.6162 12.9362C54.3301 20.162 47.6817 25.8109 40.4602 25.8109C33.2387 25.8109 28.5927 20.1586 29.8787 12.9362C31.1306 5.7479 37.779 0.0614376 45.0005 0.0614376ZM41.4631 20.0903C45.253 20.0903 48.8279 16.9433 49.5408 12.9362C50.2197 8.92904 47.7909 5.78203 44.001 5.78203C40.2112 5.78203 36.6363 8.92904 35.9574 12.9362C35.2411 16.9433 37.6733 20.0903 41.4631 20.0903Z" fill="white"/>
<path d="M61.1901 0.416416H72.4504C77.8469 0.416416 81.4219 4.0993 80.5998 8.82323C79.7777 13.5437 74.9167 17.2266 69.5202 17.2266H64.3011L62.8718 25.4525H56.793L61.1901 0.416416ZM70.4481 11.8644C72.4129 11.8644 74.2379 10.5401 74.5244 8.82323C74.811 7.10637 73.4874 5.78203 71.5226 5.78203H66.3376L65.2664 11.861H70.4481V11.8644Z" fill="white"/>
<path d="M96.9701 0.0614376C104.192 0.0614376 108.838 5.7479 107.586 12.9362C106.3 20.162 99.6513 25.8109 92.4298 25.8109C85.2083 25.8109 80.5623 20.1586 81.8483 12.9362C83.1002 5.7479 89.7486 0.0614376 96.9701 0.0614376ZM93.4293 20.0903C97.2192 20.0903 100.794 16.9433 101.507 12.9362C102.186 8.92904 99.7571 5.78203 95.9672 5.78203C92.1774 5.78203 88.6025 8.92904 87.9236 12.9362C87.2107 16.9433 89.6429 20.0903 93.4293 20.0903Z" fill="white"/>
<path d="M123.85 5.78203L120.381 25.4559H114.306L117.772 5.78544H109.192L110.124 0.419828H133.357L132.426 5.78544H123.85V5.78203Z" fill="white"/>
<path d="M136.035 0.416416H147.296C152.692 0.416416 156.267 4.0993 155.445 8.82323C154.623 13.5437 149.762 17.2266 144.365 17.2266H139.146L137.717 25.4525H131.638L136.035 0.416416ZM145.293 11.8644C147.258 11.8644 149.083 10.5401 149.37 8.82323C149.656 7.10637 148.333 5.78203 146.368 5.78203H141.183L140.112 11.861H145.293V11.8644Z" fill="white"/>
<path d="M172.709 25.4559L175.462 9.86085L161.452 25.4559H155.373L159.77 0.419828H165.849L163.13 16.0149L177.106 0.419828H183.181L178.784 25.4559H172.709Z" fill="white"/>
<path d="M187.469 0.416416H193.548L190.082 20.0869H201.162L204.628 0.416416H210.703L207.237 20.0869H210.454L208.595 30.8181L202.376 31.5349L203.447 25.4559H183.072L187.469 0.416416Z" fill="white"/>
<path d="M229.717 25.4559L232.47 9.86085L218.46 25.4559H212.381L216.778 0.419828H222.857L220.138 16.0149L234.114 0.419828H240.189L235.792 25.4559H229.717Z" fill="white"/>
<path d="M244.477 0.416416H250.556L248.874 10.0383H260.135L261.816 0.416416H267.892L263.495 25.4525H257.419L259.207 15.4005H247.946L246.159 25.4525H240.08L244.477 0.416416Z" fill="white"/>
<path d="M273.077 0C274.697 0 275.997 1.31068 275.997 2.92515C275.997 4.53961 274.694 5.85029 273.077 5.85029C271.473 5.85029 270.153 4.53961 270.153 2.92515C270.153 1.31068 271.473 0 273.077 0ZM273.077 5.34855C274.417 5.34855 275.499 4.25972 275.499 2.92515C275.499 1.59057 274.417 0.501746 273.077 0.501746C271.743 0.501746 270.655 1.59057 270.655 2.92515C270.655 4.25972 271.743 5.34855 273.077 5.34855ZM272.023 1.49159H273.298C273.888 1.49159 274.346 1.89435 274.346 2.41657C274.346 2.77838 274.117 3.08898 273.779 3.23575L274.346 4.35871H273.79L273.315 3.34156C273.309 3.34156 273.309 3.34156 273.298 3.34156H272.555V4.35871H272.023V1.49159ZM273.298 2.85688C273.585 2.85688 273.813 2.65891 273.813 2.41657C273.813 2.16399 273.585 1.9592 273.298 1.9592H272.555V2.8603H273.298V2.85688Z" fill="white"/>
<path d="M220.824 42.8811H217.825L217.437 41.1198H214.111L213.111 42.8811H210.027L215.929 32.87H218.436L220.824 42.8811ZM218.361 42.2121H219.978L217.911 33.5356H216.311L211.197 42.2121H212.726L213.725 40.4508H217.976L218.361 42.2121ZM217.72 39.2494H214.414L216.809 35.0101L217.72 39.2494ZM215.557 38.5838H216.894L216.526 36.8704L215.557 38.5838Z" fill="white"/>
<path d="M222.212 43C221.847 43 221.24 42.9351 220.855 42.8259L220.565 42.744L221.073 39.8189L221.458 39.9793C221.564 40.0237 221.823 40.0612 221.929 40.0612C222.471 40.0612 222.963 38.5662 223.577 35.0642L223.959 32.8661H232.04L230.283 42.8771H227.339L228.632 35.5352H226.381C225.453 40.7029 224.167 43 222.212 43ZM221.329 42.2491C221.612 42.2969 221.96 42.3344 222.212 42.3344C223.751 42.3344 224.904 40.0441 225.739 35.3373L225.804 34.8765H229.424L228.131 42.2184H229.72L231.245 33.5419H224.522L224.235 35.1871C223.491 39.44 222.952 40.737 221.933 40.737C221.861 40.737 221.735 40.7268 221.598 40.7063L221.329 42.2491Z" fill="white"/>
<path d="M240.616 42.8805H237.668L238.562 37.8187L234.012 42.8805H231.197L232.954 32.8695H235.898L235.018 37.9348L239.555 32.8695H242.369L240.616 42.8805ZM238.467 42.2115H240.056L241.581 33.5351H239.858L233.967 40.109L235.11 33.5351H233.52L231.996 42.2115H233.718L239.626 35.6376L238.467 42.2115Z" fill="white"/>
<path d="M243.948 43C243.532 43 242.949 42.9249 242.645 42.7815L242.417 42.6723L242.87 40.051L243.229 40.1568C243.542 40.2489 244.051 40.3308 244.334 40.3308C244.661 40.3308 244.791 40.225 244.934 40.0032L245.183 39.6277L242.407 32.8729H245.627L247.104 36.6992L249.621 32.8729H252.831L247.237 41.1227C246.432 42.3139 245.231 43 243.948 43ZM243.164 42.2491C243.375 42.2969 243.669 42.331 243.945 42.331C245.002 42.331 246.002 41.7508 246.681 40.7438L251.569 33.5351H249.976L246.943 38.143L245.166 33.5351H243.399L245.93 39.6994L245.483 40.3684C245.197 40.8087 244.849 40.9964 244.327 40.9964C244.078 40.9964 243.716 40.9521 243.396 40.8838L243.164 42.2491Z" fill="white"/>
<path d="M262.498 42.8805H259.555L260.377 38.1907L258.03 41.546H256.099L254.881 38.0815L254.039 42.8805H251.095L252.852 32.8695H256.051L257.689 37.6378L261.001 32.8695H264.252L262.498 42.8805ZM260.346 42.2115H261.936L263.46 33.5351H261.352L257.487 39.0987L255.577 33.5351H253.414L251.89 42.2115H253.479L254.666 35.4533L256.57 40.877H257.682L261.55 35.3441L260.346 42.2115Z" fill="white"/>
</g>
<defs>
<clipPath id="clip0_767_7766">
<rect width="276" height="43" fill="white"/>
</clipPath>
</defs>
</svg>
