<svg width="1920" height="894" viewBox="0 0 1920 894" fill="none" xmlns="http://www.w3.org/2000/svg">
<g opacity="0.4">
<path d="M3.05176e-05 -224H783.898L349.44 -118.592L3.05176e-05 -224Z" fill="#ECECEC"/>
<path d="M783.898 -224H1399.99L1181.61 102.63L783.898 -224Z" fill="#ECECEC"/>
<path d="M3.05176e-05 350.694L271.258 -91.712L3.05176e-05 -224V350.694Z" fill="#D6D6D6"/>
<path d="M271.258 -91.712L340.224 236.992L3.05176e-05 350.694L271.258 -91.712Z" fill="#DCDCDC"/>
<path d="M271.258 -91.712L570.125 148.096L340.224 236.992L271.258 -91.712Z" fill="#E5E5E5"/>
<path d="M3.05176e-05 350.694L326.438 485.056L149.414 648.333L3.05176e-05 350.694Z" fill="#DDDDDD"/>
<path d="M3.05176e-05 350.694V928L149.414 648.333L3.05176e-05 350.694Z" fill="#F4F4F4"/>
<path d="M340.224 236.992L326.438 485.056L3.05176e-05 350.694L340.224 236.992Z" fill="#EBEBEB"/>
<path d="M149.414 648.333L326.438 739.302L3.05176e-05 928L149.414 648.333Z" fill="#EDEDED"/>
<path d="M326.438 485.056V739.302L149.414 648.333L326.438 485.056Z" fill="#F1F1F1"/>
<path d="M326.438 739.302L443.674 928H3.05176e-05L326.438 739.302Z" fill="#D5D5D5"/>
<path d="M326.438 739.302L632.179 863.334L758.63 888.141L443.674 928L326.438 739.302Z" fill="#CCCCCC"/>
<path d="M326.438 739.302L508.032 639.347L635.674 864.026L326.438 739.302Z" fill="#E8E8E8"/>
<path d="M349.44 -118.592L570.125 -54.5024L783.898 -224L349.44 -118.592Z" fill="#DDDDDD"/>
<path d="M570.125 -54.5024L645.35 19.9168L783.898 -224L570.125 -54.5024Z" fill="#D5D5D5"/>
<path d="M645.35 19.9168L1181.61 102.63L783.898 -224L645.35 19.9168Z" fill="#CFCFCF"/>
<path d="M1399.99 -224L1459.78 -19.3664L1181.61 102.63L1399.99 -224Z" fill="#E5E5E5"/>
<path d="M1181.61 102.63L1091.94 255.578L645.35 19.9168L1181.61 102.63Z" fill="#D4D4D4"/>
<path d="M1091.94 255.578L1354.02 92.2625L1181.61 102.63L1091.94 255.578Z" fill="#DBDBDB"/>
<path d="M1354.02 92.2625L1459.78 -19.3664L1181.61 102.63L1354.02 92.2625Z" fill="#ECECEC"/>
<path d="M1354.02 92.2625L1650.59 270.054L1091.94 255.578L1354.02 92.2625Z" fill="#E2E2E2"/>
<path d="M783.898 559.475L829.901 323.814L1091.94 255.578L783.898 559.475Z" fill="#D1D1D1"/>
<path d="M340.224 236.992L542.515 569.805L326.438 485.056L340.224 236.992Z" fill="#D3D3D3"/>
<path d="M570.125 148.096L542.515 569.805L340.224 236.992L570.125 148.096Z" fill="#DBDBDB"/>
<path d="M570.125 148.096L829.901 323.814L542.515 569.805L570.125 148.096Z" fill="#E4E4E4"/>
<path d="M542.515 569.805L783.898 559.475L829.901 323.814L542.515 569.805Z" fill="#E7E7E7"/>
<path d="M570.125 148.096V-54.5024L829.901 323.814L570.125 148.096Z" fill="#DFDFDF"/>
<path d="M570.125 148.096V-54.5024L3.05176e-05 -224L271.258 -91.712L570.125 148.096Z" fill="#F7F7F7"/>
<path d="M1399.99 -224L1650.59 -139.251L1920 -224H1399.99Z" fill="#F6F6F6"/>
<path d="M1920 928L1793.09 752.627L1920 270.054V928Z" fill="#CCCCCC"/>
<path d="M1091.94 255.578L1234.48 752.627L783.898 559.475L1091.94 255.578Z" fill="#EDEDED"/>
<path d="M508.032 639.347L783.898 559.475L635.674 864.026L508.032 639.347Z" fill="#EBEBEB"/>
<path d="M508.032 639.347L542.515 569.805L783.898 559.475L508.032 639.347Z" fill="#F3F3F3"/>
<path d="M326.438 485.056V739.302L508.032 639.347L542.515 569.805L326.438 485.056Z" fill="#F0F0F0"/>
<path d="M783.898 559.475L758.63 888.141L635.674 864.026L783.898 559.475Z" fill="#DFDFDF"/>
<path d="M783.898 559.475L1160.91 855.078L758.63 888.141L783.898 559.475Z" fill="#F7F7F7"/>
<path d="M1091.94 255.578L1418.38 582.208L1234.48 752.627L1091.94 255.578Z" fill="#F5F5F5"/>
<path d="M1650.59 270.054L1418.38 582.208L1091.94 255.578L1650.59 270.054Z" fill="#EDEDED"/>
<path d="M1418.38 582.208L1570.1 712.691L1383.9 853.005L1234.48 752.627L1418.38 582.208Z" fill="#EEEEEE"/>
<path d="M1234.48 752.627L1160.91 855.078L783.898 559.475L1234.48 752.627Z" fill="#E2E2E2"/>
<path d="M443.674 928H1163.21L758.63 888.141L443.674 928Z" fill="#E5E5E5"/>
<path d="M1160.91 855.078L1140.21 928L758.63 888.141L1160.91 855.078Z" fill="#D5D5D5"/>
<path d="M1140.21 928L1383.9 853.005L1234.48 752.627L1160.91 855.078L1140.21 928Z" fill="#D8D8D8"/>
<path d="M1140.21 928L1383.9 853.005L1920 928H1140.21Z" fill="#C5C5C5"/>
<path d="M1383.9 853.005L1793.09 752.627L1920 928L1383.9 853.005Z" fill="#BEBEBE"/>
<path d="M1570.1 712.691L1383.9 853.005L1793.09 752.627L1570.1 712.691Z" fill="#E2E2E2"/>
<path d="M1570.1 712.691L1747.12 648.333L1793.09 752.627L1570.1 712.691Z" fill="#F3F3F3"/>
<path d="M1650.59 270.054L1920 270.054L1793.09 752.627L1747.12 648.333L1650.59 270.054Z" fill="#EDEDED"/>
<path d="M1354.02 92.2625L1602.32 102.63L1650.59 270.054L1354.02 92.2625Z" fill="#EBEBEB"/>
<path d="M1602.32 102.63L1920 270.054L1650.59 270.054L1602.32 102.63Z" fill="#E2E2E2"/>
<path d="M271.258 -91.712L570.125 -54.5024V148.096L271.258 -91.712Z" fill="#EEEEEE"/>
<path d="M1602.32 102.63L1622.98 -54.5024L1920 270.054L1602.32 102.63Z" fill="#F7F7F7"/>
<path d="M1622.98 -54.5024L1920 -224V270.054L1622.98 -54.5024Z" fill="#EFEFEF"/>
<path d="M1459.78 -19.3664L1650.59 -139.251L1399.99 -224L1459.78 -19.3664Z" fill="#FAFAFA"/>
<path d="M1622.98 -54.5024L1459.78 -19.3664L1354.02 92.2625L1602.32 102.63L1622.98 -54.5024Z" fill="#F3F3F3"/>
<path d="M1418.38 582.208L1747.12 648.333L1570.1 712.691L1418.38 582.208Z" fill="#EEEEEE"/>
<path d="M1418.38 582.208L1650.59 270.054L1747.12 648.333L1418.38 582.208Z" fill="#F9F9F9"/>
<path d="M1459.78 -19.3664L1650.59 -139.251L1920 -224L1622.98 -54.5024L1459.78 -19.3664Z" fill="#F9F9F9"/>
<path d="M570.125 -54.5024L645.35 19.9168L1091.94 255.578L829.901 323.814L570.125 -54.5024Z" fill="#EEEEEE"/>
</g>
</svg>
