<svg width="129" height="129" viewBox="0 0 129 129" fill="none" xmlns="http://www.w3.org/2000/svg">
<path d="M77.4673 72.6695C77.4673 72.6872 77.4584 72.7005 77.4584 72.7183C77.4584 74.5203 78.9232 75.9805 80.7308 75.9805C82.5384 75.9805 84.0032 74.5203 84.0032 72.7183C84.0032 70.9163 82.5384 69.4561 80.7308 69.4561C80.1253 69.4561 79.591 69.6647 79.1057 69.9488L70.9313 65.2441C71.1049 64.6449 71.2296 64.028 71.2296 63.3756C71.2296 62.7231 71.1049 62.1018 70.9313 61.507L98.117 45.8618C98.9896 46.7717 100.112 47.4286 101.381 47.7348V57.5613C99.6886 58.2049 98.4821 59.8204 98.4821 61.7334C98.4821 64.2055 100.495 66.2117 102.974 66.2117C105.454 66.2117 107.467 64.2055 107.467 61.7334C107.467 59.8204 106.26 58.2005 104.568 57.5613V47.7304C107.511 47.0158 109.706 44.3883 109.706 41.2327C109.706 37.5266 106.692 34.5263 102.979 34.5263C101.064 34.5263 99.3503 35.3296 98.1259 36.6079L73.0506 22.1744C73.4023 21.2068 73.6249 20.1771 73.6249 19.0897C73.6249 14.07 69.5422 10 64.5067 10C59.4711 10 55.3884 14.07 55.3884 19.0897C55.3884 20.1771 55.611 21.2068 55.9627 22.1744L30.883 36.6035C29.6586 35.3252 27.94 34.5219 26.03 34.5219C22.3123 34.5219 19.3026 37.5266 19.3026 41.2282C19.3026 44.3839 21.4976 47.0114 24.4405 47.726V57.5525C22.7487 58.196 21.5421 59.8116 21.5421 61.7245C21.5421 64.1967 23.5545 66.2028 26.0344 66.2028C28.5144 66.2028 30.5268 64.1967 30.5268 61.7245C30.5268 59.8116 29.3202 58.196 27.6284 57.5525V47.726C28.8928 47.4197 30.0192 46.7628 30.8919 45.853L58.0776 61.4981C57.9039 62.0973 57.7793 62.7143 57.7793 63.3667C57.7793 64.0191 57.9039 64.6405 58.0776 65.2352L49.9833 69.8955C49.5114 69.6336 48.9993 69.4472 48.425 69.4472C46.6174 69.4472 45.1526 70.9074 45.1526 72.7094C45.1526 74.5114 46.6174 75.9716 48.425 75.9716C50.2326 75.9716 51.6974 74.5114 51.6974 72.7094C51.6974 72.665 51.6752 72.6295 51.6752 72.5896L59.6581 67.9959C60.8825 69.2741 62.6011 70.0775 64.5156 70.0775C66.4301 70.0775 68.1442 69.2741 69.373 67.9959L77.4673 72.6695ZM62.9083 56.8734C61.6394 57.1796 60.5174 57.8365 59.6448 58.7464L32.4591 43.1012C32.6327 42.502 32.7574 41.8851 32.7574 41.2327C32.7574 40.5802 32.6327 39.9633 32.4591 39.3641L57.5566 24.9173C58.9012 26.5107 60.7623 27.638 62.9083 28.0197V56.8734ZM66.0917 28.0153C68.2332 27.638 70.0943 26.5062 71.4433 24.9128L96.5409 39.3597C96.3672 39.9544 96.2426 40.5758 96.2426 41.2282C96.2426 41.8807 96.3672 42.502 96.5409 43.1012L69.3552 58.7464C68.4826 57.8365 67.3606 57.1796 66.0917 56.8734V28.0153Z" fill="white"/>
<path d="M117.774 66.0031C89.1323 66.0031 65.8334 89.2289 65.8334 117.781V120H68.0596C96.7011 120 120 96.7741 120 68.2222V66.0031H117.774ZM70.3391 115.508C71.4967 91.2084 91.118 71.6486 115.494 70.4947C114.337 94.7946 94.7154 114.354 70.3391 115.508Z" fill="white"/>
<path d="M11.2261 66.0031H9V68.2222C9 96.7741 32.2988 120 60.9404 120H63.1665V117.781C63.1665 89.2334 39.8677 66.0031 11.2261 66.0031ZM13.5057 70.4947C37.882 71.6486 57.5032 91.2084 58.6608 115.508C34.2845 114.354 14.6633 94.7946 13.5057 70.4947Z" fill="white"/>
</svg>
