<svg width="447" height="341" viewBox="0 0 447 341" fill="none" xmlns="http://www.w3.org/2000/svg">
<path d="M163.013 180.57C164.304 180.57 165.348 179.526 165.348 178.236V163.749C165.348 162.458 164.304 161.415 163.013 161.415C161.721 161.415 160.677 162.458 160.677 163.749V178.236C160.677 179.526 161.721 180.57 163.013 180.57Z" fill="#DC0000"/>
<path d="M187.535 209.667C188.342 209.667 189.128 209.247 189.559 208.501C190.202 207.383 189.821 205.959 188.703 205.316L177.604 198.918C176.496 198.276 175.061 198.656 174.418 199.774C173.775 200.891 174.156 202.315 175.274 202.958L186.372 209.361C186.738 209.569 187.139 209.667 187.535 209.667Z" fill="#DC0000"/>
<path d="M150.623 143.324C151.429 143.324 152.216 142.903 152.647 142.157C153.29 141.039 152.909 139.615 151.791 138.973L140.692 132.574C139.579 131.932 138.149 132.312 137.501 133.43C136.857 134.547 137.238 135.971 138.357 136.614L149.455 143.012C149.826 143.225 150.227 143.324 150.623 143.324Z" fill="#DC0000"/>
<path d="M216.174 209.514C216.57 209.514 216.971 209.415 217.337 209.203L228.163 202.953C229.282 202.31 229.663 200.881 229.019 199.769C228.376 198.651 226.946 198.271 225.833 198.913L215.007 205.163C213.888 205.806 213.507 207.235 214.151 208.347C214.586 209.099 215.368 209.514 216.174 209.514Z" fill="#DC0000"/>
<path d="M240.429 180.273C241.721 180.273 242.765 179.23 242.765 177.939V164.639C242.765 163.348 241.721 162.305 240.429 162.305C239.138 162.305 238.094 163.348 238.094 164.639V177.939C238.094 179.23 239.138 180.273 240.429 180.273Z" fill="#DC0000"/>
<path d="M226.808 143.002C227.614 143.002 228.401 142.587 228.831 141.835C229.475 140.718 229.094 139.294 227.975 138.651L215.714 131.581C214.601 130.938 213.171 131.319 212.528 132.436C211.884 133.553 212.265 134.977 213.384 135.62L225.645 142.691C226.011 142.898 226.412 143.002 226.808 143.002Z" fill="#DC0000"/>
<path d="M176.026 143.353C176.422 143.353 176.823 143.254 177.189 143.042L190.054 135.62C191.172 134.977 191.553 133.549 190.91 132.436C190.266 131.319 188.836 130.938 187.723 131.581L174.858 139.002C173.74 139.645 173.359 141.074 174.002 142.186C174.438 142.933 175.219 143.353 176.026 143.353Z" fill="#DC0000"/>
<path d="M252.854 142.513C253.25 142.513 253.651 142.414 254.017 142.201L266.887 134.78C268.005 134.137 268.386 132.708 267.743 131.595C267.099 130.483 265.669 130.097 264.556 130.74L251.686 138.162C250.568 138.804 250.187 140.233 250.83 141.351C251.266 142.097 252.047 142.513 252.854 142.513Z" fill="#DC0000"/>
<path d="M201.716 115.076C207.505 115.076 212.221 119.788 212.221 125.573C212.221 131.358 207.505 136.07 201.716 136.07C195.927 136.07 191.211 131.358 191.211 125.573C191.216 119.788 195.927 115.076 201.716 115.076ZM201.716 131.403C204.937 131.403 207.55 128.792 207.55 125.573C207.55 122.354 204.937 119.744 201.716 119.744C198.495 119.744 195.882 122.354 195.882 125.573C195.882 128.792 198.495 131.403 201.716 131.403Z" fill="#DC0000"/>
<path d="M240.42 138.122C246.233 138.122 250.924 142.834 250.924 148.619C250.924 154.404 246.234 159.116 240.42 159.116C234.63 159.116 229.915 154.404 229.915 148.619C229.915 142.834 234.63 138.122 240.42 138.122ZM240.42 154.448C243.641 154.448 246.253 151.838 246.253 148.619C246.253 145.4 243.641 142.79 240.42 142.79C237.223 142.79 234.586 145.4 234.586 148.619C234.581 151.833 237.218 154.448 240.42 154.448Z" fill="#DC0000"/>
<path d="M163.018 138.122C168.807 138.122 173.522 142.834 173.522 148.619C173.522 154.404 168.807 159.116 163.018 159.116C157.228 159.116 152.513 154.404 152.513 148.619C152.513 142.834 157.228 138.122 163.018 138.122ZM163.018 154.448C166.239 154.448 168.851 151.838 168.851 148.619C168.851 145.4 166.239 142.79 163.018 142.79C159.796 142.79 157.184 145.4 157.184 148.619C157.184 151.833 159.796 154.448 163.018 154.448Z" fill="#DC0000"/>
<path d="M240.42 183.581C246.234 183.581 250.924 188.293 250.924 194.078C250.924 199.863 246.234 204.575 240.42 204.575C234.63 204.575 229.915 199.863 229.915 194.078C229.915 188.293 234.63 183.581 240.42 183.581ZM240.42 199.907C243.641 199.907 246.253 197.297 246.253 194.078C246.253 190.859 243.641 188.248 240.42 188.248C237.223 188.248 234.586 190.859 234.586 194.078C234.581 197.297 237.218 199.907 240.42 199.907Z" fill="#DC0000"/>
<path d="M163.018 183.581C168.807 183.581 173.522 188.293 173.522 194.078C173.522 199.863 168.807 204.575 163.018 204.575C157.228 204.575 152.513 199.863 152.513 194.078C152.513 188.293 157.228 183.581 163.018 183.581ZM163.018 199.907C166.239 199.907 168.851 197.297 168.851 194.078C168.851 190.859 166.239 188.248 163.018 188.248C159.796 188.248 157.184 190.859 157.184 194.078C157.184 197.297 159.796 199.907 163.018 199.907Z" fill="#DC0000"/>
<path d="M201.716 204.243C207.505 204.243 212.221 208.955 212.221 214.74C212.221 220.525 207.505 225.237 201.716 225.237C195.927 225.237 191.211 220.525 191.211 214.74C191.216 208.955 195.927 204.243 201.716 204.243ZM201.716 220.57C204.937 220.57 207.55 217.959 207.55 214.74C207.55 211.522 204.937 208.911 201.716 208.911C198.495 208.911 195.882 211.522 195.882 214.74C195.882 217.959 198.495 220.57 201.716 220.57Z" fill="#DC0000"/>
<path d="M278.816 114.631C284.605 114.631 289.321 119.343 289.321 125.128C289.321 130.913 284.605 135.625 278.816 135.625C273.027 135.625 268.312 130.913 268.312 125.128C268.312 119.343 273.027 114.631 278.816 114.631ZM278.816 130.958C282.037 130.958 284.65 128.347 284.65 125.128C284.65 121.909 282.037 119.299 278.816 119.299C275.595 119.299 272.982 121.909 272.982 125.128C272.978 128.347 275.595 130.958 278.816 130.958Z" fill="#DC0000"/>
<path d="M49.6682 113.791C50.9597 113.791 52.0037 112.747 52.0037 111.457L52.0037 96.965C52.0037 95.6745 50.9597 94.6312 49.6682 94.6312C48.3768 94.6312 47.3328 95.6745 47.3328 96.965L47.3328 111.457C47.3328 112.747 48.3768 113.791 49.6682 113.791Z" fill="#DC0000"/>
<path d="M74.1907 142.888C74.9972 142.888 75.7839 142.473 76.2144 141.722C76.8577 140.604 76.4767 139.18 75.3584 138.537L64.26 132.134C63.1516 131.492 61.7167 131.872 61.0734 132.99C60.4302 134.107 60.8112 135.531 61.9295 136.174L73.0279 142.577C73.394 142.79 73.7948 142.888 74.1907 142.888Z" fill="#DC0000"/>
<path d="M102.83 142.735C103.226 142.735 103.627 142.636 103.993 142.424L114.824 136.174C115.942 135.531 116.323 134.102 115.68 132.99C115.037 131.872 113.607 131.492 112.488 132.134L101.657 138.384C100.539 139.027 100.158 140.456 100.801 141.568C101.242 142.315 102.023 142.735 102.83 142.735Z" fill="#DC0000"/>
<path d="M127.085 113.489C128.376 113.489 129.42 112.446 129.42 111.155V97.8549C129.42 96.5645 128.376 95.5212 127.085 95.5212C125.794 95.5212 124.75 96.5645 124.75 97.8549L124.75 111.155C124.75 112.451 125.794 113.489 127.085 113.489Z" fill="#DC0000"/>
<path d="M113.463 76.2183C114.27 76.2183 115.056 75.803 115.487 75.0514C116.13 73.934 115.749 72.51 114.631 71.8672L102.37 64.7967C101.256 64.154 99.8263 64.5347 99.1831 65.6521C98.5399 66.7696 98.9209 68.1936 100.039 68.8363L112.3 75.9068C112.666 76.1194 113.067 76.2183 113.463 76.2183Z" fill="#DC0000"/>
<path d="M62.6815 76.5694C63.0774 76.5694 63.4782 76.4705 63.8444 76.2579L76.7092 68.8363C77.8275 68.1936 78.2085 66.7646 77.5652 65.6521C76.922 64.5347 75.492 64.154 74.3737 64.7968L61.5088 72.2183C60.3906 72.8611 60.0096 74.29 60.6529 75.4025C61.0932 76.154 61.875 76.5694 62.6815 76.5694Z" fill="#DC0000"/>
<path d="M88.3717 48.2973C94.1609 48.2973 98.8763 53.0093 98.8763 58.7943C98.8763 64.5792 94.1609 69.2912 88.3717 69.2912C82.5825 69.2912 77.867 64.5792 77.867 58.7943C77.867 53.0093 82.5825 48.2973 88.3717 48.2973ZM88.3717 64.6237C91.5928 64.6237 94.2054 62.0131 94.2054 58.7943C94.2054 55.5755 91.5928 52.9648 88.3717 52.9648C85.1505 52.9648 82.5379 55.5755 82.5379 58.7943C82.5379 62.0131 85.1505 64.6237 88.3717 64.6237Z" fill="#DC0000"/>
<path d="M127.095 71.3431C132.884 71.3431 137.6 76.0551 137.6 81.8401C137.6 87.625 132.884 92.337 127.095 92.337C121.281 92.337 116.59 87.625 116.59 81.8401C116.59 76.0551 121.281 71.3431 127.095 71.3431ZM127.095 87.6695C130.291 87.6695 132.929 85.0589 132.929 81.8401C132.929 78.6213 130.291 76.0106 127.095 76.0106C123.874 76.0106 121.261 78.6213 121.261 81.8401C121.261 85.0589 123.874 87.6695 127.095 87.6695Z" fill="#DC0000"/>
<path d="M201.721 112.169C203.012 112.169 204.057 111.126 204.057 109.835V96.5348C204.057 95.2443 203.012 94.201 201.721 94.201C200.43 94.201 199.386 95.2443 199.386 96.5348V109.835C199.386 111.126 200.43 112.169 201.721 112.169Z" fill="#DC0000"/>
<path d="M201.716 70.0131C207.505 70.0131 212.221 74.7251 212.221 80.51C212.221 86.295 207.505 91.007 201.716 91.007C195.927 91.007 191.211 86.295 191.211 80.51C191.216 74.7251 195.927 70.0131 201.716 70.0131ZM201.716 86.3394C204.937 86.3394 207.55 83.7288 207.55 80.51C207.55 77.2912 204.937 74.6806 201.716 74.6806C198.495 74.6806 195.882 77.2912 195.882 80.51C195.882 83.7288 198.495 86.3394 201.716 86.3394Z" fill="#DC0000"/>
<path d="M49.6732 71.3431C55.4624 71.3431 60.1779 76.0551 60.1779 81.8401C60.1779 87.625 55.4624 92.337 49.6732 92.337C43.884 92.337 39.1686 87.625 39.1686 81.8401C39.1686 76.0551 43.884 71.3431 49.6732 71.3431ZM49.6732 87.6695C52.8944 87.6695 55.5069 85.0589 55.5069 81.8401C55.5069 78.6213 52.8944 76.0106 49.6732 76.0106C46.4521 76.0106 43.8395 78.6213 43.8395 81.8401C43.8345 85.0589 46.4521 87.6695 49.6732 87.6695Z" fill="#DC0000"/>
<path d="M23.5179 145.01C23.9138 145.01 24.3146 144.911 24.6807 144.698L37.5456 137.277C38.6638 136.634 39.0448 135.205 38.4016 134.092C37.7583 132.975 36.3284 132.589 35.2151 133.237L22.3502 140.659C21.232 141.301 20.8509 142.73 21.4942 143.848C21.9296 144.594 22.7114 145.01 23.5179 145.01Z" fill="#DC0000"/>
<path d="M10.5047 139.778C16.2938 139.778 21.0093 144.49 21.0093 150.275C21.0093 156.06 16.2938 160.772 10.5047 160.772C4.71547 160.772 1.01147e-06 156.06 0 150.275C-1.01234e-06 144.486 4.71546 139.778 10.5047 139.778ZM10.5047 156.105C13.7258 156.105 16.3384 153.494 16.3384 150.275C16.3384 147.057 13.7258 144.446 10.5047 144.446C7.28349 144.446 4.67092 147.057 4.67092 150.275C4.67092 153.489 7.28349 156.105 10.5047 156.105Z" fill="#DC0000"/>
<path d="M127.095 116.802C132.884 116.802 137.6 121.514 137.6 127.299C137.6 133.084 132.884 137.796 127.095 137.796C121.281 137.796 116.59 133.084 116.59 127.299C116.59 121.514 121.281 116.802 127.095 116.802ZM127.095 133.128C130.291 133.128 132.929 130.518 132.929 127.299C132.929 124.08 130.291 121.469 127.095 121.469C123.874 121.469 121.261 124.08 121.261 127.299C121.261 130.518 123.874 133.128 127.095 133.128Z" fill="#DC0000"/>
<path d="M49.6732 116.802C55.4624 116.802 60.1779 121.514 60.1779 127.299C60.1779 133.084 55.4624 137.796 49.6732 137.796C43.884 137.796 39.1686 133.084 39.1686 127.299C39.1686 121.514 43.884 116.802 49.6732 116.802ZM49.6732 133.128C52.8944 133.128 55.5069 130.518 55.5069 127.299C55.5069 124.08 52.8944 121.469 49.6732 121.469C46.4521 121.469 43.8395 124.08 43.8395 127.299C43.8345 130.518 46.4521 133.128 49.6732 133.128Z" fill="#DC0000"/>
<path d="M88.3717 137.469C94.1609 137.469 98.8764 142.181 98.8764 147.966C98.8764 153.751 94.1609 158.463 88.3717 158.463C82.5825 158.463 77.867 153.751 77.867 147.966C77.867 142.176 82.5825 137.469 88.3717 137.469ZM88.3717 153.796C91.5929 153.796 94.2054 151.185 94.2054 147.966C94.2054 144.748 91.5929 142.137 88.3717 142.137C85.1505 142.137 82.538 144.748 82.538 147.966C82.538 151.18 85.1505 153.796 88.3717 153.796Z" fill="#DC0000"/>
<path d="M177.199 319.29C176.796 319.989 176.766 320.88 177.198 321.626C177.844 322.742 179.268 323.124 180.383 322.477L191.473 316.065C192.587 315.422 192.972 313.993 192.328 312.873C191.682 311.757 190.259 311.375 189.143 312.022L178.053 318.435C177.683 318.65 177.397 318.947 177.199 319.29Z" fill="#DC0000"/>
<path d="M175.506 332.625C172.612 337.639 166.173 339.366 161.163 336.474C156.153 333.582 154.43 327.142 157.325 322.128C160.22 317.115 166.658 315.387 171.668 318.279C176.678 321.172 178.401 327.612 175.506 332.625ZM161.367 324.462C159.757 327.252 160.711 330.819 163.499 332.429C166.286 334.038 169.854 333.081 171.464 330.291C173.075 327.502 172.12 323.934 169.333 322.325C166.549 320.718 162.978 321.672 161.367 324.462Z" fill="#DC0000"/>
<path d="M253.253 246.627C252.607 247.746 252.988 249.172 254.106 249.817L266.656 257.063C267.774 257.708 269.199 257.326 269.845 256.207C270.491 255.089 270.109 253.663 268.992 253.018L256.441 245.772C255.324 245.127 253.898 245.509 253.253 246.627Z" fill="#DC0000"/>
<path d="M215.792 253.316C215.389 254.014 215.355 254.903 215.791 255.652C216.437 256.767 217.86 257.15 218.976 256.502L230.071 250.092C231.181 249.454 231.569 248.021 230.923 246.905C230.277 245.789 228.853 245.407 227.737 246.054L216.643 252.464C216.276 252.675 215.99 252.973 215.792 253.316Z" fill="#DC0000"/>
<path d="M201.605 278.195C201.407 278.537 201.292 278.934 201.293 279.357L201.29 291.862C201.288 293.152 202.335 294.197 203.62 294.196C204.909 294.197 205.954 293.149 205.956 291.859L205.96 279.354C205.962 278.065 204.915 277.02 203.63 277.021C202.763 277.029 202.008 277.496 201.605 278.195Z" fill="#DC0000"/>
<path d="M214.805 313.823C214.16 314.942 214.541 316.367 215.659 317.013L227.177 323.663C228.295 324.308 229.72 323.926 230.366 322.807C231.012 321.689 230.63 320.263 229.513 319.618L217.994 312.967C216.872 312.32 215.451 312.705 214.805 313.823Z" fill="#DC0000"/>
<path d="M253.894 320.662C253.491 321.36 253.457 322.249 253.892 322.998C254.539 324.114 255.962 324.496 257.078 323.849L269.332 316.765C270.445 316.122 270.831 314.694 270.184 313.578C269.538 312.462 268.115 312.08 266.999 312.727L254.745 319.81C254.378 320.021 254.092 320.319 253.894 320.662Z" fill="#DC0000"/>
<path d="M278.981 276.508C278.783 276.851 278.668 277.247 278.669 277.671L278.664 292.523C278.661 293.813 279.708 294.857 280.993 294.856C282.283 294.858 283.327 293.81 283.33 292.52L283.335 277.668C283.338 276.378 282.291 275.334 281.005 275.335C280.134 275.34 279.384 275.809 278.981 276.508Z" fill="#DC0000"/>
<path d="M290.62 312.892C287.725 317.906 281.287 319.634 276.277 316.741C271.267 313.849 269.544 307.409 272.439 302.395C275.333 297.382 281.772 295.654 286.781 298.547C291.791 301.439 293.514 307.879 290.62 312.892ZM276.481 304.729C274.87 307.519 275.825 311.087 278.612 312.696C281.4 314.305 284.967 313.348 286.578 310.559C288.188 307.769 287.234 304.201 284.446 302.592C281.658 300.982 278.091 301.94 276.481 304.729Z" fill="#DC0000"/>
<path d="M251.3 334.905C248.405 339.918 241.967 341.646 236.957 338.754C231.947 335.861 230.224 329.421 233.119 324.408C236.026 319.373 242.452 317.667 247.462 320.559C252.472 323.451 254.207 329.87 251.3 334.905ZM237.161 326.742C235.563 329.51 236.505 333.099 239.292 334.708C242.08 336.318 245.66 335.339 247.258 332.571C248.868 329.781 247.914 326.214 245.126 324.604C242.339 322.995 238.771 323.952 237.161 326.742Z" fill="#DC0000"/>
<path d="M290.011 267.856C287.116 272.869 280.678 274.597 275.668 271.704C270.658 268.812 268.935 262.372 271.83 257.359C274.724 252.345 281.163 250.617 286.172 253.51C291.182 256.402 292.905 262.842 290.011 267.856ZM275.872 259.692C274.261 262.482 275.216 266.05 278.003 267.659C280.791 269.269 284.358 268.311 285.969 265.522C287.579 262.732 286.625 259.164 283.837 257.555C281.052 255.941 277.482 256.903 275.872 259.692Z" fill="#DC0000"/>
<path d="M239.291 208.371C239.093 208.714 238.979 209.111 238.98 209.534L238.975 224.386C238.972 225.676 240.019 226.72 241.304 226.719C242.593 226.721 243.642 225.676 243.638 224.388L243.643 209.535C243.646 208.246 242.599 207.201 241.309 207.2C240.445 207.203 239.695 207.673 239.291 208.371Z" fill="#DC0000"/>
<path d="M250.328 199.717C247.434 204.731 240.995 206.458 235.985 203.566C230.975 200.673 229.252 194.234 232.147 189.22C235.042 184.206 241.48 182.479 246.49 185.371C251.504 188.266 253.223 194.703 250.328 199.717ZM236.189 191.554C234.579 194.343 235.533 197.911 238.321 199.521C241.108 201.13 244.676 200.173 246.286 197.383C247.897 194.594 246.942 191.026 244.155 189.416C241.371 187.809 237.8 188.764 236.189 191.554Z" fill="#DC0000"/>
<path d="M211.932 312.175C209.037 317.189 202.598 318.917 197.589 316.024C192.579 313.132 190.856 306.692 193.75 301.678C196.657 296.643 203.083 294.937 208.093 297.83C213.103 300.722 214.838 307.14 211.932 312.175ZM197.792 304.012C196.194 306.78 197.136 310.37 199.924 311.979C202.712 313.589 206.291 312.61 207.889 309.842C209.5 307.052 208.545 303.484 205.758 301.875C202.97 300.265 199.403 301.223 197.792 304.012Z" fill="#DC0000"/>
<path d="M250.642 245.126C247.748 250.14 241.309 251.868 236.299 248.975C231.289 246.083 229.566 239.643 232.461 234.629C235.356 229.616 241.794 227.888 246.804 230.78C251.814 233.673 253.537 240.113 250.642 245.126ZM236.503 236.963C234.893 239.753 235.847 243.32 238.635 244.93C241.422 246.539 244.99 245.582 246.6 242.792C248.211 240.003 247.256 236.435 244.469 234.826C241.683 233.212 238.114 234.173 236.503 236.963Z" fill="#DC0000"/>
<path d="M213.394 268.306C210.5 273.32 204.061 275.048 199.052 272.155C194.042 269.263 192.319 262.823 195.213 257.809C198.108 252.796 204.546 251.068 209.556 253.961C214.57 256.855 216.289 263.293 213.394 268.306ZM199.255 260.143C197.645 262.933 198.599 266.501 201.387 268.11C204.175 269.719 207.742 268.762 209.352 265.973C210.963 263.183 210.008 259.615 207.221 258.006C204.437 256.399 200.866 257.354 199.255 260.143Z" fill="#DC0000"/>
<path d="M358.098 65.4934C359.39 65.4934 360.434 64.4502 360.434 63.1597V48.6677C360.434 47.3772 359.39 46.3339 358.098 46.3339C356.807 46.3339 355.763 47.3772 355.763 48.6677V63.1597C355.763 64.4502 356.807 65.4934 358.098 65.4934Z" fill="#DC0000"/>
<path d="M382.621 94.5912C383.427 94.5912 384.214 94.1758 384.645 93.4243C385.288 92.3069 384.907 90.8829 383.789 90.2401L372.69 83.8371C371.582 83.1944 370.147 83.5751 369.504 84.6925C368.86 85.8099 369.241 87.2339 370.36 87.8767L381.458 94.2797C381.824 94.4923 382.225 94.5912 382.621 94.5912Z" fill="#DC0000"/>
<path d="M411.26 94.4379C411.656 94.4379 412.057 94.339 412.423 94.1264L423.254 87.8767C424.372 87.2339 424.753 85.805 424.11 84.6925C423.467 83.5751 422.037 83.1944 420.919 83.8371L410.087 90.0868C408.969 90.7296 408.588 92.1585 409.231 93.271C409.672 94.0176 410.453 94.4379 411.26 94.4379Z" fill="#DC0000"/>
<path d="M435.515 65.1918C436.807 65.1918 437.851 64.1485 437.851 62.8581V49.5576C437.851 48.2672 436.807 47.2239 435.515 47.2239C434.224 47.2239 433.18 48.2672 433.18 49.5576V62.8581C433.18 64.1535 434.224 65.1918 435.515 65.1918Z" fill="#DC0000"/>
<path d="M421.893 27.921C422.7 27.921 423.487 27.5057 423.917 26.7541C424.56 25.6367 424.179 24.2127 423.061 23.5699L410.8 16.4994C409.687 15.8567 408.257 16.2374 407.613 17.3548C406.97 18.4723 407.351 19.8962 408.469 20.539L420.73 27.6095C421.097 27.8221 421.497 27.921 421.893 27.921Z" fill="#DC0000"/>
<path d="M371.112 28.272C371.508 28.272 371.908 28.1732 372.275 27.9605L385.139 20.539C386.258 19.8962 386.639 18.4673 385.995 17.3548C385.352 16.2374 383.922 15.8567 382.804 16.4994L369.939 23.921C368.821 24.5637 368.44 25.9927 369.083 27.1052C369.523 27.8567 370.305 28.272 371.112 28.272Z" fill="#DC0000"/>
<path d="M396.802 0C402.591 -1.01221e-06 407.306 4.71201 407.306 10.4969C407.306 16.2819 402.591 20.9939 396.802 20.9939C391.013 20.9939 386.297 16.2819 386.297 10.4969C386.297 4.71201 391.013 1.01221e-06 396.802 0ZM396.802 16.3264C400.023 16.3264 402.636 13.7157 402.636 10.4969C402.636 7.27814 400.023 4.66751 396.802 4.66751C393.581 4.66751 390.968 7.27815 390.968 10.4969C390.968 13.7157 393.581 16.3264 396.802 16.3264Z" fill="#DC0000"/>
<path d="M435.525 23.0458C441.314 23.0458 446.03 27.7578 446.03 33.5428C446.03 39.3277 441.314 44.0397 435.525 44.0397C429.711 44.0397 425.02 39.3277 425.02 33.5428C425.02 27.7578 429.711 23.0458 435.525 23.0458ZM435.525 39.3722C438.721 39.3722 441.359 36.7616 441.359 33.5428C441.359 30.324 438.721 27.7133 435.525 27.7133C432.304 27.7133 429.691 30.324 429.691 33.5428C429.691 36.7616 432.304 39.3722 435.525 39.3722Z" fill="#DC0000"/>
<path d="M358.103 23.0458C363.893 23.0458 368.608 27.7578 368.608 33.5428C368.608 39.3277 363.893 44.0397 358.103 44.0397C352.314 44.0397 347.599 39.3277 347.599 33.5428C347.599 27.7578 352.314 23.0458 358.103 23.0458ZM358.103 39.3722C361.325 39.3722 363.937 36.7616 363.937 33.5428C363.937 30.324 361.325 27.7133 358.103 27.7133C354.882 27.7133 352.27 30.324 352.27 33.5428C352.265 36.7616 354.882 39.3722 358.103 39.3722Z" fill="#DC0000"/>
<path d="M331.948 96.7123C332.344 96.7123 332.745 96.6134 333.111 96.4008L345.976 88.9793C347.094 88.3365 347.475 86.9076 346.832 85.7951C346.188 84.6777 344.759 84.292 343.645 84.9397L330.78 92.3613C329.662 93.004 329.281 94.433 329.924 95.5504C330.36 96.297 331.142 96.7123 331.948 96.7123Z" fill="#DC0000"/>
<path d="M318.935 91.4812C324.724 91.4812 329.439 96.1932 329.439 101.978C329.439 107.763 324.724 112.475 318.935 112.475C313.146 112.475 308.43 107.763 308.43 101.978C308.43 96.1882 313.146 91.4812 318.935 91.4812ZM318.935 107.808C322.156 107.808 324.769 105.197 324.769 101.978C324.769 98.7593 322.156 96.1487 318.935 96.1487C315.714 96.1487 313.101 98.7593 313.101 101.978C313.101 105.192 315.714 107.808 318.935 107.808Z" fill="#DC0000"/>
<path d="M435.525 68.5046C441.314 68.5046 446.03 73.2166 446.03 79.0015C446.03 84.7864 441.314 89.4985 435.525 89.4985C429.711 89.4985 425.02 84.7864 425.02 79.0015C425.02 73.2166 429.711 68.5046 435.525 68.5046ZM435.525 84.8309C438.721 84.8309 441.359 82.2203 441.359 79.0015C441.359 75.7827 438.721 73.1721 435.525 73.1721C432.304 73.1721 429.691 75.7827 429.691 79.0015C429.691 82.2203 432.304 84.8309 435.525 84.8309Z" fill="#DC0000"/>
<path d="M358.103 68.5046C363.893 68.5046 368.608 73.2166 368.608 79.0015C368.608 84.7864 363.893 89.4985 358.103 89.4985C352.314 89.4985 347.599 84.7865 347.599 79.0015C347.599 73.2166 352.314 68.5046 358.103 68.5046ZM358.103 84.831C361.325 84.831 363.937 82.2203 363.937 79.0015C363.937 75.7827 361.325 73.1721 358.103 73.1721C354.882 73.1721 352.27 75.7827 352.27 79.0015C352.265 82.2203 354.882 84.831 358.103 84.831Z" fill="#DC0000"/>
<path d="M396.802 89.1721C402.591 89.1721 407.307 93.8841 407.307 99.6691C407.307 105.454 402.591 110.166 396.802 110.166C391.013 110.166 386.297 105.454 386.297 99.6691C386.297 93.8792 391.013 89.1721 396.802 89.1721ZM396.802 105.499C400.023 105.499 402.636 102.888 402.636 99.6691C402.636 96.4503 400.023 93.8396 396.802 93.8396C393.581 93.8396 390.968 96.4503 390.968 99.6691C390.968 102.883 393.581 105.499 396.802 105.499Z" fill="#DC0000"/>
</svg>
