<svg width="129" height="129" viewBox="0 0 129 129" fill="none" xmlns="http://www.w3.org/2000/svg">
<path d="M105.465 89.3003L101.405 86.429C108.199 76.5025 119.754 52.9635 114.859 34.9058C112.411 25.8794 106.102 18.9701 96.1097 14.3739C81.588 7.69592 62.1467 6.20745 42.7696 10.2957C42.6855 10.3158 32.8511 12.3876 28.2331 13.3581C29.3159 16.9486 32.505 19.5886 36.3369 19.7998L47.2591 20.4032C51.5212 20.6396 55.358 23.0131 57.5286 26.7493L71.1751 50.243C72.2827 52.1489 74.3099 53.2602 76.4953 53.1446C79.9515 52.9635 83.3038 54.4922 85.4645 57.2429L86.1517 58.1179C88.9206 61.6379 89.7216 66.2894 88.2926 70.5586L87.0516 74.2698C85.4595 79.0218 81.2617 82.4815 76.3618 83.0749L73.0194 83.4822L72.431 78.4888L75.7734 78.0815C78.7994 77.7144 81.3903 75.5822 82.3693 72.6455L83.6103 68.9344C84.4904 66.2994 84.0009 63.4331 82.2901 61.2557L81.6029 60.3807C80.436 58.8923 78.6264 58.0676 76.7524 58.1631C72.7277 58.3743 68.965 56.3176 66.918 52.7976L53.2715 29.3039C51.9414 27.0209 49.5928 25.5676 46.9872 25.4218L36.065 24.8184C29.0044 24.4261 23.3529 18.7186 22.9178 11.5428L22.7843 9.36542L24.8807 8.92291C24.8807 8.92291 41.7411 5.36767 41.7659 5.36264C62.1417 1.06821 82.6906 2.67736 98.1419 9.78783C109.539 15.0276 116.763 23.0282 119.62 33.5682C126.35 58.3793 106.32 88.0482 105.465 89.3003Z" fill="white"/>
<path d="M30.4876 115.575C28.9251 115.575 27.4022 115.082 26.1118 114.142L23.1105 111.954C20.2279 109.852 19.1698 105.93 20.5938 102.626L21.8349 99.75L18.5024 96.0238C17.8744 95.3197 17.553 94.4096 17.5975 93.4541C17.647 92.5037 18.0573 91.6287 18.7545 90.9901L20.8064 89.1195L17.1426 86.7962C15.7335 85.9012 15.1401 84.1059 15.7285 82.5269L17.7409 77.1312L11.4417 72.7211C10.0573 71.7557 9.17719 70.2219 9.02392 68.5222C8.87064 66.8226 9.45904 65.1531 10.6457 63.9462L24.4455 49.8661C24.9696 49.328 25.2465 48.5888 25.202 47.8345L25.1921 47.6434C24.757 40.2162 26.0178 32.6582 28.8361 25.7941L28.9004 25.6432L33.4641 27.5793L33.3998 27.7301C30.8683 33.8952 29.736 40.6738 30.1266 47.3417L30.1365 47.5378C30.2651 49.7253 29.4641 51.8725 27.9461 53.4213L14.1463 67.5014C13.9485 67.7076 13.9337 67.944 13.9485 68.0646C13.9584 68.1904 14.0128 68.4217 14.2452 68.5826L21.4838 73.6514C22.8139 74.5817 23.3379 76.3015 22.7693 77.8353L20.7768 83.1756L25.0734 85.9012C25.998 86.4895 26.6062 87.5002 26.7001 88.6065C26.7941 89.7128 26.3639 90.8141 25.553 91.5533L23.1501 93.7408L26.1316 97.0747C27.0562 98.1106 27.2984 99.6092 26.7447 100.886L25.1278 104.643C24.6383 105.784 25.0042 107.137 25.998 107.866L28.9993 110.054C29.5432 110.451 30.2107 110.617 30.8732 110.521L41.4888 108.982L42.186 113.961L31.5704 115.5C31.1996 115.55 30.8436 115.575 30.4876 115.575Z" fill="white"/>
<path d="M87.0664 115.721C85.9292 115.469 85.2024 114.323 85.4496 113.166C85.6968 112.005 86.8192 111.27 87.9613 111.522C89.1035 111.768 89.8254 112.915 89.5782 114.071C89.3656 115.082 88.4904 115.766 87.5163 115.766C87.368 115.766 87.2147 115.751 87.0664 115.721ZM85.3803 105.578C85.1183 104.426 85.8303 103.27 86.9626 103.003C88.0998 102.737 89.237 103.456 89.499 104.613C89.7611 105.769 89.054 106.921 87.9168 107.187C87.7537 107.227 87.5955 107.248 87.4372 107.248C86.483 107.248 85.6078 106.574 85.3803 105.578ZM82.1616 98.7391C81.4397 97.8088 81.5979 96.4561 82.5126 95.727C83.4273 94.9928 84.7574 95.1537 85.4792 96.084C86.2011 97.0143 86.0429 98.367 85.1233 99.1012C84.7376 99.413 84.2778 99.5588 83.8229 99.5588C83.1949 99.5588 82.5769 99.2772 82.1616 98.7391ZM76.3766 93.9318C75.3383 93.3937 74.918 92.1013 75.4471 91.0453C75.9712 89.9843 77.2419 89.5619 78.2851 90.0949C78.2851 90.0949 78.2851 90.0949 78.2802 90.0949C79.3235 90.628 79.7438 91.9203 79.2147 92.9814C78.8439 93.7306 78.1022 94.1631 77.3309 94.1631C77.0144 94.1631 76.6881 94.0877 76.3766 93.9318ZM69.1479 92.0762C67.981 92.041 67.0614 91.0554 67.096 89.8686C67.1256 88.6819 68.0997 87.7466 69.2666 87.7818C70.4285 87.8119 71.3481 88.8026 71.3185 89.9893C71.2839 91.1509 70.3445 92.0762 69.2072 92.0762C69.1875 92.0762 69.1677 92.0762 69.1479 92.0762Z" fill="white"/>
<path d="M55.3035 126.532C54.3888 125.793 54.2405 124.44 54.9722 123.515C55.6991 122.585 57.0291 122.434 57.9389 123.173C58.8486 123.912 59.0019 125.265 58.2702 126.195C57.8548 126.723 57.2368 127 56.6187 127C56.1638 127 55.6941 126.849 55.3035 126.532ZM49.4691 119.17C48.9549 118.109 49.3801 116.822 50.4283 116.294C51.4716 115.766 52.7374 116.204 53.2565 117.265C53.7757 118.331 53.3455 119.618 52.3023 120.146C52.0007 120.297 51.6793 120.367 51.3628 120.367C50.5866 120.367 49.8399 119.93 49.4691 119.17ZM47.2639 109.983C47.2442 108.796 48.1688 107.816 49.3356 107.791C50.5025 107.766 51.4667 108.711 51.4914 109.898C51.5112 111.079 50.5866 112.065 49.4197 112.085C49.4049 112.085 49.39 112.085 49.3752 112.085C48.2281 112.085 47.2887 111.155 47.2639 109.983Z" fill="white"/>
<path d="M76.5249 121.348C70.0626 102.41 52.4704 89.6825 32.7472 89.6825V86.6653C53.7313 86.6653 72.4507 100.207 79.3284 120.357L76.5249 121.348Z" fill="white"/>
<path d="M68.3123 121.443C62.2356 106.905 48.2727 97.512 32.7472 97.512V94.4949C49.4692 94.4949 64.5001 104.607 71.0465 120.261L68.3123 121.443Z" fill="white"/>
</svg>
