<svg width="180" height="180" viewBox="0 0 180 180" fill="none" xmlns="http://www.w3.org/2000/svg">
<path d="M180 90.0025C180 139.71 139.706 180.003 89.9987 180.003C40.2944 180 0 139.71 0 90.0025C0 40.2949 40.2944 0 90.0013 0C139.708 0 180 40.2949 180 90.0025Z" fill="url(#paint0_linear_787_7991)"/>
<path d="M169.996 90.0024C169.996 134.182 134.18 169.999 90.0012 169.999C45.8221 169.999 10.0088 134.182 10.0088 90.0024C10.0088 45.8227 45.8221 10.0063 90.0012 10.0063C134.18 10.0063 169.996 45.8227 169.996 90.0024Z" fill="url(#paint1_linear_787_7991)"/>
<defs>
<linearGradient id="paint0_linear_787_7991" x1="-4.53937" y1="88.2579" x2="183.738" y2="91.7283" gradientUnits="userSpaceOnUse">
<stop stop-color="#F8F8F8"/>
<stop offset="1" stop-color="#CCCCCC"/>
</linearGradient>
<linearGradient id="paint1_linear_787_7991" x1="16.4304" y1="75.1736" x2="166.449" y2="105.409" gradientUnits="userSpaceOnUse">
<stop stop-color="#FFFEFE"/>
<stop offset="1" stop-color="#E4E4E4"/>
</linearGradient>
</defs>
</svg>
