<svg width="129" height="129" viewBox="0 0 129 129" fill="none" xmlns="http://www.w3.org/2000/svg">
<path d="M128.773 59.5202C128.41 56.7301 125.93 54.6252 123.008 54.6252H117.144C116.78 53.447 116.303 52.2984 115.72 51.2139L119.14 47.8273C120.295 46.6837 120.897 45.1013 120.793 43.4844C120.688 41.8724 119.882 40.3739 118.588 39.383C116.337 37.6626 113.082 37.9091 111.016 39.9598L107.69 43.2576C106.595 42.6809 105.44 42.2076 104.245 41.8478V35.9077C104.245 34.2908 103.543 32.7528 102.314 31.6831C101.811 31.2443 101.228 30.8993 100.581 30.6577V24.7768C100.581 23.7662 99.8145 22.9381 98.8039 22.8395C81.6238 21.2374 65.2951 14.9226 51.5799 4.58045C50.878 4.05299 49.9023 4.05299 49.2003 4.58045C35.4652 14.9276 19.1315 21.2423 1.97638 22.8444C0.960808 22.9381 0.199131 23.7712 0.199131 24.7817V79.2581C0.199131 104.054 36.67 120.479 47.8462 124.925L49.6284 125.67C49.8724 125.773 50.1313 125.823 50.3951 125.823C50.6639 125.823 50.9228 125.768 51.1667 125.665L52.9191 124.93C62.3479 121.184 85.3824 110.758 95.5979 94.934C95.8816 94.4953 95.9712 93.9777 95.8617 93.47C95.7472 92.9622 95.4435 92.5284 95.0005 92.2524C94.0894 91.6805 92.8747 91.9418 92.2923 92.8439C82.4253 108.135 58.5445 118.512 51.4555 121.327L50.3951 121.77L49.3198 121.327C38.721 117.112 4.13197 101.618 4.13197 79.263V26.5317C20.844 24.6634 36.8442 18.4473 50.4001 8.55859C63.941 18.4473 79.9412 24.6634 96.6682 26.5317V30.6134C94.4081 31.4218 92.8897 33.5957 92.8897 36.0359V41.8429C91.6999 42.2027 90.5399 42.676 89.4447 43.2527L86.0246 39.8661C84.8746 38.7225 83.2816 38.126 81.6437 38.2295C80.0158 38.333 78.5024 39.1316 77.5018 40.4133C75.7644 42.6414 76.0183 45.8654 78.0843 47.9111L81.4147 51.209C80.8323 52.2935 80.3544 53.4421 79.986 54.6202H73.9921C72.3593 54.6202 70.806 55.3153 69.7258 56.5329C68.6455 57.7456 68.1476 59.3674 68.3567 60.9793C68.7201 63.7695 71.1993 65.8744 74.1216 65.8744H79.986C80.3494 67.0525 80.8273 68.2011 81.4098 69.2856L77.9897 72.6722C76.8347 73.8159 76.2324 75.3933 76.3369 77.0102C76.4414 78.6271 77.243 80.1208 78.5423 81.1165C80.7925 82.8369 84.0482 82.5905 86.1142 80.5398L89.4447 77.2419C90.5399 77.8187 91.6999 78.2919 92.8897 78.6517V84.5869C92.8897 86.2038 93.5916 87.7418 94.8212 88.8115C95.8567 89.7136 97.1959 90.2115 98.5798 90.2115C98.8238 90.2115 99.0677 90.1967 99.3117 90.1672C102.129 89.8073 104.255 87.3524 104.255 84.4588V78.6567C105.445 78.2968 106.605 77.8236 107.7 77.2468L111.12 80.6334C112.27 81.7771 113.868 82.3736 115.501 82.27C117.129 82.1665 118.642 81.3679 119.648 80.0863C121.385 77.8581 121.131 74.6342 119.065 72.5884L116.517 70.0645L117.064 70.3356L115.77 69.2363C116.342 68.1666 116.81 67.0378 117.164 65.8793H123.158C124.79 65.8793 126.344 65.1842 127.424 63.9666C128.484 62.7491 128.982 61.1322 128.773 59.5202ZM113.569 64.1195C113.211 65.4948 112.663 66.8061 111.937 68.0286C111.274 69.1476 111.454 70.5624 112.37 71.4694L116.273 75.3391C116.94 75.9947 117.049 77.0398 116.522 77.7102C116.203 78.1194 115.745 78.3609 115.232 78.3905C114.729 78.4299 114.237 78.2426 113.878 77.8877L109.881 73.9293C108.965 73.0222 107.536 72.8448 106.406 73.5004C105.176 74.2152 103.847 74.7623 102.463 75.1173C101.193 75.4426 100.307 76.5666 100.307 77.8532V84.4637C100.307 85.3954 99.6402 86.2087 98.7889 86.3172C98.2712 86.3813 97.7734 86.2334 97.39 85.8982C97.0117 85.5679 96.7926 85.0897 96.7926 84.5919V77.8532C96.7926 76.5666 95.9065 75.4426 94.642 75.1173C93.2531 74.7623 91.9239 74.2152 90.6942 73.5004C90.2512 73.244 89.7484 73.106 89.2356 73.106C88.4739 73.106 87.7571 73.3969 87.2244 73.9293L83.3164 77.7989C82.6543 78.4546 81.5989 78.563 80.9219 78.0454C80.5087 77.7299 80.2648 77.2764 80.2299 76.7687C80.2001 76.2659 80.3842 75.7778 80.7377 75.4278L84.7353 71.4694C85.6513 70.5624 85.8255 69.1476 85.1634 68.0335C84.4415 66.8159 83.8889 65.4997 83.5305 64.1244C83.2019 62.8723 82.0669 61.9948 80.7676 61.9948H74.0917C73.1508 61.9948 72.3294 61.3343 72.2199 60.4913C72.1552 59.9786 72.3045 59.4906 72.643 59.1061C72.9766 58.7315 73.4595 58.5146 73.9623 58.5146H80.7676C82.0669 58.5146 83.2019 57.6371 83.5305 56.385C83.8889 55.0097 84.4415 53.6935 85.1634 52.4759C85.8255 51.3569 85.6463 49.947 84.7303 49.0351L80.8273 45.1703C80.1602 44.5097 80.0507 43.4696 80.5784 42.7943C80.897 42.3851 81.355 42.1436 81.8727 42.1091C82.3606 42.0746 82.8634 42.2569 83.2219 42.6119L87.2194 46.5703C88.1354 47.4773 89.5642 47.6499 90.6942 46.9992C91.9239 46.2844 93.2531 45.7372 94.642 45.3823C95.9065 45.0569 96.7926 43.933 96.7926 42.6464V36.0359C96.7926 35.1042 97.4597 34.2908 98.306 34.1824C98.8288 34.1232 99.3266 34.2711 99.7049 34.6014C100.083 34.9316 100.302 35.4098 100.302 35.9077V42.6513C100.302 43.9379 101.188 45.0619 102.453 45.3872C103.842 45.7421 105.171 46.2844 106.401 47.0041C107.526 47.6646 108.955 47.4872 109.876 46.5752L113.784 42.7105C114.446 42.0548 115.501 41.9464 116.178 42.464C116.591 42.7795 116.835 43.233 116.87 43.7358C116.9 44.2386 116.716 44.7266 116.362 45.0816L112.37 49.04C111.449 49.947 111.269 51.3618 111.937 52.4808C112.658 53.6984 113.211 55.0146 113.569 56.3899C113.898 57.642 115.033 58.5195 116.332 58.5195H123.008C123.949 58.5195 124.771 59.1801 124.88 60.023C124.945 60.5357 124.795 61.0237 124.457 61.4082C124.123 61.7878 123.64 61.9998 123.138 61.9998H116.327C115.028 61.9899 113.893 62.8674 113.569 64.1195Z" fill="white"/>
<path d="M50.3802 126C50.0914 126 49.8077 125.941 49.5388 125.832L47.7616 125.093C36.5555 120.637 0 104.162 0 79.2532V24.7768C0 23.6726 0.836351 22.7606 1.94651 22.6571C19.0718 21.0599 35.3657 14.76 49.0759 4.43257C49.8425 3.85581 50.9128 3.85581 51.6795 4.43257C65.3698 14.76 81.6637 21.0599 98.8088 22.6571C99.919 22.7606 100.755 23.6726 100.755 24.7768V30.5296C101.378 30.776 101.94 31.1211 102.423 31.545C103.693 32.6493 104.419 34.2415 104.419 35.9077V41.7048C105.535 42.0499 106.62 42.4936 107.645 43.0259L110.876 39.8267C113.007 37.7119 116.367 37.4605 118.692 39.2351C120.031 40.2605 120.863 41.8034 120.972 43.4696C121.082 45.1407 120.459 46.7724 119.265 47.9555L115.944 51.2484C116.482 52.2688 116.93 53.3435 117.278 54.4428H123.003C126.02 54.4428 128.579 56.6167 128.952 59.5005C129.166 61.1667 128.654 62.8378 127.538 64.0948C126.423 65.3518 124.815 66.0716 123.133 66.0716H117.278C116.94 67.1462 116.502 68.1962 115.979 69.1969L118.314 71.1786L117.438 70.7448L119.17 72.4652C121.306 74.575 121.56 77.9074 119.767 80.2046C118.732 81.5306 117.169 82.3538 115.486 82.4623C113.803 82.5707 112.151 81.9545 110.961 80.7715L107.635 77.4834C106.605 78.0158 105.52 78.4595 104.409 78.8046V84.4735C104.409 87.4608 102.214 89.9946 99.3017 90.3643C99.0528 90.3939 98.7989 90.4136 98.545 90.4136C97.1113 90.4136 95.7373 89.901 94.6619 88.9693C93.3925 87.8651 92.6656 86.2728 92.6656 84.6066V78.8095C91.5505 78.4644 90.4702 78.0208 89.4397 77.4884L86.2088 80.6877C84.0781 82.8024 80.7178 83.0538 78.3929 81.2792C77.0488 80.2539 76.2224 78.706 76.1129 77.0398C76.0034 75.3736 76.6256 73.737 77.8155 72.5588L81.141 69.2708C80.6033 68.2504 80.1552 67.1807 79.8068 66.0765H74.0817C71.0649 66.0765 68.5061 63.9026 68.1327 61.0188C67.9186 59.3526 68.4314 57.6815 69.5465 56.4244C70.6617 55.1674 72.2697 54.4477 73.9523 54.4477H79.8068C80.1552 53.3435 80.6033 52.2738 81.141 51.2534L77.91 48.0541C75.7744 45.9393 75.5205 42.6119 77.3127 40.3098C78.3481 38.9837 79.9113 38.1605 81.594 38.052C83.2816 37.9436 84.9294 38.5598 86.1192 39.7429L89.4397 43.0309C90.4702 42.4985 91.5555 42.0548 92.6656 41.7098V36.0408C92.6656 33.5711 94.179 31.3577 96.4442 30.4901V26.7042C79.7918 24.8162 63.8613 18.6247 50.3603 8.79521C36.8641 18.6149 20.9386 24.8064 4.29625 26.6944V79.2532C4.29625 101.49 38.7907 116.939 49.3646 121.144L50.3702 121.563L51.3609 121.149C58.435 118.335 82.276 107.978 92.1131 92.7354C92.7503 91.7495 94.0845 91.4587 95.0801 92.0897C95.563 92.3953 95.9015 92.8686 96.021 93.4256C96.1455 93.9826 96.0409 94.5495 95.7323 95.0277C85.492 110.896 62.4127 121.342 52.9689 125.098L51.2215 125.832C50.9576 125.941 50.6739 126 50.3802 126ZM50.3802 4.36848C50.0018 4.36848 49.6235 4.48679 49.3049 4.72341C35.5399 15.0952 19.1763 21.4247 1.98135 23.0268C1.06535 23.1106 0.373371 23.8648 0.373371 24.7768V79.2532C0.373371 103.93 36.7496 120.316 47.901 124.748L49.6832 125.492C50.1263 125.68 50.639 125.68 51.0771 125.492L52.8295 124.758C62.2484 121.016 85.2381 110.61 95.4236 94.8305C95.6775 94.4361 95.7621 93.9629 95.6626 93.5045C95.558 93.046 95.2842 92.6516 94.886 92.4002C94.0596 91.8826 92.9594 92.1193 92.4317 92.9326C82.5349 108.268 58.6043 118.67 51.5102 121.489L50.3802 121.963L49.2302 121.489C38.6065 117.265 3.92786 101.727 3.92786 79.2581V26.3641L4.09214 26.3444C20.7694 24.481 36.7397 18.2747 50.2706 8.40578L50.3802 8.32691L50.4897 8.40578C64.0057 18.2747 79.971 24.481 96.6682 26.3444L96.8325 26.3641V30.7415L96.708 30.7859C94.5225 31.5697 93.054 33.6795 93.054 36.0359V41.976L92.9195 42.0154C91.7397 42.3703 90.5897 42.8436 89.5044 43.4154L89.38 43.4795L85.8603 39.9943C84.7452 38.8901 83.197 38.3133 81.6238 38.4119C80.0457 38.5105 78.5871 39.2844 77.6163 40.5267C75.9386 42.6809 76.1826 45.8013 78.1838 47.783L81.6089 51.1745L81.5442 51.2977C80.9667 52.3724 80.4938 53.5111 80.1304 54.6794L80.0905 54.8125H73.9623C72.3842 54.8125 70.8807 55.4878 69.8353 56.6611C68.7898 57.8343 68.3119 59.4019 68.511 60.9646C68.8595 63.661 71.2591 65.6969 74.0917 65.6969H80.0955L80.1353 65.83C80.4938 66.9983 80.9717 68.137 81.5492 69.2117L81.6139 69.3349L78.0942 72.8201C76.9791 73.9243 76.3966 75.4525 76.4962 77.0151C76.5958 78.5778 77.3724 80.0222 78.6319 80.9834C80.8074 82.6447 83.9586 82.4081 85.9549 80.4264L89.38 77.0349L89.4995 77.0989C90.5847 77.6708 91.7347 78.1391 92.9146 78.4989L93.049 78.5384V84.6066C93.049 86.1693 93.731 87.658 94.9158 88.6932C95.9214 89.5658 97.2108 90.0488 98.55 90.0488C98.7889 90.0488 99.0229 90.0341 99.2569 90.0045C101.98 89.6594 104.036 87.2834 104.036 84.4785V78.5384L104.17 78.4989C105.35 78.144 106.495 77.6757 107.586 77.1039L107.71 77.0398L111.23 80.525C112.345 81.6292 113.888 82.2059 115.466 82.1074C117.044 82.0088 118.503 81.2348 119.474 79.9926C121.151 77.8384 120.907 74.718 118.906 72.7412L115.546 69.4089L115.765 69.5173L115.511 69.3004L115.581 69.1722C116.143 68.1124 116.611 66.9934 116.96 65.8497L116.999 65.7166H123.133C124.711 65.7166 126.214 65.0413 127.26 63.868C128.305 62.6948 128.783 61.1272 128.584 59.5646C128.235 56.8681 125.836 54.8322 123.003 54.8322H117.004L116.965 54.6991C116.606 53.5308 116.133 52.3921 115.551 51.3174L115.486 51.1942L119.006 47.709C120.121 46.6048 120.703 45.0717 120.604 43.509C120.504 41.9464 119.723 40.502 118.468 39.5408C116.293 37.8795 113.141 38.1211 111.14 40.1027L107.715 43.4943L107.591 43.4302C106.51 42.8583 105.36 42.39 104.175 42.0302L104.041 41.9907V35.9077C104.041 34.345 103.359 32.8563 102.174 31.8211C101.691 31.3972 101.124 31.0669 100.496 30.8303L100.377 30.7859V24.7768C100.377 23.8648 99.685 23.1106 98.769 23.0268C81.5541 21.4247 65.1955 15.0952 51.4505 4.72834C51.1369 4.48679 50.7585 4.36848 50.3802 4.36848ZM98.5599 86.5193C98.082 86.5193 97.634 86.3517 97.2706 86.0411C96.8474 85.6714 96.6085 85.144 96.6085 84.5968V77.8581C96.6085 76.6553 95.7821 75.6053 94.5972 75.3046C93.1934 74.9447 91.8442 74.3926 90.5997 73.668C90.1865 73.4264 89.7135 73.2983 89.2356 73.2983C88.5237 73.2983 87.8566 73.5694 87.3588 74.0673L83.4509 77.937C82.724 78.6567 81.5641 78.775 80.8074 78.1982C80.3544 77.8482 80.0806 77.3503 80.0457 76.7884C80.0109 76.2363 80.215 75.694 80.6083 75.3046L84.6058 71.3462C85.4621 70.4983 85.6264 69.1772 85.0091 68.1321C84.2773 66.8997 83.7197 65.5687 83.3563 64.1737C83.0476 63.0005 81.9872 62.1821 80.7775 62.1821H74.1017C73.0712 62.1821 72.1651 61.4526 72.0456 60.516C71.971 59.9491 72.1402 59.4068 72.5136 58.9878C72.887 58.5688 73.4146 58.3322 73.9722 58.3322H80.7775C81.9922 58.3322 83.0526 57.5139 83.3563 56.3406C83.7197 54.9505 84.2773 53.6195 85.0091 52.3871C85.6264 51.3421 85.4621 50.021 84.6058 49.1731L80.7029 45.3083C79.9711 44.5837 79.8565 43.4351 80.439 42.6907C80.7925 42.2422 81.2953 41.971 81.8678 41.9365C82.4104 41.8922 82.968 42.1041 83.3613 42.4936L87.3588 46.452C88.2151 47.2999 89.5493 47.4625 90.6046 46.8513C91.8492 46.1266 93.1934 45.5745 94.6022 45.2147C95.787 44.909 96.6134 43.859 96.6134 42.6612V36.0359C96.6134 35.0154 97.3502 34.1183 98.2911 34C98.8686 33.9309 99.4212 34.0986 99.8394 34.4633C100.263 34.8281 100.501 35.3556 100.501 35.9077V42.6513C100.501 43.8541 101.328 44.9041 102.513 45.2097C103.917 45.5696 105.261 46.1217 106.505 46.8463C107.561 47.4625 108.895 47.2999 109.751 46.4471L113.659 42.5823C114.386 41.8626 115.546 41.7443 116.303 42.321C116.756 42.671 117.029 43.1689 117.064 43.7259C117.099 44.283 116.895 44.8252 116.502 45.2147L112.509 49.1731C111.648 50.021 111.484 51.3421 112.106 52.3871C112.838 53.6195 113.395 54.9505 113.759 56.3456C114.067 57.5188 115.128 58.3371 116.337 58.3371H123.013C124.044 58.3371 124.95 59.0667 125.069 60.0033C125.144 60.5702 124.975 61.1124 124.601 61.5314C124.228 61.9505 123.695 62.1871 123.143 62.1871H116.332C115.118 62.1871 114.057 63.0054 113.754 64.1786C113.39 65.5687 112.833 66.8997 112.101 68.137C111.479 69.1821 111.648 70.5032 112.504 71.3511L116.407 75.2208C117.139 75.9405 117.253 77.0891 116.676 77.8384C116.322 78.287 115.82 78.5581 115.252 78.5926C114.7 78.632 114.157 78.4299 113.754 78.0356L109.756 74.0771C108.9 73.2292 107.566 73.0666 106.51 73.6778C105.261 74.4025 103.922 74.9546 102.518 75.3144C101.333 75.6152 100.501 76.6701 100.501 77.8729V84.4834C100.501 85.5038 99.7647 86.401 98.8238 86.5193C98.7292 86.5144 98.6446 86.5193 98.5599 86.5193ZM89.2356 72.9236C89.7783 72.9236 90.3159 73.0666 90.7888 73.3426C92.0085 74.0525 93.3178 74.5898 94.6918 74.9398C96.0409 75.2849 96.9818 76.4827 96.9818 77.8532V84.5919C96.9818 85.0355 97.176 85.4644 97.5195 85.7601C97.863 86.0559 98.306 86.189 98.774 86.1348C99.5307 86.0362 100.128 85.3017 100.128 84.4637V77.8532C100.128 76.4827 101.074 75.2849 102.423 74.9398C103.792 74.5898 105.101 74.0525 106.321 73.3426C107.526 72.6426 109.044 72.83 110.02 73.8011L114.017 77.7595C114.341 78.0799 114.779 78.2426 115.227 78.2081C115.69 78.1785 116.098 77.9616 116.382 77.5968C116.85 76.9954 116.746 76.0637 116.148 75.4673L112.245 71.5976C111.264 70.6314 111.075 69.1279 111.782 67.9349C112.499 66.7272 113.042 65.4307 113.395 64.0751C113.744 62.7392 114.953 61.8075 116.337 61.8075H123.148C123.596 61.8075 124.029 61.6153 124.327 61.2751C124.631 60.935 124.766 60.4962 124.706 60.0378C124.606 59.2836 123.869 58.697 123.018 58.697H116.342C114.958 58.697 113.749 57.7653 113.4 56.4294C113.047 55.0688 112.504 53.7674 111.787 52.5646C111.08 51.3717 111.269 49.8682 112.25 48.897L116.243 44.9386C116.561 44.6231 116.726 44.1844 116.696 43.7358C116.666 43.2823 116.447 42.8781 116.078 42.5971C115.471 42.1337 114.525 42.2372 113.928 42.8288L110.02 46.6935C109.044 47.6646 107.521 47.852 106.321 47.147C105.106 46.4421 103.792 45.9048 102.423 45.5499C101.074 45.2048 100.133 44.0069 100.133 42.6365V35.9077C100.133 35.464 99.9389 35.0352 99.5954 34.7394C99.2569 34.4436 98.8088 34.3105 98.3409 34.3647C97.5842 34.4633 96.9918 35.1929 96.9918 36.0359V42.6464C96.9918 44.0168 96.0509 45.2147 94.7018 45.5597C93.3278 45.9147 92.0135 46.452 90.8038 47.1569C89.599 47.852 88.0807 47.6646 87.1049 46.6985L83.1074 42.74C82.7888 42.4245 82.3407 42.2569 81.9026 42.2865C81.4396 42.3161 81.0265 42.533 80.7427 42.8978C80.2747 43.4992 80.3793 44.4358 80.9767 45.0273L84.8796 48.8921C85.8554 49.8583 86.0445 51.3667 85.3426 52.5548C84.6307 53.7576 84.0881 55.059 83.7297 56.4146C83.3812 57.7505 82.1714 58.6822 80.7875 58.6822H73.9822C73.5341 58.6822 73.101 58.8744 72.8023 59.2146C72.4987 59.5547 72.3642 59.9934 72.424 60.4519C72.5235 61.2061 73.2603 61.7927 74.1116 61.7927H80.7875C82.1714 61.7927 83.3812 62.7244 83.7297 64.0603C84.0881 65.4209 84.6307 66.7173 85.3426 67.9251C86.0495 69.1131 85.8604 70.6166 84.8846 71.5877L80.8871 75.5461C80.5684 75.8616 80.4042 76.3004 80.434 76.744C80.4639 77.1975 80.6829 77.6018 81.0513 77.8827C81.6587 78.3461 82.6046 78.2426 83.202 77.6511L87.1099 73.7814C87.6625 73.2342 88.4242 72.9236 89.2356 72.9236Z" fill="white"/>
<path d="M57.056 88.7475C58.5047 88.7475 59.8887 88.1263 60.8495 87.0468C61.8103 85.9672 62.2534 84.5278 62.0642 83.0933C61.7406 80.6088 59.5402 78.7405 56.9465 78.7405H52.3217C52.0479 77.8975 51.7044 77.0743 51.3011 76.2954L53.9695 73.6532C54.995 72.6377 55.5327 71.2279 55.4381 69.7934C55.3435 68.3589 54.6316 67.0279 53.4767 66.1455C51.4754 64.6173 48.583 64.8343 46.746 66.6533L44.1523 69.2215C43.3608 68.8173 42.5294 68.4772 41.6831 68.211V63.523C41.6831 62.0885 41.0559 60.7181 39.9656 59.7667C38.8704 58.8153 37.4167 58.3765 35.973 58.5639C33.464 58.8843 31.5772 61.0631 31.5772 63.6314V68.211C30.7309 68.4772 29.8995 68.8222 29.108 69.2215L26.4396 66.5793C25.4191 65.5638 23.9953 65.0364 22.5416 65.1251C21.093 65.2188 19.7488 65.9237 18.8577 67.0673C17.3144 69.049 17.5335 71.9131 19.3705 73.7321L21.9642 76.3004C21.5609 77.0792 21.2174 77.9025 20.9436 78.7454H16.2093C14.7606 78.7454 13.3766 79.3665 12.4158 80.4461C11.455 81.5257 11.0119 82.97 11.2011 84.3996C11.5247 86.8792 13.7251 88.7524 16.3188 88.7524H20.9436C21.2174 89.5953 21.5609 90.4136 21.9642 91.1974L19.2958 93.8397C18.2703 94.8552 17.7376 96.2601 17.8272 97.6995C17.9168 99.134 18.6337 100.465 19.7887 101.347C21.7899 102.88 24.6823 102.659 26.5193 100.845L29.113 98.2763C29.9045 98.6805 30.7359 99.0206 31.5822 99.2868V103.975C31.5822 105.409 32.2095 106.78 33.2997 107.731C34.2207 108.535 35.4105 108.978 36.6401 108.978C36.8592 108.978 37.0782 108.964 37.2923 108.939C39.7963 108.618 41.6881 106.44 41.6881 103.871V99.2917C42.5344 99.0256 43.3658 98.6805 44.1573 98.2812L46.8257 100.923C47.8512 101.939 49.275 102.471 50.7237 102.378C52.1723 102.284 53.5165 101.579 54.4076 100.435C55.9509 98.4537 55.7318 95.5897 53.8948 93.7707L51.3011 91.2024C51.7044 90.4235 52.0479 89.6003 52.3217 88.7573H57.056V88.7475ZM48.7821 86.8742C48.4884 87.9883 48.0454 89.0531 47.4579 90.039C46.8307 91.0988 46.9999 92.4348 47.8711 93.2925L51.117 96.5066C51.555 96.9404 51.6297 97.6157 51.2962 98.0446C51.0174 98.3995 50.6589 98.4734 50.4698 98.4833C50.1512 98.5079 49.8276 98.3847 49.5986 98.1579L46.2781 94.8699C45.4069 94.0073 44.0578 93.8397 42.9874 94.4608C41.9918 95.0425 40.9165 95.4812 39.7914 95.772C38.5966 96.0826 37.7602 97.1474 37.7602 98.3601V103.852C37.7602 104.463 37.3321 104.995 36.7845 105.064C36.4509 105.109 36.1323 105.01 35.8884 104.793C35.6445 104.581 35.5051 104.276 35.5051 103.955V98.3551C35.5051 97.1375 34.6687 96.0727 33.469 95.7622C32.3488 95.4763 31.2735 95.0376 30.2729 94.4559C29.8547 94.2094 29.3768 94.0812 28.8889 94.0812C28.1671 94.0812 27.49 94.3573 26.9823 94.8601L23.7364 98.0741C23.3033 98.5079 22.6163 98.5819 22.1832 98.2516C21.9194 98.0495 21.76 97.7587 21.7401 97.4333C21.7202 97.1129 21.8397 96.7974 22.0687 96.5706L25.3892 93.2826C26.2604 92.4249 26.4247 91.0841 25.7974 90.0242C25.215 89.0383 24.7669 87.9735 24.4782 86.8594C24.1695 85.6714 23.0942 84.8433 21.8596 84.8433H16.3088C15.6915 84.8433 15.1539 84.4193 15.0842 83.882C15.0394 83.5517 15.1389 83.2362 15.353 82.9898C15.5671 82.7482 15.8757 82.6102 16.1993 82.6102H21.8546C23.0843 82.6102 24.1596 81.782 24.4732 80.594C24.762 79.4799 25.21 78.4151 25.7925 77.4292C26.4197 76.3743 26.2505 75.0335 25.3842 74.1708L22.1384 70.9567C21.7003 70.5229 21.6256 69.8476 21.9592 69.4187C22.1633 69.1575 22.457 68.9997 22.7856 68.98C23.1042 68.9603 23.4328 69.0786 23.6568 69.3053L26.9773 72.5933C27.8485 73.456 29.1976 73.6236 30.2629 73.0025C31.2636 72.4208 32.3339 71.9821 33.459 71.6912C34.6588 71.3856 35.4951 70.3208 35.4951 69.1032V63.6068C35.4951 62.9955 35.9232 62.4631 36.4659 62.3941C36.7994 62.3547 37.123 62.4483 37.3669 62.6603C37.6109 62.8723 37.7503 63.1779 37.7503 63.4983V69.0983C37.7503 70.3159 38.5866 71.3807 39.7864 71.6912C40.9115 71.9772 41.9818 72.4159 42.9775 72.9976C44.0478 73.6236 45.4019 73.456 46.2681 72.5933L49.5139 69.3793C49.952 68.9455 50.6341 68.8666 51.0672 69.2018C51.331 69.4039 51.4903 69.6948 51.5102 70.0201C51.5301 70.3406 51.4107 70.656 51.1817 70.8828L47.8612 74.1708C46.99 75.0285 46.8257 76.3694 47.4529 77.4292C48.0354 78.4151 48.4834 79.4799 48.7722 80.594C49.0808 81.782 50.1561 82.6102 51.3908 82.6102H56.9415C57.5588 82.6102 58.0965 83.0341 58.1662 83.5714C58.211 83.9017 58.1114 84.2172 57.8974 84.4637C57.6833 84.7052 57.3746 84.8433 57.0511 84.8433H51.3957C50.1661 84.858 49.0908 85.6862 48.7821 86.8742Z" fill="white"/>
<path d="M36.6351 109.156C35.3557 109.156 34.1261 108.697 33.1703 107.864C32.0402 106.878 31.388 105.459 31.388 103.97V99.415C30.6214 99.1636 29.8697 98.8579 29.1428 98.4932L26.6437 100.968C24.742 102.851 21.7451 103.078 19.6692 101.49C18.4694 100.573 17.7326 99.1981 17.6331 97.7094C17.5385 96.2206 18.0911 94.7615 19.1564 93.7066L21.7302 91.158C21.3668 90.4432 21.0531 89.6939 20.7992 88.9348H16.3088C13.6206 88.9348 11.3405 86.9925 11.002 84.4193C10.8078 82.9355 11.2708 81.4419 12.2665 80.3179C13.2621 79.1989 14.6959 78.5532 16.1993 78.5532H20.7992C21.0531 77.7891 21.3668 77.0398 21.7302 76.3299L19.2311 73.8553C17.3294 71.9722 17.1004 69.0046 18.7034 66.949C19.6293 65.7659 21.0183 65.0314 22.5217 64.9328C24.0351 64.8441 25.5037 65.3913 26.5641 66.4413L29.1379 68.9898C29.8647 68.63 30.6164 68.3194 31.3831 68.068V63.6216C31.3831 60.9596 33.3445 58.7019 35.9432 58.3716C37.4416 58.1794 38.95 58.6329 40.0801 59.6237C41.2102 60.6096 41.8623 62.0293 41.8623 63.5181V68.073C42.629 68.3244 43.3807 68.63 44.1075 68.9948L46.6066 66.5201C48.5083 64.6371 51.5053 64.4103 53.5812 65.9976C54.781 66.9145 55.5227 68.2899 55.6173 69.7786C55.7119 71.2673 55.1593 72.7264 54.094 73.7814L51.5202 76.3299C51.8836 77.0447 52.1972 77.794 52.4511 78.5532H56.9415C59.6348 78.5532 61.9148 80.4954 62.2484 83.0686C62.4425 84.5524 61.9796 86.0461 60.9839 87.17C59.9882 88.289 58.5545 88.9348 57.0511 88.9348H52.4511C52.1972 89.6989 51.8836 90.4432 51.5202 91.158L54.0193 93.6326C55.921 95.5157 56.15 98.4833 54.547 100.539C53.621 101.722 52.2271 102.457 50.7286 102.555C49.2252 102.649 47.7516 102.102 46.6863 101.047L44.1125 98.4981C43.3857 98.8579 42.634 99.1685 41.8673 99.4199V103.866C41.8673 106.528 39.9059 108.786 37.3072 109.121C37.0882 109.141 36.8592 109.156 36.6351 109.156ZM29.0682 98.0446L29.1876 98.1037C29.9742 98.503 30.7956 98.8382 31.627 99.1044L31.7564 99.1439V103.97C31.7564 105.355 32.3588 106.671 33.4092 107.588C34.2954 108.362 35.4404 108.786 36.6302 108.786C36.8393 108.786 37.0533 108.771 37.2574 108.747C39.6719 108.441 41.489 106.336 41.489 103.861V99.1439L41.6184 99.1044C42.4498 98.8382 43.2712 98.503 44.0578 98.1037L44.1772 98.0446L46.9402 100.78C47.9309 101.761 49.2949 102.269 50.6938 102.18C52.0877 102.092 53.3821 101.411 54.2433 100.307C55.7318 98.3995 55.5177 95.639 53.7505 93.889L51.0622 91.227L51.1219 91.1087C51.5202 90.3348 51.8637 89.5214 52.1325 88.6883L52.1724 88.5601H57.0461C58.445 88.5601 59.7742 87.9637 60.7001 86.9235C61.6261 85.8834 62.0492 84.4982 61.87 83.1179C61.5614 80.7271 59.4406 78.9278 56.9366 78.9278H52.1724L52.1325 78.7996C51.8637 77.9665 51.5252 77.1581 51.1219 76.3842L51.0622 76.2659L53.8301 73.525C54.8158 72.544 55.3336 71.1934 55.2439 69.8082C55.1543 68.4279 54.4673 67.1462 53.3522 66.2934C51.4256 64.8195 48.6378 65.0314 46.8705 66.7814L44.1822 69.4434L44.0627 69.3842C43.2762 68.9849 42.4548 68.6497 41.6234 68.3835L41.4939 68.3441V63.523C41.4939 62.1378 40.8916 60.8216 39.8412 59.9047C38.7858 58.9878 37.3869 58.5639 35.9979 58.7463C33.5835 59.0519 31.7614 61.1519 31.7614 63.6314V68.349L31.632 68.3884C30.7956 68.6546 29.9742 68.9898 29.1926 69.3891L29.0731 69.4483L26.3052 66.7124C25.3195 65.7364 23.9505 65.2286 22.5516 65.3124C21.1577 65.4011 19.8633 66.0814 19.0071 67.1856C17.5186 69.0934 17.7326 71.8539 19.4999 73.6039L22.1882 76.2659L22.1284 76.3842C21.7302 77.1581 21.3867 77.9715 21.1179 78.8046L21.078 78.9327H16.2093C14.8104 78.9327 13.4812 79.5292 12.5552 80.5693C11.6293 81.6095 11.2061 82.9996 11.3853 84.3799C11.694 86.7707 13.8197 88.57 16.3188 88.57H21.083L21.1228 88.6982C21.3917 89.5263 21.7302 90.3397 22.1334 91.1136L22.1932 91.2319L19.4252 93.9728C18.4395 94.9488 17.9218 96.3044 18.0114 97.6896C18.101 99.0699 18.788 100.352 19.9032 101.204C21.8297 102.678 24.6176 102.466 26.3849 100.716L29.0682 98.0446ZM36.6302 105.271C36.3066 105.271 36.0079 105.158 35.7639 104.946C35.4802 104.699 35.3159 104.345 35.3159 103.97V98.3699C35.3159 97.2361 34.5343 96.2453 33.4192 95.9594C32.2841 95.6685 31.1889 95.2199 30.1783 94.6333C29.785 94.4066 29.342 94.2833 28.8889 94.2833C28.2169 94.2833 27.5896 94.5397 27.1167 95.008L23.8708 98.222C23.368 98.715 22.5815 98.8037 22.0737 98.4143C21.765 98.1777 21.5808 97.8375 21.5559 97.458C21.531 97.0833 21.6704 96.7185 21.9343 96.4523L25.2548 93.1643C26.0613 92.3657 26.2206 91.1186 25.6381 90.1327C25.0457 89.132 24.5927 88.0524 24.299 86.9235C24.0102 85.8193 23.0096 85.0454 21.8646 85.0454H16.3088C15.6019 85.0454 14.9796 84.5524 14.895 83.9214C14.8452 83.5369 14.9547 83.1721 15.2086 82.8862C15.4576 82.6052 15.821 82.4426 16.1943 82.4426H21.8497C22.9947 82.4426 23.9953 81.6686 24.284 80.5644C24.5778 79.4356 25.0308 78.356 25.6232 77.3553C26.2057 76.3694 26.0513 75.1222 25.2399 74.3236L21.994 71.1096C21.4912 70.6117 21.4066 69.8279 21.7999 69.3251C22.0388 69.0194 22.3774 68.837 22.7607 68.8124C23.139 68.7877 23.5174 68.9307 23.7763 69.192L27.0968 72.48C27.9032 73.2835 29.1627 73.4363 30.1584 72.8595C31.174 72.268 32.2642 71.8243 33.3993 71.5286C34.5144 71.2427 35.296 70.2518 35.296 69.118V63.6216C35.296 62.9167 35.7938 62.3054 36.4261 62.2265C36.8144 62.1822 37.1877 62.2906 37.4765 62.5371C37.7602 62.7836 37.9245 63.1434 37.9245 63.5131V69.1131C37.9245 70.2469 38.7061 71.2377 39.8212 71.5236C40.9613 71.8145 42.0515 72.2631 43.0621 72.8497C44.0578 73.4314 45.3173 73.2785 46.1287 72.475L49.3746 69.261C49.8774 68.7631 50.6689 68.6793 51.1767 69.0687C51.4853 69.3053 51.6695 69.6455 51.6944 70.0251C51.7193 70.3997 51.5799 70.7645 51.3161 71.0307L47.9956 74.3187C47.1891 75.1173 47.0298 76.3644 47.6122 77.3504C48.2047 78.3511 48.6577 79.4306 48.9514 80.5595C49.2401 81.6637 50.2408 82.4376 51.3858 82.4376H56.9366C57.6485 82.4376 58.2658 82.9306 58.3504 83.5616C58.4002 83.9461 58.2857 84.3109 58.0368 84.5968C57.7878 84.8778 57.4244 85.0404 57.0511 85.0404H51.3957C50.2507 85.0404 49.2501 85.8144 48.9614 86.9186C48.6627 88.0524 48.2146 89.132 47.6172 90.1327C47.0348 91.1186 47.1941 92.3657 48.0005 93.1643L51.2464 96.3784C51.7492 96.8763 51.8338 97.6601 51.4405 98.1629C51.117 98.577 50.6988 98.6608 50.4748 98.6755C50.1064 98.7051 49.728 98.5622 49.4592 98.296L46.1387 95.008C45.3272 94.2045 44.0677 94.0516 43.0721 94.6284C42.0615 95.2199 40.9712 95.6636 39.8262 95.9594C38.7111 96.2453 37.9345 97.2361 37.9345 98.3699V103.861C37.9345 104.561 37.4366 105.178 36.7994 105.261C36.7447 105.266 36.6899 105.271 36.6302 105.271ZM28.8889 93.9087C29.4067 93.9087 29.9194 94.0467 30.3675 94.308C31.3532 94.8798 32.4086 95.3136 33.5138 95.5946C34.7932 95.9249 35.6893 97.0636 35.6893 98.365V103.965C35.6893 104.231 35.8087 104.487 36.0129 104.665C36.217 104.847 36.4858 104.926 36.7646 104.892C37.2176 104.833 37.576 104.379 37.576 103.861V98.3699C37.576 97.0685 38.4671 95.9298 39.7466 95.5995C40.8567 95.3136 41.9171 94.8798 42.8978 94.308C44.0378 93.6425 45.4865 93.8249 46.4175 94.7467L49.738 98.0347C49.9271 98.222 50.2009 98.3256 50.4598 98.3058C50.6191 98.296 50.9228 98.2368 51.1568 97.9361C51.4356 97.5763 51.3659 97.0094 50.9925 96.6396L47.7467 93.4305C46.8157 92.5136 46.6365 91.0791 47.3036 89.9503C47.8811 88.9791 48.3192 87.9341 48.6079 86.8348C48.9414 85.5679 50.0914 84.6806 51.4057 84.6806H57.061C57.3298 84.6806 57.5887 84.5623 57.7679 84.3602C57.9471 84.1581 58.0268 83.8919 57.992 83.6158C57.9322 83.1672 57.4742 82.8172 56.9515 82.8172H51.4007C50.0864 82.8172 48.9365 81.9299 48.6029 80.663C48.3142 79.5686 47.8811 78.5187 47.3036 77.5475C46.6315 76.4187 46.8157 74.9842 47.7417 74.0673L51.0622 70.7793C51.2514 70.5919 51.3509 70.3258 51.336 70.0596C51.3161 69.7884 51.1866 69.5469 50.9626 69.3744C50.5992 69.0983 50.0267 69.1673 49.6533 69.537L46.4075 72.7511C45.4766 73.6729 44.0279 73.8504 42.8879 73.1849C41.9071 72.6131 40.8517 72.1842 39.7466 71.8983C38.4671 71.568 37.5711 70.4293 37.5711 69.1279V63.5279C37.5711 63.2617 37.4516 63.0054 37.2475 62.8279C37.0434 62.6505 36.7745 62.5716 36.4908 62.6061C36.0427 62.6652 35.6843 63.1138 35.6843 63.6364V69.1328C35.6843 70.4342 34.7882 71.5729 33.5088 71.9032C32.4036 72.1891 31.3432 72.6229 30.3625 73.1947C29.2225 73.8602 27.7788 73.6778 26.8478 72.7609L23.5273 69.4729C23.3382 69.2856 23.0693 69.187 22.8005 69.2018C22.5267 69.2215 22.2828 69.3497 22.1085 69.5715C21.8297 69.9314 21.8994 70.4983 22.2728 70.868L25.5187 74.0771C26.4496 74.999 26.6288 76.4285 25.9567 77.5574C25.3793 78.5285 24.9412 79.5785 24.6574 80.6729C24.3239 81.9398 23.1739 82.8271 21.8596 82.8271H16.1993C15.9305 82.8271 15.6716 82.9454 15.4924 83.1475C15.3082 83.3496 15.2285 83.6158 15.2684 83.8919C15.3281 84.3404 15.7861 84.6904 16.3088 84.6904H21.8596C23.1739 84.6904 24.3239 85.5778 24.6574 86.8447C24.9461 87.939 25.3793 88.989 25.9567 89.9601C26.6288 91.089 26.4446 92.5235 25.5187 93.4404L22.1981 96.7284C22.009 96.9157 21.9094 97.177 21.9243 97.4481C21.9442 97.7192 22.0737 97.9608 22.2977 98.1333C22.6611 98.4094 23.2336 98.3403 23.607 97.9706L26.8528 94.7566C27.3905 94.2045 28.1173 93.9087 28.8889 93.9087Z" fill="white"/>
<path d="M22.223 57.3611C26.35 57.3611 29.7054 54.0386 29.7054 49.952C29.7054 45.8654 26.35 42.5429 22.223 42.5429C18.096 42.5429 14.7407 45.8654 14.7407 49.952C14.7407 54.0386 18.096 57.3611 22.223 57.3611ZM22.223 46.4323C24.1845 46.4323 25.7825 48.0147 25.7825 49.9569C25.7825 51.8991 24.1845 53.4766 22.223 53.4766C20.2616 53.4766 18.6685 51.8991 18.6685 49.9569C18.6685 48.0097 20.2616 46.4323 22.223 46.4323Z" fill="white"/>
<path d="M22.223 57.5484C17.9965 57.5484 14.5565 54.1421 14.5565 49.9569C14.5565 45.7717 17.9965 42.3605 22.223 42.3605C26.4496 42.3605 29.8946 45.7668 29.8946 49.9569C29.8946 54.1421 26.4546 57.5484 22.223 57.5484ZM22.223 42.7302C18.2006 42.7302 14.9299 45.9689 14.9299 49.9569C14.9299 53.94 18.2006 57.1787 22.223 57.1787C26.2455 57.1787 29.5212 53.94 29.5212 49.9569C29.5212 45.9689 26.2455 42.7302 22.223 42.7302ZM22.223 53.659C20.157 53.659 18.4794 51.9977 18.4794 49.952C18.4794 47.9062 20.157 46.2449 22.223 46.2449C24.289 46.2449 25.9667 47.9062 25.9667 49.952C25.9667 51.9977 24.289 53.659 22.223 53.659ZM22.223 46.6147C20.3661 46.6147 18.8527 48.1132 18.8527 49.952C18.8527 51.7907 20.3661 53.2893 22.223 53.2893C24.0799 53.2893 25.5933 51.7907 25.5933 49.952C25.5933 48.1132 24.0799 46.6147 22.223 46.6147Z" fill="white"/>
<path d="M67.6249 30.0169C67.6249 25.9303 64.2696 22.6078 60.1426 22.6078C56.0156 22.6078 52.6602 25.9303 52.6602 30.0169C52.6602 34.1035 56.0156 37.426 60.1426 37.426C64.2696 37.426 67.6249 34.0986 67.6249 30.0169ZM60.1426 33.5366C58.1811 33.5366 56.5831 31.9591 56.5831 30.0169C56.5831 28.0746 58.1811 26.4923 60.1426 26.4923C62.104 26.4923 63.6971 28.0746 63.6971 30.0169C63.702 31.9591 62.104 33.5366 60.1426 33.5366Z" fill="white"/>
<path d="M60.1426 37.6084C55.916 37.6084 52.471 34.2021 52.471 30.0169C52.471 25.8317 55.911 22.4205 60.1426 22.4205C64.3691 22.4205 67.8091 25.8268 67.8091 30.0169C67.8141 34.2021 64.3741 37.6084 60.1426 37.6084ZM60.1426 22.7902C56.1201 22.7902 52.8444 26.0289 52.8444 30.0169C52.8444 34 56.1151 37.2387 60.1426 37.2387C64.165 37.2387 67.4357 34 67.4357 30.0169C67.4407 26.0338 64.17 22.7902 60.1426 22.7902ZM60.1426 33.7239C58.0766 33.7239 56.3989 32.0627 56.3989 30.0169C56.3989 27.9711 58.0766 26.3099 60.1426 26.3099C62.2085 26.3099 63.8862 27.9711 63.8862 30.0169C63.8862 32.0577 62.2085 33.7239 60.1426 33.7239ZM60.1426 26.6796C58.2857 26.6796 56.7723 28.1782 56.7723 30.0169C56.7723 31.8556 58.2857 33.3542 60.1426 33.3542C61.9995 33.3542 63.5129 31.8556 63.5129 30.0169C63.5129 28.1732 62.0044 26.6796 60.1426 26.6796Z" fill="white"/>
<path d="M70.2485 101.904C74.0768 101.904 77.1932 98.8185 77.1932 95.0277C77.1932 91.2369 74.0768 88.151 70.2485 88.151C66.4202 88.151 63.3038 91.2369 63.3038 95.0277C63.3038 98.8185 66.4202 101.904 70.2485 101.904ZM70.2485 92.0404C71.9112 92.0404 73.2653 93.3812 73.2653 95.0277C73.2653 96.6742 71.9112 98.015 70.2485 98.015C68.5857 98.015 67.2316 96.6742 67.2316 95.0277C67.2316 93.3812 68.5857 92.0404 70.2485 92.0404Z" fill="white"/>
<path d="M70.2485 102.087C66.3156 102.087 63.1196 98.9171 63.1196 95.0277C63.1196 91.1334 66.3206 87.9686 70.2485 87.9686C74.1763 87.9686 77.3774 91.1383 77.3774 95.0277C77.3774 98.922 74.1813 102.087 70.2485 102.087ZM70.2485 88.3383C66.5247 88.3383 63.4929 91.3404 63.4929 95.0277C63.4929 98.715 66.5247 101.717 70.2485 101.717C73.9722 101.717 77.004 98.715 77.004 95.0277C77.004 91.3404 73.9722 88.3383 70.2485 88.3383ZM70.2485 98.2023C68.4812 98.2023 67.0425 96.7777 67.0425 95.0277C67.0425 93.2777 68.4812 91.8531 70.2485 91.8531C72.0158 91.8531 73.4545 93.2777 73.4545 95.0277C73.4545 96.7777 72.0158 98.2023 70.2485 98.2023ZM70.2485 92.2228C68.6853 92.2228 67.4158 93.4798 67.4158 95.0277C67.4158 96.5756 68.6853 97.8326 70.2485 97.8326C71.8117 97.8326 73.0811 96.5756 73.0811 95.0277C73.0811 93.4798 71.8117 92.2228 70.2485 92.2228Z" fill="white"/>
</svg>
