<svg width="447" height="341" viewBox="0 0 447 341" fill="none" xmlns="http://www.w3.org/2000/svg">
<path d="M163.013 159.587C164.304 159.587 165.348 160.63 165.348 161.92V176.407C165.348 177.698 164.304 178.741 163.013 178.741C161.721 178.741 160.677 177.698 160.677 176.407V161.92C160.677 160.63 161.721 159.587 163.013 159.587Z" fill="#DC0000"/>
<path d="M187.535 130.489C188.342 130.489 189.128 130.909 189.559 131.656C190.202 132.773 189.821 134.197 188.703 134.84L177.604 141.238C176.496 141.881 175.061 141.5 174.418 140.382C173.775 139.265 174.156 137.841 175.274 137.198L186.372 130.795C186.738 130.588 187.139 130.489 187.535 130.489Z" fill="#DC0000"/>
<path d="M150.623 196.833C151.429 196.833 152.216 197.253 152.647 197.999C153.29 199.117 152.909 200.541 151.791 201.184L140.692 207.582C139.579 208.224 138.149 207.844 137.501 206.726C136.857 205.609 137.238 204.185 138.357 203.542L149.455 197.144C149.826 196.931 150.227 196.833 150.623 196.833Z" fill="#DC0000"/>
<path d="M216.174 130.642C216.57 130.642 216.971 130.741 217.337 130.954L228.163 137.203C229.282 137.846 229.663 139.275 229.019 140.387C228.376 141.505 226.946 141.886 225.833 141.243L215.007 134.993C213.888 134.35 213.507 132.921 214.151 131.809C214.586 131.057 215.368 130.642 216.174 130.642Z" fill="#DC0000"/>
<path d="M240.429 159.883C241.721 159.883 242.765 160.926 242.765 162.217V175.517C242.765 176.808 241.721 177.851 240.429 177.851C239.138 177.851 238.094 176.808 238.094 175.517V162.217C238.094 160.926 239.138 159.883 240.429 159.883Z" fill="#DC0000"/>
<path d="M226.808 197.154C227.614 197.154 228.401 197.569 228.831 198.321C229.475 199.438 229.094 200.862 227.975 201.505L215.714 208.576C214.601 209.218 213.171 208.838 212.528 207.72C211.884 206.603 212.265 205.179 213.384 204.536L225.645 197.465C226.011 197.258 226.412 197.154 226.808 197.154Z" fill="#DC0000"/>
<path d="M176.026 196.803C176.422 196.803 176.823 196.902 177.189 197.114L190.054 204.536C191.172 205.179 191.553 206.608 190.91 207.72C190.266 208.838 188.836 209.218 187.723 208.576L174.858 201.154C173.74 200.511 173.359 199.082 174.002 197.97C174.438 197.223 175.219 196.803 176.026 196.803Z" fill="#DC0000"/>
<path d="M252.854 197.643C253.25 197.643 253.651 197.742 254.017 197.955L266.887 205.377C268.005 206.019 268.386 207.448 267.743 208.561C267.099 209.673 265.669 210.059 264.556 209.416L251.686 201.995C250.568 201.352 250.187 199.923 250.83 198.805C251.266 198.059 252.047 197.643 252.854 197.643Z" fill="#DC0000"/>
<path d="M201.716 225.08C207.505 225.08 212.221 220.368 212.221 214.583C212.221 208.798 207.505 204.086 201.716 204.086C195.927 204.086 191.211 208.798 191.211 214.583C191.216 220.368 195.927 225.08 201.716 225.08ZM201.716 208.754C204.937 208.754 207.55 211.364 207.55 214.583C207.55 217.802 204.937 220.412 201.716 220.412C198.495 220.412 195.882 217.802 195.882 214.583C195.882 211.364 198.495 208.754 201.716 208.754Z" fill="#DC0000"/>
<path d="M240.42 202.034C246.234 202.034 250.924 197.322 250.924 191.537C250.924 185.752 246.234 181.04 240.42 181.04C234.63 181.04 229.915 185.752 229.915 191.537C229.915 197.322 234.63 202.034 240.42 202.034ZM240.42 185.708C243.641 185.708 246.253 188.318 246.253 191.537C246.253 194.756 243.641 197.367 240.42 197.367C237.223 197.367 234.586 194.756 234.586 191.537C234.581 188.323 237.218 185.708 240.42 185.708Z" fill="#DC0000"/>
<path d="M163.018 202.034C168.807 202.034 173.522 197.322 173.522 191.537C173.522 185.752 168.807 181.04 163.018 181.04C157.228 181.04 152.513 185.752 152.513 191.537C152.513 197.322 157.228 202.034 163.018 202.034ZM163.018 185.708C166.239 185.708 168.851 188.318 168.851 191.537C168.851 194.756 166.239 197.367 163.018 197.367C159.796 197.367 157.184 194.756 157.184 191.537C157.184 188.323 159.796 185.708 163.018 185.708Z" fill="#DC0000"/>
<path d="M240.42 156.575C246.234 156.575 250.924 151.863 250.924 146.078C250.924 140.293 246.234 135.581 240.42 135.581C234.63 135.581 229.915 140.293 229.915 146.078C229.915 151.863 234.63 156.575 240.42 156.575ZM240.42 140.249C243.641 140.249 246.253 142.86 246.253 146.078C246.253 149.297 243.641 151.908 240.42 151.908C237.223 151.908 234.586 149.297 234.586 146.078C234.581 142.86 237.218 140.249 240.42 140.249Z" fill="#DC0000"/>
<path d="M163.018 156.575C168.807 156.575 173.522 151.863 173.522 146.078C173.522 140.293 168.807 135.581 163.018 135.581C157.228 135.581 152.513 140.293 152.513 146.078C152.513 151.863 157.228 156.575 163.018 156.575ZM163.018 140.249C166.239 140.249 168.851 142.86 168.851 146.078C168.851 149.297 166.239 151.908 163.018 151.908C159.796 151.908 157.184 149.297 157.184 146.078C157.184 142.86 159.796 140.249 163.018 140.249Z" fill="#DC0000"/>
<path d="M201.716 135.913C207.505 135.913 212.221 131.201 212.221 125.416C212.221 119.631 207.505 114.919 201.716 114.919C195.927 114.919 191.211 119.631 191.211 125.416C191.216 131.201 195.927 135.913 201.716 135.913ZM201.716 119.586C204.937 119.586 207.55 122.197 207.55 125.416C207.55 128.635 204.937 131.245 201.716 131.245C198.495 131.245 195.882 128.635 195.882 125.416C195.882 122.197 198.495 119.586 201.716 119.586Z" fill="#DC0000"/>
<path d="M278.816 225.525C284.605 225.525 289.321 220.813 289.321 215.028C289.321 209.243 284.605 204.531 278.816 204.531C273.027 204.531 268.312 209.243 268.312 215.028C268.312 220.813 273.027 225.525 278.816 225.525ZM278.816 209.199C282.037 209.199 284.65 211.809 284.65 215.028C284.65 218.247 282.037 220.857 278.816 220.857C275.595 220.857 272.982 218.247 272.982 215.028C272.978 211.809 275.595 209.199 278.816 209.199Z" fill="#DC0000"/>
<path d="M49.6683 226.365C50.9597 226.365 52.0037 227.409 52.0037 228.699V243.191C52.0037 244.482 50.9597 245.525 49.6683 245.525C48.3768 245.525 47.3328 244.482 47.3328 243.191V228.699C47.3328 227.409 48.3768 226.365 49.6683 226.365Z" fill="#DC0000"/>
<path d="M74.1907 197.268C74.9972 197.268 75.7839 197.683 76.2144 198.435C76.8577 199.552 76.4767 200.976 75.3584 201.619L64.26 208.022C63.1516 208.665 61.7167 208.284 61.0734 207.166C60.4302 206.049 60.8112 204.625 61.9295 203.982L73.0279 197.579C73.394 197.367 73.7948 197.268 74.1907 197.268Z" fill="#DC0000"/>
<path d="M102.83 197.421C103.226 197.421 103.627 197.52 103.993 197.732L114.824 203.982C115.942 204.625 116.323 206.054 115.68 207.166C115.037 208.284 113.607 208.665 112.488 208.022L101.657 201.772C100.539 201.129 100.158 199.7 100.801 198.588C101.242 197.841 102.023 197.421 102.83 197.421Z" fill="#DC0000"/>
<path d="M127.085 226.667C128.376 226.667 129.421 227.71 129.421 229.001V242.301C129.421 243.592 128.376 244.635 127.085 244.635C125.794 244.635 124.75 243.592 124.75 242.301V229.001C124.75 227.705 125.794 226.667 127.085 226.667Z" fill="#DC0000"/>
<path d="M113.463 263.938C114.27 263.938 115.056 264.353 115.487 265.105C116.13 266.222 115.749 267.646 114.631 268.289L102.37 275.359C101.256 276.002 99.8263 275.621 99.1831 274.504C98.5399 273.387 98.9209 271.963 100.039 271.32L112.3 264.249C112.666 264.037 113.067 263.938 113.463 263.938Z" fill="#DC0000"/>
<path d="M62.6815 263.587C63.0774 263.587 63.4782 263.686 63.8444 263.898L76.7092 271.32C77.8275 271.963 78.2085 273.392 77.5652 274.504C76.922 275.621 75.492 276.002 74.3737 275.359L61.5088 267.938C60.3906 267.295 60.0096 265.866 60.6529 264.754C61.0932 264.002 61.875 263.587 62.6815 263.587Z" fill="#DC0000"/>
<path d="M88.3717 291.859C94.1609 291.859 98.8764 287.147 98.8764 281.362C98.8764 275.577 94.1609 270.865 88.3717 270.865C82.5825 270.865 77.867 275.577 77.867 281.362C77.867 287.147 82.5825 291.859 88.3717 291.859ZM88.3717 275.533C91.5928 275.533 94.2054 278.143 94.2054 281.362C94.2054 284.581 91.5928 287.191 88.3717 287.191C85.1505 287.191 82.5379 284.581 82.5379 281.362C82.5379 278.143 85.1505 275.533 88.3717 275.533Z" fill="#DC0000"/>
<path d="M127.095 268.813C132.884 268.813 137.6 264.101 137.6 258.316C137.6 252.531 132.884 247.819 127.095 247.819C121.281 247.819 116.59 252.531 116.59 258.316C116.59 264.101 121.281 268.813 127.095 268.813ZM127.095 252.487C130.291 252.487 132.929 255.097 132.929 258.316C132.929 261.535 130.291 264.146 127.095 264.146C123.874 264.146 121.261 261.535 121.261 258.316C121.261 255.097 123.874 252.487 127.095 252.487Z" fill="#DC0000"/>
<path d="M201.721 227.987C203.012 227.987 204.057 229.031 204.057 230.321V243.621C204.057 244.912 203.012 245.955 201.721 245.955C200.43 245.955 199.386 244.912 199.386 243.621V230.321C199.386 229.031 200.43 227.987 201.721 227.987Z" fill="#DC0000"/>
<path d="M201.716 270.143C207.505 270.143 212.221 265.431 212.221 259.646C212.221 253.861 207.505 249.149 201.716 249.149C195.927 249.149 191.211 253.861 191.211 259.646C191.216 265.431 195.927 270.143 201.716 270.143ZM201.716 253.817C204.937 253.817 207.55 256.427 207.55 259.646C207.55 262.865 204.937 265.476 201.716 265.476C198.495 265.476 195.882 262.865 195.882 259.646C195.882 256.427 198.495 253.817 201.716 253.817Z" fill="#DC0000"/>
<path d="M49.6732 268.813C55.4624 268.813 60.1779 264.101 60.1779 258.316C60.1779 252.531 55.4624 247.819 49.6732 247.819C43.884 247.819 39.1686 252.531 39.1686 258.316C39.1686 264.101 43.884 268.813 49.6732 268.813ZM49.6732 252.487C52.8944 252.487 55.5069 255.097 55.5069 258.316C55.5069 261.535 52.8944 264.146 49.6732 264.146C46.4521 264.146 43.8395 261.535 43.8395 258.316C43.8345 255.097 46.4521 252.487 49.6732 252.487Z" fill="#DC0000"/>
<path d="M23.5179 195.147C23.9138 195.147 24.3146 195.245 24.6807 195.458L37.5456 202.88C38.6638 203.522 39.0448 204.951 38.4016 206.064C37.7583 207.181 36.3284 207.567 35.2151 206.919L22.3502 199.498C21.232 198.855 20.8509 197.426 21.4942 196.308C21.9296 195.562 22.7114 195.147 23.5179 195.147Z" fill="#DC0000"/>
<path d="M10.5047 200.378C16.2938 200.378 21.0093 195.666 21.0093 189.881C21.0093 184.096 16.2938 179.384 10.5047 179.384C4.71547 179.384 5.05735e-07 184.096 0 189.881C-5.06168e-07 195.671 4.71547 200.378 10.5047 200.378ZM10.5047 184.051C13.7258 184.051 16.3384 186.662 16.3384 189.881C16.3384 193.1 13.7258 195.71 10.5047 195.71C7.28349 195.71 4.67092 193.1 4.67092 189.881C4.67092 186.667 7.28349 184.051 10.5047 184.051Z" fill="#DC0000"/>
<path d="M127.095 223.354C132.884 223.354 137.6 218.642 137.6 212.857C137.6 207.072 132.884 202.36 127.095 202.36C121.281 202.36 116.59 207.072 116.59 212.857C116.59 218.642 121.281 223.354 127.095 223.354ZM127.095 207.028C130.291 207.028 132.929 209.639 132.929 212.857C132.929 216.076 130.291 218.687 127.095 218.687C123.874 218.687 121.261 216.076 121.261 212.857C121.261 209.639 123.874 207.028 127.095 207.028Z" fill="#DC0000"/>
<path d="M49.6732 223.354C55.4624 223.354 60.1779 218.642 60.1779 212.857C60.1779 207.072 55.4624 202.36 49.6732 202.36C43.884 202.36 39.1686 207.072 39.1686 212.857C39.1686 218.642 43.884 223.354 49.6732 223.354ZM49.6732 207.028C52.8944 207.028 55.5069 209.639 55.5069 212.857C55.5069 216.076 52.8944 218.687 49.6732 218.687C46.4521 218.687 43.8395 216.076 43.8395 212.857C43.8345 209.639 46.4521 207.028 49.6732 207.028Z" fill="#DC0000"/>
<path d="M88.3717 202.687C94.1609 202.687 98.8764 197.975 98.8764 192.19C98.8764 186.405 94.1609 181.693 88.3717 181.693C82.5825 181.693 77.867 186.405 77.867 192.19C77.867 197.98 82.5825 202.687 88.3717 202.687ZM88.3717 186.36C91.5929 186.36 94.2054 188.971 94.2054 192.19C94.2054 195.409 91.5929 198.019 88.3717 198.019C85.1505 198.019 82.538 195.409 82.538 192.19C82.538 188.976 85.1505 186.36 88.3717 186.36Z" fill="#DC0000"/>
<path d="M177.199 20.8654C176.796 20.1669 176.766 19.2755 177.197 18.5294C177.844 17.4136 179.267 17.0315 180.383 17.6786L191.473 24.0911C192.586 24.7339 192.972 26.1626 192.328 27.2827C191.682 28.3985 190.258 28.7805 189.143 28.1335L178.052 21.721C177.683 21.5059 177.397 21.2082 177.199 20.8654Z" fill="#DC0000"/>
<path d="M175.506 7.53049C172.611 2.5169 166.173 0.789203 161.163 3.68167C156.153 6.57414 154.43 13.0139 157.325 18.0274C160.219 23.041 166.658 24.7687 171.668 21.8763C176.678 18.9838 178.401 12.5441 175.506 7.53049ZM161.367 15.6937C159.756 12.9041 160.711 9.33619 163.499 7.72679C166.286 6.11739 169.853 7.07463 171.464 9.86424C173.074 12.6539 172.12 16.2217 169.332 17.8311C166.549 19.438 162.978 18.4833 161.367 15.6937Z" fill="#DC0000"/>
<path d="M253.252 93.5282C252.607 92.4098 252.988 90.984 254.106 90.3388L266.656 83.0928C267.774 82.4475 269.199 82.83 269.845 83.9484C270.491 85.0669 270.109 86.4927 268.992 87.1379L256.441 94.3839C255.324 95.0291 253.898 94.6466 253.252 93.5282Z" fill="#DC0000"/>
<path d="M215.792 86.8401C215.388 86.1416 215.355 85.2526 215.79 84.504C216.436 83.3882 217.86 83.0062 218.976 83.6532L230.07 90.0633C231.181 90.7017 231.569 92.1348 230.923 93.2506C230.277 94.3664 228.853 94.7484 227.737 94.1013L216.643 87.6913C216.276 87.4805 215.99 87.1829 215.792 86.8401Z" fill="#DC0000"/>
<path d="M201.605 61.9612C201.407 61.6184 201.292 61.2218 201.293 60.7984L201.29 48.2935C201.288 47.0036 202.335 45.9592 203.62 45.96C204.909 45.9584 205.954 47.0064 205.956 48.2962L205.959 60.8012C205.962 62.091 204.915 63.1354 203.63 63.1346C202.763 63.1266 202.008 62.6597 201.605 61.9612Z" fill="#DC0000"/>
<path d="M214.805 26.3325C214.159 25.2141 214.541 23.7883 215.658 23.1431L227.177 16.4929C228.295 15.8476 229.72 16.2301 230.366 17.3485C231.011 18.4669 230.63 19.8927 229.512 20.538L217.994 27.1882C216.872 27.8359 215.451 27.4509 214.805 26.3325Z" fill="#DC0000"/>
<path d="M253.894 19.494C253.49 18.7955 253.457 17.9065 253.892 17.1579C254.538 16.0422 255.962 15.6601 257.078 16.3072L269.332 23.3904C270.445 24.0332 270.83 25.462 270.184 26.5778C269.538 27.6936 268.114 28.0756 266.999 27.4286L254.745 20.3453C254.377 20.1345 254.091 19.8368 253.894 19.494Z" fill="#DC0000"/>
<path d="M278.98 63.6477C278.782 63.3049 278.668 62.9083 278.669 62.4849L278.663 47.6328C278.661 46.343 279.708 45.2986 280.993 45.2994C282.282 45.2978 283.327 46.3458 283.33 47.6357L283.335 62.4877C283.337 63.7776 282.29 64.822 281.005 64.8211C280.134 64.8155 279.384 64.3462 278.98 63.6477Z" fill="#DC0000"/>
<path d="M290.62 27.2633C287.725 22.2498 281.286 20.522 276.277 23.4145C271.267 26.307 269.544 32.7467 272.438 37.7603C275.333 42.7739 281.771 44.5016 286.781 41.6091C291.791 38.7166 293.514 32.2769 290.62 27.2633ZM276.48 35.4265C274.87 32.6369 275.824 29.069 278.612 27.4596C281.4 25.8502 284.967 26.8075 286.577 29.5971C288.188 32.3867 287.233 35.9546 284.446 37.564C281.658 39.1734 278.091 38.2161 276.48 35.4265Z" fill="#DC0000"/>
<path d="M251.3 5.25093C248.405 0.237347 241.967 -1.49036 236.957 1.40211C231.947 4.29458 230.224 10.7343 233.118 15.7479C236.025 20.7829 242.451 22.4892 247.461 19.5967C252.471 16.7042 254.207 10.2859 251.3 5.25093ZM237.161 13.4141C235.562 10.6459 236.505 7.05663 239.292 5.44723C242.08 3.83783 245.659 4.8165 247.257 7.58469C248.868 10.3743 247.913 13.9422 245.126 15.5516C242.338 17.161 238.771 16.2037 237.161 13.4141Z" fill="#DC0000"/>
<path d="M290.01 72.3001C287.116 67.2865 280.677 65.5588 275.668 68.4513C270.658 71.3438 268.935 77.7835 271.829 82.7971C274.724 87.8106 281.162 89.5384 286.172 86.6459C291.182 83.7534 292.905 77.3137 290.01 72.3001ZM275.871 80.4633C274.261 77.6737 275.215 74.1059 278.003 72.4965C280.791 70.8871 284.358 71.8443 285.968 74.6339C287.579 77.4235 286.624 80.9913 283.837 82.6007C281.052 84.2144 277.482 83.2529 275.871 80.4633Z" fill="#DC0000"/>
<path d="M239.291 131.785C239.093 131.442 238.978 131.045 238.979 130.622L238.974 115.77C238.972 114.48 240.019 113.435 241.304 113.436C242.593 113.435 243.642 114.48 243.638 115.768L243.643 130.62C243.646 131.91 242.599 132.955 241.309 132.956C240.445 132.952 239.694 132.483 239.291 131.785Z" fill="#DC0000"/>
<path d="M250.328 140.439C247.433 135.425 240.995 133.697 235.985 136.59C230.975 139.482 229.252 145.922 232.147 150.936C235.041 155.949 241.48 157.677 246.49 154.785C251.504 151.89 253.223 145.452 250.328 140.439ZM236.189 148.602C234.578 145.812 235.533 142.244 238.321 140.635C241.108 139.026 244.675 139.983 246.286 142.773C247.896 145.562 246.942 149.13 244.154 150.739C241.371 152.346 237.8 151.392 236.189 148.602Z" fill="#DC0000"/>
<path d="M211.931 27.9803C209.037 22.9667 202.598 21.239 197.588 24.1315C192.578 27.0239 190.855 33.4637 193.75 38.4772C196.657 43.5123 203.083 45.2185 208.093 42.3261C213.103 39.4336 214.838 33.0153 211.931 27.9803ZM197.792 36.1435C196.194 33.3753 197.136 29.786 199.924 28.1766C202.711 26.5672 206.291 27.5459 207.889 30.3141C209.5 33.1037 208.545 36.6716 205.757 38.2809C202.97 39.8903 199.403 38.9331 197.792 36.1435Z" fill="#DC0000"/>
<path d="M250.642 95.0295C247.747 90.0159 241.309 88.2882 236.299 91.1806C231.289 94.0731 229.566 100.513 232.461 105.526C235.355 110.54 241.794 112.268 246.804 109.375C251.814 106.483 253.537 100.043 250.642 95.0295ZM236.503 103.193C234.892 100.403 235.847 96.8352 238.635 95.2258C241.422 93.6164 244.989 94.5736 246.6 97.3632C248.21 100.153 247.256 103.721 244.468 105.33C241.683 106.944 238.114 105.982 236.503 103.193Z" fill="#DC0000"/>
<path d="M213.394 71.8494C210.5 66.8358 204.061 65.1081 199.051 68.0006C194.041 70.893 192.318 77.3327 195.213 82.3463C198.108 87.3599 204.546 89.0876 209.556 86.1952C214.57 83.3002 216.289 76.863 213.394 71.8494ZM199.255 80.0126C197.645 77.223 198.599 73.6551 201.387 72.0457C204.174 70.4363 207.741 71.3935 209.352 74.1831C210.963 76.9728 210.008 80.5406 207.22 82.15C204.437 83.757 200.866 82.8022 199.255 80.0126Z" fill="#DC0000"/>
<path d="M358.099 274.662C359.39 274.662 360.434 275.706 360.434 276.996V291.488C360.434 292.779 359.39 293.822 358.099 293.822C356.807 293.822 355.763 292.779 355.763 291.488V276.996C355.763 275.706 356.807 274.662 358.099 274.662Z" fill="#DC0000"/>
<path d="M382.621 245.565C383.427 245.565 384.214 245.98 384.645 246.731C385.288 247.849 384.907 249.273 383.789 249.916L372.69 256.319C371.582 256.961 370.147 256.581 369.504 255.463C368.86 254.346 369.242 252.922 370.36 252.279L381.458 245.876C381.824 245.663 382.225 245.565 382.621 245.565Z" fill="#DC0000"/>
<path d="M411.26 245.718C411.656 245.718 412.057 245.817 412.423 246.029L423.254 252.279C424.372 252.922 424.753 254.351 424.11 255.463C423.467 256.581 422.037 256.961 420.919 256.319L410.087 250.069C408.969 249.426 408.588 247.997 409.231 246.885C409.672 246.138 410.454 245.718 411.26 245.718Z" fill="#DC0000"/>
<path d="M435.515 274.964C436.807 274.964 437.851 276.007 437.851 277.298V290.598C437.851 291.889 436.807 292.932 435.515 292.932C434.224 292.932 433.18 291.889 433.18 290.598V277.298C433.18 276.002 434.224 274.964 435.515 274.964Z" fill="#DC0000"/>
<path d="M421.893 312.235C422.7 312.235 423.487 312.65 423.917 313.402C424.56 314.519 424.179 315.943 423.061 316.586L410.8 323.656C409.687 324.299 408.257 323.918 407.613 322.801C406.97 321.683 407.351 320.259 408.469 319.617L420.731 312.546C421.097 312.334 421.498 312.235 421.893 312.235Z" fill="#DC0000"/>
<path d="M371.112 311.884C371.508 311.884 371.909 311.983 372.275 312.195L385.14 319.617C386.258 320.259 386.639 321.688 385.996 322.801C385.352 323.918 383.922 324.299 382.804 323.656L369.939 316.235C368.821 315.592 368.44 314.163 369.083 313.051C369.524 312.299 370.305 311.884 371.112 311.884Z" fill="#DC0000"/>
<path d="M396.802 340.156C402.591 340.156 407.307 335.444 407.307 329.659C407.307 323.874 402.591 319.162 396.802 319.162C391.013 319.162 386.297 323.874 386.297 329.659C386.297 335.444 391.013 340.156 396.802 340.156ZM396.802 323.829C400.023 323.829 402.636 326.44 402.636 329.659C402.636 332.878 400.023 335.488 396.802 335.488C393.581 335.488 390.968 332.878 390.968 329.659C390.968 326.44 393.581 323.829 396.802 323.829Z" fill="#DC0000"/>
<path d="M435.525 317.11C441.314 317.11 446.03 312.398 446.03 306.613C446.03 300.828 441.314 296.116 435.525 296.116C429.711 296.116 425.021 300.828 425.021 306.613C425.021 312.398 429.711 317.11 435.525 317.11ZM435.525 300.784C438.722 300.784 441.359 303.394 441.359 306.613C441.359 309.832 438.722 312.442 435.525 312.442C432.304 312.442 429.691 309.832 429.691 306.613C429.691 303.394 432.304 300.784 435.525 300.784Z" fill="#DC0000"/>
<path d="M358.104 317.11C363.893 317.11 368.608 312.398 368.608 306.613C368.608 300.828 363.893 296.116 358.104 296.116C352.314 296.116 347.599 300.828 347.599 306.613C347.599 312.398 352.314 317.11 358.104 317.11ZM358.104 300.784C361.325 300.784 363.937 303.394 363.937 306.613C363.937 309.832 361.325 312.442 358.104 312.442C354.882 312.442 352.27 309.832 352.27 306.613C352.265 303.394 354.882 300.784 358.104 300.784Z" fill="#DC0000"/>
<path d="M331.948 243.443C332.344 243.443 332.745 243.542 333.111 243.755L345.976 251.176C347.094 251.819 347.475 253.248 346.832 254.361C346.189 255.478 344.759 255.864 343.645 255.216L330.781 247.794C329.662 247.152 329.281 245.723 329.924 244.605C330.36 243.859 331.142 243.443 331.948 243.443Z" fill="#DC0000"/>
<path d="M318.935 248.675C324.724 248.675 329.44 243.963 329.44 238.178C329.44 232.393 324.724 227.681 318.935 227.681C313.146 227.681 308.43 232.393 308.43 238.178C308.43 243.967 313.146 248.675 318.935 248.675ZM318.935 232.348C322.156 232.348 324.769 234.959 324.769 238.178C324.769 241.396 322.156 244.007 318.935 244.007C315.714 244.007 313.101 241.396 313.101 238.178C313.101 234.964 315.714 232.348 318.935 232.348Z" fill="#DC0000"/>
<path d="M435.525 271.651C441.314 271.651 446.03 266.939 446.03 261.154C446.03 255.369 441.314 250.657 435.525 250.657C429.711 250.657 425.021 255.369 425.021 261.154C425.021 266.939 429.711 271.651 435.525 271.651ZM435.525 255.325C438.722 255.325 441.359 257.935 441.359 261.154C441.359 264.373 438.722 266.984 435.525 266.984C432.304 266.984 429.691 264.373 429.691 261.154C429.691 257.935 432.304 255.325 435.525 255.325Z" fill="#DC0000"/>
<path d="M358.104 271.651C363.893 271.651 368.608 266.939 368.608 261.154C368.608 255.369 363.893 250.657 358.104 250.657C352.314 250.657 347.599 255.369 347.599 261.154C347.599 266.939 352.314 271.651 358.104 271.651ZM358.104 255.325C361.325 255.325 363.937 257.935 363.937 261.154C363.937 264.373 361.325 266.984 358.104 266.984C354.882 266.984 352.27 264.373 352.27 261.154C352.265 257.935 354.882 255.325 358.104 255.325Z" fill="#DC0000"/>
<path d="M396.802 250.984C402.591 250.984 407.307 246.272 407.307 240.487C407.307 234.702 402.591 229.99 396.802 229.99C391.013 229.99 386.297 234.702 386.297 240.487C386.297 246.277 391.013 250.984 396.802 250.984ZM396.802 234.657C400.023 234.657 402.636 237.268 402.636 240.487C402.636 243.705 400.023 246.316 396.802 246.316C393.581 246.316 390.968 243.705 390.968 240.487C390.968 237.273 393.581 234.657 396.802 234.657Z" fill="#DC0000"/>
</svg>
