<svg width="107" height="107" viewBox="0 0 107 107" fill="none" xmlns="http://www.w3.org/2000/svg">
<path d="M53.1927 41.1096C46.5319 41.1096 41.1096 46.5319 41.1096 53.1927C41.1096 59.8535 46.5319 65.2758 53.1927 65.2758C59.8535 65.2758 65.2758 59.8535 65.2758 53.1927C65.2758 46.5215 59.8535 41.1096 53.1927 41.1096Z" fill="url(#paint0_radial_767_4360)"/>
<path d="M53.1927 75.548C40.8598 75.548 30.8374 65.5152 30.8374 53.1823C30.8374 40.8494 40.8702 30.827 53.1927 30.827C65.5256 30.827 75.5584 40.8598 75.5584 53.1823C75.5584 65.5048 65.5152 75.548 53.1927 75.548ZM53.1927 37.0715C44.3047 37.0715 37.0819 44.3047 37.0819 53.1823C37.0819 62.0599 44.3151 69.3035 53.1927 69.3035C62.0807 69.3035 69.3139 62.0703 69.3139 53.1823C69.3139 44.2943 62.0703 37.0715 53.1927 37.0715Z" fill="url(#paint1_radial_767_4360)"/>
<path d="M53.1927 85.8202C35.1981 85.8202 20.5548 71.1768 20.5548 53.1823C20.5548 35.1877 35.1981 20.5444 53.1927 20.5444C71.1873 20.5444 85.8306 35.1877 85.8306 53.1823C85.8306 71.1768 71.1873 85.8202 53.1927 85.8202ZM53.1927 25.7585C38.0706 25.7585 25.7585 38.0602 25.7585 53.1927C25.7585 68.3252 38.0602 80.6269 53.1927 80.6269C68.3252 80.6269 80.6269 68.3252 80.6269 53.1927C80.6269 38.0602 68.3148 25.7585 53.1927 25.7585Z" fill="url(#paint2_radial_767_4360)"/>
<path d="M53.1927 96.1028C29.5261 96.1028 10.2826 76.8489 10.2826 53.1927C10.2826 29.5261 29.5365 10.2826 53.1927 10.2826C76.8594 10.2826 96.1028 29.5365 96.1028 53.1927C96.1028 76.8489 76.8489 96.1028 53.1927 96.1028ZM53.1927 14.4352C31.8261 14.4352 14.4456 31.8157 14.4456 53.1823C14.4456 74.5489 31.8261 91.9294 53.1927 91.9294C74.5593 91.9294 91.9398 74.5489 91.9398 53.1823C91.9398 31.8157 74.5593 14.4352 53.1927 14.4352Z" fill="url(#paint3_radial_767_4360)"/>
<path d="M53.1927 106.375C23.8644 106.375 0 82.521 0 53.1927C0 23.8644 23.8644 0 53.1927 0C82.521 0 106.385 23.8644 106.385 53.1927C106.385 82.521 82.521 106.375 53.1927 106.375ZM53.1927 3.12225C25.5816 3.12225 3.12225 25.5816 3.12225 53.1927C3.12225 80.8038 25.5816 103.263 53.1927 103.263C80.8038 103.263 103.263 80.8038 103.263 53.1927C103.253 25.5816 80.7934 3.12225 53.1927 3.12225Z" fill="url(#paint4_radial_767_4360)"/>
<defs>
<radialGradient id="paint0_radial_767_4360" cx="0" cy="0" r="1" gradientUnits="userSpaceOnUse" gradientTransform="translate(53.1941 53.1889) scale(53.1941 53.1889)">
<stop offset="0.223" stop-color="#C82822"/>
<stop offset="0.7955" stop-color="#F47928"/>
<stop offset="1" stop-color="#FAA428"/>
</radialGradient>
<radialGradient id="paint1_radial_767_4360" cx="0" cy="0" r="1" gradientUnits="userSpaceOnUse" gradientTransform="translate(53.1941 53.1889) scale(53.1941 53.1889)">
<stop offset="0.223" stop-color="#C82822"/>
<stop offset="0.7955" stop-color="#F47928"/>
<stop offset="1" stop-color="#FAA428"/>
</radialGradient>
<radialGradient id="paint2_radial_767_4360" cx="0" cy="0" r="1" gradientUnits="userSpaceOnUse" gradientTransform="translate(53.1941 53.1889) scale(53.1941 53.1889)">
<stop offset="0.223" stop-color="#C82822"/>
<stop offset="0.7955" stop-color="#F47928"/>
<stop offset="1" stop-color="#FAA428"/>
</radialGradient>
<radialGradient id="paint3_radial_767_4360" cx="0" cy="0" r="1" gradientUnits="userSpaceOnUse" gradientTransform="translate(53.1941 53.1889) scale(53.1941 53.1889)">
<stop offset="0.223" stop-color="#C82822"/>
<stop offset="0.7955" stop-color="#F47928"/>
<stop offset="1" stop-color="#FAA428"/>
</radialGradient>
<radialGradient id="paint4_radial_767_4360" cx="0" cy="0" r="1" gradientUnits="userSpaceOnUse" gradientTransform="translate(53.1941 53.1889) scale(53.1941 53.1889)">
<stop offset="0.223" stop-color="#C82822"/>
<stop offset="0.7955" stop-color="#F47928"/>
<stop offset="1" stop-color="#FAA428"/>
</radialGradient>
</defs>
</svg>
