<svg width="222" height="257" viewBox="0 0 222 257" fill="none" xmlns="http://www.w3.org/2000/svg">
<path d="M122.279 248.351C115.322 252.361 106.755 252.36 99.7993 248.348L12.7895 198.156C5.82585 194.139 1.53451 186.712 1.53224 178.672L1.50392 78.4005C1.50165 70.3545 5.79601 62.9196 12.7667 58.9012L99.7203 8.77439C106.678 4.76373 115.245 4.76507 122.201 8.77793L209.208 58.9716C216.171 62.9885 220.462 70.4152 220.464 78.4539L220.496 178.724C220.498 186.77 216.204 194.205 209.233 198.224L122.279 248.351Z" fill="url(#paint0_radial_785_7882)" stroke="white" stroke-width="3"/>
<path d="M144.67 143.597L141.318 141.3C146.929 133.36 156.472 114.53 152.429 100.086C150.408 92.8653 145.197 87.3385 136.944 83.6619C124.951 78.3201 108.894 77.1294 92.8904 80.3997C92.7638 80.4238 84.6823 82.0771 80.8846 82.8494C81.7789 85.7214 84.4128 87.8332 87.5776 88.0022L96.5983 88.4849C100.118 88.6739 103.287 90.5685 105.08 93.5612L116.351 112.354C117.265 113.879 118.94 114.768 120.745 114.675C123.599 114.526 126.368 115.753 128.152 117.954L128.72 118.653C131.007 121.469 131.668 125.19 130.488 128.605L129.463 131.574C128.148 135.375 124.681 138.142 120.634 138.617L117.874 138.943L117.388 134.949L120.148 134.623C122.648 134.329 124.787 132.624 125.596 130.274L126.621 127.306C127.348 125.198 126.944 122.901 125.531 121.163L124.963 120.464C123.995 119.273 122.505 118.613 120.953 118.69C117.645 118.863 114.521 117.213 112.831 114.398L101.56 95.6047C100.461 93.7744 98.5216 92.616 96.3696 92.4993L87.3489 92.0166C81.5175 91.7028 76.85 87.1373 76.4906 81.3973L76.3804 79.6555L78.1118 79.3015C92.041 76.4577 92.0614 76.4536 92.0737 76.4496C108.886 73.0184 125.857 74.3056 138.619 79.9894C148.031 84.1808 153.997 90.5806 156.358 99.0117C161.924 118.867 145.377 142.595 144.67 143.597Z" fill="white"/>
<path d="M104.173 180.937C103.969 180.728 102.078 178.673 98.0684 171.36C95.2997 166.312 92.6944 164.144 91.6653 163.428L83.6328 164.554C82.0402 164.779 80.4394 164.393 79.1327 163.468L76.6539 161.718C74.2732 160.037 73.3993 156.899 74.5754 154.256L75.6004 151.956L72.848 148.975C72.3253 148.412 72.064 147.68 72.1007 146.919C72.1416 146.159 72.4805 145.459 73.0563 144.952L74.751 143.46L71.725 141.602C70.5612 140.886 70.0712 139.45 70.5571 138.187L72.2192 133.875L67.0166 130.347C65.8732 129.574 65.1463 128.348 65.0198 126.988C64.8932 125.628 65.3791 124.293 66.3592 123.328L77.7565 112.065C78.1894 111.634 78.4181 111.043 78.3813 110.44L78.3731 110.287C78.0138 104.345 79.0551 98.2997 81.3828 92.809L81.4318 92.6884L85.2009 94.237L85.1478 94.3577C83.0529 99.2892 82.1178 104.712 82.4445 110.045L82.4527 110.198C82.5588 111.948 81.8973 113.666 80.6436 114.904L69.2463 126.167C69.083 126.332 69.0707 126.521 69.0829 126.618C69.0911 126.719 69.136 126.904 69.328 127.032L75.3064 131.087C76.4048 131.831 76.8377 133.207 76.3681 134.434L74.7224 138.705L78.267 140.886C79.0306 141.356 79.5329 142.165 79.6105 143.05C79.6881 143.935 79.3328 144.816 78.6631 145.407L76.6784 147.157L79.1409 149.824C79.9045 150.652 80.1046 151.851 79.6472 152.873L78.3119 155.877C77.9076 156.791 78.2098 157.873 79.0306 158.456L81.5094 160.206C81.9586 160.523 82.5098 160.656 83.057 160.58L92.4371 159.264L92.9966 159.53C93.4417 159.743 97.4681 161.815 101.658 169.457C105.386 176.259 107.13 178.174 107.146 178.194L104.173 180.937Z" fill="white"/>
<path d="M110.074 164.268C108.649 164.268 107.224 163.741 106.142 162.683C105.088 161.654 104.504 160.286 104.504 158.83C104.504 157.374 105.084 156.006 106.142 154.976C108.31 152.861 111.842 152.861 114.011 154.976C115.064 156.006 115.648 157.374 115.648 158.83C115.648 160.286 115.068 161.654 114.011 162.683C112.925 163.741 111.499 164.268 110.074 164.268ZM110.074 155.821C109.278 155.821 108.486 156.115 107.877 156.706C107.297 157.273 106.975 158.025 106.975 158.83C106.975 159.63 107.297 160.387 107.877 160.954C109.086 162.132 111.058 162.132 112.267 160.954C112.847 160.387 113.17 159.63 113.17 158.83C113.17 158.029 112.847 157.277 112.267 156.706C111.663 156.119 110.87 155.821 110.074 155.821Z" fill="white"/>
<path d="M101.887 157.12C101.703 157.12 101.515 157.08 101.339 156.996C100.727 156.698 100.478 155.966 100.78 155.367C102.001 152.937 104.043 150.942 106.534 149.755C107.15 149.462 107.889 149.715 108.183 150.322C108.482 150.926 108.224 151.658 107.608 151.947C105.607 152.901 103.969 154.498 102.993 156.445C102.781 156.871 102.344 157.12 101.887 157.12Z" fill="white"/>
<path d="M96.9331 158.259C96.831 158.259 96.7289 158.247 96.6269 158.223C95.9653 158.058 95.5651 157.394 95.7326 156.742C97.2435 150.873 101.919 146.308 107.938 144.836C108.604 144.671 109.27 145.073 109.437 145.725C109.6 146.376 109.2 147.036 108.535 147.201C103.402 148.456 99.416 152.342 98.1296 157.342C97.9908 157.893 97.4885 158.259 96.9331 158.259Z" fill="white"/>
<path d="M113.076 168.029C112.618 168.029 112.177 167.776 111.961 167.342C111.663 166.738 111.92 166.006 112.537 165.716C114.538 164.763 116.175 163.166 117.151 161.219C117.453 160.616 118.197 160.371 118.805 160.668C119.417 160.966 119.667 161.698 119.364 162.297C118.143 164.727 116.102 166.722 113.611 167.909C113.439 167.989 113.255 168.029 113.076 168.029Z" fill="white"/>
<path d="M111.908 172.86C111.352 172.86 110.85 172.49 110.707 171.935C110.544 171.284 110.944 170.624 111.61 170.459C116.743 169.204 120.728 165.318 122.015 160.318C122.182 159.667 122.852 159.272 123.517 159.437C124.179 159.602 124.579 160.266 124.412 160.918C122.901 166.79 118.221 171.352 112.206 172.824C112.108 172.848 112.006 172.86 111.908 172.86Z" fill="white"/>
<defs>
<radialGradient id="paint0_radial_785_7882" cx="0" cy="0" r="1" gradientUnits="userSpaceOnUse" gradientTransform="translate(67.5507 289.837) rotate(-57.4037) scale(300.129 260.021)">
<stop stop-color="#FAA628"/>
<stop offset="0.203767" stop-color="#FAA628"/>
<stop offset="0.677083" stop-color="#E62C28"/>
<stop offset="1" stop-color="#A01A19"/>
</radialGradient>
</defs>
</svg>
