<svg width="222" height="257" viewBox="0 0 222 257" fill="none" xmlns="http://www.w3.org/2000/svg">
<path d="M122.279 248.351C115.322 252.361 106.755 252.36 99.7993 248.348L12.7895 198.156C5.82584 194.139 1.53449 186.712 1.53222 178.672L1.50391 78.4005C1.50164 70.3545 5.79599 62.9196 12.7667 58.9012L99.7203 8.77439C106.678 4.76373 115.245 4.76507 122.201 8.77793L209.208 58.9716C216.171 62.9885 220.462 70.4152 220.464 78.4539L220.496 178.724C220.498 186.77 216.204 194.205 209.233 198.224L122.279 248.351Z" fill="url(#paint0_radial_785_7881)" stroke="white" stroke-width="3"/>
<path d="M83.2813 175.656C78.3434 175.656 73.4015 173.797 69.6421 170.084C62.1193 162.652 62.1193 150.564 69.6421 143.136L75.7546 137.098C80.0852 132.82 86.0459 130.855 92.1184 131.707L91.5551 135.614C86.7411 134.939 82.0109 136.498 78.5751 139.888L72.4626 145.927C66.5019 151.819 66.5019 161.401 72.4626 167.293C78.4273 173.186 88.1273 173.186 94.092 167.293L100.205 161.255C103.636 157.865 105.214 153.192 104.531 148.433L108.486 147.876C109.349 153.871 107.36 159.763 103.029 164.041L96.9165 170.08C93.1612 173.801 88.2192 175.656 83.2813 175.656Z" fill="white"/>
<path d="M83.2813 168.829C79.9734 168.829 76.8652 167.558 74.5321 165.253C69.706 160.49 69.706 152.735 74.5321 147.967L80.6445 141.929C81.6433 140.942 82.7939 140.137 84.0603 139.541L85.7782 143.105C84.9233 143.507 84.1442 144.052 83.4651 144.719L77.3526 150.757C75.7745 152.316 74.9036 154.396 74.9036 156.61C74.9036 158.824 75.7745 160.904 77.3526 162.463C78.9307 164.022 81.0361 164.882 83.2773 164.882C85.5186 164.882 87.624 164.022 89.202 162.463L95.3145 156.425C95.9937 155.754 96.541 154.988 96.9485 154.14L100.556 155.837C99.9528 157.088 99.1378 158.224 98.139 159.211L92.0266 165.249C89.6974 167.558 86.5892 168.829 83.2813 168.829Z" fill="white"/>
<path d="M94.2838 151.132C92.8256 151.132 91.4553 150.572 90.4245 149.554C89.3938 148.535 88.8265 147.182 88.8265 145.741C88.8265 144.301 89.3938 142.947 90.4245 141.929L105.286 127.248L113.001 134.868L98.139 149.55C97.1123 150.572 95.742 151.132 94.2838 151.132ZM105.29 132.828L93.2531 144.719C92.9774 144.991 92.8256 145.354 92.8256 145.741C92.8256 146.128 92.9774 146.487 93.2531 146.759C93.8044 147.304 94.7672 147.304 95.3185 146.759L107.356 134.868L105.29 132.828Z" fill="white"/>
<path d="M133.464 126.15C132.545 126.15 131.614 126.087 130.683 125.953L131.246 122.046C136.06 122.721 140.791 121.166 144.226 117.772L150.339 111.734C153.227 108.88 154.817 105.087 154.817 101.05C154.817 97.0128 153.227 93.2201 150.339 90.3667C147.45 87.5134 143.611 85.9426 139.524 85.9426C135.437 85.9426 131.598 87.5134 128.709 90.3667L122.597 96.405C119.165 99.7951 117.587 104.468 118.27 109.227L114.315 109.784C113.452 103.789 115.442 97.8968 119.772 93.6187L125.885 87.5805C129.528 83.9812 134.371 82 139.524 82C144.678 82 149.52 83.9812 153.163 87.5805C156.807 91.1797 158.812 95.963 158.812 101.054C158.812 106.145 156.807 110.928 153.163 114.528L147.051 120.566C143.383 124.185 138.545 126.15 133.464 126.15Z" fill="white"/>
<path d="M138.741 118.119L137.023 114.555C137.878 114.153 138.657 113.608 139.336 112.941L145.449 106.903C147.027 105.344 147.898 103.264 147.898 101.05C147.898 98.8361 147.027 96.7563 145.449 95.1974C142.181 91.9691 136.867 91.973 133.599 95.1974L127.487 101.236C126.812 101.907 126.26 102.672 125.853 103.521L122.245 101.824C122.849 100.573 123.664 99.436 124.662 98.4493L130.775 92.4111C135.597 87.6436 143.447 87.6436 148.273 92.4111C150.607 94.7159 151.893 97.7863 151.893 101.054C151.893 104.322 150.607 107.392 148.273 109.697L142.161 115.735C141.162 116.718 140.012 117.523 138.741 118.119Z" fill="white"/>
<path d="M117.515 130.413L109.801 122.792L124.662 108.111C126.788 106.011 130.252 106.007 132.377 108.111C134.502 110.214 134.502 113.632 132.377 115.731L117.515 130.413ZM115.45 122.792L117.515 124.832L129.552 112.941C130.12 112.377 130.12 111.461 129.552 110.901C128.985 110.336 128.054 110.336 127.487 110.901L115.45 122.792Z" fill="white"/>
<path d="M99.4003 114.187L96.5753 116.977L99.0217 119.394L101.847 116.603L99.4003 114.187Z" fill="white"/>
<path d="M93.6048 121.518L91.9161 125.094L95.0517 126.539L96.7404 122.962L93.6048 121.518Z" fill="white"/>
<path d="M107.622 109.572L104.001 111.239L105.463 114.337L109.084 112.669L107.622 109.572Z" fill="white"/>
<path d="M123.78 138.273L120.955 141.064L123.401 143.481L126.226 140.69L123.78 138.273Z" fill="white"/>
<path d="M117.33 143.318L113.709 144.986L115.172 148.083L118.792 146.415L117.33 143.318Z" fill="white"/>
<path d="M127.763 131.121L126.074 134.698L129.21 136.142L130.898 132.566L127.763 131.121Z" fill="white"/>
<defs>
<radialGradient id="paint0_radial_785_7881" cx="0" cy="0" r="1" gradientUnits="userSpaceOnUse" gradientTransform="translate(67.5507 289.837) rotate(-57.4037) scale(300.129 260.021)">
<stop stop-color="#FAA628"/>
<stop offset="0.203767" stop-color="#FAA628"/>
<stop offset="0.677083" stop-color="#E62C28"/>
<stop offset="1" stop-color="#A01A19"/>
</radialGradient>
</defs>
</svg>
