<svg width="222" height="257" viewBox="0 0 222 257" fill="none" xmlns="http://www.w3.org/2000/svg">
<path d="M122.279 248.351C115.322 252.361 106.755 252.36 99.7993 248.348L12.7895 198.156C5.82584 194.139 1.53449 186.712 1.53222 178.672L1.50391 78.4005C1.50164 70.3545 5.79599 62.9196 12.7667 58.9012L99.7203 8.77439C106.678 4.76373 115.245 4.76507 122.201 8.77793L209.208 58.9716C216.171 62.9885 220.462 70.4152 220.464 78.4539L220.496 178.724C220.498 186.77 216.204 194.205 209.233 198.224L122.279 248.351Z" fill="url(#paint0_radial_785_7880)" stroke="white" stroke-width="3"/>
<path d="M66.3425 154.331L63 152.702C66.5807 145.443 71.5275 141.912 78.1306 141.912C81.0563 141.945 83.9372 142.686 86.4943 144.055C90.09 145.651 93.9722 145.299 97.4264 143.063C101.915 140.154 104.789 134.661 104.74 129.068C104.618 114.436 100.289 110.598 95.7067 106.533C92.1223 103.354 88.0577 99.7486 86.0589 91.2426L89.6842 90.4024C91.4113 97.7646 94.7017 100.681 98.182 103.772C103.166 108.195 108.321 112.767 108.459 129.038C108.518 135.864 104.982 142.59 99.455 146.169C94.8804 149.13 89.7103 149.571 84.9013 147.405L84.7784 147.342C82.7387 146.239 80.4309 145.64 78.1083 145.614C73.0201 145.614 69.2756 148.386 66.3425 154.331Z" fill="white"/>
<path d="M158.734 130.993L155.023 130.708C155.168 128.853 155.243 126.88 155.247 124.852C155.247 112.115 151.781 103.169 144.951 98.268C140.12 94.8034 134.786 94.2852 132.035 94.2852H131.905C123.668 94.2852 120.221 96.9281 117.705 98.8565C116.097 100.089 114.578 101.255 112.46 101.255C112.456 101.255 112.453 101.255 112.449 101.255C110.558 101.255 108.738 100.363 107.584 98.8676C105.6 96.3247 103.866 94.722 102.336 93.308C99.2205 90.4283 96.9685 88.348 96.9685 82H100.691C100.691 86.7342 102.001 87.9446 104.871 90.5948C106.423 92.031 108.358 93.8151 110.532 96.606C110.994 97.202 111.708 97.5536 112.453 97.5536H112.456C113.272 97.5536 114.035 96.9947 115.431 95.925C118.204 93.7966 122.398 90.5837 131.901 90.5837H132.031C138.352 90.5837 158.969 93.0563 158.969 124.852C158.965 126.98 158.887 129.046 158.734 130.993Z" fill="white"/>
<path d="M113.588 174.5C96.9425 174.5 88.6644 167.119 83.7139 162.707C81.7635 160.967 80.0773 159.465 79.0351 159.465C79.0314 159.465 79.0277 159.465 79.0277 159.465C78.1344 159.465 77.3229 160.012 76.9991 160.834L76.9619 160.923C76.1616 162.685 75.0896 164.306 73.7794 165.735L71.0287 163.244C72.0672 162.111 72.9159 160.827 73.5561 159.435C74.4457 157.236 76.6343 155.763 79.0202 155.763C79.0277 155.763 79.0351 155.763 79.0426 155.763C81.4992 155.763 83.5724 157.61 86.1966 159.949C91.0428 164.269 98.3644 170.799 113.562 170.799C117.66 170.75 121.758 170.162 125.722 169.051L126.731 172.612C122.458 173.815 118.032 174.448 113.588 174.5Z" fill="white"/>
<path d="M95.9673 149.53C92.1818 149.53 88.4932 148.827 84.9831 147.438L86.3603 144C89.5689 145.269 92.9523 145.876 96.399 145.828C100.099 145.743 103.762 145.088 107.272 143.885L108.485 147.387C104.61 148.715 100.572 149.437 96.4735 149.534C96.306 149.53 96.1348 149.53 95.9673 149.53Z" fill="white"/>
<path d="M133.021 163.044L124.632 152.835L127.516 150.492L133.021 157.196L144.988 142.627L147.873 144.97L133.021 163.044Z" fill="white"/>
<path d="M135.731 174.441C123.072 174.441 112.773 164.199 112.773 151.606C112.773 139.018 123.072 128.776 135.731 128.776C148.39 128.776 158.693 139.018 158.693 151.606C158.69 164.199 148.39 174.441 135.731 174.441ZM135.731 132.477C125.123 132.477 116.495 141.061 116.495 151.606C116.495 162.152 125.127 170.739 135.731 170.739C146.336 170.739 154.971 162.156 154.971 151.606C154.971 141.057 146.339 132.477 135.731 132.477Z" fill="white"/>
<defs>
<radialGradient id="paint0_radial_785_7880" cx="0" cy="0" r="1" gradientUnits="userSpaceOnUse" gradientTransform="translate(67.5507 289.837) rotate(-57.4037) scale(300.129 260.021)">
<stop stop-color="#FAA628"/>
<stop offset="0.203767" stop-color="#FAA628"/>
<stop offset="0.677083" stop-color="#E62C28"/>
<stop offset="1" stop-color="#A01A19"/>
</radialGradient>
</defs>
</svg>
