<svg width="222" height="257" viewBox="0 0 222 257" fill="none" xmlns="http://www.w3.org/2000/svg">
<path d="M122.279 248.351C115.322 252.361 106.755 252.36 99.7993 248.348L12.7895 198.156C5.82584 194.139 1.53449 186.712 1.53222 178.672L1.50391 78.4005C1.50164 70.3545 5.796 62.9196 12.7667 58.9012L99.7203 8.77439C106.677 4.76373 115.245 4.76507 122.201 8.77792L209.208 58.9716C216.171 62.9885 220.462 70.4152 220.464 78.4539L220.496 178.724C220.498 186.77 216.204 194.205 209.233 198.224L122.279 248.351Z" fill="url(#paint0_radial_785_7879)" stroke="white" stroke-width="3"/>
<path d="M67.4116 84.6432H63.6998V106.114H67.4116V84.6432Z" fill="white"/>
<path d="M74.1077 84.6432H70.3959V106.114H74.1077V84.6432Z" fill="white"/>
<path d="M68.9038 172.354C66.0346 172.354 63.6998 170.051 63.6998 167.222V117.518C60.0585 116.215 57 111.283 57 106.111V87.9453H60.7118V106.111C60.7118 108.091 61.3762 110.258 62.4935 111.909C63.4437 113.315 64.6166 114.19 65.5557 114.19H67.4116V167.218C67.4116 168.031 68.0798 168.69 68.9038 168.69C69.7278 168.69 70.3959 168.031 70.3959 167.218V114.19H72.2518C73.1872 114.19 74.3602 113.315 75.3141 111.909C76.4313 110.258 77.0958 108.091 77.0958 106.111V87.9453H80.8076V106.111C80.8076 111.283 77.7528 116.215 74.1077 117.518V167.218C74.1077 170.051 71.773 172.354 68.9038 172.354Z" fill="white"/>
<path d="M159.327 172.354C157.935 172.354 156.625 171.82 155.645 170.85C154.662 169.879 154.12 168.591 154.12 167.218L154.123 134.944L147.424 128.336V102.808C147.424 88.4907 161.428 83.1495 162.022 82.9262L164.531 82V167.218C164.535 170.051 162.2 172.354 159.327 172.354ZM151.139 126.824L157.839 133.432L157.835 167.222C157.835 167.617 157.991 167.983 158.273 168.261C158.555 168.539 158.93 168.693 159.327 168.693C160.155 168.693 160.823 168.034 160.823 167.222V87.5719C157.249 89.6036 151.139 94.3189 151.139 102.808V126.824Z" fill="white"/>
<path d="M141.266 98.84C133.096 90.863 122.265 86.4699 110.766 86.4699C102.076 86.4699 93.695 88.9959 86.5275 93.7734L84.4489 90.7385C92.2325 85.5511 101.334 82.8091 110.766 82.8091C123.248 82.8091 135.007 87.5792 143.875 96.2372L141.266 98.84Z" fill="white"/>
<path d="M110.766 175.656C98.4907 175.656 86.8727 171.022 78.0497 162.609L80.6294 159.977C88.7546 167.727 99.4594 171.995 110.766 171.995C125.776 171.995 139.51 164.502 147.505 151.948L150.649 153.896C141.971 167.522 127.061 175.656 110.766 175.656Z" fill="white"/>
<path d="M110.766 152.534C97.7372 152.534 87.1399 142.082 87.1399 129.233C87.1399 116.383 97.7372 105.931 110.766 105.931C123.794 105.931 134.391 116.383 134.391 129.233C134.391 142.082 123.794 152.534 110.766 152.534ZM110.766 109.592C99.7861 109.592 90.8517 118.404 90.8517 129.233C90.8517 140.062 99.7861 148.873 110.766 148.873C121.745 148.873 130.68 140.062 130.68 129.233C130.68 118.404 121.745 109.592 110.766 109.592Z" fill="white"/>
<path d="M111.4 140.336L101.234 132.315L103.554 129.456L110.135 134.647L117.48 120.157L120.799 121.794L111.4 140.336Z" fill="white"/>
<defs>
<radialGradient id="paint0_radial_785_7879" cx="0" cy="0" r="1" gradientUnits="userSpaceOnUse" gradientTransform="translate(67.5507 289.837) rotate(-57.4037) scale(300.129 260.021)">
<stop stop-color="#FAA628"/>
<stop offset="0.203767" stop-color="#FAA628"/>
<stop offset="0.677083" stop-color="#E62C28"/>
<stop offset="1" stop-color="#A01A19"/>
</radialGradient>
</defs>
</svg>
