<svg width="545" height="361" viewBox="0 0 545 361" fill="none" xmlns="http://www.w3.org/2000/svg">
<path d="M199.37 102.043L203.467 106.935C203.717 111.267 206.178 114.656 210.702 114.391L225.068 113.551L225.952 113.139C209.832 78.0689 178.682 34.9834 122.91 34.9834C66.4446 34.9834 34.7346 79.1446 18.4229 114.45L18.4523 114.465H36.1492C40.6876 114.465 42.9421 110.943 42.9421 106.596L46.1249 102.028C46.1249 102.028 60.3295 81.1485 78.9989 71.3939C97.8304 61.5508 122.261 59.9447 122.261 59.9447C122.261 59.9447 147.665 61.5508 166.496 71.3939C185.151 81.1633 199.37 102.043 199.37 102.043Z" fill="white"/>
<path d="M144.835 275.682C144.835 275.682 144.688 277.642 140.238 278.865C135.788 280.088 129.466 280.898 124.339 278.968L120.419 277.436V277.701L116.75 278.85C111.652 280.854 105.979 280.884 100.851 278.953L96.224 277.126V277.421C96.224 277.421 96.2829 279.646 87.6629 281.488C78.9986 283.33 71.7342 278.246 71.7342 278.246L68.8756 277.436C36.252 257.278 18.3489 219.998 9.50781 194.875L10.7898 195.199H27.9709C32.5093 195.199 34.7638 198.721 34.7638 203.068L39.0959 214.222L38.7718 213.78C39.9064 215.209 40.4663 217.169 40.4663 219.335L49.9115 232.169C55.6729 236.192 66.9748 253.329 74.6665 254.552C87.9576 256.689 120.522 258.133 120.522 258.133H120.802C120.802 258.133 153.367 256.689 166.658 254.552C174.35 253.314 187.331 234.512 193.093 230.49L200.873 219.335C200.873 217.169 201.433 215.195 202.567 213.78L202.243 214.222L205.013 203.068C205.013 198.721 207.268 195.199 211.806 195.199H230.608L233.511 192.915C225.466 218.024 207.99 256.762 173.112 277.45L169.296 277.2C169.296 277.2 164.521 280.515 156.682 280.118C148.843 279.72 144.511 276.36 144.511 276.36" fill="white"/>
<path d="M237.607 115.128C237.534 112.284 237.165 109.44 236.443 106.67C224.744 61.6838 202.833 27.7341 173.303 11.496C166.378 6.86917 147.134 -1.132 132.251 0.149955C127.521 0.562539 122.909 3.15592 119.019 3.15592C115.129 3.15592 110.384 0.503599 105.581 0.120485C90.7277 -1.07306 71.6458 6.88391 64.7497 11.4813C35.5447 27.5426 13.8104 60.9176 2.00753 105.167C1.06448 108.733 0.592995 112.417 0.66667 116.101L1.63915 168.13C1.63915 168.13 -2.78138 335.831 119.712 335.831C241.733 335.831 239.096 170.061 239.096 170.061L239.081 168.13L237.607 115.128Z" fill="#FFF5F5"/>
<path d="M199.37 102.043L203.467 106.936C203.717 111.268 206.178 114.657 210.702 114.391L225.068 113.552L225.952 113.139C209.832 78.0694 178.682 34.9839 122.91 34.9839C66.4446 34.9839 34.7346 79.1451 18.4229 114.45L18.4523 114.465H36.1492C40.6876 114.465 42.9421 110.943 42.9421 106.597L46.1249 102.029C46.1249 102.029 60.3295 81.149 78.9989 71.3944C97.8304 61.5513 122.261 59.9452 122.261 59.9452C122.261 59.9452 147.665 61.5513 166.496 71.3944C185.151 81.1638 199.37 102.043 199.37 102.043Z" fill="white"/>
<path d="M144.835 275.683C144.835 275.683 144.688 277.643 140.238 278.866C135.788 280.089 129.466 280.899 124.339 278.969L120.419 277.436V277.701L116.75 278.851C111.652 280.855 105.979 280.884 100.851 278.954L96.224 277.127V277.421C96.224 277.421 96.2829 279.646 87.6629 281.488C78.9986 283.33 71.7342 278.247 71.7342 278.247L68.8756 277.436C36.252 257.279 18.3489 219.999 9.50781 194.875L10.7898 195.199H27.9709C32.5093 195.199 34.7638 198.721 34.7638 203.068L39.0959 214.223L38.7718 213.78C39.9064 215.21 40.4663 217.17 40.4663 219.336L49.9115 232.17C55.6729 236.193 66.9748 253.33 74.6665 254.553C87.9576 256.689 120.522 258.133 120.522 258.133H120.802C120.802 258.133 153.367 256.689 166.658 254.553C174.35 253.315 187.331 234.513 193.093 230.49L200.873 219.336C200.873 217.17 201.433 215.195 202.567 213.78L202.243 214.223L205.013 203.068C205.013 198.721 207.268 195.199 211.806 195.199H230.608L233.511 192.916C225.466 218.024 207.99 256.763 173.112 277.451L169.296 277.2C169.296 277.2 164.521 280.516 156.682 280.118C148.843 279.72 144.511 276.361 144.511 276.361" fill="white"/>
<path d="M45.2203 307.924L45.2205 307.924C64.4899 327.549 89.407 337.5 119.352 337.5C149.326 337.5 174.377 327.563 193.808 307.966L193.808 307.966C218.15 283.439 229.275 247.879 234.329 222.327C239.695 195.207 239.506 173.345 239.497 172.388C239.497 172.375 239.497 172.365 239.497 172.36L239.497 172.356M45.2203 307.924L239.997 172.356H239.497M45.2203 307.924C34.4606 296.973 25.4173 282.918 18.3328 266.14C12.6856 252.752 8.26749 237.625 5.19887 221.151C0.115657 193.834 0.492328 171.753 0.514173 170.473C0.514545 170.451 0.514814 170.435 0.514952 170.425L0.514958 170.425C0.524347 169.95 0.89822 169.547 1.3897 169.5H1.38991H1.39014H1.39038H1.39061H1.39084H1.39108H1.39131H1.39154H1.39178H1.39201H1.39224H1.39247H1.3927H1.39293H1.39317H1.3934H1.39363H1.39386H1.39409H1.39432H1.39455H1.39478H1.39501H1.39524H1.39547H1.3957H1.39592H1.39615H1.39638H1.39661H1.39684H1.39707H1.39729H1.39752H1.39775H1.39798H1.3982H1.39843H1.39866H1.39888H1.39911H1.39933H1.39956H1.39979H1.40001H1.40024H1.40046H1.40069H1.40091H1.40114H1.40136H1.40159H1.40181H1.40204H1.40226H1.40248H1.40271H1.40293H1.40315H1.40338H1.4036H1.40382H1.40405H1.40427H1.40449H1.40472H1.40494H1.40516H1.40538H1.4056H1.40583H1.40605H1.40627H1.40649H1.40671H1.40693H1.40715H1.40738H1.4076H1.40782H1.40804H1.40826H1.40848H1.4087H1.40892H1.40914H1.40936H1.40958H1.4098H1.41002H1.41024H1.41046H1.41068H1.4109H1.41111H1.41133H1.41155H1.41177H1.41199H1.41221H1.41243H1.41265H1.41286H1.41308H1.4133H1.41352H1.41374H1.41395H1.41417H1.41439H1.41461H1.41483H1.41504H1.41526H1.41548H1.4157H1.41591H1.41613H1.41635H1.41656H1.41678H1.417H1.41722H1.41743H1.41765H1.41787H1.41808H1.4183H1.41852H1.41873H1.41895H1.41916H1.41938H1.4196H1.41981H1.42003H1.42025H1.42046H1.42068H1.42089H1.42111H1.42133H1.42154H1.42176H1.42197H1.42219H1.42241H1.42262H1.42284H1.42305H1.42327H1.42348H1.4237H1.42392H1.42413H1.42435H1.42456H1.42478H1.42499H1.42521H1.42542H1.42564H1.42586H1.42607H1.42629H1.4265H1.42672H1.42693H1.42715H1.42736H1.42758H1.42779H1.42801H1.42823H1.42844H1.42866H1.42887H1.42909H1.4293H1.42952H1.42973H1.42995H1.43017H1.43038H1.4306H1.43081H1.43103H1.43124H1.43146H1.43168H1.43189H1.43211H1.43232H1.43254H1.43275H1.43297H1.43319H1.4334H1.43362H1.43383H1.43405H1.43427H1.43448H1.4347H1.43492H1.43513H1.43535H1.43556H1.43578H1.436H1.43621H1.43643H1.43665H1.43686H1.43708H1.4373H1.43751H1.43773H1.43795H1.43817H1.43838H1.4386H1.43882H1.43904H1.43925H1.43947H1.43969H1.43991H1.44012H1.44034H1.44056H1.44078H1.441H1.44121H1.44143H1.44165H1.44187H1.44209H1.44231H1.44252H1.44274H1.44296H1.44318H1.4434H1.44362H1.44384H1.44406H1.44428H1.4445H1.44472H1.44494H1.44516H1.44538H1.4456H1.44582H1.44604H1.44626H1.44648H1.4467H1.44692H1.44714H1.44736H1.44758H1.44781H1.44803H1.44825H1.44847H1.44869H1.44891H1.44914H1.44936H1.44958H1.4498H1.45003H1.45025H1.45047H1.45069H1.45092H1.45114H1.45136H1.45159H1.45181H1.45204H1.45226H1.45248H1.45271H1.45293H1.45316H1.45338H1.45361H1.45383H1.45406H1.45428H1.45451H1.45474H1.45496H1.45519H1.45541H1.45564H1.45587H1.45609H1.45632H1.45655H1.45678H1.457H1.45723H1.45746H1.45769H1.45792H1.45814H1.45837H1.4586H1.45883H1.45906H1.45929H1.45952H1.45975H1.45998H1.46021H1.46044H1.46067H1.4609H1.46113H1.46136H1.46159H1.46182H1.46206H1.46229H1.46252H1.46275H1.46299H1.46322H1.46345H1.46369H1.46392H1.46415H1.46439H1.46462H1.46485H1.46509H1.46532H1.46556H1.46579H1.46603H1.46627H1.4665H1.46674H1.46697H1.46721H1.46745H1.46768H1.46792H1.46816H1.4684H1.46864H1.46887H1.46911H1.46935H1.46959H1.46983H1.47007H1.47031H1.47055H1.47079H1.47103H1.47127H1.47151H1.47175H1.472H1.47224H1.47248H1.47272H1.47296H1.47321H1.47345H1.47369H1.47394H1.47418H1.47443H1.47467H1.47492H1.47516H1.47541H1.47565H1.4759H1.47614H1.47639H1.47664H1.47689H1.47713H1.47738H1.47763H1.47788H1.47813H1.47837H1.47862H1.47887H1.47912H1.47937H1.47962H1.47987H1.48012H1.48038H1.48063H1.48088H1.48113H1.48138H1.48164H1.48189H1.48214H1.4824H1.48265H1.48291H1.48316H1.48342H1.48367H1.48393H1.48418H1.48444H1.4847H1.48495H1.48521H1.48547H1.48573H1.48599C1.94317 169.5 2.35061 169.831 2.43656 170.277L2.43662 170.277C2.62007 171.292 8.63827 201.144 25.7208 230.643L26.1535 230.392L25.7208 230.643C35.8388 248.114 47.8257 262.062 61.35 272.048C78.1911 284.502 97.4912 290.811 118.69 290.811C141.366 290.811 161.723 284.507 179.17 272.068C193.168 262.096 205.334 248.175 215.366 230.714L214.933 230.465C232.025 200.71 237.011 170.532 237.055 170.226L237.549 170.307C237.549 170.306 237.549 170.306 237.549 170.305C237.627 169.838 238.03 169.5 238.512 169.5H238.512H238.512H238.512H238.512H238.512H238.513H238.513H238.513H238.513H238.513H238.514H238.514H238.514H238.514H238.514H238.514H238.515H238.515H238.515H238.515H238.515H238.515H238.516H238.516H238.516H238.516H238.516H238.517H238.517H238.517H238.517H238.517H238.517H238.518H238.518H238.518H238.518H238.518H238.519H238.519H238.519H238.519H238.519H238.519H238.52H238.52H238.52H238.52H238.52H238.521H238.521H238.521H238.521H238.521H238.522H238.522H238.522H238.522H238.522H238.522H238.523H238.523H238.523H238.523H238.523H238.524H238.524H238.524H238.524H238.524H238.525H238.525H238.525H238.525H238.525H238.526H238.526H238.526H238.526H238.526H238.527H238.527H238.527H238.527H238.527H238.528H238.528H238.528H238.528H238.528H238.529H238.529H238.529H238.529H238.529H238.529H238.53H238.53H238.53H238.53H238.53H238.531H238.531H238.531H238.531H238.531H238.532H238.532H238.532H238.532H238.532H238.533H238.533H238.533H238.533H238.533H238.534H238.534H238.534H238.534H238.535H238.535H238.535H238.535H238.535H238.536H238.536H238.536H238.536H238.536H238.537H238.537H238.537H238.537H238.537H238.538H238.538H238.538H238.538H238.538H238.539H238.539H238.539H238.539H238.539H238.54H238.54H238.54H238.54H238.54H238.541H238.541H238.541H238.541H238.542H238.542H238.542H238.542H238.542H238.543H238.543H238.543H238.543H238.543H238.544H238.544H238.544H238.544H238.544H238.545H238.545H238.545H238.545H238.546H238.546H238.546H238.546H238.546H238.547H238.547H238.547H238.547H238.547H238.548H238.548H238.548H238.548H238.548H238.549H238.549H238.549H238.549H238.55H238.55H238.55H238.55H238.55H238.551H238.551H238.551H238.551H238.551H238.552H238.552H238.552H238.552H238.553H238.553H238.553H238.553H238.553H238.554H238.554H238.554H238.554H238.554H238.555H238.555H238.555H238.555H238.556H238.556H238.556H238.556H238.556H238.557H238.557H238.557H238.557H238.557H238.558H238.558H238.558H238.558H238.559H238.559H238.559H238.559H238.559H238.56H238.56H238.56H238.56H238.56H238.561H238.561H238.561H238.561H238.562H238.562H238.562H238.562H238.562H238.563H238.563H238.563H238.563H238.563H238.564H238.564H238.564H238.564H238.565H238.565H238.565H238.565H238.565H238.566H238.566H238.566H238.566H238.567H238.567H238.567H238.567H238.567H238.568H238.568H238.568H238.568H238.568H238.569H238.569H238.569H238.569H238.57H238.57H238.57H238.57H238.57H238.571H238.571H238.571H238.571H238.571H238.572H238.572H238.572H238.572H238.573H238.573H238.573H238.573H238.573H238.574H238.574H238.574H238.574H238.574H238.575H238.575H238.575H238.575H238.576H238.576H238.576H238.576H238.576H238.577H238.577H238.577H238.577H238.577H238.578H238.578H238.578H238.578H238.578H238.579H238.579H238.579H238.579H238.58H238.58H238.58H238.58H238.58H238.581H238.581H238.581H238.581H238.581H238.582H238.582H238.582H238.582H238.583H238.583H238.583H238.583H238.583H238.584H238.584H238.584H238.584H238.584H238.585H238.585H238.585H238.585H238.585H238.586H238.586H238.586H238.586H238.586H238.587H238.587H238.587H238.587H238.588H238.588H238.588H238.588H238.588H238.589H238.589H238.589H238.589H238.589H238.59H238.59H238.59H238.59H238.59H238.591H238.591H238.591H238.591H238.591H238.592H238.592H238.592H238.592H238.592H238.593H238.593H238.593H238.593H238.593H238.594C239.092 169.547 239.472 169.957 239.483 170.452M45.2203 307.924L239.483 170.452M239.497 172.356L239.483 170.454M239.497 172.356L239.483 170.454M239.483 170.454C239.483 170.454 239.483 170.453 239.483 170.452M239.483 170.454L239.483 170.452" fill="#FFF5F5" stroke="black"/>
<path d="M145.13 275.58C145.13 275.58 144.983 277.539 140.533 278.762C136.083 279.985 129.761 280.796 124.633 278.866L120.714 277.333" stroke="black" stroke-miterlimit="10" stroke-linecap="round" stroke-linejoin="round"/>
<path d="M169.634 277.112C169.634 277.112 164.86 280.428 157.021 280.03C149.182 279.632 144.85 276.272 144.85 276.272" stroke="black" stroke-miterlimit="10" stroke-linecap="round" stroke-linejoin="round"/>
<path d="M120.715 277.613L117.046 278.763C111.947 280.767 106.274 280.796 101.146 278.866L96.5195 277.039" stroke="black" stroke-miterlimit="10" stroke-linecap="round" stroke-linejoin="round"/>
<path d="M96.5191 277.348C96.5191 277.348 96.578 279.573 87.958 281.415C79.2937 283.256 72.0293 278.173 72.0293 278.173" stroke="black" stroke-miterlimit="10" stroke-linecap="round" stroke-linejoin="round"/>
<path d="M204.615 212.969C194.359 193.46 176.441 169.913 148.842 170.621C139.412 170.856 130.276 173.435 120.816 173.479H122.57C113.124 173.435 103.974 170.856 94.5435 170.621C66.9446 169.913 49.9402 193.46 39.6846 212.969" stroke="black" stroke-miterlimit="10" stroke-linecap="round" stroke-linejoin="round"/>
<path d="M78.7915 170.62C77.539 166.465 76.876 162.044 76.876 157.476C76.876 132.25 97.3283 111.797 122.555 111.797C147.781 111.797 168.234 132.25 168.234 157.476C168.234 162.899 167.291 168.086 165.552 172.919" stroke="black" stroke-miterlimit="10" stroke-linecap="round" stroke-linejoin="round"/>
<path d="M203.436 152.953C203.436 152.953 187.979 123.026 184.413 148.577C182.807 160.07 187.213 167.777 190.484 173.111C217.877 217.729 209.345 172.418 209.345 172.418H209.596C209.596 172.418 191.914 82.2539 122.688 82.2539C53.4623 82.2539 34.8223 172.418 34.8223 172.418C34.8223 172.418 26.2907 217.714 53.6833 173.111C56.9545 167.777 61.3603 160.085 59.7541 148.577C56.1882 123.011 40.7311 152.953 40.7311 152.953" stroke="black" stroke-miterlimit="10" stroke-linecap="round" stroke-linejoin="round"/>
<path d="M170.754 348.855C155.209 356.474 138.146 360.128 121.171 359.995C104.181 360.128 87.1325 356.474 71.5869 348.855" stroke="black" stroke-miterlimit="10" stroke-linecap="round" stroke-linejoin="round"/>
<path d="M225.038 211.377H207.974C203.436 211.377 201.182 214.899 201.182 219.246L193.401 230.4" stroke="black" stroke-miterlimit="10" stroke-linecap="round" stroke-linejoin="round"/>
<path d="M230.931 195.11H212.13C207.591 195.11 205.337 198.632 205.337 202.978L202.566 214.133" stroke="black" stroke-miterlimit="10" stroke-linecap="round" stroke-linejoin="round"/>
<path d="M17.9062 211.377H33.9675C38.5059 211.377 40.7604 214.899 40.7604 219.246L50.2057 232.08" stroke="black" stroke-miterlimit="10" stroke-linecap="round" stroke-linejoin="round"/>
<path d="M11.084 195.11H28.2651C32.8036 195.11 35.0581 198.632 35.0581 202.978L39.3902 214.133" stroke="black" stroke-miterlimit="10" stroke-linecap="round" stroke-linejoin="round"/>
<path d="M27.3369 230.651C27.3369 230.651 46.9641 229.826 50.2206 232.08C55.982 236.103 67.2839 253.24 74.9756 254.463C88.2667 256.599 120.831 258.043 120.831 258.043" stroke="black" stroke-miterlimit="10" stroke-linecap="round" stroke-linejoin="round"/>
<path d="M215.136 230.651C215.136 230.651 196.644 228.146 193.402 230.416C187.64 234.438 174.659 253.24 166.967 254.478C153.676 256.615 121.111 258.059 121.111 258.059" stroke="black" stroke-miterlimit="10" stroke-linecap="round" stroke-linejoin="round"/>
<path d="M121.509 258.633V277.567" stroke="black" stroke-miterlimit="10" stroke-linecap="round" stroke-linejoin="round"/>
<path d="M97.3291 256.688V277.273" stroke="black" stroke-miterlimit="10" stroke-linecap="round" stroke-linejoin="round"/>
<path d="M72.8242 253.977V278.703" stroke="black" stroke-miterlimit="10" stroke-linecap="round" stroke-linejoin="round"/>
<path d="M55.6285 237.326L52.6373 241.364C51.0754 243.471 50.2207 246.035 50.2207 248.672L52.2984 263.599" stroke="black" stroke-miterlimit="10" stroke-linecap="round" stroke-linejoin="round"/>
<path d="M145.939 256.688V275.799" stroke="black" stroke-miterlimit="10" stroke-linecap="round" stroke-linejoin="round"/>
<path d="M170.43 253.977V277.568" stroke="black" stroke-miterlimit="10" stroke-linecap="round" stroke-linejoin="round"/>
<path d="M186.3 237.886C194.758 246.624 189.615 255.627 187.994 265.794" stroke="black" stroke-miterlimit="10" stroke-linecap="round" stroke-linejoin="round"/>
<path d="M238.3 111.724C226.88 64.6752 204.542 29.1194 174.114 12.3803C167.188 7.75345 147.944 -0.247723 133.062 1.03423C128.332 1.44682 123.72 4.0402 119.83 4.0402C115.94 4.0402 111.195 1.38788 106.391 1.00476C91.5383 -0.188783 72.4563 7.76819 65.5602 12.3655C35.1322 29.1046 12.7937 64.6458 1.37402 111.71" stroke="black" stroke-miterlimit="10" stroke-linecap="round" stroke-linejoin="round"/>
<path d="M3.49609 158.066C3.49609 158.066 28.8258 35.5732 122.88 35.5732C216.934 35.5732 240.953 158.066 240.953 158.066" stroke="black" stroke-miterlimit="10" stroke-linecap="round" stroke-linejoin="round"/>
<path d="M199.341 102.603C199.341 102.603 185.136 81.7234 166.467 71.9687C147.635 62.1257 122.232 60.5195 122.232 60.5195C122.232 60.5195 97.816 62.1257 78.9698 71.9687C60.3004 81.7234 46.0957 102.603 46.0957 102.603" stroke="black" stroke-miterlimit="10" stroke-linecap="round" stroke-linejoin="round"/>
<path d="M122.231 60.5194V35.5581" stroke="black" stroke-miterlimit="10" stroke-linecap="round" stroke-linejoin="round"/>
<path d="M146.412 64.4541V38.314" stroke="black" stroke-miterlimit="10" stroke-linecap="round" stroke-linejoin="round"/>
<path d="M170.917 74.5477V48.0981" stroke="black" stroke-miterlimit="10" stroke-linecap="round" stroke-linejoin="round"/>
<path d="M193.535 94.2038V65.7061" stroke="black" stroke-miterlimit="10" stroke-linecap="round" stroke-linejoin="round"/>
<path d="M97.8154 63.7024V39.4189" stroke="black" stroke-miterlimit="10" stroke-linecap="round" stroke-linejoin="round"/>
<path d="M73.3105 75.3437V49.5425" stroke="black" stroke-miterlimit="10" stroke-linecap="round" stroke-linejoin="round"/>
<path d="M54.6421 91.1095C51.9751 88.2362 49.3375 85.9964 50.089 82.1506L50.2216 68.5942" stroke="black" stroke-miterlimit="10" stroke-linecap="round" stroke-linejoin="round"/>
<path d="M18.4229 115.039H36.1198C40.6582 115.039 42.9126 111.518 42.9126 107.171L46.0954 102.603" stroke="black" stroke-miterlimit="10" stroke-linecap="round" stroke-linejoin="round"/>
<path d="M225.039 114.126L210.672 114.966C206.148 115.231 203.688 111.842 203.437 107.51L199.341 102.618" stroke="black" stroke-miterlimit="10" stroke-linecap="round" stroke-linejoin="round"/>
<path d="M29.002 95.501L29.2819 97.6965C29.6356 100.496 32.0227 102.603 34.8518 102.603H46.0947" stroke="black" stroke-miterlimit="10" stroke-linecap="round" stroke-linejoin="round"/>
<path d="M215.137 95.501L214.857 97.6965C214.503 100.496 212.116 102.603 209.287 102.603H199.341" stroke="black" stroke-miterlimit="10" stroke-linecap="round" stroke-linejoin="round"/>
<path d="M135.582 83.6245C131.545 82.9319 127.316 82.5488 122.866 82.5488C118.312 82.5488 113.995 82.9319 109.869 83.6687L109.899 83.8455C109.899 83.8455 116.028 89.1944 114.142 99.0964C112.256 108.998 107.482 116.322 109.899 123.601C112.728 132.088 122.718 132.088 122.718 132.088C122.718 132.088 132.709 132.088 135.538 123.601C137.969 116.322 133.18 108.998 131.294 99.0964C129.408 89.1944 135.538 83.8455 135.538 83.8455L135.582 83.6245Z" fill="#FFF5F5" stroke="black" stroke-miterlimit="10" stroke-linecap="round" stroke-linejoin="round"/>
<path d="M126.387 301.1C126.387 309.234 113.022 320.668 96.5185 320.668C80.0299 320.668 66.6504 309.234 66.6504 301.1C66.6504 292.966 80.0151 291.198 96.5185 291.198C113.022 291.198 126.387 292.966 126.387 301.1Z" fill="#FF7B7B" stroke="#EF6250" stroke-miterlimit="10" stroke-linecap="round" stroke-linejoin="round"/>
<path d="M111.18 293.025C111.18 295.162 108.115 296.886 105.978 296.886C103.223 296.886 103.444 294.366 103.444 292.229" fill="#FFFACF"/>
<path d="M111.18 293.025C111.18 295.162 108.115 296.886 105.978 296.886C103.223 296.886 103.444 294.366 103.444 292.229" stroke="#EF6250" stroke-miterlimit="10" stroke-linecap="round" stroke-linejoin="round"/>
<path d="M99.4951 314.495C97.0638 314.495 94.7504 313.449 93.1443 311.651C91.5234 313.449 89.21 314.495 86.7934 314.495C82.0782 314.495 78.2471 310.664 78.2471 305.949C78.2471 301.233 82.0782 297.402 86.7934 297.402C89.2247 297.402 91.5381 298.449 93.1443 300.246C94.7504 298.449 97.0638 297.402 99.4951 297.402C104.21 297.402 108.041 301.233 108.041 305.949C108.041 310.664 104.21 314.495 99.4951 314.495Z" fill="#FFFACF"/>
<path d="M99.4955 298.124C103.813 298.124 107.305 301.616 107.305 305.934C107.305 310.251 103.813 313.743 99.4955 313.743C96.8727 313.743 94.5593 312.446 93.1447 310.472C91.7301 312.446 89.4167 313.743 86.7939 313.743C82.4765 313.743 78.9843 310.251 78.9843 305.934C78.9843 301.616 82.4765 298.124 86.7939 298.124C89.4167 298.124 91.7301 299.421 93.1447 301.395C94.5593 299.421 96.8727 298.124 99.4955 298.124ZM99.4955 296.65C97.1232 296.65 94.854 297.564 93.1447 299.17C91.4354 297.564 89.1662 296.65 86.7939 296.65C81.666 296.65 77.5107 300.82 77.5107 305.934C77.5107 311.047 81.6808 315.217 86.7939 315.217C89.1662 315.217 91.4354 314.303 93.1447 312.697C94.854 314.303 97.1232 315.217 99.4955 315.217C104.623 315.217 108.779 311.047 108.779 305.934C108.779 300.82 104.623 296.65 99.4955 296.65Z" fill="#EF6250"/>
<path d="M290 298C290 294 293.14 290.84 297.16 290.84C301.16 290.84 304.32 294 304.32 298C304.32 302.02 301.16 305.16 297.16 305.16C293.14 305.16 290 302.02 290 298ZM292.14 298C292.14 300.88 294.34 303.14 297.16 303.14C299.96 303.14 302.18 300.88 302.18 298C302.18 295.12 299.96 292.86 297.16 292.86C294.34 292.86 292.14 295.12 292.14 298ZM315.233 289.84V291.84L311.013 292.48C308.933 292.8 307.953 294.2 307.893 297.36C308.653 295.82 310.133 294.84 311.893 294.84C314.533 294.84 316.553 297.04 316.553 299.94C316.553 302.96 314.433 305.16 311.473 305.16C308.093 305.16 306.133 302.42 306.133 297.48C306.133 293.38 307.553 291.06 310.453 290.6L315.233 289.84ZM308.513 299.96C308.513 301.84 309.793 303.26 311.513 303.26C313.213 303.26 314.513 301.84 314.513 299.98C314.513 298.14 313.213 296.74 311.493 296.74C309.773 296.74 308.513 298.1 308.513 299.96ZM329.359 300C329.359 302.88 327.219 305.16 324.499 305.16C323.079 305.16 321.839 304.54 320.959 303.56V309.6H318.919V300C318.919 298.06 318.839 296.96 318.519 295H320.559C320.639 295.62 320.719 296.14 320.779 296.64C321.659 295.54 322.999 294.84 324.499 294.84C327.219 294.84 329.359 297.1 329.359 300ZM327.339 300C327.339 298.18 325.939 296.74 324.139 296.74C322.359 296.74 320.959 298.18 320.959 300C320.959 301.82 322.359 303.26 324.139 303.26C325.939 303.26 327.339 301.82 327.339 300ZM335.1 294.84C337.9 294.84 339.62 296.24 339.62 298.48V300C339.62 301.94 339.72 303.04 340.02 305H338.08C338 304.58 337.96 304.18 337.9 303.82C337.14 304.66 335.92 305.16 334.4 305.16C332.18 305.16 330.88 304.06 330.88 302.2C330.88 300.32 332.16 299.3 335.08 299L337.68 298.72V298.6C337.68 297.34 336.6 296.58 334.9 296.58C333.78 296.58 332.8 296.9 332.16 297.4L331.5 295.88C332.42 295.22 333.64 294.84 335.1 294.84ZM337.68 300.28L335 300.56C333.5 300.72 332.82 301.18 332.82 302.02C332.82 302.92 333.64 303.48 335.04 303.48C336.7 303.48 337.68 302.66 337.68 301.24V300.28ZM345.452 296.58C344.272 296.58 343.012 297 342.392 297.62L341.712 296.08C342.612 295.32 344.092 294.84 345.592 294.84C347.972 294.84 349.652 296.02 349.652 297.7C349.652 298.56 349.192 299.36 348.472 299.86C349.332 300.38 349.892 301.24 349.892 302.22C349.892 303.94 348.132 305.16 345.612 305.16C344.052 305.16 342.512 304.68 341.572 303.9L342.252 302.38C342.912 303 344.332 303.42 345.552 303.42C346.992 303.42 347.992 302.84 347.992 302.02C347.992 301.28 347.252 300.7 346.312 300.7H344.152V299.14H346.172C347.032 299.14 347.752 298.54 347.752 297.88C347.752 297.12 346.792 296.58 345.452 296.58ZM351.344 300C351.344 297.12 353.624 294.84 356.564 294.84C359.484 294.84 361.764 297.12 361.764 300C361.764 302.9 359.484 305.16 356.564 305.16C353.624 305.16 351.344 302.9 351.344 300ZM353.364 300C353.364 301.82 354.764 303.26 356.564 303.26C358.344 303.26 359.744 301.82 359.744 300C359.744 298.18 358.344 296.74 356.564 296.74C354.764 296.74 353.364 298.18 353.364 300ZM373.333 302.12C373.333 303.74 371.873 305 369.993 305H364.093V295H369.613C371.473 295 372.913 296.22 372.913 297.76C372.913 298.6 372.493 299.32 371.813 299.8C372.733 300.28 373.333 301.12 373.333 302.12ZM366.033 299.16H369.333C370.273 299.16 371.013 298.56 371.013 297.86C371.013 297.2 370.273 296.68 369.333 296.68H366.033V299.16ZM366.033 303.32H369.733C370.673 303.32 371.433 302.76 371.433 302.04C371.433 301.3 370.673 300.66 369.733 300.66H366.033V303.32ZM379.162 294.84C381.962 294.84 383.682 296.24 383.682 298.48V300C383.682 301.94 383.782 303.04 384.082 305H382.142C382.062 304.58 382.022 304.18 381.962 303.82C381.202 304.66 379.982 305.16 378.462 305.16C376.242 305.16 374.942 304.06 374.942 302.2C374.942 300.32 376.222 299.3 379.142 299L381.742 298.72V298.6C381.742 297.34 380.662 296.58 378.962 296.58C377.842 296.58 376.862 296.9 376.222 297.4L375.562 295.88C376.482 295.22 377.702 294.84 379.162 294.84ZM381.742 300.28L379.062 300.56C377.562 300.72 376.882 301.18 376.882 302.02C376.882 302.92 377.702 303.48 379.102 303.48C380.762 303.48 381.742 302.66 381.742 301.24V300.28ZM386.631 305V295H388.671V299.02H393.991V295H396.011V305H393.991V300.82H388.671V305H386.631ZM398.897 305V295H400.937V302.06L406.477 295H408.497V305H406.477V297.9L400.937 305H398.897ZM415.817 294.84C418.698 294.84 420.838 296.92 420.838 299.84C420.838 300.1 420.818 300.36 420.798 300.68H412.778C413.178 302.36 414.758 303.48 416.838 303.48C417.918 303.48 418.938 303.18 419.618 302.7L420.258 304.14C419.278 304.78 418.018 305.16 416.638 305.16C413.238 305.16 410.798 302.94 410.798 299.84C410.798 296.94 412.898 294.84 415.817 294.84ZM412.758 299.12H419.038C418.858 297.56 417.618 296.58 415.958 296.58C414.298 296.58 413.058 297.62 412.758 299.12ZM428.155 305V295H430.195V299.02H435.515V295H437.535V305H435.515V300.82H430.195V305H428.155ZM444.86 294.84C447.74 294.84 449.88 296.92 449.88 299.84C449.88 300.1 449.86 300.36 449.84 300.68H441.82C442.22 302.36 443.8 303.48 445.88 303.48C446.96 303.48 447.98 303.18 448.66 302.7L449.3 304.14C448.32 304.78 447.06 305.16 445.68 305.16C442.28 305.16 439.84 302.94 439.84 299.84C439.84 296.94 441.94 294.84 444.86 294.84ZM441.8 299.12H448.08C447.9 297.56 446.66 296.58 445 296.58C443.34 296.58 442.1 297.62 441.8 299.12ZM460.624 289.84V291.84L456.404 292.48C454.324 292.8 453.344 294.2 453.284 297.36C454.044 295.82 455.524 294.84 457.284 294.84C459.924 294.84 461.944 297.04 461.944 299.94C461.944 302.96 459.824 305.16 456.864 305.16C453.484 305.16 451.524 302.42 451.524 297.48C451.524 293.38 452.944 291.06 455.844 290.6L460.624 289.84ZM453.904 299.96C453.904 301.84 455.184 303.26 456.904 303.26C458.604 303.26 459.904 301.84 459.904 299.98C459.904 298.14 458.604 296.74 456.884 296.74C455.164 296.74 453.904 298.1 453.904 299.96ZM463.61 300C463.61 297.12 465.89 294.84 468.83 294.84C471.75 294.84 474.03 297.12 474.03 300C474.03 302.9 471.75 305.16 468.83 305.16C465.89 305.16 463.61 302.9 463.61 300ZM465.63 300C465.63 301.82 467.03 303.26 468.83 303.26C470.61 303.26 472.01 301.82 472.01 300C472.01 298.18 470.61 296.74 468.83 296.74C467.03 296.74 465.63 298.18 465.63 300ZM483.467 305V296.78H479.387V297.14C479.387 303.36 478.747 305.16 476.547 305.16C475.987 305.16 475.427 305.06 475.127 304.92V302.98C475.407 303.06 475.787 303.14 476.087 303.14C477.167 303.14 477.427 302.02 477.427 297.14V295H485.487V305H483.467ZM497.05 301.74C497.05 303.56 495.57 305 493.71 305H488.37V295H490.41V298.52H493.71C495.57 298.52 497.05 299.96 497.05 301.74ZM490.41 303.26H493.37C494.29 303.26 495.03 302.6 495.03 301.76C495.03 300.92 494.29 300.26 493.37 300.26H490.41V303.26ZM499.17 305V295H501.21V303.2H505.55V295H507.57V303.2H511.93V295H513.95V305H499.17ZM516.846 305V295H518.886V302.06L524.426 295H526.446V305H524.426V297.9L518.886 305H516.846ZM533.607 298.62L536.387 295H538.807L534.987 299.94L538.907 305H536.487L533.607 301.24L530.707 305H528.287L532.227 299.94L528.387 295H530.807L533.607 298.62ZM289.98 321.24C289.98 319.36 291.36 318 293.26 318H299.1V328H297.08V324.46L294.38 324.48L292.16 328H289.68L292.28 324.34C290.9 323.96 289.98 322.78 289.98 321.24ZM297.08 322.74V319.74H293.62C292.68 319.74 292 320.36 292 321.24C292 322.12 292.68 322.74 293.62 322.74H297.08ZM304.983 319.58C303.803 319.58 302.543 320 301.923 320.62L301.243 319.08C302.143 318.32 303.623 317.84 305.123 317.84C307.503 317.84 309.183 319.02 309.183 320.7C309.183 321.56 308.723 322.36 308.003 322.86C308.863 323.38 309.423 324.24 309.423 325.22C309.423 326.94 307.663 328.16 305.143 328.16C303.583 328.16 302.043 327.68 301.103 326.9L301.783 325.38C302.443 326 303.863 326.42 305.083 326.42C306.523 326.42 307.523 325.84 307.523 325.02C307.523 324.28 306.783 323.7 305.843 323.7H303.683V322.14H305.703C306.563 322.14 307.283 321.54 307.283 320.88C307.283 320.12 306.323 319.58 304.983 319.58ZM320.892 325.12C320.892 326.74 319.432 328 317.552 328H311.652V318H317.172C319.032 318 320.472 319.22 320.472 320.76C320.472 321.6 320.052 322.32 319.372 322.8C320.292 323.28 320.892 324.12 320.892 325.12ZM313.592 322.16H316.892C317.832 322.16 318.572 321.56 318.572 320.86C318.572 320.2 317.832 319.68 316.892 319.68H313.592V322.16ZM313.592 326.32H317.292C318.232 326.32 318.992 325.76 318.992 325.04C318.992 324.3 318.232 323.66 317.292 323.66H313.592V326.32ZM322.301 323C322.301 320.12 324.581 317.84 327.521 317.84C330.441 317.84 332.721 320.12 332.721 323C332.721 325.9 330.441 328.16 327.521 328.16C324.581 328.16 322.301 325.9 322.301 323ZM324.321 323C324.321 324.82 325.721 326.26 327.521 326.26C329.301 326.26 330.701 324.82 330.701 323C330.701 321.18 329.301 319.74 327.521 319.74C325.721 319.74 324.321 321.18 324.321 323ZM334.395 321.2V318H336.435V320.96C336.435 322.16 337.375 322.86 338.855 322.86C339.655 322.86 340.555 322.66 341.175 322.52V318H343.195V328H341.175V324.34C340.515 324.48 339.515 324.64 338.615 324.64C336.095 324.64 334.395 323.32 334.395 321.2ZM350.544 317.84C353.424 317.84 355.564 319.92 355.564 322.84C355.564 323.1 355.544 323.36 355.524 323.68H347.504C347.904 325.36 349.484 326.48 351.564 326.48C352.644 326.48 353.664 326.18 354.344 325.7L354.984 327.14C354.004 327.78 352.744 328.16 351.364 328.16C347.964 328.16 345.524 325.94 345.524 322.84C345.524 319.94 347.624 317.84 350.544 317.84ZM347.484 322.12H353.764C353.584 320.56 352.344 319.58 350.684 319.58C349.024 319.58 347.784 320.62 347.484 322.12ZM357.706 328V318H359.746V322H361.946L364.866 318H367.206L363.506 322.9L367.606 328H365.206L361.946 323.8H359.746V328H357.706Z" fill="#58595B"/>
<path d="M290.7 213V199H303.08V213H300.94V200.9H292.84V213H290.7ZM305.621 208C305.621 205.12 307.901 202.84 310.841 202.84C313.761 202.84 316.041 205.12 316.041 208C316.041 210.9 313.761 213.16 310.841 213.16C307.901 213.16 305.621 210.9 305.621 208ZM307.641 208C307.641 209.82 309.041 211.26 310.841 211.26C312.621 211.26 314.021 209.82 314.021 208C314.021 206.18 312.621 204.74 310.841 204.74C309.041 204.74 307.641 206.18 307.641 208ZM318.331 213V203H320.371V207H322.571L325.491 203H327.831L324.131 207.9L328.231 213H325.831L322.571 208.8H320.371V213H318.331ZM340.55 208C340.55 210.88 338.41 213.16 335.69 213.16C334.27 213.16 333.03 212.54 332.15 211.56V217.6H330.11V208C330.11 206.06 330.03 204.96 329.71 203H331.75C331.83 203.62 331.91 204.14 331.97 204.64C332.85 203.54 334.19 202.84 335.69 202.84C338.41 202.84 340.55 205.1 340.55 208ZM338.53 208C338.53 206.18 337.13 204.74 335.33 204.74C333.55 204.74 332.15 206.18 332.15 208C332.15 209.82 333.55 211.26 335.33 211.26C337.13 211.26 338.53 209.82 338.53 208ZM346.291 202.84C349.091 202.84 350.811 204.24 350.811 206.48V208C350.811 209.94 350.911 211.04 351.211 213H349.271C349.191 212.58 349.151 212.18 349.091 211.82C348.331 212.66 347.111 213.16 345.591 213.16C343.371 213.16 342.071 212.06 342.071 210.2C342.071 208.32 343.351 207.3 346.271 207L348.871 206.72V206.6C348.871 205.34 347.791 204.58 346.091 204.58C344.971 204.58 343.991 204.9 343.351 205.4L342.691 203.88C343.611 203.22 344.831 202.84 346.291 202.84ZM348.871 208.28L346.191 208.56C344.691 208.72 344.011 209.18 344.011 210.02C344.011 210.92 344.831 211.48 346.231 211.48C347.891 211.48 348.871 210.66 348.871 209.24V208.28ZM362.003 212.12C361.063 212.78 359.883 213.16 358.623 213.16C355.503 213.16 353.043 210.9 353.043 208C353.043 205.12 355.503 202.84 358.623 202.84C359.883 202.84 361.063 203.22 362.003 203.88L361.283 205.54C360.643 205.02 359.763 204.68 358.783 204.68C356.703 204.68 355.063 206.14 355.063 207.98C355.063 209.86 356.703 211.3 358.783 211.3C359.763 211.3 360.643 210.98 361.283 210.46L362.003 212.12ZM364.131 213V203H366.171V207.02H371.491V203H373.511V213H371.491V208.82H366.171V213H364.131ZM380.837 202.84C383.717 202.84 385.857 204.92 385.857 207.84C385.857 208.1 385.837 208.36 385.817 208.68H377.797C378.197 210.36 379.777 211.48 381.857 211.48C382.937 211.48 383.957 211.18 384.637 210.7L385.277 212.14C384.297 212.78 383.037 213.16 381.657 213.16C378.257 213.16 375.817 210.94 375.817 207.84C375.817 204.94 377.917 202.84 380.837 202.84ZM377.777 207.12H384.057C383.877 205.56 382.637 204.58 380.977 204.58C379.317 204.58 378.077 205.62 377.777 207.12ZM387.999 213V203H390.039V207.02H395.359V203H397.379V213H395.359V208.82H390.039V213H387.999ZM400.264 213V203H402.304V210.06L407.844 203H409.864V213H407.844V205.9L402.304 213H400.264ZM417.185 202.84C420.065 202.84 422.205 204.92 422.205 207.84C422.205 208.1 422.185 208.36 422.165 208.68H414.145C414.545 210.36 416.125 211.48 418.205 211.48C419.285 211.48 420.305 211.18 420.985 210.7L421.625 212.14C420.645 212.78 419.385 213.16 418.005 213.16C414.605 213.16 412.165 210.94 412.165 207.84C412.165 204.94 414.265 202.84 417.185 202.84ZM414.125 207.12H420.405C420.225 205.56 418.985 204.58 417.325 204.58C415.665 204.58 414.425 205.62 414.125 207.12ZM437.882 212.12C436.942 212.78 435.762 213.16 434.502 213.16C431.382 213.16 428.922 210.9 428.922 208C428.922 205.12 431.382 202.84 434.502 202.84C435.762 202.84 436.942 203.22 437.882 203.88L437.162 205.54C436.522 205.02 435.642 204.68 434.662 204.68C432.582 204.68 430.942 206.14 430.942 207.98C430.942 209.86 432.582 211.3 434.662 211.3C435.642 211.3 436.522 210.98 437.162 210.46L437.882 212.12ZM447.334 213V204.78H443.254V205.14C443.254 211.36 442.614 213.16 440.414 213.16C439.854 213.16 439.294 213.06 438.994 212.92V210.98C439.274 211.06 439.654 211.14 439.954 211.14C441.034 211.14 441.294 210.02 441.294 205.14V203H449.354V213H447.334ZM452.237 213V203H454.277V210.06L459.817 203H461.837V213H459.817V205.9L454.277 213H452.237ZM467.717 204.58C466.537 204.58 465.277 205 464.657 205.62L463.977 204.08C464.877 203.32 466.357 202.84 467.857 202.84C470.237 202.84 471.917 204.02 471.917 205.7C471.917 206.56 471.457 207.36 470.737 207.86C471.597 208.38 472.157 209.24 472.157 210.22C472.157 211.94 470.397 213.16 467.877 213.16C466.317 213.16 464.777 212.68 463.837 211.9L464.517 210.38C465.177 211 466.597 211.42 467.817 211.42C469.257 211.42 470.257 210.84 470.257 210.02C470.257 209.28 469.517 208.7 468.577 208.7H466.417V207.14H468.437C469.297 207.14 470.017 206.54 470.017 205.88C470.017 205.12 469.057 204.58 467.717 204.58ZM474.346 213V203H476.386V210.06L481.926 203H483.946V213H481.926V205.9L476.386 213H474.346ZM495.187 212.12C494.247 212.78 493.067 213.16 491.807 213.16C488.687 213.16 486.227 210.9 486.227 208C486.227 205.12 488.687 202.84 491.807 202.84C493.067 202.84 494.247 203.22 495.187 203.88L494.467 205.54C493.827 205.02 492.947 204.68 491.967 204.68C489.887 204.68 488.247 206.14 488.247 207.98C488.247 209.86 489.887 211.3 491.967 211.3C492.947 211.3 493.827 210.98 494.467 210.46L495.187 212.12ZM500.019 213V204.78H496.079V203H505.979V204.78H502.039V213H500.019ZM506.852 208C506.852 205.12 509.132 202.84 512.072 202.84C514.992 202.84 517.272 205.12 517.272 208C517.272 210.9 514.992 213.16 512.072 213.16C509.132 213.16 506.852 210.9 506.852 208ZM508.872 208C508.872 209.82 510.272 211.26 512.072 211.26C513.852 211.26 515.252 209.82 515.252 208C515.252 206.18 513.852 204.74 512.072 204.74C510.272 204.74 508.872 206.18 508.872 208ZM521.001 198.78H522.701C522.701 199.7 523.421 200.42 524.381 200.42C525.301 200.42 526.021 199.7 526.021 198.78H527.741C527.741 200.56 526.281 201.94 524.381 201.94C522.461 201.94 521.001 200.56 521.001 198.78ZM519.561 213V203H521.601V210.08L527.141 203H529.161V213H527.141V205.92L521.601 213H519.561ZM290.44 236V226H299.8V236H297.78V227.78H292.48V236H290.44ZM302.086 231C302.086 228.12 304.366 225.84 307.306 225.84C310.226 225.84 312.506 228.12 312.506 231C312.506 233.9 310.226 236.16 307.306 236.16C304.366 236.16 302.086 233.9 302.086 231ZM304.106 231C304.106 232.82 305.506 234.26 307.306 234.26C309.086 234.26 310.486 232.82 310.486 231C310.486 229.18 309.086 227.74 307.306 227.74C305.506 227.74 304.106 229.18 304.106 231ZM321.943 236V227.78H317.863V228.14C317.863 234.36 317.223 236.16 315.023 236.16C314.463 236.16 313.903 236.06 313.603 235.92V233.98C313.883 234.06 314.263 234.14 314.563 234.14C315.643 234.14 315.903 233.02 315.903 228.14V226H323.963V236H321.943ZM326.246 231C326.246 228.12 328.526 225.84 331.466 225.84C334.386 225.84 336.666 228.12 336.666 231C336.666 233.9 334.386 236.16 331.466 236.16C328.526 236.16 326.246 233.9 326.246 231ZM328.266 231C328.266 232.82 329.666 234.26 331.466 234.26C333.246 234.26 334.646 232.82 334.646 231C334.646 229.18 333.246 227.74 331.466 227.74C329.666 227.74 328.266 229.18 328.266 231ZM347.316 235.12C346.376 235.78 345.196 236.16 343.936 236.16C340.816 236.16 338.356 233.9 338.356 231C338.356 228.12 340.816 225.84 343.936 225.84C345.196 225.84 346.376 226.22 347.316 226.88L346.596 228.54C345.956 228.02 345.076 227.68 344.096 227.68C342.016 227.68 340.376 229.14 340.376 230.98C340.376 232.86 342.016 234.3 344.096 234.3C345.076 234.3 345.956 233.98 346.596 233.46L347.316 235.12ZM352.148 236V227.78H348.208V226H358.108V227.78H354.168V236H352.148ZM359.913 236V226H361.953V233.06L367.493 226H369.513V236H367.493V228.9L361.953 236H359.913ZM388.109 231C388.109 233.88 385.969 236.16 383.249 236.16C381.829 236.16 380.589 235.54 379.709 234.56V240.6H377.669V231C377.669 229.06 377.589 227.96 377.269 226H379.309C379.389 226.62 379.469 227.14 379.529 227.64C380.409 226.54 381.749 225.84 383.249 225.84C385.969 225.84 388.109 228.1 388.109 231ZM386.089 231C386.089 229.18 384.689 227.74 382.889 227.74C381.109 227.74 379.709 229.18 379.709 231C379.709 232.82 381.109 234.26 382.889 234.26C384.689 234.26 386.089 232.82 386.089 231ZM392.909 236V227.78H388.969V226H398.869V227.78H394.929V236H392.909ZM404.299 225.84C407.099 225.84 408.819 227.24 408.819 229.48V231C408.819 232.94 408.919 234.04 409.219 236H407.279C407.199 235.58 407.159 235.18 407.099 234.82C406.339 235.66 405.119 236.16 403.599 236.16C401.379 236.16 400.079 235.06 400.079 233.2C400.079 231.32 401.359 230.3 404.279 230L406.879 229.72V229.6C406.879 228.34 405.799 227.58 404.099 227.58C402.979 227.58 401.999 227.9 401.359 228.4L400.699 226.88C401.619 226.22 402.839 225.84 404.299 225.84ZM406.879 231.28L404.199 231.56C402.699 231.72 402.019 232.18 402.019 233.02C402.019 233.92 402.839 234.48 404.239 234.48C405.899 234.48 406.879 233.66 406.879 232.24V231.28Z" fill="#58595B"/>
<path d="M275 305H114" stroke="#828282" stroke-width="1.15625"/>
<path d="M275 214L118 284" stroke="#828282" stroke-width="1.15625"/>
</svg>
