<svg width="521" height="362" viewBox="0 0 521 362" fill="none" xmlns="http://www.w3.org/2000/svg">
<path d="M238.681 117.414C238.607 114.563 238.239 111.712 237.516 108.935C225.807 63.8382 203.878 29.8049 174.324 13.5268C167.393 8.88853 148.133 0.867653 133.238 2.15277C128.505 2.56637 123.889 5.16614 119.995 5.16614C116.102 5.16614 111.354 2.50728 106.546 2.12322C91.6808 0.926739 72.5832 8.9033 65.6815 13.512C36.4525 29.6128 14.7003 63.0701 2.88778 107.429C1.94396 111.003 1.47209 114.696 1.54583 118.389L2.5191 170.547C2.5191 170.547 -1.90505 338.66 120.689 338.66C242.81 338.66 240.171 172.482 240.171 172.482L240.156 170.547L238.681 117.414Z" fill="#FFF5F5"/>
<path d="M199.719 101.6L203.819 106.504C204.07 110.847 206.533 114.244 211.06 113.978L225.439 113.136L226.323 112.723C210.19 77.5666 179.014 34.375 123.196 34.375C66.6848 34.375 34.9487 78.6449 18.6235 114.037L18.6531 114.052H36.3645C40.9066 114.052 43.1629 110.522 43.1629 106.164L46.3484 101.585C46.3484 101.585 60.5647 80.6539 79.2494 70.8752C98.0964 61.0079 122.547 59.3978 122.547 59.3978C122.547 59.3978 147.971 61.0079 166.818 70.8752C185.503 80.6686 199.719 101.6 199.719 101.6Z" fill="white"/>
<path d="M145.14 275.666C145.14 275.666 144.992 277.631 140.539 278.857C136.085 280.083 129.758 280.895 124.626 278.96L120.704 277.424V277.69L117.031 278.842C111.929 280.851 106.251 280.881 101.119 278.946L96.4886 277.114V277.409C96.4886 277.409 96.5476 279.64 87.9205 281.486C79.2491 283.333 71.9787 278.237 71.9787 278.237L69.1178 277.424C36.4674 257.217 18.5495 219.845 9.70117 194.66L10.9842 194.985H28.1795C32.7216 194.985 34.9779 198.515 34.9779 202.873L39.3136 214.055L38.9891 213.612C40.1247 215.044 40.6851 217.009 40.6851 219.18L50.138 232.046C55.9042 236.079 67.2154 253.258 74.9134 254.484C88.2154 256.626 120.807 258.074 120.807 258.074H121.087C121.087 258.074 153.678 256.626 166.98 254.484C174.678 253.243 187.671 234.395 193.437 230.362L201.223 219.18C201.223 217.009 201.784 215.03 202.919 213.612L202.595 214.055L205.367 202.873C205.367 198.515 207.624 194.985 212.166 194.985H230.983L233.888 192.695C225.836 217.866 208.346 256.7 173.44 277.439L169.62 277.188C169.62 277.188 164.842 280.511 156.996 280.113C149.136 279.714 144.815 276.346 144.815 276.346" fill="white"/>
<path d="M46.2206 308.429L46.2208 308.429C65.4902 328.086 90.4072 338.054 120.352 338.054C150.326 338.054 175.376 328.101 194.808 308.471L194.808 308.471C219.15 283.904 230.275 248.285 235.329 222.692C240.695 195.527 240.506 173.629 240.497 172.67C240.497 172.657 240.497 172.647 240.497 172.642L240.497 172.638M46.2206 308.429L240.997 172.638H240.497M46.2206 308.429C35.4608 297.461 26.4175 283.382 19.3329 266.576C13.6856 253.166 9.26754 238.015 6.19889 221.513C1.11566 194.151 1.49233 172.034 1.51417 170.751C1.51455 170.73 1.51481 170.714 1.51495 170.704L1.51496 170.704C1.52437 170.227 1.89889 169.823 2.38974 169.776H2.38991H2.39014H2.39038H2.39061H2.39084H2.39108H2.39131H2.39154H2.39178H2.39201H2.39224H2.39247H2.3927H2.39293H2.39317H2.3934H2.39363H2.39386H2.39409H2.39432H2.39455H2.39478H2.39501H2.39524H2.39547H2.3957H2.39592H2.39615H2.39638H2.39661H2.39684H2.39707H2.39729H2.39752H2.39775H2.39798H2.3982H2.39843H2.39866H2.39888H2.39911H2.39933H2.39956H2.39979H2.40001H2.40024H2.40046H2.40069H2.40091H2.40114H2.40136H2.40159H2.40181H2.40204H2.40226H2.40248H2.40271H2.40293H2.40315H2.40338H2.4036H2.40382H2.40405H2.40427H2.40449H2.40472H2.40494H2.40516H2.40538H2.4056H2.40583H2.40605H2.40627H2.40649H2.40671H2.40693H2.40715H2.40738H2.4076H2.40782H2.40804H2.40826H2.40848H2.4087H2.40892H2.40914H2.40936H2.40958H2.4098H2.41002H2.41024H2.41046H2.41068H2.4109H2.41111H2.41133H2.41155H2.41177H2.41199H2.41221H2.41243H2.41265H2.41286H2.41308H2.4133H2.41352H2.41374H2.41395H2.41417H2.41439H2.41461H2.41483H2.41504H2.41526H2.41548H2.4157H2.41591H2.41613H2.41635H2.41656H2.41678H2.417H2.41722H2.41743H2.41765H2.41787H2.41808H2.4183H2.41852H2.41873H2.41895H2.41916H2.41938H2.4196H2.41981H2.42003H2.42025H2.42046H2.42068H2.42089H2.42111H2.42133H2.42154H2.42176H2.42197H2.42219H2.42241H2.42262H2.42284H2.42305H2.42327H2.42348H2.4237H2.42392H2.42413H2.42435H2.42456H2.42478H2.42499H2.42521H2.42542H2.42564H2.42586H2.42607H2.42629H2.4265H2.42672H2.42693H2.42715H2.42736H2.42758H2.42779H2.42801H2.42823H2.42844H2.42866H2.42887H2.42909H2.4293H2.42952H2.42973H2.42995H2.43017H2.43038H2.4306H2.43081H2.43103H2.43124H2.43146H2.43168H2.43189H2.43211H2.43232H2.43254H2.43275H2.43297H2.43319H2.4334H2.43362H2.43383H2.43405H2.43427H2.43448H2.4347H2.43492H2.43513H2.43535H2.43556H2.43578H2.436H2.43621H2.43643H2.43665H2.43686H2.43708H2.4373H2.43751H2.43773H2.43795H2.43817H2.43838H2.4386H2.43882H2.43904H2.43925H2.43947H2.43969H2.43991H2.44012H2.44034H2.44056H2.44078H2.441H2.44121H2.44143H2.44165H2.44187H2.44209H2.44231H2.44252H2.44274H2.44296H2.44318H2.4434H2.44362H2.44384H2.44406H2.44428H2.4445H2.44472H2.44494H2.44516H2.44538H2.4456H2.44582H2.44604H2.44626H2.44648H2.4467H2.44692H2.44714H2.44736H2.44758H2.44781H2.44803H2.44825H2.44847H2.44869H2.44891H2.44914H2.44936H2.44958H2.4498H2.45003H2.45025H2.45047H2.45069H2.45092H2.45114H2.45136H2.45159H2.45181H2.45204H2.45226H2.45248H2.45271H2.45293H2.45316H2.45338H2.45361H2.45383H2.45406H2.45428H2.45451H2.45474H2.45496H2.45519H2.45541H2.45564H2.45587H2.45609H2.45632H2.45655H2.45678H2.457H2.45723H2.45746H2.45769H2.45792H2.45814H2.45837H2.4586H2.45883H2.45906H2.45929H2.45952H2.45975H2.45998H2.46021H2.46044H2.46067H2.4609H2.46113H2.46136H2.46159H2.46182H2.46206H2.46229H2.46252H2.46275H2.46299H2.46322H2.46345H2.46369H2.46392H2.46415H2.46439H2.46462H2.46485H2.46509H2.46532H2.46556H2.46579H2.46603H2.46627H2.4665H2.46674H2.46697H2.46721H2.46745H2.46768H2.46792H2.46816H2.4684H2.46864H2.46887H2.46911H2.46935H2.46959H2.46983H2.47007H2.47031H2.47055H2.47079H2.47103H2.47127H2.47151H2.47175H2.472H2.47224H2.47248H2.47272H2.47296H2.47321H2.47345H2.47369H2.47394H2.47418H2.47443H2.47467H2.47492H2.47516H2.47541H2.47565H2.4759H2.47614H2.47639H2.47664H2.47689H2.47713H2.47738H2.47763H2.47788H2.47813H2.47837H2.47862H2.47887H2.47912H2.47937H2.47962H2.47987H2.48012H2.48038H2.48063H2.48088H2.48113H2.48138H2.48164H2.48189H2.48214H2.4824H2.48265H2.48291H2.48316H2.48342H2.48367H2.48393H2.48418H2.48444H2.4847H2.48495H2.48521H2.48547H2.48573H2.48599C2.94255 169.776 3.35041 170.108 3.43653 170.555L3.43659 170.555C3.61976 171.57 9.6378 201.472 26.7206 231.02L27.1535 230.769L26.7206 231.02C36.8385 248.519 48.8252 262.49 62.3494 272.493L46.2206 308.429ZM240.497 172.638L240.483 170.733M240.497 172.638L240.483 170.733M240.483 170.733C240.483 170.732 240.483 170.731 240.483 170.731M240.483 170.733L240.483 170.731M240.483 170.731C240.472 170.234 240.091 169.823 239.593 169.776H239.593H239.593H239.593H239.593H239.592H239.592H239.592H239.592H239.592H239.591H239.591H239.591H239.591H239.591H239.59H239.59H239.59H239.59H239.59H239.589H239.589H239.589H239.589H239.589H239.588H239.588H239.588H239.588H239.588H239.587H239.587H239.587H239.587H239.586H239.586H239.586H239.586H239.586H239.585H239.585H239.585H239.585H239.585H239.584H239.584H239.584H239.584H239.584H239.583H239.583H239.583H239.583H239.583H239.582H239.582H239.582H239.582H239.581H239.581H239.581H239.581H239.581H239.58H239.58H239.58H239.58H239.58H239.579H239.579H239.579H239.579H239.578H239.578H239.578H239.578H239.578H239.577H239.577H239.577H239.577H239.577H239.576H239.576H239.576H239.576H239.576H239.575H239.575H239.575H239.575H239.574H239.574H239.574H239.574H239.574H239.573H239.573H239.573H239.573H239.573H239.572H239.572H239.572H239.572H239.571H239.571H239.571H239.571H239.571H239.57H239.57H239.57H239.57H239.57H239.569H239.569H239.569H239.569H239.568H239.568H239.568H239.568H239.568H239.567H239.567H239.567H239.567H239.567H239.566H239.566H239.566H239.566H239.565H239.565H239.565H239.565H239.565H239.564H239.564H239.564H239.564H239.563H239.563H239.563H239.563H239.563H239.562H239.562H239.562H239.562H239.562H239.561H239.561H239.561H239.561H239.56H239.56H239.56H239.56H239.56H239.559H239.559H239.559H239.559H239.559H239.558H239.558H239.558H239.558H239.557H239.557H239.557H239.557H239.557H239.556H239.556H239.556H239.556H239.556H239.555H239.555H239.555H239.555H239.554H239.554H239.554H239.554H239.554H239.553H239.553H239.553H239.553H239.553H239.552H239.552H239.552H239.552H239.551H239.551H239.551H239.551H239.551H239.55H239.55H239.55H239.55H239.55H239.549H239.549H239.549H239.549H239.548H239.548H239.548H239.548H239.548H239.547H239.547H239.547H239.547H239.547H239.546H239.546H239.546H239.546H239.546H239.545H239.545H239.545H239.545H239.544H239.544H239.544H239.544H239.544H239.543H239.543H239.543H239.543H239.543H239.542H239.542H239.542H239.542H239.542H239.541H239.541H239.541H239.541H239.54H239.54H239.54H239.54H239.54H239.539H239.539H239.539H239.539H239.539H239.538H239.538H239.538H239.538H239.538H239.537H239.537H239.537H239.537H239.537H239.536H239.536H239.536H239.536H239.536H239.535H239.535H239.535H239.535H239.535H239.534H239.534H239.534H239.534H239.533H239.533H239.533H239.533H239.533H239.532H239.532H239.532H239.532H239.532H239.531H239.531H239.531H239.531H239.531H239.53H239.53H239.53H239.53H239.53H239.529H239.529H239.529H239.529H239.529H239.529H239.528H239.528H239.528H239.528H239.528H239.527H239.527H239.527H239.527H239.527H239.526H239.526H239.526H239.526H239.526H239.525H239.525H239.525H239.525H239.525H239.524H239.524H239.524H239.524H239.524H239.523H239.523H239.523H239.523H239.523H239.522H239.522H239.522H239.522H239.522H239.522H239.521H239.521H239.521H239.521H239.521H239.52H239.52H239.52H239.52H239.52H239.519H239.519H239.519H239.519H239.519H239.519H239.518H239.518H239.518H239.518H239.518H239.517H239.517H239.517H239.517H239.517H239.517H239.516H239.516H239.516H239.516H239.516H239.515H239.515H239.515H239.515H239.515H239.515H239.514H239.514H239.514H239.514H239.514H239.514H239.513H239.513H239.513H239.513H239.513H239.512H239.512H239.512H239.512H239.512H239.512C239.031 169.776 238.628 170.114 238.549 170.582C238.549 170.583 238.549 170.584 238.549 170.585L238.055 170.504C238.011 170.811 233.025 201.039 215.933 230.842C205.93 248.28 193.81 262.166 179.88 272.106L240.483 170.731Z" fill="#FFF5F5" stroke="black"/>
<path d="M163.824 171.779C158.825 170.021 153.427 169.09 147.588 169.238C138.149 169.474 129.006 172.059 119.538 172.104H121.293C111.84 172.059 102.682 169.474 93.244 169.238C87.6991 169.09 82.567 169.932 77.8332 171.528L77.4645 169.238C76.211 165.072 75.5474 160.641 75.5474 156.062C75.5474 130.773 96.0165 110.271 121.264 110.271C146.511 110.271 166.98 130.773 166.98 156.062C166.98 161.498 166.036 166.697 164.296 171.542L163.824 171.779Z" fill="#FF7B7B" stroke="#EF6250" stroke-miterlimit="10" stroke-linecap="round" stroke-linejoin="round"/>
<path d="M111.516 135.323C112.209 136.239 112.843 137.199 113.477 138.159C114.141 139.149 114.819 140.242 114.745 141.439C114.642 142.975 113.035 144.216 111.53 143.95C110.94 143.846 110.41 143.551 109.893 143.27C108.448 142.473 106.959 141.645 105.882 140.39C104.997 139.371 104.408 138.13 103.582 137.051C102.225 135.294 100.308 134.112 98.5381 132.768C96.7831 131.424 95.0725 129.784 94.5269 127.642C94.5563 126.46 95.6624 125.412 96.8422 125.471C97.3878 125.5 97.904 125.722 98.4054 125.943C103.552 128.159 108.109 130.641 111.516 135.323Z" fill="#D85252" stroke="#EF6250" stroke-miterlimit="10" stroke-linecap="round" stroke-linejoin="round"/>
<path d="M158.279 141.689C157.866 140.611 157.394 139.562 156.923 138.528C156.436 137.435 155.875 136.283 154.828 135.722C152.72 134.584 150.95 136.431 150.92 138.38C150.876 141.113 149.18 141.113 146.88 140.508C143.399 139.606 140.951 140.965 138.488 142.856C138.253 143.033 138.002 143.225 137.869 143.58C136.365 147.465 142.662 147.435 144.741 148.07C145.803 148.395 146.865 148.765 147.838 149.282C148.635 149.695 149.372 150.198 150.095 150.7C151.849 151.911 152.852 153.122 153.516 155.161C154.003 156.623 154.253 159.326 155.728 160.213C156.746 160.818 158.22 160.434 158.795 159.4C159.061 158.927 159.149 158.366 159.238 157.82C160.093 152.251 160.432 147.081 158.279 141.689Z" fill="#D85252" stroke="#EF6250" stroke-miterlimit="10" stroke-linecap="round" stroke-linejoin="round"/>
<path d="M101.34 141.35C100.662 140.493 99.8802 140.212 99.1576 139.976C98.4645 139.755 97.7566 139.518 97.0782 139.356C94.5269 138.691 92.7277 138.617 90.5157 136.933C89.6161 136.254 88.6576 135.855 87.5368 136.46C86.4897 137.022 85.9293 138.189 85.4426 139.267C84.9707 140.316 84.4988 141.365 84.0859 142.428C81.9328 147.805 82.272 152.99 83.0979 158.559C83.1716 159.105 83.2601 159.652 83.5403 160.139C84.1301 161.173 85.6049 161.557 86.6077 160.951C88.2741 159.947 88.6723 156.52 88.805 154.821C88.8788 153.95 88.7018 153.004 88.9672 152.177C89.3506 150.951 90.4124 149.696 91.0613 148.588C92.2263 146.608 93.8633 145.264 96.3261 145.811C97.1372 145.988 97.9926 146.446 98.7742 146.549C99.7475 146.668 100.559 146.254 101.34 145.826C101.62 145.678 101.915 145.515 102.107 145.205C102.579 144.378 102.21 142.458 101.34 141.35Z" fill="#D85252" stroke="#EF6250" stroke-miterlimit="10" stroke-linecap="round" stroke-linejoin="round"/>
<path d="M123.018 164.777C122.635 165.368 122.193 165.944 121.735 166.535C121.264 167.141 120.733 167.791 119.7 168.131C118.373 168.574 116.441 168.278 115.837 167.54C115.601 167.259 115.556 166.934 115.512 166.609C115.379 165.723 115.261 164.822 115.704 163.95C116.058 163.241 116.78 162.591 117.223 161.882C117.945 160.73 117.872 159.519 118.034 158.322C118.181 157.126 118.624 155.87 120.098 154.94C121.101 154.57 122.576 154.718 123.181 155.25C123.461 155.501 123.564 155.796 123.653 156.077C124.596 159.031 125.054 161.808 123.018 164.777Z" fill="#D85252" stroke="#EF6250" stroke-miterlimit="10" stroke-linecap="round" stroke-linejoin="round"/>
<path d="M151.319 158.131C150.773 157.407 150.036 156.801 149.342 156.447C146.467 155.029 143.576 153.611 140.701 152.207C138.105 150.937 135.539 149.903 132.973 148.573C130.127 147.082 127.399 145.383 124.449 144.083C123.948 143.861 123.432 143.64 122.886 143.61C121.706 143.566 120.6 144.6 120.571 145.782C120.526 147.672 123.004 149.445 124.11 150.701C125.083 151.808 126.632 153.418 127.163 154.822C127.325 155.25 127.384 155.693 127.443 156.136C127.62 157.466 127.782 158.795 127.959 160.139C128.195 162.03 129.257 163.906 130.938 164.896C132.663 165.9 135.288 166.801 136.276 164.453C136.616 163.655 135.48 159.844 137.265 160.021C138.548 160.139 138.931 163.271 140.14 163.877C143.208 165.413 141.998 160.095 144.52 162.385C146.26 163.965 149.726 163.877 151.363 162.296C152.661 161.026 152.262 159.386 151.319 158.131Z" fill="#D85252" stroke="#EF6250" stroke-miterlimit="10" stroke-linecap="round" stroke-linejoin="round"/>
<path d="M115.35 150.553C112.873 147.746 107.578 150.11 104.791 150.937C102.889 151.498 101.783 151.188 99.8507 150.686C98.376 150.302 97.5502 149.533 96.3115 148.898C95.2497 148.352 94.0698 148.544 93.5832 149.711C93.0965 150.863 93.4652 152.562 94.1288 153.536C94.5417 154.142 95.1021 154.644 95.6035 155.191C96.8718 156.565 97.211 157.51 96.9308 159.209C96.4589 162.133 98.1696 164.039 100.824 164.896C102.933 165.575 107.254 166.727 109.245 165.501C110.203 164.91 110.557 163.404 110.351 162.37C109.82 159.563 109.407 157.082 112.681 156.24C115.026 155.634 117.429 152.931 115.35 150.553Z" fill="#D85252" stroke="#EF6250" stroke-miterlimit="10" stroke-linecap="round" stroke-linejoin="round"/>
<path d="M136.247 139.06C135.096 139.09 133.961 139.06 132.811 139.031C131.616 139.001 130.333 138.927 129.419 138.174C128.224 137.199 128.136 135.175 129.227 134.097C129.655 133.683 130.2 133.417 130.731 133.152C132.221 132.428 133.754 131.704 135.406 131.527C136.748 131.394 138.105 131.63 139.447 131.571C141.659 131.482 143.738 130.596 145.847 129.931C147.956 129.267 150.286 128.824 152.351 129.606C153.294 130.315 153.516 131.822 152.793 132.753C152.454 133.181 151.982 133.477 151.51 133.757C146.688 136.682 142.042 138.986 136.247 139.06Z" fill="#D85252" stroke="#EF6250" stroke-miterlimit="10" stroke-linecap="round" stroke-linejoin="round"/>
<path d="M121.367 140.922C121.721 141.07 122.089 141.217 122.458 141.173C122.93 141.129 123.313 140.789 123.667 140.479C124.051 140.124 124.449 139.77 124.714 139.327C125.319 138.278 125.039 136.86 124.213 135.973C123.387 135.087 122.134 134.688 120.924 134.718C120.393 134.733 119.833 134.836 119.42 135.161C116.22 137.643 118.712 139.829 121.367 140.922Z" fill="#D85252" stroke="#EF6250" stroke-miterlimit="10" stroke-linecap="round" stroke-linejoin="round"/>
<path d="M203.42 211.691C193.156 192.133 175.223 168.529 147.602 169.238C138.164 169.474 129.02 172.059 119.553 172.103H121.308C111.855 172.059 102.697 169.474 93.2585 169.238C65.6369 168.529 48.6186 192.133 38.3545 211.691" stroke="black" stroke-miterlimit="10" stroke-linecap="round" stroke-linejoin="round"/>
<path d="M202.241 151.527C202.241 151.527 186.771 121.526 183.202 147.14C181.595 158.662 186.004 166.387 189.278 171.734C216.693 216.462 208.154 171.04 208.154 171.04H208.405C208.405 171.04 190.708 80.6538 121.426 80.6538C52.1434 80.6538 33.4882 171.04 33.4882 171.04C33.4882 171.04 24.9495 216.447 52.3646 171.734C55.6385 166.387 60.0479 158.676 58.4404 147.14C54.8716 121.512 39.4018 151.527 39.4018 151.527" stroke="black" stroke-miterlimit="10" stroke-linecap="round" stroke-linejoin="round"/>
<path d="M146.305 275.341C146.305 275.341 146.158 277.306 141.704 278.532C137.25 279.758 130.924 280.57 125.792 278.635L121.869 277.099" stroke="black" stroke-miterlimit="10" stroke-linecap="round" stroke-linejoin="round"/>
<path d="M170.815 276.862C170.815 276.862 166.037 280.186 158.191 279.787C150.331 279.388 146.01 276.021 146.01 276.021" stroke="black" stroke-miterlimit="10" stroke-linecap="round" stroke-linejoin="round"/>
<path d="M121.854 277.38L118.182 278.532C113.079 280.541 107.402 280.571 102.27 278.636L97.6389 276.804" stroke="black" stroke-miterlimit="10" stroke-linecap="round" stroke-linejoin="round"/>
<path d="M97.6539 277.099C97.6539 277.099 97.7129 279.33 89.0858 281.176C80.4144 283.022 73.144 277.926 73.144 277.926" stroke="black" stroke-miterlimit="10" stroke-linecap="round" stroke-linejoin="round"/>
<path d="M170.932 349.419C155.374 357.056 138.296 360.719 121.308 360.586C104.304 360.719 87.2417 357.056 71.6833 349.419" stroke="black" stroke-miterlimit="10" stroke-linecap="round" stroke-linejoin="round"/>
<path d="M225.261 211.602H208.184C203.642 211.602 201.385 215.132 201.385 219.49L193.599 230.672" stroke="black" stroke-miterlimit="10" stroke-linecap="round" stroke-linejoin="round"/>
<path d="M231.16 195.294H212.342C207.8 195.294 205.544 198.825 205.544 203.182L202.771 214.364" stroke="black" stroke-miterlimit="10" stroke-linecap="round" stroke-linejoin="round"/>
<path d="M17.9595 211.602H34.0339C38.576 211.602 40.8323 215.132 40.8323 219.49L50.2854 232.356" stroke="black" stroke-miterlimit="10" stroke-linecap="round" stroke-linejoin="round"/>
<path d="M11.1313 195.294H28.3266C32.8687 195.294 35.125 198.825 35.125 203.182L39.4607 214.364" stroke="black" stroke-miterlimit="10" stroke-linecap="round" stroke-linejoin="round"/>
<path d="M27.3975 230.923C27.3975 230.923 47.0408 230.095 50.2999 232.355C56.0661 236.388 67.3772 253.567 75.0752 254.793C88.3772 256.935 120.969 258.383 120.969 258.383" stroke="black" stroke-miterlimit="10" stroke-linecap="round" stroke-linejoin="round"/>
<path d="M215.351 230.923C215.351 230.923 196.843 228.412 193.598 230.687C187.832 234.72 174.84 253.568 167.142 254.809C153.84 256.951 121.249 258.398 121.249 258.398" stroke="black" stroke-miterlimit="10" stroke-linecap="round" stroke-linejoin="round"/>
<path d="M121.662 258.974V277.098" stroke="black" stroke-miterlimit="10" stroke-linecap="round" stroke-linejoin="round"/>
<path d="M97.4468 257.024V276.803" stroke="black" stroke-miterlimit="10" stroke-linecap="round" stroke-linejoin="round"/>
<path d="M72.9221 254.306V279.078" stroke="black" stroke-miterlimit="10" stroke-linecap="round" stroke-linejoin="round"/>
<path d="M55.7123 237.614L52.7185 241.661C51.1553 243.773 50.3 246.344 50.3 248.988L52.3794 263.951" stroke="black" stroke-miterlimit="10" stroke-linecap="round" stroke-linejoin="round"/>
<path d="M146.098 257.024V275.34" stroke="black" stroke-miterlimit="10" stroke-linecap="round" stroke-linejoin="round"/>
<path d="M170.622 254.306V277.955" stroke="black" stroke-miterlimit="10" stroke-linecap="round" stroke-linejoin="round"/>
<path d="M186.49 238.176C194.955 246.935 189.809 255.961 188.186 266.153" stroke="black" stroke-miterlimit="10" stroke-linecap="round" stroke-linejoin="round"/>
<path d="M238.534 111.703C227.105 64.5379 204.748 28.8945 174.295 12.1142C167.364 7.47593 148.104 -0.544945 133.209 0.740168C128.475 1.15377 123.859 3.75354 119.966 3.75354C116.073 3.75354 111.324 1.09468 106.517 0.710626C91.6514 -0.485859 72.5537 7.49071 65.652 12.0994C35.199 28.8797 12.8422 64.5084 1.41309 111.688" stroke="black" stroke-miterlimit="10" stroke-linecap="round" stroke-linejoin="round"/>
<path d="M3.53638 158.144C3.53638 158.144 28.8869 35.3496 123.018 35.3496C217.15 35.3496 241.188 158.144 241.188 158.144" stroke="black" stroke-miterlimit="10" stroke-linecap="round" stroke-linejoin="round"/>
<path d="M199.542 102.56C199.542 102.56 185.326 81.6286 166.641 71.8499C147.794 61.9826 122.37 60.3726 122.37 60.3726C122.37 60.3726 97.9336 61.9826 79.0719 71.8499C60.3872 81.6286 46.1709 102.56 46.1709 102.56" stroke="black" stroke-miterlimit="10" stroke-linecap="round" stroke-linejoin="round"/>
<path d="M122.37 60.3576V35.3496" stroke="black" stroke-miterlimit="10" stroke-linecap="round" stroke-linejoin="round"/>
<path d="M146.57 64.3168V38.1123" stroke="black" stroke-miterlimit="10" stroke-linecap="round" stroke-linejoin="round"/>
<path d="M171.094 74.4351V47.9204" stroke="black" stroke-miterlimit="10" stroke-linecap="round" stroke-linejoin="round"/>
<path d="M193.732 94.1397V65.5718" stroke="black" stroke-miterlimit="10" stroke-linecap="round" stroke-linejoin="round"/>
<path d="M97.9336 63.5635V39.2202" stroke="black" stroke-miterlimit="10" stroke-linecap="round" stroke-linejoin="round"/>
<path d="M73.4089 75.2181V49.3682" stroke="black" stroke-miterlimit="10" stroke-linecap="round" stroke-linejoin="round"/>
<path d="M54.7239 91.038C52.0546 88.1576 49.4148 85.9123 50.167 82.057L50.2997 68.4673" stroke="black" stroke-miterlimit="10" stroke-linecap="round" stroke-linejoin="round"/>
<path d="M18.4756 115.027H36.187C40.7292 115.027 42.9855 111.496 42.9855 107.139L46.1709 102.56" stroke="black" stroke-miterlimit="10" stroke-linecap="round" stroke-linejoin="round"/>
<path d="M225.261 114.111L210.883 114.953C206.355 115.219 203.892 111.822 203.642 107.479L199.542 102.575" stroke="black" stroke-miterlimit="10" stroke-linecap="round" stroke-linejoin="round"/>
<path d="M29.064 95.4395L29.3442 97.6404C29.6981 100.447 32.0872 102.559 34.9187 102.559H46.1708" stroke="black" stroke-miterlimit="10" stroke-linecap="round" stroke-linejoin="round"/>
<path d="M215.351 95.4395L215.071 97.6404C214.717 100.447 212.328 102.559 209.496 102.559H199.542" stroke="black" stroke-miterlimit="10" stroke-linecap="round" stroke-linejoin="round"/>
<path d="M134.123 81.5402C130.083 80.846 125.85 80.4619 121.396 80.4619C116.84 80.4619 112.519 80.846 108.389 81.5845L108.419 81.7618C108.419 81.7618 114.554 87.1238 112.666 97.0502C110.778 106.977 106 114.318 108.419 121.615C111.25 130.123 121.249 130.123 121.249 130.123C121.249 130.123 131.248 130.123 134.079 121.615C136.512 114.318 131.72 106.977 129.832 97.0502C127.944 87.1238 134.079 81.7618 134.079 81.7618L134.123 81.5402Z" fill="#FC8888" stroke="#EF6250" stroke-miterlimit="10" stroke-linecap="round" stroke-linejoin="round"/>
<path d="M127.974 113.609C127.325 112.575 126.263 111.836 125.068 111.629C124.479 111.526 123.874 111.555 123.299 111.733C123.078 111.806 122.724 112.028 122.532 111.777C122.37 111.555 122.606 111.171 122.62 110.935C122.635 110.447 122.488 109.96 122.222 109.561C121.5 108.424 120.054 107.995 118.978 108.616C118.211 109.059 117.857 109.916 117.96 110.787C117.518 110.846 117.09 110.979 116.707 111.216C114.922 112.25 114.436 114.643 115.63 116.533C116.825 118.439 119.243 119.133 121.028 118.099C121.264 117.966 121.485 117.789 121.677 117.612C122.915 119.325 125.186 119.945 126.897 118.956C128.682 117.892 129.168 115.514 127.974 113.609Z" fill="#FF9999" stroke="#EF6250" stroke-miterlimit="10" stroke-linecap="round" stroke-linejoin="round"/>
<path d="M122.473 157.125H319.245C322.313 157.125 324.569 154.053 323.787 150.892L290.798 17.6536C289.943 14.2119 286.064 12.8086 283.395 14.98L119.612 148.218C116.058 151.113 117.99 157.125 122.473 157.125Z" fill="#FFA6A6" fill-opacity="0.5"/>
<path d="M318.11 162.753C361.089 162.753 395.931 127.854 395.931 84.8042C395.931 41.7543 361.089 6.85547 318.11 6.85547C275.131 6.85547 240.289 41.7543 240.289 84.8042C240.289 127.854 275.131 162.753 318.11 162.753Z" fill="#D85252" stroke="#EF6250" stroke-miterlimit="10" stroke-linecap="round" stroke-linejoin="round"/>
<mask id="mask0_2837_530" style="mask-type:luminance" maskUnits="userSpaceOnUse" x="240" y="6" width="156" height="157">
<path d="M318.11 162.753C361.089 162.753 395.931 127.854 395.931 84.8042C395.931 41.7543 361.089 6.85547 318.11 6.85547C275.131 6.85547 240.289 41.7543 240.289 84.8042C240.289 127.854 275.131 162.753 318.11 162.753Z" fill="white"/>
</mask>
<g mask="url(#mask0_2837_530)">
<path d="M366.599 84.0509C362.927 87.3892 351.601 94.4057 349.935 99.7381C348.268 105.085 347.929 108.246 347.929 108.246C347.929 108.246 343.269 111.422 342.768 113.594C342.266 115.765 342.266 111.762 332.931 109.088C323.596 106.415 318.095 107.508 318.095 107.508C318.095 107.508 312.595 106.43 303.26 109.088C293.925 111.762 293.925 115.765 293.423 113.594C292.922 111.422 288.262 108.246 288.262 108.246C288.262 108.246 287.923 105.071 286.256 99.7381C284.59 94.3909 273.264 87.3892 269.592 84.0509C265.92 80.7126 265.758 79.5456 267.1 77.8764C268.442 76.2073 281.331 62.5585 291.329 53.7399C302.67 43.7397 318.095 44.1533 318.095 44.1533C318.095 44.1533 333.506 43.7397 344.862 53.7399C354.86 62.5437 367.764 76.2073 369.091 77.8764C370.433 79.5456 370.271 80.7126 366.599 84.0509Z" fill="url(#paint0_radial_2837_530)"/>
<path d="M342.06 117.287L294.013 115.441C292.686 115.397 291.786 114.067 292.229 112.812L318.317 39.0432C318.951 37.2411 321.532 37.315 322.062 39.1466L344.021 114.762C344.405 116.061 343.402 117.347 342.06 117.287Z" fill="#AF2734"/>
<path d="M346.661 104.539C346.661 104.539 342.369 86.0156 338.579 73.061C336.22 64.9811 329.893 48.9984 325.867 39.5151C323.434 33.769 321.65 29.7217 321.65 29.7217H319.172H317.048H314.571C314.571 29.7217 312.786 33.769 310.353 39.5151C306.327 48.9984 300.015 64.9811 297.641 73.061C293.851 86.0156 289.56 104.539 289.56 104.539L285.253 113.387L297.671 120.61C297.671 120.61 308.112 96.6805 312.595 76.2073C314.35 68.1865 316.739 54.5524 318.125 43.8875C319.511 54.5524 321.9 68.1865 323.655 76.2073C328.138 96.6805 338.579 120.61 338.579 120.61L350.996 113.387L346.661 104.539Z" fill="#FF9999" stroke="#EF6250" stroke-miterlimit="10" stroke-linecap="round" stroke-linejoin="round"/>
<path d="M318.11 143.374C305.162 143.374 292.155 138.47 287.185 131.719C284.088 127.509 282.849 124.983 282.024 123.314C281.581 122.428 281.271 121.778 280.844 121.202C280.46 120.685 279.398 120.005 278.263 119.296C275.874 117.804 272.6 115.751 271.096 112.383C269.238 108.232 269.592 101.689 269.798 99.4287C268.928 99.2366 267.586 98.5128 266.745 95.9574C266.318 94.6575 266.008 93.0622 265.684 91.3782C265.153 88.6455 264.548 85.5583 263.413 84.3323C263.28 84.2141 262.321 83.6232 255.847 83.6232C247.721 83.6232 236.292 84.5538 236.189 84.5686C236.174 84.5686 236.145 84.5686 236.13 84.5686C235.953 84.5686 235.761 84.4948 235.629 84.3766C235.481 84.2436 235.393 84.0368 235.393 83.83V81.3632C235.393 80.9644 235.717 80.6246 236.13 80.6246L252.293 80.4622C254.151 80.4622 262.867 80.152 265.625 74.0514C266.038 73.1503 266.539 71.9686 267.129 70.5801C271.052 61.4218 279.221 42.3814 289.146 34.0651C297.936 26.6942 307.684 22.957 318.11 22.957C327.961 22.957 338.786 27.1078 347.073 34.0651C356.998 42.3814 365.168 61.4366 369.091 70.5948C369.681 71.9834 370.182 73.1503 370.595 74.0514C373.353 80.152 382.069 80.4622 383.794 80.4622L400.09 80.6246C400.488 80.6246 400.827 80.9644 400.827 81.3632V83.83C400.827 84.0368 400.739 84.2289 400.591 84.3766C400.458 84.5095 400.281 84.5686 400.09 84.5686C400.075 84.5686 400.045 84.5686 400.031 84.5686C399.913 84.5538 388.484 83.6232 380.373 83.6232C373.899 83.6232 372.94 84.2141 372.807 84.347C371.672 85.5583 371.067 88.6603 370.536 91.3782C370.212 93.0622 369.902 94.6575 369.475 95.9574C368.619 98.5128 367.292 99.2366 366.422 99.4287C366.614 101.689 366.967 108.232 365.124 112.383C363.62 115.736 360.346 117.79 357.957 119.296C356.821 120.005 355.76 120.67 355.376 121.202C354.949 121.778 354.639 122.428 354.196 123.314C353.371 124.983 352.132 127.509 349.035 131.719C344.065 138.47 331.058 143.374 318.11 143.374ZM321.281 106.548C323.773 106.548 327.858 106.873 333.152 108.38C338.697 109.975 341.101 112.058 342.177 113.063C342.959 110.995 346.218 108.572 347.265 107.834C347.398 106.873 347.87 103.934 349.256 99.5173C350.539 95.4108 356.792 90.684 361.821 86.9025C363.605 85.5583 365.154 84.3913 366.127 83.5051C369.917 80.0486 369.401 79.4134 368.545 78.3351C367.262 76.725 354.373 63.0762 344.404 54.302C334.037 45.1585 319.968 44.9074 318.39 44.9074H317.859C316.296 44.9074 302.227 45.1732 291.86 54.302C281.876 63.1057 269.002 76.7398 267.719 78.3351C266.863 79.3986 266.347 80.0486 270.137 83.5051C271.111 84.3913 272.659 85.5583 274.443 86.9025C279.472 90.6987 285.725 95.4108 287.008 99.5173C288.38 103.934 288.866 106.873 288.999 107.834C290.046 108.572 293.305 110.995 294.087 113.063C295.163 112.058 297.552 109.961 303.112 108.38C308.406 106.873 312.491 106.548 314.984 106.548C316.694 106.548 317.771 106.696 318.154 106.755C318.479 106.681 319.555 106.548 321.281 106.548Z" fill="#FF8080"/>
<path d="M318.11 23.7101C328.492 23.7101 339.169 28.4074 346.602 34.6409C357.854 44.0651 366.761 67.3596 369.932 74.3612C372.955 81.0527 382.511 81.2004 383.794 81.2004C383.853 81.2004 383.898 81.2004 383.927 81.2004L400.09 81.3629V83.8297C400.09 83.8297 388.617 82.8843 380.373 82.8843C376.244 82.8843 372.94 83.1207 372.277 83.8297C370.271 85.9568 369.947 92.2051 368.782 95.7207C367.867 98.4534 366.466 98.7488 365.876 98.7488C365.714 98.7488 365.611 98.7193 365.611 98.7193C365.611 98.7193 366.614 107.228 364.446 112.073C362.278 116.918 356.114 118.912 354.787 120.758C353.459 122.59 353.12 124.924 348.46 131.276C343.8 137.612 331.221 142.62 318.14 142.62C305.059 142.62 292.48 137.612 287.819 131.276C283.159 124.939 282.82 122.59 281.493 120.758C280.166 118.927 274.001 116.918 271.833 112.073C269.666 107.228 270.668 98.7193 270.668 98.7193C270.668 98.7193 270.565 98.7488 270.403 98.7488C269.828 98.7488 268.412 98.4386 267.498 95.7207C266.333 92.2199 265.994 85.9716 264.003 83.8297C263.339 83.1207 260.021 82.8843 255.906 82.8843C247.663 82.8843 236.189 83.8297 236.189 83.8297V81.3629L252.352 81.2004C252.382 81.2004 252.411 81.2004 252.485 81.2004C253.783 81.2004 263.339 81.0527 266.348 74.3612C269.518 67.3448 278.426 44.0651 289.678 34.6409C297.051 28.4074 306.563 23.7101 318.11 23.7101ZM318.11 44.1537C318.11 44.1537 318.022 44.1537 317.845 44.1537C315.765 44.1537 301.829 44.5082 291.344 53.7403C281.345 62.5441 268.442 76.2077 267.114 77.8768C265.787 79.546 265.949 80.7129 269.607 84.0513C273.279 87.3896 284.605 94.4061 286.271 99.7385C287.937 105.086 288.277 108.247 288.277 108.247C288.277 108.247 292.937 111.423 293.438 113.594C293.541 114.022 293.615 114.215 293.763 114.215C294.323 114.215 295.812 111.231 303.275 109.089C308.421 107.612 312.403 107.287 314.94 107.287C317.004 107.287 318.11 107.508 318.11 107.508C318.11 107.508 319.216 107.287 321.281 107.287C323.817 107.287 327.799 107.612 332.946 109.089C340.408 111.231 341.898 114.215 342.458 114.215C342.591 114.215 342.679 114.022 342.782 113.594C343.284 111.423 347.944 108.247 347.944 108.247C347.944 108.247 348.283 105.071 349.95 99.7385C351.616 94.3913 362.942 87.3896 366.614 84.0513C370.286 80.7129 370.448 79.546 369.106 77.8768C367.779 76.2077 354.875 62.5589 344.876 53.7403C334.406 44.5082 320.47 44.1537 318.376 44.1537C318.199 44.1537 318.11 44.1537 318.11 44.1537ZM318.11 22.2329C307.507 22.2329 297.597 26.0292 288.675 33.5035C278.617 41.938 270.403 61.0965 266.451 70.2991C265.861 71.6728 265.359 72.8545 264.947 73.7556C262.381 79.4426 254.063 79.738 252.426 79.738H252.338L236.116 79.9005C235.305 79.9153 234.656 80.5652 234.656 81.3777V83.8445C234.656 84.2581 234.833 84.6569 235.128 84.9376C235.408 85.1887 235.762 85.3216 236.13 85.3216C236.175 85.3216 236.204 85.3216 236.248 85.3216C236.366 85.3069 247.766 84.3763 255.848 84.3763C261.274 84.3763 262.646 84.7899 262.941 84.9376C263.899 86.0602 264.489 89.0883 264.961 91.5404C265.3 93.2539 265.61 94.864 266.053 96.2082C266.834 98.5716 268.043 99.5613 269.032 99.9749C268.84 102.693 268.663 108.72 270.447 112.708C272.04 116.268 275.417 118.395 277.895 119.946C278.912 120.581 279.974 121.246 280.269 121.659C280.652 122.191 280.962 122.811 281.375 123.668C282.216 125.367 283.469 127.922 286.595 132.177C291.683 139.104 304.941 144.127 318.11 144.127C331.279 144.127 344.537 139.104 349.625 132.177C352.751 127.922 354.02 125.352 354.846 123.668C355.273 122.811 355.568 122.191 355.952 121.659C356.247 121.246 357.308 120.581 358.326 119.946C360.789 118.395 364.181 116.283 365.773 112.708C367.558 108.734 367.381 102.708 367.189 99.9749C368.177 99.5613 369.372 98.5716 370.168 96.2082C370.61 94.864 370.935 93.2539 371.259 91.5404C371.731 89.1031 372.321 86.0602 373.28 84.9376C373.575 84.8046 374.946 84.3763 380.373 84.3763C388.455 84.3763 399.869 85.3069 399.972 85.3216C400.016 85.3216 400.046 85.3216 400.09 85.3216C400.459 85.3216 400.813 85.1887 401.093 84.9376C401.403 84.6569 401.565 84.2581 401.565 83.8445V81.3777C401.565 80.5652 400.916 79.9153 400.105 79.9005L383.942 79.738H383.794C382.157 79.738 373.84 79.4426 371.274 73.7556C370.861 72.8545 370.36 71.6876 369.77 70.2991C365.818 61.0965 357.603 41.938 347.546 33.5035C339.125 26.4575 328.124 22.2329 318.11 22.2329ZM318.11 45.6308C318.125 45.6308 318.14 45.6308 318.155 45.6308H318.376C319.924 45.6308 333.728 45.8967 343.903 54.8482C353.843 63.6076 366.673 77.1973 367.956 78.7927C368.575 79.5756 368.9 79.9744 365.611 82.9582C364.667 83.8297 363.134 84.9819 361.364 86.3113C356.247 90.1666 349.89 94.9526 348.534 99.2954C347.265 103.343 346.749 106.179 346.572 107.405C345.407 108.247 343.107 110.034 341.956 111.866C340.6 110.728 338.078 109 333.359 107.656C327.991 106.12 323.832 105.795 321.296 105.795C319.703 105.795 318.612 105.928 318.125 105.987C317.638 105.913 316.562 105.795 314.954 105.795C312.418 105.795 308.259 106.12 302.891 107.656C298.172 109 295.65 110.728 294.294 111.866C293.143 110.034 290.828 108.232 289.678 107.405C289.486 106.179 288.97 103.343 287.716 99.2954C286.359 94.9526 280.003 90.1666 274.886 86.3113C273.116 84.9819 271.583 83.8149 270.639 82.9582C267.365 79.9744 267.675 79.5756 268.294 78.7927C269.577 77.1973 282.393 63.6076 292.347 54.8482C302.508 45.8967 316.326 45.6308 317.874 45.6308H318.095C318.081 45.6308 318.095 45.6308 318.11 45.6308Z" fill="#EF6250"/>
</g>
<path d="M288.7 243V229H295.52C298.02 229 299.98 230.62 299.98 232.68C299.98 233.94 299.24 235.06 298.08 235.72C299.58 236.32 300.58 237.58 300.58 239.08C300.58 241.28 298.64 243 296.14 243H288.7ZM290.84 234.96H295.52C296.82 234.96 297.84 234.06 297.84 232.92C297.84 231.8 296.82 230.9 295.52 230.9H290.84V234.96ZM290.84 241.1H296.14C297.44 241.1 298.44 240.14 298.44 238.9C298.44 237.7 297.44 236.76 296.14 236.76H290.84V241.1ZM302.137 238C302.137 235.12 304.417 232.84 307.357 232.84C310.277 232.84 312.557 235.12 312.557 238C312.557 240.9 310.277 243.16 307.357 243.16C304.417 243.16 302.137 240.9 302.137 238ZM304.157 238C304.157 239.82 305.557 241.26 307.357 241.26C309.137 241.26 310.537 239.82 310.537 238C310.537 236.18 309.137 234.74 307.357 234.74C305.557 234.74 304.157 236.18 304.157 238ZM323.206 242.12C322.266 242.78 321.086 243.16 319.826 243.16C316.706 243.16 314.246 240.9 314.246 238C314.246 235.12 316.706 232.84 319.826 232.84C321.086 232.84 322.266 233.22 323.206 233.88L322.486 235.54C321.846 235.02 320.966 234.68 319.986 234.68C317.906 234.68 316.266 236.14 316.266 237.98C316.266 239.86 317.906 241.3 319.986 241.3C320.966 241.3 321.846 240.98 322.486 240.46L323.206 242.12ZM325.335 243V233H334.695V243H332.675V234.78H327.375V243H325.335ZM341.401 232.84C344.201 232.84 345.921 234.24 345.921 236.48V238C345.921 239.94 346.021 241.04 346.321 243H344.381C344.301 242.58 344.261 242.18 344.201 241.82C343.441 242.66 342.221 243.16 340.701 243.16C338.481 243.16 337.181 242.06 337.181 240.2C337.181 238.32 338.461 237.3 341.381 237L343.981 236.72V236.6C343.981 235.34 342.901 234.58 341.201 234.58C340.081 234.58 339.101 234.9 338.461 235.4L337.801 233.88C338.721 233.22 339.941 232.84 341.401 232.84ZM343.981 238.28L341.301 238.56C339.801 238.72 339.121 239.18 339.121 240.02C339.121 240.92 339.941 241.48 341.341 241.48C343.001 241.48 343.981 240.66 343.981 239.24V238.28ZM356.311 243V234.78H352.231V235.14C352.231 241.36 351.591 243.16 349.391 243.16C348.831 243.16 348.271 243.06 347.971 242.92V240.98C348.251 241.06 348.631 241.14 348.931 241.14C350.011 241.14 350.271 240.02 350.271 235.14V233H358.331V243H356.311ZM365.653 232.84C368.533 232.84 370.673 234.92 370.673 237.84C370.673 238.1 370.653 238.36 370.633 238.68H362.613C363.013 240.36 364.593 241.48 366.673 241.48C367.753 241.48 368.773 241.18 369.453 240.7L370.093 242.14C369.113 242.78 367.853 243.16 366.473 243.16C363.073 243.16 360.633 240.94 360.633 237.84C360.633 234.94 362.733 232.84 365.653 232.84ZM362.593 237.12H368.873C368.693 235.56 367.453 234.58 365.793 234.58C364.133 234.58 362.893 235.62 362.593 237.12ZM372.815 243V233H374.855V237.02H380.175V233H382.195V243H380.175V238.82H374.855V243H372.815ZM385.081 243V233H387.121V240.06L392.661 233H394.681V243H392.661V235.9L387.121 243H385.081ZM402.001 232.84C404.881 232.84 407.021 234.92 407.021 237.84C407.021 238.1 407.001 238.36 406.981 238.68H398.961C399.361 240.36 400.941 241.48 403.021 241.48C404.101 241.48 405.121 241.18 405.801 240.7L406.441 242.14C405.461 242.78 404.201 243.16 402.821 243.16C399.421 243.16 396.981 240.94 396.981 237.84C396.981 234.94 399.081 232.84 402.001 232.84ZM398.941 237.12H405.221C405.041 235.56 403.801 234.58 402.141 234.58C400.481 234.58 399.241 235.62 398.941 237.12ZM422.698 242.12C421.758 242.78 420.578 243.16 419.318 243.16C416.198 243.16 413.738 240.9 413.738 238C413.738 235.12 416.198 232.84 419.318 232.84C420.578 232.84 421.758 233.22 422.698 233.88L421.978 235.54C421.338 235.02 420.458 234.68 419.478 234.68C417.398 234.68 415.758 236.14 415.758 237.98C415.758 239.86 417.398 241.3 419.478 241.3C420.458 241.3 421.338 240.98 421.978 240.46L422.698 242.12ZM432.15 243V234.78H428.07V235.14C428.07 241.36 427.43 243.16 425.23 243.16C424.67 243.16 424.11 243.06 423.81 242.92V240.98C424.09 241.06 424.47 241.14 424.77 241.14C425.85 241.14 426.11 240.02 426.11 235.14V233H434.17V243H432.15ZM437.053 243V233H439.093V240.06L444.633 233H446.653V243H444.633V235.9L439.093 243H437.053ZM452.534 234.58C451.354 234.58 450.094 235 449.474 235.62L448.794 234.08C449.694 233.32 451.174 232.84 452.674 232.84C455.054 232.84 456.734 234.02 456.734 235.7C456.734 236.56 456.274 237.36 455.554 237.86C456.414 238.38 456.974 239.24 456.974 240.22C456.974 241.94 455.214 243.16 452.694 243.16C451.134 243.16 449.594 242.68 448.654 241.9L449.334 240.38C449.994 241 451.414 241.42 452.634 241.42C454.074 241.42 455.074 240.84 455.074 240.02C455.074 239.28 454.334 238.7 453.394 238.7H451.234V237.14H453.254C454.114 237.14 454.834 236.54 454.834 235.88C454.834 235.12 453.874 234.58 452.534 234.58ZM459.163 243V233H461.203V240.06L466.743 233H468.763V243H466.743V235.9L461.203 243H459.163ZM480.003 242.12C479.063 242.78 477.883 243.16 476.623 243.16C473.503 243.16 471.043 240.9 471.043 238C471.043 235.12 473.503 232.84 476.623 232.84C477.883 232.84 479.063 233.22 480.003 233.88L479.283 235.54C478.643 235.02 477.763 234.68 476.783 234.68C474.703 234.68 473.063 236.14 473.063 237.98C473.063 239.86 474.703 241.3 476.783 241.3C477.763 241.3 478.643 240.98 479.283 240.46L480.003 242.12ZM484.835 243V234.78H480.895V233H490.795V234.78H486.855V243H484.835ZM491.668 238C491.668 235.12 493.948 232.84 496.888 232.84C499.808 232.84 502.088 235.12 502.088 238C502.088 240.9 499.808 243.16 496.888 243.16C493.948 243.16 491.668 240.9 491.668 238ZM493.688 238C493.688 239.82 495.088 241.26 496.888 241.26C498.668 241.26 500.068 239.82 500.068 238C500.068 236.18 498.668 234.74 496.888 234.74C495.088 234.74 493.688 236.18 493.688 238ZM505.818 228.78H507.518C507.518 229.7 508.238 230.42 509.198 230.42C510.118 230.42 510.838 229.7 510.838 228.78H512.558C512.558 230.56 511.098 231.94 509.198 231.94C507.278 231.94 505.818 230.56 505.818 228.78ZM504.378 243V233H506.418V240.08L511.958 233H513.978V243H511.958V235.92L506.418 243H504.378ZM287.84 261C287.84 258.12 290.12 255.84 293.06 255.84C295.98 255.84 298.26 258.12 298.26 261C298.26 263.9 295.98 266.16 293.06 266.16C290.12 266.16 287.84 263.9 287.84 261ZM289.86 261C289.86 262.82 291.26 264.26 293.06 264.26C294.84 264.26 296.24 262.82 296.24 261C296.24 259.18 294.84 257.74 293.06 257.74C291.26 257.74 289.86 259.18 289.86 261ZM309.229 250.84V252.84L305.009 253.48C302.929 253.8 301.949 255.2 301.889 258.36C302.649 256.82 304.129 255.84 305.889 255.84C308.529 255.84 310.549 258.04 310.549 260.94C310.549 263.96 308.429 266.16 305.469 266.16C302.089 266.16 300.129 263.42 300.129 258.48C300.129 254.38 301.549 252.06 304.449 251.6L309.229 250.84ZM302.509 260.96C302.509 262.84 303.789 264.26 305.509 264.26C307.209 264.26 308.509 262.84 308.509 260.98C308.509 259.14 307.209 257.74 305.489 257.74C303.769 257.74 302.509 259.1 302.509 260.96ZM312.215 261C312.215 258.12 314.495 255.84 317.435 255.84C320.355 255.84 322.635 258.12 322.635 261C322.635 263.9 320.355 266.16 317.435 266.16C314.495 266.16 312.215 263.9 312.215 261ZM314.235 261C314.235 262.82 315.635 264.26 317.435 264.26C319.215 264.26 320.615 262.82 320.615 261C320.615 259.18 319.215 257.74 317.435 257.74C315.635 257.74 314.235 259.18 314.235 261ZM332.072 266V257.78H327.992V258.14C327.992 264.36 327.352 266.16 325.152 266.16C324.592 266.16 324.032 266.06 323.732 265.92V263.98C324.012 264.06 324.392 264.14 324.692 264.14C325.772 264.14 326.032 263.02 326.032 258.14V256H334.092V266H332.072ZM336.375 261C336.375 258.12 338.655 255.84 341.595 255.84C344.515 255.84 346.795 258.12 346.795 261C346.795 263.9 344.515 266.16 341.595 266.16C338.655 266.16 336.375 263.9 336.375 261ZM338.395 261C338.395 262.82 339.795 264.26 341.595 264.26C343.375 264.26 344.775 262.82 344.775 261C344.775 259.18 343.375 257.74 341.595 257.74C339.795 257.74 338.395 259.18 338.395 261ZM348.469 259.2V256H350.509V258.96C350.509 260.16 351.449 260.86 352.929 260.86C353.729 260.86 354.629 260.66 355.249 260.52V256H357.269V266H355.249V262.34C354.589 262.48 353.589 262.64 352.689 262.64C350.169 262.64 348.469 261.32 348.469 259.2ZM360.178 266V256H362.218V260H364.418L367.338 256H369.678L365.978 260.9L370.078 266H367.678L364.418 261.8H362.218V266H360.178ZM371.858 266V256H373.898V263.06L379.438 256H381.458V266H379.438V258.9L373.898 266H371.858ZM389.514 266V256H396.574V257.78H391.554V266H389.514ZM397.508 261C397.508 258.12 399.788 255.84 402.728 255.84C405.648 255.84 407.928 258.12 407.928 261C407.928 263.9 405.648 266.16 402.728 266.16C399.788 266.16 397.508 263.9 397.508 261ZM399.528 261C399.528 262.82 400.928 264.26 402.728 264.26C404.508 264.26 405.908 262.82 405.908 261C405.908 259.18 404.508 257.74 402.728 257.74C400.928 257.74 399.528 259.18 399.528 261ZM420.757 261C420.757 263.88 418.617 266.16 415.897 266.16C414.477 266.16 413.237 265.54 412.357 264.56V270.6H410.317V261C410.317 259.06 410.237 257.96 409.917 256H411.957C412.037 256.62 412.117 257.14 412.177 257.64C413.057 256.54 414.397 255.84 415.897 255.84C418.617 255.84 420.757 258.1 420.757 261ZM418.737 261C418.737 259.18 417.337 257.74 415.537 257.74C413.757 257.74 412.357 259.18 412.357 261C412.357 262.82 413.757 264.26 415.537 264.26C417.337 264.26 418.737 262.82 418.737 261ZM425.558 266V257.78H421.618V256H431.518V257.78H427.578V266H425.558ZM436.948 255.84C439.748 255.84 441.468 257.24 441.468 259.48V261C441.468 262.94 441.568 264.04 441.868 266H439.928C439.848 265.58 439.808 265.18 439.748 264.82C438.988 265.66 437.768 266.16 436.248 266.16C434.028 266.16 432.728 265.06 432.728 263.2C432.728 261.32 434.008 260.3 436.928 260L439.528 259.72V259.6C439.528 258.34 438.448 257.58 436.748 257.58C435.628 257.58 434.648 257.9 434.008 258.4L433.348 256.88C434.268 256.22 435.488 255.84 436.948 255.84ZM439.528 261.28L436.848 261.56C435.348 261.72 434.668 262.18 434.668 263.02C434.668 263.92 435.488 264.48 436.888 264.48C438.548 264.48 439.528 263.66 439.528 262.24V261.28ZM444.417 266V256H446.457V260.02H451.777V256H453.797V266H451.777V261.82H446.457V266H444.417ZM456.682 266V256H458.722V263.06L464.262 256H466.282V266H464.262V258.9L458.722 266H456.682Z" fill="#58595B"/>
<path d="M121 157L276 243" stroke="#828282" stroke-width="1.15625"/>
<defs>
<radialGradient id="paint0_radial_2837_530" cx="0" cy="0" r="1" gradientUnits="userSpaceOnUse" gradientTransform="translate(318.11 79.1828) scale(44.1661 44.2386)">
<stop stop-color="#FF0000"/>
<stop offset="0.9975" stop-color="#FF716A"/>
</radialGradient>
</defs>
</svg>
