<svg width="485" height="362" viewBox="0 0 485 362" fill="none" xmlns="http://www.w3.org/2000/svg">
<path d="M237.532 116.619C237.458 113.768 237.089 110.917 236.365 108.14C224.636 63.0428 202.671 29.0095 173.069 12.7313C166.127 8.09312 146.835 0.0722711 131.916 1.35738C127.175 1.77098 122.551 4.37072 118.652 4.37072C114.752 4.37072 109.995 1.71187 105.18 1.32781C90.2904 0.131328 71.1614 8.10793 64.2484 12.7166C34.9714 28.8175 13.1836 62.2747 1.35171 106.633C0.406342 110.208 -0.0663487 113.901 0.00750838 117.594L0.982427 169.752C0.982427 169.752 -3.44899 337.865 119.346 337.865C241.668 337.865 239.024 171.687 239.024 171.687L239.009 169.752L237.532 116.619Z" fill="#FFF5F5"/>
<path d="M199.215 102.808L203.322 107.712C203.573 112.055 206.04 115.452 210.574 115.186L224.977 114.344L225.863 113.931C209.703 78.7746 178.476 35.583 122.566 35.583C65.9623 35.583 34.1742 79.853 17.8223 115.245L17.8518 115.26H35.5923C40.1419 115.26 42.4019 111.73 42.4019 107.372L45.5926 102.793C45.5926 102.793 59.8322 81.8619 78.5476 72.0832C97.4255 62.2159 121.916 60.6058 121.916 60.6058C121.916 60.6058 147.382 62.2159 166.26 72.0832C184.976 81.8767 199.215 102.808 199.215 102.808Z" fill="white"/>
<path d="M144.546 275.397C144.546 275.397 144.398 277.362 139.937 278.588C135.476 279.814 129.139 280.626 123.999 278.691L120.07 277.155V277.421L116.392 278.573C111.281 280.582 105.594 280.612 100.453 278.677L95.815 276.845V277.14C95.815 277.14 95.8741 279.371 87.2328 281.217C78.5472 283.064 71.2649 277.967 71.2649 277.967L68.3993 277.155C35.6953 256.948 17.7481 219.576 8.88525 194.391L10.1704 194.716H27.3938C31.9434 194.716 34.2034 198.246 34.2034 202.604L38.5462 213.786L38.2213 213.343C39.3587 214.775 39.92 216.74 39.92 218.911L49.3885 231.777C55.1641 235.81 66.4938 252.989 74.2045 254.215C87.5283 256.357 120.173 257.805 120.173 257.805H120.454C120.454 257.805 153.099 256.357 166.422 254.215C174.133 252.974 187.147 234.126 192.922 230.093L200.722 218.911C200.722 216.74 201.283 214.761 202.42 213.343L202.095 213.786L204.872 202.604C204.872 198.246 207.132 194.716 211.682 194.716H230.53L233.44 192.426C225.375 217.597 207.856 256.431 172.892 277.17L169.066 276.919C169.066 276.919 164.281 280.242 156.422 279.843C148.549 279.445 144.221 276.077 144.221 276.077" fill="white"/>
<path d="M113.821 279.34C110.852 279.34 110.261 274.835 112.004 274.924C113.688 274.894 115.564 279.34 113.821 279.34Z" fill="#F2DAA5"/>
<path d="M135.654 279.119C132.271 279.119 135.196 273.802 136.939 273.89C138.608 273.861 139.745 279.119 135.654 279.119Z" fill="#F2DAA5"/>
<path d="M128.533 279.12C126.864 279.134 126.746 275.25 128.489 275.294C130.158 275.279 130.276 279.164 128.533 279.12Z" fill="#F2DAA5"/>
<path d="M87.8382 279.119C86.169 279.134 85.3714 275.736 87.1144 275.781C88.7836 275.766 89.5812 279.163 87.8382 279.119Z" fill="#F2DAA5"/>
<path d="M152.02 268.794C150.351 268.809 151.06 265.234 152.803 265.278C154.472 265.263 153.763 268.838 152.02 268.794Z" fill="#F2DAA5"/>
<path d="M154.62 277.672C152.95 277.687 153.63 274.393 155.373 274.437C157.042 274.422 156.363 277.716 154.62 277.672Z" fill="#F2DAA5"/>
<path d="M100.778 274.924C99.1087 274.939 98.0304 271.261 99.7734 271.305C101.457 271.29 102.521 274.968 100.778 274.924Z" fill="#F2DAA5"/>
<path d="M169.643 278.366C155.89 285.604 138.49 290.287 119.243 290.287C101.251 290.287 85.8444 285.811 72.6831 278.573L76.8634 277.835C82.0038 279.77 87.6909 279.725 92.8018 277.731L96.4651 276.003L101.103 277.835C106.244 279.77 111.931 279.725 117.042 277.731L120.72 276.298L124.649 277.835C129.789 279.77 136.126 278.957 140.587 277.731C145.048 276.505 145.196 274.541 145.196 274.541L149.199 276.505C154.339 278.44 160.026 278.396 165.137 276.402L169.643 278.366Z" fill="#D85252" stroke="#EF6250" stroke-miterlimit="10" stroke-linecap="round" stroke-linejoin="round"/>
<path d="M90.9844 283.92C91.3684 283.713 91.7525 283.521 92.1218 283.315C93.3035 282.694 94.5148 282.059 95.8147 281.734C98.6803 281.01 101.354 281.705 104.042 282.709C106.76 283.713 109.685 284.526 112.595 283.994C114.663 283.625 116.568 282.591 118.651 282.251C120.055 282.015 121.517 282.133 122.876 282.546C124.22 282.96 125.372 283.802 126.746 284.127C128.799 284.615 130.926 284.053 132.847 283.344C134.161 282.857 135.446 282.31 136.761 281.823C137.736 281.453 138.859 280.863 139.878 280.7C142.522 280.286 145.535 280.863 148.002 281.793C149.287 282.281 150.528 282.916 151.857 283.27C153.187 283.625 154.664 283.684 155.875 283.034" stroke="#EF6250" stroke-width="0.5" stroke-miterlimit="10" stroke-linecap="round" stroke-linejoin="round"/>
<path d="M108.252 287.687C109.685 287.953 111.148 288.012 112.595 287.746C114.663 287.377 116.569 286.343 118.652 286.003C120.055 285.766 121.517 285.885 122.876 286.298C124.22 286.712 125.372 287.554 126.746 287.879C128.799 288.366 130.927 287.805 132.847 287.096" stroke="#EF6250" stroke-width="0.5" stroke-miterlimit="10" stroke-linecap="round" stroke-linejoin="round"/>
<path d="M203.07 212.101C192.789 192.544 174.827 168.939 147.161 169.648C137.707 169.884 128.549 172.469 119.065 172.514H120.823C111.355 172.469 102.182 169.884 92.7278 169.648C65.061 168.939 48.0148 192.544 37.7339 212.101" stroke="black" stroke-miterlimit="10" stroke-linecap="round" stroke-linejoin="round"/>
<path d="M76.9369 169.648C75.6813 165.482 75.0166 161.051 75.0166 156.472C75.0166 131.183 95.5193 110.68 120.808 110.68C146.097 110.68 166.599 131.183 166.599 156.472C166.599 161.907 165.654 167.107 163.911 171.952" stroke="black" stroke-miterlimit="10" stroke-linecap="round" stroke-linejoin="round"/>
<path d="M201.888 151.937C201.888 151.937 186.393 121.936 182.819 147.55C181.208 159.071 185.625 166.797 188.904 172.144C216.364 216.872 207.812 171.45 207.812 171.45H208.063C208.063 171.45 190.337 81.0635 120.941 81.0635C51.545 81.0635 32.8591 171.45 32.8591 171.45C32.8591 171.45 24.3065 216.857 51.7665 172.144C55.0458 166.797 59.4624 159.086 57.8524 147.55C54.2777 121.921 38.7825 151.937 38.7825 151.937" stroke="black" stroke-miterlimit="10" stroke-linecap="round" stroke-linejoin="round"/>
<path d="M170.529 349.829C154.945 357.466 137.84 361.129 120.823 360.996C103.792 361.129 86.701 357.466 71.1172 349.829" stroke="black" stroke-miterlimit="10" stroke-linecap="round" stroke-linejoin="round"/>
<path d="M224.961 212.026H207.855C203.306 212.026 201.046 215.557 201.046 219.914L193.247 231.096" stroke="black" stroke-miterlimit="10" stroke-linecap="round" stroke-linejoin="round"/>
<path d="M230.855 195.705H212.007C207.457 195.705 205.197 199.235 205.197 203.593L202.42 214.774" stroke="black" stroke-miterlimit="10" stroke-linecap="round" stroke-linejoin="round"/>
<path d="M17.3042 212.026H33.4051C37.9547 212.026 40.2147 215.557 40.2147 219.914L49.6832 232.78" stroke="black" stroke-miterlimit="10" stroke-linecap="round" stroke-linejoin="round"/>
<path d="M10.4653 195.705H27.6888C32.2384 195.705 34.4985 199.235 34.4985 203.593L38.8413 214.774" stroke="black" stroke-miterlimit="10" stroke-linecap="round" stroke-linejoin="round"/>
<path d="M26.7583 231.333C26.7583 231.333 46.4338 230.506 49.6983 232.766C55.4739 236.798 66.8036 253.977 74.5143 255.203C87.8381 257.345 120.483 258.793 120.483 258.793" stroke="black" stroke-miterlimit="10" stroke-linecap="round" stroke-linejoin="round"/>
<path d="M215.02 231.334C215.02 231.334 196.481 228.822 193.232 231.097C187.456 235.13 174.443 253.978 166.732 255.219C153.408 257.361 120.763 258.808 120.763 258.808" stroke="black" stroke-miterlimit="10" stroke-linecap="round" stroke-linejoin="round"/>
<path d="M121.177 259.399V275.559" stroke="black" stroke-miterlimit="10" stroke-linecap="round" stroke-linejoin="round"/>
<path d="M96.9229 257.435V276.017" stroke="black" stroke-miterlimit="10" stroke-linecap="round" stroke-linejoin="round"/>
<path d="M72.3721 254.716V279.503" stroke="black" stroke-miterlimit="10" stroke-linecap="round" stroke-linejoin="round"/>
<path d="M55.1198 238.024L52.1212 242.072C50.5554 244.184 49.6987 246.754 49.6987 249.398L51.7815 264.362" stroke="black" stroke-miterlimit="10" stroke-linecap="round" stroke-linejoin="round"/>
<path d="M145.653 257.435V274.54" stroke="black" stroke-miterlimit="10" stroke-linecap="round" stroke-linejoin="round"/>
<path d="M170.218 254.716V278.365" stroke="black" stroke-miterlimit="10" stroke-linecap="round" stroke-linejoin="round"/>
<path d="M186.112 238.586C194.591 247.345 189.436 256.371 187.811 266.563" stroke="black" stroke-miterlimit="10" stroke-linecap="round" stroke-linejoin="round"/>
<path d="M238.241 112.113C226.793 64.948 204.4 29.3046 173.897 12.5243C166.954 7.88609 147.663 -0.134804 132.744 1.15031C128.002 1.56391 123.379 4.16369 119.479 4.16369C115.579 4.16369 110.823 1.50484 106.007 1.12078C91.1178 -0.0757026 71.9888 7.90085 65.0757 12.5095C34.5728 29.2899 12.1793 64.9185 0.731445 112.098" stroke="black" stroke-miterlimit="10" stroke-linecap="round" stroke-linejoin="round"/>
<path d="M2.85791 158.569C2.85791 158.569 28.25 35.7744 122.536 35.7744C216.822 35.7744 240.899 158.569 240.899 158.569" stroke="black" stroke-miterlimit="10" stroke-linecap="round" stroke-linejoin="round"/>
<path d="M199.186 102.985C199.186 102.985 184.946 82.0539 166.231 72.2752C147.353 62.4079 121.887 60.7979 121.887 60.7979C121.887 60.7979 97.4107 62.4079 78.518 72.2752C59.8026 82.0539 45.563 102.985 45.563 102.985" stroke="black" stroke-miterlimit="10" stroke-linecap="round" stroke-linejoin="round"/>
<path d="M121.886 60.7825V35.7598" stroke="black" stroke-miterlimit="10" stroke-linecap="round" stroke-linejoin="round"/>
<path d="M146.141 64.7269V38.5225" stroke="black" stroke-miterlimit="10" stroke-linecap="round" stroke-linejoin="round"/>
<path d="M170.691 74.859V48.3296" stroke="black" stroke-miterlimit="10" stroke-linecap="round" stroke-linejoin="round"/>
<path d="M193.365 94.5646V65.9819" stroke="black" stroke-miterlimit="10" stroke-linecap="round" stroke-linejoin="round"/>
<path d="M97.4102 63.9879V39.6299" stroke="black" stroke-miterlimit="10" stroke-linecap="round" stroke-linejoin="round"/>
<path d="M72.8452 75.643V49.7783" stroke="black" stroke-miterlimit="10" stroke-linecap="round" stroke-linejoin="round"/>
<path d="M54.1298 91.4482C51.4561 88.5677 48.812 86.3225 49.5654 82.4672L49.6983 68.8774" stroke="black" stroke-miterlimit="10" stroke-linecap="round" stroke-linejoin="round"/>
<path d="M17.8218 115.437H35.5623C40.1119 115.437 42.3719 111.906 42.3719 107.549L45.5625 102.97" stroke="black" stroke-miterlimit="10" stroke-linecap="round" stroke-linejoin="round"/>
<path d="M224.962 114.52L210.559 115.362C206.025 115.628 203.558 112.231 203.307 107.888L199.2 102.984" stroke="black" stroke-miterlimit="10" stroke-linecap="round" stroke-linejoin="round"/>
<path d="M28.4277 95.8506L28.7084 98.0515C29.0629 100.858 31.4559 102.97 34.292 102.97H45.5626" stroke="black" stroke-miterlimit="10" stroke-linecap="round" stroke-linejoin="round"/>
<path d="M215.02 95.8506L214.739 98.0515C214.385 100.858 211.992 102.97 209.156 102.97H199.185" stroke="black" stroke-miterlimit="10" stroke-linecap="round" stroke-linejoin="round"/>
<path d="M45.2203 307.924L45.2205 307.924C64.4899 327.549 89.407 337.5 119.352 337.5C149.326 337.5 174.377 327.563 193.808 307.966L193.808 307.966C218.15 283.439 229.275 247.879 234.329 222.327C239.695 195.207 239.506 173.345 239.497 172.388C239.497 172.375 239.497 172.365 239.497 172.36L239.497 172.356M45.2203 307.924L239.997 172.356H239.497M45.2203 307.924C34.4606 296.973 25.4173 282.918 18.3328 266.14C12.6856 252.752 8.26749 237.625 5.19887 221.151C0.115657 193.834 0.492328 171.753 0.514173 170.473C0.514545 170.451 0.514814 170.435 0.514952 170.425L0.514958 170.425C0.524347 169.95 0.89822 169.547 1.3897 169.5H1.38991H1.39014H1.39038H1.39061H1.39084H1.39108H1.39131H1.39154H1.39178H1.39201H1.39224H1.39247H1.3927H1.39293H1.39317H1.3934H1.39363H1.39386H1.39409H1.39432H1.39455H1.39478H1.39501H1.39524H1.39547H1.3957H1.39592H1.39615H1.39638H1.39661H1.39684H1.39707H1.39729H1.39752H1.39775H1.39798H1.3982H1.39843H1.39866H1.39888H1.39911H1.39933H1.39956H1.39979H1.40001H1.40024H1.40046H1.40069H1.40091H1.40114H1.40136H1.40159H1.40181H1.40204H1.40226H1.40248H1.40271H1.40293H1.40315H1.40338H1.4036H1.40382H1.40405H1.40427H1.40449H1.40472H1.40494H1.40516H1.40538H1.4056H1.40583H1.40605H1.40627H1.40649H1.40671H1.40693H1.40715H1.40738H1.4076H1.40782H1.40804H1.40826H1.40848H1.4087H1.40892H1.40914H1.40936H1.40958H1.4098H1.41002H1.41024H1.41046H1.41068H1.4109H1.41111H1.41133H1.41155H1.41177H1.41199H1.41221H1.41243H1.41265H1.41286H1.41308H1.4133H1.41352H1.41374H1.41395H1.41417H1.41439H1.41461H1.41483H1.41504H1.41526H1.41548H1.4157H1.41591H1.41613H1.41635H1.41656H1.41678H1.417H1.41722H1.41743H1.41765H1.41787H1.41808H1.4183H1.41852H1.41873H1.41895H1.41916H1.41938H1.4196H1.41981H1.42003H1.42025H1.42046H1.42068H1.42089H1.42111H1.42133H1.42154H1.42176H1.42197H1.42219H1.42241H1.42262H1.42284H1.42305H1.42327H1.42348H1.4237H1.42392H1.42413H1.42435H1.42456H1.42478H1.42499H1.42521H1.42542H1.42564H1.42586H1.42607H1.42629H1.4265H1.42672H1.42693H1.42715H1.42736H1.42758H1.42779H1.42801H1.42823H1.42844H1.42866H1.42887H1.42909H1.4293H1.42952H1.42973H1.42995H1.43017H1.43038H1.4306H1.43081H1.43103H1.43124H1.43146H1.43168H1.43189H1.43211H1.43232H1.43254H1.43275H1.43297H1.43319H1.4334H1.43362H1.43383H1.43405H1.43427H1.43448H1.4347H1.43492H1.43513H1.43535H1.43556H1.43578H1.436H1.43621H1.43643H1.43665H1.43686H1.43708H1.4373H1.43751H1.43773H1.43795H1.43817H1.43838H1.4386H1.43882H1.43904H1.43925H1.43947H1.43969H1.43991H1.44012H1.44034H1.44056H1.44078H1.441H1.44121H1.44143H1.44165H1.44187H1.44209H1.44231H1.44252H1.44274H1.44296H1.44318H1.4434H1.44362H1.44384H1.44406H1.44428H1.4445H1.44472H1.44494H1.44516H1.44538H1.4456H1.44582H1.44604H1.44626H1.44648H1.4467H1.44692H1.44714H1.44736H1.44758H1.44781H1.44803H1.44825H1.44847H1.44869H1.44891H1.44914H1.44936H1.44958H1.4498H1.45003H1.45025H1.45047H1.45069H1.45092H1.45114H1.45136H1.45159H1.45181H1.45204H1.45226H1.45248H1.45271H1.45293H1.45316H1.45338H1.45361H1.45383H1.45406H1.45428H1.45451H1.45474H1.45496H1.45519H1.45541H1.45564H1.45587H1.45609H1.45632H1.45655H1.45678H1.457H1.45723H1.45746H1.45769H1.45792H1.45814H1.45837H1.4586H1.45883H1.45906H1.45929H1.45952H1.45975H1.45998H1.46021H1.46044H1.46067H1.4609H1.46113H1.46136H1.46159H1.46182H1.46206H1.46229H1.46252H1.46275H1.46299H1.46322H1.46345H1.46369H1.46392H1.46415H1.46439H1.46462H1.46485H1.46509H1.46532H1.46556H1.46579H1.46603H1.46627H1.4665H1.46674H1.46697H1.46721H1.46745H1.46768H1.46792H1.46816H1.4684H1.46864H1.46887H1.46911H1.46935H1.46959H1.46983H1.47007H1.47031H1.47055H1.47079H1.47103H1.47127H1.47151H1.47175H1.472H1.47224H1.47248H1.47272H1.47296H1.47321H1.47345H1.47369H1.47394H1.47418H1.47443H1.47467H1.47492H1.47516H1.47541H1.47565H1.4759H1.47614H1.47639H1.47664H1.47689H1.47713H1.47738H1.47763H1.47788H1.47813H1.47837H1.47862H1.47887H1.47912H1.47937H1.47962H1.47987H1.48012H1.48038H1.48063H1.48088H1.48113H1.48138H1.48164H1.48189H1.48214H1.4824H1.48265H1.48291H1.48316H1.48342H1.48367H1.48393H1.48418H1.48444H1.4847H1.48495H1.48521H1.48547H1.48573H1.48599C1.94317 169.5 2.35061 169.831 2.43656 170.277L2.43662 170.277C2.62007 171.292 8.63827 201.144 25.7208 230.643L26.1535 230.392L25.7208 230.643C35.8388 248.114 47.8257 262.062 61.35 272.048C78.1911 284.502 97.4912 290.811 118.69 290.811C141.366 290.811 161.723 284.507 179.17 272.068C193.168 262.096 205.334 248.175 215.366 230.714L214.933 230.465C232.025 200.71 237.011 170.532 237.055 170.226L237.549 170.307C237.549 170.306 237.549 170.306 237.549 170.305C237.627 169.838 238.03 169.5 238.512 169.5H238.512H238.512H238.512H238.512H238.512H238.513H238.513H238.513H238.513H238.513H238.514H238.514H238.514H238.514H238.514H238.514H238.515H238.515H238.515H238.515H238.515H238.515H238.516H238.516H238.516H238.516H238.516H238.517H238.517H238.517H238.517H238.517H238.517H238.518H238.518H238.518H238.518H238.518H238.519H238.519H238.519H238.519H238.519H238.519H238.52H238.52H238.52H238.52H238.52H238.521H238.521H238.521H238.521H238.521H238.522H238.522H238.522H238.522H238.522H238.522H238.523H238.523H238.523H238.523H238.523H238.524H238.524H238.524H238.524H238.524H238.525H238.525H238.525H238.525H238.525H238.526H238.526H238.526H238.526H238.526H238.527H238.527H238.527H238.527H238.527H238.528H238.528H238.528H238.528H238.528H238.529H238.529H238.529H238.529H238.529H238.529H238.53H238.53H238.53H238.53H238.53H238.531H238.531H238.531H238.531H238.531H238.532H238.532H238.532H238.532H238.532H238.533H238.533H238.533H238.533H238.533H238.534H238.534H238.534H238.534H238.535H238.535H238.535H238.535H238.535H238.536H238.536H238.536H238.536H238.536H238.537H238.537H238.537H238.537H238.537H238.538H238.538H238.538H238.538H238.538H238.539H238.539H238.539H238.539H238.539H238.54H238.54H238.54H238.54H238.54H238.541H238.541H238.541H238.541H238.542H238.542H238.542H238.542H238.542H238.543H238.543H238.543H238.543H238.543H238.544H238.544H238.544H238.544H238.544H238.545H238.545H238.545H238.545H238.546H238.546H238.546H238.546H238.546H238.547H238.547H238.547H238.547H238.547H238.548H238.548H238.548H238.548H238.548H238.549H238.549H238.549H238.549H238.55H238.55H238.55H238.55H238.55H238.551H238.551H238.551H238.551H238.551H238.552H238.552H238.552H238.552H238.553H238.553H238.553H238.553H238.553H238.554H238.554H238.554H238.554H238.554H238.555H238.555H238.555H238.555H238.556H238.556H238.556H238.556H238.556H238.557H238.557H238.557H238.557H238.557H238.558H238.558H238.558H238.558H238.559H238.559H238.559H238.559H238.559H238.56H238.56H238.56H238.56H238.56H238.561H238.561H238.561H238.561H238.562H238.562H238.562H238.562H238.562H238.563H238.563H238.563H238.563H238.563H238.564H238.564H238.564H238.564H238.565H238.565H238.565H238.565H238.565H238.566H238.566H238.566H238.566H238.567H238.567H238.567H238.567H238.567H238.568H238.568H238.568H238.568H238.568H238.569H238.569H238.569H238.569H238.57H238.57H238.57H238.57H238.57H238.571H238.571H238.571H238.571H238.571H238.572H238.572H238.572H238.572H238.573H238.573H238.573H238.573H238.573H238.574H238.574H238.574H238.574H238.574H238.575H238.575H238.575H238.575H238.576H238.576H238.576H238.576H238.576H238.577H238.577H238.577H238.577H238.577H238.578H238.578H238.578H238.578H238.578H238.579H238.579H238.579H238.579H238.58H238.58H238.58H238.58H238.58H238.581H238.581H238.581H238.581H238.581H238.582H238.582H238.582H238.582H238.583H238.583H238.583H238.583H238.583H238.584H238.584H238.584H238.584H238.584H238.585H238.585H238.585H238.585H238.585H238.586H238.586H238.586H238.586H238.586H238.587H238.587H238.587H238.587H238.588H238.588H238.588H238.588H238.588H238.589H238.589H238.589H238.589H238.589H238.59H238.59H238.59H238.59H238.59H238.591H238.591H238.591H238.591H238.591H238.592H238.592H238.592H238.592H238.592H238.593H238.593H238.593H238.593H238.593H238.594C239.092 169.547 239.472 169.957 239.483 170.452M45.2203 307.924L239.483 170.452M239.497 172.356L239.483 170.454M239.497 172.356L239.483 170.454M239.483 170.454C239.483 170.454 239.483 170.453 239.483 170.452M239.483 170.454L239.483 170.452" fill="#FFF5F5" stroke="black"/>
<path d="M133.379 82.7028C129.331 82.0085 125.092 81.6245 120.631 81.6245C116.067 81.6245 111.739 82.0086 107.603 82.7472L107.632 82.9244C107.632 82.9244 113.777 88.2864 111.886 98.2128C109.996 108.139 105.21 115.481 107.632 122.778C110.468 131.286 120.483 131.286 120.483 131.286C120.483 131.286 130.498 131.286 133.334 122.778C135.772 115.481 130.971 108.139 129.08 98.2128C127.19 88.2864 133.334 82.9244 133.334 82.9244L133.379 82.7028Z" fill="#FFF5F5" stroke="black" stroke-miterlimit="10" stroke-linecap="round" stroke-linejoin="round"/>
<path d="M125.55 281.807L350.888 182.632C353.68 182.632 355.718 179.353 355.009 176.014L324.994 34.3565C324.226 30.7079 320.68 29.2013 318.273 31.5056L122.95 272.339C119.715 275.426 121.473 281.807 125.55 281.807Z" fill="#FFA6A6" fill-opacity="0.5"/>
<path d="M318.288 193.032C280.842 193.032 250.487 162.676 250.487 125.231V79.5132C250.487 42.0677 280.842 11.7124 318.288 11.7124C355.733 11.7124 386.088 42.0677 386.088 79.5132V125.231C386.088 162.676 355.733 193.032 318.288 193.032Z" fill="white"/>
<mask id="mask0_2837_532" style="mask-type:luminance" maskUnits="userSpaceOnUse" x="250" y="11" width="137" height="183">
<path d="M318.288 193.032C280.842 193.032 250.487 162.676 250.487 125.231V79.5132C250.487 42.0677 280.842 11.7124 318.288 11.7124C355.733 11.7124 386.088 42.0677 386.088 79.5132V125.231C386.088 162.676 355.733 193.032 318.288 193.032Z" fill="white"/>
</mask>
<g mask="url(#mask0_2837_532)">
<path d="M318.288 182.115C280.843 182.115 250.487 151.76 250.487 114.314V68.5967C250.487 31.1511 280.843 0.795898 318.288 0.795898C355.734 0.795898 386.089 31.1511 386.089 68.5967V114.314C386.089 151.76 355.734 182.115 318.288 182.115Z" fill="#D9FFFF" stroke="black" stroke-miterlimit="10"/>
<path d="M251.403 127.033C252.23 127.786 255.834 130.755 254.933 130.105C259.069 133.251 263.309 136.265 267.622 139.16C276.618 145.202 285.953 150.711 295.481 155.852C306.249 161.672 317.268 167.019 328.377 172.159H330.592C331.996 172.159 333.606 163.621 334.359 157.683C334.625 155.586 334.787 153.799 334.787 152.838V68.4493C326.323 66.2335 317.549 65.1996 308.864 64.1656C300.4 63.1611 292.526 63.2202 284.579 66.4551C277.061 69.5128 272.585 75.4509 266.868 81.0197C260.768 86.9431 250.856 87.2533 250.28 97.9626C250.059 102.01 250.28 106.131 250.28 110.193C250.28 115.437 250.28 120.696 250.28 125.94C250.664 126.324 251.019 126.693 251.403 127.033Z" fill="#FFD2D2" stroke="black" stroke-miterlimit="10"/>
<path d="M366.162 140.003C372.705 135.704 379.16 131.199 385.822 127.093V72.4531C385.822 67.1206 369.338 69.868 367.063 70.2521C365.778 70.4737 364.448 70.7691 363.414 71.5815C361.331 73.2211 359.795 76.4413 358.303 78.6127C354.005 84.861 345.91 93.0001 347.949 100.179C349.751 106.531 343.015 109.928 340.681 114.95C338.288 120.12 337.092 126.029 335.806 131.539C334.388 137.669 332.941 143.814 332.527 150.106C332.306 153.356 331.183 158.009 331.139 162.308C342.941 155.084 354.581 147.595 366.162 140.003Z" fill="#FF7B7B" stroke="#EF6250" stroke-width="2" stroke-miterlimit="10" stroke-linecap="round" stroke-linejoin="round"/>
<path d="M385.01 98.7016C384.744 98.3471 384.419 98.0369 384.035 97.771C380.313 95.1417 373.887 95.511 369.648 96.1609C364.167 97.0029 358.761 98.8493 356.767 104.714C355.541 108.318 354.743 112.764 352.232 115.733C351.006 117.195 350.489 118.983 350.74 120.741C351.257 124.389 349.16 122.439 348.377 125.453C348.14 126.383 347.505 129.16 345.585 131.317C343.665 133.459 343.679 133.636 342.793 135.409C341.774 137.432 339.484 141.878 338.539 144.596C337.461 147.713 334.92 148.983 332.143 147.506C326.294 144.39 324.846 119.751 323.118 112.35C322.01 107.579 321.094 105.349 319.321 105.437C316.677 105.585 316.16 109.957 315.466 112.823C314.772 115.674 311.729 139.16 310.34 143.592C308.937 148.023 306.854 148.452 304.757 147.876C302.659 147.3 298.996 144.596 296.721 138.451C294.446 132.307 290.266 106.737 289.734 100.297C289.217 93.8713 288.981 89.2626 283.619 87.431C279.97 86.1754 272.629 87.7117 266.159 93.827C259.704 99.9424 250.28 104.433 250.28 104.433V198.128C250.28 228.823 280.679 198.453 318.184 198.453C355.689 198.453 386.088 230.212 386.088 199.516C386.088 192.766 386.088 117.181 386.088 110.445C386.088 106.649 387.196 101.508 385.01 98.7016Z" fill="#EAEEDF" stroke="black" stroke-miterlimit="10"/>
<path d="M279.024 95.7766C283.057 98.1548 283.574 99.0559 283.943 104.211C284.312 109.366 283.662 111.508 282.569 112.173C281.476 112.852 278.743 113.207 278.108 111.523C277.473 109.839 279.748 104.994 278.389 104.049C277.015 103.088 274.903 102.409 274.194 100.843C273.499 99.2627 274.991 93.3984 279.024 95.7766Z" fill="#D8DBD1"/>
<path d="M277.739 135.083C280.841 136.767 285.494 133.207 286.07 131.139C286.661 129.071 285.981 127.712 283.588 127.195C281.195 126.678 281.195 126.678 280.368 124.876C279.541 123.074 278.64 120.09 276.912 119.514C275.183 118.938 272.805 118.952 272.2 120.385C271.594 121.818 271.638 124.802 272.451 127.845C273.263 130.888 274.637 133.384 277.739 135.083Z" fill="#D8DBD1"/>
<path d="M275.568 138.569C275.583 138.54 275.583 138.495 275.597 138.466C275.922 137.063 274.696 136.354 274.002 135.364C273.219 134.226 272.732 132.912 271.934 131.774C271.388 130.991 270.826 130.223 269.777 130.74C267.34 131.937 269.379 135.142 270.25 136.664C270.93 137.875 271.816 139.293 273.293 139.5C274.179 139.603 275.272 139.603 275.568 138.569Z" fill="#D8DBD1"/>
<path d="M315.776 145.467C315.805 145.482 315.835 145.497 315.879 145.497C317.223 145.91 317.977 144.699 318.996 144.049C320.148 143.311 321.463 142.897 322.615 142.158C323.413 141.641 324.181 141.11 323.752 140.002C322.748 137.432 319.513 139.322 317.977 140.105C316.765 140.726 315.333 141.538 315.037 143.045C314.875 143.975 314.816 145.098 315.776 145.467Z" fill="#D8DBD1"/>
<path d="M327.223 166.413C327.238 166.383 327.238 166.339 327.253 166.309C327.578 164.906 326.352 164.197 325.658 163.207C324.875 162.07 324.387 160.755 323.59 159.618C323.043 158.835 322.482 158.067 321.433 158.584C318.996 159.781 321.034 162.986 321.906 164.507C322.585 165.719 323.471 167.137 324.949 167.343C325.835 167.447 326.928 167.432 327.223 166.413Z" fill="#D8DBD1"/>
<path d="M272.554 113.783C273.101 110.784 270.472 108.569 269.881 105.851C269.452 103.886 268.994 101.597 266.542 101.759C262.894 101.981 259.437 108.273 262.717 111.833C263.691 112.897 264.622 114.034 265.671 115.024C266.72 116.013 268.463 116.575 269.881 116.471C270.989 116.383 272.274 115.024 272.525 113.931C272.525 113.886 272.54 113.842 272.554 113.783Z" fill="#D8DBD1"/>
<path d="M276.646 144.389C276.646 144.389 276.336 140.445 280.043 140.327C281.919 140.327 282.998 141.331 283.928 142.927C285.228 145.142 286.218 147.417 287.651 149.559C288.094 150.224 288.552 150.903 289.069 151.509C289.615 152.144 290.398 152.528 290.708 153.311C291.018 154.094 291.137 155.083 290.575 155.763C289.113 157.58 286.956 158.51 282.953 155.822C278.95 153.134 278.093 150.874 277.37 148.658C276.646 146.457 276.646 144.389 276.646 144.389Z" fill="#D8DBD1"/>
<path d="M375.762 112.246C375.762 112.246 377.978 109.691 380.194 111.907C381.272 113.059 381.287 114.329 380.858 115.865C380.267 118.007 379.44 119.987 378.968 122.158C378.82 122.838 378.672 123.517 378.613 124.211C378.539 124.92 378.761 125.644 378.465 126.309C378.17 126.959 377.638 127.638 376.9 127.712C374.95 127.904 373.133 127.136 372.453 123.044C371.774 118.953 372.645 117.062 373.576 115.289C374.507 113.487 375.762 112.246 375.762 112.246Z" fill="#D8DBD1"/>
<path d="M264.844 119.071C265.449 119.411 265.996 119.78 266.454 120.105C268.389 121.523 269.423 125.275 268.034 127.343C267.783 127.712 267.443 128.008 267.074 128.259C266.276 128.82 265.567 129.012 264.622 128.982C263.396 128.953 262.155 128.702 261.003 128.273C259.408 127.683 257.812 126.117 257.68 124.315C257.532 122.38 258.492 120.193 259.851 118.864C261.18 117.535 263.204 118.17 264.844 119.071Z" fill="#D8DBD1"/>
<path d="M270.93 146.324C271.122 146.088 271.373 145.911 271.683 145.792C273.367 145.172 274.238 147.831 274.593 149.027C274.962 150.253 275.169 151.849 273.574 152.115C272.569 152.277 271.491 151.583 270.989 150.711C270.368 149.633 270.029 147.432 270.93 146.324Z" fill="#D8DBD1"/>
<path d="M348.937 131.804C349.129 131.567 349.38 131.39 349.691 131.272C351.375 130.652 352.246 133.31 352.601 134.507C352.97 135.733 353.177 137.328 351.581 137.594C350.577 137.757 349.513 137.062 348.996 136.191C348.376 135.113 348.036 132.912 348.937 131.804Z" fill="#D8DBD1"/>
<path d="M369.809 128.17C368.642 124.551 365.053 125.969 365.053 125.969C365.053 125.969 363.133 126.56 361.271 127.904C360.341 128.583 359.395 129.307 358.524 130.444C358.036 129.484 357.313 128.672 356.308 129.041C355.998 129.159 355.747 129.337 355.555 129.573C354.654 130.681 354.994 132.882 355.629 133.96C355.821 134.285 356.087 134.58 356.397 134.817C356.338 135.024 356.264 135.23 356.205 135.437C354.846 140.164 356.338 142.025 358.435 142.941C359.233 143.296 360.119 142.897 360.754 142.365C361.39 141.833 361.537 140.947 361.966 140.238C362.379 139.544 362.881 138.908 363.369 138.288C364.949 136.264 366.796 134.654 368.495 132.734C369.721 131.36 370.341 130.016 369.809 128.17Z" fill="#D8DBD1"/>
<path d="M294.091 146.945C294.283 146.708 294.534 146.531 294.844 146.413C296.528 145.792 297.4 148.451 297.754 149.648C298.124 150.874 298.33 152.469 296.735 152.735C295.731 152.897 294.652 152.203 294.15 151.332C293.53 150.253 293.19 148.052 294.091 146.945Z" fill="#D8DBD1"/>
<path d="M342.969 151.538C343.161 151.302 343.413 151.125 343.723 151.007C345.407 150.386 346.278 153.045 346.633 154.242C347.002 155.468 347.209 157.063 345.614 157.329C344.609 157.491 343.546 156.797 343.029 155.925C342.408 154.832 342.054 152.646 342.969 151.538Z" fill="#D8DBD1"/>
<path d="M311.004 148.319C311.196 148.082 311.447 147.905 311.757 147.787C313.441 147.167 314.313 149.825 314.667 151.022C315.037 152.248 315.243 153.843 313.648 154.109C312.644 154.272 311.565 153.577 311.063 152.706C310.443 151.627 310.103 149.427 311.004 148.319Z" fill="#D8DBD1"/>
<path d="M357.815 120.238C358.007 120.002 358.258 119.824 358.568 119.706C360.252 119.086 361.123 121.745 361.478 122.941C361.847 124.167 362.054 125.762 360.459 126.028C359.454 126.191 358.376 125.497 357.874 124.625C357.239 123.547 356.899 121.346 357.815 120.238Z" fill="#D8DBD1"/>
<path d="M317.326 130.268C317.518 130.031 317.77 129.854 318.08 129.736C319.764 129.116 320.635 131.774 320.99 132.971C321.359 134.197 321.566 135.792 319.97 136.058C318.966 136.221 317.888 135.526 317.385 134.655C316.765 133.576 316.425 131.376 317.326 130.268Z" fill="#D8DBD1"/>
<path d="M317.326 121.213C317.518 120.977 317.77 120.799 318.08 120.681C319.764 120.061 320.635 122.72 320.99 123.916C321.359 125.142 321.566 126.737 319.97 127.003C318.966 127.166 317.888 126.472 317.385 125.6C316.765 124.507 316.425 122.321 317.326 121.213Z" fill="#D8DBD1"/>
<path d="M267.665 145.896C268.168 145.733 268.36 145.098 268.448 144.566C268.758 142.72 268.832 140.829 268.64 138.968C268.522 137.801 268.315 136.634 267.798 135.585C266.897 133.754 264.593 132.114 262.643 133.222C260.974 134.167 261.048 137.225 261.786 138.761C262.407 140.061 263.322 141.184 263.869 142.528C264.401 143.872 265.863 146.472 267.665 145.896Z" fill="#D8DBD1"/>
<path d="M376.131 132.35C375.57 131.981 374.832 132.291 374.241 132.646C372.232 133.827 370.385 135.29 368.746 136.974C367.726 138.022 366.781 139.189 366.205 140.548C365.171 142.927 365.452 146.531 368.066 147.58C370.297 148.481 373.148 145.925 374.034 143.946C374.772 142.277 375.112 140.46 375.954 138.835C376.781 137.225 378.111 133.665 376.131 132.35Z" fill="#D8DBD1"/>
<path d="M274.873 160.668C274.031 159.811 273.027 158.599 273.263 157.285C273.455 156.192 274.578 155.571 275.568 155.438C277.621 155.158 279.142 155.35 280.9 156.458C282.348 157.373 283.396 158.806 283.411 160.608C283.426 161.953 282.85 163.149 281.594 163.651C280.161 164.227 278.226 163.341 277.045 162.484C276.498 162.071 275.641 161.436 274.873 160.668Z" fill="#D8DBD1"/>
<path d="M306.721 161.908C306.854 161.494 306.928 161.051 306.928 160.593C306.913 158.791 305.864 157.358 304.417 156.443C302.659 155.335 301.137 155.157 299.084 155.423C298.094 155.556 296.987 156.177 296.78 157.27C296.558 158.511 297.43 159.648 298.242 160.49C297.961 160.771 297.769 161.11 297.696 161.524C297.459 162.839 298.464 164.05 299.306 164.907C300.074 165.675 300.916 166.325 301.462 166.709C302.644 167.565 304.579 168.452 306.012 167.876C307.282 167.373 307.844 166.177 307.829 164.833C307.814 163.71 307.4 162.72 306.721 161.908Z" fill="#D8DBD1"/>
<path d="M312.792 176.044C311.95 175.187 310.945 173.976 311.182 172.661C311.374 171.568 312.496 170.948 313.486 170.815C315.539 170.534 317.061 170.726 318.818 171.834C320.266 172.75 321.315 174.183 321.329 175.985C321.344 177.329 320.768 178.526 319.513 179.028C318.08 179.604 316.145 178.718 314.963 177.861C314.416 177.462 313.56 176.812 312.792 176.044Z" fill="#D8DBD1"/>
<path d="M344.61 173.385C343.339 174.153 341.655 174.966 340.651 174.079C339.809 173.341 339.957 171.598 340.459 170.209C341.493 167.344 342.586 165.394 344.639 163.518C346.338 161.967 348.243 161.184 349.824 161.937C351.02 162.499 351.715 163.769 351.375 165.674C350.991 167.846 349.011 170.047 347.534 171.258C346.855 171.834 345.762 172.706 344.61 173.385Z" fill="#D8DBD1"/>
<path d="M289.025 162.587C289.704 161.982 290.664 161.272 291.654 161.524C292.467 161.73 292.88 162.617 292.939 163.37C293.043 164.951 292.836 166.103 291.92 167.403C291.167 168.466 290.029 169.19 288.67 169.116C287.651 169.057 286.78 168.57 286.469 167.565C286.115 166.442 286.868 164.995 287.577 164.138C287.887 163.754 288.419 163.134 289.025 162.587Z" fill="#D8DBD1"/>
<path d="M299.468 171.613C300.339 171.879 301.432 172.322 301.757 173.312C302.023 174.124 301.536 174.966 300.93 175.424C299.689 176.384 298.641 176.813 297.09 176.724C295.804 176.65 294.608 176.059 293.929 174.848C293.426 173.932 293.352 172.913 294.002 172.1C294.726 171.185 296.307 171.066 297.4 171.199C297.902 171.244 298.685 171.362 299.468 171.613Z" fill="#D8DBD1"/>
<path d="M328.375 172.248C329.055 171.642 330.015 170.933 331.005 171.184C331.817 171.391 332.231 172.277 332.29 173.031C332.393 174.611 332.186 175.764 331.27 177.063C330.517 178.127 329.38 178.851 328.021 178.777C327.002 178.718 326.13 178.23 325.82 177.226C325.465 176.103 326.219 174.656 326.928 173.799C327.238 173.4 327.77 172.78 328.375 172.248Z" fill="#D8DBD1"/>
<path d="M354.181 143.399C354.107 142.734 353.649 141.951 352.748 141.759C351.67 141.523 350.621 142.129 349.883 142.646C349.572 142.853 349.292 143.089 349.041 143.296C349.055 142.956 349.055 142.601 349.026 142.232C348.967 141.464 348.568 140.592 347.741 140.386C346.766 140.135 345.806 140.844 345.111 141.449C344.491 141.996 343.959 142.616 343.649 143.015C342.94 143.872 342.187 145.319 342.541 146.442C342.851 147.432 343.738 147.934 344.742 147.993C345.702 148.052 346.53 147.698 347.209 147.121C347.623 147.89 348.509 148.303 349.558 148.362C351.05 148.451 352.276 147.83 353.088 146.915C354.107 145.777 354.329 144.773 354.181 143.399Z" fill="#D8DBD1"/>
<path d="M286.897 139.559C286.764 138.539 286.705 137.18 287.518 136.353C288.197 135.674 289.231 135.762 289.955 136.161C291.462 136.959 292.363 137.845 292.983 139.485C293.485 140.844 293.471 142.38 292.584 143.68C291.92 144.655 290.945 145.231 289.866 144.965C288.626 144.669 287.784 143.089 287.429 141.907C287.267 141.361 287.03 140.474 286.897 139.559Z" fill="#D8DBD1"/>
<path d="M355.141 149.456C356.53 148.112 358.539 146.428 361.094 146.044C363.206 145.719 364.669 146.62 365.186 147.624C366.264 149.707 366.323 151.45 364.698 153.902C363.369 155.926 360.946 157.772 357.549 158.673C355.008 159.353 352.6 159.338 351.301 158.215C349.838 156.945 350.99 154.404 352.29 152.706C352.896 151.908 353.886 150.652 355.141 149.456Z" fill="#D8DBD1"/>
<path d="M284.313 119.692C284.18 118.672 284.12 117.313 284.933 116.486C285.612 115.807 286.646 115.895 287.37 116.294C288.877 117.092 289.778 117.978 290.398 119.618C290.901 120.977 290.886 122.513 290 123.813C289.335 124.788 288.36 125.364 287.282 125.098C286.041 124.802 285.199 123.222 284.844 122.04C284.682 121.494 284.431 120.622 284.313 119.692Z" fill="#D8DBD1"/>
<path d="M366.043 106.604C365.91 105.585 365.851 104.226 366.663 103.398C367.343 102.719 368.377 102.807 369.1 103.206C370.607 104.004 371.508 104.89 372.129 106.53C372.631 107.889 372.616 109.425 371.73 110.725C371.065 111.7 370.09 112.276 369.012 112.01C367.771 111.715 366.929 110.134 366.575 108.952C366.397 108.406 366.161 107.534 366.043 106.604Z" fill="#D8DBD1"/>
<path d="M312.496 159.442C312.806 158.275 313.353 156.798 314.579 156.34C315.598 155.97 316.676 156.62 317.267 157.418C318.508 159.072 319.084 160.49 318.995 162.573C318.922 164.302 318.212 165.926 316.691 166.842C315.554 167.536 314.254 167.64 313.22 166.783C312.038 165.808 311.846 163.681 311.994 162.219C312.082 161.554 312.215 160.491 312.496 159.442Z" fill="#D8DBD1"/>
<path d="M327.696 152.868C327.341 151.671 326.47 149.027 324.786 149.633C324.579 149.707 324.402 149.825 324.239 149.958V149.943C323.619 148.289 322.718 147.417 321.211 146.619C320.488 146.235 319.439 146.132 318.774 146.812C317.962 147.639 318.021 148.983 318.154 150.017C318.272 150.933 318.523 151.819 318.685 152.366C319.04 153.562 319.882 155.143 321.123 155.423C322.216 155.674 323.176 155.098 323.841 154.138C323.855 154.123 323.855 154.109 323.87 154.094C323.944 154.256 324.018 154.419 324.092 154.552C324.594 155.408 325.658 156.118 326.677 155.955C328.272 155.689 328.065 154.094 327.696 152.868Z" fill="#D8DBD1"/>
<path d="M362.793 117.357C362.66 116.338 362.601 114.979 363.413 114.152C364.093 113.472 365.127 113.561 365.851 113.96C367.357 114.772 368.258 115.644 368.879 117.284C369.381 118.642 369.366 120.179 368.48 121.479C367.815 122.454 366.84 123.03 365.762 122.764C364.521 122.468 363.679 120.888 363.325 119.706C363.147 119.16 362.911 118.288 362.793 117.357Z" fill="#D8DBD1"/>
<path d="M332.91 160.593C332.777 159.574 332.718 158.215 333.531 157.388C334.21 156.709 335.244 156.797 335.968 157.196C337.475 157.994 338.376 158.88 338.996 160.52C339.498 161.878 339.484 163.415 338.597 164.715C337.933 165.69 336.958 166.266 335.879 166C334.639 165.704 333.797 164.124 333.442 162.942C333.28 162.395 333.028 161.509 332.91 160.593Z" fill="#D8DBD1"/>
<path d="M333.798 143.961C333.679 143.961 333.576 143.946 333.473 143.932C331.286 143.518 330.371 139.264 329.159 129.884L328.805 127.018C327.564 117.107 324.994 96.5007 321.936 89.8978C321.05 87.9923 320.075 86.9436 319.159 86.9436C318.494 86.9436 317.933 87.4458 317.667 87.756C315.082 90.5773 313.295 97.1949 312.364 107.432C312.276 108.421 312.172 109.706 312.054 111.198C310.547 130.829 308.73 143.001 304.402 143.001C304.269 143.001 304.122 142.986 303.989 142.957C300.222 142.262 295.362 124.035 295.362 105.629V102.926C295.362 85.5993 295.377 82.4826 292.083 72.6744C288.553 62.1276 285.008 50.207 287.725 42.2748L288.272 40.6795C290.458 34.2539 291.197 32.0973 294.683 30.7679C298.494 29.3203 301.433 28.6703 305.185 28.4635C309.587 28.2124 312.97 28.0942 316.16 28.0942C316.81 28.0942 317.446 28.0942 318.096 28.109C323.709 28.1976 329.366 28.6998 334.846 29.1725C335.422 29.2168 336.028 29.2612 336.648 29.2907C339.928 29.468 343.99 29.7043 346.117 32.6586C348.968 36.6469 353.266 42.6588 351.833 53.6783C351.095 59.3505 349.47 65.0375 347.889 70.5177C345.364 79.3362 342.749 88.465 343.798 97.7415C344.728 105.866 343.724 121.642 340.976 130.578C337.328 142.351 335.378 143.961 333.798 143.961Z" fill="white"/>
<path d="M316.146 28.818C316.781 28.818 317.416 28.818 318.051 28.8327C323.62 28.9214 329.189 29.4088 334.743 29.8962C338.303 30.2064 343.192 29.8815 345.482 33.0721C348.274 36.9718 352.469 42.8361 351.065 53.5749C349.145 68.3315 341.301 82.6007 343.03 97.8152C343.901 105.467 343.03 121.243 340.238 130.357C337.549 139.131 335.511 143.223 333.798 143.223C333.738 143.223 333.665 143.223 333.606 143.208C331.862 142.883 330.947 137.92 329.898 129.781C328.849 121.642 326.043 97.0176 322.601 89.5875C321.39 86.973 320.164 86.2049 319.144 86.2049C318.258 86.2049 317.519 86.7958 317.106 87.2537C314.89 89.6762 312.704 95.2302 311.611 107.358C310.902 115.26 309.558 142.248 304.388 142.248C304.299 142.248 304.196 142.233 304.107 142.218C301.3 141.701 296.071 125.467 296.071 105.615C296.071 85.7618 296.249 82.837 292.748 72.4232C289.262 62.0093 285.761 50.1331 288.39 42.4963C291.005 34.8447 291.492 32.7324 294.919 31.4325C298.494 30.0735 301.36 29.394 305.2 29.1725C308.849 28.9804 312.497 28.818 316.146 28.818ZM316.146 27.3408C312.94 27.3408 309.528 27.459 305.111 27.7101C301.286 27.9317 298.287 28.5964 294.387 30.0735C290.562 31.5211 289.734 33.9584 287.533 40.4431L286.987 42.0384C284.195 50.1922 287.77 62.2605 291.345 72.9106C294.594 82.6007 294.594 85.7027 294.579 102.926V105.629C294.579 123.636 299.247 142.839 303.812 143.681C303.989 143.71 304.181 143.725 304.358 143.725C309.307 143.725 311.123 132.321 312.748 111.257C312.866 109.765 312.97 108.465 313.058 107.476C314.196 94.9348 316.471 90.0898 318.169 88.2433C318.421 87.9627 318.805 87.6821 319.13 87.6821C319.587 87.6821 320.385 88.3468 321.242 90.208C324.24 96.6926 326.811 117.24 328.051 127.107C328.184 128.2 328.303 129.175 328.406 129.973C329.75 140.386 330.696 144.168 333.31 144.655C333.458 144.685 333.62 144.7 333.783 144.7C335.998 144.7 338.081 142.366 341.626 130.785C344.389 121.76 345.408 105.851 344.477 97.6528C343.429 88.524 346.028 79.4691 348.539 70.7245C350.12 65.2147 351.76 59.4982 352.498 53.7669C353.975 42.452 349.559 36.2923 346.649 32.2154C344.33 28.9657 340.061 28.7293 336.619 28.5373C335.998 28.5078 335.408 28.4634 334.832 28.4191C329.337 27.9316 323.664 27.4442 318.036 27.3556C317.431 27.3556 316.781 27.3408 316.146 27.3408Z" fill="black"/>
<path d="M298.937 36.8389C300.577 37.0014 314.639 43.4713 323.975 38.9365C337.047 32.5848 342.926 37.1934 342.926 37.1934" stroke="black" stroke-miterlimit="10" stroke-linecap="round" stroke-linejoin="round"/>
<path d="M344.271 63.1464C344.271 67.7551 343.059 74.3284 341.567 74.3284C340.076 74.3284 338.864 67.7551 338.864 63.1464C338.864 58.5377 340.076 57.6367 341.567 57.6367C343.059 57.6367 344.271 58.5377 344.271 63.1464Z" fill="#F2DAA5"/>
<path d="M336.146 53.3086C336.146 56.4992 335.541 61.0488 334.787 61.0488C334.034 61.0488 333.428 56.4992 333.428 53.3086C333.428 50.1179 334.034 49.4976 334.787 49.4976C335.541 49.4976 336.146 50.1179 336.146 53.3086Z" fill="#F2DAA5"/>
<path d="M346.974 52.7769C346.974 54.5938 346.368 57.1787 345.615 57.1787C344.862 57.1787 344.256 54.5938 344.256 52.7769C344.256 50.96 344.862 50.6055 345.615 50.6055C346.368 50.6055 346.974 50.96 346.974 52.7769Z" fill="#F2DAA5"/>
<path d="M334.787 78.8924C334.787 81.1229 333.576 84.3135 332.084 84.3135C330.592 84.3135 329.381 81.1229 329.381 78.8924C329.381 76.6619 330.592 76.2188 332.084 76.2188C333.576 76.2188 334.787 76.6619 334.787 78.8924Z" fill="#F2DAA5"/>
<path d="M338.85 91.3304C338.85 93.6643 338.244 96.9878 337.491 96.9878C336.737 96.9878 336.132 93.6643 336.132 91.3304C336.132 88.9965 336.737 88.5386 337.491 88.5386C338.244 88.5386 338.85 88.9965 338.85 91.3304Z" fill="#F2DAA5"/>
<path d="M342.912 45.6722C342.912 48.0061 342.306 51.3296 341.553 51.3296C340.799 51.3296 340.194 48.0061 340.194 45.6722C340.194 43.3383 340.799 42.8804 341.553 42.8804C342.306 42.8804 342.912 43.3383 342.912 45.6722Z" fill="#F2DAA5"/>
</g>
<path d="M318.288 193.032C280.842 193.032 250.487 162.676 250.487 125.231V79.5132C250.487 42.0677 280.842 11.7124 318.288 11.7124C355.733 11.7124 386.088 42.0677 386.088 79.5132V125.231C386.088 162.676 355.733 193.032 318.288 193.032Z" stroke="black" stroke-miterlimit="10"/>
<path d="M290.7 280V266H297.52C300.02 266 301.98 267.62 301.98 269.68C301.98 270.94 301.24 272.06 300.08 272.72C301.58 273.32 302.58 274.58 302.58 276.08C302.58 278.28 300.64 280 298.14 280H290.7ZM292.84 271.96H297.52C298.82 271.96 299.84 271.06 299.84 269.92C299.84 268.8 298.82 267.9 297.52 267.9H292.84V271.96ZM292.84 278.1H298.14C299.44 278.1 300.44 277.14 300.44 275.9C300.44 274.7 299.44 273.76 298.14 273.76H292.84V278.1ZM304.137 275C304.137 272.12 306.417 269.84 309.357 269.84C312.277 269.84 314.557 272.12 314.557 275C314.557 277.9 312.277 280.16 309.357 280.16C306.417 280.16 304.137 277.9 304.137 275ZM306.157 275C306.157 276.82 307.557 278.26 309.357 278.26C311.137 278.26 312.537 276.82 312.537 275C312.537 273.18 311.137 271.74 309.357 271.74C307.557 271.74 306.157 273.18 306.157 275ZM325.206 279.12C324.266 279.78 323.086 280.16 321.826 280.16C318.706 280.16 316.246 277.9 316.246 275C316.246 272.12 318.706 269.84 321.826 269.84C323.086 269.84 324.266 270.22 325.206 270.88L324.486 272.54C323.846 272.02 322.966 271.68 321.986 271.68C319.906 271.68 318.266 273.14 318.266 274.98C318.266 276.86 319.906 278.3 321.986 278.3C322.966 278.3 323.846 277.98 324.486 277.46L325.206 279.12ZM327.335 280V270H336.695V280H334.675V271.78H329.375V280H327.335ZM343.401 269.84C346.201 269.84 347.921 271.24 347.921 273.48V275C347.921 276.94 348.021 278.04 348.321 280H346.381C346.301 279.58 346.261 279.18 346.201 278.82C345.441 279.66 344.221 280.16 342.701 280.16C340.481 280.16 339.181 279.06 339.181 277.2C339.181 275.32 340.461 274.3 343.381 274L345.981 273.72V273.6C345.981 272.34 344.901 271.58 343.201 271.58C342.081 271.58 341.101 271.9 340.461 272.4L339.801 270.88C340.721 270.22 341.941 269.84 343.401 269.84ZM345.981 275.28L343.301 275.56C341.801 275.72 341.121 276.18 341.121 277.02C341.121 277.92 341.941 278.48 343.341 278.48C345.001 278.48 345.981 277.66 345.981 276.24V275.28ZM358.311 280V271.78H354.231V272.14C354.231 278.36 353.591 280.16 351.391 280.16C350.831 280.16 350.271 280.06 349.971 279.92V277.98C350.251 278.06 350.631 278.14 350.931 278.14C352.011 278.14 352.271 277.02 352.271 272.14V270H360.331V280H358.311ZM367.653 269.84C370.533 269.84 372.673 271.92 372.673 274.84C372.673 275.1 372.653 275.36 372.633 275.68H364.613C365.013 277.36 366.593 278.48 368.673 278.48C369.753 278.48 370.773 278.18 371.453 277.7L372.093 279.14C371.113 279.78 369.853 280.16 368.473 280.16C365.073 280.16 362.633 277.94 362.633 274.84C362.633 271.94 364.733 269.84 367.653 269.84ZM364.593 274.12H370.873C370.693 272.56 369.453 271.58 367.793 271.58C366.133 271.58 364.893 272.62 364.593 274.12ZM374.815 280V270H376.855V274.02H382.175V270H384.195V280H382.175V275.82H376.855V280H374.815ZM387.081 280V270H389.121V274.02H394.441V270H396.461V280H394.441V275.82H389.121V280H387.081ZM403.166 269.84C405.966 269.84 407.686 271.24 407.686 273.48V275C407.686 276.94 407.786 278.04 408.086 280H406.146C406.066 279.58 406.026 279.18 405.966 278.82C405.206 279.66 403.986 280.16 402.466 280.16C400.246 280.16 398.946 279.06 398.946 277.2C398.946 275.32 400.226 274.3 403.146 274L405.746 273.72V273.6C405.746 272.34 404.666 271.58 402.966 271.58C401.846 271.58 400.866 271.9 400.226 272.4L399.566 270.88C400.486 270.22 401.706 269.84 403.166 269.84ZM405.746 275.28L403.066 275.56C401.566 275.72 400.886 276.18 400.886 277.02C400.886 277.92 401.706 278.48 403.106 278.48C404.766 278.48 405.746 277.66 405.746 276.24V275.28ZM410.214 273.24C410.214 271.36 411.594 270 413.494 270H419.334V280H417.314V276.46L414.614 276.48L412.394 280H409.914L412.514 276.34C411.134 275.96 410.214 274.78 410.214 273.24ZM417.314 274.74V271.74H413.854C412.914 271.74 412.234 272.36 412.234 273.24C412.234 274.12 412.914 274.74 413.854 274.74H417.314ZM428.653 272.22V270H436.893V278.2H438.413V282.72L436.393 283.04V280H428.493V283.04L426.473 282.72V278.2H427.493C428.333 277.44 428.653 276 428.653 272.22ZM429.693 278.2H434.873V271.78H430.613V272.1C430.553 275.38 430.373 277.06 429.693 278.2ZM444.626 269.84C447.506 269.84 449.646 271.92 449.646 274.84C449.646 275.1 449.626 275.36 449.606 275.68H441.586C441.986 277.36 443.566 278.48 445.646 278.48C446.726 278.48 447.746 278.18 448.426 277.7L449.066 279.14C448.086 279.78 446.826 280.16 445.446 280.16C442.046 280.16 439.606 277.94 439.606 274.84C439.606 271.94 441.706 269.84 444.626 269.84ZM441.566 274.12H447.846C447.666 272.56 446.426 271.58 444.766 271.58C443.106 271.58 441.866 272.62 441.566 274.12ZM459.952 279.12C459.012 279.78 457.832 280.16 456.572 280.16C453.452 280.16 450.992 277.9 450.992 275C450.992 272.12 453.452 269.84 456.572 269.84C457.832 269.84 459.012 270.22 459.952 270.88L459.232 272.54C458.592 272.02 457.712 271.68 456.732 271.68C454.652 271.68 453.012 273.14 453.012 274.98C453.012 276.86 454.652 278.3 456.732 278.3C457.712 278.3 458.592 277.98 459.232 277.46L459.952 279.12ZM462.081 280V270H464.121V274.02H469.441V270H471.461V280H469.441V275.82H464.121V280H462.081ZM478.166 269.84C480.966 269.84 482.686 271.24 482.686 273.48V275C482.686 276.94 482.786 278.04 483.086 280H481.146C481.066 279.58 481.026 279.18 480.966 278.82C480.206 279.66 478.986 280.16 477.466 280.16C475.246 280.16 473.946 279.06 473.946 277.2C473.946 275.32 475.226 274.3 478.146 274L480.746 273.72V273.6C480.746 272.34 479.666 271.58 477.966 271.58C476.846 271.58 475.866 271.9 475.226 272.4L474.566 270.88C475.486 270.22 476.706 269.84 478.166 269.84ZM480.746 275.28L478.066 275.56C476.566 275.72 475.886 276.18 475.886 277.02C475.886 277.92 476.706 278.48 478.106 278.48C479.766 278.48 480.746 277.66 480.746 276.24V275.28Z" fill="#58595B"/>
<path d="M275 280H144" stroke="#828282" stroke-width="1.15625"/>
</svg>
