<svg width="507" height="361" viewBox="0 0 507 361" fill="none" xmlns="http://www.w3.org/2000/svg">
<path d="M236.643 119.175C236.466 112.906 235.481 106.667 233.759 100.634C221.737 58.6382 200.504 26.972 172.31 11.4773C165.394 6.85688 146.177 -1.13324 131.315 0.146945C126.591 0.558959 121.986 3.14876 118.101 3.14876C114.216 3.14876 109.478 0.5001 104.681 0.117515C89.8484 -1.05967 70.7928 6.88631 63.9063 11.4773C36.0659 26.7954 15.0091 57.873 2.91352 99.1038C0.824019 106.226 -0.132442 113.642 0.0147061 121.073L0.882878 167.895C0.882878 167.895 -3.53155 335.364 118.792 335.364C240.645 335.364 238.012 169.823 238.012 169.823L237.997 167.895L236.643 119.175Z" fill="#FFF5F5"/>
<path d="M198.37 101.326L202.461 106.211C202.711 110.537 205.168 113.922 209.686 113.657L224.033 112.818L224.915 112.406C208.818 77.3849 177.71 34.3589 122.015 34.3589C65.628 34.3589 33.9618 78.4591 17.6725 113.716L17.702 113.73H35.3744C39.9066 113.73 42.1579 110.214 42.1579 105.873L45.3363 101.311C45.3363 101.311 59.5214 80.4603 78.165 70.7191C96.9705 60.8896 121.368 59.2857 121.368 59.2857C121.368 59.2857 146.736 60.8896 165.541 70.7191C184.185 80.475 198.37 101.326 198.37 101.326Z" fill="white"/>
<path d="M133.419 279.904C125.237 280.625 120.588 277.962 120.588 277.962L116.011 279.154C110.552 280.184 105.108 279.948 99.9869 278.021L95.3664 276.196V276.49C95.3664 276.49 95.4253 278.712 86.8171 280.552C78.1648 282.391 70.9105 277.314 70.9105 277.314L68.0558 276.505C35.4773 256.375 17.5988 219.147 8.76996 194.058L10.0501 194.382H27.2076C31.7397 194.382 33.9911 197.899 33.9911 202.24L38.3172 213.379L37.9935 212.937C39.1265 214.365 39.6857 216.322 39.6857 218.485L49.1179 231.301C54.8714 235.318 66.1576 252.432 73.8387 253.653C87.1114 255.787 119.631 257.229 119.631 257.229H119.911C119.911 257.229 152.43 255.787 165.703 253.653C173.384 252.417 186.348 233.641 192.101 229.624L199.871 218.485C199.871 216.322 200.43 214.35 201.563 212.937L201.239 213.379L204.006 202.24C204.006 197.899 206.257 194.382 210.789 194.382H229.565L232.464 192.101C224.43 217.175 206.978 255.86 172.148 276.52L168.337 276.27C168.337 276.27 163.569 279.58 155.741 279.183" fill="white"/>
<path d="M200.901 209.538C177.975 171.073 158.037 164.937 125.002 171.971C123.383 172.795 115.158 172.677 113.598 171.956C77.076 164.334 59.8597 174.487 40.2302 206.183L37.2284 211.186C37.6846 211.848 38.2584 213.584 38.5674 214.32C39.5386 216.057 39.7888 217.425 39.9506 219.426C40.0389 219.573 47.2492 229.006 47.823 230.109C48.3822 231.213 48.4263 231.448 48.6765 231.61C54.43 235.627 65.5838 253.094 73.2502 254.33C86.5229 256.463 119.911 258.17 119.911 258.17C119.911 258.17 152.725 256.728 165.997 254.595C173.679 253.358 186.098 234.994 191.851 230.977C192.116 230.786 200.092 219.647 200.165 219.426C200.798 217.234 201.077 214.085 202.652 212.407L200.901 209.538Z" fill="#FFD2D2"/>
<path d="M128.327 205.418C130.05 205.418 131.447 204.14 131.447 202.563C131.447 200.987 130.05 199.708 128.327 199.708C126.605 199.708 125.208 200.987 125.208 202.563C125.208 204.14 126.605 205.418 128.327 205.418Z" fill="url(#paint0_linear_2837_529)" stroke="#F4B3B3" stroke-miterlimit="10"/>
<path d="M137.612 206.977C138.245 208.581 139.981 209.434 141.468 208.905C141.674 208.831 141.85 208.743 142.027 208.625C142.718 210.097 144.352 210.862 145.779 210.361C147.265 209.832 147.972 208.095 147.324 206.506C146.691 204.902 144.955 204.049 143.469 204.578C143.263 204.652 143.086 204.74 142.91 204.858C142.218 203.387 140.585 202.621 139.157 203.122C137.671 203.651 136.98 205.388 137.612 206.977Z" fill="url(#paint1_linear_2837_529)" stroke="#F4B3B3" stroke-miterlimit="10"/>
<path d="M105.255 222.855C105.887 224.459 107.624 225.312 109.11 224.783C109.316 224.709 109.493 224.621 109.669 224.503C110.361 225.974 111.994 226.74 113.421 226.239C114.908 225.71 115.614 223.973 114.966 222.384C114.334 220.78 112.597 219.927 111.111 220.456C110.905 220.53 110.729 220.618 110.552 220.736C109.86 219.265 108.227 218.499 106.8 219C105.314 219.529 104.607 221.251 105.255 222.855Z" fill="url(#paint2_linear_2837_529)" stroke="#F4B3B3" stroke-miterlimit="10"/>
<path d="M158.522 213.908C160.245 213.908 161.642 212.63 161.642 211.053C161.642 209.477 160.245 208.199 158.522 208.199C156.799 208.199 155.403 209.477 155.403 211.053C155.403 212.63 156.799 213.908 158.522 213.908Z" fill="url(#paint3_linear_2837_529)" stroke="#F4B3B3" stroke-miterlimit="10"/>
<path d="M155.388 203.034C157.111 203.034 158.507 201.756 158.507 200.179C158.507 198.603 157.111 197.325 155.388 197.325C153.665 197.325 152.268 198.603 152.268 200.179C152.268 201.756 153.665 203.034 155.388 203.034Z" fill="url(#paint4_linear_2837_529)" stroke="#F4B3B3" stroke-miterlimit="10"/>
<path d="M160.568 224.797C162.29 224.797 163.687 223.519 163.687 221.943C163.687 220.366 162.29 219.088 160.568 219.088C158.845 219.088 157.448 220.366 157.448 221.943C157.448 223.519 158.845 224.797 160.568 224.797Z" fill="url(#paint5_linear_2837_529)" stroke="#F4B3B3" stroke-miterlimit="10"/>
<path d="M141.88 197.324C143.277 197.324 144.41 196.283 144.41 194.999C144.41 193.715 143.277 192.674 141.88 192.674C140.482 192.674 139.349 193.715 139.349 194.999C139.349 196.283 140.482 197.324 141.88 197.324Z" fill="url(#paint6_linear_2837_529)" stroke="#F4B3B3" stroke-miterlimit="10"/>
<path d="M140.717 217.204C142.148 217.204 143.307 216.144 143.307 214.835C143.307 213.527 142.148 212.466 140.717 212.466C139.287 212.466 138.128 213.527 138.128 214.835C138.128 216.144 139.287 217.204 140.717 217.204Z" fill="url(#paint7_linear_2837_529)" stroke="#F4B3B3" stroke-miterlimit="10"/>
<path d="M78.6651 209.597C80.3879 209.597 81.7846 208.318 81.7846 206.742C81.7846 205.165 80.3879 203.887 78.6651 203.887C76.9422 203.887 75.5455 205.165 75.5455 206.742C75.5455 208.318 76.9422 209.597 78.6651 209.597Z" fill="url(#paint8_linear_2837_529)" stroke="#F4B3B3" stroke-miterlimit="10"/>
<path d="M121.941 220.501C123.664 220.501 125.061 219.223 125.061 217.646C125.061 216.07 123.664 214.792 121.941 214.792C120.218 214.792 118.822 216.07 118.822 217.646C118.822 219.223 120.218 220.501 121.941 220.501Z" fill="url(#paint9_linear_2837_529)" stroke="#F4B3B3" stroke-miterlimit="10"/>
<path d="M76.34 222.605C78.0629 222.605 79.4595 221.327 79.4595 219.75C79.4595 218.174 78.0629 216.896 76.34 216.896C74.6171 216.896 73.2205 218.174 73.2205 219.75C73.2205 221.327 74.6171 222.605 76.34 222.605Z" fill="url(#paint10_linear_2837_529)" stroke="#F4B3B3" stroke-miterlimit="10"/>
<path d="M87.273 228.358C88.9958 228.358 90.3925 227.08 90.3925 225.504C90.3925 223.927 88.9958 222.649 87.273 222.649C85.5501 222.649 84.1534 223.927 84.1534 225.504C84.1534 227.08 85.5501 228.358 87.273 228.358Z" fill="url(#paint11_linear_2837_529)" stroke="#F4B3B3" stroke-miterlimit="10"/>
<path d="M108.139 202.563C109.862 202.563 111.258 201.285 111.258 199.709C111.258 198.132 109.862 196.854 108.139 196.854C106.416 196.854 105.019 198.132 105.019 199.709C105.019 201.285 106.416 202.563 108.139 202.563Z" fill="url(#paint12_linear_2837_529)" stroke="#F4B3B3" stroke-miterlimit="10"/>
<path d="M98.3241 235.745C99.7707 235.745 100.943 234.671 100.943 233.347C100.943 232.022 99.7707 230.948 98.3241 230.948C96.8776 230.948 95.7049 232.022 95.7049 233.347C95.7049 234.671 96.8776 235.745 98.3241 235.745Z" fill="url(#paint13_linear_2837_529)" stroke="#F4B3B3" stroke-miterlimit="10"/>
<path d="M171.839 215.321C173.562 215.321 174.958 214.043 174.958 212.466C174.958 210.889 173.562 209.611 171.839 209.611C170.116 209.611 168.719 210.889 168.719 212.466C168.719 214.043 170.116 215.321 171.839 215.321Z" fill="url(#paint14_linear_2837_529)" stroke="#F4B3B3" stroke-miterlimit="10"/>
<path d="M101.149 216.557C102.555 216.557 103.695 215.516 103.695 214.232C103.695 212.948 102.555 211.907 101.149 211.907C99.7434 211.907 98.6036 212.948 98.6036 214.232C98.6036 215.516 99.7434 216.557 101.149 216.557Z" fill="url(#paint15_linear_2837_529)" stroke="#F4B3B3" stroke-miterlimit="10"/>
<path d="M94.2629 206.816C95.425 206.816 96.3671 205.953 96.3671 204.888C96.3671 203.823 95.425 202.96 94.2629 202.96C93.1008 202.96 92.1587 203.823 92.1587 204.888C92.1587 205.953 93.1008 206.816 94.2629 206.816Z" fill="url(#paint16_linear_2837_529)" stroke="#F4B3B3" stroke-miterlimit="10"/>
<path d="M118.189 209.656C119.912 209.656 121.308 208.378 121.308 206.801C121.308 205.224 119.912 203.946 118.189 203.946C116.466 203.946 115.069 205.224 115.069 206.801C115.069 208.378 116.466 209.656 118.189 209.656Z" fill="url(#paint17_linear_2837_529)" stroke="#F4B3B3" stroke-miterlimit="10"/>
<path d="M87.273 216.557C88.9958 216.557 90.3925 215.278 90.3925 213.702C90.3925 212.125 88.9958 210.847 87.273 210.847C85.5501 210.847 84.1534 212.125 84.1534 213.702C84.1534 215.278 85.5501 216.557 87.273 216.557Z" fill="url(#paint18_linear_2837_529)" stroke="#F4B3B3" stroke-miterlimit="10"/>
<path d="M119.131 193.646C120.431 193.646 121.485 192.678 121.485 191.483C121.485 190.288 120.431 189.32 119.131 189.32C117.83 189.32 116.776 190.288 116.776 191.483C116.776 192.678 117.83 193.646 119.131 193.646Z" fill="url(#paint19_linear_2837_529)" stroke="#F4B3B3" stroke-miterlimit="10"/>
<path d="M206.698 169.573C203.491 155.947 183.169 81.667 120.382 81.667C57.6083 81.667 37.9494 151.871 33.1229 169.558C32.755 170.927 32.6962 172.339 32.858 173.752L33.6674 180.727C34.8298 190.88 46.6016 195.015 53.5912 187.569C60.1392 180.594 68.5708 174.311 77.8853 171.457C76.0459 166.586 75.0453 161.745 74.8099 156.33C73.7063 131.8 96.47 110.92 120.22 110.92C145.676 110.92 164.526 131.727 165.629 156.33C165.88 161.98 165.217 167.16 163.216 172.207C171.751 175.503 180.315 180.859 186.157 188.04C192.543 195.898 204.756 191.336 205.992 181.286L206.919 173.723C207.096 172.339 207.022 170.942 206.698 169.573Z" fill="#F99595" stroke="#EF6250" stroke-miterlimit="10" stroke-linecap="round" stroke-linejoin="round"/>
<path d="M69.1449 119.116C70.8666 119.41 72.5735 118.469 73.6771 117.247C74.7807 116.026 75.4429 114.54 76.3405 113.201C78.8567 109.419 83.0651 106.873 87.1558 104.431C88.6126 103.563 90.1871 102.665 91.9381 102.636C92.7621 102.621 93.5862 102.812 94.3072 103.18C96.1465 104.107 97.1619 106.3 96.3525 108.051C95.8817 109.081 94.9105 109.846 93.9688 110.567C91.173 112.745 88.3771 114.981 86.3171 117.748C85.1987 119.263 84.1981 121 82.3735 121.809C79.8426 122.913 76.2816 121.897 74.354 123.751C73.7948 124.281 73.4711 125.002 72.8678 125.488C68.1443 129.416 58.3443 117.277 69.1449 119.116Z" stroke="#EF6250" stroke-linecap="round" stroke-linejoin="round" stroke-dasharray="4.82 4.82"/>
<path d="M96.4262 100.546C98.4863 101.149 101.194 101.179 102.327 99.516C102.665 99.0156 102.812 98.4271 103.136 97.9268C103.857 96.7643 105.417 96.1315 106.02 94.9249C106.579 93.8213 106.138 92.3793 105.02 91.6877C103.945 91.0402 102.548 91.0991 101.267 91.2168C98.4568 91.4817 95.661 91.9231 92.8947 92.5264C91.6439 92.7913 90.3931 93.115 89.3337 93.7625C88.2742 94.4099 87.4208 95.44 87.3766 96.5877C87.2295 100.031 93.8805 99.7955 96.4262 100.546Z" stroke="#EF6250" stroke-linecap="round" stroke-linejoin="round" stroke-dasharray="5.25 5.25"/>
<path d="M80.1372 104.562C80.9171 104.268 81.697 103.944 82.4621 103.606C82.7564 103.474 83.0802 103.312 83.2126 103.032C83.242 102.959 83.2567 102.9 83.2715 102.841" stroke="#EF6250" stroke-linecap="round" stroke-linejoin="round"/>
<path d="M83.2567 102.827C83.3302 102.238 82.4473 101.767 81.7116 101.664C79.7251 101.399 77.6209 101.826 75.9728 102.856" stroke="#EF6250" stroke-linecap="round" stroke-linejoin="round" stroke-dasharray="1.44 1.44"/>
<path d="M76.8264 104.504C77.9741 104.931 79.2984 104.931 80.4315 104.504" stroke="#EF6250" stroke-linecap="round" stroke-linejoin="round"/>
<path d="M168.234 118.954C168.47 115.981 155.035 104.989 154.093 104.445C152.637 103.577 151.062 102.679 149.311 102.65C148.487 102.635 147.663 102.826 146.942 103.194C145.103 104.121 144.087 106.314 144.897 108.065C145.368 109.095 146.339 109.86 147.28 110.581C152.254 114.451 153.181 116.482 159.641 116.452C160.112 116.452 160.597 116.452 160.995 116.673C161.465 116.938 161.73 117.423 162.054 117.85C163.32 119.542 165.718 120.278 167.705 119.586C168.043 119.483 168.205 119.263 168.234 118.954Z" stroke="#EF6250" stroke-miterlimit="10" stroke-linecap="round" stroke-linejoin="round" stroke-dasharray="5 5"/>
<path d="M144.838 100.546C142.778 101.149 140.07 101.179 138.937 99.516C138.599 99.0156 138.452 98.4271 138.128 97.9268C137.407 96.7643 135.847 96.1315 135.244 94.9249C134.685 93.8213 135.126 92.3793 136.244 91.6877C137.319 91.0402 138.717 91.0991 139.997 91.2168C142.807 91.4817 145.603 91.9231 148.369 92.5264C149.62 92.7913 150.871 93.115 151.93 93.7625C152.99 94.4099 153.843 95.44 153.887 96.5877C154.035 100.031 147.384 99.7955 144.838 100.546Z" stroke="#EF6250" stroke-miterlimit="10" stroke-linecap="round" stroke-linejoin="round" stroke-dasharray="5 5"/>
<path d="M161.127 104.563C160.347 104.269 159.567 103.945 158.802 103.607C158.508 103.474 158.184 103.313 158.052 103.033C157.728 102.356 158.729 101.782 159.538 101.679C161.524 101.414 163.629 101.841 165.277 102.871C165.453 102.974 165.63 103.107 165.703 103.283C165.836 103.636 165.468 103.989 165.13 104.181C163.864 104.902 162.201 105.034 160.818 104.504" stroke="#EF6250" stroke-miterlimit="10" stroke-linecap="round" stroke-linejoin="round" stroke-dasharray="5 5"/>
<path d="M172.781 120.102C174.444 121.073 176.607 121.47 178.108 121.323C178.476 121.293 178.902 121.22 179.138 120.896C179.329 120.631 179.344 120.263 179.3 119.925C178.976 116.805 175.842 115.172 173.164 114.127C172.251 113.774 170.956 113.598 170.589 114.583C169.662 117.188 170.912 119.013 172.781 120.102Z" stroke="#EF6250" stroke-miterlimit="10" stroke-linecap="round" stroke-linejoin="round" stroke-dasharray="5 5"/>
<path d="M195.956 138.363C195.956 138.363 177.283 121.676 172.03 147.206C169.661 158.684 169.838 168.867 174.164 174.37C209.067 218.867 207.169 171.309 207.169 171.309C207.169 171.309 203.741 158.257 201.872 152.945C200.003 147.604 195.956 138.363 195.956 138.363Z" fill="#FF7B7B" stroke="#EF6250" stroke-miterlimit="10" stroke-linecap="round" stroke-linejoin="round"/>
<path d="M44.4533 137.819C44.4533 137.819 63.5384 121.971 68.7915 147.501C71.1606 158.979 69.748 168.381 65.4366 173.899C30.5331 218.397 32.446 171.942 32.446 171.942C32.446 171.942 35.9482 158.258 38.5821 151.665C41.2013 145.073 44.4533 137.819 44.4533 137.819Z" fill="#FF7B7B" stroke="#EF6250" stroke-miterlimit="10" stroke-linecap="round" stroke-linejoin="round"/>
<path d="M50.3687 181.419C47.9114 181.419 45.8219 179.741 45.248 177.402C45.1891 177.402 45.1303 177.402 45.0714 177.402C42.1432 177.402 39.7741 175.018 39.7741 172.104C39.7741 170.324 40.6864 168.691 42.1138 167.719C40.6864 166.748 39.7741 165.115 39.7741 163.334C39.7741 161.48 40.7306 159.788 42.2756 158.832C41.9666 158.155 41.8195 157.419 41.8195 156.683C41.8195 153.755 44.2033 151.386 47.1168 151.386C47.1315 151.386 47.1609 151.386 47.1756 151.386C47.5582 148.767 49.7654 146.824 52.4141 146.824C52.9733 146.824 53.5324 146.913 54.0769 147.104C54.7685 144.956 56.7844 143.425 59.1093 143.425C62.0376 143.425 64.4066 145.809 64.4066 148.723C64.4066 150.533 63.4796 152.166 62.0376 153.122C63.4943 154.079 64.4066 155.727 64.4066 157.522C64.4066 159.641 63.1412 161.524 61.243 162.363C61.449 162.922 61.552 163.511 61.552 164.1C61.552 166.778 59.5655 168.985 56.9904 169.353C56.9904 169.353 56.9904 169.353 56.9904 169.367C56.9904 170.971 56.2399 172.502 54.9745 173.502C55.4306 174.297 55.6661 175.18 55.6661 176.107C55.6808 179.05 53.297 181.419 50.3687 181.419Z" fill="#FFFACF"/>
<path d="M59.1092 144.175C61.6254 144.175 63.6707 146.22 63.6707 148.737C63.6707 150.856 62.214 152.636 60.2569 153.136C62.214 153.651 63.6707 155.417 63.6707 157.536C63.6707 159.655 62.214 161.436 60.2422 161.936C60.5954 162.583 60.8161 163.319 60.8161 164.099C60.8161 166.615 58.7707 168.66 56.2545 168.66C56.2251 168.66 56.2103 168.66 56.1809 168.66C56.2103 168.896 56.2545 169.117 56.2545 169.367C56.2545 171.059 55.3275 172.516 53.959 173.31C54.5623 174.09 54.9302 175.047 54.9302 176.106C54.9302 178.622 52.8848 180.668 50.3686 180.668C48.0142 180.668 46.0866 178.873 45.8511 176.577C45.601 176.621 45.3361 176.651 45.0713 176.651C42.555 176.651 40.5097 174.605 40.5097 172.089C40.5097 170 41.9223 168.248 43.8499 167.704C41.937 167.16 40.5097 165.423 40.5097 163.319C40.5097 161.436 41.6427 159.832 43.2761 159.125C42.8199 158.419 42.555 157.58 42.555 156.668C42.555 154.152 44.6004 152.106 47.1166 152.106C47.3668 152.106 47.6169 152.136 47.8524 152.18C47.8524 152.151 47.8376 152.136 47.8376 152.106C47.8376 149.59 49.883 147.545 52.3992 147.545C53.1938 147.545 53.9296 147.765 54.577 148.119C54.9007 145.911 56.7842 144.175 59.1092 144.175ZM59.1092 142.704C56.7107 142.704 54.6064 144.131 53.6353 146.22C53.238 146.132 52.8259 146.088 52.4139 146.088C49.5887 146.088 47.2049 148.045 46.5575 150.679C43.4968 150.959 41.0836 153.548 41.0836 156.697C41.0836 157.33 41.1866 157.963 41.3926 158.566C39.9358 159.699 39.0529 161.45 39.0529 163.334C39.0529 165.026 39.7739 166.6 40.9511 167.719C39.7739 168.837 39.0529 170.412 39.0529 172.104C39.0529 175.312 41.5544 177.931 44.7181 178.137C45.5421 180.506 47.7935 182.169 50.398 182.169C53.7236 182.169 56.4311 179.461 56.4311 176.136C56.4311 175.297 56.2545 174.473 55.9161 173.708C56.9314 172.722 57.5788 171.412 57.7113 170C60.3452 169.352 62.3023 166.968 62.3023 164.128C62.3023 163.672 62.2434 163.216 62.1404 162.76C63.9797 161.7 65.1569 159.729 65.1569 157.551C65.1569 155.844 64.4359 154.255 63.2293 153.151C64.4212 152.033 65.1569 150.458 65.1569 148.751C65.1422 145.411 62.4347 142.704 59.1092 142.704Z" fill="#EF6250"/>
<path d="M190.497 181.419C187.569 181.419 185.2 179.035 185.2 176.121C185.2 175.209 185.435 174.326 185.892 173.517C184.641 172.516 183.876 171.001 183.876 169.382C183.876 169.367 183.876 169.367 183.876 169.353C181.256 168.97 179.314 166.763 179.314 164.114C179.314 163.526 179.417 162.937 179.623 162.378C177.725 161.539 176.459 159.656 176.459 157.537C176.459 155.727 177.386 154.093 178.828 153.137C177.372 152.181 176.459 150.547 176.459 148.737C176.459 145.809 178.843 143.44 181.757 143.44C184.067 143.44 186.083 144.97 186.789 147.119C187.334 146.927 187.893 146.839 188.452 146.839C191.13 146.839 193.352 148.826 193.705 151.401C193.72 151.401 193.735 151.401 193.749 151.401C196.678 151.401 199.047 153.784 199.047 156.698C199.047 157.434 198.885 158.169 198.59 158.846C200.135 159.803 201.092 161.495 201.092 163.349C201.092 165.13 200.18 166.763 198.752 167.734C200.18 168.705 201.092 170.324 201.092 172.119C201.092 175.047 198.708 177.416 195.795 177.416C195.736 177.416 195.677 177.416 195.618 177.416C195.029 179.741 192.955 181.419 190.497 181.419Z" fill="#FFFACF"/>
<path d="M181.757 144.175C184.082 144.175 185.965 145.911 186.26 148.148C186.907 147.795 187.643 147.574 188.437 147.574C190.954 147.574 192.999 149.62 192.999 152.136C192.999 152.165 192.999 152.18 192.984 152.209C193.22 152.165 193.47 152.136 193.72 152.136C196.236 152.136 198.282 154.181 198.282 156.697C198.282 157.595 198.017 158.434 197.56 159.155C199.179 159.861 200.327 161.465 200.327 163.348C200.327 165.438 198.914 167.189 196.987 167.733C198.9 168.278 200.327 170.014 200.327 172.118C200.327 174.635 198.282 176.68 195.765 176.68C195.5 176.68 195.25 176.651 194.985 176.606C194.75 178.902 192.822 180.697 190.468 180.697C187.952 180.697 185.906 178.652 185.906 176.136C185.906 175.076 186.274 174.12 186.878 173.34C185.509 172.545 184.582 171.088 184.582 169.396C184.582 169.161 184.611 168.925 184.656 168.69C184.626 168.69 184.611 168.69 184.582 168.69C182.066 168.69 180.02 166.645 180.02 164.128C180.02 163.334 180.241 162.613 180.594 161.965C178.623 161.45 177.166 159.684 177.166 157.566C177.166 155.447 178.623 153.666 180.58 153.166C178.623 152.651 177.166 150.885 177.166 148.766C177.195 146.22 179.241 144.175 181.757 144.175ZM181.757 142.704C178.431 142.704 175.724 145.411 175.724 148.737C175.724 150.444 176.445 152.033 177.651 153.136C176.459 154.255 175.724 155.829 175.724 157.536C175.724 159.729 176.916 161.686 178.74 162.745C178.637 163.187 178.578 163.643 178.578 164.114C178.578 166.954 180.535 169.337 183.169 169.985C183.317 171.397 183.964 172.707 184.965 173.693C184.626 174.458 184.45 175.267 184.45 176.121C184.45 179.446 187.157 182.154 190.483 182.154C193.087 182.154 195.324 180.506 196.163 178.122C199.312 177.931 201.828 175.297 201.828 172.089C201.828 170.397 201.107 168.822 199.93 167.704C201.107 166.586 201.828 165.011 201.828 163.319C201.828 161.421 200.945 159.67 199.488 158.551C199.694 157.948 199.797 157.315 199.797 156.683C199.797 153.548 197.384 150.959 194.323 150.664C193.676 148.03 191.292 146.073 188.467 146.073C188.055 146.073 187.643 146.117 187.245 146.206C186.26 144.131 184.155 142.704 181.757 142.704Z" fill="#EF6250"/>
<path d="M237.217 112.068C225.813 65.0837 203.505 29.577 173.119 12.861C166.203 8.24053 146.986 0.250405 132.124 1.53059C127.4 1.9426 122.795 4.5324 118.91 4.5324C115.025 4.5324 110.287 1.88375 105.49 1.50116C90.6575 0.338693 71.6019 8.26996 64.7154 12.861C34.3294 29.577 12.0218 65.0837 0.617798 112.068" stroke="black" stroke-miterlimit="10" stroke-linecap="round" stroke-linejoin="round"/>
<path d="M2.73657 158.346C2.73657 158.346 28.0313 36.0225 121.956 36.0225C215.88 36.0225 239.865 158.346 239.865 158.346" stroke="black" stroke-miterlimit="10" stroke-linecap="round" stroke-linejoin="round"/>
<path d="M198.311 102.974C198.311 102.974 184.126 82.1233 165.482 72.3821C146.677 62.5526 121.309 60.9487 121.309 60.9487C121.309 60.9487 96.9262 62.5526 78.106 72.3821C59.4623 82.1233 45.2773 102.974 45.2773 102.974" stroke="black" stroke-miterlimit="10" stroke-linecap="round" stroke-linejoin="round"/>
<path d="M121.308 60.9347V36.0078" stroke="black" stroke-miterlimit="10" stroke-linecap="round" stroke-linejoin="round"/>
<path d="M145.455 64.8628V38.7588" stroke="black" stroke-miterlimit="10" stroke-linecap="round" stroke-linejoin="round"/>
<path d="M169.926 74.9575V48.5298" stroke="black" stroke-miterlimit="10" stroke-linecap="round" stroke-linejoin="round"/>
<path d="M192.513 94.5869V66.1138" stroke="black" stroke-miterlimit="10" stroke-linecap="round" stroke-linejoin="round"/>
<path d="M96.9113 64.127V39.8623" stroke="black" stroke-miterlimit="10" stroke-linecap="round" stroke-linejoin="round"/>
<path d="M72.4554 75.7373V49.9717" stroke="black" stroke-miterlimit="10" stroke-linecap="round" stroke-linejoin="round"/>
<path d="M53.8116 91.4822C51.1482 88.6128 48.5142 86.3762 49.2647 82.5356L49.3971 68.998" stroke="black" stroke-miterlimit="10" stroke-linecap="round" stroke-linejoin="round"/>
<path d="M17.6428 115.379H35.3153C39.8474 115.379 42.0988 111.862 42.0988 107.522L45.2772 102.96" stroke="black" stroke-miterlimit="10" stroke-linecap="round" stroke-linejoin="round"/>
<path d="M223.973 114.467L209.627 115.306C205.109 115.57 202.652 112.186 202.402 107.86L198.311 102.975" stroke="black" stroke-miterlimit="10" stroke-linecap="round" stroke-linejoin="round"/>
<path d="M28.208 95.8667L28.4876 98.0592C28.8407 100.855 31.2245 102.959 34.0498 102.959H45.2771" stroke="black" stroke-miterlimit="10" stroke-linecap="round" stroke-linejoin="round"/>
<path d="M214.085 95.8667L213.806 98.0592C213.452 100.855 211.069 102.959 208.243 102.959H198.311" stroke="black" stroke-miterlimit="10" stroke-linecap="round" stroke-linejoin="round"/>
<path d="M169.764 348.872C154.24 356.48 137.2 360.129 120.249 359.996C103.283 360.129 86.2576 356.48 70.7335 348.872" stroke="black" stroke-miterlimit="10" stroke-linecap="round" stroke-linejoin="round"/>
<path d="M223.973 211.599H206.934C202.402 211.599 200.15 215.115 200.15 219.456L192.381 230.595" stroke="black" stroke-miterlimit="10" stroke-linecap="round" stroke-linejoin="round"/>
<path d="M229.859 195.338H211.083C206.551 195.338 204.3 198.855 204.3 203.196L201.533 214.335" stroke="black" stroke-miterlimit="10" stroke-linecap="round" stroke-linejoin="round"/>
<path d="M17.1276 211.599H33.1667C37.6989 211.599 39.9502 215.115 39.9502 219.456L49.3824 232.273" stroke="black" stroke-miterlimit="10" stroke-linecap="round" stroke-linejoin="round"/>
<path d="M10.3002 195.338H27.4576C31.9898 195.338 34.2411 198.855 34.2411 203.196L38.5673 214.335" stroke="black" stroke-miterlimit="10" stroke-linecap="round" stroke-linejoin="round"/>
<path d="M26.5454 230.831C26.5454 230.831 46.1455 230.007 49.3975 232.258C55.1509 236.275 66.4372 253.389 74.1183 254.61C87.391 256.744 119.911 258.186 119.911 258.186" stroke="black" stroke-miterlimit="10" stroke-linecap="round" stroke-linejoin="round"/>
<path d="M214.085 230.83C214.085 230.83 195.618 228.329 192.381 230.595C186.627 234.612 173.664 253.388 165.983 254.624C152.71 256.758 120.19 258.2 120.19 258.2" stroke="black" stroke-miterlimit="10" stroke-linecap="round" stroke-linejoin="round"/>
<path d="M120.587 258.789V277.683" stroke="black" stroke-miterlimit="10" stroke-linecap="round" stroke-linejoin="round"/>
<path d="M96.4407 256.832V276.535" stroke="black" stroke-miterlimit="10" stroke-linecap="round" stroke-linejoin="round"/>
<path d="M71.9696 254.125V278.816" stroke="black" stroke-miterlimit="10" stroke-linecap="round" stroke-linejoin="round"/>
<path d="M54.7979 237.496L51.8108 241.528C50.251 243.632 49.3976 246.193 49.3976 248.826L51.4724 263.733" stroke="black" stroke-miterlimit="10" stroke-linecap="round" stroke-linejoin="round"/>
<path d="M144.985 256.832V275.917" stroke="black" stroke-miterlimit="10" stroke-linecap="round" stroke-linejoin="round"/>
<path d="M169.44 254.125V277.683" stroke="black" stroke-miterlimit="10" stroke-linecap="round" stroke-linejoin="round"/>
<path d="M45.2203 307.924L45.2205 307.924C64.4899 327.549 89.407 337.5 119.352 337.5C149.326 337.5 174.377 327.563 193.808 307.966L193.808 307.966C218.15 283.439 229.275 247.879 234.329 222.327C239.695 195.207 239.506 173.345 239.497 172.388C239.497 172.375 239.497 172.365 239.497 172.36L239.497 172.356M45.2203 307.924L239.997 172.356H239.497M45.2203 307.924C34.4606 296.973 25.4173 282.918 18.3328 266.14C12.6856 252.752 8.26749 237.625 5.19887 221.151C0.115657 193.834 0.492328 171.753 0.514173 170.473C0.514545 170.451 0.514814 170.435 0.514952 170.425L0.514958 170.425C0.524347 169.95 0.89822 169.547 1.3897 169.5H1.38991H1.39014H1.39038H1.39061H1.39084H1.39108H1.39131H1.39154H1.39178H1.39201H1.39224H1.39247H1.3927H1.39293H1.39317H1.3934H1.39363H1.39386H1.39409H1.39432H1.39455H1.39478H1.39501H1.39524H1.39547H1.3957H1.39592H1.39615H1.39638H1.39661H1.39684H1.39707H1.39729H1.39752H1.39775H1.39798H1.3982H1.39843H1.39866H1.39888H1.39911H1.39933H1.39956H1.39979H1.40001H1.40024H1.40046H1.40069H1.40091H1.40114H1.40136H1.40159H1.40181H1.40204H1.40226H1.40248H1.40271H1.40293H1.40315H1.40338H1.4036H1.40382H1.40405H1.40427H1.40449H1.40472H1.40494H1.40516H1.40538H1.4056H1.40583H1.40605H1.40627H1.40649H1.40671H1.40693H1.40715H1.40738H1.4076H1.40782H1.40804H1.40826H1.40848H1.4087H1.40892H1.40914H1.40936H1.40958H1.4098H1.41002H1.41024H1.41046H1.41068H1.4109H1.41111H1.41133H1.41155H1.41177H1.41199H1.41221H1.41243H1.41265H1.41286H1.41308H1.4133H1.41352H1.41374H1.41395H1.41417H1.41439H1.41461H1.41483H1.41504H1.41526H1.41548H1.4157H1.41591H1.41613H1.41635H1.41656H1.41678H1.417H1.41722H1.41743H1.41765H1.41787H1.41808H1.4183H1.41852H1.41873H1.41895H1.41916H1.41938H1.4196H1.41981H1.42003H1.42025H1.42046H1.42068H1.42089H1.42111H1.42133H1.42154H1.42176H1.42197H1.42219H1.42241H1.42262H1.42284H1.42305H1.42327H1.42348H1.4237H1.42392H1.42413H1.42435H1.42456H1.42478H1.42499H1.42521H1.42542H1.42564H1.42586H1.42607H1.42629H1.4265H1.42672H1.42693H1.42715H1.42736H1.42758H1.42779H1.42801H1.42823H1.42844H1.42866H1.42887H1.42909H1.4293H1.42952H1.42973H1.42995H1.43017H1.43038H1.4306H1.43081H1.43103H1.43124H1.43146H1.43168H1.43189H1.43211H1.43232H1.43254H1.43275H1.43297H1.43319H1.4334H1.43362H1.43383H1.43405H1.43427H1.43448H1.4347H1.43492H1.43513H1.43535H1.43556H1.43578H1.436H1.43621H1.43643H1.43665H1.43686H1.43708H1.4373H1.43751H1.43773H1.43795H1.43817H1.43838H1.4386H1.43882H1.43904H1.43925H1.43947H1.43969H1.43991H1.44012H1.44034H1.44056H1.44078H1.441H1.44121H1.44143H1.44165H1.44187H1.44209H1.44231H1.44252H1.44274H1.44296H1.44318H1.4434H1.44362H1.44384H1.44406H1.44428H1.4445H1.44472H1.44494H1.44516H1.44538H1.4456H1.44582H1.44604H1.44626H1.44648H1.4467H1.44692H1.44714H1.44736H1.44758H1.44781H1.44803H1.44825H1.44847H1.44869H1.44891H1.44914H1.44936H1.44958H1.4498H1.45003H1.45025H1.45047H1.45069H1.45092H1.45114H1.45136H1.45159H1.45181H1.45204H1.45226H1.45248H1.45271H1.45293H1.45316H1.45338H1.45361H1.45383H1.45406H1.45428H1.45451H1.45474H1.45496H1.45519H1.45541H1.45564H1.45587H1.45609H1.45632H1.45655H1.45678H1.457H1.45723H1.45746H1.45769H1.45792H1.45814H1.45837H1.4586H1.45883H1.45906H1.45929H1.45952H1.45975H1.45998H1.46021H1.46044H1.46067H1.4609H1.46113H1.46136H1.46159H1.46182H1.46206H1.46229H1.46252H1.46275H1.46299H1.46322H1.46345H1.46369H1.46392H1.46415H1.46439H1.46462H1.46485H1.46509H1.46532H1.46556H1.46579H1.46603H1.46627H1.4665H1.46674H1.46697H1.46721H1.46745H1.46768H1.46792H1.46816H1.4684H1.46864H1.46887H1.46911H1.46935H1.46959H1.46983H1.47007H1.47031H1.47055H1.47079H1.47103H1.47127H1.47151H1.47175H1.472H1.47224H1.47248H1.47272H1.47296H1.47321H1.47345H1.47369H1.47394H1.47418H1.47443H1.47467H1.47492H1.47516H1.47541H1.47565H1.4759H1.47614H1.47639H1.47664H1.47689H1.47713H1.47738H1.47763H1.47788H1.47813H1.47837H1.47862H1.47887H1.47912H1.47937H1.47962H1.47987H1.48012H1.48038H1.48063H1.48088H1.48113H1.48138H1.48164H1.48189H1.48214H1.4824H1.48265H1.48291H1.48316H1.48342H1.48367H1.48393H1.48418H1.48444H1.4847H1.48495H1.48521H1.48547H1.48573H1.48599C1.94317 169.5 2.35061 169.831 2.43656 170.277L2.43662 170.277C2.62007 171.292 8.63827 201.144 25.7208 230.643L26.1535 230.392L25.7208 230.643C35.8388 248.114 47.8257 262.062 61.35 272.048C78.1911 284.502 97.4912 290.811 118.69 290.811C141.366 290.811 161.723 284.507 179.17 272.068C193.168 262.096 205.334 248.175 215.366 230.714L214.933 230.465C232.025 200.71 237.011 170.532 237.055 170.226L237.549 170.307C237.549 170.306 237.549 170.306 237.549 170.305C237.627 169.838 238.03 169.5 238.512 169.5H238.512H238.512H238.512H238.512H238.512H238.513H238.513H238.513H238.513H238.513H238.514H238.514H238.514H238.514H238.514H238.514H238.515H238.515H238.515H238.515H238.515H238.515H238.516H238.516H238.516H238.516H238.516H238.517H238.517H238.517H238.517H238.517H238.517H238.518H238.518H238.518H238.518H238.518H238.519H238.519H238.519H238.519H238.519H238.519H238.52H238.52H238.52H238.52H238.52H238.521H238.521H238.521H238.521H238.521H238.522H238.522H238.522H238.522H238.522H238.522H238.523H238.523H238.523H238.523H238.523H238.524H238.524H238.524H238.524H238.524H238.525H238.525H238.525H238.525H238.525H238.526H238.526H238.526H238.526H238.526H238.527H238.527H238.527H238.527H238.527H238.528H238.528H238.528H238.528H238.528H238.529H238.529H238.529H238.529H238.529H238.529H238.53H238.53H238.53H238.53H238.53H238.531H238.531H238.531H238.531H238.531H238.532H238.532H238.532H238.532H238.532H238.533H238.533H238.533H238.533H238.533H238.534H238.534H238.534H238.534H238.535H238.535H238.535H238.535H238.535H238.536H238.536H238.536H238.536H238.536H238.537H238.537H238.537H238.537H238.537H238.538H238.538H238.538H238.538H238.538H238.539H238.539H238.539H238.539H238.539H238.54H238.54H238.54H238.54H238.54H238.541H238.541H238.541H238.541H238.542H238.542H238.542H238.542H238.542H238.543H238.543H238.543H238.543H238.543H238.544H238.544H238.544H238.544H238.544H238.545H238.545H238.545H238.545H238.546H238.546H238.546H238.546H238.546H238.547H238.547H238.547H238.547H238.547H238.548H238.548H238.548H238.548H238.548H238.549H238.549H238.549H238.549H238.55H238.55H238.55H238.55H238.55H238.551H238.551H238.551H238.551H238.551H238.552H238.552H238.552H238.552H238.553H238.553H238.553H238.553H238.553H238.554H238.554H238.554H238.554H238.554H238.555H238.555H238.555H238.555H238.556H238.556H238.556H238.556H238.556H238.557H238.557H238.557H238.557H238.557H238.558H238.558H238.558H238.558H238.559H238.559H238.559H238.559H238.559H238.56H238.56H238.56H238.56H238.56H238.561H238.561H238.561H238.561H238.562H238.562H238.562H238.562H238.562H238.563H238.563H238.563H238.563H238.563H238.564H238.564H238.564H238.564H238.565H238.565H238.565H238.565H238.565H238.566H238.566H238.566H238.566H238.567H238.567H238.567H238.567H238.567H238.568H238.568H238.568H238.568H238.568H238.569H238.569H238.569H238.569H238.57H238.57H238.57H238.57H238.57H238.571H238.571H238.571H238.571H238.571H238.572H238.572H238.572H238.572H238.573H238.573H238.573H238.573H238.573H238.574H238.574H238.574H238.574H238.574H238.575H238.575H238.575H238.575H238.576H238.576H238.576H238.576H238.576H238.577H238.577H238.577H238.577H238.577H238.578H238.578H238.578H238.578H238.578H238.579H238.579H238.579H238.579H238.58H238.58H238.58H238.58H238.58H238.581H238.581H238.581H238.581H238.581H238.582H238.582H238.582H238.582H238.583H238.583H238.583H238.583H238.583H238.584H238.584H238.584H238.584H238.584H238.585H238.585H238.585H238.585H238.585H238.586H238.586H238.586H238.586H238.586H238.587H238.587H238.587H238.587H238.588H238.588H238.588H238.588H238.588H238.589H238.589H238.589H238.589H238.589H238.59H238.59H238.59H238.59H238.59H238.591H238.591H238.591H238.591H238.591H238.592H238.592H238.592H238.592H238.592H238.593H238.593H238.593H238.593H238.593H238.594C239.092 169.547 239.472 169.957 239.483 170.452M45.2203 307.924L239.483 170.452M239.497 172.356L239.483 170.454M239.497 172.356L239.483 170.454M239.483 170.454C239.483 170.454 239.483 170.453 239.483 170.452M239.483 170.454L239.483 170.452" fill="#FFF5F5" stroke="black"/>
<path d="M185.288 238.056C193.735 246.782 188.599 255.773 186.98 265.926" stroke="black" stroke-miterlimit="10" stroke-linecap="round" stroke-linejoin="round"/>
<path d="M169.44 277.227C169.44 277.227 163.878 280.538 156.035 280.141C148.192 279.743 144.97 275.917 144.97 275.917C144.97 275.917 144.028 277.654 139.584 278.875C135.14 280.096 128.827 280.906 123.707 278.978L120.587 277.727C120.587 277.727 115.878 279.949 108.3 279.949C101.164 279.949 96.5579 276.535 96.5579 276.535C96.5579 276.535 95.6897 279.684 87.0816 281.524C78.4293 283.363 71.1749 278.287 71.1749 278.287" stroke="black" stroke-miterlimit="10" stroke-linecap="round" stroke-linejoin="round"/>
<path d="M202.195 211.79C191.954 192.308 174.061 168.794 146.5 169.5C137.083 169.735 127.959 172.31 118.512 172.355H120.264C110.831 172.31 101.694 169.735 92.2761 169.5C64.7153 168.794 47.5284 192.308 37.2869 211.79" stroke="black" stroke-miterlimit="10" stroke-linecap="round" stroke-linejoin="round"/>
<path d="M32.6373 171.31C32.6373 171.31 51.2662 81.27 120.381 81.27C189.497 81.27 207.169 171.31 207.169 171.31" stroke="black" stroke-miterlimit="10" stroke-linecap="round" stroke-linejoin="round"/>
<path d="M133.433 82.0346C129.401 81.343 125.178 80.9604 120.734 80.9604C116.188 80.9604 111.876 81.343 107.756 82.0788L107.785 82.2554C107.785 82.2554 113.907 87.5968 112.023 97.4851C110.14 107.373 105.372 114.687 107.785 121.956C110.611 130.432 120.587 130.432 120.587 130.432C120.587 130.432 130.564 130.432 133.389 121.956C135.817 114.687 131.035 107.373 129.151 97.4851C127.268 87.6115 133.389 82.2554 133.389 82.2554L133.433 82.0346Z" fill="#F99595" stroke="black" stroke-miterlimit="10" stroke-linecap="round" stroke-linejoin="round"/>
<path d="M288.183 105.698V91.6982H300.563V105.698H298.423V93.5982H290.323V105.698H288.183ZM303.104 100.698C303.104 97.8182 305.384 95.5382 308.324 95.5382C311.244 95.5382 313.524 97.8182 313.524 100.698C313.524 103.598 311.244 105.858 308.324 105.858C305.384 105.858 303.104 103.598 303.104 100.698ZM305.124 100.698C305.124 102.518 306.524 103.958 308.324 103.958C310.104 103.958 311.504 102.518 311.504 100.698C311.504 98.8782 310.104 97.4382 308.324 97.4382C306.524 97.4382 305.124 98.8782 305.124 100.698ZM315.814 105.698V95.6982H317.854V99.6982H320.054L322.974 95.6982H325.314L321.614 100.598L325.714 105.698H323.314L320.054 101.498H317.854V105.698H315.814ZM338.033 100.698C338.033 103.578 335.893 105.858 333.173 105.858C331.753 105.858 330.513 105.238 329.633 104.258V110.298H327.593V100.698C327.593 98.7582 327.513 97.6582 327.193 95.6982H329.233C329.313 96.3182 329.393 96.8382 329.453 97.3382C330.333 96.2382 331.673 95.5382 333.173 95.5382C335.893 95.5382 338.033 97.7982 338.033 100.698ZM336.013 100.698C336.013 98.8782 334.613 97.4382 332.813 97.4382C331.033 97.4382 329.633 98.8782 329.633 100.698C329.633 102.518 331.033 103.958 332.813 103.958C334.613 103.958 336.013 102.518 336.013 100.698ZM343.774 95.5382C346.574 95.5382 348.294 96.9382 348.294 99.1782V100.698C348.294 102.638 348.394 103.738 348.694 105.698H346.754C346.674 105.278 346.634 104.878 346.574 104.518C345.814 105.358 344.594 105.858 343.074 105.858C340.854 105.858 339.554 104.758 339.554 102.898C339.554 101.018 340.834 99.9982 343.754 99.6982L346.354 99.4182V99.2982C346.354 98.0382 345.274 97.2782 343.574 97.2782C342.454 97.2782 341.474 97.5982 340.834 98.0982L340.174 96.5782C341.094 95.9182 342.314 95.5382 343.774 95.5382ZM346.354 100.978L343.674 101.258C342.174 101.418 341.494 101.878 341.494 102.718C341.494 103.618 342.314 104.178 343.714 104.178C345.374 104.178 346.354 103.358 346.354 101.938V100.978ZM359.486 104.818C358.546 105.478 357.366 105.858 356.106 105.858C352.986 105.858 350.526 103.598 350.526 100.698C350.526 97.8182 352.986 95.5382 356.106 95.5382C357.366 95.5382 358.546 95.9182 359.486 96.5782L358.766 98.2382C358.126 97.7182 357.246 97.3782 356.266 97.3782C354.186 97.3782 352.546 98.8382 352.546 100.678C352.546 102.558 354.186 103.998 356.266 103.998C357.246 103.998 358.126 103.678 358.766 103.158L359.486 104.818ZM361.615 105.698V95.6982H363.655V99.7182H368.975V95.6982H370.995V105.698H368.975V101.518H363.655V105.698H361.615ZM378.32 95.5382C381.2 95.5382 383.34 97.6182 383.34 100.538C383.34 100.798 383.32 101.058 383.3 101.378H375.28C375.68 103.058 377.26 104.178 379.34 104.178C380.42 104.178 381.44 103.878 382.12 103.398L382.76 104.838C381.78 105.478 380.52 105.858 379.14 105.858C375.74 105.858 373.3 103.638 373.3 100.538C373.3 97.6382 375.4 95.5382 378.32 95.5382ZM375.26 99.8182H381.54C381.36 98.2582 380.12 97.2782 378.46 97.2782C376.8 97.2782 375.56 98.3182 375.26 99.8182ZM385.482 105.698V95.6982H387.522V99.7182H392.842V95.6982H394.862V105.698H392.842V101.518H387.522V105.698H385.482ZM397.747 105.698V95.6982H399.787V102.758L405.327 95.6982H407.347V105.698H405.327V98.5982L399.787 105.698H397.747ZM414.668 95.5382C417.548 95.5382 419.688 97.6182 419.688 100.538C419.688 100.798 419.668 101.058 419.648 101.378H411.628C412.028 103.058 413.608 104.178 415.688 104.178C416.768 104.178 417.788 103.878 418.468 103.398L419.108 104.838C418.128 105.478 416.868 105.858 415.488 105.858C412.088 105.858 409.648 103.638 409.648 100.538C409.648 97.6382 411.748 95.5382 414.668 95.5382ZM411.608 99.8182H417.888C417.708 98.2582 416.468 97.2782 414.808 97.2782C413.148 97.2782 411.908 98.3182 411.608 99.8182ZM287.923 128.698V118.698H294.983V120.478H289.963V128.698H287.923ZM303.587 128.698V120.478H299.507V120.838C299.507 127.058 298.867 128.858 296.667 128.858C296.107 128.858 295.547 128.758 295.247 128.618V126.678C295.527 126.758 295.907 126.838 296.207 126.838C297.287 126.838 297.547 125.718 297.547 120.838V118.698H305.607V128.698H303.587ZM307.89 123.698C307.89 120.818 310.17 118.538 313.11 118.538C316.03 118.538 318.31 120.818 318.31 123.698C318.31 126.598 316.03 128.858 313.11 128.858C310.17 128.858 307.89 126.598 307.89 123.698ZM309.91 123.698C309.91 125.518 311.31 126.958 313.11 126.958C314.89 126.958 316.29 125.518 316.29 123.698C316.29 121.878 314.89 120.438 313.11 120.438C311.31 120.438 309.91 121.878 309.91 123.698ZM323.127 128.698V120.478H319.187V118.698H329.087V120.478H325.147V128.698H323.127ZM330.892 128.698V118.698H332.932V122.698H335.132L338.052 118.698H340.392L336.692 123.598L340.792 128.698H338.392L335.132 124.498H332.932V128.698H330.892ZM342.572 128.698V118.698H344.612V125.758L350.152 118.698H352.172V128.698H350.152V121.598L344.612 128.698H342.572Z" fill="#58595B"/>
<path d="M288.183 19V5H295.003C297.503 5 299.463 6.62 299.463 8.68C299.463 9.94 298.723 11.06 297.563 11.72C299.063 12.32 300.063 13.58 300.063 15.08C300.063 17.28 298.123 19 295.623 19H288.183ZM290.323 10.96H295.003C296.303 10.96 297.323 10.06 297.323 8.92C297.323 7.8 296.303 6.9 295.003 6.9H290.323V10.96ZM290.323 17.1H295.623C296.923 17.1 297.923 16.14 297.923 14.9C297.923 13.7 296.923 12.76 295.623 12.76H290.323V17.1ZM301.62 14C301.62 11.12 303.9 8.84 306.84 8.84C309.76 8.84 312.04 11.12 312.04 14C312.04 16.9 309.76 19.16 306.84 19.16C303.9 19.16 301.62 16.9 301.62 14ZM303.64 14C303.64 15.82 305.04 17.26 306.84 17.26C308.62 17.26 310.02 15.82 310.02 14C310.02 12.18 308.62 10.74 306.84 10.74C305.04 10.74 303.64 12.18 303.64 14ZM322.689 18.12C321.749 18.78 320.569 19.16 319.309 19.16C316.189 19.16 313.729 16.9 313.729 14C313.729 11.12 316.189 8.84 319.309 8.84C320.569 8.84 321.749 9.22 322.689 9.88L321.969 11.54C321.329 11.02 320.449 10.68 319.469 10.68C317.389 10.68 315.749 12.14 315.749 13.98C315.749 15.86 317.389 17.3 319.469 17.3C320.449 17.3 321.329 16.98 321.969 16.46L322.689 18.12ZM324.818 19V9H334.178V19H332.158V10.78H326.858V19H324.818ZM340.884 8.84C343.684 8.84 345.404 10.24 345.404 12.48V14C345.404 15.94 345.504 17.04 345.804 19H343.864C343.784 18.58 343.744 18.18 343.684 17.82C342.924 18.66 341.704 19.16 340.184 19.16C337.964 19.16 336.664 18.06 336.664 16.2C336.664 14.32 337.944 13.3 340.864 13L343.464 12.72V12.6C343.464 11.34 342.384 10.58 340.684 10.58C339.564 10.58 338.584 10.9 337.944 11.4L337.284 9.88C338.204 9.22 339.424 8.84 340.884 8.84ZM343.464 14.28L340.784 14.56C339.284 14.72 338.604 15.18 338.604 16.02C338.604 16.92 339.424 17.48 340.824 17.48C342.484 17.48 343.464 16.66 343.464 15.24V14.28ZM355.794 19V10.78H351.714V11.14C351.714 17.36 351.074 19.16 348.874 19.16C348.314 19.16 347.754 19.06 347.454 18.92V16.98C347.734 17.06 348.114 17.14 348.414 17.14C349.494 17.14 349.754 16.02 349.754 11.14V9H357.814V19H355.794ZM365.137 8.84C368.017 8.84 370.157 10.92 370.157 13.84C370.157 14.1 370.137 14.36 370.117 14.68H362.097C362.497 16.36 364.077 17.48 366.157 17.48C367.237 17.48 368.257 17.18 368.937 16.7L369.577 18.14C368.597 18.78 367.337 19.16 365.957 19.16C362.557 19.16 360.117 16.94 360.117 13.84C360.117 10.94 362.217 8.84 365.137 8.84ZM362.077 13.12H368.357C368.177 11.56 366.937 10.58 365.277 10.58C363.617 10.58 362.377 11.62 362.077 13.12ZM372.298 19V9H374.338V13.02H379.658V9H381.678V19H379.658V14.82H374.338V19H372.298ZM384.564 19V9H386.604V13.02H391.924V9H393.944V19H391.924V14.82H386.604V19H384.564ZM405.509 15.74C405.509 17.56 404.029 19 402.169 19H396.829V9H398.869V12.52H402.169C404.029 12.52 405.509 13.96 405.509 15.74ZM409.209 9V19H407.189V9H409.209ZM398.869 17.26H401.829C402.749 17.26 403.489 16.6 403.489 15.76C403.489 14.92 402.749 14.26 401.829 14.26H398.869V17.26ZM413.523 4.78H415.223C415.223 5.7 415.943 6.42 416.903 6.42C417.823 6.42 418.543 5.7 418.543 4.78H420.263C420.263 6.56 418.803 7.94 416.903 7.94C414.983 7.94 413.523 6.56 413.523 4.78ZM412.083 19V9H414.123V16.08L419.663 9H421.683V19H419.663V11.92L414.123 19H412.083ZM287.463 35.24C287.463 33.36 288.843 32 290.743 32H296.583V42H294.563V38.46L291.863 38.48L289.643 42H287.163L289.763 38.34C288.383 37.96 287.463 36.78 287.463 35.24ZM294.563 36.74V33.74H291.103C290.163 33.74 289.483 34.36 289.483 35.24C289.483 36.12 290.163 36.74 291.103 36.74H294.563ZM302.466 33.58C301.286 33.58 300.026 34 299.406 34.62L298.726 33.08C299.626 32.32 301.106 31.84 302.606 31.84C304.986 31.84 306.666 33.02 306.666 34.7C306.666 35.56 306.206 36.36 305.486 36.86C306.346 37.38 306.906 38.24 306.906 39.22C306.906 40.94 305.146 42.16 302.626 42.16C301.066 42.16 299.526 41.68 298.586 40.9L299.266 39.38C299.926 40 301.346 40.42 302.566 40.42C304.006 40.42 305.006 39.84 305.006 39.02C305.006 38.28 304.266 37.7 303.326 37.7H301.166V36.14H303.186C304.046 36.14 304.766 35.54 304.766 34.88C304.766 34.12 303.806 33.58 302.466 33.58ZM317.775 38.74C317.775 40.56 316.295 42 314.435 42H309.095V32H311.135V35.52H314.435C316.295 35.52 317.775 36.96 317.775 38.74ZM321.475 32V42H319.455V32H321.475ZM311.135 40.26H314.095C315.015 40.26 315.755 39.6 315.755 38.76C315.755 37.92 315.015 37.26 314.095 37.26H311.135V40.26ZM323.538 35.2V32H325.578V34.96C325.578 36.16 326.518 36.86 327.998 36.86C328.798 36.86 329.698 36.66 330.318 36.52V32H332.338V42H330.318V38.34C329.658 38.48 328.658 38.64 327.758 38.64C325.238 38.64 323.538 37.32 323.538 35.2ZM334.647 37C334.647 34.12 336.927 31.84 339.867 31.84C342.787 31.84 345.067 34.12 345.067 37C345.067 39.9 342.787 42.16 339.867 42.16C336.927 42.16 334.647 39.9 334.647 37ZM336.667 37C336.667 38.82 338.067 40.26 339.867 40.26C341.647 40.26 343.047 38.82 343.047 37C343.047 35.18 341.647 33.74 339.867 33.74C338.067 33.74 336.667 35.18 336.667 37ZM347.357 42V32H349.397V36H351.597L354.517 32H356.857L353.157 36.9L357.257 42H354.857L351.597 37.8H349.397V42H347.357Z" fill="#58595B"/>
<path d="M292.523 268.592L293.003 267.672L287.103 257.572H289.463L294.043 265.612L298.183 257.572H300.463L294.323 269.312C293.543 270.772 292.303 271.712 290.763 271.712C290.263 271.712 289.623 271.612 289.283 271.472V269.572C289.743 269.712 290.403 269.812 290.803 269.812C291.603 269.812 292.123 269.372 292.523 268.592ZM310.328 268.692C310.328 270.312 308.868 271.572 306.988 271.572H301.088V261.572H306.608C308.468 261.572 309.908 262.792 309.908 264.332C309.908 265.172 309.488 265.892 308.808 266.372C309.728 266.852 310.328 267.692 310.328 268.692ZM303.028 265.732H306.328C307.268 265.732 308.008 265.132 308.008 264.432C308.008 263.772 307.268 263.252 306.328 263.252H303.028V265.732ZM303.028 269.892H306.728C307.668 269.892 308.428 269.332 308.428 268.612C308.428 267.872 307.668 267.232 306.728 267.232H303.028V269.892ZM316.777 261.412C319.657 261.412 321.797 263.492 321.797 266.412C321.797 266.672 321.777 266.932 321.757 267.252H313.737C314.137 268.932 315.717 270.052 317.797 270.052C318.877 270.052 319.897 269.752 320.577 269.272L321.217 270.712C320.237 271.352 318.977 271.732 317.597 271.732C314.197 271.732 311.757 269.512 311.757 266.412C311.757 263.512 313.857 261.412 316.777 261.412ZM313.717 265.692H319.997C319.817 264.132 318.577 263.152 316.917 263.152C315.257 263.152 314.017 264.192 313.717 265.692ZM331.028 271.572V263.352H326.948V263.712C326.948 269.932 326.308 271.732 324.108 271.732C323.548 271.732 322.988 271.632 322.688 271.492V269.552C322.968 269.632 323.348 269.712 323.648 269.712C324.728 269.712 324.988 268.592 324.988 263.712V261.572H333.048V271.572H331.028ZM335.931 271.572V261.572H337.971V268.632L343.511 261.572H345.531V271.572H343.511V264.472L337.971 271.572H335.931ZM347.991 264.772V261.572H350.031V264.532C350.031 265.732 350.971 266.432 352.451 266.432C353.251 266.432 354.151 266.232 354.771 266.092V261.572H356.791V271.572H354.771V267.912C354.111 268.052 353.111 268.212 352.211 268.212C349.691 268.212 347.991 266.892 347.991 264.772ZM364.14 261.412C367.02 261.412 369.16 263.492 369.16 266.412C369.16 266.672 369.14 266.932 369.12 267.252H361.1C361.5 268.932 363.08 270.052 365.16 270.052C366.24 270.052 367.26 269.752 367.94 269.272L368.58 270.712C367.6 271.352 366.34 271.732 364.96 271.732C361.56 271.732 359.12 269.512 359.12 266.412C359.12 263.512 361.22 261.412 364.14 261.412ZM361.08 265.692H367.36C367.18 264.132 365.94 263.152 364.28 263.152C362.62 263.152 361.38 264.192 361.08 265.692ZM371.302 271.572V261.572H373.342V265.592H378.662V261.572H380.682V271.572H378.662V267.392H373.342V271.572H371.302ZM383.568 271.572V261.572H385.608V265.592H390.928V261.572H392.948V271.572H390.928V267.392H385.608V271.572H383.568ZM404.513 268.312C404.513 270.132 403.033 271.572 401.173 271.572H395.833V261.572H397.873V265.092H401.173C403.033 265.092 404.513 266.532 404.513 268.312ZM408.213 261.572V271.572H406.193V261.572H408.213ZM397.873 269.832H400.833C401.753 269.832 402.493 269.172 402.493 268.332C402.493 267.492 401.753 266.832 400.833 266.832H397.873V269.832ZM415.527 261.412C418.407 261.412 420.547 263.492 420.547 266.412C420.547 266.672 420.527 266.932 420.507 267.252H412.487C412.887 268.932 414.467 270.052 416.547 270.052C417.627 270.052 418.647 269.752 419.327 269.272L419.967 270.712C418.987 271.352 417.727 271.732 416.347 271.732C412.947 271.732 410.507 269.512 410.507 266.412C410.507 263.512 412.607 261.412 415.527 261.412ZM412.467 265.692H418.747C418.567 264.132 417.327 263.152 415.667 263.152C414.007 263.152 412.767 264.192 412.467 265.692ZM287.923 294.572V284.572H289.963V291.632L295.503 284.572H297.523V294.572H295.503V287.472L289.963 294.572H287.923ZM305.579 294.572V284.572H314.939V294.572H312.919V286.352H307.619V294.572H305.579ZM317.225 289.572C317.225 286.692 319.505 284.412 322.445 284.412C325.365 284.412 327.645 286.692 327.645 289.572C327.645 292.472 325.365 294.732 322.445 294.732C319.505 294.732 317.225 292.472 317.225 289.572ZM319.245 289.572C319.245 291.392 320.645 292.832 322.445 292.832C324.225 292.832 325.625 291.392 325.625 289.572C325.625 287.752 324.225 286.312 322.445 286.312C320.645 286.312 319.245 287.752 319.245 289.572ZM329.935 294.572V284.572H331.975V288.572H334.175L337.095 284.572H339.435L335.735 289.472L339.835 294.572H337.435L334.175 290.372H331.975V294.572H329.935ZM352.155 289.572C352.155 292.452 350.015 294.732 347.295 294.732C345.875 294.732 344.635 294.112 343.755 293.132V299.172H341.715V289.572C341.715 287.632 341.635 286.532 341.315 284.572H343.355C343.435 285.192 343.515 285.712 343.575 286.212C344.455 285.112 345.795 284.412 347.295 284.412C350.015 284.412 352.155 286.672 352.155 289.572ZM350.135 289.572C350.135 287.752 348.735 286.312 346.935 286.312C345.155 286.312 343.755 287.752 343.755 289.572C343.755 291.392 345.155 292.832 346.935 292.832C348.735 292.832 350.135 291.392 350.135 289.572ZM357.895 284.412C360.695 284.412 362.415 285.812 362.415 288.052V289.572C362.415 291.512 362.515 292.612 362.815 294.572H360.875C360.795 294.152 360.755 293.752 360.695 293.392C359.935 294.232 358.715 294.732 357.195 294.732C354.975 294.732 353.675 293.632 353.675 291.772C353.675 289.892 354.955 288.872 357.875 288.572L360.475 288.292V288.172C360.475 286.912 359.395 286.152 357.695 286.152C356.575 286.152 355.595 286.472 354.955 286.972L354.295 285.452C355.215 284.792 356.435 284.412 357.895 284.412ZM360.475 289.852L357.795 290.132C356.295 290.292 355.615 290.752 355.615 291.592C355.615 292.492 356.435 293.052 357.835 293.052C359.495 293.052 360.475 292.232 360.475 290.812V289.852ZM373.607 293.692C372.667 294.352 371.487 294.732 370.227 294.732C367.107 294.732 364.647 292.472 364.647 289.572C364.647 286.692 367.107 284.412 370.227 284.412C371.487 284.412 372.667 284.792 373.607 285.452L372.887 287.112C372.247 286.592 371.367 286.252 370.387 286.252C368.307 286.252 366.667 287.712 366.667 289.552C366.667 291.432 368.307 292.872 370.387 292.872C371.367 292.872 372.247 292.552 372.887 292.032L373.607 293.692ZM375.736 294.572V284.572H377.776V288.592H383.096V284.572H385.116V294.572H383.096V290.392H377.776V294.572H375.736ZM392.441 284.412C395.321 284.412 397.461 286.492 397.461 289.412C397.461 289.672 397.441 289.932 397.421 290.252H389.401C389.801 291.932 391.381 293.052 393.461 293.052C394.541 293.052 395.561 292.752 396.241 292.272L396.881 293.712C395.901 294.352 394.641 294.732 393.261 294.732C389.861 294.732 387.421 292.512 387.421 289.412C387.421 286.512 389.521 284.412 392.441 284.412ZM389.381 288.692H395.661C395.481 287.132 394.241 286.152 392.581 286.152C390.921 286.152 389.681 287.192 389.381 288.692ZM408.883 291.692C408.883 293.312 407.423 294.572 405.543 294.572H399.643V284.572H405.163C407.023 284.572 408.463 285.792 408.463 287.332C408.463 288.172 408.043 288.892 407.363 289.372C408.283 289.852 408.883 290.692 408.883 291.692ZM401.583 288.732H404.883C405.823 288.732 406.563 288.132 406.563 287.432C406.563 286.772 405.823 286.252 404.883 286.252H401.583V288.732ZM401.583 292.892H405.283C406.223 292.892 406.983 292.332 406.983 291.612C406.983 290.872 406.223 290.232 405.283 290.232H401.583V292.892ZM411.029 294.572V284.572H413.069V292.772H417.409V284.572H419.429V292.772H423.789V284.572H425.809V294.572H411.029ZM428.704 294.572V284.572H430.744V291.632L436.284 284.572H438.304V294.572H436.284V287.472L430.744 294.572H428.704ZM445.625 284.412C448.505 284.412 450.645 286.492 450.645 289.412C450.645 289.672 450.625 289.932 450.605 290.252H442.585C442.985 291.932 444.565 293.052 446.645 293.052C447.725 293.052 448.745 292.752 449.425 292.272L450.065 293.712C449.085 294.352 447.825 294.732 446.445 294.732C443.045 294.732 440.605 292.512 440.605 289.412C440.605 286.512 442.705 284.412 445.625 284.412ZM442.565 288.692H448.845C448.665 287.132 447.425 286.152 445.765 286.152C444.105 286.152 442.865 287.192 442.565 288.692ZM293.383 315.812L289.963 310.232V317.572H287.923V307.572H290.263L293.803 313.112L297.343 307.572H299.683V317.572H297.663V310.232L294.243 315.812H293.383ZM302.572 317.572V307.572H304.612V314.632L310.152 307.572H312.172V317.572H310.152V310.472L304.612 317.572H302.572ZM315.052 317.572V307.572H317.092V311.592H322.412V307.572H324.432V317.572H322.412V313.392H317.092V317.572H315.052ZM328.578 309.792V307.572H336.818V315.772H338.338V320.292L336.318 320.612V317.572H328.418V320.612L326.398 320.292V315.772H327.418C328.258 315.012 328.578 313.572 328.578 309.792ZM329.618 315.772H334.798V309.352H330.538V309.672C330.478 312.952 330.298 314.632 329.618 315.772ZM343.989 307.412C346.789 307.412 348.509 308.812 348.509 311.052V312.572C348.509 314.512 348.609 315.612 348.909 317.572H346.969C346.889 317.152 346.849 316.752 346.789 316.392C346.029 317.232 344.809 317.732 343.289 317.732C341.069 317.732 339.769 316.632 339.769 314.772C339.769 312.892 341.049 311.872 343.969 311.572L346.569 311.292V311.172C346.569 309.912 345.489 309.152 343.789 309.152C342.669 309.152 341.689 309.472 341.049 309.972L340.389 308.452C341.309 307.792 342.529 307.412 343.989 307.412ZM346.569 312.852L343.889 313.132C342.389 313.292 341.709 313.752 341.709 314.592C341.709 315.492 342.529 316.052 343.929 316.052C345.589 316.052 346.569 315.232 346.569 313.812V312.852ZM358.899 317.572V309.352H354.819V309.712C354.819 315.932 354.179 317.732 351.979 317.732C351.419 317.732 350.859 317.632 350.559 317.492V315.552C350.839 315.632 351.219 315.712 351.519 315.712C352.599 315.712 352.859 314.592 352.859 309.712V307.572H360.919V317.572H358.899ZM363.802 317.572V307.572H365.842V314.632L371.382 307.572H373.402V317.572H371.382V310.472L365.842 317.572H363.802ZM376.283 317.572V307.572H378.323V311.592H383.643V307.572H385.663V317.572H383.643V313.392H378.323V317.572H376.283ZM397.228 314.312C397.228 316.132 395.748 317.572 393.888 317.572H388.548V307.572H390.588V311.092H393.888C395.748 311.092 397.228 312.532 397.228 314.312ZM400.928 307.572V317.572H398.908V307.572H400.928ZM390.588 315.832H393.548C394.468 315.832 395.208 315.172 395.208 314.332C395.208 313.492 394.468 312.832 393.548 312.832H390.588V315.832Z" fill="#58595B"/>
<path d="M295.643 174.572V168.492H293.463L289.263 174.572H286.843L291.743 167.472L287.443 160.572H289.763L293.543 166.572H295.643V160.572H297.783V166.572H299.863L303.643 160.572H305.983L301.663 167.472L306.563 174.572H304.143L299.943 168.492H297.783V174.572H295.643ZM312.207 164.412C315.087 164.412 317.227 166.492 317.227 169.412C317.227 169.672 317.207 169.932 317.187 170.252H309.167C309.567 171.932 311.147 173.052 313.227 173.052C314.307 173.052 315.327 172.752 316.007 172.272L316.647 173.712C315.667 174.352 314.407 174.732 313.027 174.732C309.627 174.732 307.187 172.512 307.187 169.412C307.187 166.512 309.287 164.412 312.207 164.412ZM309.147 168.692H315.427C315.247 167.132 314.007 166.152 312.347 166.152C310.687 166.152 309.447 167.192 309.147 168.692ZM326.458 174.572V166.352H322.378V166.712C322.378 172.932 321.738 174.732 319.538 174.732C318.978 174.732 318.418 174.632 318.118 174.492V172.552C318.398 172.632 318.778 172.712 319.078 172.712C320.158 172.712 320.418 171.592 320.418 166.712V164.572H328.478V174.572H326.458ZM334.221 174.572V166.352H330.281V164.572H340.181V166.352H336.241V174.572H334.221ZM341.054 169.572C341.054 166.692 343.334 164.412 346.274 164.412C349.194 164.412 351.474 166.692 351.474 169.572C351.474 172.472 349.194 174.732 346.274 174.732C343.334 174.732 341.054 172.472 341.054 169.572ZM343.074 169.572C343.074 171.392 344.474 172.832 346.274 172.832C348.054 172.832 349.454 171.392 349.454 169.572C349.454 167.752 348.054 166.312 346.274 166.312C344.474 166.312 343.074 167.752 343.074 169.572ZM363.043 171.692C363.043 173.312 361.583 174.572 359.703 174.572H353.803V164.572H359.323C361.183 164.572 362.623 165.792 362.623 167.332C362.623 168.172 362.203 168.892 361.523 169.372C362.443 169.852 363.043 170.692 363.043 171.692ZM355.743 168.732H359.043C359.983 168.732 360.723 168.132 360.723 167.432C360.723 166.772 359.983 166.252 359.043 166.252H355.743V168.732ZM355.743 172.892H359.443C360.383 172.892 361.143 172.332 361.143 171.612C361.143 170.872 360.383 170.232 359.443 170.232H355.743V172.892ZM368.872 164.412C371.672 164.412 373.392 165.812 373.392 168.052V169.572C373.392 171.512 373.492 172.612 373.792 174.572H371.852C371.772 174.152 371.732 173.752 371.672 173.392C370.912 174.232 369.692 174.732 368.172 174.732C365.952 174.732 364.652 173.632 364.652 171.772C364.652 169.892 365.932 168.872 368.852 168.572L371.452 168.292V168.172C371.452 166.912 370.372 166.152 368.672 166.152C367.552 166.152 366.572 166.472 365.932 166.972L365.272 165.452C366.192 164.792 367.412 164.412 368.872 164.412ZM371.452 169.852L368.772 170.132C367.272 170.292 366.592 170.752 366.592 171.592C366.592 172.492 367.412 173.052 368.812 173.052C370.472 173.052 371.452 172.232 371.452 170.812V169.852ZM378.889 174.572V166.352H374.949V164.572H384.849V166.352H380.909V174.572H378.889ZM395.334 171.312C395.334 173.132 393.854 174.572 391.994 174.572H386.654V164.572H388.694V168.092H391.994C393.854 168.092 395.334 169.532 395.334 171.312ZM399.034 164.572V174.572H397.014V164.572H399.034ZM388.694 172.832H391.654C392.574 172.832 393.314 172.172 393.314 171.332C393.314 170.492 392.574 169.832 391.654 169.832H388.694V172.832ZM403.348 160.352H405.048C405.048 161.272 405.768 161.992 406.728 161.992C407.648 161.992 408.368 161.272 408.368 160.352H410.088C410.088 162.132 408.628 163.512 406.728 163.512C404.808 163.512 403.348 162.132 403.348 160.352ZM401.908 174.572V164.572H403.948V171.652L409.488 164.572H411.508V174.572H409.488V167.492L403.948 174.572H401.908ZM419.564 174.572V164.572H421.604V168.592H426.924V164.572H428.944V174.572H426.924V170.392H421.604V174.572H419.564ZM435.649 164.412C438.449 164.412 440.169 165.812 440.169 168.052V169.572C440.169 171.512 440.269 172.612 440.569 174.572H438.629C438.549 174.152 438.509 173.752 438.449 173.392C437.689 174.232 436.469 174.732 434.949 174.732C432.729 174.732 431.429 173.632 431.429 171.772C431.429 169.892 432.709 168.872 435.629 168.572L438.229 168.292V168.172C438.229 166.912 437.149 166.152 435.449 166.152C434.329 166.152 433.349 166.472 432.709 166.972L432.049 165.452C432.969 164.792 434.189 164.412 435.649 164.412ZM438.229 169.852L435.549 170.132C434.049 170.292 433.369 170.752 433.369 171.592C433.369 172.492 434.189 173.052 435.589 173.052C437.249 173.052 438.229 172.232 438.229 170.812V169.852ZM450.559 174.572V166.352H446.479V166.712C446.479 172.932 445.839 174.732 443.639 174.732C443.079 174.732 442.519 174.632 442.219 174.492V172.552C442.499 172.632 442.879 172.712 443.179 172.712C444.259 172.712 444.519 171.592 444.519 166.712V164.572H452.579V174.572H450.559ZM459.902 164.412C462.782 164.412 464.922 166.492 464.922 169.412C464.922 169.672 464.902 169.932 464.882 170.252H456.862C457.262 171.932 458.842 173.052 460.922 173.052C462.002 173.052 463.022 172.752 463.702 172.272L464.342 173.712C463.362 174.352 462.102 174.732 460.722 174.732C457.322 174.732 454.882 172.512 454.882 169.412C454.882 166.512 456.982 164.412 459.902 164.412ZM456.842 168.692H463.122C462.942 167.132 461.702 166.152 460.042 166.152C458.382 166.152 457.142 167.192 456.842 168.692ZM469.572 174.572V166.352H465.632V164.572H475.532V166.352H471.592V174.572H469.572ZM287.923 197.572V187.572H289.963V191.592H295.283V187.572H297.303V197.572H295.283V193.392H289.963V197.572H287.923ZM304.009 187.412C306.809 187.412 308.529 188.812 308.529 191.052V192.572C308.529 194.512 308.629 195.612 308.929 197.572H306.989C306.909 197.152 306.869 196.752 306.809 196.392C306.049 197.232 304.829 197.732 303.309 197.732C301.089 197.732 299.789 196.632 299.789 194.772C299.789 192.892 301.069 191.872 303.989 191.572L306.589 191.292V191.172C306.589 189.912 305.509 189.152 303.809 189.152C302.689 189.152 301.709 189.472 301.069 189.972L300.409 188.452C301.329 187.792 302.549 187.412 304.009 187.412ZM306.589 192.852L303.909 193.132C302.409 193.292 301.729 193.752 301.729 194.592C301.729 195.492 302.549 196.052 303.949 196.052C305.609 196.052 306.589 195.232 306.589 193.812V192.852ZM322.153 195.812L318.733 190.232V197.572H316.693V187.572H319.033L322.573 193.112L326.113 187.572H328.453V197.572H326.433V190.232L323.013 195.812H322.153ZM331.341 197.572V187.572H333.381V194.632L338.921 187.572H340.941V197.572H338.921V190.472L333.381 197.572H331.341ZM343.822 197.572V187.572H345.862V191.592H351.182V187.572H353.202V197.572H351.182V193.392H345.862V197.572H343.822ZM357.347 189.792V187.572H365.587V195.772H367.107V200.292L365.087 200.612V197.572H357.187V200.612L355.167 200.292V195.772H356.187C357.027 195.012 357.347 193.572 357.347 189.792ZM358.387 195.772H363.567V189.352H359.307V189.672C359.247 192.952 359.067 194.632 358.387 195.772ZM372.759 187.412C375.559 187.412 377.279 188.812 377.279 191.052V192.572C377.279 194.512 377.379 195.612 377.679 197.572H375.739C375.659 197.152 375.619 196.752 375.559 196.392C374.799 197.232 373.579 197.732 372.059 197.732C369.839 197.732 368.539 196.632 368.539 194.772C368.539 192.892 369.819 191.872 372.739 191.572L375.339 191.292V191.172C375.339 189.912 374.259 189.152 372.559 189.152C371.439 189.152 370.459 189.472 369.819 189.972L369.159 188.452C370.079 187.792 371.299 187.412 372.759 187.412ZM375.339 192.852L372.659 193.132C371.159 193.292 370.479 193.752 370.479 194.592C370.479 195.492 371.299 196.052 372.699 196.052C374.359 196.052 375.339 195.232 375.339 193.812V192.852ZM387.669 197.572V189.352H383.589V189.712C383.589 195.932 382.949 197.732 380.749 197.732C380.189 197.732 379.629 197.632 379.329 197.492V195.552C379.609 195.632 379.989 195.712 380.289 195.712C381.369 195.712 381.629 194.592 381.629 189.712V187.572H389.689V197.572H387.669ZM392.572 197.572V187.572H394.612V194.632L400.152 187.572H402.172V197.572H400.152V190.472L394.612 197.572H392.572ZM405.052 197.572V187.572H407.092V191.592H412.412V187.572H414.432V197.572H412.412V193.392H407.092V197.572H405.052ZM421.138 187.412C423.938 187.412 425.658 188.812 425.658 191.052V192.572C425.658 194.512 425.758 195.612 426.058 197.572H424.118C424.038 197.152 423.998 196.752 423.938 196.392C423.178 197.232 421.958 197.732 420.438 197.732C418.218 197.732 416.918 196.632 416.918 194.772C416.918 192.892 418.198 191.872 421.118 191.572L423.718 191.292V191.172C423.718 189.912 422.638 189.152 420.938 189.152C419.818 189.152 418.838 189.472 418.198 189.972L417.538 188.452C418.458 187.792 419.678 187.412 421.138 187.412ZM423.718 192.852L421.038 193.132C419.538 193.292 418.858 193.752 418.858 194.592C418.858 195.492 419.678 196.052 421.078 196.052C422.738 196.052 423.718 195.232 423.718 193.812V192.852ZM432.926 191.192L435.706 187.572H438.126L434.306 192.512L438.226 197.572H435.806L432.926 193.812L430.026 197.572H427.606L431.546 192.512L427.706 187.572H430.126L432.926 191.192Z" fill="#58595B"/>
<path d="M275.175 103.662L152.666 114.97" stroke="#828282" stroke-width="1.15625"/>
<path d="M275.175 20.7324L122.509 107.431" stroke="#828282" stroke-width="1.15625"/>
<path d="M189 176.572L275 176.572" stroke="#828282" stroke-width="1.15625"/>
<path d="M197 186.572L275 268.572" stroke="#828282" stroke-width="1.15625"/>
<defs>
<linearGradient id="paint0_linear_2837_529" x1="128.326" y1="263.012" x2="128.326" y2="164.959" gradientUnits="userSpaceOnUse">
<stop stop-color="#FFD2D2"/>
<stop offset="0.377" stop-color="#FBC6C6"/>
<stop offset="1" stop-color="#F4B3B3"/>
</linearGradient>
<linearGradient id="paint1_linear_2837_529" x1="142.475" y1="263.011" x2="142.475" y2="164.959" gradientUnits="userSpaceOnUse">
<stop stop-color="#FFD2D2"/>
<stop offset="1" stop-color="#F4B3B3"/>
</linearGradient>
<linearGradient id="paint2_linear_2837_529" x1="110.107" y1="263.012" x2="110.107" y2="164.96" gradientUnits="userSpaceOnUse">
<stop stop-color="#FFD2D2"/>
<stop offset="1" stop-color="#F4B3B3"/>
</linearGradient>
<linearGradient id="paint3_linear_2837_529" x1="158.515" y1="263.012" x2="158.515" y2="164.959" gradientUnits="userSpaceOnUse">
<stop stop-color="#FFD2D2"/>
<stop offset="1" stop-color="#F4B3B3"/>
</linearGradient>
<linearGradient id="paint4_linear_2837_529" x1="155.39" y1="263.012" x2="155.39" y2="164.959" gradientUnits="userSpaceOnUse">
<stop stop-color="#FFD2D2"/>
<stop offset="1" stop-color="#F4B3B3"/>
</linearGradient>
<linearGradient id="paint5_linear_2837_529" x1="160.567" y1="263.012" x2="160.567" y2="164.96" gradientUnits="userSpaceOnUse">
<stop stop-color="#FFD2D2"/>
<stop offset="1" stop-color="#F4B3B3"/>
</linearGradient>
<linearGradient id="paint6_linear_2837_529" x1="141.882" y1="263.012" x2="141.882" y2="164.959" gradientUnits="userSpaceOnUse">
<stop stop-color="#FFD2D2"/>
<stop offset="1" stop-color="#F4B3B3"/>
</linearGradient>
<linearGradient id="paint7_linear_2837_529" x1="140.723" y1="263.012" x2="140.723" y2="164.959" gradientUnits="userSpaceOnUse">
<stop stop-color="#FFD2D2"/>
<stop offset="1" stop-color="#F4B3B3"/>
</linearGradient>
<linearGradient id="paint8_linear_2837_529" x1="78.664" y1="263.012" x2="78.664" y2="164.959" gradientUnits="userSpaceOnUse">
<stop stop-color="#FFD2D2"/>
<stop offset="1" stop-color="#F4B3B3"/>
</linearGradient>
<linearGradient id="paint9_linear_2837_529" x1="121.938" y1="263.012" x2="121.938" y2="164.96" gradientUnits="userSpaceOnUse">
<stop stop-color="#FFD2D2"/>
<stop offset="1" stop-color="#F4B3B3"/>
</linearGradient>
<linearGradient id="paint10_linear_2837_529" x1="76.3472" y1="263.012" x2="76.3472" y2="164.959" gradientUnits="userSpaceOnUse">
<stop stop-color="#FFD2D2"/>
<stop offset="1" stop-color="#F4B3B3"/>
</linearGradient>
<linearGradient id="paint11_linear_2837_529" x1="87.2777" y1="263.012" x2="87.2777" y2="164.96" gradientUnits="userSpaceOnUse">
<stop stop-color="#FFD2D2"/>
<stop offset="1" stop-color="#F4B3B3"/>
</linearGradient>
<linearGradient id="paint12_linear_2837_529" x1="108.138" y1="263.012" x2="108.138" y2="164.96" gradientUnits="userSpaceOnUse">
<stop stop-color="#FFD2D2"/>
<stop offset="1" stop-color="#F4B3B3"/>
</linearGradient>
<linearGradient id="paint13_linear_2837_529" x1="98.3246" y1="263.012" x2="98.3246" y2="164.96" gradientUnits="userSpaceOnUse">
<stop stop-color="#FFD2D2"/>
<stop offset="1" stop-color="#F4B3B3"/>
</linearGradient>
<linearGradient id="paint14_linear_2837_529" x1="171.841" y1="263.012" x2="171.841" y2="164.959" gradientUnits="userSpaceOnUse">
<stop stop-color="#FFD2D2"/>
<stop offset="1" stop-color="#F4B3B3"/>
</linearGradient>
<linearGradient id="paint15_linear_2837_529" x1="101.151" y1="263.012" x2="101.151" y2="164.96" gradientUnits="userSpaceOnUse">
<stop stop-color="#FFD2D2"/>
<stop offset="1" stop-color="#F4B3B3"/>
</linearGradient>
<linearGradient id="paint16_linear_2837_529" x1="94.2697" y1="263.012" x2="94.2697" y2="164.959" gradientUnits="userSpaceOnUse">
<stop stop-color="#FFD2D2"/>
<stop offset="1" stop-color="#F4B3B3"/>
</linearGradient>
<linearGradient id="paint17_linear_2837_529" x1="118.187" y1="263.012" x2="118.187" y2="164.959" gradientUnits="userSpaceOnUse">
<stop stop-color="#FFD2D2"/>
<stop offset="1" stop-color="#F4B3B3"/>
</linearGradient>
<linearGradient id="paint18_linear_2837_529" x1="87.2777" y1="263.012" x2="87.2777" y2="164.959" gradientUnits="userSpaceOnUse">
<stop stop-color="#FFD2D2"/>
<stop offset="1" stop-color="#F4B3B3"/>
</linearGradient>
<linearGradient id="paint19_linear_2837_529" x1="119.136" y1="263.012" x2="119.136" y2="164.959" gradientUnits="userSpaceOnUse">
<stop stop-color="#FFD2D2"/>
<stop offset="1" stop-color="#F4B3B3"/>
</linearGradient>
</defs>
</svg>
