<svg width="544" height="362" viewBox="0 0 544 362" fill="none" xmlns="http://www.w3.org/2000/svg">
<path d="M239.042 116.619C238.968 113.768 238.599 110.917 237.875 108.14C226.146 63.0428 204.181 29.0095 174.579 12.7313C167.637 8.09312 148.345 0.0722427 133.426 1.35736C128.684 1.77096 124.061 4.37073 120.161 4.37073C116.262 4.37073 111.505 1.71187 106.69 1.32781C91.8002 0.131328 72.6712 8.10789 65.7582 12.7166C36.4812 28.8174 14.6934 62.2747 2.86148 106.633C1.91611 110.208 1.44342 113.901 1.51727 117.594L2.49219 169.752C2.49219 169.752 -1.93922 337.865 120.856 337.865C243.178 337.865 240.534 171.687 240.534 171.687L240.519 169.752L239.042 116.619Z" fill="#FFF5F5"/>
<path d="M200.606 102.35L204.713 107.254C204.964 111.596 207.431 114.994 211.966 114.728L226.368 113.886L227.254 113.472C211.109 78.3313 179.882 35.1396 123.958 35.1396C67.3535 35.1396 35.5653 79.4096 19.2134 114.802L19.2429 114.817H36.9834C41.533 114.817 43.793 111.286 43.793 106.929L46.9836 102.35C46.9836 102.35 61.2233 81.4185 79.9387 71.6398C98.8166 61.7725 123.308 60.1624 123.308 60.1624C123.308 60.1624 148.773 61.7725 167.651 71.6398C186.367 81.4185 200.606 102.35 200.606 102.35Z" fill="white"/>
<path d="M145.937 276.416C145.937 276.416 145.789 278.38 141.328 279.607C136.867 280.833 130.53 281.645 125.39 279.71L121.461 278.174V278.44L117.783 279.592C112.672 281.601 106.985 281.63 101.844 279.695L97.2062 277.863V278.159C97.2062 278.159 97.2653 280.389 88.624 282.236C79.9384 284.082 72.6561 278.986 72.6561 278.986L69.7904 278.174C37.0865 257.966 19.1392 220.595 10.2764 195.409L11.5615 195.734H28.785C33.3346 195.734 35.5946 199.265 35.5946 203.622L39.9374 214.804L39.6124 214.361C40.7498 215.794 41.3111 217.759 41.3111 219.93L50.7796 232.796C56.5552 236.828 67.8849 254.008 75.5956 255.234C88.9194 257.376 121.564 258.823 121.564 258.823H121.845C121.845 258.823 154.49 257.376 167.814 255.234C175.524 253.993 188.538 235.145 194.313 231.112L202.113 219.93C202.113 217.759 202.674 215.779 203.812 214.361L203.487 214.804L206.264 203.622C206.264 199.265 208.524 195.734 213.073 195.734H231.922L234.831 193.445C226.766 218.615 209.247 257.449 174.283 278.188L170.458 277.937C170.458 277.937 165.672 281.261 157.813 280.862C149.94 280.463 145.612 277.095 145.612 277.095" fill="white"/>
<path d="M46.2203 308.924L46.2205 308.924C65.4899 328.549 90.407 338.5 120.352 338.5C150.326 338.5 175.377 328.563 194.808 308.966L194.808 308.966C219.15 284.439 230.275 248.879 235.329 223.327C240.695 196.207 240.506 174.345 240.497 173.388C240.497 173.375 240.497 173.365 240.497 173.36L240.497 173.356M46.2203 308.924L240.997 173.356H240.497M46.2203 308.924C35.4606 297.973 26.4173 283.918 19.3328 267.14C13.6856 253.752 9.26749 238.625 6.19887 222.151C1.11566 194.834 1.49233 172.753 1.51417 171.473C1.51454 171.451 1.51481 171.435 1.51495 171.425L1.51496 171.425C1.52435 170.95 1.89822 170.547 2.3897 170.5H2.38991H2.39014H2.39038H2.39061H2.39084H2.39108H2.39131H2.39154H2.39178H2.39201H2.39224H2.39247H2.3927H2.39293H2.39317H2.3934H2.39363H2.39386H2.39409H2.39432H2.39455H2.39478H2.39501H2.39524H2.39547H2.3957H2.39592H2.39615H2.39638H2.39661H2.39684H2.39707H2.39729H2.39752H2.39775H2.39798H2.3982H2.39843H2.39866H2.39888H2.39911H2.39933H2.39956H2.39979H2.40001H2.40024H2.40046H2.40069H2.40091H2.40114H2.40136H2.40159H2.40181H2.40204H2.40226H2.40248H2.40271H2.40293H2.40315H2.40338H2.4036H2.40382H2.40405H2.40427H2.40449H2.40472H2.40494H2.40516H2.40538H2.4056H2.40583H2.40605H2.40627H2.40649H2.40671H2.40693H2.40715H2.40738H2.4076H2.40782H2.40804H2.40826H2.40848H2.4087H2.40892H2.40914H2.40936H2.40958H2.4098H2.41002H2.41024H2.41046H2.41068H2.4109H2.41111H2.41133H2.41155H2.41177H2.41199H2.41221H2.41243H2.41265H2.41286H2.41308H2.4133H2.41352H2.41374H2.41395H2.41417H2.41439H2.41461H2.41483H2.41504H2.41526H2.41548H2.4157H2.41591H2.41613H2.41635H2.41656H2.41678H2.417H2.41722H2.41743H2.41765H2.41787H2.41808H2.4183H2.41852H2.41873H2.41895H2.41916H2.41938H2.4196H2.41981H2.42003H2.42025H2.42046H2.42068H2.42089H2.42111H2.42133H2.42154H2.42176H2.42197H2.42219H2.42241H2.42262H2.42284H2.42305H2.42327H2.42348H2.4237H2.42392H2.42413H2.42435H2.42456H2.42478H2.42499H2.42521H2.42542H2.42564H2.42586H2.42607H2.42629H2.4265H2.42672H2.42693H2.42715H2.42736H2.42758H2.42779H2.42801H2.42823H2.42844H2.42866H2.42887H2.42909H2.4293H2.42952H2.42973H2.42995H2.43017H2.43038H2.4306H2.43081H2.43103H2.43124H2.43146H2.43168H2.43189H2.43211H2.43232H2.43254H2.43275H2.43297H2.43319H2.4334H2.43362H2.43383H2.43405H2.43427H2.43448H2.4347H2.43492H2.43513H2.43535H2.43556H2.43578H2.436H2.43621H2.43643H2.43665H2.43686H2.43708H2.4373H2.43751H2.43773H2.43795H2.43817H2.43838H2.4386H2.43882H2.43904H2.43925H2.43947H2.43969H2.43991H2.44012H2.44034H2.44056H2.44078H2.441H2.44121H2.44143H2.44165H2.44187H2.44209H2.44231H2.44252H2.44274H2.44296H2.44318H2.4434H2.44362H2.44384H2.44406H2.44428H2.4445H2.44472H2.44494H2.44516H2.44538H2.4456H2.44582H2.44604H2.44626H2.44648H2.4467H2.44692H2.44714H2.44736H2.44758H2.44781H2.44803H2.44825H2.44847H2.44869H2.44891H2.44914H2.44936H2.44958H2.4498H2.45003H2.45025H2.45047H2.45069H2.45092H2.45114H2.45136H2.45159H2.45181H2.45204H2.45226H2.45248H2.45271H2.45293H2.45316H2.45338H2.45361H2.45383H2.45406H2.45428H2.45451H2.45474H2.45496H2.45519H2.45541H2.45564H2.45587H2.45609H2.45632H2.45655H2.45678H2.457H2.45723H2.45746H2.45769H2.45792H2.45814H2.45837H2.4586H2.45883H2.45906H2.45929H2.45952H2.45975H2.45998H2.46021H2.46044H2.46067H2.4609H2.46113H2.46136H2.46159H2.46182H2.46206H2.46229H2.46252H2.46275H2.46299H2.46322H2.46345H2.46369H2.46392H2.46415H2.46439H2.46462H2.46485H2.46509H2.46532H2.46556H2.46579H2.46603H2.46627H2.4665H2.46674H2.46697H2.46721H2.46745H2.46768H2.46792H2.46816H2.4684H2.46864H2.46887H2.46911H2.46935H2.46959H2.46983H2.47007H2.47031H2.47055H2.47079H2.47103H2.47127H2.47151H2.47175H2.472H2.47224H2.47248H2.47272H2.47296H2.47321H2.47345H2.47369H2.47394H2.47418H2.47443H2.47467H2.47492H2.47516H2.47541H2.47565H2.4759H2.47614H2.47639H2.47664H2.47689H2.47713H2.47738H2.47763H2.47788H2.47813H2.47837H2.47862H2.47887H2.47912H2.47937H2.47962H2.47987H2.48012H2.48038H2.48063H2.48088H2.48113H2.48138H2.48164H2.48189H2.48214H2.4824H2.48265H2.48291H2.48316H2.48342H2.48367H2.48393H2.48418H2.48444H2.4847H2.48495H2.48521H2.48547H2.48573H2.48599C2.94317 170.5 3.35061 170.831 3.43656 171.277L3.43662 171.277C3.62007 172.292 9.63827 202.144 26.7208 231.643L27.1535 231.392L26.7208 231.643C36.8388 249.114 48.8257 263.062 62.35 273.048C79.1911 285.502 98.4912 291.811 119.69 291.811C142.366 291.811 162.723 285.507 180.17 273.068C194.168 263.096 206.334 249.175 216.366 231.714L215.933 231.465C233.025 201.71 238.011 171.532 238.055 171.226L238.549 171.307C238.549 171.306 238.549 171.306 238.549 171.305C238.627 170.838 239.03 170.5 239.512 170.5H239.512H239.512H239.512H239.512H239.512H239.513H239.513H239.513H239.513H239.513H239.514H239.514H239.514H239.514H239.514H239.514H239.515H239.515H239.515H239.515H239.515H239.515H239.516H239.516H239.516H239.516H239.516H239.517H239.517H239.517H239.517H239.517H239.517H239.518H239.518H239.518H239.518H239.518H239.519H239.519H239.519H239.519H239.519H239.519H239.52H239.52H239.52H239.52H239.52H239.521H239.521H239.521H239.521H239.521H239.522H239.522H239.522H239.522H239.522H239.522H239.523H239.523H239.523H239.523H239.523H239.524H239.524H239.524H239.524H239.524H239.525H239.525H239.525H239.525H239.525H239.526H239.526H239.526H239.526H239.526H239.527H239.527H239.527H239.527H239.527H239.528H239.528H239.528H239.528H239.528H239.529H239.529H239.529H239.529H239.529H239.529H239.53H239.53H239.53H239.53H239.53H239.531H239.531H239.531H239.531H239.531H239.532H239.532H239.532H239.532H239.532H239.533H239.533H239.533H239.533H239.533H239.534H239.534H239.534H239.534H239.535H239.535H239.535H239.535H239.535H239.536H239.536H239.536H239.536H239.536H239.537H239.537H239.537H239.537H239.537H239.538H239.538H239.538H239.538H239.538H239.539H239.539H239.539H239.539H239.539H239.54H239.54H239.54H239.54H239.54H239.541H239.541H239.541H239.541H239.542H239.542H239.542H239.542H239.542H239.543H239.543H239.543H239.543H239.543H239.544H239.544H239.544H239.544H239.544H239.545H239.545H239.545H239.545H239.546H239.546H239.546H239.546H239.546H239.547H239.547H239.547H239.547H239.547H239.548H239.548H239.548H239.548H239.548H239.549H239.549H239.549H239.549H239.55H239.55H239.55H239.55H239.55H239.551H239.551H239.551H239.551H239.551H239.552H239.552H239.552H239.552H239.553H239.553H239.553H239.553H239.553H239.554H239.554H239.554H239.554H239.554H239.555H239.555H239.555H239.555H239.556H239.556H239.556H239.556H239.556H239.557H239.557H239.557H239.557H239.557H239.558H239.558H239.558H239.558H239.559H239.559H239.559H239.559H239.559H239.56H239.56H239.56H239.56H239.56H239.561H239.561H239.561H239.561H239.562H239.562H239.562H239.562H239.562H239.563H239.563H239.563H239.563H239.563H239.564H239.564H239.564H239.564H239.565H239.565H239.565H239.565H239.565H239.566H239.566H239.566H239.566H239.567H239.567H239.567H239.567H239.567H239.568H239.568H239.568H239.568H239.568H239.569H239.569H239.569H239.569H239.57H239.57H239.57H239.57H239.57H239.571H239.571H239.571H239.571H239.571H239.572H239.572H239.572H239.572H239.573H239.573H239.573H239.573H239.573H239.574H239.574H239.574H239.574H239.574H239.575H239.575H239.575H239.575H239.576H239.576H239.576H239.576H239.576H239.577H239.577H239.577H239.577H239.577H239.578H239.578H239.578H239.578H239.578H239.579H239.579H239.579H239.579H239.58H239.58H239.58H239.58H239.58H239.581H239.581H239.581H239.581H239.581H239.582H239.582H239.582H239.582H239.583H239.583H239.583H239.583H239.583H239.584H239.584H239.584H239.584H239.584H239.585H239.585H239.585H239.585H239.585H239.586H239.586H239.586H239.586H239.586H239.587H239.587H239.587H239.587H239.588H239.588H239.588H239.588H239.588H239.589H239.589H239.589H239.589H239.589H239.59H239.59H239.59H239.59H239.59H239.591H239.591H239.591H239.591H239.591H239.592H239.592H239.592H239.592H239.592H239.593H239.593H239.593H239.593H239.593H239.594C240.092 170.547 240.472 170.957 240.483 171.452M46.2203 308.924L240.483 171.452M240.497 173.356L240.483 171.454M240.497 173.356L240.483 171.454M240.483 171.454C240.483 171.454 240.483 171.453 240.483 171.452M240.483 171.454L240.483 171.452" fill="#FFF5F5" stroke="black"/>
<path d="M197.682 138.51C197.682 138.51 178.937 121.759 173.663 147.388C171.285 158.909 171.462 169.131 175.805 174.656C210.843 219.324 208.76 171.583 208.76 171.583L203.62 153.148L197.682 138.51Z" fill="#FF7B7B" stroke="#EF6250" stroke-miterlimit="10" stroke-linecap="round" stroke-linejoin="round"/>
<path d="M45.6396 138.568C45.6396 138.568 64.7539 122.054 70.042 147.682C72.4202 159.204 71.0022 168.643 66.6741 174.182C31.6363 218.851 33.5714 171.582 33.5714 171.582L39.7163 151.862L45.6396 138.568Z" fill="#FF7B7B" stroke="#EF6250" stroke-miterlimit="10" stroke-linecap="round" stroke-linejoin="round"/>
<path d="M188.553 152.306C187.933 152.306 187.268 152.144 186.603 151.834C185.629 151.376 184.801 150.578 184.137 149.441C183.516 148.377 183.295 147.21 183.457 145.94C183.679 144.271 185.525 138.392 188.908 138.392C189.366 138.392 189.824 138.51 190.267 138.717C192.911 140.016 193.118 144.655 193.118 146.043C193.118 147.343 192.719 148.85 192.084 149.972C191.227 151.464 189.971 152.306 188.553 152.306Z" fill="#FFFACF"/>
<path d="M188.893 139.115C189.233 139.115 189.572 139.189 189.927 139.366C191.995 140.371 192.364 144.167 192.364 146.028C192.364 148.155 191.138 151.553 188.524 151.553C188.021 151.553 187.49 151.435 186.884 151.154C185.939 150.711 185.244 149.913 184.742 149.056C184.151 148.052 184.018 147.033 184.151 146.028C184.417 144.3 186.204 139.115 188.893 139.115ZM188.893 137.638C185.052 137.638 182.999 143.739 182.718 145.836C182.526 147.269 182.792 148.599 183.486 149.81C184.225 151.08 185.17 151.981 186.278 152.498C187.046 152.853 187.8 153.045 188.538 153.045C192.157 153.045 193.856 148.864 193.856 146.043C193.856 144.123 193.531 139.499 190.592 138.052C190.03 137.786 189.469 137.638 188.893 137.638Z" fill="#EF6250"/>
<path d="M194.86 168.392C194.284 168.392 193.664 168.304 193.014 168.111C191.832 167.786 190.857 167.092 190.104 166.058C189.277 164.921 187.15 160.77 188.021 158.096C188.331 157.122 189.026 156.442 190.015 156.117C190.34 156.014 190.695 155.955 191.064 155.955C193.634 155.955 196.382 158.599 197.165 159.411C198.553 160.844 199.691 163.355 199.203 165.349C198.982 166.25 198.332 167.476 196.47 168.111C195.953 168.304 195.422 168.392 194.86 168.392Z" fill="#FFFACF"/>
<path d="M191.049 156.723C193.103 156.723 195.481 158.776 196.618 159.958C198.376 161.789 200.119 166.103 196.234 167.447C195.791 167.595 195.333 167.668 194.875 167.668C194.314 167.668 193.753 167.565 193.236 167.417C192.128 167.107 191.315 166.457 190.71 165.645C189.543 164.064 186.781 157.964 190.237 156.856C190.488 156.767 190.769 156.723 191.049 156.723ZM191.049 155.246C190.606 155.246 190.178 155.305 189.779 155.438C188.553 155.836 187.711 156.678 187.312 157.89C186.352 160.874 188.583 165.246 189.513 166.516C190.37 167.683 191.478 168.451 192.822 168.835C193.531 169.042 194.211 169.131 194.86 169.131C195.51 169.131 196.131 169.027 196.692 168.835C198.864 168.097 199.632 166.634 199.897 165.556C200.474 163.193 199.144 160.46 197.667 158.938C196.604 157.831 193.826 155.246 191.049 155.246Z" fill="#EF6250"/>
<path d="M181.98 161.524C181.566 161.524 181.138 161.465 180.68 161.346C179.794 161.11 179.07 160.608 178.523 159.84C177.947 159.042 176.455 156.073 177.091 154.108C177.342 153.34 177.873 152.794 178.642 152.543C178.907 152.454 179.188 152.41 179.484 152.41C181.374 152.41 183.309 154.271 183.871 154.847C184.831 155.837 185.687 157.609 185.318 159.16C185.156 159.869 184.653 160.815 183.235 161.317C182.837 161.45 182.423 161.524 181.98 161.524Z" fill="#FFFACF"/>
<path d="M179.483 153.148C180.916 153.148 182.556 154.551 183.339 155.364C184.565 156.634 185.732 159.647 182.984 160.622C182.659 160.741 182.32 160.785 181.98 160.785C181.596 160.785 181.226 160.726 180.872 160.622C180.089 160.416 179.528 159.972 179.114 159.396C178.317 158.288 176.426 154.034 178.863 153.222C179.07 153.178 179.277 153.148 179.483 153.148ZM179.483 151.671C179.114 151.671 178.745 151.73 178.405 151.848C177.415 152.173 176.692 152.912 176.381 153.901C175.599 156.339 177.43 159.618 177.932 160.297C178.582 161.198 179.454 161.789 180.503 162.07C181.02 162.203 181.507 162.277 181.995 162.277C182.526 162.277 183.029 162.188 183.486 162.026C184.845 161.553 185.747 160.593 186.042 159.352C186.47 157.535 185.495 155.482 184.402 154.359C183.619 153.532 181.596 151.671 179.483 151.671Z" fill="#EF6250"/>
<path d="M202.778 181.45C202.66 181.45 202.542 181.45 202.439 181.436C201.641 181.377 200.991 180.993 200.592 180.357C200.164 179.693 199.573 177.802 200.016 176.207C200.267 175.291 200.843 174.596 201.67 174.198C202.055 174.006 202.483 173.917 202.911 173.917C204.403 173.917 205.614 175.054 205.954 175.409C206.515 176 207.003 177.122 206.796 178.319C206.663 179.117 206.176 180.239 204.625 181.022C204.034 181.303 203.413 181.45 202.778 181.45Z" fill="#FFFACF"/>
<path d="M202.896 174.655C203.96 174.655 204.935 175.438 205.407 175.926C206.235 176.782 206.752 179.116 204.27 180.372C203.753 180.638 203.236 180.726 202.763 180.726C202.66 180.726 202.571 180.726 202.483 180.712C201.862 180.667 201.449 180.387 201.198 179.973C200.695 179.19 199.78 175.94 201.981 174.877C202.291 174.714 202.601 174.655 202.896 174.655ZM202.896 173.178C202.35 173.178 201.818 173.296 201.331 173.533C200.311 174.035 199.602 174.892 199.292 176.014C198.79 177.787 199.381 179.855 199.957 180.756C200.489 181.598 201.331 182.085 202.379 182.174C202.512 182.189 202.645 182.189 202.778 182.189C203.532 182.189 204.27 182.012 204.95 181.672C206.382 180.948 207.283 179.796 207.52 178.437C207.741 177.167 207.328 175.763 206.486 174.892C205.984 174.375 204.625 173.178 202.896 173.178Z" fill="#EF6250"/>
<path d="M193.191 179.456C192.778 179.456 192.349 179.397 191.891 179.279C191.005 179.043 190.281 178.54 189.735 177.772C189.159 176.975 187.667 174.006 188.302 172.041C188.553 171.273 189.085 170.726 189.853 170.475C190.119 170.387 190.399 170.342 190.695 170.342C192.586 170.342 194.521 172.203 195.082 172.78C196.042 173.769 196.899 175.542 196.53 177.093C196.367 177.802 195.865 178.747 194.447 179.249C194.063 179.397 193.634 179.456 193.191 179.456Z" fill="#FFFACF"/>
<path d="M190.695 171.081C192.128 171.081 193.767 172.484 194.55 173.296C195.776 174.567 196.943 177.58 194.196 178.555C193.871 178.673 193.531 178.717 193.191 178.717C192.807 178.717 192.438 178.658 192.083 178.555C191.301 178.348 190.739 177.905 190.326 177.329C189.528 176.221 187.637 171.967 190.074 171.155C190.281 171.11 190.488 171.081 190.695 171.081ZM190.695 169.604C190.326 169.604 189.956 169.663 189.617 169.781C188.627 170.106 187.903 170.844 187.593 171.834C186.81 174.271 188.642 177.551 189.144 178.23C189.794 179.131 190.665 179.722 191.714 180.003C192.231 180.136 192.719 180.209 193.206 180.209C193.738 180.209 194.24 180.121 194.698 179.958C196.057 179.486 196.958 178.525 197.253 177.285C197.682 175.468 196.707 173.415 195.614 172.292C194.846 171.465 192.822 169.604 190.695 169.604Z" fill="#EF6250"/>
<path d="M181.788 170.298C181.507 170.298 181.226 170.254 180.916 170.151C180.414 169.988 180 169.678 179.675 169.25C179.41 168.895 178.39 167.167 178.789 166C178.937 165.542 179.291 165.217 179.764 165.084C179.897 165.04 180.045 165.025 180.192 165.025C181.241 165.025 182.305 166.015 182.718 166.443C183.309 167.063 183.841 168.127 183.605 169.028C183.457 169.604 183.029 170.018 182.393 170.21C182.187 170.269 181.995 170.298 181.788 170.298Z" fill="#FFFACF"/>
<path d="M180.178 165.763C180.887 165.763 181.758 166.531 182.172 166.96C182.807 167.61 183.472 169.116 182.157 169.515C182.039 169.56 181.906 169.574 181.773 169.574C181.552 169.574 181.345 169.53 181.138 169.456C180.754 169.323 180.473 169.102 180.252 168.806C179.823 168.245 178.789 166.118 179.942 165.793C180.015 165.763 180.104 165.763 180.178 165.763ZM180.178 164.286C179.971 164.286 179.75 164.316 179.558 164.375C178.848 164.567 178.317 165.084 178.08 165.763C177.504 167.477 179.07 169.678 179.085 169.692C179.513 170.254 180.045 170.638 180.695 170.859C181.079 170.978 181.448 171.051 181.803 171.051C182.083 171.051 182.349 171.007 182.615 170.933C183.487 170.667 184.122 170.047 184.329 169.235C184.639 168.053 184.019 166.738 183.265 165.955C182.645 165.32 181.463 164.286 180.178 164.286Z" fill="#EF6250"/>
<path d="M55.1524 152.587C52.0356 152.587 50.5732 148.85 50.5732 146.324C50.5732 144.935 50.78 140.297 53.4241 138.997C53.8673 138.776 54.3399 138.672 54.7831 138.672C58.1657 138.672 60.0122 144.566 60.2337 146.221C60.3962 147.476 60.1746 148.658 59.5542 149.721C58.8895 150.859 58.0623 151.671 57.0874 152.114C56.4227 152.439 55.7728 152.587 55.1524 152.587Z" fill="#FFFACF"/>
<path d="M54.798 139.411C57.4864 139.411 59.2738 144.596 59.5101 146.324C59.643 147.328 59.5101 148.347 58.9193 149.352C58.417 150.209 57.7228 151.006 56.7774 151.449C56.1866 151.73 55.64 151.848 55.1378 151.848C52.538 151.848 51.2972 148.466 51.2972 146.324C51.2972 144.463 51.6813 140.666 53.7345 139.662C54.1186 139.485 54.4583 139.411 54.798 139.411ZM54.798 137.934C54.222 137.934 53.6606 138.067 53.1141 138.347C50.1598 139.795 49.8496 144.418 49.8496 146.339C49.8496 149.16 51.5336 153.34 55.1673 153.34C55.9059 153.34 56.6592 153.163 57.4274 152.794C58.5352 152.277 59.4806 151.376 60.2191 150.105C60.9282 148.909 61.1793 147.565 60.9872 146.132C60.6918 144.034 58.6238 137.934 54.798 137.934Z" fill="#EF6250"/>
<path d="M48.8301 168.688C48.2687 168.688 47.7222 168.599 47.2347 168.437C45.3735 167.801 44.7236 166.59 44.502 165.674C44.0146 163.68 45.1667 161.169 46.5405 159.736C47.3234 158.924 50.0709 156.28 52.6411 156.28C53.0104 156.28 53.3501 156.339 53.6899 156.442C54.6796 156.752 55.359 157.447 55.684 158.422C56.5555 161.095 54.4284 165.246 53.6012 166.383C52.8479 167.403 51.873 168.097 50.6913 168.437C50.0413 168.599 49.4209 168.688 48.8301 168.688Z" fill="#FFFACF"/>
<path d="M52.6414 157.018C52.9221 157.018 53.2027 157.062 53.4538 157.136C56.9103 158.244 54.1481 164.345 52.9811 165.925C52.3755 166.738 51.5779 167.388 50.4552 167.698C49.9235 167.846 49.3769 167.949 48.8156 167.949C48.3577 167.949 47.8998 167.89 47.4566 167.727C43.5718 166.398 45.3 162.07 47.0726 160.238C48.2247 159.071 50.6029 157.018 52.6414 157.018ZM52.6414 155.541C49.8644 155.541 47.0873 158.111 46.009 159.219C44.5319 160.755 43.2025 163.473 43.7786 165.837C44.0444 166.93 44.8125 168.377 46.9839 169.116C47.56 169.308 48.1804 169.411 48.8156 169.411C49.4656 169.411 50.145 169.308 50.854 169.116C52.1982 168.732 53.3061 167.949 54.1629 166.797C55.0935 165.541 57.3239 161.154 56.3638 158.17C55.965 156.959 55.123 156.117 53.897 155.718C53.5129 155.6 53.0845 155.541 52.6414 155.541Z" fill="#EF6250"/>
<path d="M61.7117 161.819C61.2686 161.819 60.8549 161.745 60.4561 161.612C59.0381 161.11 58.5359 160.165 58.3734 159.456C58.0041 157.905 58.8756 156.132 59.821 155.142C60.3675 154.566 62.3173 152.705 64.2081 152.705C64.5035 152.705 64.7841 152.749 65.05 152.838C65.8181 153.089 66.3647 153.636 66.601 154.404C67.2362 156.368 65.7443 159.337 65.1682 160.135C64.6217 160.888 63.8831 161.391 63.0116 161.642C62.5684 161.76 62.1253 161.819 61.7117 161.819Z" fill="#FFFACF"/>
<path d="M64.2076 153.444C64.4144 153.444 64.6212 153.473 64.8132 153.533C67.2505 154.345 65.3745 158.599 64.5621 159.707C64.1485 160.283 63.5872 160.711 62.8043 160.933C62.4498 161.022 62.0805 161.096 61.6965 161.096C61.3567 161.096 61.017 161.051 60.692 160.933C57.9445 159.958 59.1263 156.945 60.3375 155.674C61.1352 154.847 62.7748 153.444 64.2076 153.444ZM64.2076 151.967C62.0953 151.967 60.0716 153.828 59.2887 154.64C58.1956 155.778 57.2207 157.816 57.6491 159.633C57.9445 160.889 58.8456 161.834 60.2046 162.307C60.6772 162.469 61.1795 162.558 61.6965 162.558C62.1692 162.558 62.6714 162.484 63.1884 162.351C64.2372 162.07 65.0939 161.465 65.7586 160.579C66.2608 159.899 68.0777 156.635 67.3096 154.183C66.9994 153.193 66.2756 152.469 65.2859 152.129C64.9462 152.011 64.5769 151.967 64.2076 151.967Z" fill="#EF6250"/>
<path d="M40.9133 181.745C40.2782 181.745 39.6578 181.598 39.0817 181.302C37.5307 180.519 37.0432 179.397 36.9103 178.599C36.7035 177.403 37.1909 176.28 37.7523 175.689C38.092 175.335 39.3033 174.197 40.7952 174.197C41.2235 174.197 41.6519 174.286 42.036 174.478C42.8632 174.877 43.4393 175.571 43.6904 176.487C44.1335 178.082 43.5427 179.973 43.1143 180.638C42.7007 181.273 42.0655 181.657 41.2679 181.716C41.1497 181.745 41.0315 181.745 40.9133 181.745Z" fill="#FFFACF"/>
<path d="M40.7947 174.936C41.0902 174.936 41.4004 174.995 41.7106 175.143C43.8968 176.206 42.9957 179.456 42.4935 180.239C42.2276 180.653 41.8287 180.933 41.2083 180.978C41.1197 180.992 41.0163 180.992 40.9277 180.992C40.4698 180.992 39.9528 180.904 39.421 180.638C36.9394 179.382 37.4564 177.063 38.2836 176.192C38.7563 175.719 39.7312 174.936 40.7947 174.936ZM40.7947 173.459C39.0665 173.459 37.7223 174.655 37.2201 175.172C36.3781 176.059 35.9645 177.447 36.1861 178.718C36.4224 180.091 37.3382 181.229 38.7563 181.953C39.4358 182.292 40.1596 182.47 40.9277 182.47C41.0606 182.47 41.1936 182.47 41.3265 182.455C42.3753 182.366 43.2025 181.879 43.749 181.037C44.3251 180.136 44.916 178.053 44.4137 176.295C44.1035 175.172 43.3945 174.316 42.3753 173.814C41.8731 173.592 41.3413 173.459 40.7947 173.459Z" fill="#EF6250"/>
<path d="M50.5003 179.752C50.0572 179.752 49.6435 179.678 49.2447 179.545C47.8267 179.043 47.3244 178.097 47.1619 177.388C46.7927 175.837 47.6642 174.065 48.6096 173.075C49.1561 172.499 51.1059 170.638 52.9967 170.638C53.2921 170.638 53.5727 170.682 53.8386 170.771C54.6067 171.022 55.1533 171.568 55.3896 172.336C56.0248 174.301 54.5329 177.27 53.9568 178.068C53.4103 178.821 52.6717 179.323 51.8002 179.574C51.3423 179.693 50.9139 179.752 50.5003 179.752Z" fill="#FFFACF"/>
<path d="M52.9962 171.377C53.203 171.377 53.4098 171.406 53.6018 171.465C56.0391 172.278 54.1631 176.532 53.3507 177.64C52.9371 178.216 52.3758 178.644 51.5929 178.866C51.2384 178.954 50.8691 179.028 50.485 179.028C50.1453 179.028 49.8056 178.984 49.4806 178.866C46.7331 177.891 47.9148 174.877 49.1261 173.607C49.9237 172.78 51.5634 171.377 52.9962 171.377ZM52.9962 169.899C50.8839 169.899 48.8602 171.761 48.0773 172.573C46.9842 173.71 46.0093 175.749 46.4377 177.566C46.7331 178.821 47.6342 179.767 48.9931 180.239C49.4658 180.402 49.968 180.491 50.485 180.491C50.9577 180.491 51.46 180.417 51.977 180.284C53.0257 180.003 53.8825 179.397 54.5472 178.511C55.0494 177.832 56.8663 174.567 56.0982 172.115C55.788 171.125 55.0642 170.402 54.0745 170.062C53.7348 169.959 53.3655 169.899 52.9962 169.899Z" fill="#EF6250"/>
<path d="M61.9182 170.593C61.7114 170.593 61.5193 170.563 61.3273 170.504C60.6921 170.312 60.2638 169.898 60.116 169.322C59.8797 168.421 60.4115 167.358 61.0023 166.737C61.4159 166.309 62.4795 165.319 63.5282 165.319C63.6759 165.319 63.8237 165.334 63.9566 165.378C64.4293 165.511 64.7838 165.836 64.9315 166.294C65.3303 167.461 64.3111 169.189 64.0452 169.544C63.7203 169.987 63.2919 170.283 62.7897 170.445C62.4795 170.534 62.184 170.593 61.9182 170.593Z" fill="#FFFACF"/>
<path d="M63.5135 166.044C63.5873 166.044 63.6612 166.059 63.7351 166.074C64.8872 166.399 63.8532 168.526 63.4249 169.087C63.2033 169.382 62.9226 169.604 62.5386 169.737C62.3318 169.811 62.1102 169.855 61.9034 169.855C61.7705 169.855 61.6523 169.84 61.5193 169.796C60.2195 169.412 60.8842 167.905 61.5046 167.241C61.9329 166.812 62.8045 166.044 63.5135 166.044ZM63.5135 164.567C62.2284 164.567 61.0467 165.601 60.4558 166.221C59.7025 167.004 59.0821 168.334 59.3923 169.501C59.6138 170.313 60.2342 170.948 61.1057 171.199C61.3569 171.273 61.6375 171.317 61.9182 171.317C62.2727 171.317 62.642 171.258 63.026 171.125C63.676 170.919 64.2077 170.52 64.6361 169.958C64.6509 169.944 66.2167 167.743 65.6406 166.029C65.4042 165.35 64.8725 164.833 64.1634 164.641C63.9419 164.596 63.7351 164.567 63.5135 164.567Z" fill="#EF6250"/>
<path d="M203.088 210.934C180.059 172.322 160.576 164.197 127.414 171.258C125.789 172.085 123.854 172.587 121.609 172.602C121.579 172.617 121.55 172.617 121.52 172.617C121.491 172.617 121.461 172.602 121.432 172.602C119.349 172.587 117.532 172.174 115.966 171.45C79.5695 164.389 60.4109 174.508 41.3115 206.591L37.9731 212.145C38.4311 212.81 38.8004 213.534 39.1253 214.272C40.1002 216.015 40.6468 217.98 40.8093 220.004C40.8979 220.151 40.9865 220.299 41.0752 220.447C41.1195 220.506 41.2081 220.654 41.3263 220.816C41.4887 220.993 42.4489 222.264 42.6262 222.485C43.0841 223.032 43.5567 223.564 44.0294 224.095C44.96 225.159 45.9202 226.193 46.8508 227.271C48.1507 228.748 49.096 230.373 49.7017 232.072C50.0709 232.22 50.3959 232.367 50.6323 232.545C56.4079 236.577 67.7376 253.756 75.4482 254.982C88.7721 257.124 121.417 258.572 121.417 258.572H121.698C121.698 258.572 154.342 257.124 167.666 254.982C175.377 253.742 188.391 234.893 194.166 230.861C194.432 230.669 194.846 230.521 195.318 230.403C195.983 228.468 197.091 226.71 198.612 225.321C198.878 224.863 199.129 224.42 199.395 223.962C200.03 222.84 200.621 221.717 201.197 220.565C201.256 220.284 201.33 220.033 201.389 219.812C202.025 217.611 203.221 215.543 204.802 213.859L203.088 210.934Z" fill="#FFD2D2"/>
<path d="M122.598 252.826C149.275 252.826 170.901 235.69 170.901 214.553C170.901 193.416 149.275 176.28 122.598 176.28C95.9217 176.28 74.2959 193.416 74.2959 214.553C74.2959 235.69 95.9217 252.826 122.598 252.826Z" fill="#F4B3B3"/>
<path d="M92.6423 206.592C94.3718 206.592 95.7738 205.309 95.7738 203.726C95.7738 202.143 94.3718 200.86 92.6423 200.86C90.9128 200.86 89.5107 202.143 89.5107 203.726C89.5107 205.309 90.9128 206.592 92.6423 206.592Z" fill="#F2B8CA" stroke="#B77B77" stroke-width="0.5" stroke-miterlimit="10" stroke-linecap="round" stroke-linejoin="round"/>
<path d="M112.008 207.729C110.309 207.404 108.655 208.409 108.3 209.96C108.256 210.166 108.241 210.373 108.241 210.58C106.616 210.373 105.095 211.348 104.755 212.84C104.401 214.391 105.494 215.912 107.193 216.237C108.891 216.562 110.546 215.558 110.9 214.007C110.944 213.8 110.959 213.593 110.959 213.387C112.584 213.593 114.106 212.618 114.445 211.126C114.785 209.575 113.707 208.054 112.008 207.729Z" fill="#F2B8CA" stroke="#B77B77" stroke-width="0.5" stroke-miterlimit="10" stroke-linecap="round" stroke-linejoin="round"/>
<path d="M122.953 217.522C124.683 217.522 126.085 216.239 126.085 214.657C126.085 213.074 124.683 211.791 122.953 211.791C121.224 211.791 119.822 213.074 119.822 214.657C119.822 216.239 121.224 217.522 122.953 217.522Z" fill="#F2B8CA" stroke="#B77B77" stroke-width="0.5" stroke-miterlimit="10" stroke-linecap="round" stroke-linejoin="round"/>
<path d="M98.9201 222.131C100.65 222.131 102.052 220.848 102.052 219.266C102.052 217.683 100.65 216.4 98.9201 216.4C97.1906 216.4 95.7886 217.683 95.7886 219.266C95.7886 220.848 97.1906 222.131 98.9201 222.131Z" fill="#F2B8CA" stroke="#B77B77" stroke-width="0.5" stroke-miterlimit="10" stroke-linecap="round" stroke-linejoin="round"/>
<path d="M119.807 206.592C121.536 206.592 122.938 205.309 122.938 203.726C122.938 202.143 121.536 200.86 119.807 200.86C118.077 200.86 116.675 202.143 116.675 203.726C116.675 205.309 118.077 206.592 119.807 206.592Z" fill="#F2B8CA" stroke="#B77B77" stroke-width="0.5" stroke-miterlimit="10" stroke-linecap="round" stroke-linejoin="round"/>
<path d="M106.838 200.845C108.567 200.845 109.969 199.562 109.969 197.979C109.969 196.397 108.567 195.114 106.838 195.114C105.108 195.114 103.706 196.397 103.706 197.979C103.706 199.562 105.108 200.845 106.838 200.845Z" fill="#F2B8CA" stroke="#B77B77" stroke-width="0.5" stroke-miterlimit="10" stroke-linecap="round" stroke-linejoin="round"/>
<path d="M111.373 229.118C113.102 229.118 114.504 227.835 114.504 226.252C114.504 224.67 113.102 223.387 111.373 223.387C109.643 223.387 108.241 224.67 108.241 226.252C108.241 227.835 109.643 229.118 111.373 229.118Z" fill="#F2B8CA" stroke="#B77B77" stroke-width="0.5" stroke-miterlimit="10" stroke-linecap="round" stroke-linejoin="round"/>
<path d="M130.708 203.948C132.438 203.948 133.84 202.665 133.84 201.082C133.84 199.499 132.438 198.216 130.708 198.216C128.979 198.216 127.577 199.499 127.577 201.082C127.577 202.665 128.979 203.948 130.708 203.948Z" fill="#F2B8CA" stroke="#B77B77" stroke-width="0.5" stroke-miterlimit="10" stroke-linecap="round" stroke-linejoin="round"/>
<path d="M140.029 207.906C140.664 209.516 142.407 210.373 143.899 209.841C144.106 209.767 144.283 209.679 144.46 209.56C145.155 211.038 146.794 211.806 148.227 211.303C149.719 210.772 150.428 209.029 149.778 207.433C149.143 205.823 147.4 204.966 145.908 205.498C145.701 205.572 145.524 205.661 145.347 205.779C144.652 204.302 143.013 203.534 141.58 204.036C140.088 204.568 139.394 206.311 140.029 207.906Z" fill="#F2B8CA" stroke="#B77B77" stroke-width="0.5" stroke-miterlimit="10" stroke-linecap="round" stroke-linejoin="round"/>
<path d="M161.019 214.878C162.749 214.878 164.151 213.595 164.151 212.013C164.151 210.43 162.749 209.147 161.019 209.147C159.29 209.147 157.888 210.43 157.888 212.013C157.888 213.595 159.29 214.878 161.019 214.878Z" fill="#F2B8CA" stroke="#B77B77" stroke-width="0.5" stroke-miterlimit="10" stroke-linecap="round" stroke-linejoin="round"/>
<path d="M136.986 219.487C138.716 219.487 140.118 218.204 140.118 216.622C140.118 215.039 138.716 213.756 136.986 213.756C135.257 213.756 133.854 215.039 133.854 216.622C133.854 218.204 135.257 219.487 136.986 219.487Z" fill="#F2B8CA" stroke="#B77B77" stroke-width="0.5" stroke-miterlimit="10" stroke-linecap="round" stroke-linejoin="round"/>
<path d="M157.873 203.948C159.602 203.948 161.004 202.665 161.004 201.082C161.004 199.499 159.602 198.216 157.873 198.216C156.143 198.216 154.741 199.499 154.741 201.082C154.741 202.665 156.143 203.948 157.873 203.948Z" fill="#F2B8CA" stroke="#B77B77" stroke-width="0.5" stroke-miterlimit="10" stroke-linecap="round" stroke-linejoin="round"/>
<path d="M144.918 198.202C146.648 198.202 148.05 196.919 148.05 195.336C148.05 193.753 146.648 192.47 144.918 192.47C143.189 192.47 141.787 193.753 141.787 195.336C141.787 196.919 143.189 198.202 144.918 198.202Z" fill="#F2B8CA" stroke="#B77B77" stroke-width="0.5" stroke-miterlimit="10" stroke-linecap="round" stroke-linejoin="round"/>
<path d="M149.438 226.474C151.168 226.474 152.57 225.191 152.57 223.608C152.57 222.026 151.168 220.743 149.438 220.743C147.709 220.743 146.307 222.026 146.307 223.608C146.307 225.191 147.709 226.474 149.438 226.474Z" fill="#F2B8CA" stroke="#B77B77" stroke-width="0.5" stroke-miterlimit="10" stroke-linecap="round" stroke-linejoin="round"/>
<path d="M89.4958 228.778C91.2253 228.778 92.6273 227.495 92.6273 225.913C92.6273 224.33 91.2253 223.047 89.4958 223.047C87.7663 223.047 86.3643 224.33 86.3643 225.913C86.3643 227.495 87.7663 228.778 89.4958 228.778Z" fill="#F2B8CA" stroke="#B77B77" stroke-width="0.5" stroke-miterlimit="10" stroke-linecap="round" stroke-linejoin="round"/>
<path d="M102.051 233.387C103.781 233.387 105.183 232.104 105.183 230.521C105.183 228.938 103.781 227.655 102.051 227.655C100.322 227.655 98.9199 228.938 98.9199 230.521C98.9199 232.104 100.322 233.387 102.051 233.387Z" fill="#F2B8CA" stroke="#B77B77" stroke-width="0.5" stroke-miterlimit="10" stroke-linecap="round" stroke-linejoin="round"/>
<path d="M89.4958 217.522C91.2253 217.522 92.6273 216.239 92.6273 214.657C92.6273 213.074 91.2253 211.791 89.4958 211.791C87.7663 211.791 86.3643 213.074 86.3643 214.657C86.3643 216.239 87.7663 217.522 89.4958 217.522Z" fill="#F2B8CA" stroke="#B77B77" stroke-width="0.5" stroke-miterlimit="10" stroke-linecap="round" stroke-linejoin="round"/>
<path d="M121.166 196.222C122.895 196.222 124.297 194.939 124.297 193.356C124.297 191.774 122.895 190.491 121.166 190.491C119.436 190.491 118.034 191.774 118.034 193.356C118.034 194.939 119.436 196.222 121.166 196.222Z" fill="#F2B8CA" stroke="#B77B77" stroke-width="0.5" stroke-miterlimit="10" stroke-linecap="round" stroke-linejoin="round"/>
<path d="M171.211 349.829C155.628 357.466 138.522 361.129 121.506 360.996C104.474 361.129 87.3837 357.466 71.7998 349.829" stroke="black" stroke-miterlimit="10" stroke-linecap="round" stroke-linejoin="round"/>
<path d="M225.63 212.012H208.524C203.975 212.012 201.715 215.543 201.715 219.9L193.916 231.082" stroke="black" stroke-miterlimit="10" stroke-linecap="round" stroke-linejoin="round"/>
<path d="M231.538 195.705H212.675C208.125 195.705 205.865 199.235 205.865 203.593L203.088 214.774" stroke="black" stroke-miterlimit="10" stroke-linecap="round" stroke-linejoin="round"/>
<path d="M17.9878 212.012H34.0887C38.6382 212.012 40.8983 215.543 40.8983 219.9L50.3668 232.766" stroke="black" stroke-miterlimit="10" stroke-linecap="round" stroke-linejoin="round"/>
<path d="M11.1338 195.705H28.3573C32.9069 195.705 35.1669 199.235 35.1669 203.593L39.5097 214.774" stroke="black" stroke-miterlimit="10" stroke-linecap="round" stroke-linejoin="round"/>
<path d="M27.4419 231.333C27.4419 231.333 47.1174 230.506 50.3819 232.766C56.1575 236.799 67.4872 253.978 75.1979 255.204C88.5217 257.346 121.167 258.793 121.167 258.793" stroke="black" stroke-miterlimit="10" stroke-linecap="round" stroke-linejoin="round"/>
<path d="M215.703 231.333C215.703 231.333 197.165 228.821 193.915 231.096C188.14 235.129 175.126 253.977 167.415 255.218C154.092 257.36 121.447 258.807 121.447 258.807" stroke="black" stroke-miterlimit="10" stroke-linecap="round" stroke-linejoin="round"/>
<path d="M121.846 259.384V278.143" stroke="black" stroke-miterlimit="10" stroke-linecap="round" stroke-linejoin="round"/>
<path d="M97.606 257.435V277.598" stroke="black" stroke-miterlimit="10" stroke-linecap="round" stroke-linejoin="round"/>
<path d="M73.041 254.716V279.503" stroke="black" stroke-miterlimit="10" stroke-linecap="round" stroke-linejoin="round"/>
<path d="M55.8029 238.024L52.8043 242.072C51.2386 244.184 50.3818 246.754 50.3818 249.398L52.4646 264.362" stroke="black" stroke-miterlimit="10" stroke-linecap="round" stroke-linejoin="round"/>
<path d="M146.337 257.435V276.372" stroke="black" stroke-miterlimit="10" stroke-linecap="round" stroke-linejoin="round"/>
<path d="M170.887 254.716V278.365" stroke="black" stroke-miterlimit="10" stroke-linecap="round" stroke-linejoin="round"/>
<path d="M186.795 238.586C195.274 247.345 190.119 256.371 188.494 266.563" stroke="black" stroke-miterlimit="10" stroke-linecap="round" stroke-linejoin="round"/>
<path d="M238.924 112.113C227.476 64.9481 205.082 29.3046 174.579 12.5243C167.637 7.88609 148.345 -0.134788 133.426 1.15032C128.685 1.56392 124.061 4.16369 120.162 4.16369C116.262 4.16369 111.505 1.50484 106.69 1.12078C91.8004 -0.0757028 72.6714 7.90086 65.7584 12.5095C35.2554 29.2899 12.8619 64.9185 1.41406 112.098" stroke="black" stroke-miterlimit="10" stroke-linecap="round" stroke-linejoin="round"/>
<path d="M3.54102 158.57C3.54102 158.57 28.9331 35.7749 123.219 35.7749C217.505 35.7749 241.582 158.57 241.582 158.57" stroke="black" stroke-miterlimit="10" stroke-linecap="round" stroke-linejoin="round"/>
<path d="M199.868 102.969C199.868 102.969 185.629 82.0383 166.913 72.2596C148.035 62.3923 122.57 60.7822 122.57 60.7822C122.57 60.7822 98.0933 62.3923 79.2006 72.2596C60.4852 82.0383 46.2456 102.969 46.2456 102.969" stroke="black" stroke-miterlimit="10" stroke-linecap="round" stroke-linejoin="round"/>
<path d="M122.569 60.7678V35.7598" stroke="black" stroke-miterlimit="10" stroke-linecap="round" stroke-linejoin="round"/>
<path d="M146.809 64.727V38.5225" stroke="black" stroke-miterlimit="10" stroke-linecap="round" stroke-linejoin="round"/>
<path d="M171.375 74.8453V48.3306" stroke="black" stroke-miterlimit="10" stroke-linecap="round" stroke-linejoin="round"/>
<path d="M194.048 94.5503V65.9824" stroke="black" stroke-miterlimit="10" stroke-linecap="round" stroke-linejoin="round"/>
<path d="M98.0781 63.9732V39.6299" stroke="black" stroke-miterlimit="10" stroke-linecap="round" stroke-linejoin="round"/>
<path d="M73.5283 75.6283V49.7783" stroke="black" stroke-miterlimit="10" stroke-linecap="round" stroke-linejoin="round"/>
<path d="M54.8128 91.4482C52.1392 88.5677 49.4951 86.3225 50.2485 82.4671L50.3814 68.8774" stroke="black" stroke-miterlimit="10" stroke-linecap="round" stroke-linejoin="round"/>
<path d="M18.5049 115.437H36.2453C40.7949 115.437 43.055 111.906 43.055 107.549L46.2456 102.97" stroke="black" stroke-miterlimit="10" stroke-linecap="round" stroke-linejoin="round"/>
<path d="M225.63 114.521L211.227 115.363C206.693 115.629 204.226 112.232 203.975 107.889L199.868 102.985" stroke="black" stroke-miterlimit="10" stroke-linecap="round" stroke-linejoin="round"/>
<path d="M29.1108 95.8506L29.3915 98.0515C29.746 100.858 32.139 102.97 34.9751 102.97H46.2457" stroke="black" stroke-miterlimit="10" stroke-linecap="round" stroke-linejoin="round"/>
<path d="M215.703 95.8506L215.422 98.0515C215.068 100.858 212.675 102.97 209.839 102.97H199.868" stroke="black" stroke-miterlimit="10" stroke-linecap="round" stroke-linejoin="round"/>
<path d="M203.767 212.22C193.486 192.662 175.524 169.058 147.858 169.767C138.404 170.003 129.246 172.588 119.762 172.632H121.52C112.052 172.588 102.879 170.003 93.4249 169.767C65.758 169.058 48.505 192.662 38.2241 212.22" stroke="black" stroke-miterlimit="10" stroke-linecap="round" stroke-linejoin="round"/>
<path d="M77.6342 169.767C76.3786 165.601 75.7139 161.17 75.7139 156.591C75.7139 131.302 96.2166 110.799 121.505 110.799C146.794 110.799 167.297 131.302 167.297 156.591C167.297 162.027 166.351 167.226 164.608 172.071" stroke="black" stroke-miterlimit="10" stroke-linecap="round" stroke-linejoin="round"/>
<path d="M33.5566 171.584C33.5566 171.584 52.2573 81.1973 121.639 81.1973C191.02 81.1973 208.76 171.584 208.76 171.584" stroke="black" stroke-miterlimit="10" stroke-linecap="round" stroke-linejoin="round"/>
<path d="M146.218 276.372C146.218 276.372 146.07 278.336 141.609 279.562C137.148 280.788 130.811 281.601 125.671 279.666L121.742 278.129" stroke="black" stroke-miterlimit="10" stroke-linecap="round" stroke-linejoin="round"/>
<path d="M170.768 277.908C170.768 277.908 165.982 281.232 158.124 280.833C150.25 280.434 145.922 277.066 145.922 277.066" stroke="black" stroke-miterlimit="10" stroke-linecap="round" stroke-linejoin="round"/>
<path d="M121.727 278.411L118.049 279.563C112.938 281.572 107.251 281.601 102.111 279.666L97.4727 277.834" stroke="black" stroke-miterlimit="10" stroke-linecap="round" stroke-linejoin="round"/>
<path d="M97.4871 278.145C97.4871 278.145 97.5462 280.375 88.9049 282.221C80.2193 284.068 72.937 278.972 72.937 278.972" stroke="black" stroke-miterlimit="10" stroke-linecap="round" stroke-linejoin="round"/>
<path d="M135.45 81.9504C131.402 81.2561 127.163 80.8721 122.702 80.8721C118.137 80.8721 113.809 81.2561 109.673 81.9947L109.703 82.172C109.703 82.172 115.848 87.534 113.957 97.4604C112.066 107.372 107.28 114.728 109.703 122.025C112.539 130.534 122.554 130.534 122.554 130.534C122.554 130.534 132.569 130.534 135.405 122.025C137.843 114.728 133.042 107.387 131.151 97.4604C129.26 87.5488 135.405 82.172 135.405 82.172L135.45 81.9504Z" fill="#FFF5F5" stroke="black" stroke-miterlimit="10" stroke-linecap="round" stroke-linejoin="round"/>
<path d="M294.04 134.02L294.52 133.1L288.62 123H290.98L295.56 131.04L299.7 123H301.98L295.84 134.74C295.06 136.2 293.82 137.14 292.28 137.14C291.78 137.14 291.14 137.04 290.8 136.9V135C291.26 135.14 291.92 135.24 292.32 135.24C293.12 135.24 293.64 134.8 294.04 134.02ZM311.845 134.12C311.845 135.74 310.385 137 308.505 137H302.605V127H308.125C309.985 127 311.425 128.22 311.425 129.76C311.425 130.6 311.005 131.32 310.325 131.8C311.245 132.28 311.845 133.12 311.845 134.12ZM304.545 131.16H307.845C308.785 131.16 309.525 130.56 309.525 129.86C309.525 129.2 308.785 128.68 307.845 128.68H304.545V131.16ZM304.545 135.32H308.245C309.185 135.32 309.945 134.76 309.945 134.04C309.945 133.3 309.185 132.66 308.245 132.66H304.545V135.32ZM318.294 126.84C321.174 126.84 323.314 128.92 323.314 131.84C323.314 132.1 323.294 132.36 323.274 132.68H315.254C315.654 134.36 317.234 135.48 319.314 135.48C320.394 135.48 321.414 135.18 322.094 134.7L322.734 136.14C321.754 136.78 320.494 137.16 319.114 137.16C315.714 137.16 313.274 134.94 313.274 131.84C313.274 128.94 315.374 126.84 318.294 126.84ZM315.234 131.12H321.514C321.334 129.56 320.094 128.58 318.434 128.58C316.774 128.58 315.534 129.62 315.234 131.12ZM332.545 137V128.78H328.465V129.14C328.465 135.36 327.825 137.16 325.625 137.16C325.065 137.16 324.505 137.06 324.205 136.92V134.98C324.485 135.06 324.865 135.14 325.165 135.14C326.245 135.14 326.505 134.02 326.505 129.14V127H334.565V137H332.545ZM337.448 137V127H339.488V134.06L345.028 127H347.048V137H345.028V129.9L339.488 137H337.448ZM349.508 130.2V127H351.548V129.96C351.548 131.16 352.488 131.86 353.968 131.86C354.768 131.86 355.668 131.66 356.288 131.52V127H358.308V137H356.288V133.34C355.628 133.48 354.628 133.64 353.728 133.64C351.208 133.64 349.508 132.32 349.508 130.2ZM365.657 126.84C368.537 126.84 370.677 128.92 370.677 131.84C370.677 132.1 370.657 132.36 370.637 132.68H362.617C363.017 134.36 364.597 135.48 366.677 135.48C367.757 135.48 368.777 135.18 369.457 134.7L370.097 136.14C369.117 136.78 367.857 137.16 366.477 137.16C363.077 137.16 360.637 134.94 360.637 131.84C360.637 128.94 362.737 126.84 365.657 126.84ZM362.597 131.12H368.877C368.697 129.56 367.457 128.58 365.797 128.58C364.137 128.58 362.897 129.62 362.597 131.12ZM372.819 137V127H374.859V131.02H380.179V127H382.199V137H380.179V132.82H374.859V137H372.819ZM385.085 137V127H387.125V131.02H392.445V127H394.465V137H392.445V132.82H387.125V137H385.085ZM406.03 133.74C406.03 135.56 404.55 137 402.69 137H397.35V127H399.39V130.52H402.69C404.55 130.52 406.03 131.96 406.03 133.74ZM409.73 127V137H407.71V127H409.73ZM399.39 135.26H402.35C403.27 135.26 404.01 134.6 404.01 133.76C404.01 132.92 403.27 132.26 402.35 132.26H399.39V135.26ZM417.044 126.84C419.924 126.84 422.064 128.92 422.064 131.84C422.064 132.1 422.044 132.36 422.024 132.68H414.004C414.404 134.36 415.984 135.48 418.064 135.48C419.144 135.48 420.164 135.18 420.844 134.7L421.484 136.14C420.504 136.78 419.244 137.16 417.864 137.16C414.464 137.16 412.024 134.94 412.024 131.84C412.024 128.94 414.124 126.84 417.044 126.84ZM413.984 131.12H420.264C420.084 129.56 418.844 128.58 417.184 128.58C415.524 128.58 414.284 129.62 413.984 131.12ZM434.841 135.24L431.421 129.66V137H429.381V127H431.721L435.261 132.54L438.801 127H441.141V137H439.121V129.66L435.701 135.24H434.841ZM444.03 137V127H446.07V134.06L451.61 127H453.63V137H451.61V129.9L446.07 137H444.03ZM456.51 137V127H458.55V131.02H463.87V127H465.89V137H463.87V132.82H458.55V137H456.51ZM470.036 129.22V127H478.276V135.2H479.796V139.72L477.776 140.04V137H469.876V140.04L467.856 139.72V135.2H468.876C469.716 134.44 470.036 133 470.036 129.22ZM471.076 135.2H476.256V128.78H471.996V129.1C471.936 132.38 471.756 134.06 471.076 135.2ZM485.448 126.84C488.248 126.84 489.968 128.24 489.968 130.48V132C489.968 133.94 490.068 135.04 490.368 137H488.428C488.348 136.58 488.308 136.18 488.248 135.82C487.488 136.66 486.268 137.16 484.748 137.16C482.528 137.16 481.228 136.06 481.228 134.2C481.228 132.32 482.508 131.3 485.428 131L488.028 130.72V130.6C488.028 129.34 486.948 128.58 485.248 128.58C484.128 128.58 483.148 128.9 482.508 129.4L481.848 127.88C482.768 127.22 483.988 126.84 485.448 126.84ZM488.028 132.28L485.348 132.56C483.848 132.72 483.168 133.18 483.168 134.02C483.168 134.92 483.988 135.48 485.388 135.48C487.048 135.48 488.028 134.66 488.028 133.24V132.28ZM500.358 137V128.78H496.278V129.14C496.278 135.36 495.638 137.16 493.438 137.16C492.878 137.16 492.318 137.06 492.018 136.92V134.98C492.298 135.06 492.678 135.14 492.978 135.14C494.058 135.14 494.318 134.02 494.318 129.14V127H502.378V137H500.358ZM505.26 137V127H507.3V134.06L512.84 127H514.86V137H512.84V129.9L507.3 137H505.26ZM517.741 137V127H519.781V131.02H525.101V127H527.121V137H525.101V132.82H519.781V137H517.741ZM538.686 133.74C538.686 135.56 537.206 137 535.346 137H530.006V127H532.046V130.52H535.346C537.206 130.52 538.686 131.96 538.686 133.74ZM542.386 127V137H540.366V127H542.386ZM532.046 135.26H535.006C535.926 135.26 536.666 134.6 536.666 133.76C536.666 132.92 535.926 132.26 535.006 132.26H532.046V135.26Z" fill="#58595B"/>
<path d="M289.7 193V179H299.02V180.9H291.84V193H289.7ZM298.366 193V183H300.406V187.02H305.726V183H307.746V193H305.726V188.82H300.406V193H298.366ZM310.031 188C310.031 185.12 312.311 182.84 315.251 182.84C318.171 182.84 320.451 185.12 320.451 188C320.451 190.9 318.171 193.16 315.251 193.16C312.311 193.16 310.031 190.9 310.031 188ZM312.051 188C312.051 189.82 313.451 191.26 315.251 191.26C317.031 191.26 318.431 189.82 318.431 188C318.431 186.18 317.031 184.74 315.251 184.74C313.451 184.74 312.051 186.18 312.051 188ZM324.181 178.78H325.881C325.881 179.7 326.601 180.42 327.561 180.42C328.481 180.42 329.201 179.7 329.201 178.78H330.921C330.921 180.56 329.461 181.94 327.561 181.94C325.641 181.94 324.181 180.56 324.181 178.78ZM322.741 193V183H324.781V190.08L330.321 183H332.341V193H330.321V185.92L324.781 193H322.741ZM335.221 193V183H337.261V187.02H342.581V183H344.601V193H342.581V188.82H337.261V193H335.221ZM356.167 189.74C356.167 191.56 354.687 193 352.827 193H347.487V183H349.527V186.52H352.827C354.687 186.52 356.167 187.96 356.167 189.74ZM359.867 183V193H357.847V183H359.867ZM349.527 191.26H352.487C353.407 191.26 354.147 190.6 354.147 189.76C354.147 188.92 353.407 188.26 352.487 188.26H349.527V191.26ZM367.181 182.84C370.061 182.84 372.201 184.92 372.201 187.84C372.201 188.1 372.181 188.36 372.161 188.68H364.141C364.541 190.36 366.121 191.48 368.201 191.48C369.281 191.48 370.301 191.18 370.981 190.7L371.621 192.14C370.641 192.78 369.381 193.16 368.001 193.16C364.601 193.16 362.161 190.94 362.161 187.84C362.161 184.94 364.261 182.84 367.181 182.84ZM364.121 187.12H370.401C370.221 185.56 368.981 184.58 367.321 184.58C365.661 184.58 364.421 185.62 364.121 187.12ZM388.198 177.84V179.84L383.978 180.48C381.898 180.8 380.918 182.2 380.858 185.36C381.618 183.82 383.098 182.84 384.858 182.84C387.498 182.84 389.518 185.04 389.518 187.94C389.518 190.96 387.398 193.16 384.438 193.16C381.058 193.16 379.098 190.42 379.098 185.48C379.098 181.38 380.518 179.06 383.418 178.6L388.198 177.84ZM381.478 187.96C381.478 189.84 382.758 191.26 384.478 191.26C386.178 191.26 387.478 189.84 387.478 187.98C387.478 186.14 386.178 184.74 384.458 184.74C382.738 184.74 381.478 186.1 381.478 187.96ZM396.224 182.84C399.104 182.84 401.244 184.92 401.244 187.84C401.244 188.1 401.224 188.36 401.204 188.68H393.184C393.584 190.36 395.164 191.48 397.244 191.48C398.324 191.48 399.344 191.18 400.024 190.7L400.664 192.14C399.684 192.78 398.424 193.16 397.044 193.16C393.644 193.16 391.204 190.94 391.204 187.84C391.204 184.94 393.304 182.84 396.224 182.84ZM393.164 187.12H399.444C399.264 185.56 398.024 184.58 396.364 184.58C394.704 184.58 393.464 185.62 393.164 187.12ZM410.475 193V184.78H406.395V185.14C406.395 191.36 405.755 193.16 403.555 193.16C402.995 193.16 402.435 193.06 402.135 192.92V190.98C402.415 191.06 402.795 191.14 403.095 191.14C404.175 191.14 404.435 190.02 404.435 185.14V183H412.495V193H410.475ZM424.058 189.74C424.058 191.56 422.578 193 420.718 193H415.378V183H417.418V186.52H420.718C422.578 186.52 424.058 187.96 424.058 189.74ZM427.758 183V193H425.738V183H427.758ZM417.418 191.26H420.378C421.298 191.26 422.038 190.6 422.038 189.76C422.038 188.92 421.298 188.26 420.378 188.26H417.418V191.26ZM435.071 182.84C437.951 182.84 440.091 184.92 440.091 187.84C440.091 188.1 440.071 188.36 440.051 188.68H432.031C432.431 190.36 434.011 191.48 436.091 191.48C437.171 191.48 438.191 191.18 438.871 190.7L439.511 192.14C438.531 192.78 437.271 193.16 435.891 193.16C432.491 193.16 430.051 190.94 430.051 187.84C430.051 184.94 432.151 182.84 435.071 182.84ZM432.011 187.12H438.291C438.111 185.56 436.871 184.58 435.211 184.58C433.551 184.58 432.311 185.62 432.011 187.12ZM450.269 193V184.78H446.329V183H456.229V184.78H452.289V193H450.269ZM457.102 188C457.102 185.12 459.382 182.84 462.322 182.84C465.242 182.84 467.522 185.12 467.522 188C467.522 190.9 465.242 193.16 462.322 193.16C459.382 193.16 457.102 190.9 457.102 188ZM459.122 188C459.122 189.82 460.522 191.26 462.322 191.26C464.102 191.26 465.502 189.82 465.502 188C465.502 186.18 464.102 184.74 462.322 184.74C460.522 184.74 459.122 186.18 459.122 188ZM469.196 186.2V183H471.236V185.96C471.236 187.16 472.176 187.86 473.656 187.86C474.456 187.86 475.356 187.66 475.976 187.52V183H477.996V193H475.976V189.34C475.316 189.48 474.316 189.64 473.416 189.64C470.896 189.64 469.196 188.32 469.196 186.2ZM480.905 193V183H482.945V187H485.145L488.065 183H490.405L486.705 187.9L490.805 193H488.405L485.145 188.8H482.945V193H480.905ZM492.585 193V183H494.625V190.06L500.165 183H502.185V193H500.165V185.9L494.625 193H492.585Z" fill="#58595B"/>
<path d="M277 137L198 155" stroke="#828282" stroke-width="1.15625"/>
<path d="M277 193L193 165" stroke="#828282" stroke-width="1.15625"/>
</svg>
