<svg width="949" height="70" viewBox="0 0 949 70" fill="none" xmlns="http://www.w3.org/2000/svg">
<path d="M40.3522 56.2663L48.0421 13.047H30.6011L30.4425 14.1471C25.1309 43.8506 17.8374 56.9735 7.53136 56.9735C5.39087 56.9735 1.98194 56.5806 0 56.0306L2.29905 42.9862C3.25038 43.3791 5.07376 43.6148 5.86653 43.6148C9.98896 43.6148 13.0808 38.1928 17.5996 12.5755L19.5815 1.25987H63.5805L53.8294 56.2663H40.3522Z" fill="#6D6E71"/>
<path d="M66.2481 28.7631C69.0228 12.9684 83.7684 0.474063 99.7824 0.474063C115.796 0.474063 126.103 12.9684 123.328 28.7631C120.474 44.6364 105.728 57.0521 89.7142 57.0521C73.7001 57.0521 63.3941 44.6364 66.2481 28.7631ZM79.7252 28.7631C78.1397 37.5641 83.5305 44.4792 91.934 44.4792C100.337 44.4792 108.265 37.5641 109.851 28.7631C111.357 19.9621 105.966 13.047 97.5627 13.047C89.1592 13.047 81.2315 19.9621 79.7252 28.7631Z" fill="#6D6E71"/>
<path d="M125.947 56.2663L135.698 1.25987H160.671C172.641 1.25987 180.569 9.35367 178.746 19.7263C176.922 30.099 166.141 38.1928 154.17 38.1928H142.595L139.424 56.2663H125.947ZM144.736 26.4057H156.231C160.591 26.4057 164.634 23.4982 165.269 19.7263C165.903 15.9544 162.97 13.047 158.609 13.047H147.114L144.736 26.4057Z" fill="#6D6E71"/>
<path d="M181.526 28.7631C184.3 12.9684 199.046 0.474063 215.06 0.474063C231.074 0.474063 241.38 12.9684 238.605 28.7631C235.751 44.6364 221.006 57.0521 204.992 57.0521C188.978 57.0521 178.672 44.6364 181.526 28.7631ZM195.003 28.7631C193.417 37.5641 198.808 44.4792 207.211 44.4792C215.615 44.4792 223.543 37.5641 225.128 28.7631C226.634 19.9621 221.244 13.047 212.84 13.047C204.437 13.047 196.509 19.9621 195.003 28.7631Z" fill="#6D6E71"/>
<path d="M293.723 13.047H274.696L267.006 56.2663H253.529L261.219 13.047H242.193L244.254 1.25987H295.784L293.723 13.047Z" fill="#D7282F"/>
<path d="M291.954 56.2663L301.705 1.25987H326.678C338.648 1.25987 346.576 9.35367 344.753 19.7263C342.93 30.099 332.148 38.1928 320.177 38.1928H308.602L305.431 56.2663H291.954ZM310.743 26.4057H322.238C326.598 26.4057 330.641 23.4982 331.276 19.7263C331.91 15.9544 328.977 13.047 324.616 13.047H313.121L310.743 26.4057Z" fill="#D7282F"/>
<path d="M396.526 56.2663H383.049L389.153 22.0051L358.076 56.2663H344.599L354.35 1.25987H367.828L361.802 35.521L392.8 1.25987H406.277L396.526 56.2663Z" fill="#D7282F"/>
<path d="M406.058 56.2663L415.809 1.25987H429.286L421.596 44.4792H446.172L453.862 1.25987H467.339L459.649 44.4792H466.784L462.662 68.0534L448.868 69.625L451.246 56.2663H406.058Z" fill="#6D6E71"/>
<path d="M523.017 56.2663H509.54L515.644 22.0051L484.567 56.2663H471.09L480.841 1.25987H494.318L488.293 35.521L519.291 1.25987H532.768L523.017 56.2663Z" fill="#6D6E71"/>
<path d="M532.507 56.2663L542.258 1.25987H555.735L552.009 22.3981H576.981L580.708 1.25987H594.185L584.434 56.2663H570.956L574.92 34.1851H549.948L545.984 56.2663H532.507Z" fill="#6D6E71"/>
<path d="M599.205 6.67449C599.205 3.12932 602.128 0.25 605.687 0.25C609.282 0.25 612.168 3.12932 612.168 6.67449C612.168 10.2197 609.282 13.099 605.687 13.099C602.128 13.099 599.205 10.2197 599.205 6.67449ZM600.313 6.67449C600.313 9.6078 602.728 12.0012 605.687 12.0012C608.664 12.0012 611.061 9.6078 611.061 6.67449C611.061 3.74118 608.664 1.34774 605.687 1.34774C602.728 1.34774 600.313 3.74118 600.313 6.67449ZM603.345 9.82375V3.52523H606.177C607.484 3.52523 608.501 4.40702 608.501 5.55875C608.501 6.35057 607.993 7.03441 607.248 7.35833L608.501 9.82375H607.266L606.213 7.59228C606.195 7.59228 606.195 7.59228 606.177 7.59228H604.525V9.82375H603.345ZM604.525 6.53053H606.177C606.813 6.53053 607.321 6.09863 607.321 5.55875C607.321 5.00088 606.813 4.55099 606.177 4.55099H604.525V6.53053Z" fill="#6D6E71"/>
<path d="M615.261 22.7312H637.466L635.65 32.962H613.445L615.261 22.7312Z" fill="#6D6E71"/>
<path d="M702.097 55.0346H686.857L684.662 45.1595H664.673L659.016 55.0346H643.481L675.923 0.553963H688.989L702.097 55.0346ZM688.546 52.9424H699.416L687.3 2.64615H677.105L647.154 52.9424H657.75L663.407 43.0673H686.308L688.546 52.9424ZM684.556 34.6776H668.304L680.082 14.0277L684.556 34.6776ZM671.913 32.5854H681.939L679.174 19.8649L671.913 32.5854Z" fill="#6D6E71"/>
<path d="M711.046 55.7041C709.083 55.7041 705.664 55.3485 703.574 54.7626L702.646 54.5116L705.242 39.8662L706.466 40.3684C707.184 40.6613 708.767 40.8914 709.463 40.8914C712.503 40.8914 715.394 36.0166 719.616 12.1866L721.663 0.533053H765.714L756.068 55.0137H741.082L748.406 13.8394H733.969L733.948 13.9858C728.755 42.8581 721.705 55.7041 711.046 55.7041ZM705.073 52.9843C706.825 53.3399 709.315 53.6329 711.046 53.6329C720.355 53.6329 726.961 40.9542 731.837 13.6929L732.111 11.789H750.897L743.573 52.9634H754.274L763.182 2.66708H723.415L721.684 12.5841C717.146 38.318 714.001 43.0255 709.463 43.0255C708.872 43.0255 707.838 42.9208 706.909 42.7116L705.073 52.9843Z" fill="#6D6E71"/>
<path d="M814.557 55.0346H799.571L804.974 24.7815L777.535 55.0346H762.971L772.638 0.553963H787.624L782.305 30.828L809.681 0.553963H824.245L814.557 55.0346ZM802.083 52.9424H812.784L821.691 2.64615H810.589L778.928 37.6485L785.091 2.64615H774.39L765.461 52.9424H776.585L808.33 17.9401L802.083 52.9424Z" fill="#6D6E71"/>
<path d="M834.124 55.7041C831.865 55.7041 828.72 55.3066 827.095 54.5534L826.377 54.2187L828.678 41.0588L829.818 41.3935C831.696 41.9375 834.609 42.3978 836.319 42.3978C838.535 42.3978 839.485 41.5818 840.414 40.1801L842.06 37.7322L826.652 0.57489H843.073L851.812 23.0032L866.714 0.57489H882.882L852.086 45.557C847.654 52.0009 841.131 55.7041 834.124 55.7041ZM828.741 52.9424C830.092 53.34 832.266 53.6119 834.124 53.6119C840.393 53.6119 846.303 50.2435 850.313 44.3435L878.872 2.62524H867.832L851.305 27.5014L841.617 2.62524H829.797L844.445 37.9205L842.166 41.2889C840.688 43.5485 838.978 44.4481 836.298 44.4481C834.715 44.4481 832.309 44.1134 830.346 43.6531L828.741 52.9424Z" fill="#6D6E71"/>
<path d="M938.458 55.0346H923.472L928.601 26.0369L913.424 47.5446H903.525L895.779 25.7021L890.586 55.0346H875.6L885.267 0.553963H902.09L911.694 28.2755L931.134 0.553963H948.125L938.458 55.0346ZM926.004 52.9424H936.706L945.613 2.64615H932.252L911.06 32.8574L900.591 2.64615H887.061L878.133 52.9424H888.834L895.103 17.4589L905.024 45.4524H912.348L932.358 17.1032L926.004 52.9424Z" fill="#6D6E71"/>
</svg>
