<svg width="632" height="652" viewBox="0 0 632 652" fill="none" xmlns="http://www.w3.org/2000/svg">
<path d="M213.159 204.779C213.207 202.199 207.588 199.914 199.826 199.057L200.276 174.587C207.299 174.345 213.966 172.693 219.992 169.907L231.291 189.957C222.586 194.854 216.832 200.835 218.347 203.521C219.908 206.288 228.596 204.5 237.752 199.525C246.912 194.55 253.07 188.278 251.514 185.51C250.224 183.219 244.042 184.054 236.753 187.232L225.365 167.018C231.164 163.438 236.172 158.731 240.074 153.208L259.213 164.531C254.501 172.758 252.761 180.339 255.357 181.873C258.115 183.506 264.725 177.688 270.123 168.881C275.522 160.073 277.661 151.612 274.902 149.983C272.531 148.58 267.322 152.679 262.478 159.443L243.252 148.073C246.375 142.252 248.359 135.745 248.905 128.832L270.909 129.236C271.195 138.092 273.472 144.895 276.373 144.948C279.59 145.002 282.35 136.715 282.539 126.437C282.728 116.159 280.274 107.775 277.057 107.716C274.161 107.663 271.636 114.373 271.019 123.217L249.015 122.813C248.719 115.879 246.981 109.304 244.073 103.377L263.704 92.721C268.297 99.6579 273.351 103.945 275.772 102.631C278.589 101.1 276.762 92.5653 271.691 83.5705C266.614 74.5655 260.223 68.5136 257.406 70.0393C254.756 71.4767 256.217 79.1169 260.623 87.5111L241.082 98.1231C237.385 92.4555 232.552 87.5735 226.889 83.782L239.013 64.0002C246.18 67.444 252.327 68.5055 253.7 66.2635C255.362 63.555 249.433 57.0603 240.462 51.7522C231.49 46.4442 222.873 44.3382 221.217 47.0467C219.609 49.675 225.135 55.8631 233.654 61.0766L221.626 80.6978C215.706 77.6928 209.105 75.7963 202.095 75.2972L202.545 50.8222C210.333 50.2501 216.032 48.1738 216.079 45.593C216.142 42.4342 207.702 39.7177 197.237 39.5254C186.772 39.3331 178.237 41.7377 178.179 44.9016C178.122 47.9997 186.233 50.6696 196.417 50.9582L195.971 75.2253C188.988 75.5484 182.361 77.2627 176.385 80.0998L163.667 57.5233C170.28 53.1509 174.286 48.4567 172.996 46.1657C171.435 43.3981 162.747 45.1862 153.591 50.1611C144.431 55.1359 138.273 61.4086 139.829 64.1762C141.339 66.8617 149.559 65.2578 158.409 60.6171L171.043 83.0399C165.175 86.7463 160.133 91.6142 156.258 97.3202L135.806 85.2227C140.517 76.996 142.258 69.4147 139.662 67.8809C136.903 66.2477 130.294 72.0657 124.896 80.8732C119.497 89.6807 117.358 98.1423 120.117 99.7704C122.488 101.173 127.697 97.0744 132.541 90.3109L153.172 102.513C150.29 108.126 148.466 114.356 147.942 120.956L124.198 120.52C123.912 111.663 121.635 104.86 118.733 104.807C115.517 104.748 112.757 113.031 112.568 123.314C112.379 133.591 114.833 141.975 118.049 142.034C120.946 142.087 123.471 135.373 124.088 126.533L147.837 126.969C148.118 133.584 149.712 139.877 152.385 145.592L131.347 157.018C126.754 150.081 121.699 145.794 119.278 147.109C116.461 148.639 118.288 157.174 123.359 166.169C128.431 175.169 134.822 181.22 137.639 179.695C140.289 178.257 138.828 170.617 134.422 162.223L155.278 150.9C158.941 156.744 163.801 161.789 169.529 165.713L156.08 187.657C147.407 182.699 139.251 180.795 137.643 183.418C135.982 186.126 141.91 192.621 150.881 197.929C159.853 203.237 168.47 205.343 170.126 202.634C171.5 200.392 167.669 195.554 161.22 190.942L174.76 168.848C180.627 171.903 187.187 173.859 194.153 174.439L193.707 198.706C183.519 198.615 175.316 200.99 175.259 204.088C175.201 207.247 183.641 209.964 194.106 210.156C204.572 210.348 213.101 207.943 213.159 204.779ZM205.821 87.0063C209.445 87.0729 212.329 90.0119 212.264 93.5714C212.199 97.1308 209.208 99.9619 205.584 99.8953C201.959 99.8287 199.075 96.8897 199.14 93.3302C199.206 89.7708 202.196 86.9397 205.821 87.0063ZM168.64 94.9356C168.697 91.797 171.336 89.2992 174.532 89.358C177.727 89.4167 180.272 92.0097 180.215 95.1483C180.157 98.2869 177.518 100.785 174.323 100.726C171.127 100.667 168.582 98.0742 168.64 94.9356ZM230.485 100.327C235.167 100.414 238.893 104.21 238.809 108.809C238.724 113.408 234.861 117.065 230.179 116.979C225.496 116.893 221.77 113.096 221.854 108.497C221.939 103.898 225.802 100.241 230.485 100.327ZM198.817 111.462C203.593 111.55 207.395 115.424 207.309 120.114C207.223 124.804 203.281 128.536 198.505 128.448C193.73 128.361 189.927 124.487 190.013 119.796C190.1 115.106 194.042 111.375 198.817 111.462ZM160.272 122.248C160.33 119.109 162.968 116.611 166.164 116.67C169.36 116.729 171.905 119.322 171.847 122.46C171.789 125.599 169.151 128.097 165.955 128.038C162.759 127.979 160.214 125.386 160.272 122.248ZM213.063 127.361C213.105 125.075 215.029 123.249 217.358 123.291C219.686 123.334 221.547 125.225 221.505 127.517C221.463 129.808 219.539 131.629 217.205 131.587C214.872 131.544 213.021 129.653 213.063 127.361ZM229.34 134.513C232.035 134.563 234.185 136.748 234.136 139.399C234.087 142.051 231.864 144.156 229.164 144.106C226.469 144.057 224.319 141.872 224.368 139.22C224.416 136.568 226.645 134.464 229.34 134.513ZM188.684 140.426C188.722 138.367 190.451 136.725 192.553 136.764C194.649 136.802 196.322 138.502 196.284 140.565C196.246 142.624 194.517 144.266 192.415 144.227C190.314 144.189 188.646 142.489 188.684 140.426ZM165.704 150.406C165.781 146.228 169.292 142.9 173.551 142.978C177.806 143.056 181.197 146.507 181.12 150.69C181.044 154.868 177.533 158.197 173.273 158.118C169.014 158.04 165.627 154.585 165.704 150.406ZM201.061 152.39C201.132 148.511 204.391 145.431 208.335 145.504C212.285 145.576 215.423 148.779 215.351 152.653C215.28 156.532 212.022 159.611 208.077 159.539C204.133 159.466 200.989 156.269 201.061 152.39Z" fill="#DC0000"/>
<path d="M84.859 195.264L101.282 180.822L105.976 186.312C107.537 188.133 108.338 189.83 108.387 191.395C108.436 192.959 107.736 194.378 106.294 195.648C105.529 196.325 104.656 196.697 103.688 196.767C102.719 196.843 101.741 196.636 100.759 196.152C101.284 197.276 101.428 198.409 101.183 199.548C100.939 200.688 100.332 201.681 99.3755 202.524C97.9044 203.818 96.3236 204.347 94.6502 204.117C92.9723 203.879 91.3732 202.869 89.8472 201.087L84.859 195.264ZM94.4336 190.729L88.5274 195.923L91.6575 199.579C92.54 200.61 93.4959 201.192 94.5298 201.332C95.5648 201.466 96.538 201.134 97.4516 200.324C99.43 198.584 99.4747 196.618 97.5994 194.417L94.4336 190.729ZM96.17 189.199L99.0312 192.546C99.8597 193.516 100.759 194.079 101.734 194.243C102.708 194.407 103.598 194.13 104.414 193.415C105.318 192.621 105.744 191.772 105.692 190.874C105.64 189.976 105.15 188.976 104.208 187.877L101.405 184.604L96.17 189.199Z" fill="#DC0000"/>
<path d="M117.835 205.898L119.939 207.746L109.41 220.165L107.305 218.317L114.983 209.258L101.62 213.339L99.5153 211.491L110.039 199.071L112.15 200.92L104.458 209.988L117.835 205.898Z" fill="#DC0000"/>
<path d="M130.886 225.323C129.558 227.425 128.01 228.8 126.246 229.461C124.482 230.116 122.791 229.912 121.161 228.846C119.506 227.757 118.534 226.365 118.255 224.683L114.052 231.326L111.715 229.788L123.812 210.689L125.947 212.091L125.095 213.697C126.797 213.133 128.498 213.407 130.19 214.522C131.829 215.602 132.736 217.078 132.897 218.954C133.063 220.832 132.439 222.885 131.026 225.109L130.886 225.323ZM128.719 223.517C129.705 221.964 130.151 220.52 130.066 219.187C129.982 217.853 129.367 216.814 128.222 216.062C126.807 215.129 125.347 215.067 123.837 215.87L119.663 222.458C119.566 224.174 120.236 225.507 121.674 226.45C122.792 227.184 123.965 227.324 125.193 226.864C126.429 226.399 127.604 225.286 128.719 223.517Z" fill="#DC0000"/>
<path d="M138.282 233.488L146.904 224.06L149.583 225.373L135.67 239.579C133.605 241.594 131.573 242.117 129.592 241.146L129.134 240.875L128.286 240.237L129.248 238.184L129.9 238.571C130.75 238.989 131.492 239.139 132.126 239.02C132.764 238.909 133.452 238.465 134.19 237.691L135.45 236.455L137.099 219.247L139.831 220.59L138.282 233.488Z" fill="#DC0000"/>
<path d="M153.779 242.186C154.715 242.513 155.634 242.505 156.522 242.173C157.411 241.841 158.037 241.256 158.396 240.417L160.882 241.278C160.541 242.151 159.96 242.899 159.136 243.508C158.311 244.117 157.352 244.501 156.263 244.661C155.169 244.814 154.103 244.716 153.06 244.354C150.962 243.627 149.534 242.342 148.763 240.498C147.992 238.654 148.008 236.504 148.816 234.05L148.961 233.605C149.458 232.086 150.177 230.836 151.115 229.848C152.053 228.86 153.144 228.218 154.387 227.92C155.631 227.623 156.951 227.721 158.356 228.205C160.081 228.802 161.34 229.823 162.139 231.263C162.938 232.704 163.1 234.275 162.628 235.97L160.142 235.109C160.394 234.076 160.294 233.118 159.828 232.233C159.363 231.349 158.636 230.738 157.638 230.391C156.302 229.928 155.105 230.059 154.053 230.777C153.001 231.496 152.166 232.775 151.561 234.619L151.398 235.122C150.81 236.914 150.719 238.423 151.128 239.644C151.542 240.872 152.42 241.718 153.779 242.186Z" fill="#DC0000"/>
<path d="M169.75 237.812L173.905 238.541C175.713 238.881 177.073 239.612 177.974 240.732C178.879 241.86 179.199 243.22 178.937 244.833C178.673 246.451 177.92 247.657 176.679 248.444C175.438 249.232 173.899 249.471 172.064 249.144L165.291 247.959L167.915 231.741L170.648 232.222L169.75 237.812ZM169.385 240.075L168.395 246.177L172.463 246.888C173.489 247.069 174.324 246.939 174.974 246.506C175.623 246.073 176.022 245.389 176.171 244.455C176.317 243.558 176.164 242.772 175.708 242.103C175.253 241.435 174.538 241.004 173.552 240.807L169.385 240.075ZM183.778 251.199L181.028 250.715L183.652 234.497L186.402 234.981L183.778 251.199Z" fill="#DC0000"/>
<path d="M574.46 254.654C574.911 250.672 573.693 246.891 571.367 244.001C571.663 243.004 571.886 241.969 572.008 240.899C572.655 235.19 570.52 229.811 566.687 226.105C569.491 224.269 571.486 221.248 571.893 217.661C572.619 211.263 568.019 205.484 561.623 204.759C560.719 204.656 559.831 204.671 558.963 204.77C557.74 194.484 549.598 186.006 538.865 184.788C531.156 183.914 523.915 186.99 519.149 192.401C517.685 183.566 510.525 176.408 501.195 175.35C494.784 174.623 488.728 176.933 484.461 181.133C481.832 177.211 477.568 174.424 472.508 173.85C463.373 172.814 455.123 179.38 454.086 188.524C453.809 190.969 454.079 193.346 454.793 195.537C453.529 195.004 452.175 194.633 450.743 194.471C442.682 193.557 435.412 199.352 434.498 207.411C434.106 210.865 434.954 214.175 436.678 216.9C430.164 219.163 425.187 224.992 424.358 232.304C423.729 237.846 425.62 243.091 429.118 246.904C426.135 249.292 424.054 252.815 423.589 256.915C422.884 263.133 426.094 268.889 431.253 271.734C428.359 274.822 426.397 278.83 425.883 283.358C424.616 294.528 432.644 304.613 443.81 305.879C448.793 306.445 453.559 305.154 457.427 302.562C460.023 306.514 464.289 309.33 469.354 309.904C470.286 310.01 471.213 310.033 472.119 309.982C473.38 316.957 479.076 322.58 486.481 323.42C491.85 324.029 496.903 321.986 500.342 318.334C502.251 321.036 505.247 322.952 508.794 323.354C512.908 323.821 516.773 322.149 519.277 319.224C521.581 320.738 524.259 321.755 527.184 322.086C537.133 323.215 546.113 316.062 547.242 306.11C547.663 302.399 546.931 298.828 545.335 295.741C555.716 296.201 564.83 288.547 566.02 278.062C566.472 274.076 565.713 270.232 564.04 266.895C569.503 265.361 573.779 260.652 574.46 254.654ZM542.532 195.27C545.366 195.591 547.402 198.149 547.081 200.985C546.759 203.82 544.201 205.857 541.367 205.535C538.533 205.214 536.497 202.656 536.818 199.821C537.14 196.985 539.697 194.948 542.532 195.27ZM538.771 211.818C544.697 212.49 548.955 217.84 548.282 223.767C547.61 229.694 542.262 233.954 536.337 233.282C530.411 232.61 526.153 227.261 526.825 221.333C527.493 215.405 532.846 211.146 538.771 211.818ZM525.936 240.722C525.615 243.558 523.057 245.595 520.223 245.273C517.389 244.952 515.352 242.394 515.674 239.558C515.995 236.723 518.553 234.686 521.387 235.008C524.217 235.328 526.258 237.887 525.936 240.722ZM515.235 199.685C519.125 200.126 521.916 203.638 521.475 207.524C521.034 211.415 517.523 214.207 513.638 213.766C509.748 213.325 506.958 209.814 507.399 205.927C507.839 202.041 511.35 199.245 515.235 199.685ZM497.014 182.87C499.848 183.191 501.884 185.749 501.563 188.584C501.241 191.42 498.683 193.457 495.849 193.135C493.015 192.814 490.979 190.256 491.3 187.42C491.617 184.585 494.179 182.548 497.014 182.87ZM468.018 180.101C470.567 180.39 472.401 182.694 472.112 185.244C471.822 187.794 469.519 189.628 466.97 189.339C464.421 189.05 462.587 186.746 462.876 184.196C463.166 181.642 465.469 179.812 468.018 180.101ZM465.202 201.146C469.477 201.631 472.551 205.492 472.066 209.769C471.581 214.046 467.72 217.12 463.445 216.635C459.17 216.15 456.097 212.289 456.582 208.013C457.067 203.736 460.927 200.661 465.202 201.146ZM433.623 230.835C434.028 227.262 437.252 224.698 440.819 225.103C444.391 225.508 446.953 228.733 446.549 232.301C446.143 235.873 442.919 238.437 439.353 238.033C435.781 237.628 433.218 234.407 433.623 230.835ZM443.083 296.406C438.332 295.867 434.917 291.577 435.456 286.824C435.995 282.072 440.284 278.656 445.035 279.195C449.786 279.733 453.201 284.024 452.662 288.776C452.123 293.528 447.833 296.945 443.083 296.406ZM450.481 261.797C446.515 261.347 443.665 257.766 444.115 253.799C444.565 249.831 448.145 246.98 452.111 247.43C456.077 247.88 458.927 251.46 458.477 255.428C458.027 259.395 454.447 262.246 450.481 261.797ZM469.607 231.447C474.015 231.947 477.181 235.925 476.681 240.335C476.181 244.744 472.204 247.912 467.796 247.412C463.388 246.912 460.221 242.934 460.722 238.524C461.222 234.115 465.203 230.948 469.607 231.447ZM466.467 287.754C460.422 287.069 456.076 281.608 456.761 275.562C457.447 269.515 462.906 265.167 468.951 265.853C474.995 266.538 479.342 271.999 478.656 278.045C477.97 284.091 472.511 288.44 466.467 287.754ZM478.324 215.832C479.009 209.786 484.469 205.437 490.513 206.123C496.557 206.808 500.904 212.269 500.218 218.315C499.532 224.362 494.073 228.71 488.029 228.024C481.985 227.339 477.638 221.878 478.324 215.832ZM484.099 248.278C485.012 240.229 492.277 234.442 500.323 235.355C508.369 236.268 514.154 243.535 513.241 251.584C512.328 259.633 505.063 265.419 497.016 264.507C488.97 263.594 483.186 256.327 484.099 248.278ZM501.789 276.824C501.392 280.325 498.236 282.839 494.736 282.442C491.236 282.045 488.724 278.888 489.121 275.387C489.518 271.886 492.674 269.372 496.174 269.769C499.674 270.166 502.186 273.328 501.789 276.824ZM495.281 312.763C489.355 312.091 485.097 306.741 485.769 300.814C486.442 294.887 491.79 290.627 497.715 291.299C503.641 291.971 507.899 297.32 507.226 303.248C506.554 309.175 501.206 313.435 495.281 312.763ZM513.57 293.565C508.672 293.009 505.152 288.586 505.707 283.687C506.263 278.787 510.685 275.265 515.583 275.82C520.481 276.376 524.001 280.799 523.446 285.698C522.885 290.598 518.468 294.12 513.57 293.565ZM523.146 265.326C520.597 265.037 518.763 262.733 519.052 260.183C519.341 257.634 521.645 255.799 524.193 256.088C526.742 256.377 528.576 258.681 528.287 261.231C527.997 263.785 525.695 265.615 523.146 265.326ZM529.469 310.435C525.897 310.03 523.335 306.805 523.739 303.237C524.145 299.664 527.369 297.1 530.935 297.505C534.507 297.91 537.07 301.135 536.665 304.703C536.26 308.271 533.04 310.84 529.469 310.435ZM542.093 278.331C538.522 277.926 535.959 274.701 536.364 271.133C536.769 267.561 539.993 264.997 543.56 265.401C547.127 265.806 549.694 269.031 549.29 272.599C548.885 276.167 545.66 278.736 542.093 278.331ZM548.535 250.417C544.645 249.976 541.855 246.465 542.295 242.578C542.736 238.691 546.247 235.895 550.132 236.336C554.017 236.776 556.813 240.288 556.372 244.175C555.93 248.066 552.425 250.858 548.535 250.417Z" fill="#DC0000"/>
<path d="M521.989 345.707L511.46 347.607L514.985 366.709L512.092 367.231L508.136 345.823L521.558 343.4L521.989 345.707Z" fill="#DC0000"/>
<path d="M538.847 352.131C539.652 354.459 539.757 356.522 539.161 358.312C538.566 360.102 537.337 361.308 535.483 361.93C533.587 362.561 531.894 362.474 530.396 361.66L532.942 369.031L530.268 369.926L522.951 348.73L525.393 347.914L526.11 349.57C526.743 347.887 528.024 346.721 529.962 346.071C531.837 345.444 533.559 345.639 535.131 346.659C536.704 347.679 537.916 349.428 538.768 351.896L538.847 352.131ZM536.071 352.728C535.479 351.002 534.631 349.767 533.534 349.014C532.441 348.266 531.234 348.109 529.927 348.547C528.308 349.087 527.34 350.201 527.017 351.878L529.54 359.196C530.818 360.326 532.284 360.616 533.932 360.063C535.214 359.634 536.059 358.795 536.472 357.548C536.884 356.294 536.75 354.69 536.071 352.728Z" fill="#DC0000"/>
<path d="M548.96 337.62L551.425 336.266L559.445 350.382L556.981 351.736L551.131 341.441L550.335 355.378L547.87 356.732L539.85 342.616L542.314 341.262L548.168 351.569L548.96 337.62Z" fill="#DC0000"/>
<path d="M561.565 329.774C563.164 328.473 564.881 327.959 566.724 328.225C568.567 328.491 570.21 329.479 571.655 331.191L571.822 331.386C572.813 332.558 573.462 333.795 573.782 335.093C574.097 336.396 574.037 337.651 573.603 338.861C573.164 340.075 572.385 341.138 571.258 342.057C569.55 343.445 567.703 344.009 565.72 343.735C563.737 343.469 561.955 342.393 560.369 340.511L559.497 339.473C557.29 336.856 556.035 334.372 555.73 332.028C555.421 329.68 556.091 327.554 557.745 325.639C558.68 324.559 559.224 323.716 559.376 323.128C559.528 322.54 559.401 322.003 558.992 321.52L560.778 320.067C561.588 321.024 561.999 321.952 562.005 322.848C562.015 323.748 561.628 324.702 560.843 325.71L559.522 327.381C558.484 328.731 557.937 330.024 557.889 331.259C557.842 332.493 558.212 333.781 559.017 335.122C559.056 332.908 559.907 331.119 561.565 329.774ZM562.613 331.865C561.548 332.728 560.997 333.767 560.962 334.98C560.927 336.194 561.431 337.419 562.479 338.66L562.633 338.843C563.757 340.177 564.965 340.976 566.252 341.247C567.538 341.51 568.722 341.209 569.796 340.338C570.877 339.457 571.405 338.374 571.37 337.079C571.34 335.788 570.69 334.389 569.422 332.888C568.431 331.716 567.323 331.026 566.094 330.832C564.86 330.635 563.699 330.98 562.613 331.865Z" fill="#DC0000"/>
<path d="M578.974 324.657L577.64 326.195L582.977 330.661L581.135 332.782L568.6 322.307L570.443 320.185L575.749 324.623L576.948 323.243L575.248 314.661L577.468 312.11L579.25 322.023L590.356 322.174L588.029 324.853L578.974 324.657Z" fill="#DC0000"/>
<path d="M584.694 300.417L586.121 298.025L600.339 306.176L598.913 308.568L588.545 302.622L595.061 315.011L593.634 317.403L579.416 309.252L580.843 306.861L591.223 312.81L584.694 300.417Z" fill="#DC0000"/>
<path fill-rule="evenodd" clip-rule="evenodd" d="M298.942 520.529C298.398 519.868 297.833 519.191 297.244 518.464L312.258 514.69C313.668 514.329 314.515 512.913 314.171 511.503C313.811 510.095 312.393 509.25 310.98 509.594L293.667 513.944C292.631 512.614 291.551 511.217 290.425 509.755L303.992 504.421C305.342 503.888 306.009 502.353 305.477 501.006C304.944 499.658 303.407 498.993 302.058 499.525L287.105 505.398L284.709 502.224L297.531 496.202C298.85 495.584 299.404 494.011 298.788 492.711C298.169 491.394 296.595 490.842 295.293 491.458L281.477 497.98L279.021 494.761L291.077 488.036C292.349 487.335 292.806 485.722 292.087 484.455C291.385 483.185 289.769 482.729 288.5 483.448L275.792 490.534C274.974 489.461 274.152 488.371 273.314 487.282L284.6 479.838C285.822 479.036 286.151 477.405 285.347 476.185C284.544 474.966 282.911 474.638 281.689 475.441L270.089 483.091C269.253 482.021 268.414 480.932 267.558 479.847L278.07 471.647C279.224 470.746 279.424 469.097 278.522 467.946C277.62 466.795 275.969 466.595 274.816 467.496L264.303 475.696C263.449 474.628 262.613 473.557 261.738 472.474L271.439 463.507C272.507 462.51 272.579 460.843 271.581 459.777C270.583 458.711 268.916 458.658 267.846 459.638L258.415 468.351C257.561 467.283 256.692 466.235 255.823 465.187L264.707 455.416C265.692 454.341 265.602 452.679 264.528 451.714C263.451 450.731 261.787 450.822 260.82 451.895L252.434 461.109C251.568 460.079 250.701 459.048 249.834 458.018L257.882 447.429C258.765 446.278 258.531 444.619 257.379 443.737C256.227 442.855 254.564 443.089 253.68 444.24L246.317 453.922C245.455 452.927 244.576 451.935 243.714 450.94L250.887 439.52C251.652 438.296 251.279 436.674 250.05 435.892C248.824 435.129 247.2 435.502 246.417 436.729L240.055 446.864C239.18 445.907 238.308 444.968 237.436 444.028L243.679 431.767C244.343 430.467 243.831 428.882 242.532 428.237C241.23 427.574 239.643 428.086 238.979 429.387L233.583 439.98C232.716 439.075 231.834 438.191 230.969 437.305L236.267 424.223C236.817 422.885 236.166 421.338 234.826 420.788C233.486 420.239 231.937 420.89 231.386 422.228L226.906 433.304C226.029 432.455 225.137 431.627 224.262 430.796L228.563 416.918C228.998 415.524 228.213 414.05 226.837 413.632C225.441 413.198 223.962 413.965 223.545 415.356L219.948 426.938C219.043 426.148 218.123 425.377 217.225 424.639L220.52 410.021C220.844 408.606 219.943 407.203 218.527 406.88C217.11 406.558 215.704 407.459 215.381 408.873L212.641 421.036C211.673 420.308 210.692 419.618 209.733 418.961L211.987 403.733C212.199 402.299 211.199 400.963 209.762 400.751C208.326 400.54 206.988 401.539 206.775 402.973L204.863 415.884C203.763 415.247 202.668 414.645 201.581 414.096L202.786 398.476C202.89 397.039 201.809 395.768 200.37 395.665C198.913 395.565 197.658 396.642 197.537 398.082L196.445 412.083C195.115 411.731 193.8 411.484 192.464 411.348L192.656 395.961C192.669 394.518 191.508 393.314 190.045 393.304C188.583 393.294 187.394 394.452 187.383 395.912L187.188 411.408C185.93 411.568 184.684 411.815 183.471 412.166L180.796 396.265C180.556 394.822 179.194 393.862 177.749 394.102C176.322 394.339 175.342 395.702 175.579 397.127L178.461 414.242C177.541 414.749 176.631 415.328 175.783 415.97L168.508 400.699C167.871 399.384 166.314 398.83 164.997 399.466C163.68 400.101 163.124 401.657 163.76 402.971L171.75 419.726C171.578 419.912 171.426 420.114 171.256 420.318L158.076 408.833C156.966 407.873 155.307 407.999 154.36 409.087C153.416 410.193 153.524 411.852 154.631 412.794L168.386 424.774C168.031 425.455 167.699 426.168 167.404 426.894L153.189 416.509C152.021 415.647 150.361 415.9 149.498 417.066C148.634 418.232 148.886 419.889 150.053 420.751L165.757 432.222C165.647 432.724 165.558 433.24 165.489 433.772L150.273 428.193C148.903 427.684 147.396 428.383 146.886 429.751C146.376 431.12 147.075 432.624 148.445 433.133L165.124 439.244C165.133 439.819 165.162 440.409 165.191 440.999L149.137 440.598C147.69 440.568 146.48 441.711 146.432 443.159C146.401 444.604 147.546 445.811 148.995 445.859L165.9 446.284C165.978 446.705 166.071 447.106 166.168 447.542L150.785 451.134C149.37 451.46 148.489 452.881 148.814 454.294C149.14 455.706 150.562 456.586 151.977 456.26L167.656 452.591C167.894 453.259 168.151 453.926 168.407 454.592L154.531 461.068C153.211 461.687 152.637 463.244 153.256 464.562C153.875 465.879 155.434 466.451 156.754 465.833L170.665 459.351C171.136 460.257 171.624 461.161 172.127 462.044L159.05 469.327C157.779 470.028 157.321 471.642 158.04 472.909C158.743 474.178 160.358 474.635 161.627 473.915L174.922 466.512C175.491 467.35 176.06 468.188 176.664 469.022L164.386 477.11C163.165 477.912 162.836 479.543 163.639 480.763C164.442 481.982 166.076 482.31 167.297 481.507L179.888 473.213C180.523 474.006 181.191 474.776 181.861 475.564L170.296 484.488C169.14 485.371 168.94 487.02 169.824 488.174C170.706 489.31 172.36 489.527 173.516 488.644L185.389 479.478C186.087 480.208 186.806 480.953 187.521 481.68L176.639 491.48C175.551 492.462 175.48 494.129 176.46 495.197C177.443 496.283 179.112 496.354 180.182 495.375L191.305 485.36C192.051 486.048 192.8 486.752 193.564 487.437L183.349 498.133C182.344 499.193 182.379 500.845 183.44 501.848C184.501 502.851 186.155 502.816 187.16 501.755L197.532 490.893C198.311 491.557 199.108 492.219 199.902 492.864L190.357 504.474C189.433 505.595 189.594 507.247 190.716 508.169C191.838 509.091 193.493 508.93 194.417 507.809L204.022 496.118C204.832 496.742 205.659 497.364 206.468 497.988L197.578 510.532C196.735 511.714 197.002 513.351 198.185 514.193C199.367 515.034 201.007 514.767 201.85 513.586L210.715 501.117C211.678 501.809 212.657 502.481 213.635 503.154L205.629 516.078C204.864 517.302 205.237 518.924 206.483 519.703C207.709 520.467 209.351 520.091 210.114 518.849L218.016 506.083C219.01 506.736 220.002 507.37 221.013 508.02L213.892 521.341C213.207 522.626 213.684 524.216 214.971 524.899C216.257 525.582 217.849 525.105 218.534 523.82L225.498 510.791C226.504 511.405 227.528 512.017 228.55 512.611L222.317 526.348C221.711 527.676 222.291 529.232 223.621 529.837C224.951 530.442 226.51 529.862 227.116 528.534L233.144 515.259C234.181 515.833 235.2 516.409 236.234 516.966L230.892 531.135C230.379 532.486 231.063 534.01 232.416 534.521C233.768 535.033 235.295 534.349 235.826 532.996L240.932 519.455C241.981 519.991 243.013 520.53 244.06 521.048L239.606 535.632C239.189 537.024 239.954 538.482 241.35 538.916C242.743 539.331 244.204 538.567 244.639 537.173L248.844 523.381C249.906 523.879 250.969 524.378 252.011 524.861L248.465 539.875C248.124 541.292 249.007 542.698 250.426 543.038C251.845 543.378 253.253 542.495 253.594 541.078L256.914 527.015C257.988 527.475 259.043 527.921 260.098 528.366L257.478 543.808C257.228 545.23 258.195 546.588 259.637 546.835C261.061 547.084 262.421 546.118 262.669 544.679L265.102 530.344C266.19 530.767 267.257 531.174 268.32 531.547L266.636 547.361C266.479 548.805 267.528 550.098 268.974 550.254C270.421 550.41 271.716 549.363 271.873 547.918L273.421 533.312C274.65 533.715 275.876 534.1 277.063 534.455L277.432 550.25C277.475 551.702 278.682 552.847 280.14 552.821C281.595 552.778 282.741 551.572 282.716 550.117L282.373 535.921C283.252 536.14 284.093 536.345 284.931 536.533L289.765 552.778C290.176 554.161 291.642 554.963 293.044 554.549C294.429 554.137 295.233 552.673 294.819 551.273L290.742 537.586C291.24 537.66 291.737 537.734 292.212 537.775L301.526 551.516C302.345 552.715 303.978 553.043 305.197 552.223C306.398 551.405 306.707 549.759 305.907 548.557L298.685 537.889C300.071 537.747 301.259 537.472 302.23 537.065L313.342 544.627C314.54 545.449 316.192 545.144 317.016 543.947C317.839 542.75 317.534 541.101 316.336 540.279L305.345 532.808C305.38 531.524 305.019 529.99 304.169 528.183L317.245 528.95C318.7 529.033 319.952 527.938 320.036 526.486C320.12 525.034 319.024 523.784 317.569 523.701L300.746 522.706C300.169 522.067 299.594 521.32 298.942 520.529ZM202.462 478.277C205.195 480.646 208.869 480.867 210.687 478.791C212.486 476.719 211.726 473.117 208.993 470.747C206.26 468.377 202.586 468.157 200.768 470.232C198.968 472.305 199.729 475.907 202.462 478.277ZM227.768 493.255C231.384 496.383 236.151 496.809 238.417 494.203C240.682 491.596 239.575 486.944 235.96 483.817C232.345 480.689 227.577 480.263 225.311 482.869C223.046 485.476 224.153 490.128 227.768 493.255ZM199.18 455.006C204.172 459.326 210.747 459.911 213.863 456.302C216.982 452.711 215.462 446.281 210.473 441.978C205.481 437.658 198.905 437.073 195.789 440.682C192.67 444.273 194.188 450.686 199.18 455.006Z" fill="#DC0000"/>
<path d="M156.771 509.157L149.763 501.22L144.717 505.481L148.328 509.572C149.821 511.312 150.558 513.034 150.533 514.736C150.507 516.444 149.74 517.933 148.232 519.209C146.716 520.489 145.08 521.022 143.32 520.812C141.561 520.602 139.922 519.667 138.412 518.013L132.845 511.704L149.659 497.51L158.592 507.63L156.771 509.157ZM142.907 507.01L136.581 512.357L140.082 516.325C141.031 517.404 142.065 517.997 143.185 518.097C144.297 518.201 145.349 517.839 146.335 517.002C147.284 516.201 147.779 515.283 147.813 514.241C147.854 513.201 147.408 512.145 146.488 511.071L142.907 507.01Z" fill="#DC0000"/>
<path d="M154.679 534.239C154.783 533.9 155.085 533.394 155.578 532.733C153.685 532.828 152.076 532.263 150.75 531.04C149.563 529.951 148.905 528.73 148.771 527.368C148.641 526.014 149.059 524.83 150.025 523.822C151.198 522.596 152.592 522.083 154.195 522.281C155.797 522.479 157.463 523.371 159.194 524.959L161.199 526.803L162.087 525.876C162.76 525.172 163.088 524.414 163.052 523.605C163.023 522.79 162.586 522 161.747 521.229C161.01 520.556 160.223 520.172 159.378 520.077C158.533 519.981 157.86 520.195 157.367 520.705L155.295 518.801C155.858 518.213 156.617 517.843 157.567 517.689C158.516 517.534 159.514 517.629 160.552 517.983C161.591 518.336 162.548 518.914 163.424 519.716C164.813 520.993 165.577 522.331 165.71 523.728C165.849 525.126 165.356 526.44 164.246 527.654L159.045 533.071C158.01 534.15 157.324 535.139 156.992 536.04L156.824 536.212L154.679 534.239ZM152.733 529.561C153.382 530.152 154.147 530.556 155.039 530.756C155.929 530.961 156.757 530.922 157.518 530.636L159.834 528.22L158.217 526.738C155.694 524.418 153.741 523.985 152.352 525.428C151.749 526.061 151.49 526.749 151.58 527.502C151.675 528.257 152.06 528.942 152.733 529.561Z" fill="#DC0000"/>
<path d="M169.759 537.6L168.13 536.367L163.84 541.82L161.592 540.122L171.666 527.332L173.914 529.03L169.649 534.447L171.115 535.553L179.78 533.455L182.486 535.499L172.468 537.745L172.848 548.624L170.008 546.483L169.759 537.6Z" fill="#DC0000"/>
<path d="M194.531 545.679L189.845 542.778L182.243 554.53L179.854 553.05L187.456 541.298L182.863 538.452L184.089 536.559L195.752 543.785L194.531 545.679Z" fill="#DC0000"/>
<path d="M195.875 562.449C193.889 561.436 192.611 559.976 192.04 558.064C191.47 556.152 191.755 554.128 192.888 551.996L193.13 551.545C193.883 550.125 194.836 548.995 195.987 548.161C197.139 547.326 198.378 546.85 199.707 546.726C201.042 546.603 202.289 546.835 203.457 547.429C205.366 548.398 206.516 549.767 206.925 551.534C207.328 553.3 206.927 555.326 205.709 557.61L205.17 558.627L195.24 553.571C194.527 555.004 194.338 556.358 194.684 557.64C195.031 558.922 195.828 559.876 197.073 560.515C197.957 560.965 198.799 561.168 199.603 561.13C200.407 561.091 201.193 560.894 201.96 560.549L202.872 562.496C200.665 563.716 198.328 563.702 195.875 562.449ZM202.384 549.446C201.371 548.93 200.332 548.857 199.266 549.229C198.201 549.601 197.235 550.393 196.388 551.609L203.732 555.346L203.83 555.161C204.421 553.878 204.585 552.741 204.336 551.741C204.081 550.74 203.436 549.977 202.384 549.446Z" fill="#DC0000"/>
<path d="M222.596 565.017C221.666 567.302 220.381 568.932 218.743 569.907C217.104 570.882 215.375 571.014 213.551 570.3C211.686 569.573 210.463 568.418 209.862 566.848L206.912 574.066L204.292 573.039L212.774 552.278L215.167 553.214L214.612 554.929C216.207 554.053 217.958 553.992 219.857 554.731C221.699 555.454 222.878 556.703 223.396 558.479C223.914 560.255 223.681 562.355 222.687 564.777L222.596 565.017ZM220.095 563.702C220.785 562.012 220.962 560.531 220.625 559.262C220.289 557.994 219.478 557.109 218.194 556.606C216.608 555.986 215.137 556.209 213.78 557.274L210.854 564.437C211.08 566.11 212.002 567.268 213.616 567.899C214.872 568.39 216.073 568.296 217.213 567.614C218.347 566.926 219.31 565.624 220.095 563.702Z" fill="#DC0000"/>
<path d="M239.851 561.485L242.568 562.243L238.056 577.777L235.34 577.019L238.632 565.691L228.015 574.976L225.299 574.218L229.811 558.684L232.527 559.442L229.231 570.787L239.851 561.485Z" fill="#DC0000"/>
<path d="M257.971 565.15L260.755 565.627L257.926 581.542L255.141 581.065L257.202 569.46L247.637 579.778L244.853 579.301L247.686 563.393L250.471 563.87L248.407 575.486L257.971 565.15Z" fill="#DC0000"/>
</svg>
